<?xml version="1.0" encoding="UTF-8" standalone="no"?>
<!-- Created with Inkscape (http://www.inkscape.org/) -->

<svg
   width="179.77873mm"
   height="226.16901mm"
   viewBox="0 0 179.77873 226.169"
   version="1.1"
   id="svg5"
   inkscape:version="1.2.1 (9c6d41e410, 2022-07-14)"
   sodipodi:docname="Drivetrain - Truck.svg"
   xml:space="preserve"
   xmlns:inkscape="http://www.inkscape.org/namespaces/inkscape"
   xmlns:sodipodi="http://sodipodi.sourceforge.net/DTD/sodipodi-0.dtd"
   xmlns="http://www.w3.org/2000/svg"
   xmlns:svg="http://www.w3.org/2000/svg"><sodipodi:namedview
     id="namedview7"
     pagecolor="#505050"
     bordercolor="#eeeeee"
     borderopacity="1"
     inkscape:pageshadow="0"
     inkscape:pageopacity="0"
     inkscape:pagecheckerboard="0"
     inkscape:document-units="mm"
     showgrid="false"
     inkscape:zoom="0.9814281"
     inkscape:cx="435.58973"
     inkscape:cy="433.55188"
     inkscape:window-width="2560"
     inkscape:window-height="1361"
     inkscape:window-x="2551"
     inkscape:window-y="-9"
     inkscape:window-maximized="1"
     inkscape:current-layer="layer3"
     inkscape:snap-page="true"
     inkscape:showpageshadow="0"
     inkscape:deskcolor="#505050" /><defs
     id="defs2"><marker
       id="DistanceX"
       orient="auto"
       refX="0"
       refY="0"
       style="overflow:visible"><path
         d="M 3,-3 -3,3 M 0,-5 V 5"
         style="stroke:#000000;stroke-width:0.5"
         id="path24978" /></marker><pattern
       id="Hatch"
       patternUnits="userSpaceOnUse"
       width="8"
       height="8"
       x="0"
       y="0"><path
         d="M8 4 l-4,4"
         stroke="#000000"
         stroke-width="0.25"
         linecap="square"
         id="path24981" /><path
         d="M6 2 l-4,4"
         stroke="#000000"
         stroke-width="0.25"
         linecap="square"
         id="path24983" /><path
         d="M4 0 l-4,4"
         stroke="#000000"
         stroke-width="0.25"
         linecap="square"
         id="path24985" /></pattern><symbol
       id="*Model_Space" /><symbol
       id="*Paper_Space" /><symbol
       id="*Paper_Space0" /><symbol
       id="SW_NOTE_0"><text
         x="55.157478"
         y="1112.8641"
         style="font-size:7.559px;font-family:Arial;text-anchor:middle;fill:#000000"
         id="text24993"><tspan
           sodipodi:role="line"
           dx="0"
           dy="7.5590549"
           id="tspan24991"
           x="55.157478"
           y="1112.8641">Hochschule RheinMain</tspan></text><text
         x="56.116146"
         y="1124.2028"
         style="font-size:7.559px;font-family:Arial;text-anchor:middle;fill:#000000"
         id="text24997"><tspan
           sodipodi:role="line"
           dx="0"
           dy="7.5590549"
           id="tspan24995"
           x="56.116146"
           y="1124.2028">Studienbereich Angewandte</tspan></text><text
         x="55.019032"
         y="1135.5414"
         style="font-size:7.559px;font-family:Arial;text-anchor:middle;fill:#000000"
         id="text25001"><tspan
           sodipodi:role="line"
           dx="0"
           dy="7.5590549"
           id="tspan24999"
           x="55.019032"
           y="1135.5414">Physik &amp; Medizintechnik</tspan></text></symbol><marker
       id="DistanceX-9"
       orient="auto"
       refX="0"
       refY="0"
       style="overflow:visible"><path
         d="M 3,-3 -3,3 M 0,-5 V 5"
         style="stroke:#000000;stroke-width:0.5"
         id="path30214" /></marker><pattern
       id="Hatch-8"
       patternUnits="userSpaceOnUse"
       width="8"
       height="8"
       x="0"
       y="0"><path
         d="M8 4 l-4,4"
         stroke="#000000"
         stroke-width="0.25"
         linecap="square"
         id="path30217" /><path
         d="M6 2 l-4,4"
         stroke="#000000"
         stroke-width="0.25"
         linecap="square"
         id="path30219" /><path
         d="M4 0 l-4,4"
         stroke="#000000"
         stroke-width="0.25"
         linecap="square"
         id="path30221" /></pattern><symbol
       id="*Model_Space-3" /><symbol
       id="*Paper_Space-1" /><symbol
       id="*Paper_Space0-0" /><symbol
       id="SW_NOTE_0-2"><text
         x="55.157478"
         y="1112.8641"
         style="font-size:7.559px;font-family:Arial;text-anchor:middle;fill:#000000"
         id="text30229"><tspan
           sodipodi:role="line"
           dx="0"
           dy="7.5590549"
           id="tspan30227"
           x="55.157478"
           y="1112.8641">Hochschule RheinMain</tspan></text><text
         x="56.116146"
         y="1124.2028"
         style="font-size:7.559px;font-family:Arial;text-anchor:middle;fill:#000000"
         id="text30233"><tspan
           sodipodi:role="line"
           dx="0"
           dy="7.5590549"
           id="tspan30231"
           x="56.116146"
           y="1124.2028">Studienbereich Angewandte</tspan></text><text
         x="55.019032"
         y="1135.5414"
         style="font-size:7.559px;font-family:Arial;text-anchor:middle;fill:#000000"
         id="text30237"><tspan
           sodipodi:role="line"
           dx="0"
           dy="7.5590549"
           id="tspan30235"
           x="55.019032"
           y="1135.5414">Physik &amp; Medizintechnik</tspan></text></symbol><marker
       id="DistanceX-0"
       orient="auto"
       refX="0"
       refY="0"
       style="overflow:visible"><path
         d="M 3,-3 -3,3 M 0,-5 V 5"
         style="stroke:#000000;stroke-width:0.5"
         id="path32309" /></marker><pattern
       id="Hatch-0"
       patternUnits="userSpaceOnUse"
       width="8"
       height="8"
       x="0"
       y="0"><path
         d="M8 4 l-4,4"
         stroke="#000000"
         stroke-width="0.25"
         linecap="square"
         id="path32312" /><path
         d="M6 2 l-4,4"
         stroke="#000000"
         stroke-width="0.25"
         linecap="square"
         id="path32314" /><path
         d="M4 0 l-4,4"
         stroke="#000000"
         stroke-width="0.25"
         linecap="square"
         id="path32316" /></pattern><symbol
       id="*Model_Space-4" /><symbol
       id="*Paper_Space-3" /><symbol
       id="*Paper_Space0-08" /><symbol
       id="SW_NOTE_0-6"><text
         x="55.157478"
         y="1112.8641"
         style="font-size:7.559px;font-family:Arial;text-anchor:middle;fill:#000000"
         id="text32324"><tspan
           sodipodi:role="line"
           dx="0"
           dy="7.5590549"
           id="tspan32322"
           x="55.157478"
           y="1112.8641">Hochschule RheinMain</tspan></text><text
         x="56.116146"
         y="1124.2028"
         style="font-size:7.559px;font-family:Arial;text-anchor:middle;fill:#000000"
         id="text32328"><tspan
           sodipodi:role="line"
           dx="0"
           dy="7.5590549"
           id="tspan32326"
           x="56.116146"
           y="1124.2028">Studienbereich Angewandte</tspan></text><text
         x="55.019032"
         y="1135.5414"
         style="font-size:7.559px;font-family:Arial;text-anchor:middle;fill:#000000"
         id="text32332"><tspan
           sodipodi:role="line"
           dx="0"
           dy="7.5590549"
           id="tspan32330"
           x="55.019032"
           y="1135.5414">Physik &amp; Medizintechnik</tspan></text></symbol></defs><g
     inkscape:groupmode="layer"
     id="layer3"
     inkscape:label="Truck"
     transform="translate(10.821801,44.569904)"><g
       id="g38486"><g
         id="g36433"
         transform="matrix(0.35277779,0,0,-0.35277777,99.44048,-7.861786)"><path
           d="M 0,0 7.2,-6.2 3.9,-8.7 0,0 m 0,0 6.2,-8.1 5.5,-6.4 5.3,-4.5 5.4,-2.7 5.7,-1 6.2,0.3 6.6,1.2 7.2,1.4 7.6,1 h 4.7 l 4.7,-0.8 4.6,-1.7 4.6,-2.8 4.3,-4.4 m -47.7,-209.7 9.3,2.1 v -4 l -9.3,1.9 m 0,0 12.4,0.2 10.5,0.5 8.6,1 7,1.9 5.9,2.8 5,3.7 4.7,4.4 3.8,3.8 4.1,4.1 5,4.1 5.9,4 5.7,3 6.7,2.6 8,2.1 9.5,1.5 m -137.5,-88.1 9.3,-2.2 -1.7,-3.7 -7.6,5.9 m 0,0 8.5,-4 7.5,-3.2 6.7,-2.1 6.1,-0.9 5.6,0.3 5.3,1.5 5,2.8 5.1,3.8 6.9,6.2 7.5,6.9 8.2,6.8 4.5,2.9 4.9,2.3 5.2,1.7 5.6,0.8 6,-0.4 6.5,-1.7 m 11.8,-114.9 0.3,9.6 3.9,-1 -4.2,-8.6 m 0,0 2.6,9.9 2.7,7.9 3.3,6.3 4.1,5 4.9,4.4 4.6,3.6 4.6,4.1 4.3,4.9 2.3,3.6 1.8,4.3 1.3,5.1 0.6,5.9 -0.3,7.1 m -263.2,-133.4 9,3.3 0.6,-4 -9.6,0.7 m 0,0 9.4,1.3 7.9,0.9 6.6,0.3 5.6,-0.4 4.6,-0.9 4.1,-1.5 3.9,-1.9 3.2,-1.6 3.4,-1.6 4,-1.3 4.7,-1 5.6,-0.3 6.9,0.5 8.4,1.7 m -116.3,-51.4 6.9,6.6 2.2,-3.5 -9.1,-3.1 m 0,0 8.7,5.2 7.6,4.2 7,3 6.8,1.9 6.8,0.8 7.1,-0.2 7.5,-0.9 7.4,-1.4 7.8,-1.6 8.4,-1.5 8.7,-1.2 9.1,-0.4 9.2,0.8 m -147.8,-40.3 9.5,-1.1 -1.3,-3.9 -8.2,5 m 0,0 10.9,-3.6 9.3,-2.6 8.2,-1.3 7.4,0.1 6.8,1.4 6.5,2.5 6.5,3.2 6.7,3.5 7,3 4.5,1.3 4.6,0.7 4.8,-0.2 5.1,-1.2 5.2,-2.7 m -97.5,311 -2.9,-9.1 -3.5,2.1 6.4,7 m 0,0 -4.9,-8.3 -4.6,-6.3 -4.6,-4.4 -5.1,-2.8 -5.6,-1.5 -5,-0.7 -5.2,-0.8 -5.2,-1.3 -3.6,-1.7 -3.3,-2.7 -2.6,-3.9 -1.8,-5.6 m -14.2,100.7 -0.1,-9.6 -4,0.9 4.1,8.7 m 0,0 -2,-8.2 -2.3,-6.7 -2.9,-5.6 -3.9,-5.2 -4.5,-5.3 -2.6,-3.2 -2.5,-3.6 -2.4,-4 -1.8,-4.5 -1.3,-5.2 -0.3,-6 0.9,-6.9"
           style="fill:none;stroke:#000000;stroke-width:0.51;stroke-linecap:butt;stroke-linejoin:miter;stroke-miterlimit:10;stroke-dasharray:none;stroke-opacity:1"
           id="path36435" /></g><g
         id="g36437"
         transform="matrix(0.35277779,0,0,-0.35277777,99.44048,-7.861786)"><path
           d="M 0,0 7.2,-6.2 3.9,-8.7 m 27,-229.5 9.3,2.1 v -4 m -44,-46.5 9.3,-2.2 -1.7,-3.7 m 109.3,-85.3 0.3,9.6 3.9,-1 m -230.6,-69.9 9,3.3 0.6,-4 m -47.6,-56.5 6.9,6.6 2.2,-3.5 m -54.8,-34.7 9.5,-1.1 -1.3,-3.9 m -12.2,320.1 -2.9,-9.1 -3.5,2.1 m -59.3,67.7 -0.1,-9.6 -4,0.9"
           style="fill:#000000;fill-opacity:1;fill-rule:nonzero;stroke:none"
           id="path36439" /></g><g
         id="g36441"
         transform="matrix(0.35277779,0,0,-0.35277777,89.45687,95.255158)"><path
           d="m 0,0 -4.1,2.2 -4.3,2.5 -4.2,2.8 -4.1,3.1 -3.9,3.2 -3.7,3.3 -3.2,3.3 -2.9,3.3 -2.3,3.1 -1.9,3 -1.2,2.7 -0.6,2.3 -0.1,2.1 0.6,1.6 0.8,0.9 M 21.3,-2 l -0.9,-1.2 -1.5,-1 -2,-0.5 h -2.6 l -3,0.5 L 7.8,-3.3 4.1,-1.9 0,0 m 16,27.2 -3.8,2.1 -3.9,2.3 -3.8,2.7 -3.7,2.8 -3.4,3 -3.1,3 -2.6,3 -2.2,2.8 -1.5,2.7 -1,2.3 -0.4,2.1 0.3,1.7 0.8,1.2 M 33,25.7 32.1,24.5 30.6,23.7 28.5,23.5 26,23.7 23,24.4 19.6,25.6 16,27.2 m -26.9,26 -0.5,1.6 -0.2,1.9 0.5,1.4 1,1.1 1.7,0.6 h 2.2 l 1.6,-0.2 m 36.1,-26.5 0.7,-1.7 0.5,-2.1 -0.1,-1.7 -0.8,-1.2 -1.4,-0.8 -1.9,-0.4 -2.5,0.2 -2.9,0.7 -3.3,1.1 -3.5,1.6 m -16.4,-29.1 -4.2,2.2 -4.2,2.6 -4.3,2.8 -4.1,3 -3.9,3.3 -3.6,3.2 -3.3,3.4 -2.9,3.2 -2.3,3.2 -1.9,2.9 -1.2,2.7 -0.6,2.4 -0.1,2.1 0.6,1.6 0.1,0.1 M 20.6,-3.1 20.3,-3.5 18.8,-4.4 16.7,-4.9 h -2.6 l -3,0.4 -3.4,1 -3.8,1.4 -4,1.8 m 13.9,35.2 -2.8,1.5 -2.8,1.8 -2.6,2 -2.4,2.2 -2,2.1 -1.6,2.1 -1,1.8 -0.4,1.6 0.2,1.2 0.8,0.7 1.4,0.3 1.9,-0.2 2.3,-0.7 2.6,-1.1 2.7,-1.5 2.8,-1.8 2.6,-2 2.4,-2.2 2.1,-2.1 1.5,-2.1 1,-1.9 0.4,-1.5 -0.2,-1.2 -0.8,-0.7 -1.4,-0.3 -1.9,0.2 -2.3,0.7 -2.5,1.1 m -15,14.5 0.4,0.4 1.2,0.4 1.8,-0.1 2.2,-0.7 2.5,-1 2.6,-1.5 2.7,-1.8 2.6,-2 L 17,41 18.8,38.9 20.1,37 20.8,35.3 20.9,34 20.7,33.5 m -100.4,-165.6 2.5,0.1 1.9,0.5 1.4,1.1 0.8,1.3 m -55,40.1 -0.6,-0.6 -0.5,-0.7 m 16.2,-11.9 v 0.2 l 0.7,0.8 v 0.1 m 22.8,-16.4 -0.3,-0.9 -1,-0.6 -1.5,-0.2 m 1.5,0.7 v 0 l 0.3,1.1 -0.4,1.5 -1,1.8 -1.5,2.1 -2.1,2.1 -2.4,2 -2.6,1.9 -2.7,1.7 -2.6,1.3 -2.4,0.8 -2,0.4 -1.5,-0.2 -0.9,-0.5 m -24.1,-114.4 h -0.3 l -2.8,0.1 -3.3,0.7 -3.7,1.1 -4,1.6 -4.2,2 -4.4,2.4 -4.4,2.7 -4.4,3 -4.3,3.2 -4,3.3 -3.7,3.4 -3.4,3.5 -3,3.4 -2.4,3.2 -1.9,3.1 -1.3,2.8 -0.5,1.8 m 208,249.8 3.3,-3.2 3.6,-3.2 3.9,-3 4,-2.8 4.1,-2.6 4.1,-2.3 4,-1.9 3.7,-1.5 3.4,-1 3,-0.6 2.6,-0.1 2.1,0.5 1.4,0.9 0.9,1.3 0.3,1.6 M 8.9,93.5 7.9,93.1 6.7,91.9 6.1,90.3 V 88.4 L 6.8,86 8.1,83.4 10,80.5 l 2.4,-3.1 2.9,-3.2 m 5.1,2.3 3,-2.9 3.3,-2.8 3.6,-2.7 3.6,-2.5 3.7,-2.2 3.6,-1.9 3.5,-1.4 3.1,-1 2.8,-0.6 h 2.3 l 1.7,0.4 1.3,0.9 0.6,1.4 -0.1,1.8 -0.6,2.1 -1.3,2.4 -1.8,2.7 -2.4,2.8 -2.7,2.9 -3.2,2.9 -3.5,2.7 -3.6,2.6 -3.7,2.4 -3.6,2 -3.6,1.7 -3.3,1.2 -2.9,0.8 -2.6,0.3 -2,-0.2 -1.5,-0.7 -0.9,-1.1 -0.3,-1.6 0.3,-2 1,-2.3 1.5,-2.5 2.1,-2.8 2.6,-2.8 m -191.8,-135.4 274.9,-81.5 m 27.7,37.7 -274.9,81.6 m -0.4,1.1 274.9,-81.6 m -197.6,77.9 -117.6,34.9 m 184.1,-56 v -0.9 l -0.9,-1.7 -1.4,-1.3 M 133.5,-83.2 15.9,-48.3 m -67.1,20.2 v 0 l 0.3,-0.2 m -43.3,28.4 0.9,-2.3 0.8,-3.3 m -3.9,-6.7 0.4,0.7 0.6,2.4 m -2,10 0.3,0.3 0.4,0.2 0.4,0.1 0.4,0.1 h 0.4 m -3.4,-2.7 -6.5,-8.8 m 1.2,45.8 v -1.7 l 0.4,-4.1 0.7,-4.4 m -0.9,20.5 -0.2,-7.5 m 0.7,8.2 v 0 h -0.1 -0.1 m 22.3,-6.6 -19.4,5.8 m 23,-7.1 -0.1,0.1 -0.1,0.1 -0.2,0.1 -0.1,0.1 h -0.2 M -63,27.2 -75.1,36.9 m 69.1,-60.2 -4.1,4.1 -6.7,6.5 m 15.5,-15.2 -1.9,1.9 m -63.4,6.4 -1.2,1.5 -2.7,3.5 -2.1,3.3 -1.6,3.1 -0.9,2.8 -0.3,2.5 0.2,2 m 56.3,-22.7 1.6,-1.4 3.5,-3.7 3.2,-3.7 2.7,-3.5 m 4.7,-8.2 -0.3,-0.4 m -0.6,-3.2 0.8,1.6 0.2,2 m -6.3,5.1 -1.5,2.3 -2.7,3.5 -3.2,3.6 -3.6,3.6 -3.9,3.6 -4.3,3.6 -4.5,3.3 -4.6,3.2 -4.6,2.9 -4.6,2.6 -4.5,2.2 m 45.3,-41.4 0.2,-0.3 0.5,-0.1 m -9.5,6.9 2.4,-3.3 1.7,-3.2 1.2,-2.8 0.2,-0.6 m -65.3,44.6 1.7,0.5 2.6,0.2 3.2,-0.3 3.5,-0.8 3.9,-1.3 4.2,-1.7 4.4,-2 4.5,-2.5 4.6,-2.8 4.6,-3.1 4.5,-3.3 4.3,-3.4 4,-3.6 3.7,-3.6 3.3,-3.5 2.8,-3.5 m 12.1,-4.2 0.3,0.2 0.3,0.2 0.4,0.1 h 0.5 0.4 m -15.8,2.9 2.3,-3.3 1.8,-3.1 1,-2.5 m -62.7,42.4 0.8,0.3 2.5,0.3 h 0.5 m 50.9,-33.2 2.1,-3.2 1.6,-2.9 1,-2.6 0.1,-0.4 m -57.9,38 0.6,0.5 1.8,0.8 2.4,0.2 2.8,-0.2 1.1,-0.2 m 42.6,-30.8 2.1,-3 1.5,-2.8 0.7,-1.9 M -71.8,-12 v 0 l 1.8,0.7 2.2,0.3 2.8,-0.2 3.1,-0.7 3.6,-1.1 3.8,-1.6 4,-1.9 4.1,-2.4 4.2,-2.6 4.1,-2.9 3.9,-3 3.7,-3.2 3.5,-3.3 3,-3.2 2.6,-3.1 m 17.1,-4.7 h -0.2 -0.4 l -0.4,-0.1 -0.3,-0.2 m -17.2,3 2,-3 1.2,-2 m -51.7,34.1 2.1,0.2 2.7,-0.2 3.2,-0.7 3.5,-1.1 3.9,-1.6 4,-2 4.1,-2.3 4.2,-2.6 4.1,-2.9 3.9,-3 3.7,-3.2 3.5,-3.3 3,-3.2 2.6,-3.2 m -1.8,-0.8 2,-2.9 0.1,-0.1 M -70,-15 h 0.2 2.6 l 0.6,-0.1 m 38.8,-26.9 1.7,-2.4 m -41.5,26.3 1.1,0.2 2.3,-0.1 M -99,3.6 l -1,2.2 -2,5.1 -1.7,4.9 m -3.2,22.2 0.3,0.2 0.4,0.2 0.4,0.1 h 0.4 0.4 m 76.5,-80.6 1.3,-1.8 m -39.8,25.1 0.3,0.1 h 2.3 l 2.7,-0.4 3.1,-1 3.4,-1.3 3.7,-1.8 3.7,-2.2 3.8,-2.4 3.7,-2.7 3.4,-2.8 3.2,-3 2.9,-2.9 2.3,-2.9 m -98.9,51.2 v -3 m 17.3,27.6 -14.4,-19.7 m 61.8,-37.9 2.2,-0.4 2.9,-1 3.2,-1.4 2.4,-1.2 m 1.7,-1 2.7,-1.6 3.4,-2.4 3.3,-2.6 1.7,-1.4 m -88.3,46.9 -0.1,-0.3 -0.1,-0.3 M -3.1,-44.1 v 0.1 0.1 m 2.9,0.5 -0.2,0.1 m -3.1,-1.3 v 0.2 m 0.2,18.7 -0.1,0.1 h -0.2 m -103.6,63.7 0.2,7.6 m 0.4,0.8 0.3,0.2 0.3,0.2 0.4,0.1 0.5,0.1 0.4,-0.1 m -22.5,-28.9 -0.2,-7.5 m 17.6,31.7 -14.5,-19.8 m -2.9,-4 -0.1,-0.2 -0.2,-0.4 m 20.6,28.3 v 0.1 0.1 m 3,0.9 v -0.1 l 0.3,-0.1 m -23.5,-28.2 v -0.1 -0.2 m 47.9,21.3 v 0 l 0.3,-0.1 m -19.4,12.3 -0.6,0.8 -1.9,1.4 -2.4,0.9 -2.8,0.3 -3,-0.3 -3.2,-0.8 -3.2,-1.4 -3.1,-1.9 -2.9,-2.2 -2.5,-2.6 -2,-2.8 -1.5,-2.8 -0.9,-2.9 -0.2,-2.7 0.4,-2.4 1,-2.1 0.1,-0.2 m 49.5,8.5 V 39 l -0.1,-0.1 m 162.3,329.5 -13.4,7.9 m 3,3.6 11,-6.4 m -2.9,14.3 -8.1,4.8 m -3.5,2.1 -0.5,0.3 m 23.8,-20.3 -0.7,0.9 m -1.6,2.2 -5.2,6.8 m 1.3,-12.3 5.9,2.2 m -29.4,16.8 6.7,-8.8 m -1.3,12.4 -6,-2.2 m 3.6,-13.2 -8.2,10.7 m 15,-8.9 -0.3,-0.4 m 2.7,1.3 -0.2,-0.4 M 95.2,369.7 87.9,367 m -2,7.4 -0.3,-0.3 m -2.9,4.5 -0.3,-0.3 M 66,391.4 65.7,391 m 5.9,-3 -0.3,-0.3 m 15.5,-8.5 -0.3,-0.4 m 6,-2.9 -0.3,-0.4 m -18.1,14.4 -0.2,-0.4 m -2.9,4.6 -0.3,-0.4 m 12.6,-9.1 -0.3,-0.4 m 2.8,1.3 -0.3,-0.4 m -225.6,-266.6 -1.2,1.4 -2.4,1.6 -2.8,1 -3.2,0.5 -3.6,-0.1 -3.7,-0.7 -3.8,-1.3 -3.8,-1.8 -3.6,-2.2 -3.4,-2.7 -3,-3 -2.6,-3.2 -2,-3.4 -1.5,-3.4 -0.8,-3.3 -0.2,-3.2 0.5,-2.9 1.2,-2.5 0.5,-0.7 m 20.7,-9.5 h 0.9 l 3.1,0.4 3.2,1 3.2,1.5 3,1.9 2.8,2.4 2.4,2.6 1.9,2.8 1.4,2.9 0.4,1.4 m 114.8,107.5 0.4,11 m -30.2,-52.5 3.1,39 m -11.5,-58.2 6.7,9.8 m -31.4,-4.3 20.9,-6.2 m -30.2,22.1 5.3,-12.4 m -6.1,62.8 -0.2,-39.6 m -25.2,68.8 -0.4,-11 m 31.6,-55.2 0.8,48.8 M -89,165.5 v -0.1 l 0.2,-1.9 0.5,-1.9 0.5,-1.7 0.7,-1.5 0.9,-1.1 m 20.6,-6.9 -16.5,4.9 m 19.9,-5.6 0.8,0.2 0.9,0.7 0.8,1 0.7,1.3 m 5,63.5 -3.2,-48.4 m -73.5,64.9 0.4,11 m -151.3,-39.3 -0.1,-10.9 m 110.2,-5.6 0.1,-3.8 m -0.3,5.9 -0.3,1 -0.4,1 -0.5,0.9 -0.7,0.7 -0.8,0.5 m -22.7,-5 17.5,4.6 m -20.5,-5.4 -0.8,-0.3 -1.1,-0.9 m -25.8,-36.8 20.8,29.8 m -48.2,-3.2 20.1,-28 m 135.1,26 0.2,39.6 m -23.6,-81.4 19.5,28 m -62.2,15.6 33.6,-42.4 m 23.3,-13.4 15.5,22.2 m -29.7,-18.5 9.2,-6.6 m 12.2,41.5 -19.6,-28.1 m 29.8,18.6 -5.3,12.4 m -1.4,2.8 -0.2,0.2 -0.3,0.2 -0.2,0.2 -0.3,0.2 -0.2,0.2 m -26,-40 -0.2,0.2 -0.3,0.2 -0.2,0.2 -0.2,0.2 -0.3,0.2 m 29.2,38 0.4,0.1 0.5,0.2 0.4,0.2 0.4,0.2 0.4,0.2 m 5.4,-18.5 0.4,0.1 0.4,0.2 0.5,0.2 0.4,0.2 0.4,0.3 m -7.5,18.1 h -0.5 l -0.7,0.1 h -0.7 -0.7 -0.7 m 8.5,-19.6 0.3,-0.2 0.3,-0.2 0.3,-0.1 0.3,-0.1 0.2,-0.2 m -2.4,-4.4 -15.5,-22.2 m -5,-3.4 0.3,-0.2 0.3,-0.1 0.3,-0.2 0.3,-0.1 0.3,-0.1 m 45.7,23.5 -20.9,6.2 m 3.8,-32.9 16.6,21.6 m -42,-19.4 19.4,-5.8 m -0.4,37.7 0.1,0.3 0.2,0.3 0.1,0.4 0.1,0.3 0.1,0.4 m -0.5,18.4 v 0.1 m 2.9,-8.7 -0.3,0.2 m 0.7,-0.5 0.1,-0.3 0.1,-0.2 0.1,-0.3 v -0.3 m 22.9,-18 0.1,0.3 0.2,0.3 0.1,0.4 0.1,0.3 0.1,0.4 m -25.8,19.9 1.6,-2 m 2.5,-1 16.5,-4.9 m 2.8,-2.6 v 0.3 0.3 l -0.1,0.3 -0.1,0.3 m -50,-36.2 v 0 l 0.2,0.2 m -12.2,10.7 -0.1,-0.2 -0.4,-0.5 m 45.4,48.7 -6.4,1.9 m 21.3,-21.4 -12.3,16.8 m -93.8,9.8 v 0 l -0.1,0.5 v 0.5 m 44.3,-56.7 h -0.1 l -0.1,0.4 v 0.5 m 17.7,-10.8 -0.1,-0.2 -0.5,-0.4 -0.5,-0.3 m 23.8,-7.5 0.5,0.1 0.5,0.1 0.5,0.3 m 24.3,31.1 0.1,-0.1 h 0.2 M -85,108.3 h 0.1 l 0.2,-0.1 m 21.9,49.4 0.1,-0.5 0.1,-1.3 v -1.2 l -0.1,-1 m 4.3,4.8 -0.6,0.1 -0.7,0.1 -0.7,0.1 h -0.7 -0.6 m 1.3,-19.7 0.1,0.2 v 0.3 0.3 l -0.1,0.4 m 8.7,11.6 0.1,0.2 0.1,0.3 v 0.3 l -0.1,0.4 m -22.4,20.6 9.7,-13.1 m -11.6,14.5 -0.5,-0.4 -0.5,-0.4 -0.6,-0.3 -0.7,-0.3 -0.6,-0.1 m -8.3,4.2 5.8,-1.8 m 0.8,-0.5 0.1,-0.3 v -0.3 l 0.1,-0.3 0.1,-0.2 m 0.1,44.8 -6.2,1.8 m 6,-39 0.8,30.8 m 17.2,-44.8 3.1,45.8 m -15.2,-1 -0.8,-31 m 14.8,40.8 -12,-3.1 m 21.2,-66.1 v 0.2 m -29.4,68 0.2,-0.1 0.3,-0.3 0.4,-0.4 0.2,-0.6 m 3.5,-44.7 -0.6,-0.1 h -0.7 -0.7 -0.7 l -0.6,0.1 m 6.4,46 h -0.2 l -0.3,-0.3 -0.3,-0.4 -0.3,-0.5 m -4.7,-1.4 0.4,-0.1 0.6,-0.1 h 0.6 0.6 l 0.7,0.1 m -95.7,-35.2 -0.3,-0.1 m -0.9,4.9 0.1,0.2 m -1,2.1 h -0.1 -0.4 m -2.9,3.2 0.2,-0.6 0.2,-0.6 0.3,-0.6 0.4,-0.5 0.4,-0.4 m 2.2,-0.9 -1.1,0.3 m -2.7,-0.6 -17.5,-4.6 m -5,2.7 0.2,-0.6 0.2,-0.7 0.3,-0.6 0.4,-0.5 0.4,-0.4 m 4,-1.5 23,-6.8 m -31.4,8.8 0.4,-0.4 0.5,-0.4 0.6,-0.4 0.5,-0.4 0.6,-0.3 m -3,-6.2 -20.8,-29.8 m -7.7,-3.6 0.4,-0.4 0.5,-0.4 0.6,-0.4 0.5,-0.4 0.6,-0.3 m 30.5,-19.5 11.9,5.1 m -36.7,0.5 19.7,-5.9 m -24.1,18.1 1.6,-10.1 m 56.2,44.3 -25.6,7.6 m 15,-48.6 18.8,24.4 m -35.9,26.4 -0.2,-0.1 -0.5,-0.3 m -30.4,-42.5 -0.6,-0.2 h -0.7 -0.7 l -0.6,0.2 -0.6,0.2 m 1.6,-12.4 0.4,-0.3 0.6,-0.3 0.6,-0.1 0.7,-0.1 0.7,0.1 m -3.7,2.4 -1.6,10.2 m -0.2,1.5 v 0 0.2 l 0.1,0.3 0.1,0.2 0.1,0.3 m -3.1,2.7 -18,24.9 m 10.4,-25.3 10.8,-14.2 m -22.3,39.4 8.2,-19 m 15.7,-22.6 0.1,-0.1 m 4.5,-0.9 -0.2,-0.1 -0.4,-0.4 -0.5,-0.3 m 24.1,-7.6 h 0.4 l 0.5,0.2 0.5,0.2 m -43,27.5 0.1,-0.2 m 60.6,-19.2 0.3,-0.1 m -61,19.6 h -0.1 m 60.5,-20.5 h 0.1 m -16.6,-6.3 0.1,-0.3"
           style="fill:none;stroke:#000000;stroke-width:0.51;stroke-linecap:round;stroke-linejoin:round;stroke-miterlimit:10;stroke-dasharray:none;stroke-opacity:1"
           id="path36443" /></g><g
         id="g36445"
         transform="matrix(0.35277779,0,0,-0.35277777,96.97104,95.960708)"><path
           d="M 0,0 11.7,27.7 M -33.6,60.9 -56.4,41.4 m 29.6,20.6 -1.3,0.2 -2.4,-0.1 -1.9,-0.5 -0.7,-0.5 M 11.6,27.6 12,28.8 v 1.8 l -0.5,2.1 -0.7,1.6 m -66.7,7.3 -0.7,-0.4 -0.7,-0.9 m 56.5,-41.4 0.7,1 L 0,0.2 M -8.5,-11.7 -0.6,-1 m -56.6,41.5 -7.9,-10.7 m 64.4,5.7 v 0 l -0.2,-0.2 -0.7,-0.1 -1.3,0.1 -1.8,0.5 -2.2,0.9 -0.8,0.4 m 0,0 -1.3,0.6 -2.5,1.5 -2.5,1.8 -2.3,1.9 -2.1,1.9 -1.7,1.9 -1.3,1.8 -0.8,1.4 -0.3,1 v 0.5 h 0.1 m -95.4,-211.9 23,31.3 m -56.3,41.3 -23,-31.3 m 60.3,2.2 h -0.2 m 1.8,0.4 v 0 l -0.6,-0.3 -1,-0.1 m -20.2,16 0.1,0.5 m -93,-120 -0.2,-1.2 0.1,-1.7 0.5,-1.8 1,-2.1 1.8,-2.4 2.1,-2.3 2.4,-2.2 2.6,-2.1 2.7,-1.8 2.7,-1.6 2.8,-1.3 2.7,-0.9 2.7,-0.5 2,0.1 1.8,0.6 1.5,1 m -26.1,15 v 0 m 19.4,-14.2 1.3,-0.5 m -4.1,37.5 -1.2,0.4 m 20.7,-14.7 v 0 m 29.6,2.3 h 0.3 l 3.1,0.5 3,1 2.7,1.4 2.4,2 1.7,2 m -66.3,48.7 -0.8,-1.1 -1.4,-2.9 -0.8,-2.9 -0.3,-3 0.2,-3 0.4,-1.6 m 0,-0.1 0.1,-0.4 1,-3 1.7,-3.3 2.3,-3.5 2.8,-3.4 3,-3.4 3.4,-3.2 3.7,-3.2 3.9,-3.1 4,-2.9 4.1,-2.6 4.1,-2.4 4.1,-2.1 4,-1.8 3.9,-1.3 3.9,-1 3.8,-0.5 1.8,0.1 m 146.1,310.4 -2.2,-0.8 -2.7,-1.6 -2.4,-2.1 -1.4,-1.7 m 55.9,-41 1.5,2.2 1.2,3 0.6,3 v 2 m 0.1,0 v 0.4 l -0.3,2.4 -0.8,2.6 -1.4,3 -2.1,3.2 -2.5,3.2 -2.9,3.1 -3.2,3.1 -3.4,2.9 -3.6,2.7 -3.7,2.5 -3.8,2.3 -3.8,2 -3.7,1.7 -3.7,1.3 -3.6,0.9 -3.7,0.4 -2.8,-0.2 -1.4,-0.4 m -290.3,-85.5 -0.2,-0.5 m -1.2,-3.8 V 5.3 m 81.8,-9.9 -70.5,21 m -6.4,-21.8 70.5,-20.9 m -2.2,-19.4 350,-103.8 M -72.6,-26.1 -222.4,18.4 m 104.3,-29.2 -0.2,-0.3 -1.2,-1 m 94.1,-33.6 -0.3,-0.4 -0.9,-0.6 -1.4,-0.4 -2,-0.2 -2.5,0.2 -3,0.5 -3.4,0.9 -2.1,0.8 m -43,23.3 -2.8,3 -2.7,3.3 -2.3,3.1 -1.7,2.9 -1.3,2.6 -0.7,2.2 -0.3,1.8 0.1,1.3 0.4,1 m 12.8,-22.7 -1.2,1.1 -0.3,0.4 m 12.2,-4.9 -0.1,0.1 -0.1,0.1 h -0.1 l -0.1,0.1 h -0.1 l -0.1,0.1 h -0.1 -0.1 M -149.1,11 V 8.3 l 0.4,-5.5 1,-5.8 0.2,-0.9 M -22,-41.1 -22.4,-41 h -0.3 -0.3 l -0.3,-0.1 -0.3,-0.1 -0.3,-0.2 -0.3,-0.2 -0.2,-0.3 m -0.4,-0.5 v 0 l -0.4,-0.6 -0.3,-0.3 -0.2,-0.1 M 127.7,-85.5 -22,-41.1 m -2.4,-0.8 -0.4,-0.5 m 2.9,16.1 -2.1,2 -0.6,0.6 m 0,0 -4.4,4.4 -8.7,8.3 -4.4,4.1 m -106.7,26.5 -0.3,-8.6 m 23.6,38.3 -0.7,0.1 -0.7,-0.1 -0.6,-0.3 -0.6,-0.4 m -0.1,-0.2 -20.2,-27.5 m 47.8,21 -24.7,7.4 m 12.2,-3.6 -6.5,8.4 m -28.7,-21.7 4.3,-5.6 m -4.3,-5.9 -0.4,-0.6 -0.1,-0.5 v -0.3 m 67.2,7.7 -17.2,13.7 m -20.8,13.2 -2.5,2.8 -3.1,2.1 -3.5,1.5 -3.7,0.7 -3.7,-0.1 -3.7,-0.8 -3.4,-1.6 -3,-2.3 -2.5,-2.8 -1.8,-3.3 -1.1,-3.6 -0.3,-3.8 0.5,-3.7 1.2,-3.6 1.9,-3.2 m 49.5,8.5 -0.5,0.3 -0.5,0.4 -0.5,0.2 -0.3,0.1 m 241.6,-177.8 51.2,-15.2 m 6.5,21.8 -51.2,15.2 m 54.6,-30.7 0.3,0.5 m 1.1,3.8 0.1,0.5 M 51.3,384.7 50.9,384.1 m 14.9,-9 0.4,0.6 M 34,375.8 -62.6,244.2 m 21.3,-15.7 96.2,131.2 m 0.2,24.1 0.4,0.5 m -9.3,13.6 -8,-2.9 m 23.1,-13.9 -0.4,-0.5 M 43.8,394.5 43.4,394 m 7.4,-4.6 0.4,0.5 m 13.4,-7.6 -0.4,-0.5 m 7.4,-4.6 0.4,0.6 m 2.2,-2.3 -9.5,12.5 m -10.6,2.6 0.4,0.6 m 10.1,-3.1 -0.4,0.2 m -1.1,0.6 -12.2,7.2 m -1,0.6 -1.8,1 M 60.4,388 60,387.4 m -10.4,9.2 -0.4,-0.5 m 15,-9 0.4,0.5 m -127.4,-145.1 0.6,-2.7 m 16.7,-12.2 2.7,0.2 m -101.1,-130.4 -17.5,23.1 m -39.4,-29.9 17.5,-23.1 m -10.6,49.4 -1.4,-1.2 -2.6,-3 -2.2,-3.2 -1.7,-3.3 -1.1,-3.4 -0.5,-3.4 0.2,-3.2 0.8,-2.9 1.5,-2.6 0.4,-0.5 m 16.3,33.1 -1.3,-0.6 -3.5,-1.9 -3.3,-2.4 -1.6,-1.5 m 32.7,3.3 -0.1,0.1 -1.9,2.1 -2.4,1.6 -2.7,1.1 -3.1,0.6 -3.3,0.1 -3.6,-0.5 -3.6,-1 -2.3,-1 m 74.8,45.6 1.2,68 m 0.8,-75.8 -0.3,0.4 -0.4,0.8 -0.6,1.4 -0.5,2.2 -0.2,2.5 v 0.5 m -38.7,-42.6 13.2,-9.3 m -58.1,65.8 44.1,-55.8 m 0,0 0.1,-0.1 0.1,-0.1 h 0.1 l 0.1,-0.1 0.1,-0.1 0.1,-0.1 0.1,-0.1 0.1,-0.1 m 13.2,-9.3 0.1,-0.1 0.1,-0.1 0.1,-0.1 h 0.2 l 0.1,-0.1 0.1,-0.1 h 0.2 0.1 m 0,0 24.8,-7.4 m 3.8,1.3 23.3,30.2 m 0.2,0.2 8.7,12.7 M -82,140.6 h 0.1 v 0.1 h 0.1 v 0.1 m 9.3,14.5 4.4,54.9 m -5,-56.7 0.1,0.2 0.2,0.2 v 0.3 l 0.1,0.2 0.1,0.2 0.1,0.2 v 0.3 0.2 m -36.6,-46.2 0.5,-0.1 h 0.5 0.6 l 0.5,0.1 0.5,0.2 0.5,0.3 0.4,0.4 0.3,0.4 m 3.1,113.2 -6.2,1.9 m 32.6,2.8 -18.1,-4.7 m 0,0 -0.7,-0.2 -1.3,-0.2 -1.8,-0.1 -1.9,0.1 -1.6,0.2 -1,0.2 m -91.6,-38.7 v -0.3 l 0.1,-0.3 V 184 l 0.1,-0.2 0.1,-0.3 0.2,-0.3 0.1,-0.2 0.2,-0.2 m -1,7.4 0.2,-5.3 m -1,7.6 v 0 l 0.3,-0.3 0.3,-0.6 0.2,-1 v -0.4 m 152.8,11.6 0.7,15.5 m -264.7,-9.9 v -15.3 m 53.6,-60.9 0.2,-0.2 0.2,-0.2 0.2,-0.2 0.2,-0.2 0.3,-0.2 0.2,-0.1 0.3,-0.1 0.3,-0.1 m 0,0 25,-7.4 m -40.9,27.1 14,-18.4 m 47.5,-0.2 25.7,33.3 m -100.1,15.2 12.5,-29.1 m 43.8,-27.8 16.6,7.3 m -60.4,20.5 v -0.1 l 0.1,-0.1 v -0.1 l 0.1,-0.1 v -0.1 l 0.1,-0.1 0.1,-0.1 v -0.1 m 40.9,-27.1 0.3,-0.1 0.3,-0.1 h 0.4 0.3 l 0.3,0.1 h 0.3 l 0.3,0.1 0.3,0.1 m 16.6,7.3 0.3,0.1 0.2,0.1 0.1,0.1 0.2,0.1 0.2,0.2 0.2,0.1 0.1,0.2 0.2,0.2 M 0,0.1 V 0 m -33.6,60.9 h 0.1 l 0.3,0.2 M -5,30.8 l -3.7,2 -3.8,2.3 -3.7,2.6 -3.5,2.8 -3.3,2.9 -3,2.9 -2.5,2.9 -2,2.8 -1.4,2.5 -0.3,0.7 m 6.3,6.4 1.1,-0.2 3.1,-0.9 3.4,-1.4 3.7,-1.8 3.7,-2.1 3.8,-2.5 3.6,-2.7 3.5,-2.8 3.1,-3 2.7,-2.9 2.3,-2.8 1.7,-2.7 0.4,-0.7 m -67.5,5.3 0.1,0.1 m 27.9,-49.5 -4.2,2.2 -4.2,2.6 -4.2,2.8 -4.1,3 -4,3.2 -3.6,3.3 -3.3,3.4 -2.8,3.2 -2.4,3.2 -1.8,2.9 -1.3,2.7 -0.6,2.4 v 2 l 0.6,1.7 0.1,0.2 m 56.6,-41.5 -0.4,-0.5 -1.5,-1 -2,-0.4 -2.6,-0.1 -3.1,0.5 -3.4,1 -3.8,1.4 -4,1.8 m -65.1,-118.1 v 0.2 l 0.2,1.9 -0.5,2.3 -1.1,2.6 -1.7,2.9 -2.3,3.1 -2.8,3.3 -3.2,3.3 -3.6,3.3 -3.9,3.2 -4.1,3.1 -4.2,2.8 -4.2,2.5 -4.2,2.2 -4,1.8 -3.7,1.4 -3.4,0.9 -3,0.4 h -2.5 l -2,-0.6 -0.8,-0.5 m -1.1,-1.3 -0.3,-0.8 -0.1,-1.9 0.5,-2.3 1.1,-2.6 1.7,-2.9 2.2,-3.1 2.8,-3.3 3.2,-3.3 3.6,-3.3 3.9,-3.2 4.1,-3 4.2,-2.9 4.3,-2.5 4.1,-2.2 4,-1.8 3.8,-1.4 3.4,-0.9 3,-0.4 m 0,-1 -3,0.4 -3.3,0.9 -3.8,1.3 -3.9,1.8 -4.2,2.1 -4.2,2.5 -4.2,2.8 -4.1,3 -3.9,3.2 -3.7,3.3 -3.3,3.3 -2.9,3.2 -2.4,3.2 -1.9,3 -1.3,2.7 -0.7,2.4 -0.1,2.1 0.5,1.6 0.3,0.4 m 56.3,-41.3 -0.3,-0.3 -1.4,-1 -2,-0.5 -2.5,-0.1 m -22.9,-31.3 2.5,0.1 2,0.5 1.4,1 0.2,0.3 m -56.3,41.3 -0.2,-0.3 -0.5,-1.7 0.1,-2.1 0.7,-2.4 1.3,-2.7 1.9,-3 2.4,-3.1 2.9,-3.3 3.3,-3.3 3.6,-3.3 4,-3.1 4.1,-3.1 4.2,-2.7 4.2,-2.5 4.1,-2.2 4,-1.7 3.7,-1.4 3.4,-0.9 3,-0.4 m 10.3,45.2 -2,0.4 -2.4,0.8 -2.6,1.3 -2.8,1.6 -2.7,1.9 -2.5,2.1 -2.2,2.1 -1.7,2.1 -1.2,1.9 -0.6,1.7 v 1.1 m 0.7,1.1 1.2,0.3 1.8,-0.1 2.2,-0.6 2.5,-1.1 2.7,-1.4 2.8,-1.8 2.6,-2 2.3,-2.1 2,-2.2 1.5,-2 0.9,-1.8 0.3,-1.4 v -0.2 m -1.4,-1.1 0.1,0.1 m -87,-104.7 -4.2,2.1 -5.1,2 m 17.2,-10.2 -3.7,3.3 -4.2,2.8 m -2.2,-19.8 10.1,13.7 m -19.4,-9.6 4.1,-2.2 5.2,-1.9 m -17.2,10.2 3.7,-3.3 4.2,-2.8 m -7.9,6.1 10.1,13.7 m 10.3,-2 0.9,-0.4 0.8,-0.4 0.8,-0.3 0.7,-0.2 0.7,-0.2 0.7,-0.2 h 0.6 0.5 m 0,0 1,0.2 0.6,0.5 0.1,0.8 -0.2,1.1 -0.7,1.3 -1,1.4 -1.3,1.5 -1.6,1.5 m 0,0 -2.4,1.9 -2.5,1.7 -2.5,1.3 -2.2,0.9 -1.9,0.4 -1.4,-0.1 -0.8,-0.7 -0.1,-1.2 m 0,0 0.4,-1.1 0.8,-1.3 1.1,-1.5 1.5,-1.5 1.7,-1.5 1.8,-1.5 2,-1.3 1.9,-1.1 m 11.4,-5.9 0.8,0.4 0.5,0.6 0.3,0.7 v 0.9 l -0.2,1.1 -0.5,1.2 -0.8,1.3 -0.9,1.4 m -11.6,-3.8 1.9,-1.1 1.9,-0.9 1.8,-0.8 1.7,-0.6 1.6,-0.4 1.4,-0.2 h 1.2 l 0.9,0.2 m -25.8,15.2 1.2,-1.4 1.4,-1.5 1.5,-1.6 1.7,-1.5 1.8,-1.5 1.9,-1.4 1.9,-1.3 2,-1.2 m -14.3,19.1 -0.7,-0.4 -0.5,-0.6 -0.3,-0.7 v -1 l 0.2,-1 0.5,-1.2 0.8,-1.4 0.9,-1.4 m 11.6,3.9 -1.9,1.1 -1.9,0.9 -1.8,0.8 -1.7,0.6 -1.6,0.4 -1.4,0.2 h -1.2 l -1,-0.2 m 25.9,-15.3 -1.2,1.5 -1.4,1.5 -1.5,1.5 -1.7,1.5 -1.8,1.5 -1.9,1.4 -1.9,1.4 -2,1.2 m -7.5,-11.2 -1.5,3.1 -2.6,4.2 m 25.8,-15.2 -1.9,-0.8 -2.6,-1.5 m -21.3,17.5 -3.9,4.2 -1.5,1.2 m -6.1,-21.1 3.1,-3.4 2.4,-1.9 m -9.5,12.7 0.9,-2 3.1,-5.4 m -4,7.4 10.1,13.7 m -6.1,-21.1 1.2,-1.4 1.4,-1.6 1.5,-1.5 1.7,-1.5 1.8,-1.5 1.9,-1.4 1.9,-1.3 2,-1.2 m 0,0 1.9,-1.1 1.9,-0.9 1.8,-0.8 0.6,-0.2 m -4,30.2 1.6,-0.4 3,-1.1 3.3,-1.6 3.2,-1.8 2.9,-1.9 2.1,-1.8 0.8,-1 m -7.4,4.5 -3.3,1.8 -3.3,1.6 -2.5,0.8 m 16.2,-10.6 0.2,0.3 -0.8,1.2 -1.8,1.7 -2.7,1.9 -2,1.3 m 5.7,-2.2 0.9,-1 0.8,-1.5 -0.1,-1 -0.8,-0.3 m -16.1,11.4 h 0.4 l 1,-0.1 1.3,-0.3 m 0,0 1.5,-0.5 1.7,-0.8 1.8,-0.8 1.8,-1 1.8,-1 1.6,-1.1 1.3,-1 1.1,-1 m -13.8,4.8 1.5,-0.6 2.4,-1 2.4,-1.3 2.3,-1.4 2,-1.4 1.5,-1.3 0.9,-1.1 0.2,-0.4 m -14.6,11.1 -0.9,1.3 m 2.3,-3.9 -0.5,0.6 -0.8,1.8 -0.1,0.2 m 7.7,-7.4 3.2,-1.9 1.1,-0.9 m -6.9,4.2 0.6,-0.3 2,-1.1 m -4.7,3.2 1.8,-0.9 2.5,-1.3 2.3,-1.4 1.9,-1.4 1.5,-1.3 0.4,-0.3 m -6.3,-20.6 1.4,-0.1 1.7,0.4 m 14.7,16 -1.4,0.1 -1.8,-0.4 m -6.9,-13.5 10.1,13.8 m -14.7,-16 2,0.8 2.6,1.4 m -24.3,34.1 2.4,1.4 2.1,0.9 m 5,-7.5 -0.1,0.7 0.5,0.3 h 1.1 l 1.6,-0.4 2,-0.7 2.3,-1 2.3,-1.2 2.2,-1.4 m 0,0 0.6,-0.5 2,-2.1 0.7,-1.1 m -2.3,4.5 -1,-0.8 m 1,0.8 -3.3,2 -3.3,1.6 -3.1,1.2 -2.3,0.6 h -1.5 l -0.2,-0.3 m 21.7,-10 2.5,-4.2 1.5,-3.1 m -26.7,22.9 1.8,-0.7 m -5,0.4 1.7,0.3 h 1.5 m 15.4,42.7 4.1,-1.6 4.4,-2 4.5,-2.4 4.5,-2.8 4.6,-3 4.4,-3.2 4.3,-3.4 4,-3.5 3.8,-3.6 3.3,-3.5 2.8,-3.5 2.4,-3.3 1.8,-3.1 1.3,-2.9 0.6,-2.6 0.1,-2.2 -0.6,-1.8 -1.1,-1.4 -1.8,-0.9 -2.3,-0.4 h -2.7 l -3.3,0.5 -3.6,0.9 -4,1.4 -4.3,1.8 -4.4,2.3 -4.5,2.5 -4.6,2.9 -4.5,3.1 -4.4,3.4 -4.1,3.4 -3.9,3.6 -3.5,3.5 -3.1,3.6 -2.7,3.4 -2.1,3.2 -1.5,3 -1,2.7 -0.3,2.4 0.2,2 0.9,1.6 1.4,1.1 2.1,0.7 2.5,0.3 3,-0.3 3.5,-0.7 3.8,-1.2 m 1.8,-2.5 3.9,-1.6 4.2,-2 4.3,-2.3 4.4,-2.7 4.3,-3 4.2,-3.1 4,-3.3 3.7,-3.4 3.3,-3.4 2.9,-3.4 2.4,-3.2 1.9,-3 1.3,-2.8 0.7,-2.5 v -2.1 l -0.6,-1.7 -1.1,-1.3 -1.8,-0.8 -2.3,-0.3 -2.8,0.2 -3.3,0.6 -3.7,1.1 -3.9,1.6 -4.2,2 -4.3,2.3 -4.4,2.7 -4.3,2.9 -4.2,3.2 -4,3.3 -3.7,3.4 -3.3,3.4 -2.9,3.4 -2.4,3.2 -1.9,3 -1.3,2.8 -0.6,2.5 -0.1,2.1 0.6,1.7 1.2,1.2 1.7,0.8 2.3,0.4 2.9,-0.2 3.2,-0.6 3.7,-1.1 m 35.2,-53.3 h -0.2 m -37.6,45.6 3.7,-1.5 4,-1.9 4.1,-2.2 4.1,-2.6 4.1,-2.8 3.9,-3.1 3.7,-3.1 3.4,-3.3 3,-3.2 2.5,-3.1 2.1,-2.9 1.4,-2.8 0.9,-2.4 0.2,-2.2 -0.1,-1.1 m -53.3,39.1 1.1,0.5 2.1,0.3 2.6,-0.1 3.1,-0.5 3.4,-1.1 m 8.1,-11.8 2.4,-1 2.7,-1.5 2.7,-1.8 2.6,-2 2.2,-2.1 1.9,-2 1.3,-2 0.7,-1.7 0.1,-1.3 -0.6,-0.9 -1.2,-0.4 -1.7,0.1 -2.2,0.6 -2.5,1 -2.6,1.5 -2.7,1.8 -2.6,2 -2.2,2.1 -1.9,2 -1.3,2 -0.7,1.7 -0.1,1.3 0.6,0.9 1.1,0.4 1.8,-0.1 2.2,-0.6 m -2.5,-3.3 2.5,-1 2.7,-1.5 2.7,-1.8 2.5,-2 2.3,-2.1 1.8,-2 1.4,-2 0.5,-1 m -19.3,14.1 0.8,-0.1 2.1,-0.6 m 178.2,254.5 3.3,-3.2 3.7,-3.3 4,-3.1 4.1,-3 4.2,-2.7 4.2,-2.4 4.1,-2.1 3.9,-1.6 3.6,-1.3 3.3,-0.8 2.9,-0.3 2.4,0.2 1.8,0.6 1.3,1.1 0.1,0.1 m -56.1,41 -0.4,-0.6 -0.4,-1.8 0.3,-2.1 0.8,-2.5 1.4,-2.8 2,-2.9 2.5,-3.2 3,-3.3 m 34,-1.1 -1.8,1.7 -3.5,3 -3.8,3 -3.9,2.7 -3.9,2.5 -2.6,1.4 m 3,-5.3 2.2,-2.1 2.6,-2.1 2.7,-1.8 2.7,-1.6 2.6,-1.2 2.3,-0.7 1.9,-0.2 1.5,0.2 0.8,0.7 0.2,1.2 -0.4,1.5 -1.1,1.9 -1.6,2 L 20,78 17.6,80.1 15,82 12.2,83.8 9.6,85.1 7.1,86.1 5,86.6 H 3.3 L 2.2,86.1 1.6,85.2 1.8,83.8 2.5,82.1 3.8,80.1 5.7,78 m 16.8,-9.7 -0.2,0.4 -1,1.8 -1.6,2.1 -2.1,2.1 -2.4,2.1 -2.6,2 -2.8,1.7 -2.7,1.4 -2.4,0.9 -2.2,0.5 -0.6,0.1 m -304.1,-84.5 1.4,-1.3 1.7,-0.6 1.9,0.1 1.9,0.8 1.7,1.4 1.5,2 1,2.4 0.6,2.5 v 2.6 l -0.5,2.2 -1,1.9 -1.4,1.3 -1.7,0.7 -1.9,-0.1 -1.8,-0.8 -1.8,-1.5 -1.4,-2 -1.1,-2.4 -0.6,-2.5 V 3.1 l 0.5,-2.3 1,-1.9 m 0.3,-2.1 -1.2,2.1 -0.6,2.6 -0.1,2.8 0.1,1 m 1.4,4.8 1.4,2.4 1.8,2 2.1,1.3 2.1,0.7 h 2.1 l 2,-0.9 1.5,-1.5 1.2,-2.1 0.6,-2.5 0.1,-2.8 -0.5,-2.9 -1,-2.8 -1.4,-2.5 -1.8,-2 -2.1,-1.4 -2.1,-0.7 -2.1,0.1 -2,0.8 -1.5,1.5 m 83.1,-3.6 -1.6,1.5 -1.5,0.7 m -6.4,-21.7 0.3,-0.1 2.1,-0.1 2.2,0.7 2,1.4 1.9,2 1.4,2.5 1,2.8 0.5,2.9 -0.1,2.8 -0.6,2.5 -1.2,2.1 m -12.3,-38.5 v -0.1 l 0.1,-0.1 h 0.1 l 0.1,-0.1 0.1,-0.1 h 0.2 0.1 0.1 m -19.6,25.2 18.8,-24.8 m -19.1,25.5 v 0 l 0.1,-0.4 0.2,-0.3 m 25.9,38.1 -13,-17.7 m 15.2,18 -0.2,0.3 -0.2,0.1 -0.3,0.1 h -0.3 l -0.3,-0.1 -0.3,-0.2 -0.3,-0.2 -0.3,-0.3 m 21,-24.5 -18.8,24.8 M -202.6,-8 v 0.2 0.1 l -0.1,0.2 v 0.1 l -0.1,0.2 v 0.1 l -0.1,0.1 -0.1,0.1 m -27.3,-38.8 3.4,0.2 3.5,0.9 3.5,1.6 3.3,2.3 3.1,2.8 2.8,3.4 2.5,3.9 2.1,4.2 1.6,4.5 1.2,4.6 0.6,4.7 0.1,4.6 m 322.4,-141.6 3.4,0.2 3.5,0.9 3.4,1.6 3.3,2.3 3.2,2.9 2.8,3.4 2.5,3.8 2.1,4.3 1.6,4.4 1.1,4.7 0.7,4.6 0.1,4.7 m -0.4,1.1 0.1,-0.1 0.1,-0.1 v -0.2 l 0.1,-0.1 v -0.2 -0.1 l 0.1,-0.2 v -0.1 m -188,66.5 -3.2,1.2 -4.6,2.1 -4.7,2.5 -4.9,2.9 -4.8,3.1 -4.7,3.4 -4.6,3.6 m 219.1,-84.2 -18.8,24.8 m -8.5,-63.7 h -0.1 -0.2 v 0.1 m -161.8,142.7 -2.7,2.5 -7,6.4 -7.3,6.3 -7.3,6.3 -7.5,6.3 -7.7,6.2 m 91.1,-77.6 -1.2,0.8 -5.9,3.8 -5.9,4.1 -5.7,4.4 -5.5,4.5 -5.2,4.6 -2.1,1.9 m -48.8,26 0.9,-0.4 4.6,-2.4 4.7,-2.8 4.8,-3 4.6,-3.3 4.5,-3.5 3.3,-2.8 m -51.6,18.2 -0.1,-0.1 m 23.5,-26.1 h -0.1 -0.1 m -19.8,22.3 2.4,-0.1 3.4,-0.7 3.7,-1.1 4.1,-1.6 4.3,-1.9 4.5,-2.4 4.5,-2.7 4.5,-3 4.5,-3.2 4.2,-3.4 4,-3.5 3.7,-3.6 3.2,-3.5 2.8,-3.4 m -47.3,30.9 2.2,-0.5 3.7,-1.2 4,-1.6 4.2,-2 4.3,-2.5 4.3,-2.7 4.3,-3 4.1,-3.2 3.9,-3.3 3.5,-3.4 3.2,-3.4 2.7,-3.2 m -47,24.3 2.4,-0.5 3.4,-1 3.6,-1.4 4,-1.9 4,-2.2 4.1,-2.5 4,-2.8 3.9,-3 3.7,-3.1 3.3,-3.2 3,-3.2 2.6,-3.1 m -39.6,25 h 0.2 l 2.8,-0.6 3.2,-1.1 3.5,-1.4 3.7,-1.9 3.8,-2.2 3.7,-2.5 3.7,-2.7 3.5,-2.9 3.1,-2.9 2.9,-3 2.3,-2.8 m 176.8,-45.5 h 0.1 l 0.3,-0.2 0.2,-0.2 M -81.6,27.2 h -0.1 -0.1 m -46.4,21.2 0.1,0.1 0.1,0.1 m 2.5,0.7 v 0 h 0.2 m 327.1,-180.8 -1.6,1.5 -1.5,0.7 m -6.5,-21.8 0.4,-0.1 h 2.1 l 2.1,0.7 2.1,1.3 1.8,2 1.5,2.5 1,2.8 0.5,2.9 -0.1,2.8 -0.7,2.6 -1.1,2.1 m 1.7,-9 -0.6,-2.4 -0.5,-1.4 m -155.1,524.2 0.3,0.5 0.5,0.4 0.4,0.5 0.4,0.5 0.5,0.4 0.4,0.3 0.4,0.3 0.3,0.2 0.3,0.2 m 15.3,-14.3 0.3,0.5 0.3,0.6 0.1,0.6 0.1,0.6 0.1,0.7 -0.1,0.6 -0.2,0.6 -0.2,0.6 -0.3,0.5 m -27,-5.3 18.9,-11 m -10.8,22 -8.1,-11 m 26.9,0 -8,-11 m -3.1,25.8 0.1,0.1 m -4.2,0.3 h -0.1 l 0.1,-0.2 0.2,-0.3 0.2,-0.2 0.4,-0.3 0.3,-0.2 0.3,-0.1 h 0.2 m 0,0 2.5,0.9 m -2.5,7.8 0.2,-0.3 0.4,-0.3 0.3,-0.2 0.3,-0.1 0.3,-0.1 0.1,0.1 m -4.9,5.5 v 0 -0.2 l 0.1,-0.2 m 0,0 3.2,-4.2 m 11.7,-9.7 v -0.1 l 0.1,-0.2 0.2,-0.3 0.3,-0.3 0.4,-0.2 m 0,0 5.6,-3.3 m 0,0 0.4,-0.2 h 0.2 0.2 m -10.7,3.4 v 0 -0.2 l 0.1,-0.2 m 0,0 3.2,-4.2 m 0,0 0.3,-0.3 0.3,-0.3 0.4,-0.2 0.3,-0.1 h 0.2 0.1 M 60,387.4 h -0.1 l 0.1,-0.2 0.2,-0.3 0.2,-0.2 0.4,-0.3 0.3,-0.2 0.3,-0.1 h 0.2 m 0,0 2.5,0.9 m 0,0 0.1,0.1 m -14.2,2.5 0.3,-0.2 0.3,-0.1 0.2,0.1 m -7.4,4.6 v -0.1 l 0.1,-0.2 0.2,-0.3 0.3,-0.3 0.3,-0.2 m 0,0 5.7,-3.3 m -7.9,5 -0.6,0.3 -0.7,0.2 -0.7,0.1 h -0.7 -0.6 l -0.7,-0.2 -0.5,-0.3 -0.5,-0.4 -0.4,-0.4 m 0,0 -8.1,-11 m 0,0 10.6,-14 m 14.6,16.7 -2.5,-0.9 m 4.1,-0.4 0.1,0.1 -0.1,0.2 -0.1,0.2 -0.3,0.3 -0.3,0.2 -0.4,0.2 -0.3,0.1 h -0.2 m -0.9,-2.2 2.5,0.9 m -4.1,0.4 -0.1,-0.1 0.1,-0.2 0.2,-0.2 0.2,-0.3 0.4,-0.2 0.3,-0.2 0.3,-0.1 h 0.2 m 21.4,-11.5 0.3,0.5 0.2,0.5 0.1,0.6 -0.1,0.6 -0.2,0.6 -0.3,0.5 -0.3,0.6 -0.5,0.4 -0.6,0.4 m 1.4,-4.7 -8,-11 m -8.2,-3 8.2,3 m -4.9,19.8 3.2,-4.2 m -1.7,3.8 -0.2,0.3 -0.3,0.2 -0.4,0.2 -0.3,0.2 h -0.3 l -0.1,-0.1 V 381 l 0.1,-0.3 m 4.7,-4.6 -3.2,4.2 m 1.7,-3.8 0.3,-0.2 0.3,-0.3 0.4,-0.2 0.3,-0.2 h 0.2 l 0.2,0.1 v 0.1 l -0.2,0.3 M -61,239 l 1.7,-2 2.2,-2 2.5,-2 2.6,-1.8 2.6,-1.5 2.5,-1.1 2.2,-0.6 1.7,-0.2 1.3,0.3 0.4,0.4 m -21.3,15.7 -0.2,-0.5 v -1.2 l 0.6,-1.6 1.2,-1.9 m 111.3,152.1 -5.7,3.3 m 5.8,-4.3 0.3,-0.1 0.3,-0.1 h 0.2 v 0.2 l -0.1,0.2 -0.2,0.2 -0.3,0.3 -0.3,0.3 m -5.6,2.3 5.7,-3.3 m -5.8,4.3 -0.3,0.1 -0.3,0.1 h -0.2 v -0.2 l 0.1,-0.2 0.2,-0.3 0.3,-0.2 0.3,-0.3 m 4.1,3.6 -0.3,0.4 -0.4,0.3 -0.5,0.2 -0.5,0.1 h -0.5 l -0.4,-0.1 m 19.4,-16.7 5.6,-3.3 m -5.8,4.3 -0.3,0.1 -0.3,0.1 h -0.1 l -0.1,-0.2 0.1,-0.2 0.2,-0.2 0.3,-0.3 0.4,-0.3 m 5.5,-2.3 -5.7,3.3 m 5.8,-4.3 0.4,-0.1 0.2,-0.1 H 72 l 0.1,0.2 -0.1,0.2 -0.2,0.3 -0.4,0.2 -0.3,0.3 m -6.7,9.2 h 0.1 l 0.2,-0.1 m -10.3,3.6 -3.2,4.2 m 1.7,-3.8 0.2,-0.3 0.4,-0.2 0.3,-0.2 0.3,-0.2 h 0.3 l 0.1,0.1 v 0.1 l -0.1,0.3 m -4.7,4.6 3.2,-4.2 m -1.7,3.8 -0.3,0.2 -0.3,0.3 -0.3,0.2 -0.3,0.2 h -0.3 l -0.1,-0.1 v -0.1 l 0.1,-0.3 m 10.7,-8.2 -0.1,-0.1 0.1,-0.2 0.2,-0.2 0.2,-0.3 0.4,-0.2 0.3,-0.2 0.3,-0.1 H 62 m 0,0 2.5,0.9 m -1.6,1.3 -2.5,-0.9 m 4.1,-0.4 0.1,0.1 -0.1,0.2 -0.1,0.2 -0.3,0.3 -0.3,0.2 -0.4,0.2 -0.3,0.1 H 62.9 M -60.7,237 l -1.1,1.6 -0.4,1.2 m 16.7,-12.2 h -0.7 l -1.8,0.3 -2.1,0.8 -2.4,1.2 -2.4,1.6 -2.2,1.8 -2,1.8 -1.6,1.9 m -100.5,-116.8 -0.2,0.3 m 19.5,-32.4 0.2,3.2 -0.5,2.8 -1.2,2.6 -1.7,2.1 -2.4,1.6 -2.8,1 -3.2,0.5 -3.6,-0.1 -3.7,-0.7 -3.8,-1.2 -3.8,-1.8 -3.6,-2.3 -3.4,-2.7 -3,-3 -2.6,-3.2 -2,-3.4 -1.5,-3.4 -0.8,-3.3 -0.2,-3.2 0.5,-2.9 1.2,-2.5 1.8,-2.1 2.3,-1.6 2.8,-1.1 3.2,-0.5 3.6,0.2 3.7,0.7 3.8,1.2 3.8,1.8 3.6,2.3 3.4,2.7 3.1,3 2.5,3.2 2.1,3.4 1.4,3.4 0.8,3.3 m -39.4,-10.3 0.8,3.1 1.4,3.1 2.1,3.1 2.5,2.8 3,2.6 3.2,2.2 3.5,1.8 3.5,1.2 3.4,0.6 h 3.2 l 2.8,-0.6 2.4,-1.2 1.9,-1.8 1.2,-2.2 0.6,-2.6 -0.1,-2.9 -0.8,-3 -1.4,-3.1 -2,-3.1 -2.6,-2.9 -3,-2.6 -3.2,-2.2 -3.5,-1.7 -3.5,-1.2 -3.4,-0.6 h -3.2 l -2.8,0.6 -2.4,1.2 -1.9,1.7 -1.2,2.2 -0.6,2.6 0.1,2.9 m 0.9,1.8 -0.1,-2.6 0.6,-2.4 1.2,-2 1.7,-1.5 2.3,-1 2.7,-0.5 3,0.1 3.2,0.7 3.2,1.2 3.1,1.8 3,2.1 2.6,2.5 2.1,2.8 1.7,2.8 1,2.9 0.4,2.7 -0.2,2.6 -0.9,2.2 -1.5,1.7 -2,1.3 -2.5,0.8 -2.9,0.1 -2.9,-0.3 m -17.1,-13 -1,-2.1 -0.7,-2.9 m 137.3,123.6 -26,7.7 m -46.9,13.9 -25.9,7.7 m 32.7,6 -32.1,9.5 m 98.8,-29.3 -32.1,9.6 m -76.9,19.9 1.1,0.2 1.3,0.2 1.4,0.1 h 1.4 l 1.4,-0.1 1.3,-0.1 1.2,-0.2 1.1,-0.3 m -0.6,-15.5 -1,0.3 -1,0.2 -1.2,0.1 -1.2,0.1 h -1.3 l -1.2,-0.1 -1.2,-0.1 -1.1,-0.1 -1,-0.3 m 31,-7.7 0.6,0.1 0.6,0.1 h 0.7 l 0.7,0.1 0.7,-0.1 h 0.6 l 0.7,-0.1 0.5,-0.2 m -5.1,0.1 -158.7,-41.2 m -23.5,7 23.5,-7 m -23.2,9.8 -0.9,-0.3 -0.7,-0.3 -0.4,-0.4 -0.2,-0.4 0.1,-0.4 0.3,-0.4 0.7,-0.3 0.8,-0.3 m 151.2,41.9 -150.9,-39.1 m 149.6,30.9 1.8,-0.4 2.3,-0.2 h 2.4 l 2.2,0.2 1.9,0.4 1.2,0.6 0.6,0.6 -0.2,0.7 -1,0.6 -1.6,0.4 -2.1,0.4 -2.4,0.1 -2.3,-0.2 -2.1,-0.3 -1.6,-0.5 -0.9,-0.6 -0.2,-0.6 0.6,-0.6 1.4,-0.6 m -111.3,-28.9 1.8,-0.4 2.3,-0.2 h 2.4 l 2.2,0.2 1.8,0.4 1.3,0.6 0.6,0.6 -0.2,0.7 -1,0.6 -1.7,0.5 -2.1,0.3 -2.3,0.1 -2.3,-0.1 -2.1,-0.3 -1.6,-0.5 -0.9,-0.6 -0.2,-0.7 0.6,-0.6 1.4,-0.6 m -19.7,-5.1 1.9,-0.4 2.3,-0.2 h 2.3 l 2.3,0.2 1.8,0.4 1.3,0.6 0.5,0.6 -0.2,0.7 -1,0.6 -1.6,0.5 -2.1,0.3 -2.3,0.1 -2.4,-0.1 -2,-0.3 -1.6,-0.5 -0.9,-0.6 -0.2,-0.7 0.6,-0.6 1.3,-0.6 m 132.9,57.8 -151.4,-39.3 m 23.1,-25.2 v -0.1 l 0.1,-0.1 m 171.5,53.4 -0.1,0.5 -0.1,0.5 -0.3,0.4 -0.4,0.2 m -0.1,0 h 0.1 m -0.2,-72.4 2.2,-1.9 2.6,-1.9 2.7,-1.7 2.6,-1.3 2.4,-0.9 2,-0.4 1.6,0.1 0.9,0.6 0.4,1 -0.3,1.5 -1,1.7 -1.5,2 -2,2.1 -2.3,2.1 -2.6,1.9 -2.7,1.7 -2.6,1.3 -2.4,0.9 m 34.6,53.4 h -0.5 -0.7 l -0.6,-0.3 -0.7,-0.4 -0.8,-0.5 -0.7,-0.6 -0.6,-0.8 -0.6,-0.7 m 5.2,3.3 h 0.1 m 5.5,-17.4 0.5,-0.1 0.3,-0.2 0.2,-0.2 v -0.2 m 24.7,-9.8 0.8,0.3 0.7,0.3 0.4,0.3 0.3,0.3 v 0.4 l -0.2,0.3 -0.4,0.3 -0.6,0.4 -0.7,0.2 m -26.3,-9.5 26,6.7 M -68.9,200 h 2.2 l 2.3,0.2 1.8,0.4 1.3,0.6 0.6,0.6 -0.3,0.6 -0.9,0.6 -1.7,0.5 -2.1,0.3 -2.3,0.1 h -0.6 m 26.1,14.8 0.8,-0.2 0.6,-0.3 0.4,-0.4 0.2,-0.3 v -0.2 m -192.8,-88.2 -3,1.2 -2.6,1.8 -2,2.3 -1.4,2.7 -0.7,3.1 -0.1,3.4 0.5,3.5 1.2,3.8 1.9,3.7 2.4,3.7 2.9,3.5 3.3,3.3 3.7,3 3.9,2.5 4.2,2.2 4.2,1.6 4.1,1.1 4.1,0.4 3.7,-0.1 3.5,-0.6 3,-1.3 2.6,-1.8 2,-2.2 1.4,-2.7 0.7,-3.1 0.1,-3.4 -0.5,-3.6 -1.2,-3.7 -1.9,-3.8 -2.4,-3.6 -2.8,-3.6 -3.4,-3.3 -3.7,-2.9 -3.9,-2.6 -4.2,-2.1 -4.2,-1.6 -4.1,-1.1 -4.1,-0.5 -3.7,0.1 -3.5,0.7 m 0.5,6.9 -2.8,1.2 -2.3,1.7 -1.7,2.3 -1,2.6 -0.4,3 0.2,3.3 1,3.4 1,2.4 m 24.8,18.8 2.6,0.3 h 3.5 l 3.2,-0.6 2.8,-1.2 2.3,-1.7 1.7,-2.2 1.1,-2.7 0.4,-3 -0.3,-3.2 -1,-3.4 -1.6,-3.5 -2.2,-3.4 -2.7,-3.3 -3.1,-3 -3.5,-2.6 -3.8,-2.3 -3.8,-1.7 -3.9,-1.2 -3.8,-0.6 h -3.5 l -3.2,0.6 m 15.9,37.7 -1.2,-1.7 -2.7,-3.3 -3.1,-3 -3.5,-2.6 -3.8,-2.2 -3.8,-1.8 -2,-0.7 m -40.5,19 -0.8,1.6 -0.7,1.6 -0.4,1.5 -0.3,1.4 m -25.5,23.9 v 0.1 l 0.2,0.4 0.4,0.3 0.7,0.4 1,0.3"
           style="fill:none;stroke:#000000;stroke-width:0.709;stroke-linecap:round;stroke-linejoin:round;stroke-miterlimit:10;stroke-dasharray:none;stroke-opacity:1"
           id="path36447" /></g><g
         id="g36449"
         transform="matrix(0.35277779,0,0,-0.35277777,104.05372,71.699308)"><path
           d="M 0,0 2.071,-0.432 3.674,-0.369 4.722,0.184 5.158,1.199 4.959,2.621 4.135,4.372 2.732,6.359 0.824,8.474 l -2.309,2.129 -2.586,2.029 -2.724,1.819 -2.715,1.512 -2.559,1.122 -2.265,0.672 -1.85,0.186 -1.334,-0.311 -0.747,-0.789 -0.119,-1.227 0.515,-1.597 1.121,-1.882 1.667,-2.064 2.123,-2.137 2.464,-2.094 L -7.821,3.905 -5.083,2.229 -2.429,0.903 0,0"
           style="fill:none;stroke:#000000;stroke-width:0.709;stroke-linecap:round;stroke-linejoin:round;stroke-miterlimit:10;stroke-dasharray:18, 3.6, 3.6, 3.6, 3.6, 3.6;stroke-dashoffset:13.493;stroke-opacity:1"
           id="path36451" /></g><g
         id="g36453"
         transform="matrix(0.35277779,0,0,-0.35277777,20.474908,34.666809)"><path
           d="m 0,0 -1.166,-1.7 -2.708,-3.257 -3.151,-3.002 -3.499,-2.656 -3.739,-2.23 -3.867,-1.735 -2.015,-0.686"
           style="fill:none;stroke:#000000;stroke-width:0.709;stroke-linecap:round;stroke-linejoin:round;stroke-miterlimit:10;stroke-dasharray:18, 3.6, 3.6, 3.6, 3.6, 3.6;stroke-dashoffset:14.119;stroke-opacity:1"
           id="path36455" /></g><g
         id="g36457"
         transform="matrix(0.35277779,0,0,-0.35277777,101.71727,68.616098)"><path
           d="M 0,0 -2.749,-3.749"
           style="fill:none;stroke:#000000;stroke-width:0.709;stroke-linecap:round;stroke-linejoin:round;stroke-miterlimit:10;stroke-dasharray:18, 3.6, 3.6, 3.6, 3.6, 3.6;stroke-dashoffset:0;stroke-opacity:1"
           id="path36459" /></g><g
         id="g36461"
         transform="matrix(0.35277779,0,0,-0.35277777,97.10541,74.905418)"><path
           d="M 0,0 -13.9,-18.955"
           style="fill:none;stroke:#000000;stroke-width:0.709;stroke-linecap:round;stroke-linejoin:round;stroke-miterlimit:10;stroke-dasharray:18, 3.6, 3.6, 3.6, 3.6, 3.6;stroke-dashoffset:15.247;stroke-opacity:1"
           id="path36463" /></g><g
         id="g36465"
         transform="matrix(0.35277779,0,0,-0.35277777,81.61737,96.026718)"><path
           d="M 0,0 -22.585,-30.799"
           style="fill:none;stroke:#000000;stroke-width:0.709;stroke-linecap:round;stroke-linejoin:round;stroke-miterlimit:10;stroke-dasharray:18, 3.6, 3.6, 3.6, 3.6, 3.6;stroke-dashoffset:7.904;stroke-opacity:1"
           id="path36467" /></g><g
         id="g36469"
         transform="matrix(0.35277779,0,0,-0.35277777,60.173598,125.26995)"><path
           d="M 0,0 -20.976,-28.605"
           style="fill:none;stroke:#000000;stroke-width:0.709;stroke-linecap:round;stroke-linejoin:round;stroke-miterlimit:10;stroke-dasharray:18, 3.6, 3.6, 3.6, 3.6, 3.6;stroke-dashoffset:9.264;stroke-opacity:1"
           id="path36471" /></g><g
         id="g36473"
         transform="matrix(0.35277779,0,0,-0.35277777,43.129238,148.51367)"><path
           d="M 0,0 -32.001,-43.641"
           style="fill:none;stroke:#000000;stroke-width:0.709;stroke-linecap:round;stroke-linejoin:round;stroke-miterlimit:10;stroke-dasharray:18, 3.6, 3.6, 3.6, 3.6, 3.6;stroke-dashoffset:-0.058;stroke-opacity:1"
           id="path36475" /></g><g
         id="g36477"
         transform="matrix(0.35277779,0,0,-0.35277777,29.632848,166.91893)"><path
           d="M 0,0 -11.248,-15.339"
           style="fill:none;stroke:#000000;stroke-width:0.709;stroke-linecap:round;stroke-linejoin:round;stroke-miterlimit:10;stroke-dasharray:18, 3.6, 3.6, 3.6, 3.6, 3.6;stroke-dashoffset:9.51;stroke-opacity:1"
           id="path36479" /></g><g
         id="g36481"
         transform="matrix(0.35277779,0,0,-0.35277777,16.546128,36.864156)"><path
           d="M 0,0 36.659,-48.376"
           style="fill:none;stroke:#000000;stroke-width:0.709;stroke-linecap:round;stroke-linejoin:round;stroke-miterlimit:10;stroke-dasharray:18, 3.6, 3.6, 3.6, 3.6, 3.6;stroke-dashoffset:-3.349;stroke-opacity:1"
           id="path36483" /></g><g
         id="g36485"
         transform="matrix(0.35277779,0,0,-0.35277777,36.543588,63.253128)"><path
           d="M 0,0 26.562,-35.052"
           style="fill:none;stroke:#000000;stroke-width:0.709;stroke-linecap:round;stroke-linejoin:round;stroke-miterlimit:10;stroke-dasharray:18, 3.6, 3.6, 3.6, 3.6, 3.6;stroke-dashoffset:5.01;stroke-opacity:1"
           id="path36487" /></g><g
         id="g36489"
         transform="matrix(0.35277779,0,0,-0.35277777,77.48835,14.173596)"><path
           d="M 0,0 -50.356,-68.672"
           style="fill:none;stroke:#000000;stroke-width:0.709;stroke-linecap:round;stroke-linejoin:round;stroke-miterlimit:10;stroke-dasharray:18, 3.6, 3.6, 3.6, 3.6, 3.6;stroke-dashoffset:2.422;stroke-opacity:1"
           id="path36491" /></g><text
         xml:space="preserve"
         style="font-style:normal;font-variant:normal;font-weight:normal;font-stretch:normal;font-size:7.05556px;line-height:1.25;font-family:Bahnschrift;-inkscape-font-specification:'Bahnschrift, Normal';font-variant-ligatures:normal;font-variant-caps:normal;font-variant-numeric:normal;font-variant-east-asian:normal;letter-spacing:0px;word-spacing:0px;stroke-width:0.264583"
         x="-4.3516355"
         y="75.128113"
         id="text38404"><tspan
           sodipodi:role="line"
           id="tspan38402"
           style="font-style:normal;font-variant:normal;font-weight:normal;font-stretch:normal;font-size:7.05556px;font-family:Bahnschrift;-inkscape-font-specification:'Bahnschrift, Normal';font-variant-ligatures:normal;font-variant-caps:normal;font-variant-numeric:normal;font-variant-east-asian:normal;stroke-width:0.264583"
           x="-4.3516355"
           y="75.128113">1</tspan></text><text
         xml:space="preserve"
         style="font-style:normal;font-variant:normal;font-weight:normal;font-stretch:normal;font-size:7.05556px;line-height:1.25;font-family:Bahnschrift;-inkscape-font-specification:'Bahnschrift, Normal';font-variant-ligatures:normal;font-variant-caps:normal;font-variant-numeric:normal;font-variant-east-asian:normal;letter-spacing:0px;word-spacing:0px;stroke-width:0.264583"
         x="8.8582764"
         y="87.529259"
         id="text38408"><tspan
           sodipodi:role="line"
           id="tspan38406"
           style="font-style:normal;font-variant:normal;font-weight:normal;font-stretch:normal;font-size:7.05556px;font-family:Bahnschrift;-inkscape-font-specification:'Bahnschrift, Normal';font-variant-ligatures:normal;font-variant-caps:normal;font-variant-numeric:normal;font-variant-east-asian:normal;stroke-width:0.264583"
           x="8.8582764"
           y="87.529259">2</tspan></text><text
         xml:space="preserve"
         style="font-style:normal;font-variant:normal;font-weight:normal;font-stretch:normal;font-size:7.05556px;line-height:1.25;font-family:Bahnschrift;-inkscape-font-specification:'Bahnschrift, Normal';font-variant-ligatures:normal;font-variant-caps:normal;font-variant-numeric:normal;font-variant-east-asian:normal;letter-spacing:0px;word-spacing:0px;stroke-width:0.264583"
         x="126.93875"
         y="8.5393553"
         id="text38412"><tspan
           sodipodi:role="line"
           id="tspan38410"
           style="font-style:normal;font-variant:normal;font-weight:normal;font-stretch:normal;font-size:7.05556px;font-family:Bahnschrift;-inkscape-font-specification:'Bahnschrift, Normal';font-variant-ligatures:normal;font-variant-caps:normal;font-variant-numeric:normal;font-variant-east-asian:normal;stroke-width:0.264583"
           x="126.93875"
           y="8.5393553">3</tspan></text><text
         xml:space="preserve"
         style="font-style:normal;font-variant:normal;font-weight:normal;font-stretch:normal;font-size:7.05556px;line-height:1.25;font-family:Bahnschrift;-inkscape-font-specification:'Bahnschrift, Normal';font-variant-ligatures:normal;font-variant-caps:normal;font-variant-numeric:normal;font-variant-east-asian:normal;letter-spacing:0px;word-spacing:0px;stroke-width:0.264583"
         x="149.85391"
         y="97.773682"
         id="text38416"><tspan
           sodipodi:role="line"
           id="tspan38414"
           style="font-style:normal;font-variant:normal;font-weight:normal;font-stretch:normal;font-size:7.05556px;font-family:Bahnschrift;-inkscape-font-specification:'Bahnschrift, Normal';font-variant-ligatures:normal;font-variant-caps:normal;font-variant-numeric:normal;font-variant-east-asian:normal;stroke-width:0.264583"
           x="149.85391"
           y="97.773682">4</tspan></text><text
         xml:space="preserve"
         style="font-style:normal;font-variant:normal;font-weight:normal;font-stretch:normal;font-size:7.05556px;line-height:1.25;font-family:Bahnschrift;-inkscape-font-specification:'Bahnschrift, Normal';font-variant-ligatures:normal;font-variant-caps:normal;font-variant-numeric:normal;font-variant-east-asian:normal;letter-spacing:0px;word-spacing:0px;stroke-width:0.264583"
         x="88.387367"
         y="150.34377"
         id="text38420"><tspan
           sodipodi:role="line"
           id="tspan38418"
           style="font-style:normal;font-variant:normal;font-weight:normal;font-stretch:normal;font-size:7.05556px;font-family:Bahnschrift;-inkscape-font-specification:'Bahnschrift, Normal';font-variant-ligatures:normal;font-variant-caps:normal;font-variant-numeric:normal;font-variant-east-asian:normal;stroke-width:0.264583"
           x="88.387367"
           y="150.34377">5</tspan></text><text
         xml:space="preserve"
         style="font-style:normal;font-variant:normal;font-weight:normal;font-stretch:normal;font-size:7.05556px;line-height:1.25;font-family:Bahnschrift;-inkscape-font-specification:'Bahnschrift, Normal';font-variant-ligatures:normal;font-variant-caps:normal;font-variant-numeric:normal;font-variant-east-asian:normal;letter-spacing:0px;word-spacing:0px;stroke-width:0.264583"
         x="136.10483"
         y="88.068428"
         id="text38424"><tspan
           sodipodi:role="line"
           id="tspan38422"
           style="font-style:normal;font-variant:normal;font-weight:normal;font-stretch:normal;font-size:7.05556px;font-family:Bahnschrift;-inkscape-font-specification:'Bahnschrift, Normal';font-variant-ligatures:normal;font-variant-caps:normal;font-variant-numeric:normal;font-variant-east-asian:normal;stroke-width:0.264583"
           x="136.10483"
           y="88.068428">6</tspan></text><text
         xml:space="preserve"
         style="font-style:normal;font-variant:normal;font-weight:normal;font-stretch:normal;font-size:7.05556px;line-height:1.25;font-family:Bahnschrift;-inkscape-font-specification:'Bahnschrift, Normal';font-variant-ligatures:normal;font-variant-caps:normal;font-variant-numeric:normal;font-variant-east-asian:normal;letter-spacing:0px;word-spacing:0px;stroke-width:0.264583"
         x="146.88843"
         y="63.266148"
         id="text38428"><tspan
           sodipodi:role="line"
           id="tspan38426"
           style="font-style:normal;font-variant:normal;font-weight:normal;font-stretch:normal;font-size:7.05556px;font-family:Bahnschrift;-inkscape-font-specification:'Bahnschrift, Normal';font-variant-ligatures:normal;font-variant-caps:normal;font-variant-numeric:normal;font-variant-east-asian:normal;stroke-width:0.264583"
           x="146.88843"
           y="63.266148">7</tspan></text><text
         xml:space="preserve"
         style="font-style:normal;font-variant:normal;font-weight:normal;font-stretch:normal;font-size:7.05556px;line-height:1.25;font-family:Bahnschrift;-inkscape-font-specification:'Bahnschrift, Normal';font-variant-ligatures:normal;font-variant-caps:normal;font-variant-numeric:normal;font-variant-east-asian:normal;letter-spacing:0px;word-spacing:0px;stroke-width:0.264583"
         x="83.26516"
         y="165.71039"
         id="text38432"><tspan
           sodipodi:role="line"
           id="tspan38430"
           style="font-style:normal;font-variant:normal;font-weight:normal;font-stretch:normal;font-size:7.05556px;font-family:Bahnschrift;-inkscape-font-specification:'Bahnschrift, Normal';font-variant-ligatures:normal;font-variant-caps:normal;font-variant-numeric:normal;font-variant-east-asian:normal;stroke-width:0.264583"
           x="83.26516"
           y="165.71039">8</tspan></text><text
         xml:space="preserve"
         style="font-style:normal;font-variant:normal;font-weight:normal;font-stretch:normal;font-size:7.05556px;line-height:1.25;font-family:Bahnschrift;-inkscape-font-specification:'Bahnschrift, Normal';font-variant-ligatures:normal;font-variant-caps:normal;font-variant-numeric:normal;font-variant-east-asian:normal;letter-spacing:0px;word-spacing:0px;stroke-width:0.264583"
         x="64.12426"
         y="179.99867"
         id="text38436"><tspan
           sodipodi:role="line"
           id="tspan38434"
           style="font-style:normal;font-variant:normal;font-weight:normal;font-stretch:normal;font-size:7.05556px;font-family:Bahnschrift;-inkscape-font-specification:'Bahnschrift, Normal';font-variant-ligatures:normal;font-variant-caps:normal;font-variant-numeric:normal;font-variant-east-asian:normal;stroke-width:0.264583"
           x="64.12426"
           y="179.99867">9</tspan></text></g></g></svg>
