<?xml version="1.0" encoding="UTF-8" standalone="no"?>
<!-- Created with Inkscape (http://www.inkscape.org/) -->

<svg
   width="181.55754mm"
   height="78.680244mm"
   viewBox="0 0 181.55754 78.680243"
   version="1.1"
   id="svg5"
   inkscape:version="1.2.1 (9c6d41e410, 2022-07-14)"
   sodipodi:docname="Drivetrain - Wheels NT.svg"
   xml:space="preserve"
   xmlns:inkscape="http://www.inkscape.org/namespaces/inkscape"
   xmlns:sodipodi="http://sodipodi.sourceforge.net/DTD/sodipodi-0.dtd"
   xmlns="http://www.w3.org/2000/svg"
   xmlns:svg="http://www.w3.org/2000/svg"><sodipodi:namedview
     id="namedview7"
     pagecolor="#505050"
     bordercolor="#eeeeee"
     borderopacity="1"
     inkscape:pageshadow="0"
     inkscape:pageopacity="0"
     inkscape:pagecheckerboard="0"
     inkscape:document-units="mm"
     showgrid="false"
     inkscape:zoom="4"
     inkscape:cx="222.125"
     inkscape:cy="171.375"
     inkscape:window-width="2560"
     inkscape:window-height="1361"
     inkscape:window-x="2551"
     inkscape:window-y="-9"
     inkscape:window-maximized="1"
     inkscape:current-layer="svg5"
     inkscape:snap-page="true"
     inkscape:showpageshadow="0"
     inkscape:deskcolor="#505050"
     showguides="true" /><defs
     id="defs2" /><g
     inkscape:label="Ebene 1"
     inkscape:groupmode="layer"
     id="layer1"
     transform="translate(-806.36767,-125.26658)" /><circle
     id="path38652"
     style="fill:#000000;stroke:#000000;stroke-width:0.264583"
     cx="-269.92151"
     cy="-38.507042"
     r="0.007855583" /><g
     id="g43546"
     transform="matrix(0.35277777,0,0,-0.35277776,62.26416,30.654885)"><path
       d="M 0,0 -4.4,8.5 -0.5,9.6 0,0 m 0,0 -2.1,8.1 -1.6,7.1 -0.8,6.3 v 5.7 l 1,5.2 1.9,4.9 2.7,4.6 3.9,5.2 4.5,5.1 4.5,5 3.3,4.1 2.4,3.9 1,3 -0.2,2.8 m -171.3,-78.8 0.5,9.6 4,-1.1 -4.5,-8.5 m 0,0 2.1,7.9 1.6,6.8 0.7,5.8 -0.1,5.2 -1.1,4.6 -1.9,4.3 -2.7,4.3 -2.5,3.4 -2.8,3.6 -2.8,4 -2.8,4.3 -2.4,4.9 -2,5.5 -1.1,6.2 m 148.6,-86.4 3.1,-9.1 -4,-0.4 0.9,9.5 m 0,0 0.8,-6.2 1.3,-5.2 2.1,-4.6 3.2,-4.3 4.4,-4.1 5.5,-4.5 4.1,-3.2 4.3,-3.6 4.5,-4 4.2,-4.6 3.9,-5.1 3.2,-5.8 2.2,-6.5 m -192.1,59.1 5.2,-8 -3.8,-1.5 -1.4,9.5 m 0,0 2.5,-6.6 1.8,-5.8 1.2,-5.2 0.6,-4.8 v -4.8 l -0.3,-4.9 -0.3,-5.2 v -4.4 l 0.3,-4.9 1,-5.3 2,-5.9 2.3,-5.2 3.3,-5.6 4.4,-6 5.6,-6.6 m 64.1,34.9 5.3,-8 -3.9,-1.4 -1.4,9.4 m 0,0 2.7,-6.8 2.5,-5.4 2.7,-4.2 3,-2.9 3.5,-2 4,-1.3 4.5,-1 5,-1.2 5.2,-2.1 3.2,-2 3.2,-2.7 3,-3.6 2.9,-4.7 2.6,-6"
       style="fill:none;stroke:#000000;stroke-width:0.51;stroke-linecap:butt;stroke-linejoin:miter;stroke-miterlimit:10;stroke-dasharray:none;stroke-opacity:1"
       id="path43548" /></g><g
     id="g43550"
     transform="matrix(0.35277777,0,0,-0.35277776,172.6836,37.710445)"><path
       d="m 0,0 h 14.9 m 0,8.8 H 0 M 14.9,0 H 0 M 0,8.8 H 14.9 M 0,8.8 v 1.3 M 0,-1.2 V 0"
       style="fill:none;stroke:#000000;stroke-width:0.51;stroke-linecap:round;stroke-linejoin:round;stroke-miterlimit:10;stroke-dasharray:none;stroke-opacity:1"
       id="path43552" /></g><g
     id="g43554"
     transform="matrix(0.35277777,0,0,-0.35277776,157.53405,28.211617)"><path
       d="M 0,0 H 48.032"
       style="fill:none;stroke:#000000;stroke-width:0.51;stroke-linecap:round;stroke-linejoin:round;stroke-miterlimit:10;stroke-dasharray:43.2, 3.6, 3.6, 3.6;stroke-dashoffset:24.584;stroke-opacity:1"
       id="path43556" /></g><g
     id="g43558"
     transform="matrix(0.35277777,0,0,-0.35277776,174.47864,44.061635)"><path
       d="M 0,0 H -48.032"
       style="fill:none;stroke:#000000;stroke-width:0.51;stroke-linecap:round;stroke-linejoin:round;stroke-miterlimit:10;stroke-dasharray:43.2, 3.6, 3.6, 3.6;stroke-dashoffset:24.584;stroke-opacity:1"
       id="path43560" /></g><g
     id="g43562"
     transform="matrix(0.35277777,0,0,-0.35277776,157.75633,36.136628)"><path
       d="M 0,0 H 60.596"
       style="fill:none;stroke:#000000;stroke-width:0.51;stroke-linecap:round;stroke-linejoin:round;stroke-miterlimit:10;stroke-dasharray:43.2, 3.6, 3.6, 3.6;stroke-dashoffset:18.302;stroke-opacity:1"
       id="path43564" /></g><g
     id="g43566"
     transform="matrix(0.35277777,0,0,-0.35277776,62.26416,30.654885)"><path
       d="m 0,0 -4.4,8.5 3.9,1.1 m -150.3,-17.4 0.5,9.6 4,-1.1 m 126.3,-24.1 3.1,-9.1 -4,-0.4 m -147.5,6.9 5.2,-8 -3.8,-1.5 m 87.1,-36.8 5.3,-8 -3.9,-1.4"
       style="fill:#000000;fill-opacity:1;fill-rule:nonzero;stroke:none"
       id="path43568" /></g><g
     id="g43570"
     transform="matrix(0.35277777,0,0,-0.35277776,138.92276,35.34683)"><path
       d="M 0,0 V -0.3 -0.7 -1 -1.4 -1.6 M 0.3,-17 -0.1,-9.3 0,-1.6 m 0,1.6 0.6,6.9 1.1,7 M 0.3,-17 0.4,-17.3 v -0.1 m 0,-0.4 v 0.4"
       style="fill:none;stroke:#000000;stroke-width:0.51;stroke-linecap:round;stroke-linejoin:round;stroke-miterlimit:10;stroke-dasharray:none;stroke-opacity:1"
       id="path43572" /></g><g
     id="g43574"
     transform="matrix(0.35277777,0,0,-0.35277776,140.86304,30.443219)"><path
       d="M 0,0 -5,-8.1 M 10,0 -5.5,-25.2 M 20,0 0.5,-31.7 M 30,0 10.5,-31.7 M 40,0 20.5,-31.7 M 50,0 30.5,-31.7 m 23,21.2 -13.1,-21.2 m 12.2,3.6 -2.2,-3.6 m 13.1,21.2 -7,-11.3 m 17,11.3 -7,-11.3 m 17,11.3 -7,-11.3 m 17,11.3 -7,-11.3 m 17,11.3 -7,-11.3 m -36.1,-10 -1.7,-2.8 m 12.8,4.6 -2.9,-4.6 m 11.8,2.8 -1.8,-2.8 m -25,-8.1 -4,-6.5 m 14,6.5 -4,-6.5 m 14,6.5 -4,-6.5 m 14,6.5 -4,-6.5 m 12.8,4.5 -2.8,-4.5 m -39.2,66 -2,-3.1 m 12,3.1 -4,-6.4 m 14,6.4 -4,-6.4 m 14,6.4 -4,-6.4 m 14,6.4 -4,-6.4 M 61.3,2.2 59.6,-0.6 M 71.3,2.2 68.5,-2.4 M 81.3,2.2 79.6,-0.6 M 39.2,26.6 54.9,16.8 m -19.3,22 35.5,-22 M 49,40.5 87.3,16.8 M 65.2,40.5 101.9,17.8 M 81.4,40.5 112.6,21.2 M 97.5,40.5 114.6,30 m -0.9,10.5 1.3,-0.8 m -79.4,-110.9 2.8,-1.7 m -0.8,10.5 17,-10.5 M 41.7,-55 70.8,-72.9 m -22.2,23.7 38.3,-23.7 m -22.1,23.7 38.3,-23.7 m -22.1,23.7 34,-21 m -17.8,21 17.3,-10.7 M 87.1,-4.6 86,-6.5 m -7.5,-1.2 4.6,-2.8 m 2.1,-11.3 3.2,-2 m -5.2,23.2 5.2,-3.2 m -9.8,-23.9 6.5,-4.1 m -0.4,7 -2.5,-4 m -24.4,25.3 -1.2,-2 m 0,0 -0.6,-1 m 7.7,-19.9 -0.8,-1.3 M 61,-6.9 64,-8.7 m -10,-13.9 3.7,-2.2 M 54,-2.6 56.9,-4.4 m 5.5,-23.3 1.6,-1 m -10,19 -0.5,-0.8 M 64.8,-8.4 64,-9.8 m 10.8,1.4 -1.3,-2.1 m -7,-11.3 -1.3,-2.2 m 11.3,2.2 -1.3,-2.2 m 22.2,14.6 1.1,-0.7 m -8.7,-14.6 2.8,-1.7 M 91.9,-6 97.3,-9.3"
       style="fill:none;stroke:#000000;stroke-width:0.51;stroke-linecap:round;stroke-linejoin:round;stroke-miterlimit:10;stroke-dasharray:none;stroke-opacity:1"
       id="path43576" /></g><g
     id="g43578"
     transform="matrix(0.35277777,0,0,-0.35277776,181.22082,21.659053)"><path
       d="m 0,0 v -0.1 -0.5 -0.7 -1.1 -1.3 -1.7 -1.9 -2.2 -2.4 -2.6 -2.9 -3 -3.2 -3.4 -3.4 -3.5 -3.6 -3.6 -3.6 -3.6 -3.5 -3.4 -3.3 -3.2 -3.1 -2.8 -2.7 -2.4 -2.2 -1.9 -1.7 -1.3 -1.1 -0.7 -0.5 -0.1 M -78.6,8.7 V 8.5 8.1 7.4 6.3 5 3.4 1.5 v -2.2 -2.4 -2.7 -2.9 -3 -3.3 -3.4 -3.6 -1.8 m 0,-32.8 v -3.6 -3.6 -3.4 -3.3 -3 -2.9 -2.7 -2.4 -2.1 -1.9 -1.7 -1.3 -1 -0.8 -0.4 -0.2 m 1.2,98.4 V 7.3 6.9 6.1 5.1 3.7 2 0.1 v -2.3 -2.4 -2.7 -3 -3.1 -3.3 -3.5 -3.6 m 0,-32.8 v -1.8 -3.6 -3.5 -3.3 -3.1 -2.9 -2.8 -2.4 -2.2 -2 -1.7 -1.3 -1.1 -0.8 -0.4 -0.1 m 1.6,92.2 V 2.5 2 1.3 0.2 v -1.4 -1.6 -2 -2.2 -2.4 -2.7 -2.9 -3.1 -3.2 -2.5 m 0,-32.8 v -0.9 -3.4 -3.2 -3.1 -2.9 -2.7 -2.4 -2.2 -1.9 -1.7 -1.4 -1 -0.8 -0.5 -0.1 m 72,80 v -0.1 -0.5 -0.7 -1.1 -1.3 -1.6 -1.9 -2.2 -2.3 -2.6 -2.8 -2.9 -3.1 -3.2 -3.3 -3.3 -3.4 -3.4 -3.3 -3.3 -3.2 -3.1 -2.9 -2.8 -2.6 -2.3 -2.2 -1.9 -1.6 -1.3 -1.1 -0.7 -0.4 -0.2 m -197.4,87.6 -4.1,-4.4 m 0,0 -0.1,0.1 -0.2,0.1 -0.2,0.1 -0.1,0.2 -0.1,0.2 -0.1,0.1 v 0.2 l -0.1,0.1 m 0,0 3.8,4.1 m 26.2,0 3.7,-4.1 m 0,0 V 6.8 l -0.1,-0.2 -0.1,-0.1 -0.1,-0.2 -0.1,-0.2 -0.2,-0.1 -0.1,-0.1 -0.2,-0.1 m 0,0 -4.1,4.4 m -45,-31.7 -1.1,-2.3 -1.4,-2.2 -1.6,-2.1 -2,-2 -2.1,-1.8 -2.4,-1.6 -2.6,-1.4 -2.8,-1.2 -2.9,-1 m 36.1,42.9 -2.7,-3.2 -2.6,-3.2 -2.5,-3.4 -2.2,-3.3 -2.1,-3.5 -1.9,-3.5 -1.7,-3.6 -1.5,-3.6 m 66.4,0 -1.6,3.6 -1.7,3.6 -1.9,3.5 -2.1,3.5 -2.2,3.3 -2.4,3.4 -2.6,3.2 -2.8,3.2 m 36.1,-42.9 -2.9,1 -2.8,1.2 -2.6,1.4 -2.4,1.6 -2.1,1.8 -1.9,2 -1.7,2.1 -1.4,2.2 -1,2.3 m -12.7,-15.6 h 31.5 m -72.6,1.7 -0.1,0.1 -0.7,1.9 -0.4,2 -0.1,2 0.2,2 0.5,2 0.8,1.8 1.1,1.9 1.4,1.7 1.7,1.5 1.8,1.4 2.1,1.2 2.2,1 2.4,0.9 2.5,0.5 2.6,0.4 2.6,0.1 2.6,-0.1 2.5,-0.4 2.5,-0.5 2.4,-0.9 2.2,-1 2.1,-1.2 1.9,-1.4 1.6,-1.5 1.4,-1.7 1.1,-1.9 0.8,-1.8 0.5,-2 0.2,-2 -0.1,-2 -0.4,-2 -0.7,-1.9 -0.1,-0.1 m -72.6,-1.7 h 31.5 m 3.7,50.4 V 6.9 m 33.7,6.4 V 6.9 m -50,-28.4 -0.2,0.1 h -0.2 l -0.2,0.1 -0.2,0.2 -0.1,0.1 -0.1,0.1 -0.1,0.2 v 0.1 m 0,0 1.6,3.7 1.7,3.6 1.9,3.5 2.1,3.5 2.3,3.4 2.4,3.4 2.7,3.2 2.7,3.2 m 33.7,0 2.8,-3.2 2.6,-3.2 2.4,-3.4 2.3,-3.4 2.1,-3.5 1.9,-3.5 1.8,-3.6 1.5,-3.7 m 0,0 v -0.1 l -0.1,-0.2 -0.1,-0.1 -0.1,-0.1 -0.2,-0.2 -0.1,-0.1 h -0.2 l -0.2,-0.1 m -51.1,38.9 -1.7,-2 -2.7,-3.3 -2.4,-3.4 -2.3,-3.4 -2.1,-3.5 -1.9,-3.5 -1.7,-3.6 -1.6,-3.7 m 0,0 v -11.6 m 68.5,11.6 -1.5,3.7 -1.8,3.6 -1.9,3.5 -2.1,3.5 -2.3,3.4 -2.4,3.4 -2.6,3.3 -1.8,2 M -155.1,-9 V -20.6 M -223.6,-9 v 0.2 m 68.5,-0.2 v 0.2 m -55,-19.4 0.1,-1.1 0.5,-1.9 0.3,-0.8 m -0.2,5.2 0.1,-2 0.5,-1.9 0.1,-0.2 m 38.7,0 0.1,0.2 0.5,1.9 0.1,2 -0.1,1.9 -0.3,1.3 m -39.3,-0.1 -0.3,-1.2 -0.1,-1.9 m 2.2,0 v -1.5 m 35.7,0 0.1,1.5 -0.2,1.7 -0.4,1.8 -0.8,1.7 -1,1.6 -1.3,1.5 -1.6,1.4 -1.7,1.1 -2,1 -2.1,0.8 -0.4,0.1 m -12.9,0 -0.4,-0.1 -2.1,-0.8 -1.9,-1 -1.8,-1.1 -1.5,-1.4 -1.3,-1.5 -1.1,-1.6 -0.7,-1.7 -0.5,-1.8 -0.1,-1.7 m -34.2,-10.3 -4.1,-0.4 -7.3,0.2 h -0.1 m 0,0 3.3,0.2 3.2,0.4 3.1,0.6 3.1,0.9 2.9,1.2 2.7,1.4 2.5,1.6 2.3,1.8 2,1.9 1.7,2.1 1.4,2.3 1.1,2.3 m 68.5,0 1.1,-2.3 1.4,-2.3 1.8,-2.1 2,-1.9 2.2,-1.8 2.6,-1.6 2.7,-1.4 2.9,-1.2 3,-0.9 3.1,-0.6 3.2,-0.4 3.3,-0.2 m 0,0 v 0 l -7.3,-0.2 -4.2,0.4 m -86.3,28.1 -1.1,-2.3 -1.4,-2.3 -1.7,-2.1 -2,-1.9 -2.3,-1.8 -2.5,-1.6 -2.7,-1.4 -2.9,-1.1 -3.1,-0.9 -3.1,-0.7 -3.2,-0.4 -3.3,-0.1 m 0,0 v -11.7 m 127.1,11.7 -3.3,0.1 -3.2,0.4 -3.1,0.7 -3,0.9 -2.9,1.1 -2.7,1.4 -2.6,1.6 -2.2,1.8 -2,1.9 -1.8,2.1 -1.4,2.3 -1.1,2.3 m 29.3,-16.6 v -11.7 m -115.6,0.2 v -0.2 -0.2 -0.2 -0.2 -0.2 -0.2 -0.2 -0.1 m 0,0 -4.3,0.2 -3.6,0.5 -3.5,0.6 h -0.1 m 115.6,-1.3 v 0.1 0.2 0.2 0.2 0.2 0.2 0.2 0.2 m 11.5,-0.2 v 0 l -3.6,-0.6 -3.6,-0.5 -4.3,-0.2 m -179.6,-0.2 h 107.2 m 0.3,-1.6 h -107.5 m 197,0 h -49.4 m 0.3,1.6 h 49.1 m -89.8,0.2 h -31.7 m 104.1,0 H -169 m -147.9,-17.2 h 197.3 m -14.7,31.4 1.3,-0.1 3.6,-0.5 3.6,-0.6 m 64,1.6 H -136 m -106.7,0 h -74.2 m 64,-1.6 h 0.1 l 3.5,0.6 3.6,0.5 1.5,0.1 m -3.5,-0.6 -5.1,-0.6 h -0.1 m 122,0.6 5.1,-0.6 m 6.3,-30.6 h -197.4 m 127.5,13.6 1.5,-0.1 1.4,-0.3 1.3,-0.6 1.1,-0.8 0.8,-0.9 0.6,-1.1 0.3,-1.1 -0.1,-1.2 -0.4,-1.1 -0.6,-1 -1,-0.9 -1.2,-0.7 -1.3,-0.5 -1.5,-0.3 h -1.5 l -1.5,0.3 -1.3,0.4 -1.2,0.7 -1,0.9 -0.8,1 -0.4,1.1 -0.1,1.1 0.3,1.2 0.5,1 0.8,1 1.1,0.8 1.3,0.6 1.4,0.4 1.5,0.1 m -1.5,17.6 -2.4,-0.3 -2.3,-0.5 -2.2,-0.7 -2,-0.9 -1.9,-1.2 -1.7,-1.3 -1.5,-1.4 -1.2,-1.6 -0.9,-1.7 -0.6,-1.8 -0.4,-1.8 V -40 l 0.3,-1.8 0.6,-1.8 0.8,-1.7 1.2,-1.6 1.4,-1.5 1.6,-1.3 1.9,-1.2 2,-1 2.2,-0.7 2.3,-0.6 h 0.4 m 8,0 1.1,0.2 2.2,0.6 2.1,0.8 2,1.1 1.8,1.2 1.6,1.4 1.3,1.5 1.1,1.6 0.8,1.8 0.4,1.8 0.2,1.8 -0.1,1.8 -0.4,1.8 -0.8,1.8 -1,1.6 -1.2,1.6 -1.6,1.4 -1.7,1.2 -2,1.1 -2.1,0.9 -2.2,0.6 -2.3,0.4 -2.4,0.2 h -2.4 m 0.2,-2.6 -2.2,-0.3 -2.2,-0.5 -2,-0.7 -1.9,-1 -1.7,-1.1 -1.5,-1.3 -1.2,-1.4 -1,-1.6 -0.6,-1.6 -0.4,-1.7 v -1.7 l 0.2,-1.8 0.6,-1.6 0.9,-1.6 1.1,-1.5 1.4,-1.3 1.7,-1.2 1.3,-0.7 m 17.5,-0.2 0.1,0.1 1.8,1 1.6,1.2 1.4,1.4 1,1.5 0.9,1.6 0.5,1.7 0.2,1.7 -0.1,1.7 -0.5,1.7 -0.7,1.7 -1,1.5 -1.3,1.4 -1.5,1.3 -1.8,1.1 -1.9,0.9 -2,0.6 -2.2,0.5 -2.2,0.2 h -2.3 m -34.6,72.8 v -8 m 72,0 v 8 m -54.6,-8 9.4,-15.1 m 0,0 -0.2,-0.2 -0.1,-0.1 -0.2,-0.1 -0.2,-0.1 -0.1,-0.1 h -0.2 l -0.1,-0.1 -0.1,-0.1 m 0,0 -7.9,12.6 m 27.4,-11.8 9.4,15.1 m -27.7,-15.1 h 18.3 m 9.1,11.8 -7.9,-12.6 m 0,0 -0.1,0.1 -0.1,0.1 h -0.1 l -0.2,0.1 -0.2,0.1 -0.1,0.1 -0.2,0.1 -0.2,0.2 m -27.4,11.8 1.1,-19.9 m -0.6,0.8 v -0.1 l 0.1,-0.1 v -0.1 l 0.1,-0.1 0.1,-0.1 0.1,-0.1 0.1,-0.1 0.1,-0.1 m 34.3,0 1.1,19.9 m -1.1,-19.9 0.2,0.1 0.1,0.1 0.1,0.1 v 0.1 l 0.1,0.1 v 0.1 l 0.1,0.1 v 0.1 m -26.9,7.3 V 21.9 21.8 21.6 21.5 21.4 21.2 21.1 21 m -1.2,0.3 h 0.1 l 0.1,-0.1 0.2,-0.1 h 0.1 L -199,21 h 0.2 0.2 0.1 m 18.3,1.1 V 21.9 21.8 21.6 21.5 21.4 21.2 21.1 21 m 0,0 h -18.3 m 19.5,0.3 h -0.1 l -0.1,-0.1 -0.2,-0.1 h -0.1 l -0.2,-0.1 h -0.2 -0.1 -0.2 M -199.7,9.8 v 11.5 m -6.8,-7.3 6.8,-4.2 m 20.7,0 6.8,4.2 m -6.8,7.3 V 9.8 M -198.5,21 V 9.5 m -1.2,0.3 0.1,-0.1 h 0.1 l 0.2,-0.1 h 0.1 l 0.2,-0.1 h 0.2 0.2 0.1 m 18.3,0 V 21 M -198.5,9.5 h 18.3 m 1.2,0.3 -0.1,-0.1 h -0.1 l -0.2,-0.1 h -0.1 l -0.2,-0.1 h -0.2 -0.1 -0.2 m -18.3,0 V 9.2 9.1 8.9 m -0.9,0.2 -0.1,0.1 -0.1,0.2 -0.1,0.2 v 0.2 m 19.5,-0.9 v 0 0.2 0.1 0.3 m 1.2,0.3 V 9.6 9.4 l -0.2,-0.2 -0.1,-0.1 m -27.2,4.9 v -0.2 l 0.1,-0.2 0.1,-0.2 0.1,-0.1 m 33.7,0 0.1,0.1 0.1,0.2 0.1,0.2 V 14"
       style="fill:none;stroke:#000000;stroke-width:0.51;stroke-linecap:round;stroke-linejoin:round;stroke-miterlimit:10;stroke-dasharray:none;stroke-opacity:1"
       id="path43580" /></g><g
     id="g43582"
     transform="matrix(0.35277777,0,0,-0.35277776,175.32943,32.983219)"><path
       d="M 0,0 H -0.1 -0.4 M -7.2,1.4 -7.9,0 m 0,-18 0.7,-1.4 M -0.4,0 -1,1.4 m 0,-20.8 0.6,1.4 m 0.1,0.3 0.2,0.1 h 0.2 m -0.2,17.3 h -0.2 m -18.9,-0.9 h -14.5 m 0,-15.6 h 14.5 m 9.9,0 h 1.4 m 0,15.6 h -1.4 m -35.8,-15.6 h 1.4 m 0,15.6 h -1.4 m 6.4,-20.8 h 0.2 m 1.6,0.7 0.3,0.6 0.3,0.9 -0.1,0.8 -0.1,0.3 m -4.4,0 -0.1,-0.3 -0.1,-0.8 0.3,-0.9 0.5,-0.7 0.7,-0.5 0.9,-0.1 m 4.5,-2.6 0.5,0.5 m 0,30.2 -0.5,0.5 m -9,0 -0.5,-0.5 m 0,-30.2 0.5,-0.5 m 2.3,25.3 h -2.8 m 0,-19.4 h 2.8 m 7.2,19.4 h -2.8 m 0,-19.4 h 2.8 m -4.9,17.9 0.8,0.2 0.7,0.5 0.1,0.1 m 0.5,0.7 0.2,0.7 -0.1,0.9 -0.4,0.8 -0.6,0.6 -0.9,0.3 h -0.8 L -40,3.7 -40.6,3.1 -41,2.3 -41.1,1.4 -40.9,0.7 m 0.1,-0.1 v 0 l 0.5,-0.7 0.7,-0.5 0.7,-0.1 M -14.3,-22 h 0.2 m 1.6,0.7 0.4,0.6 0.2,0.9 -0.1,0.8 v 0.3 m -4.5,0 -0.1,-0.3 v -0.8 l 0.2,-0.9 0.5,-0.7 0.8,-0.5 0.8,-0.1 m -4.4,28.6 -0.5,-0.5 m 0,-30.2 0.5,-0.5 m 8.9,0 0.5,0.5 m 0,30.2 -0.5,0.5 m -6.7,-5.9 h -2.7 m 0,-19.4 h 2.7 M -9.3,0.7 H -12 m 0,-19.4 h 2.7 m -4.8,17.9 0.7,0.2 0.8,0.5 0.1,0.1 m 0.5,0.7 0.1,0.7 -0.1,0.9 -0.3,0.8 -0.7,0.6 -0.8,0.3 h -0.9 L -15.5,3.7 -16.2,3.1 -16.6,2.3 V 1.4 l 0.1,-0.7 m -45.6,-66.4 h 79.4 m 0,113.4 h -79.4 m 75,-93 0.5,-0.1 m 3.1,-3.2 0.1,-0.7 0.1,-0.8 m 0,82.2 -0.1,-0.8 -0.2,-0.8 v -0.2 m -3.2,-2.9 -0.3,-0.1 m -203.4,22.3 -0.6,-0.7 -3.2,-3.8 -2.9,-3.9 -2.7,-4.1 -2.4,-4.1 -2.2,-4.2 -1.9,-4.3 -0.5,-1.2 m 68.5,0 -1,2.3 -1.9,4.2 -2.3,4.2 -2.5,4.1 -2.7,4 -3,3.9 -3,3.6 m -37.8,-42.1 0.1,0.1 0.8,1.7 1.1,1.6 1.3,1.5 1.6,1.4 1.7,1.2 1.9,1.1 2.1,0.9 2.1,0.7 2.3,0.6 2.4,0.3 2.4,0.1 2.3,-0.1 2.4,-0.3 2.3,-0.4 2.2,-0.7 2.1,-0.9 1.9,-1.1 1.8,-1.2 1.5,-1.3 1.4,-1.5 1.1,-1.5 0.9,-1.7 V 7.9 m -19.6,10.8 v 0 l 2.2,-0.1 2.1,-0.3 2.1,-0.6 1.9,-0.7 1.9,-0.9 1.6,-1 1.5,-1.3 0.9,-1 m -48.6,10.5 -0.4,-1.1 -1.1,-2 -1.3,-2 -1.6,-1.8 -1.8,-1.7 -2,-1.6 -2.2,-1.4 -2.4,-1.3 -2.5,-1.1 -2.6,-0.9 -2.8,-0.7 -2.6,-0.5 m 115.2,0 -1.1,0.1 -2.8,0.6 -2.7,0.8 -2.6,1 -2.4,1.2 -2.3,1.3 -2.1,1.5 -1.9,1.7 -1.7,1.7 -1.5,1.9 -1.2,2 -1,1.9 -0.1,0.4 M -300.2,-3.3 h -7.1 m -1.4,0 h -7.1 m -9.9,0 h -5.7 m -14.5,0 h -5.7 m 0,-11.4 h 5.7 m 14.5,0 h 5.7 m 9.9,0 h 7.1 m 1.4,0 h 7.1 m -51.4,11.4 -1,-1.1 m 0,-9.2 1,-1.1 m 307.9,0 h 0.5 m 9,0 h 0.5 m 14.5,0 h 0.5 m 8.9,0 h 0.5 m 8.9,0 h 0.1 m 1.1,0 h 5.5 m 0,11.4 H 0.8 m -1.1,0 h -0.1 m -8.9,0 h -0.5 m -8.9,0 h -0.5 m -14.5,0 h -0.5 m -9,0 h -0.5 m 50,-11.4 1.1,1.1 m 0,9.2 -1.1,1.1 m -306.5,-21.2 h 255.1 m -180,32.8 h -75.1 m 255.1,0 h -75.1 M -493.2,0 h -0.2 l -0.3,-0.1 -0.3,-0.1 -0.2,-0.2 -0.2,-0.3 -0.1,-0.2 -0.1,-0.3 -0.1,-0.3 m 0,-15 0.1,-0.3 0.1,-0.3 0.1,-0.2 0.2,-0.2 0.2,-0.2 0.3,-0.2 0.3,-0.1 h 0.2 m 0,0 0.7,-1.4 m 0,20.8 -0.7,-1.4 m 6.9,-19.4 0.6,1.4 m 0,18 -0.6,1.4 m 140.4,-18.2 h 14.5 m 0,15.6 h -14.5 M -472,-16.8 h 1.4 m 0,15.6 h -1.4 m 163.3,-15.6 h 1.4 m 0,15.6 h -1.4 M -447,6.6 h -9 m 0,-31.2 h 9 m -9,31.2 -0.5,-0.5 m 0,-30.2 0.5,-0.5 m 9,0 0.5,0.5 m 0,30.2 -0.5,0.5 m 130.7,0 h -8.9 m 0,-31.2 h 8.9 m -8.9,31.2 -0.5,-0.5 m 0,-30.2 0.5,-0.5 m 8.9,0 0.5,0.5 m 0,30.2 -0.5,0.5 m -44.8,41.1 h -79.4 m 0,-113.4 h 79.4 m 179.5,51.2 0.1,-1.1 0.3,-1.2 0.7,-1.2 0.8,-1.1 1.1,-0.9 1.2,-0.8 1.4,-0.5 1.6,-0.4 1.5,-0.1 h 1.6 l 1.6,0.4 1.4,0.5 1.4,0.7 1.1,1 1,1.1 0.7,1.2 0.3,1.3 0.1,1.1 M -193.2,-4 v -0.2 l 0.1,-2 0.4,-2 0.7,-1.9 0.9,-1.8 1.2,-1.7 1.4,-1.6 1.6,-1.5 1.8,-1.3 1.9,-1.1 2.2,-0.9 2.2,-0.7 2.4,-0.5 h 0.1 m 7.2,0 2.2,0.4 2.3,0.7 2.2,0.9 2.1,1.1 1.9,1.3 1.7,1.6 1.4,1.7 1.2,1.8 1,1.9 0.6,2 0.4,2 0.1,1.7 m -3.2,8.4 v 1.1 m -34.9,0 V 4.3 m 7.4,36.9 h 0.1 l 0.1,-0.1 h 0.1 l 0.1,-0.1 h 0.2 0.1 0.1 0.1 m 0,0 h 18.3 m 0,0 h 0.1 0.1 0.2 0.1 l 0.1,0.1 h 0.1 l 0.1,0.1 h 0.1 m -26.9,4.2 6.8,-4.2 m 20.1,0 6.8,4.2 m -34.6,1.5 0.1,-0.2 v -0.2 l 0.1,-0.3 0.1,-0.1 0.1,-0.2 0.1,-0.2 0.2,-0.1 0.2,-0.2 m 33.7,0 0.2,0.2 0.2,0.1 0.1,0.2 0.1,0.2 0.1,0.1 0.1,0.3 0.1,0.2 v 0.2 M -0.4,0 v 0 m 0,-18 v 0 m 0,0 0.5,0.1 0.5,0.2 0.3,0.4 0.2,0.5 v 0.3 m 0,15 v 0 m 0,-15 v 0 m 0,15 v 0.2 L 1,-0.8 0.7,-0.4 0.3,-0.1 -0.2,0 h -0.2 m 1.3,-16.5 v -0.1 L 0.8,-17 0.5,-17.4 0.2,-17.6 -0.2,-17.8 h -0.2 m 0,17.6 0.4,-0.1 0.4,-0.2 0.3,-0.3 0.2,-0.4 v -0.3 m -3.1,-1.9 0.6,-0.8 m 0.8,-9.6 -0.4,-0.8 m 0,0 h -0.5 m -1.1,11.2 h 0.6 m -1,-11.2 h -0.5 m -1.1,11.2 h 0.6 m 0,0 0.6,-0.8 m 0.8,-9.6 -0.4,-0.8 m -3,11.2 0.6,-0.8 m 0.8,-9.6 -0.4,-0.8 m 0,0 h -0.5 m -1.1,11.2 h 0.6 m 0.5,-11.2 -0.6,0.9 m -0.8,9.5 0.3,0.8 m 5.1,-11.2 -0.6,0.9 m -0.8,9.5 0.3,0.8 m -0.9,-11.2 -0.6,0.9 m -0.8,9.5 0.3,0.8 M 1.1,-15.1 H 0.9 m 0,12.2 h 0.2 m -0.2,0 V -3 -3.3 m 0,-11.4 v -0.3 -0.1 m 0.2,0 v 0.1 0.3 m 0,11.4 v 0.3 0.1 m -2.2,-1.3 0.3,0.8 m -4.8,-0.8 h 0.5 m 0.8,-9.5 -0.5,-0.1 m 3.2,9.6 h 0.5 m 0.7,-9.6 h -0.4 m -2.8,9.6 h 0.5 m 0.8,-9.5 -0.5,-0.1 m 1.9,-5.4 0.5,1.2 m -6.9,-1.2 h 6.4 m -7,1.2 0.6,-1.2 m -0.5,4.8 v 0 l -0.1,-0.2 m 0.2,0 -0.1,0.2 m 0.6,-0.2 h -0.5 m 0.9,0.8 -0.4,-0.8 m 0.9,0.9 -0.5,-0.1 m 7.7,-1.3 v -1.4 m 0.2,1.4 v -1.4 m -1.5,-1.3 v 4 m -7.5,-0.8 V -18 m 0.4,13.8 h 0.4 m -0.8,0.8 0.4,-0.8 M -7.3,1.2 -7.9,0 m 7,1.2 H -7.3 M -0.4,0 -0.9,1.2 m 0.1,-4.6 h 0.4 m 1.3,1.9 v -1.4 m 0.2,1.4 v -1.4 m -1.5,-0.5 v 3.2 M -7.9,0 V -3.4 M -7.2,1.4 -7.3,1.2 M -7.9,0 v 0 m 0.6,-19.2 0.1,-0.2 m -0.7,1.4 v 0 m 7,19.2 -0.1,0.2 m 0,-20.8 0.1,0.2 M -1,-19.4 H -7.2 M -1,1.4 h -6.2 m 8,-17.9 v -0.2 L 0.6,-17.1 0.4,-17.4 0,-17.6 -0.3,-17.7 m 1.1,16.2 v 0 m 0,-15 v 0 M -0.3,-0.3 0.1,-0.4 0.4,-0.6 0.7,-1 0.8,-1.3 v -0.2 m -1.1,1.2 v 0 m 0,-17.4 v 0 m 0,4 h 1.1 m 0,9.4 h -1.1 m 1.1,-9.4 v -2.8 m -1.1,-1.2 v 4 m 1.1,12.2 v -2.8 m -1.1,0 v 4 m -18.9,-0.9 h -14.5 m 0,-15.6 h 14.5 m 0,13.5 h -14.5 m 0,-11.3 h 14.5 m -14.5,-2.2 v 2.2 m 14.5,-2.2 v 2.2 m -14.5,11.3 v 2.1 m 14.5,-2.1 v 2.1 m 9.9,-15.6 h 1.4 m 0,15.6 h -1.4 m 0,-13.4 h 1.4 m 0,11.3 h -1.4 m 1.4,2.1 v -2.1 m -1.4,2.1 v -2.1 m 1.4,-11.3 v -2.2 m -1.4,2.2 v -2.2 m -35.8,0 h 1.4 m 0,15.6 h -1.4 m 0,-13.4 h 1.4 m 0,11.3 h -1.4 m 1.4,2.1 v -2.1 m -1.4,2.1 v -2.1 m 1.4,-11.3 v -2.2 m -1.4,2.2 v -2.2 m 6.4,-5.2 0.9,0.2 0.7,0.4 0.5,0.7 0.3,0.9 -0.1,0.8 -0.4,0.8 -0.7,0.6 -0.8,0.3 h -0.8 l -0.8,-0.3 -0.7,-0.6 -0.4,-0.8 -0.1,-0.8 0.3,-0.9 0.5,-0.7 0.7,-0.4 0.9,-0.2 m 4.5,28.6 h -9 m 0,-31.2 v 0 m 0,31.2 v 0 m 0,-31.2 h 9 m 0.5,30.7 -0.5,0.5 m 0,-31.2 0.5,0.5 m -10,0 v 0 m 0,30.2 v 0 m 0,-30.2 0.5,-0.5 m 0,31.2 -0.5,-0.5 m 2.8,-3.5 0.4,0.6 0.7,0.5 0.7,0.3 h 0.8 l 0.8,-0.3 0.6,-0.5 0.4,-0.6 m 0,-23.1 -0.4,-0.7 -0.7,-0.5 -0.7,-0.3 h -0.8 l -0.8,0.3 -0.6,0.5 -0.4,0.7 m -2.8,23.1 h 2.8 m 0,-23.1 h -2.8 m 0,0 v 0.1 0.4 0.7 0.6 m 0,19.4 V 1.3 2 2.5 2.6 m 7.2,0 h 2.8 m 0,-23.1 h -2.8 m 2.8,0 v 0.1 0.4 0.7 0.6 m 0,19.4 V 1.3 2 2.5 2.6 m -10,-23.1 v -3.6 m 10,0 v 3.6 m -10,26.6 V 2.6 m 10,0 v 3.5 m -7.2,-24.8 v 0 m 0,19.4 v 0 m 0,-19.4 0.4,0.7 0.7,0.5 0.7,0.3 0.8,-0.1 0.8,-0.2 0.6,-0.5 0.4,-0.7 m 0,0 v 0 m 0,19.4 v 0 m 0,0 -0.4,-0.7 -0.7,-0.5 -0.7,-0.2 h -0.8 l -0.8,0.3 -0.6,0.5 -0.4,0.6 m 0,0 h -2.8 m 0,-19.4 v 0 m 0,19.4 v 0 m 0,-19.4 h 2.8 m 7.2,0 v 0 m 0,19.4 v 0 m 0,0 h -2.8 m 0,-19.4 h 2.8 m -0.5,15.4 0.5,0.5 m 0,-12.3 -0.5,0.5 m -9,0 -0.5,-0.5 m 0,12.3 0.5,-0.5 m 0,0 h 9 m 0,-11.3 h -9 m 9.5,11.8 v 3.5 m -10,0 v -3.5 m 10,-15.9 v 3.6 m -10,0 v -3.6 m 5,18 0.9,0.1 0.7,0.5 0.5,0.7 0.3,0.8 -0.1,0.9 -0.4,0.8 -0.7,0.6 -0.8,0.3 h -0.8 l -0.8,-0.3 -0.7,-0.6 -0.4,-0.8 -0.1,-0.9 0.3,-0.8 0.5,-0.7 0.7,-0.5 0.9,-0.1 m 24.4,-21.3 0.9,0.2 0.7,0.4 0.6,0.7 0.2,0.9 -0.1,0.8 -0.4,0.8 -0.6,0.6 -0.8,0.3 h -0.9 l -0.8,-0.3 -0.6,-0.6 -0.4,-0.8 -0.1,-0.8 0.2,-0.9 0.6,-0.7 0.7,-0.4 0.8,-0.2 m 4.5,-2.6 v 0 m 0,31.2 v 0 m 0,0 h -8.9 m 0,-31.2 h 8.9 m -9.4,0.5 0.5,-0.5 m 0,31.2 -0.5,-0.5 m 9.9,-30.2 v 0 m 0,30.2 v 0 m 0,0 -0.5,0.5 m 0,-31.2 0.5,0.5 m -7.2,26.7 0.5,0.6 0.6,0.5 0.8,0.3 h 0.8 l 0.7,-0.3 0.7,-0.5 0.4,-0.6 m 0,-23.1 -0.5,-0.7 -0.6,-0.5 -0.8,-0.3 h -0.8 l -0.7,0.3 -0.7,0.5 -0.4,0.7 m -2.7,23.1 h 2.7 m 0,-23.1 h -2.7 m 0,0 v 0.1 0.4 0.7 0.6 m 0,19.4 V 1.3 2 2.5 2.6 m 7.2,0 h 2.7 m 0,-23.1 H -12 m 2.7,0 v 0.1 0.4 0.7 0.6 m 0,19.4 V 1.3 2 2.5 2.6 m -9.9,-23.1 v -3.6 m 9.9,0 v 3.6 M -19.2,6.1 V 2.6 m 9.9,0 v 3.5 m -7.2,-24.8 v 0 m 0,19.4 v 0 m 0,-19.4 0.5,0.7 0.6,0.5 0.8,0.3 0.8,-0.1 0.7,-0.2 0.7,-0.5 0.4,-0.7 m 0,0 v 0 m 0,19.4 v 0 m 0,0 -0.5,-0.7 -0.6,-0.5 -0.8,-0.2 h -0.8 l -0.7,0.3 -0.7,0.5 -0.4,0.6 m 0,0 h -2.7 m 0,-19.4 v 0 m 0,19.4 v 0 m 0,-19.4 h 2.7 m 7.2,0 v 0 m 0,19.4 v 0 m 0,0 H -12 m 0,-19.4 h 2.7 m -0.5,15.4 0.5,0.5 m 0,-12.3 -0.5,0.5 m -8.9,0 -0.5,-0.5 m 0,12.3 0.5,-0.5 m 0,0 h 8.9 m 0,-11.3 h -8.9 m 9.4,11.8 v 3.5 m -9.9,0 v -3.5 m 9.9,-15.9 v 3.6 m -9.9,0 v -3.6 m 4.9,18 0.9,0.1 0.7,0.5 0.6,0.7 0.2,0.8 -0.1,0.9 -0.4,0.8 -0.6,0.6 -0.8,0.3 h -0.9 l -0.8,-0.3 -0.6,-0.6 -0.4,-0.8 -0.1,-0.9 0.2,-0.8 0.6,-0.7 0.7,-0.5 0.8,-0.1 m 31.6,-65 H -62.1 M 17.3,47.7 v 0 m 0,0 v -0.1 -0.5 -0.8 -1 -1.4 -1.7 -2 -2.2 -2.5 -2.8 -3 -3.2 -3.4 -3.6 -3.8 -3.9 -4 -4.1 -4.2 -4.2 -4.3 -4.2 -4.3 -4.2 -4.1 -4 -3.9 -3.7 -3.6 -3.5 -3.2 -3 -2.7 -2.6 -2.2 -2 -1.7 -1.3 -1.1 -0.8 -0.4 -0.2 m 0,0 v 0 M -62.1,47.7 h 79.4 m -79.4,0 v 0 m 0,-113.4 v 0 m 78.8,97.8 0.6,15.6 m 0,-113.4 -0.6,15.6 M -62.1,41.1 V 41 l 0.1,-0.1 v -0.1 h 0.1 m 0,-99.6 v 0 H -62 l -0.1,-0.1 V -59 m 0,100.1 v -0.2 -0.4 -0.8 -1 -1.4 -1.6 -1.9 -2.2 -2.4 -2.7 -2.9 -3.1 -3.2 -3.5 -3.6 -1.9 m 0,-32.8 v 0 -3.7 -3.6 -3.4 -3.3 -3.1 -2.9 -2.7 -2.4 -2.2 -1.9 -1.6 -1.4 -1 -0.8 -0.4 -0.1 m 1.4,98.6 v 0.1 l -0.2,0.5 -0.3,0.3 -0.4,0.2 -0.3,0.1 m 0,-99.6 0.4,0.2 0.4,0.3 0.3,0.4 0.1,0.4 m 0,97.1 0.6,-2.5 1,-2.4 m 0,-87.4 -0.9,-2 -0.6,-2.2 -0.1,-0.6 m 7.3,81.5 -0.8,2.7 -1.4,2.5 -1.8,2.7 -1.7,2.8 M -53.4,22 V 21.6 20.2 18.6 16.7 14.5 12.1 9.5 8.3 m 0,-32.8 v -0.2 -2.7 -2.7 -2.4 -2.1 -2 -1.6 -1.4 -0.5 m -5.7,-12.6 2,3.3 2.2,3.4 0.9,1.9 0.6,2.1 m 70.1,74.1 -0.3,-1.7 -0.9,-1.5 -1.3,-1.1 -1.3,-0.5 m 0,-72.6 1.5,-0.7 1.3,-1.2 0.8,-1.5 0.2,-1.4 m -3.8,4.8 -12.6,3.3 m 0,66 12.6,3.3 M -53.4,-42 H 0.3 m 0,66 h -53.7 m -8.7,-89.7 v 6.7 m 0,100.1 v 6.6 m 8.9,-25.5 -0.2,1.8 m 0.2,-1.8 v -0.1 -0.5 -0.8 -1 -1.4 -1.7 -1.9 -2.2 -2.4 -1.9 m 0,-32.8 v -1.1 -2.6 -2.4 -2.2 -1.9 -1.7 -1.3 -1.1 -0.8 -0.4 -0.2 m -0.2,-1.8 0.2,1.8 M -53.4,24 v 0 m 0,0 V 23.9 23.5 22.7 21.6 20.2 18.6 16.7 14.5 12.1 9.5 8.3 m 0,-32.8 v -0.2 -2.7 -2.7 -2.4 -2.1 -2 -1.6 -1.4 -1.1 -0.7 -0.5 -0.1 m 0,0 v 0 m 0,0 H 0.3 m 0,66 h -53.7 m 43.9,-51.4 v 0.1 l 0.1,-0.4 0.1,-0.7 0.2,-1 0.3,-1.3 0.5,-1.3 0.5,-1.4 0.5,-1.1 0.4,-0.8 0.1,-0.3 m -2.7,8.2 -0.1,2.8 m 0,31.2 0.1,2.8 m 2.7,8.2 v 0 L -6.9,17.3 -7.2,16.7 -7.6,15.8 -8.2,14.5 -8.7,13 -9.1,11.6 -9.3,10.4 -9.4,9.7 -9.5,9.4 m 2.7,8.2 h 0.1 l 2.1,2.6 2.3,1.5 2.6,0.5 m 0,-62.4 -2.3,0.4 -2,1.1 -1.3,1.2 -1.1,1.4 -0.4,0.6 m -1.7,47.1 0.5,1 0.5,0.6 0.5,0.1 0.2,-0.5 V 12 L -7,11.1 -7.3,9.9 -7.8,8.6 -8.3,7.2 -8.8,6 -9.2,5.3 -9.4,5.1 m -0.1,1.5 0.1,0.4 0.1,1.2 0.2,1.4 0.3,1.3 0.3,0.7 m -0.8,-11.9 0.1,0.7 0.3,0.9 0.5,0.6 0.4,0.2 0.6,-0.4 0.2,-0.4 m 0,-20.6 -0.2,-0.3 -0.5,-0.4 -0.5,0.1 -0.5,0.6 -0.3,1 -0.1,0.7 m -0.2,-7.1 v 0.4 m 0.1,1.2 h 0.1 l 0.2,-0.3 0.3,-0.7 0.4,-1 0.5,-1.3 0.6,-1.5 0.4,-1.4 0.1,-1 V -31 l -0.3,-0.3 -0.4,0.1 -0.4,0.5 -0.6,1 -0.4,1.3 -0.3,1.5 -0.2,1.3 -0.1,0.9 m 9.8,46.9 v -0.1 -0.5 -0.8 -1 -1.4 -1.7 -1.9 -2.2 -2.4 -2.6 -2.8 -2.9 -2 m 0,-17.7 v -2.1 -2.9 -2.8 -2.6 -2.4 -2.2 -1.9 -1.7 -1.3 -1.1 -0.8 -0.4 -0.2 m -46.5,57.8 v 0 l -2.2,2.6 -2.3,1.5 -2.5,0.5 m 7,-4.6 v 0 l 0.2,-0.3 0.3,-0.6 0.4,-0.9 0.5,-1.3 0.5,-1.5 0.4,-1.4 0.3,-1.2 0.1,-0.7 V 9.4 m 0.2,-2.8 -0.2,2.8 m 0,-36.8 0.2,2.8 m -0.2,-2.8 v 0.1 -0.4 l -0.1,-0.7 -0.3,-1 -0.3,-1.3 -0.4,-1.3 -0.6,-1.4 -0.5,-1.1 -0.3,-0.8 -0.2,-0.3 m -7,-4.6 2.2,0.4 2,1.1 1.3,1.2 1.1,1.4 0.4,0.6 m 1.8,47.1 -0.6,1 -0.5,0.6 -0.4,0.1 -0.3,-0.5 V 12 l 0.2,-0.9 0.4,-1.2 0.5,-1.3 0.5,-1.4 0.5,-1.2 0.3,-0.7 0.2,-0.2 m 0.1,1.5 V 7 l -0.1,1.2 -0.2,1.4 -0.4,1.3 -0.2,0.7 m 0.7,-11.9 -0.1,0.7 -0.3,0.9 -0.4,0.6 L -45,2.1 -45.1,2 m 0,-22 v 0 l 0.6,0.1 0.4,0.6 0.3,1 0.1,0.7 m 0.2,-7.1 v 0.4 m -0.1,1.2 v 0 l -0.2,-0.3 -0.4,-0.7 -0.4,-1 -0.5,-1.3 -0.5,-1.5 -0.4,-1.4 -0.2,-1 0.1,-0.7 0.2,-0.3 0.4,0.1 0.5,0.5 0.5,1 0.5,1.3 0.3,1.5 0.1,1.3 0.1,0.9 m 9.8,0.1 h -9.6 m 0,31.2 h 9.6 m 24.1,-31.2 h -9.6 m 0,31.2 h 9.6 m -9.6,-29.4 h -14.5 m 0,27.6 h 14.5 m -24.3,-32.2 h 34 m 2.7,-8.1 h -39.4 m 0,53.1 H -6.8 M -9.5,9.4 h -34 M 0.3,-42 v 1.8 m 0,62.4 V 24 m -19.5,-46.8 v -1.8 m -14.5,1.8 v -1.8 M -19.2,6.6 V 4.8 M -33.7,6.6 V 4.8 m -118.8,-5.6 0.2,0.5 0.4,2 v 1.9 l -0.2,2 -0.6,1.9 -0.2,0.6 m -39.6,-0.4 -0.1,-0.2 -0.6,-1.9 -0.2,-2 0.1,-1.9 0.3,-2 0.2,-0.5 m 40,0.9 0.6,1.8 0.3,1.9 V 3.9 M -300.2,-8.3 v 0.2 0.2 0.2 0.2 0.2 0.2 0.2 0.2 m 0,-1.6 V -23.7 M -45.1,8.1 V 7.2 m 0,0 h -56.4 M -300.2,8.1 V -6.7 m 255.1,3.4 V 7.2 M 6.3,-3.3 h -51.4 m 51.4,0 1.1,-1.1 m 0,0 v -9.2 m 0,0 -1.1,-1 m -51.4,0 H 6.3 m -51.4,-9.9 v 9.9 m -57.7,-9.9 h 57.7 M -230.2,7.2 -231,7.1 m 116,0.1 0.8,-0.1 M -351.6,-3.3 v 0 -0.3 -0.5 -0.8 -1 -1.1 -1.3 -1.3 -1.3 -1.2 -1 -0.8 -0.5 -0.2 -0.1 m -1,1.1 v 0 0.3 0.6 0.8 1 1.1 1.2 1.2 1 0.9 0.7 0.3 0.1 M 6.3,-3.3 v 0 m 0,-11.4 v 0.1 m 1.1,1 v 0 m 0,9.2 v 0 m -307.6,-19.7 v 0 0.1 0.1 0.1 0.1 m 255.1,-0.8 v 0 m -255.1,0.4 v -0.3 -0.1 m 0,32.6 v 0.1 0.1 m 255.1,0 v 0 -0.1 -0.1 m -449.6,-9.6 v -0.1 -0.5 -0.7 -1 -1.2 -1.4 -1.5 -1.5 -1.5 -1.4 -1.3 -1.1 -0.8 -0.6 -0.4 m 1.5,7.5 v -1.2 -1.1 -1.1 -1.1 -1 -0.9 -0.7 -0.7 m 0,0 v -0.5 -0.4 -0.2 -0.1 m 0,18 v -0.1 -0.2 -0.4 -0.5 m 0,0 v -0.6 -0.8 -0.9 -1 -1 -1.2 -1.1 -1.2 m 7.5,0 -0.3,3.9 -0.3,1.3 m 0,-10.4 0.4,2.1 0.2,3.1 m -6.8,-5.2 h 6.2 m -6.9,5.2 0.3,-3.1 0.4,-2.1 m 0,10.4 -0.3,-1.3 -0.4,-3.9 m 0.7,5.2 h 6.2 m 0.6,-13 -0.1,1.2 -0.5,1.4 m 0,-5.2 0.5,1.3 0.1,1.3 m -6.8,-2.6 h 6.2 m -6.9,2.6 0.2,-1.2 0.5,-1.4 m 0,5.2 -0.5,-1.3 -0.2,-1.3 m 0,15.6 0.2,-1.2 0.5,-1.4 m 6.8,2.6 -0.1,1.2 -0.5,1.4 m 0,-5.2 0.5,1.3 0.1,1.3 m -6.8,2.6 -0.5,-1.3 -0.2,-1.3 m 0.7,2.6 h 6.2 m 0.6,-10.4 v -1.2 -1.1 -1.1 -1.1 -1 -0.9 -0.7 -0.7 m 0,15.6 v -0.6 -0.8 -0.9 -1 -1 -1.2 -1.1 -1.2 m 0,-7.8 v -0.5 -0.4 -0.2 -0.1 m 0,18 v -0.1 -0.2 -0.4 -0.5 m 139.8,0 v -0.1 -0.4 -0.8 -1 -1.2 -1.4 -1.5 -1.6 -1.5 -1.5 -1.4 -1.2 -0.9 -0.7 -0.3 -0.1 m 14.5,15.6 v -0.1 -0.4 -0.8 -1 -1.2 -1.4 -1.5 -1.6 -1.5 -1.5 -1.4 -1.2 -0.9 -0.7 -0.3 -0.1 M -472,-1.2 v -0.1 -0.3 -0.7 -0.9 -1.1 -1.4 -1.5 -1.6 -1.5 -1.5 -1.4 -1.3 -1 -0.7 -0.5 -0.1 m 1.4,15.6 v -0.1 -0.3 -0.7 -0.9 -1.1 -1.4 -1.5 -1.6 -1.5 -1.5 -1.4 -1.3 -1 -0.7 -0.5 -0.1 m 161.9,15.6 v 0 -0.3 -0.6 -0.8 -1.1 -1.4 -1.4 -1.6 -1.5 -1.6 -1.4 -1.3 -1.1 -0.8 -0.5 -0.2 m 1.4,15.6 v 0 -0.3 -0.6 -0.8 -1.1 -1.4 -1.4 -1.6 -1.5 -1.6 -1.4 -1.3 -1.1 -0.8 -0.5 -0.2 M -456,-18.2 v -1.7 -1.4 -1.3 -0.9 -0.7 -0.3 -0.1 m 0,31.2 V 6.6 6.3 5.7 4.8 3.6 2.2 0.5 v -1.8 -2 -2.2 -2.2 -2.2 -2.2 -2.1 -2.1 -1.9 m 9,0 v -1.7 -1.4 -1.3 -0.9 -0.7 -0.3 -0.1 m 0,31.2 V 6.6 6.3 5.7 4.8 3.6 2.2 0.5 v -1.8 -2 -2.2 -2.2 -2.2 -2.2 -2.1 -2.1 -1.9 m -9.5,0.3 v -1.6 -1.4 -1.2 -1 -0.6 -0.3 -0.1 m 0,30.2 V 6.1 5.8 5.2 4.4 3.2 1.8 0.2 -1.6 -3.5 -5.6 -7.7 -9.9 -12 -14.1 -16 -17.9 m 10,0 v -1.6 -1.4 -1.2 -1 -0.6 -0.3 -0.1 m 0,30.2 V 6.1 5.8 5.2 4.4 3.2 1.8 0.2 -1.6 -3.5 -5.6 -7.7 -9.9 -12 -14.1 -16 -17.9 m 121.3,-0.3 v -1.7 -1.4 -1.3 -0.9 -0.7 -0.3 -0.1 m 0,31.2 V 6.6 6.3 5.7 4.8 3.6 2.2 0.5 v -1.8 -2 -2.2 -2.2 -2.2 -2.2 -2.1 -2.1 -1.9 m 8.9,0 v -1.7 -1.4 -1.3 -0.9 -0.7 -0.3 -0.1 m 0,31.2 V 6.6 6.3 5.7 4.8 3.6 2.2 0.5 v -1.8 -2 -2.2 -2.2 -2.2 -2.2 -2.1 -2.1 -1.9 m -9.4,0.3 v -1.6 -1.4 -1.2 -1 -0.6 -0.3 -0.1 m 0,30.2 V 6.1 5.8 5.2 4.4 3.2 1.8 0.2 -1.6 -3.5 -5.6 -7.7 -9.9 -12 -14.1 -16 -17.9 m 9.9,0 v -1.6 -1.4 -1.2 -1 -0.6 -0.3 -0.1 m 0,30.2 V 6.1 5.8 5.2 4.4 3.2 1.8 0.2 -1.6 -3.5 -5.6 -7.7 -9.9 -12 -14.1 -16 -17.9 m -45.3,-24.4 v -3.3 -3.1 -2.9 -2.6 -2.4 -2.2 -1.8 -1.6 -1.3 -1 -0.7 -0.4 -0.1 m 0,113.4 v -0.1 -0.4 -0.7 -1 -1.3 -1.5 -1.9 -2.1 -2.4 -2.7 -2.9 -3.1 -3.3 -3.4 -3.7 -3.8 -3.9 -4 -4.1 -4.1 -4.2 -4.2 -4.2 -4.1 -4.1 -4 -3.9 -3.8 -3.6 -3.5 m -79.4,0 v -3.3 -3.1 -2.9 -2.6 -2.4 -2.2 -1.8 -1.6 -1.3 -1 -0.7 -0.4 -0.1 m 0,113.4 v -0.1 -0.4 -0.7 -1 -1.3 -1.5 -1.9 -2.1 -2.4 -2.7 -2.9 -3.1 -3.3 -3.4 -3.7 -3.8 -3.9 -4 -4.1 -4.1 -4.2 -4.2 -4.2 -4.1 -4.1 -4 -3.9 -3.8 -3.6 -3.5 m 258.9,27.7 v 1 l 0.2,0.8 0.4,0.9 0.5,0.8 0.7,0.8 0.7,0.7 0.9,0.6 1,0.5 m 0,0 1,0.4 1.1,0.3 1.2,0.2 h 1.1 1.2 l 1.2,-0.2 1.1,-0.3 1.1,-0.3 m 0,0 0.9,-0.5 0.9,-0.6 0.8,-0.7 0.7,-0.7 0.5,-0.8 0.4,-0.9 0.3,-0.9 0.1,-0.9 m -4.6,12.6 -2.1,0.8 -2.5,0.7 m 9.1,-3.9 -2.2,1.3 -2.3,1.1 m 4.5,-8.2 v 5.8 m -4.5,-4.2 2.1,-0.9 2.4,-0.7 m -9.1,3.9 2.3,-1.2 2.3,-1.1 m -4.6,2.3 v 5.8 m -4.4,-8.2 2,1 2.4,1.4 m -4.4,4.2 -2.1,-1 -2.4,-1.5 m 8.9,4.1 -2.2,-0.7 -2.2,-0.9 m -4.5,-8.3 2.2,0.7 2.3,1 m -4.5,-1.7 v 5.8 m 9,-6.9 1.3,-0.1 1.3,-0.4 1.1,-0.5 1,-0.8 0.7,-0.9 0.4,-1 0.1,-1 -0.2,-1 -0.6,-1 -0.8,-0.8 -1,-0.7 -1.2,-0.5 -1.3,-0.2 h -1.3 l -1.4,0.2 -1.2,0.5 -1,0.6 -0.8,0.8 -0.6,1 -0.2,1 v 1 l 0.4,1 0.6,0.9 1,0.8 1.1,0.6 1.2,0.3 1.4,0.2 m 5.9,-4.3 v -0.3 l -0.2,-1 -0.6,-0.9 -0.8,-0.9 -1,-0.6 -1.2,-0.5 -1.3,-0.3 h -1.3 l -1.4,0.2 -1.2,0.5 -1,0.6 -0.8,0.9 -0.6,0.9 -0.2,1 -0.1,0.4 m 14.8,5.6 v -1.2 l 0.1,-3.2 m -18,-0.2 -0.1,3.3 v 1.1 m 18.1,2.5 -0.1,2.7 v 0.8 m 0.1,-7.9 v 1.8 2.6 m 0,-10.2 v 5.8 m 0,-2.3 v -2.2 -1.3 m -13.3,1.8 0.8,-0.6 1,-0.6 1.2,-0.3 1.3,-0.1 1.3,0.1 1.2,0.4 1,0.5 0.8,0.7 m -1.4,-0.7 0.4,0.2 0.7,0.6 0.5,0.7 0.1,0.2 m -9.3,0 0.1,-0.3 0.6,-0.7 0.8,-0.5 0.3,-0.2 m 11.9,-1.2 -2.2,-1.3 m -13.5,-0.2 -2.3,1.3 m 0,0 v 1.3 2.2 m 9.1,-7.4 -0.7,0.2 m 1.4,0 -0.7,-0.2 m -0.2,14.1 1.6,-0.1 1.6,-0.3 1.5,-0.6 1.3,-0.8 1.1,-0.9 0.8,-1.1 0.6,-1.2 0.2,-1.2 v -1.2 m -17.3,0.1 v 0.9 l 0.2,1.3 0.5,1.2 0.8,1.1 1.1,0.9 1.3,0.8 1.4,0.6 1.6,0.4 1.7,0.1 m 0,-4.1 1.2,-0.1 1.2,-0.3 1,-0.6 0.7,-0.7 0.5,-0.9 0.2,-0.9 -0.2,-1 -0.4,-0.8 -0.8,-0.8 -0.9,-0.6 -1.2,-0.4 -1.2,-0.1 -1.2,0.1 -1.1,0.4 -1,0.5 -0.8,0.8 -0.5,0.8 -0.2,1 0.2,0.9 0.5,0.9 0.7,0.7 1,0.6 1.1,0.4 1.2,0.1 m 4.7,-3 -0.1,-0.4 -0.4,-0.9 -0.8,-0.8 -0.9,-0.5 -1.2,-0.4 -1.2,-0.1 -1.2,0.1 -1.1,0.3 -1,0.6 -0.8,0.7 -0.5,0.9 -0.1,0.5 m 2.9,26.6 -2.5,-0.3 -2.4,-0.5 -2.4,-0.7 -2.2,-1 -2,-1.2 -1.9,-1.3 -1.6,-1.5 -1.3,-1.7 -1.1,-1.7 -0.8,-1.9 -0.5,-1.9 -0.1,-1.9 v -0.1 m 41.2,0 -0.1,0.8 -0.3,1.9 -0.5,1.9 -0.9,1.9 -1.2,1.7 -1.5,1.6 -1.7,1.4 -1.9,1.3 -2.1,1.1 -2.3,0.9 -2.3,0.6 -2.5,0.5 -2.5,0.1 h -2.6 m -37.8,57.7 v 8 m 0,0 v 0 h 0.2 0.4 0.4 0.6 0.6 0.7 0.7 m 0,-8 h -0.7 -0.7 -0.6 -0.6 -0.4 -0.4 -0.2 m 58.1,0 h -37.1 m 54.6,8 h -72 m 72,-8 h -17.5 m -37.1,0 h -17.4 m 17.1,-0.1 v 0 0.1 m 0,-0.1 v -0.8 l 0.2,-0.8 0.2,-0.8 0.2,-0.8 m 37.2,3.3 v -0.1 m -0.7,-3.2 0.2,0.8 0.2,0.8 0.2,0.8 0.1,0.8 m 20.7,8.1 v -8 m 0,0 h -0.1 -0.2 -0.3 -0.5 -0.5 -0.7 -0.6 -0.7 m 0,8 h 0.7 0.6 0.7 0.5 0.5 0.3 0.2 0.1 m -57.4,-30.4 -1.1,22.3 m 37.8,0 -1.2,-22.3"
       style="fill:none;stroke:#000000;stroke-width:0.709;stroke-linecap:round;stroke-linejoin:round;stroke-miterlimit:10;stroke-dasharray:none;stroke-opacity:1"
       id="path43584" /></g><g
     id="g43586"
     transform="matrix(0.35277777,0,0,-0.35277776,50.943835,36.136628)"><path
       d="M 0,0 H -8.504"
       style="fill:none;stroke:#000000;stroke-width:0.709;stroke-linecap:round;stroke-linejoin:round;stroke-miterlimit:10;stroke-dasharray:18, 3.6, 3.6, 3.6, 3.6, 3.6;stroke-dashoffset:0;stroke-opacity:1"
       id="path43588" /></g><g
     id="g43590"
     transform="matrix(0.35277777,0,0,-0.35277776,19.943835,36.136628)"><path
       d="M 0,0 H -6.024"
       style="fill:none;stroke:#000000;stroke-width:0.709;stroke-linecap:round;stroke-linejoin:round;stroke-miterlimit:10;stroke-dasharray:18, 3.6, 3.6, 3.6, 3.6, 3.6;stroke-dashoffset:0;stroke-opacity:1"
       id="path43592" /></g><g
     id="g43594"
     transform="matrix(0.35277777,0,0,-0.35277776,14.318865,36.136628)"><path
       d="M 0,0 H -14.173"
       style="fill:none;stroke:#000000;stroke-width:0.709;stroke-linecap:round;stroke-linejoin:round;stroke-miterlimit:10;stroke-dasharray:18, 3.6, 3.6, 3.6, 3.6, 3.6;stroke-dashoffset:0;stroke-opacity:1"
       id="path43596" /></g><g
     id="g43598"
     transform="matrix(0.35277777,0,0,-0.35277776,8.818845,36.136628)"><path
       d="M 0,0 H -13.606"
       style="fill:none;stroke:#000000;stroke-width:0.709;stroke-linecap:round;stroke-linejoin:round;stroke-miterlimit:10;stroke-dasharray:18, 3.6, 3.6, 3.6, 3.6, 3.6;stroke-dashoffset:0;stroke-opacity:1"
       id="path43600" /></g><text
     xml:space="preserve"
     style="font-style:normal;font-variant:normal;font-weight:normal;font-stretch:normal;font-size:7.05556px;line-height:1.25;font-family:Bahnschrift;-inkscape-font-specification:'Bahnschrift, Normal';font-variant-ligatures:normal;font-variant-caps:normal;font-variant-numeric:normal;font-variant-east-asian:normal;letter-spacing:0px;word-spacing:0px;stroke-width:0.264583"
     x="-0.31005839"
     y="7.7219558"
     id="text44011"><tspan
       sodipodi:role="line"
       style="font-style:normal;font-variant:normal;font-weight:normal;font-stretch:normal;font-size:7.05556px;font-family:Bahnschrift;-inkscape-font-specification:'Bahnschrift, Normal';font-variant-ligatures:normal;font-variant-caps:normal;font-variant-numeric:normal;font-variant-east-asian:normal;stroke-width:0.264583"
       x="-0.31005839"
       y="7.7219558"
       id="tspan44021">12</tspan></text><text
     xml:space="preserve"
     style="font-style:normal;font-variant:normal;font-weight:normal;font-stretch:normal;font-size:7.05556px;line-height:1.25;font-family:Bahnschrift;-inkscape-font-specification:'Bahnschrift, Normal';font-variant-ligatures:normal;font-variant-caps:normal;font-variant-numeric:normal;font-variant-east-asian:normal;letter-spacing:0px;word-spacing:0px;stroke-width:0.264583"
     x="8.9555311"
     y="72.742714"
     id="text44027"><tspan
       sodipodi:role="line"
       id="tspan44025"
       style="font-style:normal;font-variant:normal;font-weight:normal;font-stretch:normal;font-size:7.05556px;font-family:Bahnschrift;-inkscape-font-specification:'Bahnschrift, Normal';font-variant-ligatures:normal;font-variant-caps:normal;font-variant-numeric:normal;font-variant-east-asian:normal;stroke-width:0.264583"
       x="8.9555311"
       y="72.742714">14</tspan></text><text
     xml:space="preserve"
     style="font-style:normal;font-variant:normal;font-weight:normal;font-stretch:normal;font-size:7.05556px;line-height:1.25;font-family:Bahnschrift;-inkscape-font-specification:'Bahnschrift, Normal';font-variant-ligatures:normal;font-variant-caps:normal;font-variant-numeric:normal;font-variant-east-asian:normal;letter-spacing:0px;word-spacing:0px;stroke-width:0.264583"
     x="48.652378"
     y="76.710335"
     id="text44031"><tspan
       sodipodi:role="line"
       id="tspan44029"
       style="font-style:normal;font-variant:normal;font-weight:normal;font-stretch:normal;font-size:7.05556px;font-family:Bahnschrift;-inkscape-font-specification:'Bahnschrift, Normal';font-variant-ligatures:normal;font-variant-caps:normal;font-variant-numeric:normal;font-variant-east-asian:normal;stroke-width:0.264583"
       x="48.652378"
       y="76.710335">10</tspan></text><text
     xml:space="preserve"
     style="font-style:normal;font-variant:normal;font-weight:normal;font-stretch:normal;font-size:7.05556px;line-height:1.25;font-family:Bahnschrift;-inkscape-font-specification:'Bahnschrift, Normal';font-variant-ligatures:normal;font-variant-caps:normal;font-variant-numeric:normal;font-variant-east-asian:normal;letter-spacing:0px;word-spacing:0px;stroke-width:0.264583"
     x="68.086884"
     y="65.309265"
     id="text44035"><tspan
       sodipodi:role="line"
       id="tspan44033"
       style="font-style:normal;font-variant:normal;font-weight:normal;font-stretch:normal;font-size:7.05556px;font-family:Bahnschrift;-inkscape-font-specification:'Bahnschrift, Normal';font-variant-ligatures:normal;font-variant-caps:normal;font-variant-numeric:normal;font-variant-east-asian:normal;stroke-width:0.264583"
       x="68.086884"
       y="65.309265">13</tspan></text><text
     xml:space="preserve"
     style="font-style:normal;font-variant:normal;font-weight:normal;font-stretch:normal;font-size:7.05556px;line-height:1.25;font-family:Bahnschrift;-inkscape-font-specification:'Bahnschrift, Normal';font-variant-ligatures:normal;font-variant-caps:normal;font-variant-numeric:normal;font-variant-east-asian:normal;letter-spacing:0px;word-spacing:0px;stroke-width:0.264583"
     x="66.854774"
     y="5.009172"
     id="text44039"><tspan
       sodipodi:role="line"
       id="tspan44037"
       style="font-style:normal;font-variant:normal;font-weight:normal;font-stretch:normal;font-size:7.05556px;font-family:Bahnschrift;-inkscape-font-specification:'Bahnschrift, Normal';font-variant-ligatures:normal;font-variant-caps:normal;font-variant-numeric:normal;font-variant-east-asian:normal;stroke-width:0.264583"
       x="66.854774"
       y="5.009172">11</tspan></text></svg>
