<?xml version="1.0" encoding="UTF-8" standalone="no"?>
<!-- Created with Inkscape (http://www.inkscape.org/) -->

<svg
   width="179.77864mm"
   height="183.16353mm"
   viewBox="0 0 179.77864 183.16353"
   version="1.1"
   id="svg5"
   inkscape:version="1.1.2 (0a00cf5339, 2022-02-04, custom)"
   sodipodi:docname="Drivetrain - Truck2.svg"
   xmlns:inkscape="http://www.inkscape.org/namespaces/inkscape"
   xmlns:sodipodi="http://sodipodi.sourceforge.net/DTD/sodipodi-0.dtd"
   xmlns="http://www.w3.org/2000/svg"
   xmlns:svg="http://www.w3.org/2000/svg">
  <sodipodi:namedview
     id="namedview7"
     pagecolor="#505050"
     bordercolor="#eeeeee"
     borderopacity="1"
     inkscape:pageshadow="0"
     inkscape:pageopacity="0"
     inkscape:pagecheckerboard="0"
     inkscape:document-units="mm"
     showgrid="false"
     inkscape:zoom="0.37014941"
     inkscape:cx="371.47162"
     inkscape:cy="67.540294"
     inkscape:window-width="1920"
     inkscape:window-height="1017"
     inkscape:window-x="-8"
     inkscape:window-y="-8"
     inkscape:window-maximized="1"
     inkscape:current-layer="layer1" />
  <defs
     id="defs2" />
  <g
     inkscape:label="Ebene 1"
     inkscape:groupmode="layer"
     id="layer1"
     transform="translate(75.920914,-13.501451)">
    <g
       id="g7135">
      <g
         id="g852"
         transform="matrix(0.35277777,0,0,-0.35277777,66.938032,50.207862)">
        <path
           d="M 0,0 8.5,-4.4 5.9,-7.5 0,0 m 0,0 8.3,-6.7 6.8,-5 5.8,-3.1 5,-1.3 4.7,0.1 5,0.9 5.6,1 7,-0.1 4.5,-0.9 5.2,-1.8 5.9,-2.9 6.9,-4.4 7.8,-6 m -140,-86.1 9.3,2.1 v -4 l -9.3,1.9 m 0,0 14.3,0.2 11.6,0.7 9.3,1.7 7.3,2.8 6.1,4 5.5,5.1 3.8,3.9 4.3,4.1 5,4.3 6.2,4 7.7,3.7 9.6,3 11.9,2.1 m -137.3,-88 9.3,-2.2 -1.7,-3.7 -7.6,5.9 m 0,0 11.1,-5.2 9.5,-3.5 8.2,-1.5 7.4,0.7 6.9,2.8 6.7,4.8 6.9,6.3 7.5,6.9 8.2,6.7 5.5,3.5 6,2.6 6.5,1.4 H 1.3 L 9,-141 m 11.7,-114.9 0.3,9.6 3.9,-1 -4.2,-8.6 m 0,0 2.6,9.9 2.7,7.9 3.3,6.3 4.1,5 4.9,4.4 4.6,3.6 4.6,4.1 4.3,4.9 2.8,4.6 2,5.7 1.1,7 -0.3,8.6 m -263.1,-133.3 9,3.3 0.6,-4 -9.6,0.7 m 0,0 10.8,1.5 8.9,0.8 7.1,0.1 5.8,-0.8 5,-1.6 4.5,-2.2 3.7,-1.9 4.2,-1.8 4.9,-1.4 6.1,-0.7 7.6,0.3 9.7,1.8 m -116.3,-51.3 6.9,6.6 2.2,-3.5 -9.1,-3.1 m 0,0 10,6 8.7,4.5 8,3 7.9,1.4 8.2,0.1 8.7,-1 8.9,-1.7 9.6,-1.9 10.3,-1.7 10.8,-0.8 11,0.8 m -147.8,-40.3 9.5,-1.1 -1.3,-3.9 -8.2,5 m 0,0 12.9,-4.2 10.7,-2.7 9.3,-0.7 8.3,1.2 7.9,2.9 9.8,4.9 10.5,4.8 5.5,1.6 5.9,0.4 6.3,-1 6.5,-3.1 m -97.6,311 -2.9,-9.1 -3.5,2.1 6.4,7 m 0,0 -4.9,-8.3 -4.6,-6.3 -4.6,-4.4 -5.1,-2.8 -5.6,-1.5 -7.6,-1.1 -7.8,-1.7 -3.7,-1.7 -3.2,-2.7 -2.7,-4 -1.8,-5.5 m -14.1,100.7 -0.1,-9.6 -4,0.9 4.1,8.7 m 0,0 -2,-8.2 -2.3,-6.7 -2.9,-5.6 -3.9,-5.2 -4.5,-5.3 -3,-3.8 -3,-4.2 -2.5,-4.9 -1.8,-5.8 -0.6,-6.7 0.9,-8"
           style="fill:none;stroke:#000000;stroke-width:0.51;stroke-linecap:butt;stroke-linejoin:miter;stroke-miterlimit:10;stroke-dasharray:none;stroke-opacity:1"
           id="path854" />
      </g>
      <g
         id="g856"
         transform="matrix(0.35277777,0,0,-0.35277777,66.938032,50.207862)">
        <path
           d="M 0,0 8.5,-4.4 5.9,-7.5 m -67.4,-108.8 9.3,2.1 v -4 m -44,-46.5 9.3,-2.2 -1.7,-3.7 m 109.3,-85.3 0.3,9.6 3.9,-1 m -230.6,-69.9 9,3.3 0.6,-4 m -47.6,-56.5 6.9,6.6 2.2,-3.5 m -54.8,-34.7 9.5,-1.1 -1.3,-3.9 m -12.2,320.1 -2.9,-9.1 -3.5,2.1 m -59.3,67.7 -0.1,-9.6 -4,0.9"
           style="fill:#000000;fill-opacity:1;fill-rule:nonzero;stroke:none"
           id="path858" />
      </g>
      <g
         id="g860"
         transform="matrix(0.35277777,0,0,-0.35277777,-23.866966,186.83869)">
        <path
           d="m 0,0 h -0.3 l -2.8,0.1 -3.3,0.7 -3.7,1.1 -4,1.6 -4.2,2 -4.4,2.4 -4.4,2.7 -4.4,3 -4.3,3.2 -4,3.3 -3.7,3.4 -3.4,3.5 -3,3.4 -2.4,3.2 -1.9,3.1 -1.3,2.8 -0.5,1.8 m 208,249.8 3.3,-3.2 3.6,-3.2 3.9,-3 4,-2.8 4.1,-2.6 4.1,-2.3 4,-1.9 3.7,-1.5 3.4,-1 3,-0.6 2.6,-0.1 2.1,0.5 1.4,0.9 0.9,1.3 0.3,1.6 m -50.8,37.2 -1,-0.4 -1.2,-1.2 -0.6,-1.6 v -1.9 l 0.7,-2.4 1.3,-2.6 1.9,-2.9 2.4,-3.1 2.9,-3.2 m 5.1,2.3 3,-2.9 3.3,-2.8 3.6,-2.7 3.6,-2.5 3.7,-2.2 3.6,-1.9 3.5,-1.4 3.1,-1 2.8,-0.6 h 2.3 l 1.7,0.4 1.3,0.9 0.6,1.4 -0.1,1.8 -0.6,2.1 -1.3,2.4 -1.8,2.7 -2.4,2.8 -2.7,2.9 -3.2,2.9 -3.5,2.7 -3.6,2.6 -3.7,2.4 -3.6,2 -3.6,1.7 -3.3,1.2 -2.9,0.8 -2.6,0.3 -2,-0.2 -1.5,-0.7 -0.9,-1.1 -0.3,-1.6 0.3,-2 1,-2.3 1.5,-2.5 2.1,-2.8 2.6,-2.8 m -20.4,-76.5 -4.1,2.2 -4.3,2.5 -4.2,2.8 -4.1,3.1 -3.9,3.2 -3.7,3.3 -3.2,3.3 -2.9,3.3 -2.3,3.1 -1.9,3 -1.2,2.7 -0.6,2.3 -0.1,2.1 0.6,1.6 0.8,0.9 m 56.4,-41.4 -0.9,-1.2 -1.5,-1 -2,-0.5 H 151 l -3,0.5 -3.5,0.9 -3.7,1.4 -4.1,1.9 m 16,27.2 -3.8,2.1 -3.9,2.3 -3.8,2.7 -3.7,2.8 -3.4,3 -3.1,3 -2.6,3 -2.2,2.8 -1.5,2.7 -1,2.3 -0.4,2.1 0.3,1.7 0.8,1.2 m 45.3,-33.2 -0.9,-1.2 -1.5,-0.8 -2.1,-0.2 -2.5,0.2 -3,0.7 -3.4,1.2 -3.6,1.6 m -26.9,26 -0.5,1.6 -0.2,1.9 0.5,1.4 1,1.1 1.7,0.6 h 2.2 l 1.6,-0.2 m 36.1,-26.5 0.7,-1.7 0.5,-2.1 -0.1,-1.7 -0.8,-1.2 -1.4,-0.8 -1.9,-0.4 -2.5,0.2 -2.9,0.7 -3.3,1.1 -3.5,1.6 m -16.4,-29.1 -4.2,2.2 -4.2,2.6 -4.3,2.8 -4.1,3 -3.9,3.3 -3.6,3.2 -3.3,3.4 -2.9,3.2 -2.3,3.2 -1.9,2.9 -1.2,2.7 -0.6,2.4 -0.1,2.1 0.6,1.6 0.1,0.1 m 56.6,-41.5 -0.3,-0.4 -1.5,-0.9 -2.1,-0.5 h -2.6 l -3,0.4 -3.4,1 -3.8,1.4 -4,1.8 m 13.9,35.2 -2.8,1.5 -2.8,1.8 -2.6,2 -2.4,2.2 -2,2.1 -1.6,2.1 -1,1.8 -0.4,1.6 0.2,1.2 0.8,0.7 1.4,0.3 1.9,-0.2 2.3,-0.7 2.6,-1.1 2.7,-1.5 2.8,-1.8 2.6,-2 2.4,-2.2 2.1,-2.1 1.5,-2.1 1,-1.9 0.4,-1.5 -0.2,-1.2 -0.8,-0.7 -1.4,-0.3 -1.9,0.2 -2.3,0.7 -2.5,1.1 m -15,14.5 0.4,0.4 1.2,0.4 1.8,-0.1 2.2,-0.7 2.5,-1 2.6,-1.5 2.7,-1.8 2.6,-2 2.2,-2.1 1.8,-2.1 1.3,-1.9 0.7,-1.7 0.1,-1.3 -0.2,-0.5 M 57,84.8 l 2.5,0.1 1.9,0.5 1.4,1.1 0.8,1.3 M 8.6,127.9 8,127.3 7.5,126.6 m 16.2,-11.9 v 0.2 l 0.7,0.8 v 0.1 m 22.8,-16.4 -0.3,-0.9 -1,-0.6 -1.5,-0.2 m 1.5,0.7 v 0 l 0.3,1.1 -0.4,1.5 -1,1.8 -1.5,2.1 -2.1,2.1 -2.4,2 -2.6,1.9 -2.7,1.7 -2.6,1.3 -2.4,0.8 -2,0.4 -1.5,-0.2 -0.9,-0.5 M -34.7,158 240.2,76.5 M 267.9,114.2 -7,195.8 m -0.4,1.1 274.9,-81.6 M 69.9,193.2 -47.7,228.1 m 184.1,-56 v -0.9 l -0.9,-1.7 -1.4,-1.3 m 136.1,-34.5 -117.6,34.9 m -67.1,20.2 v 0 l 0.3,-0.2 m -43.3,28.4 0.9,-2.3 0.8,-3.3 m -3.9,-6.7 0.4,0.7 0.6,2.4 m -2,10 0.3,0.3 0.4,0.2 0.4,0.1 0.4,0.1 h 0.4 m -3.4,-2.7 -6.5,-8.8 m 1.2,45.8 v -1.7 l 0.4,-4.1 0.7,-4.4 m -0.9,20.5 -0.2,-7.5 m 0.7,8.2 v 0 H 33.1 33 m 22.3,-6.6 -19.4,5.8 m 23,-7.1 -0.1,0.1 -0.1,0.1 -0.2,0.1 -0.1,0.1 h -0.2 m 15.5,-12.2 -12.1,9.7 m 69.1,-60.2 -4.1,4.1 -6.7,6.5 m 15.5,-15.2 -1.9,1.9 m -63.4,6.4 -1.2,1.5 -2.7,3.5 -2.1,3.3 -1.6,3.1 -0.9,2.8 -0.3,2.5 0.2,2 m 56.3,-22.7 1.6,-1.4 3.5,-3.7 3.2,-3.7 2.7,-3.5 m 4.7,-8.2 -0.3,-0.4 m -0.6,-3.2 0.8,1.6 0.2,2 m -6.3,5.1 -1.5,2.3 -2.7,3.5 -3.2,3.6 -3.6,3.6 -3.9,3.6 -4.3,3.6 -4.5,3.3 -4.6,3.2 -4.6,2.9 -4.6,2.6 -4.5,2.2 m 45.3,-41.4 0.2,-0.3 0.5,-0.1 m -9.5,6.9 2.4,-3.3 1.7,-3.2 1.2,-2.8 0.2,-0.6 m -65.3,44.6 1.7,0.5 2.6,0.2 3.2,-0.3 3.5,-0.8 3.9,-1.3 4.2,-1.7 4.4,-2 4.5,-2.5 4.6,-2.8 4.6,-3.1 4.5,-3.3 4.3,-3.4 4,-3.6 3.7,-3.6 3.3,-3.5 2.8,-3.5 m 12.1,-4.2 0.3,0.2 0.3,0.2 0.4,0.1 h 0.5 0.4 m -15.8,2.9 2.3,-3.3 1.8,-3.1 1,-2.5 m -62.7,42.4 0.8,0.3 2.5,0.3 h 0.5 m 50.9,-33.2 2.1,-3.2 1.6,-2.9 1,-2.6 0.1,-0.4 m -57.9,38 0.6,0.5 1.8,0.8 2.4,0.2 2.8,-0.2 1.1,-0.2 m 42.6,-30.8 2.1,-3 1.5,-2.8 0.7,-1.9 m -54.7,35.9 v 0 l 1.8,0.7 2.2,0.3 2.8,-0.2 3.1,-0.7 3.6,-1.1 3.8,-1.6 4,-1.9 4.1,-2.4 4.2,-2.6 4.1,-2.9 3.9,-3 3.7,-3.2 3.5,-3.3 3,-3.2 2.6,-3.1 m 17.1,-4.7 h -0.2 -0.4 l -0.4,-0.1 -0.3,-0.2 m -17.2,3 2,-3 1.2,-2 m -51.7,34.1 2.1,0.2 2.7,-0.2 3.2,-0.7 3.5,-1.1 3.9,-1.6 4,-2 4.1,-2.3 4.2,-2.6 4.1,-2.9 3.9,-3 3.7,-3.2 3.5,-3.3 3,-3.2 2.6,-3.2 m -1.8,-0.8 2,-2.9 0.1,-0.1 m -47.5,31 h 0.2 2.6 l 0.6,-0.1 m 38.8,-26.9 1.7,-2.4 m -41.5,26.3 1.1,0.2 2.3,-0.1 m -34.8,21.6 -1,2.2 -2,5.1 -1.7,4.9 m -3.2,22.2 0.3,0.2 0.4,0.2 0.4,0.1 h 0.4 0.4 m 76.5,-80.6 1.3,-1.8 m -39.8,25.1 0.3,0.1 h 2.3 l 2.7,-0.4 3.1,-1 3.4,-1.3 3.7,-1.8 3.7,-2.2 3.8,-2.4 3.7,-2.7 3.4,-2.8 3.2,-3 2.9,-2.9 2.3,-2.9 M 9.3,226 v -3 M 26.6,250.6 12.2,230.9 M 74,193 l 2.2,-0.4 2.9,-1 3.2,-1.4 2.4,-1.2 m 1.7,-1 2.7,-1.6 3.4,-2.4 3.3,-2.6 1.7,-1.4 M 9.2,226.9 9.1,226.6 9,226.3 m 124.6,-53.5 v 0.1 0.1 m 2.9,0.5 -0.2,0.1 m -3.1,-1.3 v 0.2 m 0.2,18.7 -0.1,0.1 h -0.2 M 29.5,255 l 0.2,7.6 m 0.4,0.8 0.3,0.2 0.3,0.2 0.4,0.1 0.5,0.1 0.4,-0.1 M 9.5,235 9.3,227.5 m 17.6,31.7 -14.5,-19.8 m -2.9,-4 -0.1,-0.2 -0.2,-0.4 m 20.6,28.3 v 0.1 0.1 m 3,0.9 v -0.1 L 33.1,264 M 9.6,235.8 v -0.1 -0.2 m 47.9,21.3 v 0 l 0.3,-0.1 m -19.4,12.3 -0.6,0.8 -1.9,1.4 -2.4,0.9 -2.8,0.3 -3,-0.3 -3.2,-0.8 -3.2,-1.4 -3.1,-1.9 -2.9,-2.2 -2.5,-2.6 -2,-2.8 -1.5,-2.8 -0.9,-2.9 -0.2,-2.7 0.4,-2.4 1,-2.1 0.1,-0.2 m 49.5,8.5 v 0.1 l -0.1,-0.1 m 254.7,207.6 -13.4,7.8 m 3,3.6 11,-6.4 m -2.8,14.4 -8.2,4.8 m -3.5,2 -0.5,0.3 m 23.8,-20.2 -0.7,0.9 m -1.6,2.1 -5.1,6.8 m 1.2,-12.2 5.9,2.1 m -29.4,16.8 6.7,-8.8 m -1.3,12.4 -6,-2.1 m 3.6,-13.3 -8.2,10.8 m 15,-9 -0.3,-0.4 m 2.8,1.3 -0.3,-0.4 M 324.3,464.6 317,462 m -2,7.4 -0.3,-0.4 m -2.9,4.6 -0.3,-0.4 m -16.4,13.1 -0.3,-0.4 m 5.9,-2.9 -0.2,-0.4 m 15.4,-8.5 -0.3,-0.4 m 6,-2.9 -0.3,-0.4 m -18,14.5 -0.3,-0.4 m -2.9,4.6 -0.3,-0.4 m 12.6,-9.2 -0.3,-0.4 m 2.8,1.3 -0.3,-0.4 m -318,-144.6 -1.2,1.4 -2.4,1.6 -2.8,1 -3.2,0.5 -3.6,-0.1 -3.7,-0.7 -3.8,-1.3 -3.8,-1.8 -3.6,-2.2 -3.4,-2.7 -3,-3 -2.6,-3.2 -2,-3.4 -1.5,-3.4 -0.8,-3.3 -0.2,-3.2 0.5,-2.9 1.2,-2.5 0.5,-0.7 m 20.7,-9.5 h 0.9 l 3.1,0.4 3.2,1 3.2,1.5 3,1.9 2.8,2.4 2.4,2.6 1.9,2.8 1.4,2.9 0.4,1.4 m 114.8,107.5 0.4,11 m -30.2,-52.5 3.1,39 m -11.5,-58.2 6.7,9.8 M 52.1,365.2 73,359 m -30.2,22.1 5.3,-12.4 M 42,431.5 41.8,391.9 m -25.2,68.8 -0.4,-11 m 31.6,-55.2 0.8,48.8 m -0.9,-60.9 v -0.1 l 0.2,-1.9 0.5,-1.9 0.5,-1.7 0.7,-1.5 0.9,-1.1 m 20.6,-6.9 -16.5,4.9 m 19.9,-5.6 0.8,0.2 0.9,0.7 0.8,1 0.7,1.3 m 5,63.5 -3.2,-48.4 M 6,449.8 l 0.4,11 m -151.3,-39.3 -0.1,-10.9 m 110.2,-5.6 0.1,-3.8 m -0.3,5.9 v 0.1 l -0.3,1.2 -0.6,1.1 -0.7,0.9 -0.8,0.6 m -23,-4.8 17.5,4.6 m -20.5,-5.4 -0.8,-0.3 -1.1,-0.9 m -25.8,-36.8 20.8,29.8 m -48.2,-3.2 20.1,-28 m 135.1,26 0.2,39.6 m -23.6,-81.4 19.5,28 M -29.4,393.8 4.2,351.4 M 27.5,338 43,360.2 m -29.7,-18.5 9.2,-6.6 m 12.2,41.5 -19.6,-28.1 m 29.8,18.6 -5.3,12.4 m -1.4,2.8 -0.2,0.2 -0.3,0.2 -0.2,0.2 -0.3,0.2 -0.2,0.2 m -26,-40 -0.2,0.2 -0.3,0.2 -0.2,0.2 -0.2,0.2 -0.3,0.2 m 29.2,38 0.4,0.1 0.5,0.2 0.4,0.2 0.4,0.2 0.4,0.2 m 5.4,-18.5 0.4,0.1 0.4,0.2 0.5,0.2 0.4,0.2 0.4,0.3 m -7.5,18.1 h -0.5 l -0.7,0.1 h -0.7 -0.7 -0.7 m 8.5,-19.6 0.3,-0.2 0.3,-0.2 0.3,-0.1 0.3,-0.1 0.2,-0.2 m -2.4,-4.4 -15.5,-22.2 m -5,-3.4 0.3,-0.2 0.3,-0.1 0.3,-0.2 0.3,-0.1 0.3,-0.1 m 45.7,23.5 -20.9,6.2 m 3.8,-32.9 16.6,21.6 m -42,-19.4 19.4,-5.8 m -0.4,37.7 0.1,0.3 0.2,0.3 0.1,0.4 0.1,0.3 0.1,0.4 m -0.5,18.4 v 0.1 m 2.9,-8.7 -0.3,0.2 m 0.7,-0.5 0.1,-0.3 0.1,-0.2 0.1,-0.3 v -0.3 m 22.9,-18 0.1,0.3 0.2,0.3 0.1,0.4 0.1,0.3 0.1,0.4 m -25.8,19.9 1.6,-2 m 2.5,-1 16.5,-4.9 m 2.8,-2.6 v 0.3 0.3 l -0.1,0.3 -0.1,0.3 m -50,-36.2 v 0 l 0.2,0.2 m -12.2,10.7 -0.1,-0.2 -0.4,-0.5 m 45.4,48.7 -6.4,1.9 m 21.3,-21.4 -12.3,16.8 m -93.8,9.8 v 0 l -0.1,0.5 v 0.5 M 9,342.2 H 8.9 l -0.1,0.4 v 0.5 m 17.7,-10.8 -0.1,-0.2 -0.5,-0.4 -0.5,-0.3 m 23.8,-7.5 0.5,0.1 0.5,0.1 0.5,0.3 m 24.3,31.1 0.1,-0.1 h 0.2 M 51.7,325.2 h 0.1 l 0.2,-0.1 m 21.9,49.4 0.1,-0.5 0.1,-1.3 v -1.2 l -0.1,-1 m 4.3,4.8 -0.6,0.1 -0.7,0.1 -0.7,0.1 H 75.6 75 m 1.3,-19.7 0.1,0.2 v 0.3 0.3 l -0.1,0.4 m 8.7,11.6 0.1,0.2 0.1,0.3 v 0.3 l -0.1,0.4 m -22.4,20.6 9.7,-13.1 m -11.6,14.5 -0.5,-0.4 -0.5,-0.4 -0.6,-0.3 -0.7,-0.3 -0.6,-0.1 m -8.3,4.2 5.8,-1.8 m 0.8,-0.5 0.1,-0.3 v -0.3 l 0.1,-0.3 0.1,-0.2 m 0.1,44.8 -6.2,1.8 m 6,-39 0.8,30.8 m 17.2,-44.8 3.1,45.8 m -15.2,-1 -0.8,-31 m 14.8,40.8 -12,-3.1 m 21.2,-66.1 v 0.2 m -29.4,68 0.2,-0.1 0.3,-0.3 0.4,-0.4 0.2,-0.6 m 3.5,-44.7 -0.6,-0.1 H 59.4 58.7 58 l -0.6,0.1 m 6.4,46 H 63.6 L 63.3,438 63,437.6 62.7,437.1 M 58,435.6 h 0.6 l 0.6,-0.1 h 0.7 l 0.7,0.1 h 0.7 m -96.1,-35.2 -0.3,-0.1 m -0.9,4.9 0.1,0.2 m -1,2.1 h -0.1 -0.4 m -2.9,3.2 0.2,-0.6 0.2,-0.6 0.3,-0.6 0.4,-0.5 0.4,-0.4 m 2.2,-0.9 -1.1,0.3 m -2.7,-0.6 -17.5,-4.6 m -5,2.7 0.2,-0.6 0.2,-0.7 0.3,-0.6 0.4,-0.5 0.4,-0.4 m 4,-1.5 23,-6.8 m -31.4,8.8 0.4,-0.4 0.5,-0.4 0.6,-0.4 0.5,-0.4 0.6,-0.3 m -3,-6.2 -20.8,-29.8 m -7.7,-3.6 0.4,-0.4 0.5,-0.4 0.6,-0.4 0.5,-0.4 0.6,-0.3 m 30.5,-19.5 11.9,5.1 m -36.7,0.5 19.7,-5.9 m -24.1,18.1 1.6,-10.1 m 56.2,44.3 -25.6,7.6 m 15,-48.6 18.8,24.4 m -35.9,26.4 -0.2,-0.1 -0.5,-0.3 m -30.4,-42.5 -0.6,-0.2 h -0.7 -0.7 l -0.6,0.2 -0.6,0.2 m 1.6,-12.4 0.4,-0.3 0.6,-0.3 0.6,-0.1 0.7,-0.1 0.7,0.1 m -3.7,2.4 -1.6,10.2 m -0.2,1.5 v 0 0.2 l 0.1,0.3 0.1,0.2 0.1,0.3 m -3.1,2.7 -18,24.9 m 10.4,-25.3 10.8,-14.2 m -22.3,39.4 8.2,-19 m 15.7,-22.6 0.1,-0.1 m 4.5,-0.9 -0.2,-0.1 -0.4,-0.4 -0.5,-0.3 m 24.1,-7.6 h 0.4 l 0.5,0.2 0.5,0.2 m -43,27.5 0.1,-0.2 m 60.6,-19.2 0.3,-0.1 m -61,19.6 h -0.1 m 60.5,-20.5 h 0.1 m -16.6,-6.3 0.1,-0.3"
           style="fill:none;stroke:#000000;stroke-width:0.51;stroke-linecap:round;stroke-linejoin:round;stroke-miterlimit:10;stroke-dasharray:none;stroke-opacity:1"
           id="path862" />
      </g>
      <g
         id="g864"
         transform="matrix(0.35277777,0,0,-0.35277777,-48.173355,188.81425)">
        <path
           d="m 0,0 -0.2,-1.2 0.1,-1.7 0.5,-1.8 1,-2.1 1.8,-2.4 2.1,-2.3 2.4,-2.2 2.6,-2.1 2.7,-1.8 2.7,-1.6 2.8,-1.3 2.7,-0.9 2.7,-0.5 2,0.1 1.8,0.6 1.5,1 m -26.1,15 v 0 m 19.4,-14.2 1.3,-0.5 M 19.7,17.6 18.5,18 M 39.2,3.3 v 0 m 29.6,2.3 h 0.3 l 3.1,0.5 3,1 2.7,1.4 2.4,2 1.7,2 m -66.3,48.7 -0.8,-1.1 -1.4,-2.9 -0.8,-2.9 -0.3,-3 0.2,-3 0.4,-1.6 m 0,-0.1 0.1,-0.4 1,-3 1.7,-3.3 2.3,-3.5 2.8,-3.4 3,-3.4 3.4,-3.2 3.7,-3.2 3.9,-3.1 4,-2.9 4.1,-2.6 4.1,-2.4 4.1,-2.1 4,-1.8 L 59.1,7 63,6 66.8,5.5 68.6,5.6 m 146.1,310.4 -2.2,-0.8 -2.7,-1.6 -2.4,-2.1 -1.4,-1.7 m 55.9,-41 1.5,2.2 1.2,3 0.6,3 v 2 m 0.1,0 v 0.4 l -0.3,2.4 -0.8,2.6 -1.4,3 -2.1,3.2 -2.5,3.2 -2.9,3.1 -3.2,3.1 -3.4,2.9 -3.6,2.7 -3.7,2.5 -3.8,2.3 -3.8,2 -3.7,1.7 -3.7,1.3 -3.6,0.9 -3.7,0.4 -2.8,-0.2 -1.4,-0.4 m 12,-95.6 11.7,27.7 m -45.3,33.2 -22.8,-19.5 m 29.6,20.6 -1.3,0.2 -2.4,-0.1 -1.9,-0.5 -0.7,-0.5 m 44.7,-33.5 0.4,1.2 v 1.8 l -0.5,2.1 -0.7,1.6 m -67.1,7.1 -0.3,-0.2 -0.7,-0.9 m 56.5,-41.4 0.7,1 0.1,0.3 m -8.5,-11.9 7.9,10.7 m -56.6,41.5 -7.9,-10.7 m 64.4,5.7 v 0 l -0.2,-0.2 -0.7,-0.1 -1.3,0.1 -1.8,0.5 -2.2,0.9 -0.8,0.4 m 0,0 -1.3,0.6 -2.5,1.5 -2.5,1.8 -2.3,1.9 -2.1,1.9 -1.7,1.9 -1.3,1.8 -0.8,1.4 -0.3,1 v 0.5 h 0.1 M 109.1,60 l 23,31.3 m -56.3,41.3 -23,-31.3 m 60.3,2.2 h -0.2 m 1.8,0.4 v 0 l -0.6,-0.3 -1,-0.1 m -20.2,16 0.1,0.5 m -168.4,110.6 -0.2,-0.5 m -1.2,-3.8 v -0.5 m 81.8,-9.9 -70.5,21 m -6.4,-21.8 70.5,-20.9 M -3.6,174.8 346.4,71 M 154.3,194.4 4.5,238.9 m 104.3,-29.2 -0.2,-0.3 -1.2,-1 m 94.1,-33.6 -0.3,-0.4 -0.9,-0.6 -1.4,-0.4 -2,-0.2 -2.5,0.2 -3,0.5 -3.4,0.9 -2.1,0.8 m -43,23.3 -2.8,3 -2.7,3.3 -2.3,3.1 -1.7,2.9 -1.3,2.6 -0.7,2.2 -0.3,1.8 0.1,1.3 0.4,1 m 12.8,-22.7 -1.2,1.1 -0.3,0.4 m 12.2,-4.9 -0.1,0.1 -0.1,0.1 h -0.1 l -0.1,0.1 h -0.1 l -0.1,0.1 h -0.1 -0.1 m -76.5,37.1 v -2.7 l 0.4,-5.5 1,-5.8 0.2,-0.9 m 125.5,-37.2 -0.4,0.1 h -0.3 -0.3 l -0.3,-0.1 -0.3,-0.1 -0.3,-0.2 -0.3,-0.2 -0.2,-0.3 m -0.4,-0.5 v 0 l -0.4,-0.6 -0.3,-0.3 -0.2,-0.1 M 354.6,135 204.9,179.4 m -2.4,-0.8 -0.4,-0.5 m 2.9,16.1 -2.1,2 -0.6,0.6 m 0,0 -4.4,4.4 -8.7,8.3 -4.4,4.1 m -106.7,26.5 -0.3,-8.6 m 23.6,38.3 -0.7,0.1 -0.7,-0.1 -0.6,-0.3 -0.6,-0.4 m -0.1,-0.2 -20.2,-27.5 m 47.8,21 -24.7,7.4 m 12.2,-3.6 -6.5,8.4 m -28.7,-21.7 4.3,-5.6 m -4.3,-5.9 -0.4,-0.6 -0.1,-0.5 V 240 m 67.2,7.7 -17.2,13.7 m -20.8,13.2 -2.5,2.8 -3.1,2.1 -3.5,1.5 -3.7,0.7 -3.7,-0.1 -3.7,-0.8 -3.4,-1.6 -3,-2.3 -2.5,-2.8 -1.8,-3.3 -1.1,-3.6 -0.3,-3.8 0.5,-3.7 1.2,-3.6 1.9,-3.2 m 49.5,8.5 -0.5,0.3 -0.5,0.4 -0.5,0.2 -0.3,0.1 M 367.9,84.6 419.1,69.4 m 6.5,21.8 -51.2,15.2 m 54.6,-30.7 0.3,0.5 m 1.1,3.8 0.1,0.5 m -59.9,402.7 -0.4,-0.5 m 15,-9 0.4,0.5 m -32.3,0.2 -96.6,-131.7 m 21.3,-15.6 96.2,131.2 m 0.2,24 0.4,0.6 m -9.2,13.6 -8,-3 m 23,-13.8 -0.4,-0.6 m -17.1,14 -0.4,-0.6 m 7.4,-4.6 0.4,0.6 m 13.5,-7.6 -0.4,-0.6 m 7.4,-4.5 0.4,0.5 m 2.1,-2.3 -9.5,12.6 m -10.6,2.5 0.4,0.6 m 10.1,-3.1 -0.4,0.3 m -1,0.6 -12.3,7.1 m -1,0.6 -1.8,1.1 m 12.3,-9.8 -0.4,-0.5 m -10.4,9.2 -0.4,-0.6 m 15,-9 0.4,0.6 M 256.5,341 l 0.6,-2.6 m 16.7,-12.3 2.7,0.3 M 83,317.9 65.5,341 M 26.1,311.1 43.6,288 m -10.6,49.4 -1.4,-1.2 -2.6,-3 -2.2,-3.2 -1.7,-3.3 -1.1,-3.4 -0.5,-3.4 0.2,-3.2 0.8,-2.9 1.5,-2.6 0.4,-0.5 m 16.3,33.1 -1.3,-0.6 -3.5,-1.9 -3.3,-2.4 -1.6,-1.5 m 32.7,3.3 -0.1,0.1 -1.9,2.1 -2.4,1.6 -2.7,1.1 -3.1,0.6 -3.3,0.1 -3.6,-0.5 -3.6,-1 -2.3,-1 m 74.8,45.6 1.2,68 m 0.8,-75.8 -0.3,0.4 -0.4,0.8 -0.6,1.4 -0.5,2.2 -0.2,2.5 v 0.5 M 78.8,346.8 92,337.5 M 33.9,403.3 78,347.5 m 0,0 0.1,-0.1 0.1,-0.1 h 0.1 l 0.1,-0.1 0.1,-0.1 0.1,-0.1 0.1,-0.1 0.1,-0.1 m 13.2,-9.3 0.1,-0.1 0.1,-0.1 0.1,-0.1 h 0.2 l 0.1,-0.1 0.1,-0.1 h 0.2 0.1 m 0,0 24.8,-7.4 m 3.8,1.3 23.3,30.2 m 0.2,0.2 8.7,12.7 m -8.9,-12.9 h 0.1 v 0.1 h 0.1 v 0.1 m 9.3,14.5 4.4,54.9 m -5,-56.7 0.1,0.2 0.2,0.2 v 0.3 l 0.1,0.2 0.1,0.2 0.1,0.2 v 0.3 0.2 m -36.6,-46.2 0.5,-0.1 h 0.5 0.6 l 0.5,0.1 0.5,0.2 0.5,0.3 0.4,0.4 0.3,0.4 m 3.1,113.2 -6.2,1.9 m 32.6,2.8 -18.1,-4.7 m 0,0 -0.7,-0.2 -1.3,-0.2 -1.8,-0.1 -1.9,0.1 -1.6,0.2 -1,0.2 M 33.1,405.4 v -0.3 l 0.1,-0.3 v -0.3 l 0.1,-0.2 0.1,-0.3 0.2,-0.3 0.1,-0.2 0.2,-0.2 m -1,7.4 0.2,-5.3 m -1,7.6 v 0 l 0.3,-0.3 0.3,-0.6 0.2,-1 v -0.4 m 152.8,11.6 0.7,15.5 m -264.7,-9.9 v -15.3 m 53.6,-60.9 0.2,-0.2 0.2,-0.2 0.2,-0.2 0.2,-0.2 0.3,-0.2 0.2,-0.1 0.3,-0.1 0.3,-0.1 m 0,0 25,-7.4 m -40.9,27.1 14,-18.4 m 47.5,-0.2 25.7,33.3 M -51.6,400 -39.1,370.9 m 43.8,-27.8 16.6,7.3 m -60.4,20.5 v -0.1 l 0.1,-0.1 v -0.1 l 0.1,-0.1 v -0.1 l 0.1,-0.1 0.1,-0.1 v -0.1 M 2.2,343 l 0.3,-0.1 0.3,-0.1 h 0.4 0.3 l 0.3,0.1 h 0.3 l 0.3,0.1 0.3,0.1 m 16.6,7.3 0.3,0.1 0.2,0.1 0.1,0.1 0.2,0.1 0.2,0.2 0.2,0.1 0.1,0.2 0.2,0.2 m 5,-352.2 -4.2,2.1 -5.1,2 M 35.7,-6.8 32,-3.5 27.8,-0.7 m -2.2,-19.8 10.1,13.7 m -19.4,-9.6 4.1,-2.2 5.2,-1.9 m -17.2,10.2 3.7,-3.3 4.2,-2.8 M 8.4,-10.3 18.5,3.4 M 28.8,1.4 29.7,1 30.5,0.6 31.3,0.3 32,0.1 l 0.7,-0.2 0.7,-0.2 h 0.6 0.5 m 0,0 1,0.2 0.6,0.5 0.1,0.8 L 36,2.3 35.3,3.6 34.3,5 33,6.5 31.4,8 m 0,0 -2.4,1.9 -2.5,1.7 -2.5,1.3 -2.2,0.9 -1.9,0.4 -1.4,-0.1 -0.8,-0.7 -0.1,-1.2 m 0,0 0.4,-1.1 0.8,-1.3 1.1,-1.5 1.5,-1.5 1.7,-1.5 1.8,-1.5 2,-1.3 1.9,-1.1 m 11.4,-5.9 0.8,0.4 0.5,0.6 0.3,0.7 v 0.9 l -0.2,1.1 -0.5,1.2 -0.8,1.3 -0.9,1.4 m -11.6,-3.8 1.9,-1.1 1.9,-0.9 1.8,-0.8 1.7,-0.6 1.6,-0.4 1.4,-0.2 h 1.2 l 0.9,0.2 M 14.4,10.7 15.6,9.3 17,7.8 18.5,6.2 20.2,4.7 22,3.2 l 1.9,-1.4 1.9,-1.3 2,-1.2 M 13.5,18.4 12.8,18 12.3,17.4 12,16.7 v -1 l 0.2,-1 0.5,-1.2 0.8,-1.4 0.9,-1.4 m 11.6,3.9 -1.9,1.1 -1.9,0.9 -1.8,0.8 -1.7,0.6 -1.6,0.4 -1.4,0.2 h -1.2 l -1,-0.2 M 39.4,3.1 38.2,4.6 36.8,6.1 35.3,7.6 33.6,9.1 31.8,10.6 29.9,12 28,13.4 26,14.6 M 18.5,3.4 17,6.5 14.4,10.7 M 40.2,-4.5 38.3,-5.3 35.7,-6.8 M 14.4,10.7 10.5,14.9 9,16.1 M 2.9,-5 6,-8.4 8.4,-10.3 M -1.1,2.4 -0.2,0.4 2.9,-5 M -1.1,2.4 9,16.1 M 2.9,-5 4.1,-6.4 5.5,-8 7,-9.5 8.7,-11 l 1.8,-1.5 1.9,-1.4 1.9,-1.3 2,-1.2 m 0,0 1.9,-1.1 1.9,-0.9 1.8,-0.8 0.6,-0.2 m -4,30.2 1.6,-0.4 3,-1.1 3.3,-1.6 3.2,-1.8 2.9,-1.9 2.1,-1.8 0.8,-1 M 28,5.7 24.7,7.5 21.4,9.1 18.9,9.9 M 35.1,-0.7 35.3,-0.4 34.5,0.8 32.7,2.5 30,4.4 28,5.7 M 33.7,3.5 34.6,2.5 35.4,1 35.3,0 34.5,-0.3 M 18.4,11.1 h 0.4 l 1,-0.1 1.3,-0.3 m 0,0 1.5,-0.5 1.7,-0.8 1.8,-0.8 1.8,-1 1.8,-1 1.6,-1.1 1.3,-1 1.1,-1 m -13.8,4.8 1.5,-0.6 2.4,-1 2.4,-1.3 2.3,-1.4 2,-1.4 1.5,-1.3 0.9,-1.1 0.2,-0.4 m -14.6,11.1 -0.9,1.3 m 2.3,-3.9 -0.5,0.6 -0.8,1.8 -0.1,0.2 m 7.7,-7.4 3.2,-1.9 1.1,-0.9 m -6.9,4.2 0.6,-0.3 2,-1.1 M 21.5,6.7 23.3,5.8 25.8,4.5 28.1,3.1 30,1.7 31.5,0.4 31.9,0.1 m -6.3,-20.6 1.4,-0.1 1.7,0.4 m 14.7,16 -1.4,0.1 -1.8,-0.4 M 33.3,-18 43.4,-4.2 m -14.7,-16 2,0.8 2.6,1.4 M 9,16.1 l 2.4,1.4 2.1,0.9 m 5,-7.5 -0.1,0.7 0.5,0.3 H 20 l 1.6,-0.4 2,-0.7 2.3,-1 2.3,-1.2 2.2,-1.4 m 0,0 L 31,6.7 33,4.6 33.7,3.5 M 31.4,8 30.4,7.2 m 1,0.8 -3.3,2 -3.3,1.6 -3.1,1.2 -2.3,0.6 h -1.5 l -0.2,-0.3 m 21.7,-10 2.5,-4.2 1.5,-3.1 M 16.7,18.7 18.5,18 m -5,0.4 1.7,0.3 h 1.5 m 15.4,42.7 4.1,-1.6 4.4,-2 4.5,-2.4 4.5,-2.8 4.6,-3 4.4,-3.2 4.3,-3.4 4,-3.5 3.8,-3.6 3.3,-3.5 2.8,-3.5 2.4,-3.3 L 81,22.5 82.3,19.6 82.9,17 83,14.8 82.4,13 81.3,11.6 79.5,10.7 77.2,10.3 h -2.7 l -3.3,0.5 -3.6,0.9 -4,1.4 -4.3,1.8 -4.4,2.3 -4.5,2.5 -4.6,2.9 -4.5,3.1 -4.4,3.4 -4.1,3.4 -3.9,3.6 -3.5,3.5 -3.1,3.6 -2.7,3.4 -2.1,3.2 -1.5,3 -1,2.7 -0.3,2.4 0.2,2 0.9,1.6 1.4,1.1 2.1,0.7 2.5,0.3 3,-0.3 3.5,-0.7 3.8,-1.2 m 1.8,-2.5 3.9,-1.6 4.2,-2 4.3,-2.3 4.4,-2.7 4.3,-3 4.2,-3.1 4,-3.3 3.7,-3.4 3.3,-3.4 2.9,-3.4 2.4,-3.2 1.9,-3 1.3,-2.8 0.7,-2.5 v -2.1 l -0.6,-1.7 -1.1,-1.3 -1.8,-0.8 -2.3,-0.3 -2.8,0.2 -3.3,0.6 -3.7,1.1 -3.9,1.6 -4.2,2 -4.3,2.3 -4.4,2.7 -4.3,2.9 -4.2,3.2 -4,3.3 -3.7,3.4 -3.3,3.4 -2.9,3.4 -2.4,3.2 -1.9,3 -1.3,2.8 -0.6,2.5 -0.1,2.1 0.6,1.7 1.2,1.2 1.7,0.8 2.3,0.4 2.9,-0.2 3.2,-0.6 3.7,-1.1 M 69.1,5.6 h -0.2 m -37.6,45.6 3.7,-1.5 4,-1.9 4.1,-2.2 4.1,-2.6 4.1,-2.8 3.9,-3.1 3.7,-3.1 3.4,-3.3 3,-3.2 2.5,-3.1 2.1,-2.9 1.4,-2.8 0.9,-2.4 0.2,-2.2 L 72.3,13 M 19,52.1 l 1.1,0.5 2.1,0.3 2.6,-0.1 3.1,-0.5 3.4,-1.1 m 8.1,-11.8 2.4,-1 2.7,-1.5 2.7,-1.8 2.6,-2 2.2,-2.1 1.9,-2 1.3,-2 0.7,-1.7 0.1,-1.3 -0.6,-0.9 -1.2,-0.4 -1.7,0.1 -2.2,0.6 -2.5,1 -2.6,1.5 -2.7,1.8 -2.6,2 -2.2,2.1 -1.9,2 -1.3,2 -0.7,1.7 -0.1,1.3 0.6,0.9 1.1,0.4 1.8,-0.1 2.2,-0.6 m -2.5,-3.3 2.5,-1 2.7,-1.5 2.7,-1.8 2.5,-2 2.3,-2.1 1.8,-2 1.4,-2 0.5,-1 M 34,36.8 l 0.8,-0.1 2.1,-0.6 m 178.2,254.5 3.3,-3.2 3.7,-3.3 4,-3.1 4.1,-3 4.2,-2.7 4.2,-2.4 4.1,-2.1 3.9,-1.6 3.6,-1.3 3.3,-0.8 2.9,-0.3 2.4,0.2 1.8,0.6 1.3,1.1 0.1,0.1 m -56.1,41 -0.4,-0.6 -0.4,-1.8 0.3,-2.1 0.8,-2.5 1.4,-2.8 2,-2.9 2.5,-3.2 3,-3.3 m 34,-1.1 -1.8,1.7 -3.5,3 -3.8,3 -3.9,2.7 -3.9,2.5 -2.6,1.4 m 3,-5.3 2.2,-2.1 2.6,-2.1 2.7,-1.8 2.7,-1.6 2.6,-1.2 2.3,-0.7 1.9,-0.2 1.5,0.2 0.8,0.7 0.2,1.2 -0.4,1.5 -1.1,1.9 -1.6,2 -2.1,2.2 -2.4,2.1 -2.6,1.9 -2.8,1.8 -2.6,1.3 -2.5,1 -2.1,0.5 h -1.7 l -1.1,-0.5 -0.6,-0.9 0.2,-1.4 0.7,-1.7 1.3,-2 1.9,-2.1 m 16.8,-9.7 -0.2,0.4 -1,1.8 -1.6,2.1 -2.1,2.1 -2.4,2.1 -2.6,2 -2.8,1.7 -2.7,1.4 -2.4,0.9 -2.2,0.5 -0.6,0.1 m -1.9,-83.3 v -0.1 m -33.6,60.9 h 0.1 l 0.3,0.2 m 28.2,-30.3 -3.7,2 -3.8,2.3 -3.7,2.6 -3.5,2.8 -3.3,2.9 -3,2.9 -2.5,2.9 -2,2.8 -1.4,2.5 -0.3,0.7 m 6.3,6.4 1.1,-0.2 3.1,-0.9 3.4,-1.4 3.7,-1.8 3.7,-2.1 3.8,-2.5 3.6,-2.7 3.5,-2.8 3.1,-3 2.7,-2.9 2.3,-2.8 1.7,-2.7 0.4,-0.7 m -67.5,5.3 0.1,0.1 m 27.9,-49.5 -4.2,2.2 -4.2,2.6 -4.2,2.8 -4.1,3 -4,3.2 -3.6,3.3 -3.3,3.4 -2.8,3.2 -2.4,3.2 -1.8,2.9 -1.3,2.7 -0.6,2.4 v 2 l 0.6,1.7 0.1,0.2 m 56.6,-41.5 -0.4,-0.5 -1.5,-1 -2,-0.4 -2.6,-0.1 -3.1,0.5 -3.4,1 -3.8,1.4 -4,1.8 M 132.5,93.4 v 0.2 l 0.2,1.9 -0.5,2.3 -1.1,2.6 -1.7,2.9 -2.3,3.1 -2.8,3.3 -3.2,3.3 -3.6,3.3 -3.9,3.2 -4.1,3.1 -4.2,2.8 -4.2,2.5 -4.2,2.2 -4,1.8 -3.7,1.4 -3.4,0.9 -3,0.4 h -2.5 l -2,-0.6 -0.8,-0.5 m -1.1,-1.3 -0.3,-0.8 -0.1,-1.9 0.5,-2.3 1.1,-2.6 1.7,-2.9 2.2,-3.1 2.8,-3.3 3.2,-3.3 3.6,-3.3 3.9,-3.2 4.1,-3 4.2,-2.9 4.3,-2.5 4.1,-2.2 4,-1.8 3.8,-1.4 3.4,-0.9 3,-0.4 m 0,-1 -3,0.4 -3.3,0.9 -3.8,1.3 -3.9,1.8 -4.2,2.1 -4.2,2.5 -4.2,2.8 -4.1,3 -3.9,3.2 -3.7,3.3 -3.3,3.3 -2.9,3.2 -2.4,3.2 -1.9,3 -1.3,2.7 -0.7,2.4 -0.1,2.1 0.5,1.6 0.3,0.4 m 56.3,-41.3 -0.3,-0.3 -1.4,-1 -2,-0.5 -2.5,-0.1 M 103,58.1 l 2.5,0.1 2,0.5 1.4,1 0.2,0.3 m -56.3,41.3 -0.2,-0.3 -0.5,-1.7 0.1,-2.1 0.7,-2.4 1.3,-2.7 1.9,-3 2.4,-3.1 2.9,-3.3 3.3,-3.3 3.6,-3.3 4,-3.1 4.1,-3.1 4.2,-2.7 4.2,-2.5 4.1,-2.2 4,-1.7 3.7,-1.4 3.4,-0.9 3,-0.4 m 10.3,45.2 -2,0.4 -2.4,0.8 -2.6,1.3 -2.8,1.6 -2.7,1.9 -2.5,2.1 -2.2,2.1 -1.7,2.1 -1.2,1.9 -0.6,1.7 v 1.1 m 0.7,1.1 1.2,0.3 1.8,-0.1 2.2,-0.6 2.5,-1.1 2.7,-1.4 2.8,-1.8 2.6,-2 2.3,-2.1 2,-2.2 1.5,-2 0.9,-1.8 0.3,-1.4 V 105 m -1.4,-1.1 0.1,0.1 m -190.1,115.4 1.4,-1.3 1.7,-0.6 1.9,0.1 1.9,0.8 1.7,1.4 1.5,2 1,2.4 0.6,2.5 v 2.6 l -0.5,2.2 -1,1.9 -1.4,1.3 -1.7,0.7 -1.9,-0.1 -1.8,-0.8 -1.8,-1.5 -1.4,-2 -1.1,-2.4 -0.6,-2.5 v -2.5 l 0.5,-2.3 1,-1.9 m 0.3,-2.1 -1.2,2.1 -0.6,2.6 -0.1,2.8 0.1,1 m 1.4,4.8 1.4,2.4 1.8,2 2.1,1.3 2.1,0.7 h 2.1 l 2,-0.9 1.5,-1.5 1.2,-2.1 0.6,-2.5 0.1,-2.8 -0.5,-2.9 -1,-2.8 -1.4,-2.5 -1.8,-2 -2.1,-1.4 -2.1,-0.7 -2.1,0.1 -2,0.8 -1.5,1.5 m 83.1,-3.6 -1.6,1.5 -1.5,0.7 m -6.4,-21.7 0.3,-0.1 2.1,-0.1 2.2,0.7 2,1.4 1.9,2 1.4,2.5 1,2.8 0.5,2.9 -0.1,2.8 -0.6,2.5 -1.2,2.1 M -4.2,175.2 v -0.1 L -4.1,175 H -4 l 0.1,-0.1 0.1,-0.1 h 0.2 0.1 0.1 M -23,200 -4.2,175.2 m -19.1,25.5 v 0 l 0.1,-0.4 0.2,-0.3 m 25.9,38.1 -13,-17.7 m 15.2,18 -0.2,0.3 -0.2,0.1 -0.3,0.1 H 4.1 l -0.3,-0.1 -0.3,-0.2 -0.3,-0.2 -0.3,-0.3 m 21,-24.5 -18.8,24.8 m 19.2,-25.9 v 0.2 0.1 l -0.1,0.2 v 0.1 l -0.1,0.2 v 0.1 l -0.1,0.1 -0.1,0.1 M -3.4,174.8 0,175 l 3.5,0.9 3.5,1.6 3.3,2.3 3.1,2.8 2.8,3.4 2.5,3.9 2.1,4.2 1.6,4.5 1.2,4.6 0.6,4.7 0.1,4.6 m 322.4,-141.6 3.4,0.2 3.5,0.9 3.4,1.6 3.3,2.3 3.2,2.9 2.8,3.4 2.5,3.8 2.1,4.3 1.6,4.4 1.1,4.7 0.7,4.6 0.1,4.7 m -0.4,1.1 0.1,-0.1 0.1,-0.1 v -0.2 l 0.1,-0.1 v -0.2 -0.1 l 0.1,-0.2 v -0.1 m -188,66.5 -3.2,1.2 -4.6,2.1 -4.7,2.5 -4.9,2.9 -4.8,3.1 -4.7,3.4 -4.6,3.6 M 374,109.8 355.2,134.6 m -8.5,-63.7 h -0.1 -0.2 V 71 m -161.8,142.7 -2.7,2.5 -7,6.4 -7.3,6.3 -7.3,6.3 -7.5,6.3 -7.7,6.2 m 91.1,-77.6 -1.2,0.8 -5.9,3.8 -5.9,4.1 -5.7,4.4 -5.5,4.5 -5.2,4.6 -2.1,1.9 m -48.8,26 0.9,-0.4 4.6,-2.4 4.7,-2.8 4.8,-3 4.6,-3.3 4.5,-3.5 3.3,-2.8 m -51.6,18.2 -0.1,-0.1 M 155.1,194 h -0.1 -0.1 m -19.8,22.3 2.4,-0.1 3.4,-0.7 3.7,-1.1 4.1,-1.6 4.3,-1.9 4.5,-2.4 4.5,-2.7 4.5,-3 4.5,-3.2 4.2,-3.4 4,-3.5 3.7,-3.6 3.2,-3.5 2.8,-3.4 m -47.3,30.9 2.2,-0.5 3.7,-1.2 4,-1.6 4.2,-2 4.3,-2.5 4.3,-2.7 4.3,-3 4.1,-3.2 3.9,-3.3 3.5,-3.4 3.2,-3.4 2.7,-3.2 m -47,24.3 2.4,-0.5 3.4,-1 3.6,-1.4 4,-1.9 4,-2.2 4.1,-2.5 4,-2.8 3.9,-3 3.7,-3.1 3.3,-3.2 3,-3.2 2.6,-3.1 m -39.6,25 h 0.2 l 2.8,-0.6 3.2,-1.1 3.5,-1.4 3.7,-1.9 3.8,-2.2 3.7,-2.5 3.7,-2.7 3.5,-2.9 3.1,-2.9 2.9,-3 2.3,-2.8 M 354.6,135 h 0.1 l 0.3,-0.2 0.2,-0.2 M 145.3,247.7 h -0.1 -0.1 m -46.4,21.2 0.1,0.1 0.1,0.1 m 2.5,0.7 v 0 h 0.2 M 428.7,89 l -1.6,1.5 -1.5,0.7 m -6.5,-21.8 0.4,-0.1 h 2.1 l 2.1,0.7 2.1,1.3 1.8,2 1.5,2.5 1,2.8 0.5,2.9 -0.1,2.8 -0.7,2.6 -1.1,2.1 m 1.7,-9 -0.6,-2.4 -0.5,-1.4 m -62.7,402.2 0.4,0.5 0.4,0.5 0.4,0.5 0.4,0.4 0.5,0.4 0.4,0.4 0.4,0.3 0.3,0.2 0.3,0.1 m 15.3,-14.3 0.4,0.6 0.2,0.7 0.2,0.7 0.1,0.7 -0.1,0.7 -0.1,0.7 -0.3,0.7 -0.3,0.5 m -27,-5.3 18.9,-11 m -10.8,22 -8.1,-11 m 26.9,0 -8,-11 m -3.1,25.9 h 0.1 m -4.2,0.4 -0.1,-0.1 0.1,-0.2 0.2,-0.2 0.3,-0.3 0.3,-0.2 0.3,-0.2 0.3,-0.1 h 0.2 m 0,0 2.5,0.9 m -2.5,7.7 0.3,-0.3 0.3,-0.2 0.3,-0.2 0.4,-0.2 h 0.2 0.1 m -4.9,5.5 v 0 -0.2 l 0.1,-0.2 m 0,0 3.2,-4.2 m 11.8,-9.7 -0.1,-0.1 0.1,-0.2 0.2,-0.3 0.3,-0.2 0.4,-0.3 m 0,0 5.6,-3.3 m 0,0 0.4,-0.1 0.3,-0.1 h 0.1 l 0.1,0.1 m -10.8,3.3 v 0 -0.1 l 0.2,-0.3 m 0,0 3.2,-4.2 m 0,0 0.2,-0.3 0.3,-0.2 0.4,-0.2 0.3,-0.2 h 0.2 l 0.2,0.1 m -5.9,12.3 v -0.1 -0.2 l 0.2,-0.2 0.3,-0.3 0.3,-0.2 0.3,-0.2 0.3,-0.1 h 0.3 m 0,0 2.4,0.9 m 0,0 h 0.1 m -14.2,2.5 0.3,-0.1 0.3,-0.1 h 0.2 m -7.4,4.6 v -0.1 l 0.1,-0.2 0.2,-0.3 0.3,-0.2 0.3,-0.3 m 0,0 5.7,-3.3 m -7.9,5 -0.6,0.3 -0.7,0.3 -0.6,0.1 h -0.7 l -0.7,-0.1 -0.6,-0.2 -0.6,-0.3 -0.5,-0.3 -0.4,-0.5 m 0,0 -8.1,-11 m 0,0 10.6,-14 m 14.6,16.8 -2.5,-0.9 m 4.1,-0.5 0.1,0.1 v 0.2 l -0.2,0.3 -0.3,0.2 -0.3,0.3 -0.4,0.2 -0.3,0.1 h -0.2 m -0.9,-2.3 2.5,0.9 m -4.1,0.5 -0.1,-0.1 0.1,-0.2 0.2,-0.3 0.3,-0.2 0.3,-0.3 0.3,-0.2 0.3,-0.1 h 0.2 m 21.4,-11.5 0.4,0.6 0.1,0.6 0.1,0.7 -0.1,0.6 -0.3,0.7 -0.4,0.6 -0.6,0.5 -0.6,0.4 m 1.4,-4.7 -8,-11 m -8.2,-3 8.2,3 m -1.6,15.7 0.2,-0.3 0.3,-0.3 0.4,-0.2 0.3,-0.1 h 0.2 0.2 v 0.2 l -0.2,0.2 m -4.6,4.7 3.2,-4.2 m -1.8,3.7 -0.2,0.3 -0.3,0.3 -0.4,0.2 -0.3,0.1 h -0.2 -0.2 v -0.2 l 0.2,-0.2 m 4.6,-4.7 -3.2,4.2 m -123.9,-141.2 1.8,-2 2.1,-2.1 2.5,-2 2.6,-1.8 2.6,-1.4 2.5,-1.1 2.2,-0.7 1.8,-0.2 1.2,0.4 0.4,0.4 m -21.3,15.6 -0.2,-0.4 V 341 l 0.6,-1.6 1.2,-1.8 m 111.3,152 -5.7,3.3 m 5.8,-4.2 0.3,-0.2 0.3,-0.1 0.2,0.1 v 0.1 l -0.1,0.2 -0.2,0.3 -0.3,0.3 -0.3,0.2 m -5.6,2.4 5.7,-3.3 m -5.8,4.2 -0.3,0.2 h -0.3 -0.2 V 493 l 0.1,-0.3 0.2,-0.2 0.3,-0.3 0.3,-0.2 m 4.2,3.6 -0.5,0.4 -0.4,0.3 -0.5,0.2 -0.6,0.1 -0.5,-0.1 h -0.1 m 19.3,-16.7 5.6,-3.3 m -5.7,4.2 -0.4,0.2 -0.3,0.1 -0.1,-0.1 -0.1,-0.1 0.1,-0.2 0.2,-0.3 0.3,-0.3 0.4,-0.2 m 5.5,-2.4 -5.6,3.3 m 5.7,-4.2 0.4,-0.2 0.3,-0.1 0.1,0.1 0.1,0.1 -0.1,0.2 -0.2,0.3 -0.3,0.3 -0.4,0.2 m -6.7,9.2 h 0.1 0.1 0.1 m -11.8,4 0.3,-0.3 0.3,-0.3 0.3,-0.2 0.4,-0.1 0.2,-0.1 0.1,0.1 v 0.2 l -0.1,0.2 m 0,0 -3.2,4.2 m -1.5,0.5 3.2,-4.2 m -1.7,3.7 -0.2,0.3 -0.4,0.3 -0.3,0.2 -0.3,0.1 H 369 368.9 V 495 l 0.1,-0.2 m 10.7,-8.2 v -0.1 -0.2 l 0.2,-0.3 0.3,-0.2 0.3,-0.3 0.3,-0.2 0.3,-0.1 h 0.3 m 0,0 2.4,0.9 m -1.6,1.4 -2.5,-0.9 m 4.1,-0.5 0.1,0.1 v 0.2 l -0.2,0.3 -0.3,0.2 -0.3,0.3 -0.4,0.2 -0.3,0.1 h -0.2 m -123.6,-152 -1.1,1.7 -0.4,1.2 m 16.7,-12.3 h -0.7 l -1.8,0.4 -2.1,0.8 -2.4,1.2 -2.3,1.5 -2.3,1.8 -2,1.9 -1.6,1.8 M 85,308.6 l 0.2,3.2 -0.5,2.8 -1.2,2.6 -1.7,2.1 -2.4,1.6 -2.8,1 -3.2,0.5 -3.6,-0.1 -3.7,-0.7 -3.8,-1.2 -3.8,-1.8 -3.6,-2.3 -3.4,-2.7 -3,-3 -2.6,-3.2 -2,-3.4 -1.5,-3.4 -0.8,-3.3 -0.2,-3.2 0.5,-2.9 1.2,-2.5 1.8,-2.1 2.3,-1.6 2.8,-1.1 3.2,-0.5 3.6,0.2 3.7,0.7 3.8,1.2 3.8,1.8 3.6,2.3 3.4,2.7 3.1,3 2.5,3.2 2.1,3.4 1.4,3.4 0.8,3.3 m -39.4,-10.3 0.8,3.1 1.4,3.1 2.1,3.1 2.5,2.8 3,2.6 3.2,2.2 3.5,1.8 3.5,1.2 3.4,0.6 h 3.2 l 2.8,-0.6 2.4,-1.2 1.9,-1.8 1.2,-2.2 0.6,-2.6 -0.1,-2.9 -0.8,-3 -1.4,-3.1 -2,-3.1 -2.6,-2.9 -3,-2.6 -3.2,-2.2 -3.5,-1.7 -3.5,-1.2 -3.4,-0.6 h -3.2 l -2.8,0.6 -2.4,1.2 -1.9,1.7 -1.2,2.2 -0.6,2.6 0.1,2.9 m 20.1,42.4 -0.2,0.3 m -19,-40.9 -0.1,-2.6 0.6,-2.4 1.2,-2 1.7,-1.5 2.3,-1 2.7,-0.5 3,0.1 3.2,0.7 3.2,1.2 3.1,1.8 3,2.1 2.6,2.5 2.1,2.8 1.7,2.8 1,2.9 0.4,2.7 -0.2,2.6 -0.9,2.2 -1.5,1.7 -2,1.3 -2.5,0.8 -2.9,0.1 -2.9,-0.3 m -17.1,-13 -1,-2.1 -0.7,-2.9 m 137.3,123.6 -26,7.7 M 110.9,445.3 85,453 m 32.7,6 -32.1,9.5 m 98.8,-29.3 -32.1,9.6 m -76.9,19.9 1,0.2 1.1,0.1 1.2,0.1 1.2,0.1 h 1.3 l 1.2,-0.1 1.2,-0.1 1.1,-0.2 0.9,-0.3 M 85,453 l -1,0.3 -1,0.2 -1.2,0.1 -1.2,0.1 h -1.3 l -1.2,-0.1 -1.2,-0.1 -1.1,-0.1 -1,-0.3 m 31,-7.7 0.6,0.1 0.6,0.1 h 0.7 l 0.7,0.1 0.7,-0.1 h 0.6 l 0.7,-0.1 0.5,-0.2 m -5.1,0.1 -158.7,-41.2 m -23.5,7 23.5,-7 m -23.2,9.8 -0.9,-0.3 -0.7,-0.3 -0.4,-0.4 -0.2,-0.4 0.1,-0.4 0.3,-0.4 0.7,-0.3 0.8,-0.3 M 74.8,453.1 -76.1,414 m 149.6,30.9 1.8,-0.4 2.3,-0.2 H 80 l 2.2,0.2 1.9,0.4 1.2,0.6 0.6,0.6 -0.2,0.7 -1,0.6 -1.6,0.4 -2.1,0.4 -2.4,0.1 -2.3,-0.2 -2.1,-0.3 -1.6,-0.5 -0.9,-0.6 -0.2,-0.6 0.6,-0.6 1.4,-0.6 M -37.8,416 l 1.8,-0.4 2.3,-0.2 h 2.4 l 2.2,0.2 1.8,0.4 1.3,0.6 0.6,0.6 -0.2,0.7 -1,0.6 -1.7,0.5 -2.1,0.3 -2.3,0.1 -2.3,-0.1 -2.1,-0.3 -1.6,-0.5 -0.9,-0.6 -0.2,-0.7 0.6,-0.6 1.4,-0.6 m -19.7,-5.1 1.9,-0.4 2.3,-0.2 h 2.3 l 2.3,0.2 1.8,0.4 1.3,0.6 0.5,0.6 -0.2,0.7 -1,0.6 -1.6,0.5 -2.1,0.3 -2.3,0.1 -2.4,-0.1 -2,-0.3 -1.6,-0.5 -0.9,-0.6 -0.2,-0.7 0.6,-0.6 1.3,-0.6 M 75.4,468.7 -76,429.4 m 23.1,-25.2 v -0.1 l 0.1,-0.1 m 171.5,53.4 -0.1,0.5 -0.1,0.5 -0.3,0.4 -0.4,0.2 m -0.1,0 h 0.1 m -0.2,-72.4 2.2,-1.9 2.6,-1.9 2.7,-1.7 2.6,-1.3 2.4,-0.9 2,-0.4 1.6,0.1 0.9,0.6 0.4,1 -0.3,1.5 -1,1.7 -1.5,2 -2,2.1 -2.3,2.1 -2.6,1.9 -2.7,1.7 -2.6,1.3 -2.4,0.9 m 34.6,53.4 h -0.5 -0.7 l -0.6,-0.3 -0.7,-0.4 -0.8,-0.5 -0.7,-0.6 -0.6,-0.8 -0.6,-0.7 m 5.2,3.3 h 0.1 m 5.5,-17.4 0.5,-0.1 0.3,-0.2 0.2,-0.2 v -0.2 m 24.7,-9.8 0.8,0.3 0.7,0.3 0.4,0.3 0.3,0.3 v 0.4 l -0.2,0.3 -0.4,0.3 -0.6,0.4 -0.7,0.2 m -26.3,-9.5 26,6.7 M 158,420.5 h 2.2 l 2.3,0.2 1.8,0.4 1.3,0.6 0.6,0.6 -0.3,0.6 -0.9,0.6 -1.7,0.5 -2.1,0.3 -2.3,0.1 h -0.6 m 26.1,14.8 0.8,-0.2 0.6,-0.3 0.4,-0.4 0.2,-0.3 v -0.2 m -192.8,-88.2 -3,1.2 -2.6,1.8 -2,2.3 -1.4,2.7 -0.7,3.1 -0.1,3.4 0.5,3.5 1.2,3.8 1.9,3.7 2.4,3.7 2.9,3.5 3.3,3.3 3.7,3 3.9,2.5 4.2,2.2 4.2,1.6 4.1,1.1 4.1,0.4 3.7,-0.1 3.5,-0.6 3,-1.3 2.6,-1.8 2,-2.2 1.4,-2.7 0.7,-3.1 0.1,-3.4 -0.5,-3.6 -1.2,-3.7 -1.9,-3.8 -2.4,-3.6 -2.8,-3.6 -3.4,-3.3 -3.7,-2.9 -3.9,-2.6 -4.2,-2.1 -4.2,-1.6 -4.1,-1.1 -4.1,-0.5 -3.7,0.1 -3.5,0.7 m 0.5,6.9 -2.8,1.2 -2.3,1.7 -1.7,2.3 -1,2.6 -0.4,3 0.2,3.3 1,3.4 1,2.4 m 24.8,18.8 2.6,0.3 H 19 l 3.2,-0.6 2.8,-1.2 2.3,-1.7 1.7,-2.2 1.1,-2.7 0.4,-3 -0.3,-3.2 -1,-3.4 -1.6,-3.5 -2.2,-3.4 -2.7,-3.3 -3.1,-3 -3.5,-2.6 -3.8,-2.3 -3.8,-1.7 -3.9,-1.2 -3.8,-0.6 h -3.5 l -3.2,0.6 m 15.9,37.7 -1.2,-1.7 -2.7,-3.3 -3.1,-3 -3.5,-2.6 -3.8,-2.2 -3.8,-1.8 -2,-0.7 m -40.5,19 -0.8,1.6 -0.7,1.6 -0.4,1.5 -0.3,1.4 m -25.5,23.9 v 0.1 l 0.2,0.4 0.4,0.3 0.7,0.4 1,0.3"
           style="fill:none;stroke:#000000;stroke-width:0.709;stroke-linecap:round;stroke-linejoin:round;stroke-miterlimit:10;stroke-dasharray:none;stroke-opacity:1"
           id="path866" />
      </g>
      <g
         id="g868"
         transform="matrix(0.35277777,0,0,-0.35277777,48.434979,73.753626)">
        <path
           d="m 0,0 -0.689,-0.004 -1.787,0.351 -2.138,0.814 -2.343,1.221 -2.389,1.545 -2.271,1.765 -1.999,1.863 -1.59,1.834 -1.074,1.682 -0.445,1.193"
           style="fill:none;stroke:#000000;stroke-width:0.709;stroke-linecap:round;stroke-linejoin:round;stroke-miterlimit:10;stroke-dasharray:18, 3.6, 3.6, 3.6, 3.6, 3.6;stroke-dashoffset:16.205;stroke-opacity:1"
           id="path870" />
      </g>
      <g
         id="g872"
         transform="matrix(0.35277777,0,0,-0.35277777,-44.624199,49.732847)">
        <path
           d="m 0,0 -1.166,-1.7 -2.708,-3.257 -3.151,-3.002 -3.499,-2.656 -3.739,-2.23 -3.867,-1.735 -2.015,-0.686"
           style="fill:none;stroke:#000000;stroke-width:0.709;stroke-linecap:round;stroke-linejoin:round;stroke-miterlimit:10;stroke-dasharray:18, 3.6, 3.6, 3.6, 3.6, 3.6;stroke-dashoffset:14.119;stroke-opacity:1"
           id="path874" />
      </g>
      <g
         id="g876"
         transform="matrix(0.35277777,0,0,-0.35277777,38.954605,86.765341)">
        <path
           d="M 0,0 2.071,-0.432 3.674,-0.369 4.722,0.184 5.158,1.199 4.959,2.621 4.135,4.372 2.732,6.359 0.824,8.474 l -2.309,2.129 -2.586,2.029 -2.724,1.819 -2.715,1.512 -2.559,1.122 -2.265,0.672 -1.85,0.186 -1.334,-0.311 -0.747,-0.789 -0.119,-1.227 0.515,-1.597 1.121,-1.882 1.667,-2.064 2.123,-2.137 2.464,-2.094 L -7.821,3.905 -5.083,2.229 -2.429,0.903 0,0"
           style="fill:none;stroke:#000000;stroke-width:0.709;stroke-linecap:round;stroke-linejoin:round;stroke-miterlimit:10;stroke-dasharray:18, 3.6, 3.6, 3.6, 3.6, 3.6;stroke-dashoffset:13.493;stroke-opacity:1"
           id="path878" />
      </g>
      <g
         id="g880"
         transform="matrix(0.35277777,0,0,-0.35277777,41.288371,77.313295)">
        <path
           d="M 0,0 -92.417,121.955"
           style="fill:none;stroke:#000000;stroke-width:0.709;stroke-linecap:round;stroke-linejoin:round;stroke-miterlimit:10;stroke-dasharray:18, 3.6, 3.6, 3.6, 3.6, 3.6;stroke-dashoffset:4.492;stroke-opacity:1"
           id="path882" />
      </g>
      <g
         id="g884"
         transform="matrix(0.35277777,0,0,-0.35277777,-19.18497,90.684666)">
        <path
           d="M 0,0 -26.562,35.052"
           style="fill:none;stroke:#000000;stroke-width:0.709;stroke-linecap:round;stroke-linejoin:round;stroke-miterlimit:10;stroke-dasharray:18, 3.6, 3.6, 3.6, 3.6, 3.6;stroke-dashoffset:5.01;stroke-opacity:1"
           id="path886" />
      </g>
      <g
         id="g888"
         transform="matrix(0.35277777,0,0,-0.35277777,-35.620358,68.996277)">
        <path
           d="M 0,0 -36.659,48.376"
           style="fill:none;stroke:#000000;stroke-width:0.709;stroke-linecap:round;stroke-linejoin:round;stroke-miterlimit:10;stroke-dasharray:18, 3.6, 3.6, 3.6, 3.6, 3.6;stroke-dashoffset:-3.349;stroke-opacity:1"
           id="path890" />
      </g>
      <g
         id="g892"
         transform="matrix(0.35277777,0,0,-0.35277777,36.618158,83.682133)">
        <path
           d="M 0,0 -2.749,-3.749"
           style="fill:none;stroke:#000000;stroke-width:0.709;stroke-linecap:round;stroke-linejoin:round;stroke-miterlimit:10;stroke-dasharray:18, 3.6, 3.6, 3.6, 3.6, 3.6;stroke-dashoffset:0;stroke-opacity:1"
           id="path894" />
      </g>
      <g
         id="g896"
         transform="matrix(0.35277777,0,0,-0.35277777,32.006294,89.971456)">
        <path
           d="M 0,0 -13.9,-18.955"
           style="fill:none;stroke:#000000;stroke-width:0.709;stroke-linecap:round;stroke-linejoin:round;stroke-miterlimit:10;stroke-dasharray:18, 3.6, 3.6, 3.6, 3.6, 3.6;stroke-dashoffset:15.247;stroke-opacity:1"
           id="path898" />
      </g>
      <g
         id="g900"
         transform="matrix(0.35277777,0,0,-0.35277777,16.518257,111.09275)">
        <path
           d="M 0,0 -22.585,-30.799"
           style="fill:none;stroke:#000000;stroke-width:0.709;stroke-linecap:round;stroke-linejoin:round;stroke-miterlimit:10;stroke-dasharray:18, 3.6, 3.6, 3.6, 3.6, 3.6;stroke-dashoffset:7.904;stroke-opacity:1"
           id="path902" />
      </g>
      <g
         id="g904"
         transform="matrix(0.35277777,0,0,-0.35277777,-4.9255166,140.33599)">
        <path
           d="M 0,0 -20.976,-28.605"
           style="fill:none;stroke:#000000;stroke-width:0.709;stroke-linecap:round;stroke-linejoin:round;stroke-miterlimit:10;stroke-dasharray:18, 3.6, 3.6, 3.6, 3.6, 3.6;stroke-dashoffset:9.264;stroke-opacity:1"
           id="path906" />
      </g>
      <g
         id="g908"
         transform="matrix(0.35277777,0,0,-0.35277777,-21.969869,163.5797)">
        <path
           d="M 0,0 -32.001,-43.641"
           style="fill:none;stroke:#000000;stroke-width:0.709;stroke-linecap:round;stroke-linejoin:round;stroke-miterlimit:10;stroke-dasharray:18, 3.6, 3.6, 3.6, 3.6, 3.6;stroke-dashoffset:-0.058;stroke-opacity:1"
           id="path910" />
      </g>
      <g
         id="g912"
         transform="matrix(0.35277777,0,0,-0.35277777,-35.466264,181.98496)">
        <path
           d="M 0,0 -11.248,-15.339"
           style="fill:none;stroke:#000000;stroke-width:0.709;stroke-linecap:round;stroke-linejoin:round;stroke-miterlimit:10;stroke-dasharray:18, 3.6, 3.6, 3.6, 3.6, 3.6;stroke-dashoffset:9.51;stroke-opacity:1"
           id="path914" />
      </g>
      <g
         id="g916"
         transform="matrix(0.35277777,0,0,-0.35277777,-5.3754141,53.465589)">
        <path
           d="M 0,0 2.592,3.535"
           style="fill:none;stroke:#000000;stroke-width:0.709;stroke-linecap:round;stroke-linejoin:round;stroke-miterlimit:10;stroke-dasharray:18, 3.6, 3.6, 3.6, 3.6, 3.6;stroke-dashoffset:0;stroke-opacity:1"
           id="path918" />
      </g>
      <g
         id="g920"
         transform="matrix(0.35277777,0,0,-0.35277777,8.6856376,34.290282)">
        <path
           d="M 0,0 -39.858,-54.355"
           style="fill:none;stroke:#000000;stroke-width:0.709;stroke-linecap:round;stroke-linejoin:round;stroke-miterlimit:10;stroke-dasharray:18, 3.6, 3.6, 3.6, 3.6, 3.6;stroke-dashoffset:11.299;stroke-opacity:1"
           id="path922" />
      </g>
      <g
         id="g924"
         transform="matrix(0.35277777,0,0,-0.35277777,44.991938,72.262646)">
        <path
           d="M 0,0 -10.498,-14.317"
           style="fill:none;stroke:#000000;stroke-width:0.709;stroke-linecap:round;stroke-linejoin:round;stroke-miterlimit:10;stroke-dasharray:18, 3.6, 3.6, 3.6, 3.6, 3.6;stroke-dashoffset:0;stroke-opacity:1"
           id="path926" />
      </g>
      <text
         xml:space="preserve"
         style="font-style:normal;font-variant:normal;font-weight:normal;font-stretch:normal;font-size:7.76111px;line-height:1.25;font-family:sans-serif;-inkscape-font-specification:'sans-serif, Normal';font-variant-ligatures:normal;font-variant-caps:normal;font-variant-numeric:normal;font-variant-east-asian:normal;fill:#000000;fill-opacity:1;stroke:none;stroke-width:0.264583"
         x="-71.301453"
         y="89.707581"
         id="text2127"><tspan
           sodipodi:role="line"
           id="tspan2125"
           style="font-style:normal;font-variant:normal;font-weight:normal;font-stretch:normal;font-size:7.76111px;font-family:sans-serif;-inkscape-font-specification:'sans-serif, Normal';font-variant-ligatures:normal;font-variant-caps:normal;font-variant-numeric:normal;font-variant-east-asian:normal;stroke-width:0.264583"
           x="-71.301453"
           y="89.707581">1</tspan></text>
      <text
         xml:space="preserve"
         style="font-style:normal;font-variant:normal;font-weight:normal;font-stretch:normal;font-size:7.76111px;line-height:1.25;font-family:sans-serif;-inkscape-font-specification:'sans-serif, Normal';font-variant-ligatures:normal;font-variant-caps:normal;font-variant-numeric:normal;font-variant-east-asian:normal;fill:#000000;fill-opacity:1;stroke:none;stroke-width:0.264583"
         x="-57.184116"
         y="102.57399"
         id="text2571"><tspan
           sodipodi:role="line"
           id="tspan2569"
           style="font-style:normal;font-variant:normal;font-weight:normal;font-stretch:normal;font-size:7.76111px;font-family:sans-serif;-inkscape-font-specification:'sans-serif, Normal';font-variant-ligatures:normal;font-variant-caps:normal;font-variant-numeric:normal;font-variant-east-asian:normal;stroke-width:0.264583"
           x="-57.184116"
           y="102.57399">2</tspan></text>
      <text
         xml:space="preserve"
         style="font-style:normal;font-variant:normal;font-weight:normal;font-stretch:normal;font-size:7.76111px;line-height:1.25;font-family:sans-serif;-inkscape-font-specification:'sans-serif, Normal';font-variant-ligatures:normal;font-variant-caps:normal;font-variant-numeric:normal;font-variant-east-asian:normal;fill:#000000;fill-opacity:1;stroke:none;stroke-width:0.264583"
         x="95.425995"
         y="65.046928"
         id="text2993"><tspan
           sodipodi:role="line"
           id="tspan2991"
           style="font-style:normal;font-variant:normal;font-weight:normal;font-stretch:normal;font-size:7.76111px;font-family:sans-serif;-inkscape-font-specification:'sans-serif, Normal';font-variant-ligatures:normal;font-variant-caps:normal;font-variant-numeric:normal;font-variant-east-asian:normal;stroke-width:0.264583"
           x="95.425995"
           y="65.046928">3</tspan></text>
      <text
         xml:space="preserve"
         style="font-style:normal;font-variant:normal;font-weight:normal;font-stretch:normal;font-size:7.76111px;line-height:1.25;font-family:sans-serif;-inkscape-font-specification:'sans-serif, Normal';font-variant-ligatures:normal;font-variant-caps:normal;font-variant-numeric:normal;font-variant-east-asian:normal;fill:#000000;fill-opacity:1;stroke:none;stroke-width:0.264583"
         x="85.061378"
         y="114.36823"
         id="text3393"><tspan
           sodipodi:role="line"
           id="tspan3391"
           style="font-style:normal;font-variant:normal;font-weight:normal;font-stretch:normal;font-size:7.76111px;font-family:sans-serif;-inkscape-font-specification:'sans-serif, Normal';font-variant-ligatures:normal;font-variant-caps:normal;font-variant-numeric:normal;font-variant-east-asian:normal;stroke-width:0.264583"
           x="85.061378"
           y="114.36823">4</tspan></text>
      <text
         xml:space="preserve"
         style="font-style:normal;font-variant:normal;font-weight:normal;font-stretch:normal;font-size:7.76111px;line-height:1.25;font-family:sans-serif;-inkscape-font-specification:'sans-serif, Normal';font-variant-ligatures:normal;font-variant-caps:normal;font-variant-numeric:normal;font-variant-east-asian:normal;fill:#000000;fill-opacity:1;stroke:none;stroke-width:0.264583"
         x="22.248186"
         y="166.72743"
         id="text3859"><tspan
           sodipodi:role="line"
           id="tspan3857"
           style="font-style:normal;font-variant:normal;font-weight:normal;font-stretch:normal;font-size:7.76111px;font-family:sans-serif;-inkscape-font-specification:'sans-serif, Normal';font-variant-ligatures:normal;font-variant-caps:normal;font-variant-numeric:normal;font-variant-east-asian:normal;stroke-width:0.264583"
           x="22.248186"
           y="166.72743">5</tspan></text>
      <text
         xml:space="preserve"
         style="font-style:normal;font-variant:normal;font-weight:normal;font-stretch:normal;font-size:7.76111px;line-height:1.25;font-family:sans-serif;-inkscape-font-specification:'sans-serif, Normal';font-variant-ligatures:normal;font-variant-caps:normal;font-variant-numeric:normal;font-variant-east-asian:normal;fill:#000000;fill-opacity:1;stroke:none;stroke-width:0.264583"
         x="70.407944"
         y="102.93141"
         id="text4313"><tspan
           sodipodi:role="line"
           id="tspan4311"
           style="font-style:normal;font-variant:normal;font-weight:normal;font-stretch:normal;font-size:7.76111px;font-family:sans-serif;-inkscape-font-specification:'sans-serif, Normal';font-variant-ligatures:normal;font-variant-caps:normal;font-variant-numeric:normal;font-variant-east-asian:normal;stroke-width:0.264583"
           x="70.407944"
           y="102.93141">6</tspan></text>
      <text
         xml:space="preserve"
         style="font-style:normal;font-variant:normal;font-weight:normal;font-stretch:normal;font-size:7.76111px;line-height:1.25;font-family:sans-serif;-inkscape-font-specification:'sans-serif, Normal';font-variant-ligatures:normal;font-variant-caps:normal;font-variant-numeric:normal;font-variant-east-asian:normal;fill:#000000;fill-opacity:1;stroke:none;stroke-width:0.264583"
         x="81.844765"
         y="80.236458"
         id="text4713"><tspan
           sodipodi:role="line"
           id="tspan4711"
           style="font-style:normal;font-variant:normal;font-weight:normal;font-stretch:normal;font-size:7.76111px;font-family:sans-serif;-inkscape-font-specification:'sans-serif, Normal';font-variant-ligatures:normal;font-variant-caps:normal;font-variant-numeric:normal;font-variant-east-asian:normal;stroke-width:0.264583"
           x="81.844765"
           y="80.236458">7</tspan></text>
      <text
         xml:space="preserve"
         style="font-style:normal;font-variant:normal;font-weight:normal;font-stretch:normal;font-size:7.76111px;line-height:1.25;font-family:sans-serif;-inkscape-font-specification:'sans-serif, Normal';font-variant-ligatures:normal;font-variant-caps:normal;font-variant-numeric:normal;font-variant-east-asian:normal;fill:#000000;fill-opacity:1;stroke:none;stroke-width:0.264583"
         x="17.512629"
         y="182.00632"
         id="text5179"><tspan
           sodipodi:role="line"
           id="tspan5177"
           style="font-style:normal;font-variant:normal;font-weight:normal;font-stretch:normal;font-size:7.76111px;font-family:sans-serif;-inkscape-font-specification:'sans-serif, Normal';font-variant-ligatures:normal;font-variant-caps:normal;font-variant-numeric:normal;font-variant-east-asian:normal;stroke-width:0.264583"
           x="17.512629"
           y="182.00632">8</tspan></text>
      <text
         xml:space="preserve"
         style="font-style:normal;font-variant:normal;font-weight:normal;font-stretch:normal;font-size:7.76111px;line-height:1.25;font-family:sans-serif;-inkscape-font-specification:'sans-serif, Normal';font-variant-ligatures:normal;font-variant-caps:normal;font-variant-numeric:normal;font-variant-east-asian:normal;fill:#000000;fill-opacity:1;stroke:none;stroke-width:0.264583"
         x="-1.6860495"
         y="194.83728"
         id="text5953"><tspan
           sodipodi:role="line"
           id="tspan5951"
           style="font-style:normal;font-variant:normal;font-weight:normal;font-stretch:normal;font-size:7.76111px;font-family:sans-serif;-inkscape-font-specification:'sans-serif, Normal';font-variant-ligatures:normal;font-variant-caps:normal;font-variant-numeric:normal;font-variant-east-asian:normal;stroke-width:0.264583"
           x="-1.6860495"
           y="194.83728">9</tspan></text>
    </g>
  </g>
</svg>
