<?xml version="1.0" encoding="UTF-8" standalone="no"?>
<!-- Created with Inkscape (http://www.inkscape.org/) -->

<svg
   width="115.89067mm"
   height="85.163574mm"
   viewBox="0 0 115.89067 85.163574"
   version="1.1"
   id="svg5"
   inkscape:version="1.1.2 (0a00cf5339, 2022-02-04, custom)"
   sodipodi:docname="Drivetrain_assembled.svg"
   xmlns:inkscape="http://www.inkscape.org/namespaces/inkscape"
   xmlns:sodipodi="http://sodipodi.sourceforge.net/DTD/sodipodi-0.dtd"
   xmlns="http://www.w3.org/2000/svg"
   xmlns:svg="http://www.w3.org/2000/svg">
  <sodipodi:namedview
     id="namedview7"
     pagecolor="#505050"
     bordercolor="#eeeeee"
     borderopacity="1"
     inkscape:pageshadow="0"
     inkscape:pageopacity="0"
     inkscape:pagecheckerboard="0"
     inkscape:document-units="mm"
     showgrid="false"
     inkscape:zoom="1.4805976"
     inkscape:cx="138.1199"
     inkscape:cy="110.76608"
     inkscape:window-width="1920"
     inkscape:window-height="1017"
     inkscape:window-x="-8"
     inkscape:window-y="-8"
     inkscape:window-maximized="1"
     inkscape:current-layer="layer1" />
  <defs
     id="defs2" />
  <g
     inkscape:label="Ebene 1"
     inkscape:groupmode="layer"
     id="layer1"
     transform="translate(-41.094352,-97.762419)">
    <g
       id="g1589"
       transform="translate(315.94224,11.436823)">
      <g
         id="g956"
         transform="matrix(0.35277777,0,0,-0.35277777,-173.15811,134.99288)">
        <path
           d="m 0,0 9.1,5.4 m -14.3,4.2 9,5.3 M -0.1,0 9.1,5.4 m -14.4,4.2 9.1,5.3 m 1,-18.6 8.7,5.1 m -19.2,14.1 8.6,5 m 1.9,-24.2 8.7,5.1 m -19.2,14.1 8.6,5 m 7,-25.6 7.6,4.4 m -21.6,21 7.3,4.3 m 6.7,-29.8 7.7,4.5 m -21.7,21.1 7.3,4.3 m 11,-28.9 5.3,3.1 m -5.3,-3.2 5.4,3.2 m -227.9,32.3 0.3,1.6 -0.1,1.7 -0.4,1.5 -0.7,1.2 -0.9,0.8 -1,0.3 -1.1,-0.2 -0.9,-0.7 -0.8,-1.2 -0.6,-1.4 -0.2,-1.7 0.1,-1.6 0.4,-1.5 0.7,-1.2 0.9,-0.8 1,-0.3 1,0.2 1,0.7 0.8,1.1 0.5,1.5 m 1,-0.3 -0.6,-1.6 -0.8,-1.2 -1.1,-0.8 -1.1,-0.4 h -0.2 m 0.5,12.1 0.4,-0.1 1.1,-0.4 0.9,-1 0.7,-1.4 0.4,-1.6 v -1.8 l -0.2,-1.8 m 87.8,52.4 0.2,1.6 v 1.7 l -0.5,1.5 -0.6,1.2 -0.9,0.8 -1,0.3 -1.1,-0.2 -0.9,-0.7 -0.8,-1.2 -0.6,-1.4 -0.2,-1.7 0.1,-1.6 0.4,-1.5 0.7,-1.2 0.9,-0.8 1,-0.3 1,0.2 1,0.7 0.8,1.1 0.5,1.5 m 1,-0.3 -0.6,-1.6 -0.8,-1.2 -1.1,-0.8 -1.1,-0.4 h -0.2 m 0.5,12.1 0.4,-0.1 1.1,-0.4 0.9,-1 0.7,-1.4 0.4,-1.6 v -1.8 l -0.2,-1.8 m -66.5,-132.5 2.7,1.5 m 64.6,-34.6 2.7,1.6 m 0,-4.8 2.7,1.6 m 18.5,-7.2 2.3,1.3 m 5.5,-1.1 2.7,1.6 m -0.4,-2 2.7,1.6 m -5,98.5 2.7,1.6 m 64.6,-34.6 2.6,1.6 m 0,-4.9 2.7,1.6 m -8.1,26.8 -1.7,-1 M 5.1,-33.3 7.4,-32 m 5.5,-1.1 2.7,1.6 m -0.4,-2.1 2.7,1.6 m -4.4,15.4 -1.7,-1 m 17.2,15.1 2.7,1.6 m -143.9,72.7 -5.4,-3.1 m 7.9,-36.8 -1.5,-0.9 m 8.5,-9.8 -1.3,-0.8 m 4.1,-2.9 -3.9,-2.3 m -8.1,59.3 -5.4,-3.2 m -83.7,-51.6 -5.3,-3.1 m 12.2,-34.3 -5.3,-3.1 m 12.4,-7.4 -5.3,-3.2 m 5.3,-2.2 -5.4,-3.2 m 23.7,-2.6 -1.8,-1 m 11.3,0.3 -5.4,-3.2 m -36.1,65.7 -5.4,-3.2 m 51,-63.4 -5.4,-3.2 m 21.8,28.9 -3.7,-2.1 m 121.1,91.7 -1.3,-0.6 -1.4,-0.2 -1.6,0.3 -1.5,0.8 -1.5,1.2 -1.2,1.5 -0.9,1.7 -0.6,1.8 -0.2,1.8 0.2,1.7 0.7,1.4 0.9,1.1 1.3,0.6 1.5,0.2 1.5,-0.3 0.1,-0.1 m 5.8,-9.7 -0.2,-0.7 -0.6,-1.4 -1,-1.1 m -8.7,33 -0.2,-1.4 0.3,-1.5 0.7,-1.5 1,-1.3 1.2,-0.9 1.3,-0.5 h 1.3 l 0.7,0.3 m -5,8.6 -0.8,-0.7 -0.5,-1.1 m 2,-0.2 -0.1,-1.2 0.3,-1.3 0.7,-1.2 1,-0.9 1.1,-0.4 h 1 l 0.9,0.5 0.5,1 m -2.9,4.9 h -0.1 -1.1 l -0.8,-0.5 -0.5,-0.9 m -116.3,-114.3 0.9,-0.3 h 1.3 l 0.7,0.3 m -0.1,1.7 0.3,0.2 0.2,0.1 m 98.1,92.7 1.2,-1 1.3,-0.5 1.3,-0.1 0.9,0.3 m -5,8.6 -0.6,-0.5 -0.6,-1 -0.2,-1.4 0.1,-1.5 0.6,-1.5 1,-1.4 m 1.5,1.4 1,-0.8 1.1,-0.3 1,0.1 0.8,0.6 0.4,0.9 m -2.8,4.8 -0.4,0.1 -1,-0.2 -0.8,-0.6 -0.4,-0.9 -0.1,-1.3 0.5,-1.2 0.7,-1.2 m 33.7,-3.5 1.2,-0.9 1.3,-0.5 h 1.3 l 0.8,0.3 m -5.1,8.5 -0.7,-0.6 -0.5,-1.1 -0.2,-1.4 0.3,-1.5 0.6,-1.5 1,-1.3 m 1.5,1.5 1,-0.8 1.1,-0.3 1,0.2 0.7,0.7 0.4,0.7 m -2.9,4.9 -0.5,0.1 -1,-0.2 -0.8,-0.7 -0.3,-1.1 V 86 l 0.5,-1.3 0.8,-1 M -33,62.8 l 0.5,-1.6 0.8,-1.4 1.1,-1.1 1.3,-0.8 1.3,-0.3 1.2,0.2 0.3,0.2 m -5.1,8.5 -0.1,-0.1 -0.8,-0.9 -0.5,-1.3 v -1.4 m 2.1,0.3 0.4,-1.2 0.7,-1.2 1,-0.8 1.1,-0.4 1,0.1 0.8,0.6 0.5,0.9 m -2.9,4.8 -0.3,0.1 -1,-0.1 -0.8,-0.6 -0.5,-1 v -1.2 m -159.7,-63 -0.7,-0.6 -0.5,-1.2 -0.2,-1.4 0.3,-1.5 0.6,-1.5 1,-1.2 1.3,-1 1.3,-0.4 h 1.2 l 0.8,0.3 m 0.9,2.6 0.2,0.5 m -2.9,4.9 h -0.8 l -0.9,-0.3 -0.7,-0.7 -0.3,-1.1 0.2,-1.3 0.6,-1.2 0.8,-1.1 1.1,-0.6 1.1,-0.2 0.9,0.3 0.7,0.8 m 174.6,64.3 1.1,-1.1 1.3,-0.7 1.3,-0.3 1.2,0.2 0.3,0.2 m -5,8.5 -0.4,-0.2 -0.7,-0.9 -0.4,-1.3 v -1.5 l 0.5,-1.5 0.8,-1.4 m 1.7,1.3 0.9,-0.9 1.1,-0.5 1.1,-0.1 0.8,0.5 0.6,0.9 v 0.2 m -2.8,4.8 -0.1,0.1 H -7.8 L -8.6,64.3 -9.2,63.4 -9.3,62.2 -9,61 -8.3,59.8 m -166.4,-83.2 -0.7,-0.6 -0.6,-1.1 -0.2,-1.4 0.3,-1.5 0.7,-1.5 1,-1.3 1.2,-0.9 1.3,-0.5 h 1.3 l 0.7,0.3 m 0.9,2.6 0.2,0.5 m -2.9,4.9 -0.7,0.1 -1,-0.3 -0.7,-0.8 -0.2,-1.1 0.1,-1.3 0.6,-1.2 0.8,-1 1.1,-0.7 1.1,-0.2 0.9,0.3 0.7,0.8 m 16.1,5 -0.7,-0.6 -0.6,-1.2 -0.1,-1.4 0.3,-1.5 0.6,-1.5 1,-1.3 1.3,-0.9 1.3,-0.5 h 1.2 l 0.7,0.3 m 1,2.6 0.1,0.5 m -2.8,4.9 -0.8,0.1 -0.9,-0.3 -0.7,-0.8 -0.3,-1.1 0.2,-1.2 0.5,-1.3 0.9,-1 1.1,-0.6 1.1,-0.2 0.9,0.3 0.7,0.7 m -38.4,47.3 0.9,-1.4 1.1,-1.1 1.3,-0.6 1.3,-0.2 1.2,0.3 v 0.1 m -5,8.5 -0.4,-0.3 -0.7,-1 -0.3,-1.3 0.1,-1.5 0.5,-1.5 m 1.8,0.9 0.8,-1.1 1,-0.8 1.1,-0.4 1,0.1 0.8,0.6 0.4,0.9 m -2.9,4.9 h -0.3 l -1,-0.1 -0.8,-0.6 -0.4,-1 -0.1,-1.2 0.4,-1.3 m 83.2,18.4 0.4,0.3 m 0.2,-1.3 0.3,0.2 m 3.4,-6 0.3,0.1 m -1,0.8 0.4,0.2 m -6.4,10.9 0.2,0.2 m -0.6,0.9 0.2,0.1 m 11.3,-18.5 h 0.1 m -0.9,0.9 h 0.1 m -120.6,-49.7 -8.7,-5.1 m 11,-0.7 -8.7,-5.1 m 8.1,6.2 -8.7,-5.1 m 16.7,-5.2 -8.7,-5.1 m 5.1,8.5 -8.7,-5.1 m 8,6.1 -8.7,-5.1 m 2.1,17.2 -8.7,-5.1 m 9.2,4 -8.7,-5.1 m 7.2,11 -8.7,-5.1 m 20.7,-17.1 -8.7,-5.1 m 9.5,4.2 -8.7,-5.1 m 12.5,2.3 -8.7,-5.1 m -8.6,31.6 -8.7,-5.1 m 8.4,6.2 -8.7,-5.1 m 8.4,9.8 -8.7,-5.1 m 27.8,-28.8 -8.8,-5.1 m 7.9,5.8 -8.7,-5.1 m 13.6,2.3 -8.7,-5.1 m -15.1,41.8 -8.7,-5.1 m 8.6,6.2 -8.7,-5.1 m 9.1,9.5 -8.7,-5.1 m 32.5,-38 -8.7,-5.1 m 9.7,4.6 -8.7,-5.1 m 12.8,3.7 -8.7,-5.1 m -20.8,50.9 -8.7,-5.1 m 8.8,6.2 -8.7,-5.2 m 9.8,9.2 -8.8,-5.1 m 37.6,-46.6 -8.8,-5.1 m 9.7,4.7 -8.7,-5.1 m -21.5,58.1 -8.7,-5.1 m 42.9,-48.4 -8.7,-5.1 m -25.3,59.6 -8.7,-5.2 m 32.3,-53.4 -1,0.1 m -3.9,0.6 -0.2,0.1 -2.9,0.9 m -2.3,1 -1.5,0.7 -3.3,2 -3.1,2.4 -2.9,2.7 -2.8,3.1 -2.4,3.3 -2.2,3.5 -1.8,3.8 -1.5,3.8 -1.1,3.9 -0.7,3.9 -0.3,3.4 m -0.1,1.8 0.2,2.4 0.1,1.6 m 0.6,2.8 0.7,2.4 v 0.2 m 10.5,11.7 -8.7,-5.1 m 41.6,-53.7 -8.7,-5.1 m 9.7,5 -8.7,-5.1 m -25.5,64.9 -8.7,-5.1 m 45,-55.4 -7.2,-4.2 m -28.7,65.6 -8.7,-5.1 m 10,7.4 -7.8,-4.5 m 43.3,-59.7 -7.4,-4.4 m 7.9,4.1 -7,-4.1 m -28.6,70 -8.3,-5 m 45.1,-61.1 -5,-2.9 m -31.5,69.6 -8.1,-4.8 m 8.8,5.7 L -218,9 m 42.9,-64.5 -5.1,-3 m 5.4,2.9 -4.6,-2.7 m -31.8,72.2 -6.8,-4 m 7,4.4 -6.4,-3.8 m 43.7,-66.2 -2.2,-1.3 m 157.2,103.8 -3.6,1.7 -3.6,2.1 -3.4,2.5 -3.2,2.9 -3.1,3.2 -2.8,3.5 -2.5,3.7 -2.3,4 -1.9,4.1 -1.6,4.1 -1.2,4.3 -0.8,4.2 -0.4,4.2 v 4.1 l 0.4,3.9 0.8,3.7 1.1,3.5 1.6,3.2 1.8,2.9 2.3,2.5 2.5,2.1 2.8,1.7 3,1.3 3.3,0.8 3.4,0.3 3.5,-0.1 3.6,-0.6 3.6,-1.1 3.6,-1.5 3.6,-1.9 3.5,-2.3 3.3,-2.7 3.2,-3 2.9,-3.4 2.7,-3.6 2.4,-3.9 2.1,-4 1.7,-4.1 1.4,-4.2 1,-4.3 0.6,-4.2 0.2,-4.1 -0.2,-4 -0.5,-3.9 -1,-3.6 L 13.7,57.5 12,54.4 10,51.7 7.6,49.4 4.9,47.5 2,46 l -3.1,-1 -3.4,-0.6 -3.4,-0.1 -3.6,0.4 -3.6,0.8 -3.6,1.3 m -23.5,61.2 0.4,0.6 2.2,2.2 2.5,1.8 2.8,1.4 3,0.9 3.2,0.5 h 3.3 l 3.4,-0.5 3.5,-1 3.4,-1.4 3.4,-1.9 3.3,-2.2 3.1,-2.7 3,-2.9 2.7,-3.3 2.4,-3.6 2.1,-3.7 1.8,-3.9 1.4,-4 1.1,-4 0.6,-4 0.2,-3.9 -0.1,-3.9 -0.6,-3.6 -1,-3.4 -1.3,-3.1 -1.8,-2.8 -2,-2.4 -2.4,-2 -2.7,-1.7 -2.8,-1.1 -2.8,-0.7 m -158.5,-109.4 1.5,1.5 m -3,-1 1.6,1.6 m -42.3,82.4 -1.2,-0.1 -3.6,-0.5 -3.5,-0.9 -3.3,-1.4 -3.1,-1.8 -2.7,-2.3 -2.5,-2.6 -2.2,-3 -1.8,-3.4 -1.4,-3.6 -1.1,-4 -0.6,-4.1 -0.3,-4.3 0.1,-4.5 0.5,-4.5 1,-4.7 1.3,-4.6 1.6,-4.5 2.1,-4.5 2.3,-4.3 2.7,-4.1 2.9,-3.9 3.2,-3.6 3.4,-3.4 3.6,-3 3.8,-2.6 3.8,-2.2 3.9,-1.8 4,-1.4 3.9,-0.9 3.9,-0.4 h 3.8 l 3.7,0.5 3.4,0.9 3.3,1.4 3.1,1.9 2.7,2.2 m -3.8,3.3 0.7,0.7 m -38.1,74.9 -2.7,-0.3 -3.4,-0.8 -3.2,-1.3 -3,-1.7 -2.7,-2.2 -2.3,-2.5 -2.1,-3 -1.6,-3.2 -1.3,-3.6 -0.9,-3.9 -0.5,-4 -0.1,-4.3 0.3,-4.3 0.7,-4.4 1.1,-4.4 1.5,-4.4 1.9,-4.3 2.3,-4.2 2.5,-4 2.8,-3.8 3.1,-3.4 3.3,-3.2 3.5,-2.8 3.7,-2.4 3.7,-2 3.8,-1.6 3.8,-1.1 3.7,-0.6 3.7,-0.2 3.6,0.4 3.4,0.8 3.2,1.2 2.9,1.8 2.7,2.1 m 5.8,104 1.1,0.4 1.2,-0.1 1.1,-0.5 1,-1.1 0.7,-1.4 0.5,-1.7 0.1,-1.9 -0.2,-1.9 -0.5,-1.7 -0.7,-1.5 -1,-1.1 -1.1,-0.7 -1.2,-0.2 -1.2,0.3 -1,0.8 -0.9,1.3 -0.6,1.6 -0.3,1.8 0.1,1.9 0.3,1.8 0.6,1.6 0.9,1.4 1.1,0.9 m 7.3,9.9 -1.8,-1.5 -0.7,-0.9 m -1,-28.6 1.5,-1.7 1.7,-1.4 1.8,-0.9 1.9,-0.5 1.9,0.1 1.9,0.6 1.9,1.1 1.7,1.5 1.5,2 1.4,2.3 1,2.7 0.8,2.8 0.5,3 0.2,3.1 -0.1,3.1 -0.5,2.9 -0.7,2.8 -1,2.5 -1.3,2.2 -1.5,1.9 -1.7,1.4 -1.9,0.9 -1.9,0.4 -1.9,-0.1 -1.9,-0.6 -1.8,-1.1 m -0.2,-2.2 -1.6,-1.5 -1.5,-1.9 -0.7,-1.3 m -1.1,-18.5 0.6,-1.4 1.2,-2.1 1.4,-1.7 1.6,-1.2 1.7,-0.8 1.8,-0.3 1.8,0.2 1.8,0.8 1.6,1.2 1.6,1.7 1.3,2.1 1.1,2.4 0.7,2.6 0.5,2.8 0.2,2.9 -0.1,2.9 -0.5,2.7 -0.8,2.6 -1.1,2.2 -1.3,2 -1.5,1.5 -1.6,1 -1.8,0.5 -1.8,0.1 -1.8,-0.5 -1.7,-1 m 42.8,-32.7 -55.7,-32.7 m -0.3,0.6 55.7,32.7 m -42.8,-3.9 -23.3,-13.7 m 50.2,25.9 -0.7,-2.1 -1.2,-2.8 -1.5,-2.4 -1.8,-2.1 -1.8,-1.7 -2.1,-1.2 m 18.6,21.5 -7.5,-4.5 m -1,-0.4 v 0.1 0.1 0.2 l 0.1,0.2 m 7.8,25.8 0.6,-1.3 m -0.5,-2.2 -0.3,0.4 m -0.1,3.4 -0.2,-0.1 h -0.2 l -0.2,-0.1 -0.2,-0.1 -0.2,-0.1 m 2.3,0.3 -1,0.1 m -5.8,-24.9 0.1,0.4 m 0.8,0.5 5.5,3.2 m -42.5,-12.4 -0.3,-1.4 -0.8,-3.3 -1,-3.3 -1.3,-3 m 6.8,55.7 -0.2,-0.9 -0.7,-4.8 -0.6,-4.9 -0.5,-5 m 4.4,28.7 -1.4,-7.6 m 2,9.6 h -0.1 v -0.1 h -0.1 v -0.1 m 9.8,5.9 -8.5,-5 m 10,5.6 v 0 0.1 h -0.1 m 5.1,-5.7 -4.3,4.9 m 20.4,-29 h -0.1 l -1.9,3.8 -2,3.6 -2.2,3.5 -2.2,3.4 m -8.7,-18.2 1.1,0.2 2.1,-0.1 2.1,-0.6 2,-1.2 1.8,-1.6 1.6,-2.1 1.4,-2.5 m -38.6,-40.1 11.7,6.9 m 10.4,-0.3 2,-0.8 1.5,-0.2 m 3.3,41.5 h -0.5 m 3.4,26.2 v 0 l 2.4,-3.1 2.3,-3.2 2.3,-3.4 2.1,-3.6 m -11.7,16.2 -0.2,-0.1 -0.2,-0.1 -0.2,-0.1 -0.1,-0.1 -0.2,-0.1 m 10.5,-53.7 v 0 m 3,53.6 -10.8,0.5 m -6,-67.8 0.7,-0.5 1.9,-1 1.9,-0.6 m 3.7,39.9 -1.5,0.2 -2,-0.3 -2,-0.7 -1.1,-0.7 m 14.4,-20.3 v 0 m -13.1,-15.4 0.6,-0.3 1.9,-0.3 1.9,0.2 0.4,0.1 m 5.3,32.3 -1.6,1.4 -1.7,1.1 -1.9,0.6 -1.9,0.1 -1.5,-0.3 m -5,37.9 4.3,-4.8 m -5.1,5.5 h -0.2 l -0.1,-0.1 -0.2,-0.1 -0.2,-0.1 -0.1,-0.2 m 20,-5.6 -4.3,4.8 m -2.3,0.8 -10.8,0.5 m -2,0.3 v 0 l 0.2,-0.1 m -1.3,-0.2 h -0.1 v -0.2 l -0.1,-0.2 m -23.6,-82.9 v -0.2 m 39.3,83 v 0 l -0.2,0.1 m -26.2,-6.5 v 0.1 0.1 0.2 m 26.5,5.9 h 0.1 m -28.9,-17.6 h -0.1 m -10.6,-65.2 -0.8,-0.7 m 13.5,76.6 h -0.1 m 40.1,10 1.5,-1.2 m -2,1.7 -0.3,0.1 -0.5,0.3 m -19.9,0.8 16.3,-0.5 m -22.3,23.4 2.8,-19 m -1.2,-0.5 -2.5,16.9 M -151,97 l 6.4,1.5 m -10.3,10.2 2.1,-10 m 4.8,22.2 -6,-8.4 m 18.7,19.9 2.2,4.3 m 4.7,-1 -2.1,-4.3 M -143,98.9 h 0.1 0.2 0.2 0.1 0.2 m -0.5,-2.1 v 0 0.2 l -0.1,0.2 -0.1,0.3 -0.1,0.3 m -1,-1.4 -6.4,-1.6 m -1.9,1.6 v 0 l 0.1,-0.4 0.1,-0.3 v -0.3 l 0.1,-0.3 m -24.1,16.4 -2.1,-4.3 m 15.6,-19.2 0.9,-2.4 m 8.8,8.3 -8.6,-5.1 m 37.9,7.4 -16.4,0.4 m 12,-4.6 6.1,3.6 m -39.4,-10.1 2.3,-0.1 m 6.4,11.2 h -0.1 -0.2 l -0.1,-0.1 -0.2,-0.1 m -0.7,1.9 -2.1,10 m 0.5,2.4 h -0.1 l -0.2,-0.1 h -0.2 l -0.1,-0.1 m -10.8,-8.6 2,-10 m 7.3,17.8 -8.6,-5.1 m 2.9,-14.1 8.6,5.1 m -0.8,15.2 v 0.1 l -0.2,0.1 -0.1,0.1 h -0.2 m 1.2,2.4 7.2,10 M -120.3,98 v -0.3 l -0.1,-0.4 -0.1,-0.3 -0.1,-0.3 -0.1,-0.3 m -21.2,2.2 v -0.4 -0.3 l -0.1,-0.3 -0.1,-0.3 -0.2,-0.3 m -25.8,15.1 0.8,-6.7 m 1.1,0.2 8.7,5.1 m 5.4,-16.1 -0.2,0.1 -0.3,0.1 -0.3,0.3 -0.2,0.2 -0.2,0.3 m -11,-6.1 0.1,-0.3 0.2,-0.3 0.2,-0.2 0.3,-0.3 0.3,-0.1 m 6.8,22.9 -0.1,-0.1 v -0.1 -0.1 -0.2 m -10.8,-5.9 -0.1,-0.1 v -0.1 -0.1 -0.2 m -0.3,-0.8 v 0.1 m 2.9,-14.1 v 0 0.1 m 1.8,-1.5 h -0.4 l -0.3,0.1 -0.3,0.1 -0.3,0.2 m 0.8,-2.3 v 0 l 0.3,-0.3 0.2,-0.2 0.3,-0.1 0.4,-0.1 m 43.7,11.7 -0.1,-0.2 -0.2,-0.3 -0.2,-0.3 -0.3,-0.2 -0.2,-0.2 m -0.6,-0.2 h -0.1 l -0.2,0.2 -0.3,0.1 m 2,-1.5 -1,0.9 m -1.1,-0.3 -6.5,-3.8 m -40,13.4 v 0 l -0.1,-0.2 -0.1,-0.2 -0.1,-0.2 v -0.1 m 6,-18.6 -0.1,-0.1"
           style="fill:none;stroke:#000000;stroke-width:0.51;stroke-linecap:round;stroke-linejoin:round;stroke-miterlimit:10;stroke-dasharray:none;stroke-opacity:1"
           id="path958" />
      </g>
      <g
         id="g960"
         transform="matrix(0.35277777,0,0,-0.35277777,-161.23422,133.51121)">
        <path
           d="m 0,0 0.5,0.8 m -18.1,30.8 h -0.8 M -7.4,3.7 -3.6,6 m -11.5,19.5 -3.8,-2.2 m -18.9,-24.7 11.7,6.9 m -1,1.8 -11.8,-6.9 m 5.1,-6.9 11.7,6.9 m -7.2,12.9 -11.6,-6.8 m -3,9.9 -0.2,-0.3 M -26,-14.8 h 0.9 m 13.1,-12.3 0.3,1.3 -0.1,1.2 -0.3,1.2 -0.5,1.1 -0.7,1 -0.9,0.9 -1.1,0.6 -1.2,0.4 m -2.3,-0.3 -0.4,-0.2 m 5.5,-9.3 0.3,0.2 m -7.3,5.2 -0.6,-0.3 m -25.7,14.2 0.2,1.2 v 1.3 l -0.3,1.2 -0.5,1.1 -0.7,1 -0.9,0.8 -1.1,0.7 -1.2,0.4 m -2.3,-0.3 -0.4,-0.2 m 5.5,-9.3 0.3,0.2 m -7.3,5.2 -0.6,-0.3 m -188.1,41.6 h -0.8 l -1,-0.5 -0.9,-0.8 -0.8,-1.2 -0.5,-1.5 -0.3,-1.6 0.1,-1.7 0.3,-1.5 0.7,-1.4 0.9,-1 0.9,-0.6 0.9,-0.1 m 0,-0.1 5,-0.2 m 0.5,12.1 -5,0.2 m 31.3,-3.9 -1.4,0.1 m 58.8,55.8 h -0.7 l -1,-0.5 -1,-0.8 -0.7,-1.2 -0.5,-1.5 -0.3,-1.6 0.1,-1.7 0.3,-1.5 0.7,-1.4 0.9,-1 0.9,-0.6 0.9,-0.1 m 0,-0.1 5,-0.2 m 0.5,12.1 -5,0.2 m -58.5,-75.2 2.2,1.3 m -2.9,4.9 -2.2,-1.3 m 12.4,-50.9 2.3,1.4 m -2.9,4.8 -2.2,-1.3 m -13,18.6 2.2,1.3 m -2.8,4.9 -2.3,-1.3 m 40.8,-29.3 2.2,1.3 m -2.8,4.9 -2.3,-1.3 m 179.8,41.6 2.9,1.8 m -5.7,9.8 -4.1,-2.5 m -41.1,-82.4 34.7,20.4 m -82,-48.2 34.7,20.4 m -58.8,69 -21.1,-12.3 m -12.2,-17.7 -1.7,-7 m 30.8,-52.4 7,-2 M -3.3,-6.9 0,-5 m -189.2,-47.4 6.8,3.9 m 127.3,113.7 0.7,0.7 0.9,1.3 0.6,1.5 0.2,1.7 v 0.3 m -5.4,9.4 -0.2,0.1 -1.7,0.7 -1.7,0.2 -1.7,-0.2 -1,-0.4 m -6,-2.6 -1.6,-1 m -0.2,-0.1 -0.2,0.5 -0.4,0.7 m 0.7,0.8 -0.1,-0.2 -0.1,-0.9 0.1,-0.9 m 14.6,16.4 0.5,0.2 0.8,0.9 0.4,1.1 0.2,1.3 -0.1,0.5 m -2.4,4 -0.5,0.3 -1.3,0.6 h -1.2 l -1.1,-0.3 -0.2,-0.1 m 0,0 -1.8,-1 m 5.1,-8.6 1.7,1 m -117.7,-107.6 0.3,0.1 0.8,0.9 0.2,0.4 0.3,0.7 0.1,0.6 m -3.4,-3.8 1.7,1 m 103.2,93.4 0.3,0.2 0.8,0.9 0.5,1.1 0.2,1.2 -0.1,0.9 m -2.2,3.7 -0.5,0.3 -1.3,0.6 -1.2,0.1 -1.1,-0.2 -0.4,-0.3 m 0,0.1 -1.7,-1 m 5,-8.6 1.7,1 m 35.1,-1.8 0.4,0.2 0.8,0.9 0.4,1.1 0.1,1.3 -0.1,0.8 m -2,3.4 -0.8,0.6 -1.4,0.5 -1.2,0.1 -1.1,-0.4 -0.1,-0.1 m 0,0.1 -1.8,-1.1 m 5,-8.5 1.8,1 m -23.4,-23.1 0.7,0.6 0.7,1 0.3,1.2 v 1.3 l -0.1,0.3 m -1.9,3.3 -0.2,0.2 -1.3,0.8 -1.2,0.3 -1.2,-0.1 -0.9,-0.4 m 0.1,0 -1.8,-1 m 5,-8.6 1.8,1.1 m -159.1,-66.4 0.3,0.1 0.9,0.9 0.2,0.4 0.3,0.8 0.1,1.3 v 0.2 m -2.6,4.5 -0.2,0.1 -1.3,0.6 -1.3,0.1 -1.1,-0.3 -0.3,-0.2 m 0.1,0 -1.8,-1 m 5,-8.6 1.8,1.1 m 180.7,65.2 0.7,0.6 0.6,1 0.4,1.2 -0.1,1.3 v 0.2 m -2,3.5 -0.1,0.1 -1.3,0.8 -1.2,0.3 -1.2,-0.1 -0.8,-0.4 m -0.1,0 -1.7,-1 m 5,-8.6 1.7,1.1 m -164.8,-88.7 0.2,0.2 0.9,0.8 0.2,0.4 0.3,0.8 0.2,1.3 -0.1,0.3 m -2.6,4.5 -0.2,0.1 -1.3,0.5 -1.2,0.1 -1.2,-0.3 -0.2,-0.2 m 0,0.1 -1.8,-1.1 m 5.1,-8.5 1.7,1 m 22,-0.9 0.3,0.1 0.9,0.9 0.2,0.4 0.3,0.7 0.1,1.3 v 0.3 m -2.6,4.5 -0.2,0.1 -1.4,0.6 h -1.2 l -1.1,-0.3 -0.3,-0.2 m 0.1,0.1 -1.8,-1 m 5,-8.6 1.8,1 m -31.7,47 0.9,0.7 0.6,1.1 0.3,1.2 -0.1,0.9 m -2.6,4.3 -1,0.5 -1.2,0.3 -1.2,-0.2 -0.7,-0.4 m 0,0.1 -1.7,-1 m 5,-8.6 1.7,1.1 m 175.1,68.8 1.9,1.1 m -2.9,4.9 -1.9,-1.1 m -20.5,-28 1.9,1.1 m -2.9,4.9 -1.9,-1.1 m -8.7,20.2 1.9,1.1 m -2.9,4.9 -1.9,-1.2 m 36.2,-31.1 1.9,1.1 m -2.9,4.9 -1.9,-1.1 m -16,35.7 2.1,1.2 m -2.9,4.9 -2,-1.3 m 17.1,-54 0.3,0.2 M -75.6,99.7 -76.7,99 m -55.9,-68.3 v 0.1 m -1.2,2.1 v 0 m 4.9,-7.9 v 0 m -124.4,-65.7 11,6.5 m -1.2,2.1 -11,-6.5 m 4.9,-7.8 11,6.5 m -7.8,14 -11,-6.5 m 12.2,-19.1 11,6.5 m -14.2,25.4 -11,-6.4 m 19.1,-29.8 11,6.4 m -20.2,36.2 -11,-6.5 m 25.5,-39.6 11,6.4 m -25.6,45.9 -11,-6.5 m 31,-48.3 11,6.4 m -30.2,54.2 -11,-6.5 m 35.7,-55.6 10.9,6.4 m -45.7,46.6 -0.4,-0.8 -0.5,-1.9 m -0.5,-2.6 -0.3,-1.9 -0.1,-3.5 0.2,-3.6 0.6,-3.7 0.9,-3.6 1.3,-3.6 1.6,-3.6 2,-3.4 2.1,-3.2 2.5,-3 2.6,-2.7 2.9,-2.5 2.9,-2.1 3.1,-1.8 1.2,-0.5 m 2.1,-0.9 3.1,-0.9 h 0.2 m 3.8,-0.6 h 1.1 M -247,4 -258,-2.4 m 39.2,-61.2 8.8,5.2 m -35.2,66.5 -10.2,-6 m 41.6,-64.9 5.8,3.4 m -35.9,70 -8.1,-4.8 m 183.7,-3.7 47.4,27.8 m -57.4,97.8 -47.4,-27.8 m 84.7,-56.3 -1.5,-0.3 -2.9,0.1 -3,0.4 -3.1,0.8 -2.2,0.8 m 0,0 -1.5,0.7 -3.1,1.6 -3,2 -2.9,2.4 -2.8,2.6 -2.6,2.9 -2.4,3.2 -2.2,3.3 -1.9,3.6 -1.6,3.6 -1.3,3.7 -1,3.7 -0.7,3.7 -0.3,3.6 v 3.4 l 0.4,3.4 0.6,3 1,2.9 1.3,2.6 1.5,2.3 0.2,0.2 M -257.6,22.5 -305,-5.3 m 57.4,-97.8 47.4,27.8 m 4.9,119.6 h -0.6 l -1.4,-0.3 -0.9,-0.4 m 1.1,-17.1 h 0.2 l 0.8,-0.1 m -2.1,17.2 -0.8,-0.6 -1.1,-1.2 -0.9,-1.5 -0.7,-1.8 -0.4,-2 v -2 l 0.2,-2 0.6,-1.8 0.8,-1.7 1.1,-1.2 1.2,-0.9 1.1,-0.4 m 14.7,28.9 -1.9,-0.1 -2.2,-0.5 -2.2,-0.8 -1.9,-1.2 m -5.1,-30.6 0.1,-0.4 1.7,-2.3 1.7,-1.8 1.8,-1.5 2.1,-1 2.3,-0.8 1.9,-0.1 m -6.5,38.5 -1.3,-1.1 -1.7,-1.9 -0.7,-0.9 m 17.2,-31.8 4.6,-0.2 m 1.5,34.8 -4.6,0.3 m 119,16.1 3.3,2 m -5.8,9.7 -3.2,-1.9 m -134.3,-103.3 58.5,34.3 m -16.6,27.3 -9,-5.3 m -0.5,-0.8 -0.3,-1.5 -0.8,-2.9 -1,-2.6 -1.2,-2.4 -1.3,-2.1 -1.6,-1.8 -1.6,-1.4 -1.7,-0.9 -1.8,-0.6 -1.8,-0.2 m 4.4,41.4 0.8,-0.1 1.8,-0.7 1.7,-1.1 1.6,-1.5 1.4,-1.9 1.2,-2.2 1,-2.5 0.8,-2.7 0.5,-2.9 0.2,-3 v -3.1 l -0.1,-1 m 0,0 v -0.1 l -0.2,-0.5 m -1.5,-0.9 -0.1,-0.1 -0.1,-0.1 -0.1,-0.1 -0.1,-0.1 v -0.1 l -0.1,-0.1 v -0.1 -0.1 m -25.3,-14.3 -29.1,-17.1 m 52.9,91.5 -1.1,0.1 m -12,0.5 h -0.8 m -1,-0.2 -0.6,-0.3 m -9.5,-5.6 -0.6,-0.3 m 32.1,-0.9 -5.5,6.3 m -29.4,-17.4 -0.7,-3.8 -1.1,-7.4 -0.8,-7.4 -0.6,-7.5 V 45 m -0.2,-12.2 v -0.6 m -0.4,-5.8 -0.4,-2.8 -0.7,-3.6 -1,-3.3 -1.3,-3.2 -1.5,-2.9 -1.7,-2.6 -1.5,-2 m 13.9,77.1 -2,-10.7 m 29.4,17.3 -0.2,0.2 -0.2,0.2 -0.3,0.1 h -0.3 m -25.7,-5.9 -0.3,-0.2 -0.2,-0.3 -0.1,-0.3 -0.1,-0.4 m 25.6,7.2 -0.3,1.3 m -24.2,-5.1 0.3,-1.8 m -10.8,14.6 2.9,-14.1 m 0,0 v 0 -0.1 l 0.1,-0.1 v -0.1 m 0,0 1.1,-2.6 m -4.9,23.8 0.8,-6.6 m 0,0 v -0.1 -0.1 m 4.1,-17 v -0.1 l 0.1,-0.1 0.1,-0.1 v -0.1 l 0.1,-0.1 0.1,-0.1 m 0,0 0.2,-0.1 0.1,-0.1 0.1,-0.1 0.1,-0.1 h 0.2 0.1 l 0.2,-0.1 h 0.1 m 0,0 3.4,-0.2 m -17.7,26.3 -2.8,-5.6 M -3.9,-3.5 l 1.9,1.3 1.6,1.6 1.2,2 0.9,2.3 0.5,2.6 0.1,2.8 -0.2,2.8 -0.7,3 -1.1,2.8 -1.4,2.8 -1.7,2.6 -2,2.3 -2.2,2.1 -2.4,1.6 -2.4,1.3 -2.5,0.8 -2.5,0.4 h -1.6 m -8.2,-5 -1,-2.1 -0.7,-2.5 -0.4,-2.7 0.1,-2.8 0.5,-2.9 0.9,-2.9 1.2,-2.8 1.6,-2.7 1.8,-2.5 2.1,-2.2 2.3,-1.8 2.5,-1.5 2.4,-1.1 2.5,-0.6 2.5,-0.1 2.3,0.3 2.1,0.8 m -0.6,-0.9 1.9,1.3 1.7,1.7 L 0,0 m -28.1,25.7 -0.7,-1.4 -0.7,-2.5 -0.3,-2.8 0.1,-2.9 0.4,-3 0.9,-2.9 1.3,-2.9 1.6,-2.8 1.9,-2.5 2.2,-2.3 2.3,-1.9 2.5,-1.5 2.5,-1.1 2.6,-0.6 2.5,-0.1 2.3,0.3 2.2,0.8 m -3.2,7.9 0.3,0.2 m -11.5,19.6 -0.4,-0.3 -1.3,-1.2 -1,-1.7 -0.5,-1.9 -0.1,-2.2 0.2,-2.3 0.8,-2.2 1,-2.2 1.4,-2 1.7,-1.7 1.9,-1.4 1.9,-0.9 2,-0.4 1.9,0.1 1.7,0.5 m 3.8,2.3 -1.7,-0.6 -1.9,-0.1 -2,0.5 -1.9,0.9 -1.9,1.3 -1.6,1.7 -1.5,2 -1,2.2 -0.7,2.3 -0.3,2.3 0.1,2.1 0.5,2 1,1.6 1.3,1.2 1.5,0.8 1.8,0.4 2,-0.2 1.9,-0.7 2,-1.1 1.7,-1.5 0.6,-0.6 m 2.1,-3.1 0.1,-0.3 0.9,-2.3 0.5,-2.3 0.1,-2.2 -0.3,-2 -0.8,-1.8 -1.1,-1.5 -1.4,-1 m 0.1,1.7 1.3,1 1,1.3 0.7,1.6 0.2,1.9 -0.1,2.1 -0.3,1.4 m -3.4,5.7 -0.4,0.4 -1.7,1.3 -1.7,0.9 -1.8,0.4 -1.7,-0.1 -1.6,-0.5 -1.3,-0.9 -1,-1.3 -0.6,-1.7 -0.3,-1.9 0.2,-2 0.5,-2.1 0.9,-2 1.2,-1.9 1.5,-1.6 1.6,-1.2 L -8.8,7.4 -7,7 h 1.7 l 1.5,0.5 m -6.8,15.8 -2.7,-1.4 m 0,0 0.9,-1.8 m 0,0 -0.5,-1.2 -0.1,-1.5 0.3,-1.6 0.6,-1.6 1.1,-1.4 1.2,-1.1 1.4,-0.6 1.4,-0.2 1.2,0.4 h 0.2 m -4.3,10.7 -0.7,1.3 m -28.4,-23 11.9,7 m 0.9,-1.7 -11.9,-7 m 0,0 -0.1,0.2 -0.1,0.2 -0.1,0.2 -0.2,0.2 -0.1,0.2 -0.1,0.2 -0.1,0.3 -0.1,0.2 m 0.9,-1.7 h 0.1 0.1 0.1 m -1.1,1.8 v 0 -0.1 H -39 m 4,-5.2 0.3,0.6 0.1,0.8 -0.1,0.8 -0.5,0.8 -0.6,0.6 -0.7,0.3 h -0.7 m -0.7,2 0.2,0.3 0.1,0.8 -0.2,0.8 -0.4,0.8 -0.6,0.6 -0.7,0.3 -0.7,0.1 m 5,-9.9 11.8,6.9 m 1.3,-1.3 -11.7,-6.9 m 0,0 -0.2,0.2 -0.2,0.1 -0.2,0.2 -0.1,0.1 -0.2,0.2 -0.1,0.2 -0.2,0.1 -0.2,0.2 m 0.1,0.3 v 0 -0.1 l -0.1,-0.1 v -0.1 m 0.2,0.3 h -0.1 m -5.5,9.6 v 0 h 0.1 0.1 0.1 m 11.4,6.9 -11.7,-6.9 m -0.3,1.8 11.6,6.8 M -40.6,4.7 V 5 l -0.1,0.2 v 0.2 l -0.1,0.2 v 0.3 l -0.1,0.2 v 0.2 0.2 m 7.1,-13 v 0 m -6.4,11.2 h -0.1 m 10.2,-13.2 v 0.7 l -0.2,0.9 -0.4,0.7 -0.6,0.6 -0.6,0.3 m 18.7,27 2.6,1.6 M -40.9,6.5 v 0 m 2.1,1.3 V 8 l -0.1,0.8 -0.4,0.8 -0.6,0.7 -0.7,0.3 m 10.5,-19.6 11.3,6.7 m 1.2,-0.8 -11,-6.5 m 0,0 h -0.2 l -0.2,0.1 -0.2,0.1 -0.2,0.1 h -0.2 l -0.2,0.1 -0.2,0.1 -0.1,0.1 m -0.1,0.4 v -0.1 -0.1 -0.1 l 0.1,-0.1 m 0,0.5 -0.1,-0.1 m -10.8,19.5 0.1,-0.1 0.1,-0.1 h 0.1 v -0.1 m 10.9,6.8 -11.2,-6.5 m 0.3,1.6 10.9,6.3 m -11.2,-7.9 0.1,0.2 v 0.2 0.2 l 0.1,0.2 v 0.2 0.2 l 0.1,0.2 v 0.2 m 0.1,-1.9 h -0.1 m 15.8,-20.5 -0.3,0.8 -0.4,0.7 -0.3,0.4 m -12,22.1 v 0 l -0.3,0.8 -0.6,0.7 m 14,-26 10,5.9 m 0.9,-0.3 -9.4,-5.5 m 0,0 h -0.2 l -0.2,-0.1 h -0.2 -0.2 -0.1 -0.2 -0.2 -0.2 m -0.1,0.4 v -0.1 -0.1 -0.1 h 0.1 v -0.1 m -0.1,0.5 V -10 m -14.2,25.9 v 0 -0.1 h 0.1 v -0.1 l 0.1,-0.1 m 9.4,6 -9.6,-5.7 m 0.9,1.1 8.8,5.2 m -9.7,-6.3 0.1,0.2 0.1,0.1 0.1,0.2 0.1,0.1 0.1,0.2 0.1,0.1 0.1,0.1 0.2,0.1 m -0.6,-1.4 h -0.1 m 18.6,-24.4 -0.1,0.2 m 0.4,-0.6 7,4.1 m -7.3,-3.8 h 0.1 V -9 l 0.1,-0.1 0.1,-0.1 m -0.3,0.4 v -0.1 m -15.1,28 V 19 18.9 l 0.1,-0.1 m 6,3.8 -6.1,-3.5 m 1.6,3.3 1.7,-0.2 1.5,-0.3 m 16.2,-27.8 -0.5,-1.5 -1.1,-2.3 -1.4,-1.8 -1.8,-1.5 -2.1,-1.1 -2.3,-0.5 -2.4,-0.1 -2.5,0.3 -2.6,0.9 -2.5,1.3 -2.4,1.7 -2.3,2.1 -2,2.4 -1.8,2.6 -1.4,2.9 -1.1,2.9 -0.7,3 -0.3,2.9 0.1,2.9 0.6,2.6 0.9,2.4 0.1,0.2 m 5.7,0.6 0.3,0.4 0.3,0.3 0.3,0.2 0.4,0.3 0.4,0.2 0.3,0.3 0.4,0.2 0.4,0.2 m -5.3,-6.6 0.2,0.4 0.1,0.5 0.2,0.5 0.2,0.4 0.2,0.4 0.2,0.5 0.2,0.4 0.3,0.3 M -40.9,6.5 -41,7.1 v 0.5 l -0.1,0.6 v 0.5 0.6 0.5 l 0.1,0.6 v 0.5 m 2,-10.6 -0.2,0.5 -0.3,0.6 -0.2,0.5 -0.2,0.6 -0.2,0.5 -0.2,0.6 -0.2,0.6 -0.1,0.5 m 5.4,-9.9 -0.4,0.4 -0.4,0.5 -0.4,0.4 -0.3,0.5 -0.4,0.5 -0.3,0.5 -0.4,0.5 -0.3,0.5 m 8,-7.6 -0.5,0.3 -0.5,0.2 -0.5,0.3 -0.4,0.3 -0.5,0.3 -0.5,0.4 -0.4,0.3 -0.4,0.4 m 9,-3.9 h -0.5 l -0.4,0.1 h -0.5 l -0.5,0.1 -0.5,0.1 -0.5,0.1 -0.4,0.2 -0.5,0.2 m 8.6,0.4 -0.4,-0.2 -0.4,-0.2 -0.4,-0.2 -0.4,-0.1 -0.4,-0.1 -0.5,-0.2 h -0.4 l -0.4,-0.1 m -2.7,-4.5 h -0.9 l -2.4,0.4 -2.5,0.8 -2.5,1.3 -2.4,1.7 -2.2,2 -2,2.3 -1.7,2.6 -1.4,2.8 -1,2.9 -0.7,2.9 -0.3,2.9 0.1,2.7 0.5,2.6 0.9,2.3 0.4,0.7 m 31.5,-41.2 0.2,0.8 -0.1,1 -0.5,0.9 -0.6,0.8 -0.8,0.5 -0.9,0.2 -0.7,-0.3 -0.5,-0.6 -0.2,-0.8 0.1,-1 0.4,-0.9 0.7,-0.8 0.8,-0.5 0.8,-0.2 0.8,0.3 0.5,0.6 m 0.4,-2.6 0.2,0.6 m -4.5,7.7 -0.4,0.1 -1.2,-0.1 -1.1,-0.6 -0.8,-1 -0.4,-1.3 v -1.5 l 0.5,-1.6 0.8,-1.5 1.1,-1.2 1.3,-0.9 1.3,-0.4 1.3,0.1 1.1,0.6 0.8,1 m -7,7.8 -0.3,-0.3 -0.8,-1 -0.4,-1.3 V -24 l 0.5,-1.6 0.8,-1.5 1.1,-1.2 1.3,-0.8 1.3,-0.5 1.3,0.1 0.7,0.3 m -0.2,7.2 1,-1.8 m -2.6,2.2 1.6,-0.4 m -2.3,-1 0.7,1.4 m 0.2,-3.3 -0.9,1.9 m 2.5,-2.3 -1.6,0.4 m 2.4,1.1 -0.8,-1.5 m -2.1,2.8 -0.1,0.1 m 1.4,-1.2 -0.1,0.2 -0.1,0.2 -0.2,0.2 -0.2,0.1 -0.1,0.2 -0.2,0.1 -0.2,0.1 h -0.2 m 1.5,-2.6 v 0.1 0.2 0.2 0.2 0.2 0.2 l -0.1,0.2 -0.1,0.2 m 0.5,-0.9 1.1,0.7 m -1.1,-0.7 -0.3,-0.6 m -0.7,2.4 1.1,0.7 m -1.9,-0.5 0.8,-0.2 m -0.9,0.3 0.1,-0.1 m 1.3,-1.1 0.5,-0.9 m -1,1.8 0.5,-0.9 m -33.1,15.6 0.2,0.9 -0.1,1 -0.5,0.9 -0.6,0.8 -0.8,0.5 -0.9,0.2 -0.7,-0.3 -0.5,-0.6 -0.2,-0.8 0.1,-1 0.4,-1 0.7,-0.7 0.8,-0.5 0.8,-0.2 0.8,0.3 0.5,0.5 m 0.4,-2.6 0.2,0.7 m -4.5,7.7 h -0.4 -1.3 l -1,-0.6 -0.8,-1 -0.4,-1.3 v -1.5 l 0.5,-1.6 0.8,-1.5 1.1,-1.2 1.3,-0.9 1.3,-0.4 1.3,0.1 1.1,0.6 0.8,0.9 m -7,7.9 -0.4,-0.3 -0.7,-1 -0.4,-1.3 v -1.5 l 0.4,-1.6 0.9,-1.5 1.1,-1.2 1.3,-0.9 1.3,-0.4 1.3,0.1 0.7,0.3 m -0.2,7.2 1,-1.9 m -2.6,2.3 1.6,-0.4 m -2.3,-1.1 0.7,1.5 m 0.2,-3.3 -0.9,1.8 m 2.5,-2.2 -1.6,0.4 m 2.4,1 -0.8,-1.4 m -2.1,2.8 h -0.1 m 1.4,-1.1 -0.1,0.2 -0.1,0.2 -0.2,0.2 -0.2,0.1 -0.1,0.2 -0.2,0.1 -0.2,0.1 h -0.2 m 1.4,-2.6 h 0.1 v 0.2 0.2 0.2 0.3 0.2 l -0.1,0.2 -0.1,0.2 m 0.5,-0.9 1.1,0.6 m -1.1,-0.6 -0.3,-0.6 m -0.7,2.4 1.1,0.7 m -1.9,-0.5 0.8,-0.2 m -0.9,0.2 h 0.1 m 1.3,-1.1 0.5,-0.9 m -1,1.8 0.5,-0.9 m -186.7,32.9 0.3,1.8 -0.1,1.8 -0.4,1.6 -0.7,1.4 -0.9,0.9 -1,0.5 -0.4,0.1 m -0.5,-12.1 h 0.2 l 1.1,0.3 1,0.9 0.9,1.2 0.5,1.6 m -8.2,5.4 -2,-0.6 m 0,0 -0.8,-3.1 m 1.2,-2.5 -1.2,2.5 m 3.3,-1.9 -2.1,-0.6 m 2.1,0.6 0.8,3.1 m -1.3,2.5 1.3,-2.5 m -0.9,1.8 -2.4,0.1 m 2.6,-4.5 v -0.1 m -0.3,2.9 v -0.3 l -0.1,-0.4 v -0.4 -0.3 l 0.1,-0.4 v -0.4 l 0.1,-0.3 0.2,-0.3 m 0.1,3.7 -0.1,-0.2 -0.2,-0.3 -0.1,-0.4 m -0.4,-1.5 -2.7,0.1 m 3.4,-1.4 -0.7,1.3 m 0.7,-1.4 v 0.1 m 0,3.9 -0.3,-1.1 m 0,0 -0.4,-1.5 m 97.1,50.5 0.3,1.8 -0.1,1.8 -0.4,1.6 -0.7,1.4 -0.9,0.9 -1.1,0.5 -0.3,0.1 m -0.5,-12.1 h 0.2 l 1.1,0.3 1,0.9 0.9,1.2 0.5,1.6 m -8.2,5.4 -2.1,-0.6 m 0,0 -0.7,-3.1 m 1.2,-2.5 -1.2,2.5 m 3.3,-1.9 -2.1,-0.6 m 2.1,0.6 0.8,3.1 m -1.3,2.5 1.3,-2.5 m -1,1.8 -2.4,0.1 m 2.7,-4.5 v -0.1 m -0.3,2.9 -0.1,-0.3 V 81 80.6 80.3 l 0.1,-0.4 v -0.4 l 0.1,-0.3 0.2,-0.3 m 0.1,3.7 -0.2,-0.2 -0.1,-0.3 -0.1,-0.4 m -0.4,-1.5 -2.7,0.1 m 3.4,-1.4 -0.7,1.3 m 0.7,-1.4 v 0.1 m 0,3.9 -0.3,-1.1 m 0,0 -0.4,-1.5 m -55.7,-66 -0.5,-0.5 -0.6,-0.2 -0.7,0.2 -0.7,0.4 -0.5,0.7 -0.4,0.8 v 0.8 l 0.2,0.7 0.4,0.5 0.7,0.2 0.7,-0.2 0.7,-0.4 0.5,-0.7 0.3,-0.8 0.1,-0.8 -0.2,-0.7 m 0.1,-0.6 -0.6,-0.6 -0.8,-0.2 -0.9,0.2 -0.8,0.6 -0.7,0.8 -0.4,1 -0.1,1 0.3,0.9 0.5,0.6 0.8,0.2 0.9,-0.2 0.8,-0.5 0.7,-0.9 0.4,-1 0.1,-1 -0.2,-0.9 m 6.5,-44.8 -0.4,0.8 -0.1,0.8 0.2,0.7 0.4,0.5 0.7,0.2 0.7,-0.1 0.7,-0.4 0.5,-0.7 0.4,-0.8 0.1,-0.8 -0.2,-0.7 -0.4,-0.5 -0.6,-0.2 -0.7,0.1 -0.7,0.4 -0.6,0.7 m -0.7,-0.4 -0.4,1 -0.1,1 0.2,0.9 0.5,0.6 0.8,0.2 0.9,-0.1 0.8,-0.5 0.7,-0.9 0.5,-1 0.1,-1 -0.2,-0.9 -0.6,-0.6 -0.7,-0.3 -0.9,0.2 -0.9,0.5 -0.7,0.9 m -12.4,25.7 0.4,-0.8 0.1,-0.9 -0.2,-0.7 -0.4,-0.5 -0.7,-0.2 -0.7,0.1 -0.7,0.5 -0.5,0.6 -0.4,0.8 -0.1,0.9 0.2,0.7 0.4,0.5 0.6,0.2 0.7,-0.1 0.7,-0.5 0.6,-0.6 m 0,0 0.5,-1 0.1,-1 -0.2,-0.9 -0.6,-0.6 -0.7,-0.3 -0.9,0.2 -0.9,0.5 -0.7,0.8 -0.4,1 -0.2,1 0.3,0.9 0.5,0.7 0.8,0.2 0.8,-0.1 0.9,-0.6 0.7,-0.8 m 37.9,-24.5 0.4,-0.8 0.1,-0.8 -0.2,-0.7 -0.5,-0.5 -0.6,-0.2 -0.7,0.1 -0.7,0.4 -0.5,0.7 -0.4,0.8 -0.1,0.8 0.2,0.8 0.4,0.5 0.6,0.2 0.7,-0.2 0.7,-0.4 0.6,-0.7 m 0,0.1 0.4,-1 0.2,-1.1 -0.3,-0.8 -0.5,-0.7 -0.8,-0.2 -0.8,0.1 -0.9,0.6 -0.7,0.8 -0.5,1 -0.1,1 0.3,0.9 0.5,0.6 0.8,0.3 0.8,-0.2 0.9,-0.5 0.7,-0.8 m 178.1,50.1 -1,1.4 -1.2,1 -1.3,0.5 -1.2,0.1 -1.2,-0.4 -0.8,-0.8 -0.4,-1.3 -0.1,-1.4 0.4,-1.6 0.8,-1.4 1.1,-1.2 1.3,-0.8 1.3,-0.3 1.2,0.1 1,0.7 0.6,1.1 0.3,1.3 -0.2,1.5 -0.6,1.5 m 0,0 0.6,-1.6 0.3,-1 m 0,0 -0.1,-1.6 -0.4,-1.3 -0.9,-1 -1.1,-0.6 h -1.4 l -1.4,0.5 -1.3,0.9 -1.1,1.3 -0.9,1.5 -0.4,1.6 -0.1,1.6 0.5,1.4 0.7,1 1.2,0.6 1.3,0.2 1.4,-0.4 1.3,-0.9 m 0,0 1.6,-1.9 0.2,-0.3 M -5,-17 l 0.5,2.5 0.3,3.8 v 3.5 m -63.8,-14.3 1.5,-2.3 2.9,-3.7 3.1,-3.5 3.3,-3.1 3.5,-2.8 3.7,-2.5 3.7,-2 3.8,-1.6 3.8,-1.1 1.7,-0.3 m 0.3,-0.1 1.8,-0.2 3.7,-0.2 3.6,0.2 3.4,0.8 3.3,1.2 3,1.7 1.9,1.3 m -94.4,39 -0.3,-1 -0.8,-3.9 -0.4,-4.1 V -14 l 0.4,-4.3 0.8,-4.5 1.2,-4.4 1.5,-4.4 2,-4.4 2.2,-4.1 2.6,-4 2.9,-3.8 3.1,-3.4 3.3,-3.2 3.6,-2.8 3.6,-2.4 3.8,-2 3.8,-1.6 3.8,-1.1 3.8,-0.7 3.7,-0.2 3.5,0.3 3.5,0.8 3.2,1.2 2,1 m -6.9,-2.7 -2,-2 -2.8,-2.1 -3,-1.7 -3.2,-1.2 -3.4,-0.7 -3.6,-0.3 -3.7,0.2 -3.8,0.6 -3.8,1.2 -3.8,1.5 -3.8,2 -3.6,2.5 -3.5,2.8 -3.4,3.1 -3.1,3.5 -2.9,3.7 -2.5,4 -2.3,4.2 -1.9,4.3 -1.6,4.4 -1.2,4.5 -0.8,4.4 -0.4,4.4 v 4.3 l 0.4,4.1 0.8,3.9 1.2,3.7 1.6,3.4 1.9,3 1.1,1.3 m 28.3,-58.8 h -0.2 l -3.2,2.1 -3.1,2.4 -2.9,2.8 -2.7,3.1 -2.5,3.3 -2.1,3.6 -1.8,3.7 -1.5,3.9 -1.1,3.9 -0.7,3.9 -0.3,3.8 -0.1,1.1 m 10.6,-70.9 -2,-1 -3.3,-1.2 -3.4,-0.8 -3.6,-0.3 -3.7,0.2 -3.8,0.7 -3.8,1.1 -3.8,1.6 -3.7,2 -3.7,2.4 -3.5,2.8 -3.3,3.2 -3.2,3.5 -2.8,3.7 -2.6,4 -2.3,4.2 -1.9,4.3 -1.6,4.4 -1.2,4.4 -0.8,4.5 -0.4,4.3 v 4.3 l 0.4,4.1 0.8,4 1.2,3.6 1.6,3.4 1.9,3.1 2.3,2.7 2.6,2.3 2.4,1.6 m 16.9,-77.1 -3.4,1.1 -3.5,1.7 -3.3,2 -3.3,2.5 -3.1,2.8 -2.9,3.1 -2.7,3.4 -2.4,3.6 -2,3.9 -1.8,3.9 -1.4,4 -1,4.1 -0.6,4.1 -0.3,4 0.2,3.8 0.6,3.7 0.1,0.7 m 60.8,-51.3 0.9,-3.5 m 0,0 -7.8,-6.8 m 0,0 -8.4,5 m 0,0 -0.3,0.1 -0.3,0.1 -0.3,0.2 h -0.2 l -0.3,0.1 h -0.3 -0.3 l -0.3,-0.1 m 0,0 -1,-0.2 -1,-0.2 -1,-0.1 -1,-0.1 h -1.1 -1 -1.1 l -1,0.1 m 0,0 h -0.3 -0.3 l -0.3,-0.1 h -0.2 l -0.3,-0.1 -0.2,-0.2 -0.2,-0.1 -0.2,-0.2 m 0,0 -5.3,-5.8 m 0,0 -11.3,5.5 m 0,0 -2.2,6.9 m 0,0 -0.2,0.5 -0.2,0.5 -0.3,0.5 -0.3,0.4 -0.4,0.4 -0.4,0.4 -0.4,0.3 -0.4,0.2 m 0,0 -67.3,33 m 0,0 -3.6,2 -3.6,2.4 -3.3,2.8 -3.2,3.1 -3,3.5 -2.7,3.6 -2.5,3.9 -2.1,4.1 -1.8,4.2 -1.4,4.3 -1,4.3 -0.7,4.3 -0.2,4.2 0.1,4.1 0.5,4 1,3.7 1.3,3.4 1.1,2.1 m 82.6,-14.9 15.8,-7.7 m 39.6,-82.5 -0.3,-0.7 -0.5,-0.5 -0.6,-0.1 -0.8,0.2 -0.7,0.5 -0.6,0.7 -0.3,0.9 m 3.2,1.1 0.2,-0.4 0.4,-0.9 v -0.8 m -32.8,-2.1 -0.2,-0.7 -0.5,-0.5 -0.7,-0.1 -0.8,0.2 -0.7,0.5 -0.5,0.8 -0.3,0.8 -0.1,0.9 0.3,0.7 0.5,0.5 0.7,0.1 0.7,-0.2 0.7,-0.5 0.6,-0.8 0.3,-0.8 v -0.9 m -83.5,41.2 -3.6,2 -3.6,2.5 -3.3,2.7 -3.2,3.1 -3,3.5 -2.7,3.7 -2.5,3.9 -2.1,4 -1.8,4.2 -1.4,4.3 -1,4.3 -0.7,4.3 -0.2,4.3 0.1,4 0.6,4 0.9,3.7 1.3,3.4 1.7,3.2 2,2.8 1,1 m 88.8,-101.9 -67.3,33 m 72.1,-43.1 3.4,2 m -3.4,-2 -2.2,6.9 m 0,0 -0.1,0.5 -0.3,0.5 -0.3,0.5 -0.3,0.4 -0.4,0.4 -0.4,0.4 -0.4,0.3 -0.4,0.2 m 16.1,-15.6 3.4,2 m -3.4,-2 -11.3,5.5 m 26.8,1.5 -1,-0.2 -1,-0.1 -1,-0.2 -1,-0.1 h -1 -1.1 -1.1 l -0.8,0.1 m 10.3,0.1 -0.2,0.1 -0.3,0.2 -0.3,0.1 h -0.3 l -0.3,0.1 h -0.3 -0.3 l -0.3,-0.1 m 10.7,-5.4 3.4,2 m -3.4,-2 -8.4,5 M 6.1,5.8 1.4,-0.7 m 0,0 L 1.3,-0.9 1.1,-1.2 1,-1.4 V -1.7 L 0.9,-2 V -2.3 -2.7 -3 m 0,0 V -3.6 L 0.7,-4.1 0.5,-4.5 0.2,-4.9 l -0.4,-0.2 -0.5,-0.1 -0.5,0.1 -0.5,0.2 m 0,0 -2,1 m -46.7,16.5 -0.2,-1.7 0.1,-2.7 0.5,-2.8 0.9,-2.8 1.3,-2.7 1.6,-2.6 1.9,-2.2 2.1,-2 2.3,-1.5 1.7,-0.8 M -17,-11 -3.5,-17.6 m 0,0 0.5,-0.3 0.5,-0.4 0.4,-0.5 0.3,-0.6 0.2,-0.6 0.1,-0.6 -0.1,-0.6 -0.1,-0.5 m 0,0 -0.1,-0.3 -0.1,-0.2 v -0.3 L -2,-22.9 v -0.3 l 0.1,-0.3 v -0.4 l 0.1,-0.3 m 0,0 2.4,-10 m 0,0 -7.8,-6.7 m 0,0 -8.3,4.9 m 0,0 -0.3,0.2 -0.3,0.1 -0.3,0.1 -0.3,0.1 h -0.3 -0.3 -0.3 -0.2 m 0,0 -1,-0.2 -1,-0.2 -1.1,-0.1 -1,-0.1 -1,-0.1 H -24 l -1,0.1 -1.1,0.1 m 0,0 h -0.3 l -0.3,-0.1 h -0.2 l -0.3,-0.1 -0.3,-0.1 -0.2,-0.1 -0.2,-0.2 -0.2,-0.2 m 0,0 -5.3,-5.8 m 0,0 -11.3,5.6 m 0,0 -2.1,6.8 m 0,0 -0.2,0.5 -0.3,0.5 -0.3,0.5 -0.3,0.5 -0.4,0.4 -0.4,0.3 -0.4,0.3 -0.4,0.3 m 0,0 -67.3,33 m 0,0 -3.6,2 -3.5,2.4 -3.4,2.8 -3.2,3.1 -3,3.4 -2.7,3.7 -2.4,3.9 -2.2,4.1 -1.7,4.2 -1.5,4.3 -1,4.3 -0.6,4.3 -0.3,4.2 0.1,4.1 0.6,3.9 0.9,3.7 1.3,3.5 0.6,1.2 M -17.2,32.5 v 0 l 0.2,-0.3 0.3,-0.2 m 0,0 0.4,-0.5 m 15.8,-12 1.6,-0.7 m 0,0 5,-13 M 2.5,10.7 2.3,10.1 m -0.4,2.6 0.2,-0.3 0.3,-0.9 0.1,-0.8 m -6.4,-45.8 -0.2,-0.7 -0.5,-0.4 -0.7,-0.2 -0.8,0.2 -0.7,0.5 -0.5,0.8 -0.3,0.9 -0.1,0.8 0.3,0.7 0.5,0.5 0.7,0.1 0.7,-0.2 0.7,-0.5 0.6,-0.7 0.3,-0.9 v -0.9 m -32.7,-2 -0.3,-0.7 -0.5,-0.5 -0.7,-0.1 -0.7,0.2 -0.7,0.5 -0.6,0.7 -0.3,0.9 v 0.9 l 0.2,0.7 0.5,0.4 0.7,0.2 0.7,-0.2 0.8,-0.5 0.5,-0.8 0.3,-0.9 0.1,-0.8 m -10.2,30 0.7,-0.9 0.4,-1.1 v -1.1 l -0.3,-0.9 -0.6,-0.5 -0.9,-0.2 -0.7,0.1 m -7.2,3.6 -0.6,0.5 -0.7,0.9 -0.4,1.1 -0.1,1.1 0.3,0.8 0.7,0.6 0.8,0.2 0.7,-0.2 m 42.9,-21.2 0.7,-0.9 0.4,-1.1 v -1.1 l -0.3,-0.8 -0.6,-0.6 -0.9,-0.2 -0.7,0.2 m -7.2,3.5 -0.6,0.5 -0.7,0.9 -0.4,1.1 -0.1,1.1 0.3,0.9 0.7,0.5 0.8,0.2 0.7,-0.2 m -100.5,24.4 -3.6,2 -3.5,2.4 -3.4,2.8 -3.2,3.1 -3,3.4 -2.7,3.7 -2.4,3.9 -2.1,4.1 -1.8,4.2 -1.4,4.3 -1.1,4.3 -0.6,4.3 -0.3,4.2 0.2,4.1 0.5,3.9 0.9,3.7 1.4,3.5 1.6,3.1 2.1,2.8 0.5,0.7 m 89.2,-101.5 -67.3,33 M -48,-39 l 3.3,2 m -3.3,-2 -2.2,6.8 m 0,0 -0.2,0.6 -0.2,0.5 -0.3,0.4 -0.4,0.5 -0.3,0.4 -0.4,0.3 -0.5,0.3 -0.4,0.3 m 16.1,-15.6 3.4,1.9 m -3.4,-1.9 -11.2,5.5 m -9.2,33.5 1.4,-0.7 m 34.6,-31.3 -1,-0.2 -1,-0.2 -1,-0.1 -1.1,-0.1 h -1 -1.1 -1 -0.9 m 10.4,0.1 -0.3,0.2 -0.3,0.1 -0.3,0.1 -0.3,0.1 h -0.3 l -0.3,0.1 -0.3,-0.1 h -0.2 m 10.6,-5.4 3.4,2 m -3.4,-2 -8.3,4.9 m -3.2,15.3 1.3,-0.7 m 15.7,16.5 -3,1.5 m 4.8,-1.5 -0.3,-0.2 -0.5,-0.1 -0.5,0.1 -0.5,0.2 m -124.6,17.3 1.3,-1 1.3,-1 1.3,-0.9 1.3,-0.9 1.3,-0.8 1.3,-0.8 1.4,-0.7 0.3,-0.2 m -25.1,64 -1.6,-3.4 -1.2,-3.7 -0.8,-3.9 -0.4,-4.1 0.1,-4.3 0.5,-4.4 0.9,-4.5 1.3,-4.4 m 1.5,35.3 0.1,-0.4 V 70 69.6 69.3 l -0.1,-0.4 -0.1,-0.3 -0.1,-0.3 -0.1,-0.2 m -4.1,23.8 1.5,-7.4 m 0.8,-3.8 2.1,-10 m 0.5,23.6 -4.9,-2.4 m 16.4,1.9 -11.5,0.5 m -2,-58.9 -6.8,-4 m 8.4,-0.2 -5.9,-3.5 m -2.5,3.7 2.5,-3.7 m -1.3,36.4 -1.6,-3.4 -1.2,-3.6 -0.8,-4 -0.3,-4.1 v -4.3 l 0.5,-4.4 0.9,-4.5 1.3,-4.4 m 23.6,-21 -6.7,-4 m 17.2,-2.8 -6.7,-3.9 m -10.5,6.7 1.2,-1 1.3,-1 1.3,-0.9 1.3,-0.9 1.3,-0.8 1.4,-0.8 1.3,-0.7 1.4,-0.6 m -7.2,13.9 -5.8,-3.5 m 0,0 2.5,-3.7 M -149,28.8 h 0.1 0.7 l 0.7,-0.2 0.6,-0.3 0.7,-0.4 0.5,-0.6 0.6,-0.6 m 0,0 7.1,-10.6 m -0.1,-5.4 -0.8,-0.6 m 0.9,6 0.4,-0.7 0.3,-0.8 0.2,-0.7 v -0.8 -0.7 l -0.2,-0.7 -0.4,-0.5 -0.4,-0.5 m 21,-8.1 -5.4,-3.1 m -3.4,0.2 3.4,-0.2 m -29.3,67.2 0.1,-0.3 V 66 65.6 65.3 65 l -0.1,-0.3 -0.1,-0.3 -0.2,-0.3 m 2.7,27.8 -6.8,-4 m 0,0 0.3,-1.1 m 2.5,-12.1 1.6,-8 m -50.5,-110.2 10,-0.4 m -12.5,-3.4 -0.1,0.8 0.1,0.7 0.1,0.7 0.3,0.6 0.4,0.4 0.5,0.4 0.6,0.2 h 0.6 m -2.2,-5.1 -0.3,1.3 m -3.2,-1.2 3.5,-0.1 m -14,6.9 1.3,-1 1.3,-1 1.3,-1 1.3,-0.8 1.3,-0.9 1.3,-0.7 1.4,-0.7 1.3,-0.7 m -12.9,10.5 2.4,-3.7 m -1.6,4.3 -0.8,-0.6 m 0.8,6 0.5,-0.7 0.3,-0.8 0.2,-0.8 V -35 l -0.1,-0.8 -0.2,-0.6 -0.3,-0.6 -0.4,-0.4 m -7.1,15.9 7.1,-10.5 m -11.9,12.2 0.5,0.3 0.6,0.1 h 0.7 l 0.6,-0.1 0.7,-0.3 0.6,-0.4 0.6,-0.6 0.5,-0.7 m -5.6,1.1 0.8,0.6 m -3.3,3.1 2.5,-3.7 m -1.3,36.4 -1.6,-3.4 -1.2,-3.7 -0.8,-3.9 -0.4,-4.1 0.1,-4.3 0.5,-4.4 0.9,-4.5 1.3,-4.4 m 1.5,35.3 0.1,-0.4 v -0.3 -0.4 -0.3 l -0.1,-0.4 v -0.3 l -0.2,-0.3 -0.1,-0.2 m -4.1,23.8 1.5,-7.4 m 0.8,-3.8 2.1,-10 m 0.6,23.6 -5,-2.4 m 21.5,1.7 -16.5,0.7 m 24.3,-37.9 -2.2,10.2 m -0.3,1.7 -5.3,25.3 m 1.3,-45 -1.1,0.3 -1.1,0.8 -1,1.1 -0.7,1.4 -0.2,1.4 0.2,1.3 0.7,1 0.9,0.5 1.2,0.1 1.2,-0.5 1.2,-0.9 0.8,-1.2 m 2.7,-23.2 -0.3,0.3 m 15.3,-3.7 -0.4,-0.3 -1.8,-0.8 -2.1,-0.4 -2.1,0.1 -2.3,0.6 -2.2,1 -2.1,1.4 -2,1.8 M -213.4,41.4 -206,6 m 5.3,34.8 -12.7,0.6 m 43.4,-61 -0.5,4.4 -0.9,4.5 -0.1,0.1 m 0.6,-12.5 0.9,3.5 m -2,-2.8 1.1,-0.7 m -5.4,-0.6 0.3,0.6 0.4,0.6 0.4,0.3 0.6,0.3 0.6,0.1 0.6,-0.1 0.7,-0.2 0.7,-0.3 m -7.1,-11.4 2.8,10.1 m -0.4,-15.6 -0.6,0.5 -0.6,0.6 -0.5,0.7 -0.4,0.7 -0.2,0.8 -0.2,0.8 v 0.7 l 0.1,0.7 m 3.5,-6.2 -1.1,0.7 m 0.1,-4.2 1,3.5 m -8.9,-9.5 1.2,0.5 1,0.6 1.1,0.7 1,0.7 0.9,0.8 1,0.8 0.9,0.9 0.8,1 m -11.3,-5.9 3.4,-0.1 m -3.7,1.5 0.3,-1.4 m -4.4,5.5 0.6,-0.1 0.7,-0.3 0.6,-0.4 0.6,-0.5 0.6,-0.6 0.4,-0.7 0.4,-0.7 0.2,-0.8 m -47.1,31.3 -6.8,-4 m 9.3,0.3 -6.8,-4 m -2.5,3.7 2.5,-3.7 m -1.2,36.4 -1.6,-3.4 -1.3,-3.6 -0.7,-4 -0.4,-4.1 v -4.3 l 0.5,-4.4 0.9,-4.5 1.3,-4.4 m 23.6,-21 -6.7,-4 m 17.2,-2.8 -6.7,-3.9 m -10.5,6.7 1.2,-1 1.3,-1 1.3,-0.9 1.3,-0.9 1.3,-0.8 1.4,-0.8 1.3,-0.7 1.4,-0.6 m -6.2,14.4 -6.8,-4 m 0,0 2.5,-3.7 m -12.6,22.4 h 0.2 0.6 l 0.7,-0.2 0.6,-0.3 0.7,-0.4 0.6,-0.6 0.5,-0.6 m 0,0 7.1,-10.6 m -0.1,-5.4 -0.8,-0.6 m 0.9,6 0.4,-0.7 0.3,-0.8 0.2,-0.7 v -0.8 -0.7 l -0.2,-0.7 -0.4,-0.5 -0.4,-0.5 m 22.4,-7.2 -6.7,-4 m -3.5,0.2 3.5,-0.2 m 6.5,5 5.6,-0.3 m -41.5,62.5 0.1,-0.3 v -0.4 -0.4 -0.3 -0.3 l -0.1,-0.3 -0.1,-0.3 -0.1,-0.3 m 2.6,27.8 -6.8,-4 m 0,0 0.3,-1.1 m 2.5,-12.1 1.6,-8 m 41.5,-62.5 0.7,-0.1 0.6,-0.2 0.7,-0.4 0.6,-0.5 0.5,-0.7 0.5,-0.7 0.3,-0.7 0.2,-0.8 m 7.1,2.6 -6.8,-3.9 m -0.3,1.3 0.3,-1.3 m 10.2,3.8 -6.7,-4 m -3.5,0.2 3.5,-0.2 m 0,0 1.1,0.6 0.9,0.5 m -24.2,93.8 -2.9,-1.8 m 1.7,-8.3 h 0.5 l 0.8,-0.2 0.8,-0.8 0.5,-1.2 0.2,-1.3 -0.2,-1.5 -0.4,-1.2 -0.7,-1 m 42.2,-47.2 -6.2,-3.6 m 111.7,95.4 -0.6,1 -0.5,1 -0.4,1.1 -0.3,1.1 -0.1,1.1 -0.1,1.1 0.1,1 0.2,1 m 0,0 0.3,0.9 0.4,0.8 0.6,0.7 0.6,0.6 0.7,0.4 h 0.1 m 9.3,-15.3 v 0 l -0.8,-0.5 -0.8,-0.3 -0.8,-0.2 h -0.9 m 0,0 -0.9,0.1 -1,0.3 -0.9,0.4 -1,0.5 -0.8,0.6 -0.9,0.8 -0.8,0.8 -0.7,1 m -6.2,5.8 -0.4,-1.9 -0.3,-2 m 2.2,8.2 -1.5,-4.3 m 5.2,6.5 -3.7,-2.2 m 3,-1.7 0.4,1.9 0.3,2 m -2.2,-8.3 1.5,4.4 m -1.5,-4.4 -3.7,-2.1 m 9.6,7.6 -0.9,-1 -0.5,-1.4 -0.1,-1.6 0.4,-1.7 0.8,-1.6 1.1,-1.5 1.3,-1.1 1.4,-0.7 1.5,-0.2 1.3,0.4 1,0.8 0.4,0.5 m -5.7,9.8 -0.8,-0.1 -1.2,-0.6 m -2.7,-9.5 -1.9,2.5 -1.3,1.5 m -1.2,-6.7 2.4,-3 0.9,-1 m -5.8,8.6 0.9,-1.9 1.6,-2.7 m 7,-1.9 -0.6,1.2 -2,3.4 m 2.6,-4.6 -3.7,-2.1 m 8.1,2.2 h -2 l -2.4,-0.1 m 2.1,-2.6 2.2,0.1 m 3.7,2.2 -3.6,0.4 m 3.6,-0.4 -3.7,-2.2 m 2.5,6.4 -0.3,-0.2 m -6.2,10.5 0.3,0.2 1.3,0.3 M -55.1,69 -56,68 m -10.4,13 h 3.8 m 9,-14 -0.2,-0.8 -1,-2.4 m -3.5,16.8 0.5,-0.5 m -2.4,0.8 h 0.1 l 1.8,-0.3 m -12.5,-13.1 0.7,-1.3 1.3,-1.6 0.3,-0.2 m 6.7,16.9 -1.2,0.8 -2.2,1 -2.2,0.7 -2.2,0.1 h -0.7 m 12.4,-27.5 1.6,1.3 1.3,1.6 0.9,1.9 0.6,2.3 0.1,2.4 -0.1,1.2 m -8.3,14.1 -0.7,0.5 -2.2,1.1 -2.2,0.7 -2.2,0.1 -1.2,-0.1 m 0.4,-3.4 -1.4,-0.6 m -2.2,-2.2 -0.3,-0.5 -0.2,-0.3 m 15,-16.6 0.8,0.8 1.1,1.5 0.1,0.3 m -10.5,17.8 h -0.6 l -1.8,-0.2 m 10.6,-19.7 0.5,0.9 0.1,0.2 m -10.5,17.8 -0.5,0.1 -1.8,-0.3 m -0.9,-1.3 h -0.3 m 0.7,-0.9 -0.3,-0.2 -1.2,-1.1 -0.4,-0.5 m 3.5,2.8 -0.2,-0.2 -1.2,-1.1 -0.9,-1.5 -0.5,-1.8 -0.1,-1.1 m 14.1,19.9 -0.2,-0.1 -0.4,-0.2 -0.5,-0.1 h -0.5 m 0,0 -0.5,0.1 -0.5,0.1 -0.6,0.3 -0.5,0.3 -0.5,0.3 -0.4,0.4 -0.4,0.5 -0.4,0.5 m -1,4.7 -0.1,-0.6 v -0.5 -0.6 l 0.1,-0.6 0.1,-0.6 0.3,-0.6 0.2,-0.6 0.4,-0.6 m -1,4.7 0.2,0.5 0.2,0.4 0.3,0.4 0.4,0.3 0.2,0.2 m 2.5,-1.1 -0.1,-1.1 0.3,-1.3 0.7,-1.1 1,-0.9 1.1,-0.5 1,0.1 0.8,0.5 0.5,0.9 m -2.9,4.9 v 0 h -1.1 l -0.8,-0.5 -0.5,-1 m 3.9,-4.8 v 0 l 0.5,0.9 m -2.8,4.9 h -0.1 -1 m -3.9,-10 -1.9,2.2 m 0,0 -0.1,0.2 -1.2,2.3 m 0,0 1.9,1.1 m 1.9,-2.2 -0.1,0.2 -1.8,2 m 3.2,-4.7 -1.3,2.5 m -0.6,-3.6 1.9,1.1 m -2.3,7.2 -0.2,-0.7 -0.7,-1.8 m 5.7,-4.7 h -0.2 -2.3 m -4.7,5.7 -0.2,-0.6 -0.2,-1.5 m 1.3,4.5 -0.3,-0.6 -0.6,-1.8 m 0.9,2.4 1.9,1.2 m 0,0 v -0.5 l -0.4,-1.6 m 4.8,-8.6 h -2.5 m 0,0 h -0.1 l -1.8,0.3 m 6.4,0.9 -2,0.2 m 0,-1.4 2,1.2 m -6.4,9.5 h 1.5 m 5.3,-8.4 -0.4,-1.1 m -118.1,-107.1 -0.3,-0.1 -0.5,-0.2 h -0.4 -0.5 l -0.6,0.1 m 0,0 -0.5,0.1 -0.2,0.1 m 0.7,-0.2 h -0.1 l -0.8,0.1 m 1,-2 -2.5,0.4 m 0,0 -0.2,0.1 -0.5,0.2 m 5.2,0.4 -2.1,0.8 m 0.1,-1.9 2,1.1 m 0,0 0.3,0.6 0.5,0.8 m 102.6,93 -0.3,-0.2 -0.5,-0.1 m -4,1.6 0.5,-0.4 0.5,-0.4 0.5,-0.3 0.5,-0.3 0.5,-0.2 h 0.5 l 0.5,-0.1 0.5,0.1 m -4,1.6 -0.4,0.5 -0.3,0.5 -0.3,0.6 -0.3,0.6 -0.2,0.6 -0.1,0.6 -0.1,0.6 v 0.6 m 0,0 0.1,0.6 0.1,0.5 0.2,0.4 0.3,0.5 0.3,0.3 0.4,0.3 0.1,0.1 m 3.5,-4.8 1,-0.8 1.1,-0.4 1,0.1 0.8,0.6 0.4,0.8 m -2.9,4.9 h -0.3 l -1,-0.1 -0.8,-0.6 -0.4,-1 v -1.2 l 0.4,-1.2 0.7,-1.1 m 2.9,-1.1 0.1,0.1 0.4,0.8 m -2.9,4.9 h -0.3 -0.7 m -5.2,-0.6 0.6,0.4 m 0.1,-2.4 v 0.2 l -0.1,2.2 m -0.2,-4.5 0.3,2.1 m -0.4,-2.7 0.6,-0.4 1.5,-1.5 m 0,0 0.5,-0.6 1.2,-1.6 m -2,-1.1 2,1.1 m -2.6,-0.6 0.6,-0.5 m 4.3,1.7 h -0.1 l -2.2,-0.6 m -3.5,9.2 1.9,0.4 m 3.8,-9.8 -2.3,-0.6 m 0,0 -0.2,-0.1 -1.7,-0.2 m 6.1,2 -1.8,-0.3 m -0.1,-0.8 1.9,1.1 m 0.1,0.7 -0.1,-0.7 m 34,-1.9 -0.1,-0.1 -0.4,-0.2 m -4,1.4 0.4,-0.4 0.5,-0.4 0.5,-0.3 0.6,-0.2 0.5,-0.1 0.5,-0.1 h 0.5 l 0.5,0.1 m -4,1.4 -0.5,0.5 -0.3,0.5 -0.4,0.5 -0.3,0.6 -0.2,0.6 -0.1,0.6 -0.1,0.6 -0.1,0.6 m 0,0 0.1,0.6 0.1,0.5 0.2,0.5 0.2,0.5 0.3,0.3 0.4,0.4 0.2,0.1 m 3.7,-4.9 1,-0.7 1.1,-0.3 1,0.2 0.7,0.6 0.3,0.7 m -2.8,4.8 -0.5,0.1 -1,-0.2 -0.7,-0.7 -0.4,-1 0.1,-1.2 0.4,-1.2 0.8,-1.1 m 2.7,-1 0.2,0.3 0.3,0.6 m -2.9,4.9 -0.4,0.1 -0.6,-0.1 m -6.7,-6.6 -0.2,2.4 m 0,0 v 0.2 l 0.3,2.5 m 0,0 1.9,1.1 m 0.2,-2.4 v 0.2 l -0.2,2.2 m -0.1,-5.1 0.3,2.7 m -2.2,-3.8 1.9,1.1 m 0,0 0.6,-0.4 1.7,-1.4 m 0,0 0.5,-0.6 1.2,-1.5 m -1.9,-1.2 1.9,1.2 m -4.2,0.6 0.6,-0.5 1.7,-1.3 m -4,4 0.4,-0.6 1.3,-1.6 m 6.5,0.1 h -0.2 l -2.1,-0.7 m -3.9,9 1.9,0.7 m 4.1,-9.7 -2.3,-0.7 m 0,0 -0.1,-0.1 -1.6,-0.4 m 5.9,2.4 -1.7,-0.5 m -0.2,-0.7 1.9,1.2 m 0.1,0.5 -0.1,-0.5 M -62,52.8 l -0.5,-0.3 -0.4,-0.1 h -0.5 -0.5 l -0.5,0.1 -0.5,0.2 m -3.6,4.8 0.1,-0.6 0.2,-0.6 0.2,-0.5 m -0.5,1.7 -0.1,0.6 0.1,0.6 v 0.6 l 0.2,0.5 0.2,0.4 0.3,0.5 0.3,0.3 0.4,0.3 m 2.4,-2.4 0.4,-1.2 0.7,-1.2 1,-0.8 1.1,-0.4 1,0.2 0.8,0.5 0.4,0.8 m -2.8,4.9 -0.3,0.1 -1,-0.1 -0.8,-0.6 -0.5,-1 v -1.2 m 4,-3.5 0.1,0.1 0.4,0.8 m -2.9,4.9 h -0.2 -0.8 m -4.4,-3.7 0.1,-0.7 v -0.5 m -2.3,2.8 1.5,1 m 0,0 0.3,-0.7 0.4,-1.9 m 6.5,-4.7 -0.2,-0.1 -1.9,-1.2 m -5.1,8.6 2.1,1.2 m -4,-2.4 1.5,0.9 m 0,0 0.2,0.1 1.9,1.2 m 0,0 1.9,1.1 m -1.5,-0.9 0.1,0.1 1.4,0.8 m -161.6,-68.5 0.3,0.5 0.3,0.3 0.4,0.3 0.1,0.1 m 5,-8.6 -0.2,-0.1 -0.5,-0.1 -0.5,-0.1 h -0.5 l -0.5,0.1 m 0,0 -0.5,0.1 -0.5,0.3 -0.5,0.3 -0.5,0.4 -0.5,0.4 -0.4,0.5 -0.3,0.5 -0.4,0.6 m 0,0 -0.2,0.6 -0.2,0.6 -0.2,0.6 v 0.6 0.6 0.5 l 0.2,0.6 0.1,0.4 m 8.7,-3.7 0.2,0.4 m -2.9,4.9 -0.7,0.1 -0.9,-0.3 -0.6,-0.8 -0.3,-1.1 0.1,-1.2 0.6,-1.2 0.8,-1 1.1,-0.7 1.1,-0.2 0.9,0.3 0.6,0.8 m -0.8,-0.5 0.1,0.4 m -2.8,4.9 -0.7,0.1 -0.4,-0.1 m 3.4,-5.8 0.4,0.5 m -8.5,-4.1 -1.5,2.4 m 0,0 -0.1,0.1 -0.9,2.6 m 0,0 1.9,1.1 m 1.5,-2.4 -0.1,0.2 -1.4,2.2 m 2.6,-5.1 -1.1,2.7 m -0.9,-3.8 2,1.1 m 2.5,-0.4 h -0.2 l -2.3,0.4 m -2.6,5.1 0.3,0.6 0.9,1.5 m 4,-9.5 -2.5,0.4 m 0,0 -0.2,0.1 -1.9,0.7 m 6.5,0 -2,0.7 m 0.1,-1.9 1.9,1.2 m -9,5.1 0.1,0.4 0.6,1.4 m 0,0 0.3,0.5 1,1.6 m 0,0 1.9,1.2 m -0.8,-1.9 0.3,0.6 0.5,1.3 m 5.1,-10.2 0.4,0.5 0.4,0.8 m -5.9,8.9 1.1,-0.2 m 184.9,56.1 -0.3,-0.1 -0.4,-0.1 -0.5,-0.1 m -3.9,2.1 0.4,-0.5 0.4,-0.4 0.5,-0.4 0.5,-0.3 0.5,-0.3 0.6,-0.1 0.5,-0.1 h 0.5 m -3.9,2.1 -0.4,0.5 -0.3,0.6 -0.3,0.6 -0.2,0.6 -0.1,0.6 -0.1,0.6 v 0.6 l 0.1,0.5 m 0,0 0.1,0.6 0.2,0.4 0.2,0.5 0.4,0.3 0.3,0.3 0.2,0.1 m 3.3,-4.5 0.9,-0.9 1.1,-0.5 h 1 l 0.9,0.5 0.5,0.8 0.1,0.2 m -2.9,4.8 v 0 h -1 l -0.9,-0.4 -0.5,-0.9 -0.2,-1.2 0.3,-1.2 0.7,-1.2 m 3.1,-1.4 0.4,0.8 0.1,0.1 m -2.9,4.9 h -1 m -7.1,-5.7 0.2,2.2 m 0,0 v 0.2 l 0.7,2.3 m 0,0 1.9,1.2 m -0.1,-2.3 v 0.2 l 0.1,2.1 m -0.8,-4.8 0.7,2.5 m -2.7,-3.6 2,1.1 m 0,0 0.5,-0.5 1.5,-1.6 m 0,0 0.4,-0.6 1,-1.8 m -1.9,-1.1 1.9,1.1 m -3.9,0.9 0.5,-0.6 1.5,-1.4 m -3.5,4.5 0.4,-0.7 1.1,-1.8 m 6.4,-0.6 h -0.2 l -2.3,-0.3 m 2.5,-0.9 -2.5,-0.3 m 0,0 h -0.1 l -1.8,0.1 m 6.3,1.4 h -1.9 m 0,-1.2 1.9,1.2 m -7,9 1.7,0.2 m 5.6,-8.3 -0.3,-0.9 m -171.6,-80.9 0.2,0.4 0.3,0.4 0.4,0.3 h 0.1 m 5.1,-8.5 -0.3,-0.2 -0.5,-0.1 -0.5,-0.1 h -0.5 l -0.5,0.1 m 0,0 -0.5,0.2 -0.5,0.2 -0.5,0.3 -0.5,0.4 -0.4,0.4 -0.5,0.5 -0.3,0.6 -0.3,0.5 m 0,0 -0.3,0.6 -0.2,0.6 -0.2,0.6 v 0.6 0.6 0.6 l 0.2,0.5 0.2,0.5 m 8.7,-3.8 0.1,0.5 m -2.8,4.9 h -0.7 l -1,-0.3 -0.6,-0.7 -0.3,-1.1 0.2,-1.3 0.5,-1.2 0.9,-1 1,-0.6 1.1,-0.2 0.9,0.3 0.7,0.7 m -0.9,-0.5 0.1,0.5 m -2.8,4.8 -0.7,0.1 -0.4,-0.1 m 3.4,-5.8 0.4,0.5 m -8.5,-4.1 -1.5,2.4 m 0,0 -0.1,0.2 -0.9,2.5 m 0,0 1.9,1.1 m 1.6,-2.4 -0.1,0.2 -1.5,2.2 m 2.6,-5.1 -1,2.7 m -1,-3.8 2,1.1 m 2.5,-0.4 -0.1,0.1 -2.4,0.3 m -2.6,5.1 0.4,0.6 0.9,1.6 m 3.9,-9.5 -2.5,0.4 m 0,0 h -0.2 l -1.9,0.7 m 6.6,0 -2.1,0.7 m 0.1,-1.8 2,1.1 m -9.1,5.1 0.1,0.4 0.6,1.4 m 0,0 0.3,0.6 1,1.6 m 0,0 1.9,1.1 m -0.7,-1.8 0.2,0.5 0.5,1.3 m 5.2,-10.2 0.3,0.6 0.5,0.7 m -6,8.9 1.2,-0.2 m 20.1,-2.6 0.3,0.4 0.3,0.4 0.4,0.3 0.1,0.1 m 5,-8.6 -0.3,-0.1 -0.4,-0.2 h -0.5 -0.5 l -0.5,0.1 m 0,0 -0.5,0.1 -0.5,0.3 -0.5,0.3 -0.5,0.4 -0.5,0.4 -0.4,0.5 -0.4,0.5 -0.3,0.6 m 0,0 -0.2,0.6 -0.2,0.6 -0.2,0.6 -0.1,0.6 v 0.6 l 0.1,0.5 0.1,0.5 0.2,0.5 m 8.7,-3.7 0.2,0.4 m -2.9,4.9 -0.7,0.1 -0.9,-0.4 -0.6,-0.7 -0.3,-1.1 0.1,-1.2 0.6,-1.2 0.8,-1.1 1.1,-0.6 1,-0.2 1,0.3 0.6,0.8 m -0.9,-0.5 0.2,0.4 m -2.9,4.9 h -0.6 -0.4 m 3.4,-5.8 0.3,0.5 m -8.4,-4.2 -1.5,2.4 m 0,0 -0.1,0.2 -1,2.5 m 0,0 2,1.2 m 1.5,-2.4 -0.1,0.2 -1.4,2.2 m 2.5,-5.1 -1,2.7 m -0.9,-3.9 1.9,1.2 m 2.6,-0.4 h -0.2 l -2.4,0.4 m -2.5,5.1 0.3,0.5 0.9,1.6 m 4,-9.5 -2.6,0.4 m 0,0 -0.1,0.1 -1.9,0.6 m 6.5,0 -2,0.8 m 0.1,-1.9 1.9,1.1 m -9.1,5.1 0.2,0.5 0.6,1.4 m 0,0 0.3,0.5 1,1.6 m 0,0 1.9,1.1 m -0.8,-1.8 0.3,0.5 0.5,1.3 m 5.1,-10.2 0.4,0.6 0.4,0.8 m -5.9,8.8 1.1,-0.1 m -27.4,37.8 -0.4,-0.1 -0.4,-0.2 h -0.5 -0.5 l -0.5,0.1 m -3.6,3.2 0.4,-0.6 0.3,-0.5 0.4,-0.5 0.5,-0.5 0.4,-0.4 0.6,-0.3 0.5,-0.2 0.5,-0.2 m -3.6,3.2 -0.2,0.6 -0.2,0.6 -0.1,0.6 -0.1,0.6 v 0.6 l 0.1,0.5 0.1,0.5 0.2,0.5 m 0,0 0.3,0.4 0.3,0.4 0.4,0.3 h 0.1 m 2.8,-3.7 0.7,-1.1 1,-0.8 1.1,-0.4 1,0.2 0.8,0.6 0.3,0.7 m -2.8,4.9 -0.3,0.1 -1,-0.2 -0.8,-0.5 -0.4,-1 V 15 l 0.4,-1.3 m 3.6,-2.2 0.1,0.2 0.4,0.7 m -2.9,4.9 -0.3,0.1 -0.7,-0.1 m -0.2,-10.6 -2.6,0.5 m 0,0 h -0.1 l -1.9,0.7 m 0,0 1.9,1.1 m 2.6,-0.4 h -0.2 l -2.4,0.4 m 4.6,-1.2 -2,0.8 m 0.1,-1.9 1.9,1.1 m -5.6,4 0.4,-0.7 0.6,-2.1 m -3.4,1.3 0.3,-0.7 1.2,-1.7 m -2.5,5.2 0.2,-0.8 0.8,-2 m -1,2.8 1.9,1.1 m 0,0 0.5,-0.6 1,-1.8 m -1.5,2.4 1.3,2.1 m -3.2,-3.2 0.8,1.8 m 0,0 0.1,0.1 1.2,2 m 0,0 1.9,1.1 m -0.8,-1.8 0.1,0.1 0.7,1.7 m 5.9,-8.9 -0.9,-1.4 m -5,10.3 1.1,-0.2 m 181.5,62.6 -0.7,0.5 -0.5,0.7 -0.3,0.9 v 0.8 l 0.2,0.7 0.5,0.4 0.7,0.1 0.7,-0.2 0.6,-0.5 0.6,-0.7 0.3,-0.8 v -0.8 l -0.2,-0.7 -0.5,-0.4 -0.7,-0.2 -0.7,0.2 m -0.4,-0.6 -0.8,0.6 -0.7,0.9 -0.3,1 -0.1,1 0.3,0.8 0.6,0.6 0.8,0.1 0.9,-0.2 0.8,-0.6 0.7,-0.9 0.4,-1 v -1 l -0.3,-0.9 -0.6,-0.5 -0.8,-0.2 -0.9,0.3 m -20.9,-21.5 -0.3,-0.7 -0.4,-0.4 -0.7,-0.1 -0.7,0.2 -0.7,0.5 -0.5,0.7 -0.3,0.9 v 0.8 l 0.2,0.6 0.5,0.5 0.7,0.1 0.7,-0.2 0.7,-0.5 0.5,-0.8 0.3,-0.8 v -0.8 m 0.1,-0.4 -0.3,-0.8 -0.6,-0.6 -0.8,-0.1 -0.9,0.3 -0.8,0.6 -0.7,0.9 -0.4,1 v 1 l 0.3,0.8 0.7,0.6 0.8,0.1 0.9,-0.3 0.8,-0.6 0.6,-0.9 0.4,-1 v -1 m -14.3,24.8 -0.6,0.6 -0.4,0.8 -0.1,0.9 0.2,0.7 0.4,0.5 0.6,0.2 0.7,-0.1 0.7,-0.4 0.6,-0.6 0.4,-0.8 0.1,-0.8 -0.2,-0.8 -0.4,-0.5 -0.6,-0.2 -0.7,0.1 -0.7,0.4 m -0.5,-0.6 -0.7,0.8 -0.5,1 -0.1,1 0.2,0.9 0.5,0.7 0.7,0.3 0.9,-0.2 0.9,-0.5 0.7,-0.8 0.5,-1 0.1,-1 -0.2,-0.9 -0.5,-0.6 -0.8,-0.3 -0.8,0.1 -0.9,0.5 m 36.3,-25.3 -0.4,-0.6 -0.6,-0.3 -0.7,0.1 -0.7,0.3 -0.6,0.6 -0.4,0.8 -0.2,0.8 0.1,0.8 0.4,0.6 0.6,0.3 0.7,-0.1 0.7,-0.3 0.6,-0.6 0.4,-0.8 0.2,-0.8 -0.1,-0.8 m 0.1,-0.5 -0.5,-0.7 -0.7,-0.4 -0.9,0.1 -0.8,0.4 -0.8,0.8 -0.5,0.9 -0.3,1.1 0.2,0.9 0.4,0.7 0.7,0.4 0.9,-0.1 0.9,-0.4 0.7,-0.7 0.6,-1 0.2,-1 -0.1,-1 m -20.6,40.4 -0.7,0.4 -0.5,0.6 -0.4,0.8 -0.1,0.9 0.1,0.7 0.4,0.5 0.6,0.2 0.7,-0.1 0.7,-0.4 0.6,-0.6 0.4,-0.8 0.1,-0.8 -0.1,-0.8 -0.4,-0.5 -0.7,-0.2 -0.7,0.1 m -0.3,-0.7 -0.9,0.5 -0.7,0.8 -0.5,1 -0.1,1 0.2,0.9 0.5,0.7 0.7,0.3 0.9,-0.2 0.9,-0.5 0.7,-0.8 0.5,-1 0.1,-1 -0.2,-0.9 -0.5,-0.6 -0.7,-0.3 -0.9,0.1 m 6.5,-32.5 v 2.7 l -0.4,2.8 -0.5,1.8 m -5.5,9.3 -1.4,1.4 -2.3,1.8 -2.3,1.3 -2.4,0.9 -2.4,0.4 -2.3,-0.1 h -0.3 m 17.2,-29.5 0.3,0.3 1.1,2 0.8,2.3 0.4,2.6 m 16.7,-1 v 3.5 l -0.4,3.7 -0.7,3.8 -1,3.3 m -4.3,8.7 -1.5,2.2 -2.5,3.1 -2.7,2.8 -2.9,2.4 -3.1,2.1 -2.1,1.2 m -6.6,2.2 -0.8,0.2 -3.2,0.3 -3,-0.3 -2.8,-0.6 -2.7,-1.2 -2.4,-1.6 -2.1,-2 -0.5,-0.6 m 30.4,-51.9 1.2,0.2 2.7,1 2.6,1.3 2.2,1.9 2,2.2 1.6,2.6 1.2,2.9 0.9,3.1 0.5,3.5 M -45.6,67 v 2.7 l -0.4,2.8 -0.9,2.8 -1.2,2.8 -1.5,2.5 -1.8,2.4 -2.1,2.1 -2.2,1.7 -2.4,1.3 -2.4,0.9 -2.4,0.4 -2.3,-0.1 -2.1,-0.5 -1.9,-1 -1.7,-1.4 -0.4,-0.5 M -74,77 l 0.2,-2.4 0.6,-2.8 1,-2.8 1.4,-2.7 1.7,-2.5 1.9,-2.2 0.2,-0.2 m 8.4,-4.8 0.7,-0.2 2.4,-0.1 2.2,0.3 2,0.7 1.8,1.2 1.5,1.7 1.2,2 0.8,2.3 0.4,2.5 M -133.9,32.1 V 32 l 0.1,-0.1 0.1,-0.2 v -0.1 l 0.1,-0.1 0.1,-0.2 0.1,-0.1 v -0.1 m 0,0 0.1,-0.1 0.1,-0.1 0.1,-0.1 0.1,-0.1 h 0.1 0.1 0.1 0.1 m -1.3,1.4 -0.1,0.1 v 0.2 0.1 0.1 0.1 l 0.1,0.1 0.1,0.1 m 3.5,-6.7 0.1,-0.1 0.1,-0.1 v -0.2 l 0.1,-0.1 0.1,-0.1 0.1,-0.1 0.1,-0.1 0.1,-0.2 m -0.7,1 -0.1,0.1 v 0.1 l -0.1,0.2 v 0.1 l 0.1,0.1 v 0.1 l 0.1,0.1 m 0.7,-1.8 0.1,-0.1 h 0.1 l 0.1,-0.1 h 0.1 0.1 0.1 0.1 m -7.4,12.3 v -0.1 l 0.1,-0.1 0.1,-0.1 0.1,-0.1 h 0.1 l 0.1,-0.1 h 0.1 m -1.1,1.6 0.1,-0.1 v -0.2 l 0.1,-0.1 v -0.1 l 0.1,-0.2 v -0.1 l 0.1,-0.2 0.1,-0.1 m -0.5,1.1 v 0.1 0.2 0.1 0.1 l 0.1,0.1 m 10.7,-18.2 0.1,-0.1 0.1,-0.1 0.1,-0.1 0.1,-0.1 0.1,-0.1 0.1,-0.1 0.1,-0.1 0.1,-0.1 m -0.8,0.8 -0.1,0.2 -0.1,0.1 v 0.1 0.1 0.1 m 1,-1.4 0.1,-0.1 0.1,-0.1 h 0.1 m -120.4,-47.9 0.6,0.1 0.7,-0.2 0.7,-0.6 0.5,-0.7 0.2,-0.8 v -0.8 l -0.3,-0.6 -0.5,-0.4 m -2.7,4.4 0.1,-0.1 0.1,-0.1 0.1,-0.1 0.1,-0.1 h 0.1 l 0.1,-0.1 h 0.1 l 0.1,0.1 m -0.8,0.4 v 0.1 l -0.1,0.2 v 0.1 l -0.1,0.2 -0.1,0.1 v 0.1 l -0.1,0.2 v 0.1 m 0,0 -0.1,0.1 v 0.2 0.1 l 0.1,0.1 v 0.1 h 0.1 l 0.1,0.1 h 0.1 m -1.3,4.1 0.6,-0.1 0.7,-0.3 0.6,-0.6 0.4,-0.8 0.2,-0.8 -0.2,-0.8 -0.4,-0.5 -0.6,-0.2 m -2.1,4.7 0.1,-0.2 v -0.1 l 0.1,-0.1 0.1,-0.1 0.1,-0.1 h 0.1 0.1 0.2 m -0.8,0.6 v 0.1 0.1 l -0.1,0.2 v 0.1 0.2 l -0.1,0.1 v 0.1 0.2 m 0,0 -0.1,0.1 v 0.1 l 0.1,0.1 v 0.1 l 0.1,0.1 h 0.1 l 0.1,0.1 h 0.1 m -0.8,4.1 0.7,-0.2 0.7,-0.5 0.3,-0.4 m 0.5,-2 -0.3,-0.6 -0.5,-0.4 h -0.6 m -1.4,4.7 v -0.1 -0.1 l 0.1,-0.1 0.1,-0.1 0.1,-0.1 0.1,-0.1 h 0.1 0.1 m -0.6,0.6 v 0.2 l -0.1,0.1 v 0.2 0.1 0.1 0.2 0.1 0.1 m 0,0 v 0.2 0.1 0.1 l 0.1,0.1 h 0.1 0.1 0.1 0.1 m -0.2,4 0.7,-0.3 0.5,-0.4 m 0.3,-3.1 v 0 l -0.6,-0.3 -0.7,0.1 m -0.7,4.8 v -0.2 -0.1 l 0.1,-0.1 v -0.1 l 0.1,-0.1 0.1,-0.1 0.1,-0.1 h 0.1 m -0.5,0.8 v 0.1 0.1 0.2 0.1 0.1 0.2 0.1 0.1 m 0,0 v 0.1 l 0.1,0.1 v 0.1 l 0.1,0.1 h 0.1 0.1 0.1 0.1 m 0.5,3.7 0.6,-0.3 m -0.1,-3.7 h -0.3 l -0.7,0.3 m 0,4.6 v -0.2 -0.1 l 0.1,-0.1 v -0.1 l 0.1,-0.2 0.1,-0.1 h 0.1 l 0.1,-0.1 m -0.5,0.9 0.1,0.1 v 0.1 0.1 0.1 l 0.1,0.2 v 0.1 0.1 0.1 m 0,0 0.1,0.1 v 0.1 l 0.1,0.1 h 0.1 0.1 0.1 0.1 l 0.1,-0.1 m 0.4,-0.2 -0.4,0.2 m 0.7,4.3 V 2.9 2.8 2.6 l 0.1,-0.1 V 2.4 l 0.1,-0.1 0.1,-0.1 0.1,-0.1 m -0.4,0.9 0.1,0.1 v 0.1 l 0.1,0.1 v 0.1 l 0.1,0.1 v 0.2 l 0.1,0.1 v 0.1 m 0,0 0.1,0.1 0.1,0.1 h 0.1 0.1 0.1 m 33.3,-61 h 0.1 l 0.1,0.1 m -0.2,-0.1 -0.1,0.1 h -0.1 -0.2 -0.1 -0.1 l -0.1,0.1 h -0.1 -0.1 m 0,0 -0.2,0.1 h -0.1 l -0.1,0.1 v 0.1 l -0.1,0.1 -0.1,0.1 v 0.2 m -3.5,1.1 v 0.6 m -0.6,-1.1 h 0.2 0.1 0.1 v 0.1 h 0.1 l 0.1,0.1 v 0.1 0.2 m -0.6,-0.5 h -0.1 l -0.1,0.1 h -0.1 l -0.1,0.1 h -0.2 l -0.1,0.1 h -0.1 l -0.1,0.1 m 0,0 h -0.1 l -0.1,0.1 -0.1,0.1 -0.1,0.1 v 0.1 l -0.1,0.2 v 0.1 0.1 m -3.5,1.7 0.2,0.7 0.3,0.3 m 3,-1.8 v -0.1 -0.8 m -4.1,1.3 h 0.1 0.1 0.1 0.1 l 0.1,0.1 0.1,0.1 v 0.2 m -0.6,-0.4 -0.1,0.1 -0.1,0.1 h -0.1 l -0.1,0.1 -0.2,0.1 h -0.1 l -0.1,0.1 -0.1,0.1 m 0,0 -0.1,0.1 -0.1,0.1 -0.1,0.1 v 0.1 l -0.1,0.1 v 0.1 0.2 0.1 m -3.3,2.3 0.3,0.6 0.5,0.3 0.3,0.1 m 2.2,-1.8 0.1,-0.8 -0.1,-0.7 m -4,2.1 0.1,-0.1 h 0.1 0.1 0.1 0.1 l 0.1,0.1 0.1,0.2 m -0.7,-0.2 -0.1,0.1 -0.1,0.1 h -0.1 l -0.1,0.1 -0.2,0.1 -0.1,0.1 -0.1,0.1 -0.1,0.1 m 0,0 -0.1,0.1 -0.1,0.1 v 0.1 l -0.1,0.1 v 0.2 0.1 0.1 l 0.1,0.1 m -3.1,2.8 0.4,0.5 0.6,0.2 0.7,-0.1 0.2,-0.1 m 1.1,-1.1 0.3,-0.7 V -47 l -0.2,-0.7 m -3.9,2.8 0.1,-0.1 h 0.1 l 0.1,-0.1 h 0.1 0.1 l 0.1,0.1 h 0.1 l 0.1,0.1 m -0.8,0 -0.1,0.1 -0.1,0.1 -0.1,0.1 -0.1,0.1 -0.1,0.1 -0.1,0.1 -0.1,0.1 -0.1,0.2 m 0,0 -0.1,0.1 v 0.1 l -0.1,0.1 v 0.1 0.2 0.1 l 0.1,0.1 m -2.8,3.4 0.6,0.3 0.6,0.1 0.7,-0.3 0.7,-0.5 0.4,-0.8 0.2,-0.8 v -0.8 l -0.4,-0.6 m -3.5,3.5 0.1,-0.1 0.1,-0.1 h 0.1 l 0.1,-0.1 h 0.1 0.1 l 0.1,0.1 v 0.1 m -0.7,0.1 -0.1,0.1 -0.1,0.1 -0.1,0.2 -0.1,0.1 -0.1,0.1 -0.1,0.1 v 0.1 l -0.1,0.2 m 0,0 -0.1,0.1 -0.1,0.1 v 0.1 0.2 0.1 l 0.1,0.1 v 0.1 h 0.1 m -2.4,3.7 0.6,0.2 h 0.7 l 0.7,-0.4 0.6,-0.7 0.4,-0.8 v -0.8 l -0.1,-0.7 -0.5,-0.5 m -3.1,4 V -34 l 0.1,-0.1 0.1,-0.1 0.1,-0.1 h 0.2 0.1 0.1 v 0.1 m -0.7,0.3 -0.1,0.1 -0.1,0.2 -0.1,0.1 v 0.1 l -0.1,0.1 -0.1,0.2 v 0.1 l -0.1,0.1 m 0,0 -0.1,0.2 v 0.1 0.1 0.1 0.1 l 0.1,0.1 0.1,0.1 h 0.1 m 3.5,-5.8 -11,-6.4 m -2,3.8 0.2,0.1 0.7,-0.1 0.7,-0.4 0.6,-0.6 0.4,-0.8 0.1,-0.9 -0.2,-0.7 -0.5,-0.4 m -5.4,9.7 0.6,0.1 0.7,-0.2 0.7,-0.5 0.5,-0.8 0.2,-0.8 v -0.8 l -0.3,-0.6 m -0.1,-2.2 -0.1,0.2 -0.1,0.1 v 0.1 l -0.1,0.2 -0.1,0.1 -0.1,0.1 v 0.2 l -0.1,0.1 m 6,-6.5 h 0.3 l 0.7,-0.3 0.7,-0.6 0.4,-0.7 0.2,-0.9 V -49 l -0.4,-0.6 m -7.3,9.2 0.1,-0.1 v -0.1 h 0.1 l 0.2,-0.1 h 0.1 0.1 0.1 m 3.1,-5.4 -0.1,0.1 -0.1,0.1 -0.1,0.1 -0.1,0.1 -0.1,0.1 v 0.2 l -0.1,0.1 -0.1,0.1 m -3.7,5.9 -0.1,0.1 v 0.1 0.2 0.1 0.1 l 0.1,0.1 h 0.1 m 3.6,-6.6 -0.1,0.1 v 0.1 l -0.1,0.2 v 0.1 0.1 l 0.1,0.1 v 0.1 l 0.1,0.1 m 0.7,-1.8 0.1,-0.1 0.1,-0.1 0.1,-0.1 h 0.1 0.1 0.1 m -7.5,12.3 v 0.1 l -0.1,0.1 v 0.2 l -0.1,0.1 v 0.1 l -0.1,0.2 -0.1,0.1 v 0.1 m 0.4,-1 0.1,-0.2 0.1,-0.1 0.1,-0.1 h 0.1 l 0.1,-0.1 h 0.1 0.1 0.1 m -1.2,1.5 v 0.2 l -0.1,0.1 v 0.1 l 0.1,0.1 v 0.1 l 0.1,0.1 m -1.1,4.1 h 0.6 l 0.7,-0.4 0.6,-0.6 0.4,-0.8 0.2,-0.8 -0.2,-0.7 v -0.1 m 10.4,-19.6 -0.1,0.1 -0.1,0.1 -0.1,0.1 -0.1,0.1 -0.1,0.1 -0.1,0.1 -0.1,0.1 -0.1,0.1 m 0,0 -0.1,0.1 v 0.1 l -0.1,0.2 v 0.1 0.1 0.1 l 0.1,0.1 v 0.1 m 3,-1 0.4,-0.1 0.7,-0.5 0.5,-0.7 0.4,-0.8 v -0.8 l -0.2,-0.7 m -3.9,2.9 0.1,-0.1 0.1,-0.1 h 0.1 0.2 0.1 m -14.1,23.8 0.1,-0.1 0.1,-0.1 V -28 l 0.1,-0.1 0.1,-0.1 0.1,-0.1 h 0.2 0.1 m -0.8,0.6 v 0.1 0.2 l -0.1,0.1 v 0.2 0.1 l -0.1,0.1 v 0.2 0.1 m 0,0 -0.1,0.1 v 0.2 l 0.1,0.1 v 0.1 h 0.1 v 0.1 m -0.5,4.1 0.7,-0.2 0.7,-0.5 0.5,-0.7 0.3,-0.8 v -0.8 -0.2 m 16.9,-30.7 -0.1,0.1 -0.1,0.1 -0.1,0.1 -0.1,0.1 -0.2,0.1 -0.1,0.1 h -0.1 l -0.1,0.1 m 0,0 -0.1,0.1 -0.1,0.1 v 0.2 l -0.1,0.1 v 0.1 0.1 0.1 l 0.1,0.1 m 1.1,-1.6 h 0.1 l 0.1,-0.1 h 0.1 0.1 l 0.1,0.1 m 2,1.1 0.4,-0.2 0.6,-0.6 0.5,-0.8 0.1,-0.8 -0.1,-0.8 m -23.7,36.7 v -0.1 l 0.1,-0.2 v -0.1 l 0.1,-0.1 0.1,-0.1 h 0.1 l 0.1,-0.1 h 0.1 m -0.6,0.7 v 0.1 l -0.1,0.2 v 0.1 0.1 0.2 0.1 0.2 0.1 m 0,0 v 0.1 0.1 0.1 l 0.1,0.1 m 0.2,4 0.7,-0.3 0.7,-0.6 0.4,-0.7 0.2,-0.9 v -0.2 m 21.9,-40.4 -0.1,0.1 -0.1,0.1 -0.1,0.1 v 0.1 l -0.1,0.2 v 0.1 0.1 0.1 m 1.3,-1.4 -0.1,0.1 h -0.1 l -0.1,0.1 -0.1,0.1 h -0.2 l -0.1,0.1 -0.1,0.1 h -0.1 m 0.9,-0.5 0.1,-0.1 h 0.1 0.1 l 0.1,0.1 h 0.1 m 2.3,1.4 0.5,-0.4 0.5,-0.7 0.3,-0.8 v -0.8 m -29.4,45.7 v -0.1 -0.1 l 0.1,-0.2 v -0.1 l 0.1,-0.1 0.1,-0.1 h 0.1 l 0.1,-0.1 m -0.5,0.8 v 0.2 0.1 0.1 0.2 0.1 0.1 0.1 0.2 m 0,0 v 0.1 l 0.1,0.1 v 0.1 h 0.1 m 0.9,3.8 0.7,-0.5 0.5,-0.7 0.4,-0.8 V -12 m 27.2,-49.5 -0.1,0.1 h -0.1 l -0.1,0.1 -0.1,0.2 v 0.1 l -0.1,0.1 v 0.1 0.2 m 1.5,-1.2 h -0.2 -0.1 l -0.1,0.1 h -0.1 l -0.1,0.1 h -0.2 l -0.1,0.1 h -0.1 m 1,-0.3 0.1,-0.1 h 0.1 l 0.1,0.1 m -30.6,52.9 V -9 -9.1 l 0.1,-0.2 v -0.1 l 0.1,-0.1 0.1,-0.1 0.1,-0.1 h 0.1 m 32.8,-50.5 0.5,-0.6 0.4,-0.7 0.1,-0.9 m -34.3,53.5 0.1,0.1 v 0.2 0.1 0.1 l 0.1,0.1 v 0.1 0.2 l 0.1,0.1 m 0,0 v 0.1 0.1 h 0.1 m 1.6,3.4 0.6,-0.6 0.5,-0.7 0.1,-0.4 m 31.7,-57.1 h -0.1 l -0.2,0.1 h -0.1 v 0.1 l -0.1,0.2 -0.1,0.1 v 0.1 0.1 m 1.5,-0.9 h -0.1 -0.1 l -0.1,0.1 h -0.2 -0.1 -0.1 -0.1 l -0.1,0.1 m 0.9,-0.2 h 0.1 0.1 0.1 m -34.4,59.9 -0.1,-0.2 v -0.1 -0.1 l 0.1,-0.1 v -0.2 l 0.1,-0.1 0.1,-0.1 h 0.1 m 37,-57.2 0.4,-0.7 0.3,-0.8 m -38,59.6 v 0.1 0.1 l 0.1,0.1 V -3 l 0.1,0.1 v 0.1 l 0.1,0.1 v 0.1 m 0,0 0.1,0.1 0.1,0.1 m 2.2,2.8 0.6,-0.7 0.2,-0.3 m 35.1,-63.1 h -0.1 l -0.1,0.1 h -0.1 l -0.1,0.1 -0.1,0.1 -0.1,0.2 v 0.1 0.1 m 1.5,-0.6 -0.1,-0.1 h -0.1 -0.1 -0.1 -0.1 -0.2 -0.1 -0.1 m 0.9,0.1 h 0.1 0.1 M -256,1.3 -256.1,1.2 V 1.1 1 0.9 L -256,0.7 V 0.6 l 0.1,-0.1 0.1,-0.1 m 40.1,-62.2 0.3,-0.7 M -256,1.3 v 0.1 l 0.1,0.1 0.1,0.1 v 0.1 l 0.1,0.1 0.1,0.1 0.1,0.1 m 0,0 0.1,0.1 m 2.8,2.2 0.3,-0.3 m 37.6,-67.1 h -0.1 -0.1 l -0.1,0.1 -0.1,0.1 h -0.1 l -0.1,0.1 -0.1,0.2 v 0.1 m 1.6,-0.4 h -0.2 -0.1 -0.1 l -0.1,-0.1 h -0.1 -0.1 -0.1 l -0.1,-0.1 m 0.9,0.2 v 0.1 m -38.9,68 -0.1,-0.1 V 5 4.9 4.8 4.7 l 0.1,-0.2 V 4.4 l 0.1,-0.1 m -0.1,0.9 0.1,0.1 0.1,0.1 h 0.1 v 0.1 l 0.1,0.1 0.1,0.1 h 0.1 l 0.1,0.1 m 0,0 v 0 m 42.1,-67.2 h -0.1 -0.1 -0.2 l -0.1,0.1 -0.1,0.1 h -0.1 v 0.2 h -0.1 m 3.5,1.2 -2,-1.2 m 0,0 h -0.1 l -0.1,-0.1 h -0.1 l -0.1,-0.1 h -0.1 l -0.1,-0.1 h -0.1 v -0.1 m -33.7,72.5 -5,-2.9 m 0,0 -0.1,-0.1 -0.1,-0.1 V 7.9 7.8 7.7 m 195.6,21.4 -4.2,2 -4.2,2.4 -4.1,2.8 -3.9,3.1 -3.7,3.5 -3.5,3.8 -3.3,4.2 -3.1,4.3 -2.7,4.6 -2.4,4.7 -2.1,4.8 -1.7,5 -1.3,4.9 -1,5 -0.6,4.9 -0.1,4.9 0.2,4.7 0.6,4.5 1.1,4.3 1.4,4.1 1.7,3.7 2.2,3.5 2.5,3.1 2.7,2.7 3.1,2.3 3.3,1.9 3.6,1.5 3.8,1 3.9,0.5 4.1,0.1 4.2,-0.4 4.2,-0.9 4.3,-1.3 4.3,-1.7 4.2,-2.2 4.1,-2.6 4,-3 3.8,-3.3 3.6,-3.7 3.5,-4 3.1,-4.2 2.9,-4.5 2.6,-4.6 2.2,-4.8 1.9,-4.9 1.6,-5 1.1,-4.9 0.8,-5 0.3,-4.9 v -4.7 l -0.4,-4.7 -0.9,-4.4 -1.2,-4.2 -1.6,-3.9 -1.9,-3.6 -2.3,-3.3 -2.7,-2.9 -2.9,-2.5 -3.2,-2.1 -3.5,-1.7 -3.7,-1.2 -3.8,-0.8 -4,-0.3 -4.2,0.2 -4.2,0.6 -4.2,1.1 -4.3,1.5 m -47.4,-27.8 -4.2,2 -4.2,2.4 -4,2.8 -3.9,3.1 -3.8,3.5 -3.5,3.9 -3.3,4.1 -3,4.3 -2.8,4.6 -2.4,4.7 -2,4.9 -1.8,4.9 -1.3,5 -1,4.9 -0.5,5 -0.2,4.8 0.2,4.7 0.7,4.5 1,4.3 1.4,4.1 1.8,3.7 2.1,3.5 2.5,3.1 2.8,2.7 3.1,2.3 1.2,0.8 m 57.4,-97.8 -0.4,-0.2 -3.4,-1.7 -3.7,-1.2 -3.9,-0.8 -4,-0.3 -4.1,0.2 -4.2,0.6 -4.3,1.1 -4.3,1.5 m 59.9,42.2 H -41 m -37.6,56.4 1.3,0.9 2.6,1.4 2.8,1 3,0.5 h 3.1 l 3.2,-0.4 3.3,-0.9 3.2,-1.3 3.2,-1.8 3.1,-2.2 2.9,-2.5 2.8,-2.9 2.5,-3.1 1.8,-2.7 m 3.9,-8 1.3,-3.8 0.8,-3.8 0.4,-3.8 0.1,-3.7 -0.4,-3.5 -0.7,-3.3 -1.2,-3.1 -1.5,-2.7 -1.8,-2.4 -2.2,-2.1 -2.4,-1.6 -1.7,-0.8 m -149.7,-114.7 2.6,2.9 0.8,1 m -56.8,93.5 -3,-0.7 -3.6,-1.4 -3.4,-1.8 -3.1,-2.3 -2.8,-2.6 -2.6,-3 -2.2,-3.4 -1.8,-3.7 -1.5,-4 -1.1,-4.3 -0.7,-4.5 -0.3,-4.7 0.1,-4.8 0.5,-4.9 0.9,-5 1.3,-4.9 1.6,-5 2,-4.9 2.4,-4.7 2.6,-4.6 3,-4.4 3.3,-4.1 3.5,-3.9 3.7,-3.6 3.9,-3.2 4,-2.9 4.1,-2.4 4.3,-2.1 4.2,-1.6 4.3,-1.2 4.2,-0.7 4.2,-0.2 4,0.2 3.9,0.7 3.7,1.2 3.5,1.6 3.3,2 3,2.4 m -110.1,66.1 -0.6,-0.4 -3.2,-2.2 -2.8,-2.7 -2.5,-3 -2.2,-3.4 -1.9,-3.7 -1.4,-4 -1.1,-4.3 -0.7,-4.5 -0.3,-4.7 V -43 l 0.5,-4.9 0.9,-4.9 1.3,-5 1.7,-5 2,-4.8 2.3,-4.8 2.7,-4.6 3,-4.4 3.2,-4.1 3.5,-3.9 3.7,-3.6 3.9,-3.2 4,-2.9 4.2,-2.4 4.2,-2.1 4.3,-1.6 4.2,-1.1 4.3,-0.7 4.1,-0.3 4,0.2 3.9,0.7 3.8,1.2 3.5,1.6 0.9,0.5 m 48.7,37 1.5,1.5 m -44.4,85 -2.5,-0.2 -3.6,-0.8 -3.5,-1.2 -3.2,-1.6 -2.9,-2.1 -2.7,-2.5 -2.3,-2.9 -2,-3.2 -1.7,-3.5 -1.3,-3.9 -0.9,-4 -0.5,-4.3 -0.2,-4.5 0.3,-4.5 0.7,-4.7 1.1,-4.6 1.4,-4.7 1.8,-4.6 2.2,-4.5 2.4,-4.3 2.8,-4.1 3.1,-3.9 3.3,-3.6 3.5,-3.4 3.7,-2.9 3.8,-2.6 3.9,-2.2 4,-1.7 4,-1.4 4,-0.8 3.9,-0.4 h 3.8 l 3.7,0.5 3.6,1 3.3,1.5 3.1,1.8 2.8,2.3 m -42.8,86.2 h -0.5 l -3.8,-0.5 -3.5,-1 -3.4,-1.4 -3.1,-1.9 -2.9,-2.3 -2.5,-2.7 -2.2,-3.1 -1.8,-3.4 -1.5,-3.8 -1.1,-4 -0.1,-0.6 m 39.2,-66.7 1.1,-0.3 4.1,-1 3.9,-0.4 h 3.9 l 3.8,0.5 3.5,0.9 3.4,1.5 3.1,1.8 2.9,2.4 m 120.6,165.8 1.3,0.9 2.6,1.4 2.8,1 3,0.5 h 3.1 l 3.2,-0.4 3.3,-0.9 3.2,-1.3 3.2,-1.8 3.1,-2.2 2.9,-2.5 2.8,-2.9 2.5,-3.1 1.8,-2.7 m 3.9,-8 1.3,-3.8 0.8,-3.8 0.4,-3.8 0.1,-3.7 -0.4,-3.5 -0.7,-3.3 -1.2,-3.1 -1.5,-2.7 -1.8,-2.4 -2.2,-2.1 -2.4,-1.6 -1.7,-0.8 m -35,52.4 1.1,1.2 2.2,1.9 2.4,1.5 2.8,1.1 2.9,0.5 3,0.1 3.2,-0.4 m 6.6,-2.2 2.9,-1.7 3,-2.2 2.9,-2.5 2.7,-2.9 2.4,-3.1 0.9,-1.4 m 4.3,-8.7 0.1,-0.5 1.1,-3.8 0.7,-3.7 0.2,-3.7 -0.1,-3.5 -0.6,-3.4 -0.9,-3.1 -1.4,-2.8 -1.7,-2.5 -2,-2.1 -2.3,-1.7 -2.6,-1.3 -2.9,-0.8 h -0.1 m -20.9,39.9 h 0.1 2.1 l 2.3,-0.5 2.2,-0.9 2,-1.2 m 8.3,-14.2 0.1,-2.3 -0.3,-2.4 -0.6,-2.1 -1.1,-1.9 -1.4,-1.6 -0.6,-0.5 m -133.2,-17.7 0.2,-1.1 0.1,-1.2 v -1.2 l -0.1,-1.1 -0.2,-1.2 -0.3,-1.1 -0.3,-1 -0.5,-1 m 0,0 -0.5,-0.9 -0.6,-0.7 -0.6,-0.6 -0.7,-0.5 -0.7,-0.4 -0.8,-0.2 h -0.7 m 0.8,17.9 0.7,-0.1 m 0,0 0.7,-0.2 0.7,-0.4 0.6,-0.6 0.6,-0.6 0.5,-0.8 0.5,-0.9 0.3,-1 0.3,-1.1 m 6.9,-9.2 0.9,1.9 0.8,2.1 m -4.3,-8.1 2.6,4.1 m -9.6,-3.8 7,-0.3 m -5.4,4.4 -0.9,-1.9 -0.7,-2.2 m 4.3,8.1 -2.7,-4 m 2.7,4 7,-0.3 m -17,2.1 0.1,-1 0.1,-0.9 0.1,-0.3 m 8.1,5.3 0.8,-2.9 0.8,-2 m -9.7,7.1 1.1,0.4 1,-0.1 1,-0.6 0.8,-1.1 0.6,-1.5 0.3,-1.6 -0.1,-1.8 -0.3,-1.6 -0.7,-1.5 -0.9,-1 -1,-0.7 -1.1,-0.1 -1,0.4 -1,0.9 -0.7,1.3 -0.4,1.5 -0.1,1.7 0.2,1.8 0.5,1.5 0.8,1.3 1,0.8 m 16.1,-2.5 -1,3.6 -0.5,1.2 m 2.1,-9.7 -0.1,1.9 -0.5,3 m -8.5,5.1 v -1.2 l 0.5,-3.6 m -0.5,4.8 7,-0.3 m -14.5,-2.3 1.1,0.4 h 0.3 m -0.5,-11.6 h -0.1 l -1.1,0.4 -0.9,0.9 -0.7,1.3 -0.4,1.5 -0.1,1.7 0.2,1.8 0.5,1.5 0.8,1.3 0.9,0.8 m 3.8,3.4 1.6,-0.3 2.1,-0.5 m -2.2,-17.8 -3.7,0.9 m -1.8,10.2 0.2,-1.9 0.1,-0.3 m 2.5,5.3 -0.1,-0.1 -0.5,-0.4 m -2,-6.6 0.9,-1.2 1,-0.7 m -2.3,4.7 0.2,-1.2 0.4,-1.1 0.5,-1 0.7,-0.7 0.7,-0.6 m 9.7,13 -1.6,0.4 -2.1,0.4 m 6.4,-1.6 -2.7,0.8 m -10.7,1.1 2.7,-0.8 m -2.7,0.8 7,-0.3 m -8.2,-1.3 1.2,1.6 m -2.2,-17.8 -0.5,1.2 m 2.9,-1.9 -1.1,0.3 -1.3,0.4 m 1.5,12.6 0.9,0.3 1,-0.2 0.8,-0.7 0.7,-1.1 0.4,-1.4 0.1,-1.5 -0.3,-1.5 -0.5,-1.3 -0.8,-1 -0.9,-0.6 -1,-0.1 -0.9,0.5 -0.8,0.9 -0.5,1.3 -0.2,1.4 v 1.6 l 0.4,1.4 0.7,1.2 0.9,0.8 m 1.2,-0.1 0.5,0.3 m -0.4,-9.2 -0.5,0.3 -0.8,0.9 -0.5,1.3 -0.3,1.5 0.1,1.5 0.4,1.5 0.7,1.2 0.8,0.7 m 2.9,9.7 -0.8,-1.1 -1.3,-2.3 -0.5,-1 m -1,-18.6 0.2,-0.8 1.1,-2.5 1.3,-2.2 v -0.1 m 10.8,-6.6 2,0.2 2,0.6 1.9,1.2 1.8,1.6 1.6,2 1.5,2.4 1.2,2.7 0.9,3 0.6,3.1 0.3,3.2 v 3.2 l -0.4,3.2 -0.6,3 -0.9,2.8 -1.2,2.5 -1.5,2.2 -1.6,1.8 -1.9,1.3 -1.9,0.8 -2,0.4 h -0.1 m 123.3,20.1 0.5,-1.4 0.8,-1.3 1,-1 1.2,-0.6 1.2,-0.2 1.1,0.3 0.8,0.8 0.5,1 0.1,1.4 -0.3,1.4 -0.6,1.3 -1,1.2 -1.1,0.8 -1.3,0.4 -1.1,-0.1 -1,-0.5 -0.6,-0.9 -0.3,-1.2 0.1,-1.4 m -1.5,-0.4 -0.1,1.6 0.2,1.4 0.7,1.1 1,0.8 1.2,0.3 1.3,-0.2 1.3,-0.6 1.3,-1.1 1,-1.3 0.7,-1.5 0.3,-1.6 v -1.5 l -0.5,-1.3 -0.8,-0.9 -1.1,-0.6 h -1.3 l -1.4,0.4 -1.3,0.8 -1.1,1.2 -0.9,1.5 -0.5,1.5 m -112.2,-20 -0.8,0.1 m -5.2,-39.4 0.5,-0.4 1.9,-1.1 1.4,-0.5 m 2.8,41.3 h -0.2 l -2.1,-0.4 -2,-0.9 -0.6,-0.4 m -3.5,37.2 h -0.1 m 15,-0.4 v 0 m -25.7,-5.9 v 0 l 0.1,0.1 m -0.8,-1.3 v 0 m -6.3,-47.6 v -0.4 l 0.1,-1.7 0.1,-0.1 M -167,90 v 0 l -1.1,0.5 -1.5,0.3 -1.9,0.1 h -2.2 l -2.3,-0.2 -1.3,-0.2 m -4.7,-1.1 -1.2,-0.4 -2.2,-0.7 -1.8,-0.9 -1.5,-0.8 -1.1,-0.9 -0.6,-0.9 -0.1,-0.4 m 3.9,2.3 0.7,0.4 m 6.3,34.5 v -0.1 m 32.7,-28.4 -32.7,28.5 m -0.2,-0.1 h 0.1 l 0.1,0.1 m 10.2,6 -10.4,-6.1 m 15.1,5.1 -0.5,0.4 -0.6,0.3 -0.7,0.3 -0.6,0.2 -0.7,0.1 h -0.6 l -0.5,-0.1 -0.5,-0.2 m 39.2,-31 -34.5,30 m 5.8,-14 -0.7,-0.7 -0.1,-0.9 0.4,-1 0.8,-1 1.2,-0.7 1.3,-0.5 1.2,-0.1 1.1,0.3 0.6,0.7 0.1,0.9 -0.4,1 -0.8,1 -1.1,0.7 -1.4,0.5 -1.2,0.1 -1,-0.3 m -9.8,8.4 -0.6,-0.6 -0.1,-0.9 0.3,-1 0.9,-1 1.1,-0.7 1.3,-0.5 1.3,-0.1 1,0.3 0.6,0.7 0.2,0.9 -0.4,1 -0.8,0.9 -1.2,0.8 -1.3,0.5 -1.3,0.1 -1,-0.4 m 2.1,12.1 0.5,0.2 0.5,0.1 h 0.6 l 0.7,-0.1 0.6,-0.1 0.7,-0.3 0.6,-0.4 0.5,-0.4 m -18.6,-13.7 0.2,0.9 0.2,0.8 0.3,0.7 0.2,0.7 m 54.4,-21.3 -36.7,31.9 m -17.9,-10.6 -22.2,-13.1 m 0,0 -10.4,-6.1 m 45.8,30.8 -43,-25.2 m 19.4,-20.8 1.9,1 2.2,0.9 2.4,0.8 2.7,0.7 2.7,0.6 2.7,0.4 2.6,0.3 2.5,0.1 2.2,-0.1 1.8,-0.3 1.4,-0.4 1,-0.6 0.5,-0.7 -0.1,-0.9 -0.1,-0.2 m -28.5,-6.4 -0.4,0.4 -0.5,0.7 v 0.8 l 0.5,0.9 1.1,1 1.4,1 m 23.6,4.4 v 0 l -0.1,-0.7 m -24.2,-5.1 -0.2,0.3 -0.1,0.4 m -11,21.9 0.1,0.1 h 0.1 m -0.2,-0.2 -0.1,-0.5 -0.1,-0.7 0.1,-0.6 v -0.3 m 0.1,2.1 v 0.1 m -9.7,-9.5 12.8,-11.1 m -13.3,14.6 -0.3,-0.2 -0.3,-0.4 -0.1,-0.4 v -0.5 l 0.1,-0.5 0.2,-0.5 0.4,-0.5 0.5,-0.5 m 8.3,1.8 -0.6,-0.7 -0.1,-0.9 0.3,-1 0.9,-1 1.1,-0.7 1.2,-0.5 m -0.9,5.1 h -0.9 l -1,-0.3 m -6.6,6.7 0.3,0.3 0.3,0.3"
           style="fill:none;stroke:#000000;stroke-width:0.709;stroke-linecap:round;stroke-linejoin:round;stroke-miterlimit:10;stroke-dasharray:none;stroke-opacity:1"
           id="path962" />
      </g>
    </g>
    <path
       style="fill:none;stroke:#000000;stroke-width:0.264583px;stroke-linecap:round;stroke-linejoin:miter;stroke-opacity:1"
       d="m 78.719689,146.18276 1.219652,4.98873"
       id="path1633" />
  </g>
</svg>
