<?xml version="1.0" encoding="UTF-8" standalone="no"?>
<!-- Created with Inkscape (http://www.inkscape.org/) -->

<svg
   width="120.01904mm"
   height="72.244759mm"
   viewBox="0 0 120.01903 72.244758"
   version="1.1"
   id="svg5"
   inkscape:version="1.1.2 (0a00cf5339, 2022-02-04, custom)"
   sodipodi:docname="HTD Parametric Pulley.svg"
   xmlns:inkscape="http://www.inkscape.org/namespaces/inkscape"
   xmlns:sodipodi="http://sodipodi.sourceforge.net/DTD/sodipodi-0.dtd"
   xmlns="http://www.w3.org/2000/svg"
   xmlns:svg="http://www.w3.org/2000/svg">
  <sodipodi:namedview
     id="namedview7"
     pagecolor="#505050"
     bordercolor="#eeeeee"
     borderopacity="1"
     inkscape:pageshadow="0"
     inkscape:pageopacity="0"
     inkscape:pagecheckerboard="0"
     inkscape:document-units="mm"
     showgrid="false"
     inkscape:zoom="0.52347032"
     inkscape:cx="-52.53402"
     inkscape:cy="114.61968"
     inkscape:window-width="1920"
     inkscape:window-height="1017"
     inkscape:window-x="-8"
     inkscape:window-y="-8"
     inkscape:window-maximized="1"
     inkscape:current-layer="layer1" />
  <defs
     id="defs2" />
  <g
     inkscape:label="Ebene 1"
     inkscape:groupmode="layer"
     id="layer1"
     transform="translate(222.56017,203.21951)">
    <g
       id="g5126">
      <g
         id="g4071"
         transform="matrix(0.35277777,0,0,-0.35277777,-110.78094,-141.04833)">
        <path
           d="M 0,0 0.3,0.4 0.6,0.8 0.8,1.2 1,1.7 1.2,2.2 V 2.7 L 1.3,3.2 1.2,3.7 1.1,4.2 1,4.7 0.8,5.1 0.5,5.6 0.2,6 -0.1,6.3 -0.5,6.7 -0.9,6.9 -1.4,7.2 -1.8,7.4 -2.3,7.5 H -2.8 -3.3 -3.8 L -4.3,7.4 -4.8,7.2 -5.3,7 -5.7,6.7 -6.1,6.4 -6.4,6.1 -6.7,5.7 -7,5.3 -7.2,4.8 -7.4,4.3 -7.5,3.8 V 3.3 2.8 2.3 L -7.4,1.8 -7.2,1.4 -7,0.9 -6.7,0.5 -6.3,0.1 -6,-0.2 l 0.4,-0.3 0.5,-0.3 0.4,-0.2 0.5,-0.1 0.5,-0.1 0.5,-0.1 h 0.5 l 0.5,0.1 0.5,0.2 0.4,0.2 0.5,0.2 0.4,0.3 L 0,0 M -9.4,0.5 3.1,5.8"
           style="fill:none;stroke:#000000;stroke-width:0.51;stroke-linecap:butt;stroke-linejoin:miter;stroke-miterlimit:10;stroke-dasharray:none;stroke-opacity:1"
           id="path4073" />
      </g>
      <text
         transform="matrix(0.7072132,0.7072132,-0.70700038,0.70700038,0,0)"
         style="font-variant:normal;font-weight:normal;font-stretch:normal;font-size:4.66739px;font-family:'Century Gothic';-inkscape-font-specification:CenturyGothic;writing-mode:lr-tb;fill:#000000;fill-opacity:1;fill-rule:nonzero;stroke:none;stroke-width:0.352831"
         id="text4077"
         x="-177.0432"
         y="-19.717649"><tspan
           x="-177.0432 -174.45668 -173.16342 -170.5769 -167.9904"
           y="-19.717649"
           sodipodi:role="line"
           id="tspan4075"
           style="stroke-width:0.352831">4,20</tspan></text>
      <g
         id="g4079"
         transform="matrix(0.35277777,0,0,-0.35277777,-168.49539,-142.45944)">
        <path
           d="M 0,0 -0.4,0.4 -0.8,0.7 -1.3,0.9 -1.7,1.1 -2.2,1.2 -2.7,1.3 H -3.2 -3.7 L -4.2,1.2 -4.7,1 -5.2,0.8 -5.6,0.6 -6,0.3 -6.4,-0.1 -6.7,-0.4 -7,-0.9 -7.2,-1.3 -7.4,-1.8 -7.5,-2.3 -7.6,-2.8 v -0.5 l 0.1,-0.5 0.1,-0.5 0.1,-0.4 0.3,-0.5 0.2,-0.4 0.3,-0.4 0.4,-0.4 0.4,-0.3 0.4,-0.3 0.5,-0.2 0.5,-0.1 0.4,-0.1 0.5,-0.1 h 0.5 l 0.5,0.1 0.5,0.1 0.5,0.2 0.5,0.2 0.4,0.3 0.4,0.3 0.3,0.4 0.3,0.4 0.3,0.4 0.2,0.5 0.1,0.5 0.1,0.4 v 0.5 0.6 L 1.1,-2.2 1,-1.7 0.8,-1.2 0.6,-0.8 0.3,-0.3 0,0 M -0.5,-9.3 -5.8,3.1"
           style="fill:none;stroke:#000000;stroke-width:0.51;stroke-linecap:butt;stroke-linejoin:miter;stroke-miterlimit:10;stroke-dasharray:none;stroke-opacity:1"
           id="path4081" />
      </g>
      <text
         transform="matrix(0.7072132,-0.7072132,0.70700038,0.70700038,0,0)"
         style="font-variant:normal;font-weight:normal;font-stretch:normal;font-size:4.66739px;font-family:'Century Gothic';-inkscape-font-specification:CenturyGothic;writing-mode:lr-tb;fill:#000000;fill-opacity:1;fill-rule:nonzero;stroke:none;stroke-width:0.352831"
         id="text4085"
         x="-17.376076"
         y="-218.2197"><tspan
           x="-17.376076 -14.789562 -12.203049 -10.909792 -8.3232784 -5.7367649"
           y="-218.2197"
           sodipodi:role="line"
           id="tspan4083"
           style="stroke-width:0.352831">56,15</tspan></text>
      <text
         transform="scale(1.0001505,0.99984953)"
         style="font-variant:normal;font-weight:normal;font-stretch:normal;font-size:4.66735px;font-family:'Century Gothic';-inkscape-font-specification:CenturyGothic;writing-mode:lr-tb;fill:#000000;fill-opacity:1;fill-rule:nonzero;stroke:none;stroke-width:0.352831"
         id="text4089"
         x="-205.27081"
         y="-138.08287"><tspan
           x="-205.27081 -202.68431 -200.09782 -198.80458 -196.21809 -193.63159"
           y="-138.08287"
           sodipodi:role="line"
           id="tspan4087"
           style="stroke-width:0.352831">13,00</tspan></text>
      <g
         id="g4191"
         transform="matrix(0.35277777,0,0,-0.35277777,-151.87956,-155.19472)">
        <path
           d="M 0,0 -8.1,-5.2 -5.2,-8.1 0,0"
           style="fill:none;stroke:#000000;stroke-width:0.51;stroke-linecap:butt;stroke-linejoin:miter;stroke-miterlimit:10;stroke-dasharray:none;stroke-opacity:1"
           id="path4193" />
      </g>
      <g
         id="g4195"
         transform="matrix(0.35277777,0,0,-0.35277777,-160.08538,-175.05304)">
        <path
           d="m 0,0 0.029,-2.131 0.085,-2.129 0.143,-2.126 0.199,-2.121 0.256,-2.116 0.313,-2.108 0.369,-2.098 0.425,-2.088 0.481,-2.076 0.536,-2.063 0.591,-2.047 0.646,-2.03 0.7,-2.013 0.753,-1.993 0.807,-1.973 0.859,-1.949 0.911,-1.927 0.962,-1.901 1.013,-1.875 1.063,-1.847 1.112,-1.818 1.16,-1.787 1.207,-1.756 1.254,-1.722 1.3,-1.689 1.344,-1.653 1.389,-1.617 1.431,-1.579 1.472,-1.54 1.514,-1.5 1.553,-1.459 1.592,-1.417 1.628,-1.373 1.666,-1.33 1.7,-1.284 1.734,-1.239 1.766,-1.192 1.798,-1.144 1.827,-1.095 1.857,-1.047 1.884,-0.996 1.909,-0.945 1.935,-0.894 1.957,-0.841 1.98,-0.789 1.999,-0.736 2.019,-0.682 2.036,-0.628 2.053,-0.573 2.067,-0.517 2.08,-0.463 2.092,-0.406 2.102,-0.35 2.11,-0.294 2.118,-0.237 2.123,-0.181 2.127,-0.123 2.13,-0.067 2.131,-0.009 2.13,0.047 2.129,0.105 2.124,0.161 2.12,0.218 2.113,0.276 2.105,0.331 2.095,0.388 2.084,0.443 2.072,0.5 2.057,0.554 2.042,0.61 2.025,0.664 2.006,0.717 1.987,0.772 1.965,0.824 1.942,0.876 1.918,0.929 1.892,0.979 1.866,1.029 1.838,1.08 1.807,1.127 1.777,1.176 1.745,1.223 1.712,1.27 1.677,1.315 1.641,1.359 1.604,1.402 1.566,1.445 1.527,1.487 1.486,1.527 1.445,1.566 1.403,1.604 1.359,1.641 1.315,1.677 1.269,1.711 1.223,1.745 1.176,1.777 1.128,1.808 1.079,1.837 1.03,1.866 0.979,1.893 0.928,1.918 0.877,1.942 0.824,1.965 0.771,1.986 0.718,2.007 0.664,2.024 0.61,2.042 0.554,2.058 0.499,2.071 0.444,2.084 0.388,2.096 0.331,2.105 0.275,2.113 0.218,2.119 0.162,2.125 0.105,2.128 0.047,2.131 -0.009,2.131 -0.067,2.129 -0.124,2.128 -0.18,2.123 -0.237,2.117 -0.294,2.111 -0.35,2.102 -0.407,2.092 -0.462,2.08 -0.518,2.067 -0.573,2.052 -0.627,2.036 -0.682,2.019 -0.736,2 -0.789,1.98 -0.842,1.957 -0.894,1.934 -0.945,1.91 -0.996,1.884 -1.046,1.856 -1.095,1.828 -1.145,1.798 -1.191,1.766 -1.239,1.734 -1.284,1.7 -1.33,1.665 -1.374,1.629 -1.417,1.592 -1.459,1.553 -1.5,1.513 -1.54,1.473 -1.578,1.431 -1.617,1.388 -1.653,1.345 -1.689,1.299 -1.723,1.254 -1.755,1.208 -1.788,1.16 -1.818,1.112 -1.847,1.062 -1.874,1.013 -1.902,0.963 -1.926,0.911 -1.95,0.859 -1.972,0.806 -1.993,0.754 -2.013,0.7 -2.031,0.646 -2.047,0.591 -2.062,0.536 -2.076,0.481 -2.088,0.425 -2.099,0.369 -2.108,0.313 -2.115,0.256 -2.121,0.199 -2.127,0.143 -2.129,0.085 -2.13,0.029"
           style="fill:none;stroke:#000000;stroke-width:0.51;stroke-linecap:butt;stroke-linejoin:miter;stroke-miterlimit:10;stroke-dasharray:18, 3.6, 3.6, 3.6, 3.6, 3.6;stroke-dashoffset:1.484;stroke-opacity:1"
           id="path4197" />
      </g>
      <g
         id="g4199"
         transform="matrix(0.35277777,0,0,-0.35277777,-130.5365,-156.88805)">
        <path
           d="M 0,0 5.2,-8 8,-5.2 0,0"
           style="fill:none;stroke:#000000;stroke-width:0.51;stroke-linecap:butt;stroke-linejoin:miter;stroke-miterlimit:10;stroke-dasharray:none;stroke-opacity:1"
           id="path4201" />
      </g>
      <g
         id="g4203"
         transform="matrix(0.35277777,0,0,-0.35277777,-222.43511,-137.02666)">
        <path
           d="M 0,0 9.4,2.1 V -2 L 0,0 M 36.9,0 27.5,-2 V 2.1 L 36.9,0"
           style="fill:none;stroke:#000000;stroke-width:0.51;stroke-linecap:butt;stroke-linejoin:miter;stroke-miterlimit:10;stroke-dasharray:none;stroke-opacity:1"
           id="path4205" />
      </g>
      <g
         id="g4207"
         transform="matrix(0.35277777,0,0,-0.35277777,-147.84882,-167.40637)">
        <path
           d="M 0,0 V -5.953"
           style="fill:none;stroke:#000000;stroke-width:0.51;stroke-linecap:round;stroke-linejoin:round;stroke-miterlimit:10;stroke-dasharray:43.2, 3.6, 3.6, 3.6;stroke-dashoffset:0;stroke-opacity:1"
           id="path4209" />
      </g>
      <g
         id="g4211"
         transform="matrix(0.35277777,0,0,-0.35277777,-150.34882,-169.90636)">
        <path
           d="M 0,0 H -5.953"
           style="fill:none;stroke:#000000;stroke-width:0.51;stroke-linecap:round;stroke-linejoin:round;stroke-miterlimit:10;stroke-dasharray:43.2, 3.6, 3.6, 3.6;stroke-dashoffset:0;stroke-opacity:1"
           id="path4213" />
      </g>
      <g
         id="g4215"
         transform="matrix(0.35277777,0,0,-0.35277777,-147.84882,-172.40636)">
        <path
           d="M 0,0 V 5.953"
           style="fill:none;stroke:#000000;stroke-width:0.51;stroke-linecap:round;stroke-linejoin:round;stroke-miterlimit:10;stroke-dasharray:43.2, 3.6, 3.6, 3.6;stroke-dashoffset:0;stroke-opacity:1"
           id="path4217" />
      </g>
      <g
         id="g4219"
         transform="matrix(0.35277777,0,0,-0.35277777,-145.34879,-169.90636)">
        <path
           d="M 0,0 H 5.953"
           style="fill:none;stroke:#000000;stroke-width:0.51;stroke-linecap:round;stroke-linejoin:round;stroke-miterlimit:10;stroke-dasharray:43.2, 3.6, 3.6, 3.6;stroke-dashoffset:0;stroke-opacity:1"
           id="path4221" />
      </g>
      <g
         id="g4223"
         transform="matrix(0.35277777,0,0,-0.35277777,-141.79854,-186.02721)">
        <path
           d="M 0,0 V -5.953"
           style="fill:none;stroke:#000000;stroke-width:0.51;stroke-linecap:round;stroke-linejoin:round;stroke-miterlimit:10;stroke-dasharray:43.2, 3.6, 3.6, 3.6;stroke-dashoffset:0;stroke-opacity:1"
           id="path4225" />
      </g>
      <g
         id="g4227"
         transform="matrix(0.35277777,0,0,-0.35277777,-144.29854,-188.52721)">
        <path
           d="M 0,0 H -5.953"
           style="fill:none;stroke:#000000;stroke-width:0.51;stroke-linecap:round;stroke-linejoin:round;stroke-miterlimit:10;stroke-dasharray:43.2, 3.6, 3.6, 3.6;stroke-dashoffset:0;stroke-opacity:1"
           id="path4229" />
      </g>
      <g
         id="g4231"
         transform="matrix(0.35277777,0,0,-0.35277777,-141.79854,-191.0272)">
        <path
           d="M 0,0 V 5.953"
           style="fill:none;stroke:#000000;stroke-width:0.51;stroke-linecap:round;stroke-linejoin:round;stroke-miterlimit:10;stroke-dasharray:43.2, 3.6, 3.6, 3.6;stroke-dashoffset:0;stroke-opacity:1"
           id="path4233" />
      </g>
      <g
         id="g4235"
         transform="matrix(0.35277777,0,0,-0.35277777,-139.29855,-188.52721)">
        <path
           d="M 0,0 H 5.953"
           style="fill:none;stroke:#000000;stroke-width:0.51;stroke-linecap:round;stroke-linejoin:round;stroke-miterlimit:10;stroke-dasharray:43.2, 3.6, 3.6, 3.6;stroke-dashoffset:0;stroke-opacity:1"
           id="path4237" />
      </g>
      <g
         id="g4239"
         transform="matrix(0.35277777,0,0,-0.35277777,-122.21941,-186.02721)">
        <path
           d="M 0,0 V -5.953"
           style="fill:none;stroke:#000000;stroke-width:0.51;stroke-linecap:round;stroke-linejoin:round;stroke-miterlimit:10;stroke-dasharray:43.2, 3.6, 3.6, 3.6;stroke-dashoffset:0;stroke-opacity:1"
           id="path4241" />
      </g>
      <g
         id="g4243"
         transform="matrix(0.35277777,0,0,-0.35277777,-124.71941,-188.52721)">
        <path
           d="M 0,0 H -5.953"
           style="fill:none;stroke:#000000;stroke-width:0.51;stroke-linecap:round;stroke-linejoin:round;stroke-miterlimit:10;stroke-dasharray:43.2, 3.6, 3.6, 3.6;stroke-dashoffset:0;stroke-opacity:1"
           id="path4245" />
      </g>
      <g
         id="g4247"
         transform="matrix(0.35277777,0,0,-0.35277777,-122.21941,-191.0272)">
        <path
           d="M 0,0 V 5.953"
           style="fill:none;stroke:#000000;stroke-width:0.51;stroke-linecap:round;stroke-linejoin:round;stroke-miterlimit:10;stroke-dasharray:43.2, 3.6, 3.6, 3.6;stroke-dashoffset:0;stroke-opacity:1"
           id="path4249" />
      </g>
      <g
         id="g4251"
         transform="matrix(0.35277777,0,0,-0.35277777,-119.71942,-188.52721)">
        <path
           d="M 0,0 H 5.953"
           style="fill:none;stroke:#000000;stroke-width:0.51;stroke-linecap:round;stroke-linejoin:round;stroke-miterlimit:10;stroke-dasharray:43.2, 3.6, 3.6, 3.6;stroke-dashoffset:0;stroke-opacity:1"
           id="path4253" />
      </g>
      <g
         id="g4255"
         transform="matrix(0.35277777,0,0,-0.35277777,-116.16913,-167.40637)">
        <path
           d="M 0,0 V -5.953"
           style="fill:none;stroke:#000000;stroke-width:0.51;stroke-linecap:round;stroke-linejoin:round;stroke-miterlimit:10;stroke-dasharray:43.2, 3.6, 3.6, 3.6;stroke-dashoffset:0;stroke-opacity:1"
           id="path4257" />
      </g>
      <g
         id="g4259"
         transform="matrix(0.35277777,0,0,-0.35277777,-118.66913,-169.90636)">
        <path
           d="M 0,0 H -5.953"
           style="fill:none;stroke:#000000;stroke-width:0.51;stroke-linecap:round;stroke-linejoin:round;stroke-miterlimit:10;stroke-dasharray:43.2, 3.6, 3.6, 3.6;stroke-dashoffset:0;stroke-opacity:1"
           id="path4261" />
      </g>
      <g
         id="g4263"
         transform="matrix(0.35277777,0,0,-0.35277777,-116.16913,-172.40636)">
        <path
           d="M 0,0 V 5.953"
           style="fill:none;stroke:#000000;stroke-width:0.51;stroke-linecap:round;stroke-linejoin:round;stroke-miterlimit:10;stroke-dasharray:43.2, 3.6, 3.6, 3.6;stroke-dashoffset:0;stroke-opacity:1"
           id="path4265" />
      </g>
      <g
         id="g4267"
         transform="matrix(0.35277777,0,0,-0.35277777,-113.66914,-169.90636)">
        <path
           d="M 0,0 H 5.953"
           style="fill:none;stroke:#000000;stroke-width:0.51;stroke-linecap:round;stroke-linejoin:round;stroke-miterlimit:10;stroke-dasharray:43.2, 3.6, 3.6, 3.6;stroke-dashoffset:0;stroke-opacity:1"
           id="path4269" />
      </g>
      <g
         id="g4271"
         transform="matrix(0.35277777,0,0,-0.35277777,-132.00896,-155.89805)">
        <path
           d="M 0,0 V -5.953"
           style="fill:none;stroke:#000000;stroke-width:0.51;stroke-linecap:round;stroke-linejoin:round;stroke-miterlimit:10;stroke-dasharray:43.2, 3.6, 3.6, 3.6;stroke-dashoffset:0;stroke-opacity:1"
           id="path4273" />
      </g>
      <g
         id="g4275"
         transform="matrix(0.35277777,0,0,-0.35277777,-134.50899,-158.39804)">
        <path
           d="M 0,0 H -5.953"
           style="fill:none;stroke:#000000;stroke-width:0.51;stroke-linecap:round;stroke-linejoin:round;stroke-miterlimit:10;stroke-dasharray:43.2, 3.6, 3.6, 3.6;stroke-dashoffset:0;stroke-opacity:1"
           id="path4277" />
      </g>
      <g
         id="g4279"
         transform="matrix(0.35277777,0,0,-0.35277777,-132.00896,-160.89804)">
        <path
           d="M 0,0 V 5.953"
           style="fill:none;stroke:#000000;stroke-width:0.51;stroke-linecap:round;stroke-linejoin:round;stroke-miterlimit:10;stroke-dasharray:43.2, 3.6, 3.6, 3.6;stroke-dashoffset:0;stroke-opacity:1"
           id="path4281" />
      </g>
      <g
         id="g4283"
         transform="matrix(0.35277777,0,0,-0.35277777,-129.50896,-158.39804)">
        <path
           d="M 0,0 H 5.953"
           style="fill:none;stroke:#000000;stroke-width:0.51;stroke-linecap:round;stroke-linejoin:round;stroke-miterlimit:10;stroke-dasharray:43.2, 3.6, 3.6, 3.6;stroke-dashoffset:0;stroke-opacity:1"
           id="path4285" />
      </g>
      <g
         id="g4287"
         transform="matrix(0.35277777,0,0,-0.35277777,-132.00896,-170.05305)">
        <path
           d="M 0,0 V -60.641"
           style="fill:none;stroke:#000000;stroke-width:0.51;stroke-linecap:round;stroke-linejoin:round;stroke-miterlimit:10;stroke-dasharray:43.2, 3.6, 3.6, 3.6;stroke-dashoffset:18.279;stroke-opacity:1"
           id="path4289" />
      </g>
      <g
         id="g4291"
         transform="matrix(0.35277777,0,0,-0.35277777,-137.00898,-175.05304)">
        <path
           d="M 0,0 H -60.641"
           style="fill:none;stroke:#000000;stroke-width:0.51;stroke-linecap:round;stroke-linejoin:round;stroke-miterlimit:10;stroke-dasharray:43.2, 3.6, 3.6, 3.6;stroke-dashoffset:18.279;stroke-opacity:1"
           id="path4293" />
      </g>
      <g
         id="g4295"
         transform="matrix(0.35277777,0,0,-0.35277777,-132.00896,-180.05303)">
        <path
           d="M 0,0 V 60.641"
           style="fill:none;stroke:#000000;stroke-width:0.51;stroke-linecap:round;stroke-linejoin:round;stroke-miterlimit:10;stroke-dasharray:43.2, 3.6, 3.6, 3.6;stroke-dashoffset:18.279;stroke-opacity:1"
           id="path4297" />
      </g>
      <g
         id="g4299"
         transform="matrix(0.35277777,0,0,-0.35277777,-127.00897,-175.05304)">
        <path
           d="M 0,0 H 60.641"
           style="fill:none;stroke:#000000;stroke-width:0.51;stroke-linecap:round;stroke-linejoin:round;stroke-miterlimit:10;stroke-dasharray:43.2, 3.6, 3.6, 3.6;stroke-dashoffset:18.279;stroke-opacity:1"
           id="path4301" />
      </g>
      <g
         id="g4303"
         transform="matrix(0.35277777,0,0,-0.35277777,-147.85789,-169.90555)">
        <path
           d="M 0,0 V -7.1 M 0,0 H -7.1 M 0,0 V 7 M 0,0 h 7.1 m 10,52.7 v -7.1 m 0,7.1 H 10 m 7.1,0 v 7.1 m 0,-7.1 h 7.1 m 48.4,0 v -7.1 m 0,7.1 h -7.1 m 7.1,0 v 7.1 m 0,-7.1 h 7.1 M 89.8,0 v -7.1 m 0,7.1 h -7.1 m 7.1,0 v 7 m 0,-7 h 7.1 m -52,-32.7 v -7.1 m 0,7.1 h -7.1 m 7.1,0 v 7.1 m 0,-7.1 H 52 m -7.1,47.2 v -7 m 0,7 h -7.1 m 7.1,0 v 7.1 m 0,-7.1 H 52"
           style="fill:none;stroke:#000000;stroke-width:0.51;stroke-linecap:round;stroke-linejoin:round;stroke-miterlimit:10;stroke-dasharray:none;stroke-opacity:1"
           id="path4305" />
      </g>
      <g
         id="g4315"
         transform="matrix(0.35277777,0,0,-0.35277777,-151.87956,-155.19472)">
        <path
           d="M 0,0 -52.7,-52.8 M 0,0 112.6,112.5"
           style="fill:none;stroke:#000000;stroke-width:0.51;stroke-linecap:round;stroke-linejoin:round;stroke-miterlimit:10;stroke-dasharray:none;stroke-opacity:1"
           id="path4317" />
      </g>
      <g
         id="g4319"
         transform="matrix(0.35277777,0,0,-0.35277777,-160.09928,-175.02083)">
        <path
           d="m 0,0 h 1.8 m 77.8,77.8 v 1.8"
           style="fill:none;stroke:#000000;stroke-width:0.51;stroke-linecap:round;stroke-linejoin:round;stroke-miterlimit:10;stroke-dasharray:none;stroke-opacity:1"
           id="path4321" />
      </g>
      <g
         id="g4323"
         transform="matrix(0.35277777,0,0,-0.35277777,-130.5365,-156.88805)">
        <path
           d="M 0,0 73.2,-73.2 M 0,0 -8.4,8.4"
           style="fill:none;stroke:#000000;stroke-width:0.51;stroke-linecap:round;stroke-linejoin:round;stroke-miterlimit:10;stroke-dasharray:none;stroke-opacity:1"
           id="path4325" />
      </g>
      <g
         id="g4327"
         transform="matrix(0.35277777,0,0,-0.35277777,-222.43511,-146.02249)">
        <path
           d="M 0,0 V -28.3 M 36.9,0 V -28.3 M 0,-25.5 h 36.9 m 0,0 h 48.3"
           style="fill:none;stroke:#000000;stroke-width:0.51;stroke-linecap:round;stroke-linejoin:round;stroke-miterlimit:10;stroke-dasharray:none;stroke-opacity:1"
           id="path4329" />
      </g>
      <g
         id="g4331"
         transform="matrix(0.35277777,0,0,-0.35277777,-151.87956,-155.19472)">
        <path
           d="m 0,0 -8.1,-5.2 2.9,-2.9"
           style="fill:#000000;fill-opacity:1;fill-rule:nonzero;stroke:none"
           id="path4333" />
      </g>
      <g
         id="g4335"
         transform="matrix(0.35277777,0,0,-0.35277777,-130.5365,-156.88805)">
        <path
           d="M 0,0 5.2,-8 8,-5.2"
           style="fill:#000000;fill-opacity:1;fill-rule:nonzero;stroke:none"
           id="path4337" />
      </g>
      <g
         id="g4339"
         transform="matrix(0.35277777,0,0,-0.35277777,-222.43511,-137.02666)">
        <path
           d="M 0,0 9.4,2.1 V -2 m 27.5,2 -9.4,-2 v 4.1"
           style="fill:#000000;fill-opacity:1;fill-rule:nonzero;stroke:none"
           id="path4341" />
      </g>
      <g
         id="g4343"
         transform="matrix(0.35277777,0,0,-0.35277777,-124.04539,-148.63305)">
        <path
           d="M 0,0 -0.3,0.9 -0.4,1.8 -0.3,2.6 0,3.5 0.4,4.3 1,4.9 1.7,5.5 2.5,5.9 3.3,6.1 H 4.2 L 5.1,6 5.9,5.7 6.7,5.2 7.3,4.6 7.8,3.8 8.2,3 m -9.1,-4.7 0.3,0.1 0.2,0.1 0.2,0.2 L -0.1,-1 0,-0.8 0.1,-0.5 0,-0.2 V 0 M -0.9,-1.7 -1.2,-1.8 -1.5,-1.9 -1.7,-2 H -2 l -0.3,-0.1 -0.3,-0.1 -0.3,-0.1 h -0.3 m 0,0 -0.2,-0.1 h -0.3 l -0.3,0.1 -0.2,0.2 -0.2,0.1 -0.2,0.2 -0.1,0.3 -0.1,0.3 m -8.6,-1.6 -0.1,0.9 0.1,0.9 0.2,0.9 0.4,0.8 0.6,0.6 0.7,0.6 0.8,0.4 0.8,0.3 H -9 l 0.9,-0.1 0.8,-0.3 0.8,-0.4 0.7,-0.6 0.5,-0.8 0.3,-0.8 0.2,-0.8 m -9.7,-3.1 h 0.3 l 0.2,0.1 0.2,0.2 0.2,0.2 0.1,0.2 0.1,0.3 0.1,0.3 -0.1,0.2 m -1.1,-1.5 -0.3,-0.1 h -0.3 -0.3 -0.3 L -16,-4.5 h -0.3 -0.3 -0.3 M -27,-3.2 v 0.9 l 0.3,0.9 0.4,0.8 0.5,0.7 0.7,0.6 0.7,0.4 0.9,0.3 h 0.9 0.9 l 0.8,-0.3 0.8,-0.4 0.7,-0.6 0.5,-0.7 0.4,-0.8 0.2,-0.9 v -0.9 m -10.1,-1.3 h 0.3 0.3 l 0.2,0.2 0.2,0.1 0.2,0.2 0.1,0.3 0.1,0.2 v 0.3 m -1.4,-1.3 h -0.3 -0.3 -0.3 l -0.3,0.1 h -0.3 -0.3 -0.2 l -0.3,0.1 m 0,0 H -31 l -0.3,0.1 -0.2,0.2 -0.2,0.2 -0.1,0.2 -0.1,0.3 v 0.3 0.2 m -8.6,1.6 0.2,0.8 0.4,0.8 0.5,0.8 0.7,0.6 0.7,0.4 0.9,0.3 0.8,0.1 h 0.9 l 0.9,-0.3 0.8,-0.4 0.7,-0.6 0.5,-0.6 0.4,-0.8 0.3,-0.9 v -0.9 l -0.1,-0.9 m -10.2,0.5 0.3,-0.1 h 0.3 l 0.2,0.1 0.3,0.2 0.2,0.1 0.1,0.2 0.2,0.3 v 0.3 m -1.6,-1.1 h -0.3 l -0.2,0.1 -0.3,0.1 -0.3,0.1 h -0.3 l -0.3,0.1 -0.3,0.1 -0.3,0.1 m 0,0 -0.2,0.1 -0.2,0.1 -0.2,0.2 -0.2,0.3 -0.1,0.2 v 0.3 0.3 l 0.1,0.2 m -8.2,3 0.3,0.8 0.5,0.8 0.7,0.6 0.7,0.5 0.8,0.3 0.9,0.1 h 0.9 l 0.9,-0.2 0.8,-0.4 0.7,-0.6 0.6,-0.6 0.4,-0.8 0.3,-0.9 0.1,-0.8 -0.1,-0.9 -0.3,-0.9 m -10,2.2 0.3,-0.1 h 0.3 0.2 l 0.3,0.1 0.2,0.2 0.2,0.1 0.2,0.3 0.1,0.2 m -1.8,-0.8 -0.2,0.1 -0.3,0.2 -0.3,0.1 -0.3,0.1 -0.2,0.1 -0.3,0.2 -0.3,0.1 -0.2,0.1 m 0,0 -0.3,0.2 -0.2,0.2 -0.1,0.2 -0.1,0.2 -0.1,0.3 0.1,0.3 v 0.2 l 0.2,0.3 m -7.6,4.4 0.5,0.7 0.6,0.6 0.7,0.5 0.8,0.4 0.9,0.1 h 0.9 l 0.9,-0.2 0.8,-0.3 0.7,-0.5 0.6,-0.7 0.5,-0.8 0.2,-0.8 0.2,-0.9 -0.1,-0.9 -0.2,-0.8 -0.4,-0.8 m -9.5,3.9 0.2,-0.2 h 0.3 0.3 0.3 l 0.2,0.1 0.2,0.1 0.2,0.2 0.2,0.3 m -1.9,-0.5 -0.2,0.1 -0.3,0.2 -0.2,0.2 -0.3,0.1 -0.2,0.2 -0.3,0.2 -0.2,0.2 -0.2,0.1 m 0,0 -0.2,0.2 -0.2,0.2 -0.1,0.3 -0.1,0.3 v 0.2 l 0.1,0.3 0.1,0.2 0.2,0.3 m -6.7,5.6 0.6,0.6 0.7,0.6 0.8,0.3 0.9,0.2 h 0.9 l 0.8,-0.1 0.9,-0.4 0.7,-0.5 0.6,-0.6 0.5,-0.8 0.3,-0.8 0.2,-0.9 -0.1,-0.9 -0.2,-0.8 -0.4,-0.8 -0.5,-0.7 m -8.7,5.4 0.3,-0.1 0.2,-0.2 h 0.3 0.2 0.3 l 0.3,0.1 0.2,0.2 0.2,0.2 m -2,-0.2 -0.2,0.2 -0.2,0.2 -0.2,0.3 -0.2,0.2 -0.2,0.2 -0.2,0.2 -0.2,0.2 -0.2,0.2 m 0,0 -0.2,0.2 -0.1,0.3 -0.1,0.2 v 0.3 l 0.1,0.3 0.1,0.2 0.1,0.3 0.2,0.1 m -5.6,6.7 0.7,0.6 0.8,0.4 0.9,0.2 h 0.9 l 0.8,-0.1 0.9,-0.3 0.7,-0.5 0.7,-0.6 0.5,-0.8 0.3,-0.8 0.2,-0.9 -0.1,-0.9 -0.1,-0.8 -0.4,-0.8 -0.5,-0.8 -0.7,-0.6 m -7.5,6.9 0.2,-0.2 0.2,-0.1 0.2,-0.1 0.3,-0.1 h 0.3 l 0.2,0.1 0.3,0.1 0.2,0.1 m -1.9,0.2 -0.2,0.3 -0.2,0.2 -0.1,0.2 -0.2,0.3 -0.2,0.2 -0.2,0.3 -0.1,0.2 -0.2,0.3 m 0,0 -0.1,0.2 -0.1,0.3 v 0.2 0.3 l 0.1,0.3 0.2,0.2 0.2,0.2 0.2,0.1 m -4.4,7.6 0.8,0.4 0.9,0.3 h 0.9 l 0.8,-0.1 0.9,-0.3 0.7,-0.4 0.7,-0.6 0.5,-0.8 0.4,-0.8 0.2,-0.8 v -0.9 l -0.2,-0.9 -0.3,-0.8 -0.5,-0.8 -0.7,-0.6 L -88,32 m -6.2,8.1 0.1,-0.2 0.2,-0.2 0.2,-0.1 0.3,-0.1 0.2,-0.1 h 0.3 l 0.3,0.1 0.2,0.1 m -1.8,0.5 -0.2,0.3 -0.1,0.3 -0.1,0.2 -0.2,0.3 -0.1,0.3 -0.1,0.2 -0.1,0.3 -0.1,0.3 m 0,0 -0.1,0.2 -0.1,0.3 0.1,0.3 0.1,0.2 0.1,0.3 0.2,0.2 0.2,0.1 0.3,0.1 m -3,8.3 0.8,0.2 0.9,0.1 0.9,-0.1 0.8,-0.2 0.8,-0.5 0.7,-0.6 0.5,-0.7 0.4,-0.8 0.2,-0.8 0.1,-0.9 -0.2,-0.9 -0.3,-0.8 -0.5,-0.8 -0.6,-0.6 -0.7,-0.5 -0.8,-0.4 m -4.8,9.1 0.1,-0.3 0.2,-0.2 0.2,-0.2 0.2,-0.1 0.3,-0.1 h 0.2 0.3 l 0.3,0.1 m -1.8,0.8 -0.1,0.3 v 0.3 l -0.1,0.3 -0.1,0.2 -0.1,0.3 -0.1,0.3 v 0.3 l -0.1,0.3 m 0,0 v 0.3 0.2 l 0.1,0.3 0.1,0.2 0.2,0.2 0.2,0.2 0.2,0.1 0.3,0.1 m -1.5,8.6 0.9,0.1 0.8,-0.1 0.9,-0.2 0.8,-0.4 0.7,-0.6 0.5,-0.7 0.5,-0.7 0.2,-0.9 0.1,-0.9 -0.2,-0.9 -0.2,-0.8 -0.5,-0.8 -0.6,-0.6 -0.7,-0.6 -0.8,-0.3 -0.9,-0.2 m -3.1,9.7 0.1,-0.2 0.1,-0.3 0.1,-0.2 0.2,-0.2 0.3,-0.1 0.2,-0.1 h 0.3 0.3 m -1.6,1.1 V 67 l -0.1,0.3 v 0.3 0.3 0.3 l -0.1,0.3 v 0.3 0.3 m 0,0 v 0.3 l 0.1,0.2 0.1,0.3 0.2,0.2 0.2,0.2 0.2,0.1 0.3,0.1 h 0.3 m 0,8.7 h 0.8 l 0.9,-0.2 0.8,-0.4 0.7,-0.6 0.6,-0.6 0.4,-0.8 0.3,-0.9 0.1,-0.9 -0.1,-0.8 -0.3,-0.9 -0.4,-0.8 -0.6,-0.6 -0.7,-0.6 -0.8,-0.4 -0.9,-0.2 h -0.8 m -1.4,10.1 v -0.3 l 0.1,-0.2 0.1,-0.3 0.2,-0.2 0.2,-0.2 0.2,-0.1 0.3,-0.1 h 0.3 m -1.4,1.4 v 0.3 0.3 l 0.1,0.3 v 0.3 0.3 0.3 l 0.1,0.3 V 83 m 0,0 0.1,0.2 0.1,0.3 0.1,0.2 0.2,0.2 0.3,0.1 0.2,0.1 h 0.3 0.3 m 1.5,8.6 0.9,-0.2 0.8,-0.4 0.7,-0.5 0.6,-0.6 0.5,-0.8 0.2,-0.8 0.2,-0.9 -0.1,-0.9 -0.2,-0.9 -0.5,-0.8 -0.5,-0.6 -0.7,-0.6 -0.8,-0.4 -0.9,-0.3 h -0.8 l -0.9,0.1 m 0.4,10.2 V 94 93.7 l 0.1,-0.2 0.1,-0.3 0.2,-0.2 0.2,-0.1 0.2,-0.1 0.3,-0.1 m -1.1,1.6 0.1,0.3 v 0.3 l 0.1,0.3 0.1,0.2 0.1,0.3 0.1,0.3 v 0.3 l 0.1,0.3 m 0,0 0.1,0.2 0.2,0.3 0.2,0.2 0.2,0.1 0.3,0.1 h 0.2 0.3 l 0.3,-0.1 m 3,8.2 0.8,-0.3 0.7,-0.5 0.6,-0.6 0.5,-0.8 0.3,-0.8 0.2,-0.9 -0.1,-0.9 -0.2,-0.9 -0.4,-0.8 -0.5,-0.7 -0.7,-0.5 -0.8,-0.5 -0.8,-0.2 -0.9,-0.1 -0.9,0.1 -0.8,0.2 m 2.2,10 -0.1,-0.3 -0.1,-0.2 0.1,-0.3 0.1,-0.3 0.1,-0.2 0.2,-0.2 0.2,-0.2 0.3,-0.1 m -0.8,1.8 0.1,0.3 0.1,0.2 0.1,0.3 0.1,0.3 0.2,0.2 0.1,0.3 0.1,0.3 0.2,0.3 m 0,0 0.1,0.2 0.2,0.2 0.2,0.1 0.3,0.1 0.2,0.1 h 0.3 l 0.3,-0.1 0.2,-0.1 m 4.4,7.5 0.7,-0.4 0.7,-0.7 0.5,-0.7 0.3,-0.8 0.2,-0.9 v -0.9 l -0.2,-0.8 -0.4,-0.9 -0.5,-0.7 -0.7,-0.6 -0.7,-0.4 -0.9,-0.3 -0.8,-0.1 h -0.9 l -0.9,0.3 -0.8,0.4 m 3.9,9.4 -0.1,-0.2 -0.1,-0.3 v -0.3 -0.2 l 0.1,-0.3 0.2,-0.2 0.2,-0.2 0.2,-0.2 m -0.5,1.9 0.2,0.3 0.1,0.2 0.2,0.2 0.2,0.3 0.2,0.2 0.1,0.3 0.2,0.2 0.2,0.3 m 0,0 0.2,0.2 0.2,0.1 0.2,0.1 0.3,0.1 h 0.3 l 0.2,-0.1 0.3,-0.1 0.2,-0.2 m 5.6,6.7 0.7,-0.6 0.5,-0.7 0.4,-0.8 0.1,-0.9 0.1,-0.8 -0.2,-0.9 -0.3,-0.8 -0.5,-0.8 -0.7,-0.6 -0.7,-0.5 -0.9,-0.3 -0.8,-0.1 h -0.9 l -0.9,0.2 -0.8,0.4 -0.7,0.5 m 5.5,8.7 -0.2,-0.2 -0.1,-0.3 -0.1,-0.3 v -0.2 l 0.1,-0.3 0.1,-0.2 0.1,-0.3 0.2,-0.2 m -0.1,2 0.2,0.2 0.2,0.2 0.2,0.2 0.2,0.2 0.2,0.2 0.2,0.2 0.2,0.2 0.2,0.3 m 0,0 0.3,0.1 0.2,0.1 0.3,0.1 h 0.2 0.3 l 0.3,-0.1 0.2,-0.2 0.2,-0.2 m 6.7,5.6 0.5,-0.7 0.4,-0.8 0.2,-0.8 0.1,-0.9 -0.2,-0.9 -0.3,-0.8 -0.5,-0.8 -0.6,-0.6 -0.7,-0.5 -0.9,-0.4 -0.8,-0.1 h -0.9 l -0.9,0.2 -0.8,0.3 -0.7,0.5 -0.6,0.7 m 6.9,7.5 -0.2,-0.1 -0.2,-0.3 -0.1,-0.2 -0.1,-0.3 v -0.2 l 0.1,-0.3 0.1,-0.3 0.2,-0.2 m 0.2,1.9 0.2,0.2 0.2,0.2 0.3,0.2 0.2,0.1 0.3,0.2 0.2,0.2 0.3,0.1 0.2,0.2 m 0,0 0.2,0.1 0.3,0.1 h 0.3 0.3 l 0.2,-0.1 0.2,-0.2 0.2,-0.1 0.2,-0.3 m 7.6,4.4 0.4,-0.8 0.2,-0.8 0.1,-0.9 -0.2,-0.9 -0.2,-0.9 -0.5,-0.7 -0.6,-0.7 -0.7,-0.5 -0.8,-0.4 -0.9,-0.2 h -0.9 l -0.9,0.2 -0.8,0.3 -0.7,0.5 -0.6,0.7 -0.5,0.7 m 8.1,6.3 -0.3,-0.2 -0.2,-0.2 -0.1,-0.2 -0.1,-0.3 -0.1,-0.2 0.1,-0.3 v -0.3 l 0.2,-0.2 m 0.5,1.9 0.2,0.1 0.3,0.1 0.3,0.1 0.2,0.2 0.3,0.1 0.3,0.1 0.3,0.1 0.2,0.2 m 0,0 0.3,0.1 h 0.3 l 0.2,-0.1 h 0.3 l 0.2,-0.2 0.2,-0.2 0.2,-0.2 0.1,-0.2 m 8.2,3 0.3,-0.9 0.1,-0.9 -0.1,-0.9 -0.3,-0.8 -0.4,-0.8 -0.6,-0.7 -0.7,-0.5 -0.8,-0.4 -0.9,-0.2 h -0.9 l -0.9,0.1 -0.8,0.3 -0.7,0.5 -0.7,0.6 -0.5,0.7 -0.3,0.9 m 9,4.7 -0.2,-0.1 -0.2,-0.2 -0.2,-0.2 -0.2,-0.2 -0.1,-0.2 v -0.3 -0.3 l 0.1,-0.2 m 0.8,1.7 0.3,0.1 0.3,0.1 h 0.3 l 0.3,0.1 0.3,0.1 0.3,0.1 h 0.2 l 0.3,0.1 m 0,0 0.3,0.1 0.3,-0.1 h 0.2 l 0.3,-0.2 0.2,-0.1 0.1,-0.3 0.2,-0.2 v -0.3 m 8.6,1.5 0.1,-0.8 v -0.9 l -0.3,-0.9 -0.4,-0.8 -0.5,-0.7 -0.7,-0.5 -0.8,-0.4 -0.9,-0.3 h -0.9 l -0.8,0.1 -0.9,0.3 -0.7,0.4 -0.7,0.6 -0.5,0.7 -0.4,0.9 -0.2,0.8 m 9.8,3.1 H -31 l -0.3,-0.2 -0.2,-0.1 -0.2,-0.2 -0.1,-0.3 -0.1,-0.2 v -0.3 -0.3 m 1.2,1.6 h 0.3 l 0.2,0.1 h 0.3 0.3 l 0.3,0.1 h 0.3 0.3 0.3 m 0,0 h 0.3 l 0.3,-0.1 0.2,-0.1 0.2,-0.1 0.2,-0.3 0.1,-0.2 0.1,-0.3 v -0.2 m 8.7,0 V 152 l -0.2,-0.9 -0.4,-0.8 -0.5,-0.7 -0.7,-0.6 -0.8,-0.4 -0.8,-0.3 -0.9,-0.1 -0.9,0.1 -0.9,0.3 -0.7,0.4 -0.7,0.6 -0.5,0.7 -0.4,0.8 -0.3,0.9 v 0.9 m 10.1,1.3 h -0.2 l -0.3,-0.1 -0.3,-0.1 -0.2,-0.1 -0.1,-0.3 -0.2,-0.2 v -0.3 l -0.1,-0.2 m 1.4,1.3 h 0.3 0.3 0.3 l 0.3,-0.1 h 0.3 0.3 l 0.3,-0.1 h 0.3 m 0,0 h 0.3 l 0.2,-0.2 0.2,-0.1 0.2,-0.2 0.1,-0.3 0.1,-0.2 0.1,-0.3 -0.1,-0.3 m 8.6,-1.5 -0.2,-0.8 -0.3,-0.9 -0.5,-0.7 -0.7,-0.6 -0.8,-0.4 -0.8,-0.3 -0.9,-0.1 h -0.9 l -0.8,0.3 -0.8,0.4 -0.7,0.5 -0.6,0.7 -0.4,0.8 -0.2,0.9 -0.1,0.9 0.1,0.8 M -3.2,152 -3.4,152.1 -3.7,152 H -4 l -0.2,-0.2 -0.2,-0.1 -0.2,-0.3 -0.1,-0.2 -0.1,-0.3 m 1.6,1.1 0.3,-0.1 h 0.3 l 0.3,-0.1 0.3,-0.1 0.3,-0.1 h 0.2 l 0.3,-0.1 0.3,-0.1 m 0,0 0.3,-0.1 0.2,-0.2 0.2,-0.2 0.1,-0.2 0.1,-0.2 0.1,-0.3 -0.1,-0.3 v -0.2 m 8.2,-3 L 7.8,145.8 7.3,145.1 6.7,144.5 5.9,144 5.1,143.7 4.2,143.6 H 3.3 l -0.8,0.2 -0.8,0.4 -0.7,0.5 -0.6,0.7 -0.4,0.8 -0.3,0.8 -0.1,0.9 0.1,0.9 0.3,0.9 m 9.9,-2.2 -0.2,0.1 H 9.4 L 9.1,147.5 H 8.9 l -0.3,-0.2 -0.2,-0.2 -0.1,-0.2 -0.1,-0.2 m 1.7,0.8 0.3,-0.2 0.3,-0.1 0.2,-0.1 0.3,-0.1 0.3,-0.2 0.2,-0.1 0.3,-0.1 0.3,-0.1 m 0,0 0.2,-0.2 0.2,-0.2 0.2,-0.2 0.1,-0.3 v -0.2 -0.3 l -0.1,-0.3 -0.1,-0.2 m 7.6,-4.4 -0.5,-0.7 -0.6,-0.7 -0.8,-0.5 -0.8,-0.3 -0.9,-0.2 h -0.8 l -0.9,0.2 -0.8,0.4 -0.7,0.5 -0.6,0.7 -0.5,0.7 -0.3,0.9 -0.1,0.9 v 0.9 l 0.3,0.8 0.4,0.8 m 9.4,-3.9 -0.2,0.1 -0.3,0.1 H 21.3 21 l -0.3,-0.1 -0.2,-0.2 -0.2,-0.1 -0.1,-0.3 m 1.8,0.5 0.3,-0.2 0.2,-0.1 0.3,-0.2 0.2,-0.2 0.3,-0.1 0.2,-0.2 0.3,-0.2 0.2,-0.2 m 0,0 0.2,-0.1 0.2,-0.3 0.1,-0.2 v -0.3 -0.2 -0.3 l -0.2,-0.3 -0.1,-0.2 m 6.7,-5.6 -0.6,-0.7 -0.7,-0.5 -0.9,-0.3 -0.8,-0.2 H 27 l -0.9,0.1 -0.8,0.4 -0.7,0.5 -0.7,0.6 -0.4,0.8 -0.4,0.8 -0.1,0.9 v 0.9 l 0.3,0.8 0.3,0.8 0.6,0.7 m 8.6,-5.4 -0.2,0.1 -0.3,0.1 -0.2,0.1 h -0.3 -0.3 l -0.2,-0.1 -0.2,-0.2 -0.2,-0.2 m 1.9,0.2 0.2,-0.3 0.2,-0.2 0.2,-0.2 0.3,-0.2 0.2,-0.2 0.2,-0.2 0.2,-0.2 0.2,-0.2 m 0,0 0.2,-0.2 0.1,-0.3 v -0.3 -0.2 -0.3 l -0.1,-0.2 -0.2,-0.3 -0.2,-0.2 m 5.7,-6.7 -0.7,-0.5 -0.9,-0.4 -0.8,-0.2 h -0.9 l -0.9,0.1 -0.8,0.3 -0.8,0.5 -0.6,0.6 -0.5,0.8 -0.3,0.8 -0.2,0.9 v 0.8 l 0.2,0.9 0.4,0.8 0.5,0.7 0.6,0.6 m 7.6,-6.8 -0.2,0.2 -0.2,0.1 -0.3,0.1 -0.2,0.1 h -0.3 l -0.3,-0.1 -0.2,-0.1 -0.2,-0.2 m 1.9,-0.1 0.2,-0.3 0.1,-0.2 0.2,-0.3 0.2,-0.2 0.1,-0.3 0.2,-0.2 0.2,-0.2 0.1,-0.3 m 0,0 0.2,-0.2 V 119 l 0.1,-0.3 -0.1,-0.2 -0.1,-0.3 -0.1,-0.2 -0.2,-0.2 -0.2,-0.2 m 4.3,-7.5 -0.8,-0.4 -0.8,-0.3 h -0.9 l -0.9,0.1 -0.8,0.3 -0.8,0.4 -0.6,0.6 -0.6,0.7 -0.3,0.9 -0.2,0.8 v 0.9 l 0.1,0.9 0.4,0.8 0.5,0.7 0.6,0.7 0.8,0.4 m 6.2,-8 -0.1,0.2 -0.2,0.2 -0.3,0.1 -0.2,0.1 -0.3,0.1 h -0.3 l -0.2,-0.1 -0.3,-0.1 m 1.9,-0.5 0.1,-0.3 0.2,-0.3 0.1,-0.3 0.1,-0.2 0.1,-0.3 0.2,-0.3 0.1,-0.2 0.1,-0.3 m 0,0 0.1,-0.3 v -0.2 -0.3 l -0.1,-0.3 -0.1,-0.2 -0.2,-0.2 -0.3,-0.2 -0.2,-0.1 m 3,-8.2 -0.9,-0.2 -0.8,-0.1 -0.9,0.1 -0.9,0.2 -0.8,0.5 -0.6,0.5 -0.6,0.7 -0.4,0.8 -0.2,0.9 v 0.9 l 0.1,0.9 0.3,0.8 0.5,0.8 0.6,0.6 0.8,0.5 0.8,0.3 m 4.7,-9 -0.1,0.2 -0.1,0.3 -0.2,0.2 -0.2,0.1 -0.3,0.1 h -0.3 -0.2 l -0.3,-0.1 m 1.7,-0.8 0.1,-0.3 0.1,-0.3 0.1,-0.3 0.1,-0.3 v -0.2 l 0.1,-0.3 0.1,-0.3 0.1,-0.3 m 0,0 V 94 93.7 L 54.5,93.5 54.4,93.2 54.2,93 54,92.9 53.7,92.8 53.5,92.7 M 55,84.1 54.1,84 h -0.9 l -0.9,0.3 -0.7,0.4 -0.7,0.6 -0.6,0.6 -0.4,0.8 -0.2,0.9 -0.1,0.9 0.1,0.9 0.3,0.8 0.5,0.8 0.6,0.6 0.7,0.5 0.8,0.4 0.9,0.2 m 3,-9.7 v 0.2 l -0.1,0.3 -0.2,0.2 -0.2,0.2 -0.2,0.1 -0.3,0.1 H 55.2 55 m 1.5,-1.1 0.1,-0.3 v -0.3 -0.3 l 0.1,-0.3 v -0.3 -0.3 -0.3 l 0.1,-0.3 m 0,0 -0.1,-0.3 v -0.2 l -0.1,-0.3 -0.2,-0.2 -0.2,-0.2 -0.3,-0.1 -0.2,-0.1 h -0.3 m 0,-8.7 h -0.9 l -0.9,0.2 -0.8,0.4 -0.7,0.6 -0.5,0.6 -0.5,0.8 -0.2,0.9 -0.1,0.8 0.1,0.9 0.2,0.9 0.5,0.8 0.5,0.6 0.7,0.6 0.8,0.4 0.9,0.2 h 0.9 m 1.4,-10.1 -0.1,0.3 v 0.2 l -0.1,0.3 -0.2,0.2 -0.2,0.2 -0.3,0.1 -0.2,0.1 h -0.3 m 1.4,-1.4 -0.1,-0.3 V 68.5 68.2 67.9 L 56.6,67.6 V 67.3 67 l -0.1,-0.3 m 0,0 V 66.5 L 56.4,66.2 56.2,66 56,65.8 55.8,65.7 55.5,65.6 H 55.2 55 m -1.5,-8.6 -0.9,0.2 -0.8,0.3 -0.7,0.6 -0.6,0.6 -0.5,0.8 -0.3,0.8 -0.1,0.9 0.1,0.9 0.2,0.9 0.4,0.7 0.6,0.7 0.7,0.6 0.7,0.4 0.9,0.2 0.9,0.1 0.9,-0.1 M 54.6,55.4 v 0.3 0.2 l -0.1,0.3 -0.1,0.2 -0.2,0.2 -0.2,0.2 -0.3,0.1 -0.2,0.1 m 1.1,-1.6 -0.1,-0.3 -0.1,-0.3 -0.1,-0.3 V 54.2 L 54.2,54 54.1,53.7 54,53.4 53.9,53.1 m 0,0 -0.1,-0.3 -0.1,-0.2 -0.2,-0.2 -0.2,-0.1 -0.3,-0.1 h -0.3 -0.2 l -0.3,0.1 m -3,-8.3 -0.8,0.4 -0.8,0.5 -0.6,0.6 -0.5,0.8 -0.3,0.8 -0.1,0.9 v 0.9 l 0.2,0.8 0.4,0.8 0.6,0.7 0.6,0.6 0.8,0.5 0.9,0.2 0.9,0.1 0.8,-0.1 0.9,-0.2 m -2.2,-10 0.1,0.2 v 0.3 0.3 l -0.1,0.2 -0.1,0.3 -0.2,0.2 -0.3,0.1 -0.2,0.1 M 50,42.3 49.9,42 49.8,41.7 49.6,41.5 49.5,41.2 49.4,40.9 49.3,40.7 49.1,40.4 49,40.1 m 0,0 -0.1,-0.2 -0.2,-0.2 -0.3,-0.1 -0.2,-0.1 -0.3,-0.1 h -0.3 l -0.2,0.1 -0.3,0.1 M 42.8,32 42,32.5 l -0.6,0.6 -0.5,0.8 -0.4,0.8 -0.1,0.9 v 0.9 l 0.2,0.8 0.3,0.8 0.6,0.8 0.6,0.6 0.8,0.4 0.8,0.3 0.9,0.1 h 0.9 l 0.8,-0.3 0.8,-0.4 m -3.9,-9.4 0.2,0.2 v 0.3 l 0.1,0.2 -0.1,0.3 -0.1,0.3 -0.1,0.2 -0.2,0.2 -0.2,0.1 m 0.4,-1.8 -0.1,-0.3 -0.2,-0.2 -0.2,-0.3 -0.1,-0.2 -0.2,-0.3 -0.2,-0.2 -0.1,-0.2 -0.2,-0.3 m 0,0 L 41.7,28 41.5,27.9 41.2,27.8 41,27.7 H 40.7 L 40.4,27.8 40.2,27.9 40,28 m -5.7,-6.7 -0.6,0.6 -0.5,0.8 -0.4,0.8 -0.2,0.8 v 0.9 l 0.2,0.9 0.3,0.8 0.5,0.8 0.6,0.6 0.8,0.5 0.8,0.3 0.9,0.1 h 0.9 L 38.4,29 39.3,28.6 40,28 m -5.5,-8.6 0.2,0.2 0.1,0.3 v 0.2 0.3 0.3 l -0.1,0.2 -0.2,0.3 -0.2,0.1 M 34.5,19.4 34.3,19.2 34.1,19 33.9,18.8 33.7,18.6 33.4,18.4 33.2,18.1 33,17.9 32.8,17.7 m 0,0 -0.2,-0.1 -0.3,-0.2 h -0.2 -0.3 -0.3 l -0.2,0.1 -0.2,0.2 -0.2,0.2 M 24.2,12.3 23.6,13 23.3,13.8 23,14.6 v 0.9 l 0.1,0.9 0.4,0.8 0.4,0.8 0.7,0.6 0.7,0.5 0.8,0.4 0.9,0.1 h 0.9 l 0.8,-0.2 0.9,-0.3 0.7,-0.6 0.6,-0.6 m -6.9,-7.6 0.2,0.2 0.2,0.2 0.1,0.3 v 0.3 0.2 0.3 L 24.3,12 24.2,12.3 M 24,10.3 23.8,10.2 23.5,10 23.3,9.8 23,9.6 22.8,9.5 22.5,9.3 22.3,9.1 22,9 M 22,9 21.8,8.8 H 21.5 21.3 21 L 20.7,8.9 20.5,9 20.3,9.2 20.2,9.5 M 12.6,5.1 12.2,5.9 11.9,6.7 v 0.9 l 0.1,0.9 0.3,0.8 0.5,0.8 0.6,0.7 0.7,0.5 0.8,0.3 0.9,0.2 h 0.8 l 0.9,-0.1 0.8,-0.4 0.8,-0.5 0.6,-0.6 0.5,-0.7 m -8.1,-6.3 0.2,0.2 0.2,0.2 0.2,0.2 0.1,0.2 V 4.3 4.6 L 12.7,4.8 12.6,5.1 M 12.1,3.2 11.8,3.1 11.5,3 11.3,2.8 11,2.7 10.7,2.6 10.5,2.5 10.2,2.3 9.9,2.2 m 0,0 L 9.7,2.1 H 9.4 9.1 L 8.9,2.2 8.6,2.4 8.4,2.5 8.3,2.8 8.2,3 m -31.4,36.4 -2.3,-1.5 m 0,0 -1.3,-0.5 -1.2,-0.6 -1.1,-0.7 -1,-0.9 -0.9,-1 -0.8,-1.2 -0.6,-1.2 -0.4,-1.3 -0.3,-1.3 -0.2,-1.3 0.1,-1.4 0.2,-1.3 0.4,-1.3 0.6,-1.2 0.7,-1.2 0.8,-1.1 1,-0.9 1.1,-0.8 1.2,-0.7 1.2,-0.5 1.4,-0.3 1.3,-0.2 h 1.4 l 1.3,0.2 1.3,0.3 1.3,0.5 1.1,0.7 1.1,0.8 1,0.9 0.9,1.1 0.7,1.2 0.5,1.2 0.4,1.3 0.2,1.3 0.1,1.4 -0.1,1.3 -0.3,1.3 -0.5,1.3 -0.6,1.2 -0.7,1.2 -0.9,1 -1,0.9 -1.2,0.7 -1.2,0.6 -1.3,0.5 m 0,0 -2.3,1.5 m 33,24 L 10,61 8.9,58.7 7.7,56.4 6.3,54.3 4.7,52.3 3,50.4 1.2,48.6 l -2,-1.7 -2,-1.5 -2.2,-1.3 -2.3,-1.2 -2.3,-1 -2.4,-0.9 -2.5,-0.6 -2.5,-0.5 -2.5,-0.4 -2.6,-0.1 m 33,24 0.8,-2.7 m 0,0 v -1.4 l 0.2,-1.3 0.4,-1.3 0.5,-1.2 0.7,-1.2 0.8,-1.1 1,-0.9 1,-0.9 1.2,-0.7 1.3,-0.5 1.3,-0.3 1.3,-0.2 1.4,-0.1 1.3,0.2 1.3,0.3 1.3,0.5 1.2,0.6 1.1,0.8 1,0.9 0.8,1.1 0.8,1.1 0.6,1.2 0.4,1.3 0.2,1.3 0.1,1.4 -0.1,1.4 -0.2,1.3 -0.5,1.3 -0.6,1.2 -0.7,1.1 -0.9,1 -1,1 -1.1,0.7 -1.2,0.7 -1.3,0.4 -1.3,0.3 -1.3,0.2 -1.4,-0.1 -1.3,-0.2 -1.3,-0.3 -1.3,-0.6 -1.1,-0.7 -1.1,-0.8 -1,-1 -0.8,-1.1 m 0,0 -2.2,-1.7 m -12.5,38.8 1.9,-1.6 1.9,-1.8 1.7,-1.9 1.6,-1.9 1.5,-2.1 1.3,-2.2 1.1,-2.3 1,-2.4 0.7,-2.4 0.7,-2.5 0.4,-2.5 0.2,-2.6 0.1,-2.5 -0.1,-2.6 -0.3,-2.5 -0.5,-2.5 -0.7,-2.5 m -12.5,38.8 2.7,-0.1 m 0,0 1.3,-0.4 1.4,-0.2 1.3,-0.1 1.4,0.1 1.3,0.3 1.3,0.5 1.2,0.6 1.1,0.8 1,0.9 0.9,1 0.7,1.1 0.6,1.2 0.5,1.3 0.2,1.3 0.2,1.4 -0.1,1.3 -0.3,1.4 -0.4,1.3 -0.5,1.2 -0.7,1.1 -0.9,1.1 -1,0.9 -1.1,0.8 -1.2,0.7 -1.2,0.5 -1.3,0.3 -1.4,0.1 H 4.4 l -1.4,-0.1 -1.3,-0.4 -1.3,-0.5 -1.1,-0.7 -1.1,-0.8 -1,-1 -0.8,-1 -0.7,-1.2 -0.6,-1.2 -0.3,-1.3 -0.3,-1.4 v -1.3 l 0.1,-1.4 0.3,-1.3 0.5,-1.2 0.6,-1.3 0.8,-1.1 m 0,0 0.9,-2.6 m -40.7,0 2.1,1.4 2.3,1.3 2.3,1 2.4,0.9 2.4,0.8 2.5,0.5 2.6,0.4 2.5,0.2 h 2.6 l 2.5,-0.2 2.5,-0.4 2.5,-0.5 2.5,-0.8 2.4,-0.9 2.3,-1 2.2,-1.3 2.1,-1.4 m -40.7,0 1,2.6 m 0,0 0.7,1.1 0.7,1.3 0.4,1.2 0.3,1.3 0.2,1.4 -0.1,1.3 -0.2,1.4 -0.4,1.3 -0.5,1.2 -0.7,1.2 -0.9,1 -0.9,1 -1.1,0.8 -1.2,0.7 -1.2,0.5 -1.4,0.4 -1.3,0.1 H -51 l -1.3,-0.1 -1.3,-0.3 -1.3,-0.5 -1.2,-0.7 -1.1,-0.8 -0.9,-0.9 -0.9,-1.1 -0.7,-1.1 -0.6,-1.2 -0.4,-1.3 -0.2,-1.4 -0.1,-1.3 0.1,-1.4 0.3,-1.3 0.4,-1.3 0.6,-1.2 0.8,-1.1 0.9,-1 1,-0.9 1.1,-0.8 1.2,-0.6 1.3,-0.5 1.3,-0.3 1.3,-0.1 1.4,0.1 1.3,0.2 1.3,0.4 m 0,0 2.8,0.1 m -12.6,-38.8 -0.7,2.5 -0.4,2.5 -0.3,2.5 -0.2,2.6 0.1,2.5 0.3,2.6 0.4,2.5 0.6,2.5 0.8,2.4 1,2.4 1.1,2.3 1.3,2.2 1.4,2.1 1.6,1.9 1.7,1.9 1.9,1.8 2,1.6 m -12.6,-38.8 -2.2,1.7 m 0,0 -0.8,1.1 -0.9,1 -1.1,0.8 -1.2,0.7 -1.2,0.6 -1.3,0.3 -1.4,0.2 -1.3,0.1 -1.4,-0.2 -1.3,-0.3 -1.2,-0.4 -1.2,-0.7 -1.2,-0.7 -1,-1 -0.8,-1 -0.8,-1.1 -0.6,-1.2 -0.4,-1.3 -0.3,-1.3 -0.1,-1.4 0.1,-1.4 0.3,-1.3 0.4,-1.3 0.6,-1.2 0.7,-1.1 0.9,-1.1 1,-0.9 1.1,-0.8 1.2,-0.6 1.2,-0.5 1.3,-0.3 1.4,-0.2 1.3,0.1 1.4,0.2 1.3,0.3 1.2,0.5 1.2,0.7 1.1,0.9 0.9,0.9 0.9,1.1 0.7,1.2 0.5,1.2 0.4,1.3 0.2,1.3 v 1.4 m 0,0 0.8,2.7 m 32.9,-24 -2.5,0.1 -2.6,0.4 -2.5,0.5 -2.4,0.6 -2.4,0.9 -2.4,1 -2.2,1.2 -2.2,1.3 -2.1,1.5 -1.9,1.7 -1.8,1.8 -1.7,1.9 -1.6,2 -1.4,2.1 -1.2,2.3 -1.1,2.3 -0.9,2.4 m 39.2,-67.9 h -0.2 -0.3 l -0.3,0.2 -0.2,0.1 -0.1,0.2 -0.2,0.3 v 0.2 l -0.1,0.3 m 4.5,24.9 h -17.6 m 17.6,11.9 h -17.6 m 9.3,5.8 h -0.1 -0.1 -0.2 -0.1 -0.2 -0.1 -0.1 -0.2 m -50.3,12 v 17.7 m 101.7,0 V 51.4 m -89.8,0 v 17.7 m 5.5,-5.7 -0.1,0.1 v 0.1 l -0.1,0.2 v 0.1 l -0.1,0.1 v 0.2 l -0.1,0.1 v 0.1 m 72.8,4.7 V 51.4 m -5.1,13 V 64.3 64.2 L 11.1,64 V 63.9 L 11,63.8 v -0.2 l -0.1,-0.1 v -0.1 m -52.5,43.7 h -17.6 m 15.3,-3.9 0.1,0.1 h 0.1 l 0.1,0.1 0.1,0.1 0.2,0.1 0.1,0.1 0.1,0.1 h 0.1 m 56.9,3.3 H -3.7 m 1.4,-3.3 h 0.2 l 0.1,-0.1 0.1,-0.1 0.1,-0.1 0.1,-0.1 0.1,-0.1 h 0.1 l 0.2,-0.1 M 13.9,119 H -3.7 m -37.9,0 H -59.2 M -16.7,21.7 V 33.6 M -28.6,21.7 v 11.9 m -44.9,20.7 h 11.9 m 77.9,0 H 28.2 M -73.5,66.2 h 11.9 m 77.9,0 H 28.2 M 11.1,119 V 107.1 M -0.8,119 v -11.9 m -43.6,0 V 119 M -56.3,107.1 V 119 m 39.6,-91.4 -0.1,-1 -0.2,-1 -0.5,-0.9 -0.6,-0.9 -0.7,-0.7 -0.8,-0.6 -1,-0.5 -1,-0.2 -1,-0.1 m 0,0 -1.1,0.1 -1,0.2 -0.9,0.5 -0.9,0.6 -0.7,0.7 -0.6,0.9 -0.4,0.9 -0.3,1 -0.1,1 m 0,0 0.1,1.1 0.3,1 0.4,0.9 0.6,0.9 0.7,0.7 0.9,0.6 0.9,0.4 1,0.3 1.1,0.1 m 0,0 1,-0.1 1,-0.3 1,-0.4 0.8,-0.6 0.7,-0.7 0.6,-0.9 0.5,-0.9 0.2,-1 0.1,-1.1 m -50.8,26.7 -1.1,0.1 -1,0.3 -0.9,0.4 -0.9,0.6 -0.7,0.7 -0.6,0.9 -0.4,0.9 -0.3,1 -0.1,1.1 m 95.8,-6 -1.1,0.1 -1,0.3 -0.9,0.4 -0.8,0.6 -0.8,0.7 -0.6,0.9 -0.4,0.9 -0.3,1 -0.1,1.1 m 11.9,0 -0.1,-1.1 -0.2,-1 -0.5,-0.9 -0.6,-0.9 -0.7,-0.7 -0.8,-0.6 -1,-0.4 -1,-0.3 -1,-0.1 m -83.9,6 -0.1,-1.1 -0.2,-1 -0.5,-0.9 -0.6,-0.9 -0.7,-0.7 -0.8,-0.6 -1,-0.4 -1,-0.3 -1,-0.1 m -6,6 0.1,1 0.3,1 0.4,0.9 0.6,0.9 0.7,0.7 0.9,0.6 0.9,0.4 1,0.3 1.1,0.1 m 89.8,0 1,-0.1 1,-0.3 1,-0.4 0.8,-0.6 0.7,-0.7 0.6,-0.9 0.5,-0.9 0.2,-1 0.1,-1 m -11.9,0 0.1,1 0.3,1 0.4,0.9 0.6,0.9 0.8,0.7 0.8,0.6 0.9,0.4 1,0.3 1.1,0.1 m -89.8,0 1,-0.1 1,-0.3 1,-0.4 0.8,-0.6 0.7,-0.7 0.6,-0.9 0.5,-0.9 0.2,-1 0.1,-1 m 17.2,52.7 -0.1,-1 -0.3,-1 -0.4,-0.9 -0.6,-0.9 -0.7,-0.7 -0.9,-0.6 -0.9,-0.5 -1,-0.2 -1.1,-0.1 m 55.5,0 -1,0.1 -1,0.2 -1,0.5 -0.8,0.6 -0.7,0.7 -0.6,0.9 -0.5,0.9 -0.2,1 -0.1,1 m 11.9,0 -0.1,-1 -0.3,-1 -0.4,-0.9 -0.6,-0.9 -0.7,-0.7 -0.9,-0.6 -0.9,-0.5 -1,-0.2 -1.1,-0.1 m -55.5,0 -1,0.1 -1,0.2 -1,0.5 -0.8,0.6 -0.7,0.7 -0.6,0.9 -0.5,0.9 -0.2,1 -0.1,1 m 5.9,6 1.1,-0.1 1,-0.3 0.9,-0.4 0.9,-0.6 0.7,-0.7 0.6,-0.9 0.4,-0.9 0.3,-1 0.1,-1.1 m 43.6,0 0.1,1.1 0.2,1 0.5,0.9 0.6,0.9 0.7,0.7 0.8,0.6 1,0.4 1,0.3 1,0.1 m 0,0 1.1,-0.1 1,-0.3 0.9,-0.4 0.9,-0.6 0.7,-0.7 0.6,-0.9 0.4,-0.9 0.3,-1 0.1,-1.1 m -67.4,0 0.1,1.1 0.2,1 0.5,0.9 0.6,0.9 0.7,0.7 0.8,0.6 1,0.4 1,0.3 1,0.1"
           style="fill:none;stroke:#000000;stroke-width:0.709;stroke-linecap:round;stroke-linejoin:round;stroke-miterlimit:10;stroke-dasharray:none;stroke-opacity:1"
           id="path4345" />
      </g>
      <g
         id="g4347"
         transform="matrix(0.35277777,0,0,-0.35277777,-209.41761,-173.50388)">
        <path
           d="m 0,0 h -36.9 m 0,8.7 H 0 M -36.9,-4.9 H 0 m 0,18.5 h -36.9 m 0,-31.9 H 0 M 0,27 H -36.9 M 0,-67.6 4.2,-63.4 M 4.2,72.1 0,76.3 M -36.9,-31.1 H 0 m 0,70.9 h -36.9 m 54.3,29.9 -0.1,0.4 -0.2,0.5 -0.3,0.4 -0.3,0.4 -0.4,0.3 -0.5,0.2 -0.5,0.1 -0.5,0.1 m 0,-135.5 0.5,0.1 0.5,0.1 0.5,0.2 0.4,0.3 0.3,0.4 0.3,0.4 0.2,0.4 0.1,0.5 M 14.6,72.1 H 4.2 m 0,-135.5 h 10.4 m 3.1,130.1 -0.1,1.7 -0.2,1.3 m 0,-130.7 0.2,1.7 0.1,1.3 m -54.6,15.2 H 0 m 0,94.3 h -36.9 m 68.7,5.8 -0.5,0.9 -2.1,2.7 -2.2,2.2 -2.3,1.6 -2.4,1.1 -2.3,0.7 -2.3,0.2 M 37.3,39.8 37.1,41.2 M 17.7,-58 l 2.4,0.2 2.5,0.8 2.5,1.2 2.4,1.9 2.3,2.4 2,2.7 m -68.7,-4.3 H 0 M 0,61.8 H -36.9 M 62.8,10.1 65.7,13 m 0,10.5 -2.9,2.8 m 0,0 H 34.4 M 36,10.1 H 62.8 M -36.9,-61.7 H 0 M 0,70.4 h -36.9 m 99.7,-110.5 2.9,2.8 m 0,10.5 -2.9,2.9 m 0,0 H 36.9 M 32.6,-40.1 H 62.8 M -36.9,-68.4 H 0 M 0,77.1 h -36.9 m 0,-150 H 0 M 0,81.6 H -36.9 M 62.8,41.2 65.7,44 m 0,10.5 -2.9,2.8 m 0,0 h -31 M 37.2,41.2 H 62.8 M 0,83.7 h -36.9 m 0,-158.7 H 0 m -36.9,73.6 v 0.3 0.2 0.3 0.2 0.2 0.1 V 0 M 0,-1.4 v 0.3 0.2 0.3 0.2 0.2 0.1 V 0 M -36.9,10.1 V 9.8 9.6 9.3 9.1 8.9 8.8 8.7 M 0,10.1 V 9.8 9.6 9.3 9.1 8.9 8.8 8.7 M -36.9,-1.4 V -1.7 -2 -2.3 -2.6 -2.9 -3.2 -3.5 -3.8 M 0,-1.4 V -1.7 -2 -2.3 -2.6 -2.9 -3.2 -3.5 -3.8 M -36.9,12.5 V 12.2 11.9 11.6 11.3 11 10.7 10.4 10.1 M 0,12.5 V 12.2 11.9 11.6 11.3 11 10.7 10.4 10.1 M -36.9,-3.8 V -4 -4.3 -4.5 -4.7 -4.8 -4.9 M 0,-3.8 V -4 -4.3 -4.5 -4.7 -4.8 -4.9 m -36.9,17.4 v 0.2 0.3 0.2 0.2 0.1 0.1 M 0,12.5 v 0.2 0.3 0.2 0.2 0.1 0.1 M -36.9,0 V 0 0.2 0.6 1.2 1.8 2.6 3.5 4.3 5.2 6.1 6.9 7.5 8.1 8.5 8.7 M 0,0 v 0 0.2 0.4 0.6 0.6 0.8 0.9 0.8 0.9 0.9 0.8 0.6 0.6 0.4 0.2 m -36.9,-22.2 v 0.2 0.3 0.6 0.6 0.8 0.8 0.9 0.9 0.9 0.7 0.7 0.6 0.4 0.2 M 0,-13.5 v 0.2 0.3 0.6 0.6 0.8 0.8 0.9 0.9 0.9 0.7 0.7 0.6 0.4 0.2 m -36.9,18.5 v 0.2 0.4 0.6 0.6 0.8 0.9 0.9 0.9 0.8 0.8 0.6 0.5 0.4 0.2 M 0,13.6 v 0.2 0.4 0.6 0.6 0.8 0.9 0.9 0.9 0.8 0.8 0.6 0.5 0.4 0.2 m -36.9,-37.3 v 0.3 0.2 0.3 0.2 0.2 0.2 0.1 0.1 M 0,-15.1 v 0.3 0.2 0.3 0.2 0.2 0.2 0.1 0.1 M -36.9,23.8 V 23.5 23.2 23 22.7 22.5 22.4 22.3 22.2 M 0,23.8 V 23.5 23.2 23 22.7 22.5 22.4 22.3 22.2 m -36.9,-37.3 v -0.3 -0.3 -0.3 -0.3 -0.2 -0.3 -0.3 -0.3 M 0,-15.1 v -0.3 -0.3 -0.3 -0.3 -0.2 -0.3 -0.3 -0.3 M -36.9,26.1 V 25.8 25.5 25.2 24.9 24.7 24.4 24.1 23.8 M 0,26.1 v -0.3 -0.3 -0.3 -0.3 -0.2 -0.3 -0.3 -0.3 m -36.9,-41.2 v -0.3 -0.2 -0.2 -0.1 -0.1 M 0,-17.4 v -0.3 -0.2 -0.2 -0.1 -0.1 m -36.9,44.4 v 0.2 0.3 0.2 0.1 0.1 M 0,26.1 v 0.2 0.3 0.2 0.1 0.1 m -36.9,-53.5 v 0.4 0.5 0.6 0.8 0.8 0.9 0.9 0.8 0.8 0.7 0.6 0.4 M 0,-26.5 v 0.4 0.5 0.6 0.8 0.8 0.9 0.9 0.8 0.8 0.7 0.6 0.4 M -36.9,27 v 0.4 0.5 0.7 0.8 0.9 0.9 0.9 0.8 0.8 0.6 0.5 0.3 M 0,27 v 0.4 0.5 0.7 0.8 0.9 0.9 0.9 0.8 0.8 0.6 0.5 0.3 m -36.9,-63.3 v 0.2 0.3 0.3 0.2 0.3 0.2 0.1 0.1 M 0,-28.2 v 0.2 0.3 0.3 0.2 0.3 0.2 0.1 0.1 M -36.9,36.9 V 36.6 36.4 36.1 35.8 35.6 35.4 35.2 35.1 M 0,36.9 v -0.3 -0.2 -0.3 -0.3 -0.2 -0.2 -0.2 -0.1 m -36.9,-63.3 v -0.3 -0.3 -0.2 -0.3 -0.3 -0.2 -0.3 -0.3 M 0,-28.2 v -0.3 -0.3 -0.2 -0.3 -0.3 -0.2 -0.3 -0.3 M -36.9,39.1 V 38.8 38.5 38.2 38 37.7 37.4 37.2 36.9 M 0,39.1 V 38.8 38.5 38.2 38 37.7 37.4 37.2 36.9 M 4.2,72.1 V 72 71.7 71.3 70.7 69.9 69 67.9 66.7 65.3 63.7 62 60.1 58.1 56 53.7 51.3 48.8 46.2 43.5 40.6 37.7 34.7 31.6 28.5 25.3 22 18.7 15.4 12 8.6 5.2 1.8 -1.6 -5 v -3.3 -3.4 -3.3 -3.2 -3.2 -3.1 -3 -3 -2.9 -2.8 -2.6 -2.6 -2.4 -2.4 -2.2 -2.1 -1.9 -1.8 -1.6 -1.5 -1.3 -1.2 -1 -0.9 -0.6 -0.6 -0.3 -0.2 m -41.1,33 v -0.2 -0.2 -0.1 -0.1 -0.1 M 0,-30.4 v -0.2 -0.2 -0.1 -0.1 -0.1 m -36.9,70.2 v 0.2 0.2 0.1 0.1 0.1 M 0,39.1 v 0.2 0.2 0.1 0.1 0.1 m -36.9,-78.3 v 0.5 0.6 0.8 0.8 0.9 0.9 0.8 0.8 0.8 0.5 M 0,-38.5 v 0.5 0.6 0.8 0.8 0.9 0.9 0.8 0.8 0.8 0.5 m -36.9,70.9 v 0.5 0.7 0.9 0.8 0.9 0.9 0.8 0.7 0.7 0.4 M 0,39.8 v 0.5 0.7 0.9 0.8 0.9 0.9 0.8 0.7 0.7 0.4 m -36.9,-87.4 v 0.2 0.3 0.2 0.3 0.3 0.2 0.2 0.1 M 0,-40.3 v 0.2 0.3 0.2 0.3 0.3 0.2 0.2 0.1 M -36.9,49 V 48.8 48.5 48.2 48 47.7 47.5 47.3 47.1 M 0,49 V 48.8 48.5 48.2 48 47.7 47.5 47.3 47.1 m -36.9,-87.4 v -0.3 -0.2 -0.3 -0.2 -0.3 -0.2 -0.2 -0.3 m 36.9,2 v -0.3 -0.2 -0.3 -0.2 -0.3 -0.2 -0.2 -0.3 M -36.9,51 V 50.7 50.5 50.2 50 49.7 49.5 49.3 49 M 0,51 V 50.7 50.5 50.2 50 49.7 49.5 49.3 49 m 17.7,17.7 v -0.1 -0.2 -0.5 -0.6 -0.7 -0.9 -1.1 -1.3 -1.4 -1.6 -1.7 -1.8 -2 -2.1 -2.3 -2.3 -2.5 -2.6 -2.7 -2.8 -2.8 -3 -3 -3.1 -3.1 -3.2 -3.2 -3.2 -3.3 -3.3 -3.2 -3.3 -3.2 -3.2 -3.2 -3.1 -3.1 -3 -3 -2.8 -2.8 -2.7 -2.6 -2.5 -2.4 -2.2 -2.1 -2 -1.9 -1.7 -1.5 -1.4 -1.3 -1.1 -0.9 -0.8 -0.6 -0.4 -0.2 -0.1 m -54.6,15.7 v -0.2 -0.1 -0.1 -0.1 M 0,-42.3 v -0.2 -0.1 -0.1 -0.1 M -36.9,51 v 0.2 0.1 0.1 0.1 M 0,51 v 0.2 0.1 0.1 0.1 M -36.9,-49.2 v 0.6 0.8 0.8 0.8 0.9 0.9 0.8 0.8 M 0,-49.2 v 0.6 0.8 0.8 0.8 0.9 0.9 0.8 0.8 m -36.9,94.3 v 0 0.8 0.8 0.9 0.8 0.9 0.8 0.7 0.6 M 0,51.5 v 0 0.8 0.8 0.9 0.8 0.9 0.8 0.7 0.6 m 34.4,-31.5 -0.6,-0.1 -0.5,-0.4 -0.5,-0.6 -0.4,-0.9 -0.3,-1 -0.2,-1.2 -0.1,-1.2 0.1,-1.2 0.1,-1.2 0.2,-1.2 0.3,-1.2 0.4,-1.1 0.4,-1.2 0.5,-1 0.5,-1 0.5,-0.7 0.5,-0.6 0.4,-0.3 H 36 m -4.2,47.1 h 0.1 L 32,57 l 0.3,-0.5 0.3,-0.6 0.4,-0.8 0.4,-1 0.5,-1.1 0.5,-1.3 0.5,-1.4 0.5,-1.5 0.4,-1.4 0.4,-1.4 0.3,-1.2 0.2,-1.1 0.2,-0.9 0.1,-0.8 0.1,-0.4 0.1,-0.3 v -0.1 m -0.3,-65.1 -0.1,-0.1 -0.3,-0.4 -0.2,-0.5 -0.4,-0.7 -0.4,-0.9 -0.4,-1.1 -0.5,-1.2 -0.5,-1.3 -0.5,-1.4 -0.5,-1.5 -0.4,-1.4 -0.4,-1.4 -0.3,-1.1 -0.1,-1.1 -0.1,-0.8 0.1,-0.6 0.2,-0.4 0.2,-0.2 0.3,-0.1 m 4.7,79.9 V 39.7 39.4 39 38.4 37.7 36.8 35.7 34.5 33.2 31.7 30 28.3 26.4 26.3 m 0,-16.2 V 8.6 6.2 3.7 1.3 v -2.4 -2.4 -2.4 -2.3 -2.3 -2.2 -2.1 -2 -1.9 -1.8 -1.7 -1.5 -0.2 m -4.9,72.4 0.3,-0.1 0.4,-0.3 0.4,-0.4 0.5,-0.6 0.4,-0.8 0.4,-0.9 0.4,-1 0.3,-1.1 0.3,-1 0.2,-1.1 0.2,-0.9 0.1,-0.9 0.1,-0.8 v -0.7 -0.6 -0.4 l -0.2,-0.3 -0.4,0.3 -0.3,0.3 -0.3,0.5 -0.3,0.7 -0.4,0.7 -0.4,0.9 -0.4,1 -0.5,1 -0.4,1.1 -0.4,1.1 -0.3,1 -0.2,0.9 -0.1,0.8 -0.1,0.6 0.1,0.4 0.3,0.5 0.3,0.1 m 2.8,-52.8 0.3,-0.1 0.3,-0.2 0.2,-0.4 0.2,-0.6 0.1,-0.7 0.1,-0.8 V -8 -8.9 l -0.1,-2 -0.3,-1.8 -0.4,-1.6 -0.3,-0.7 -0.4,-0.5 -0.3,-0.4 -0.4,-0.2 -0.5,-0.1 -0.4,0.1 -0.4,0.3 -0.4,0.5 -0.4,0.7 -0.2,0.8 -0.1,0.9 -0.1,0.9 0.2,1.7 0.4,1.8 0.6,1.6 0.4,0.8 0.5,0.6 0.4,0.6 0.4,0.4 0.6,0.2 m -3.4,-44.5 v 0.1 l 0.4,0.7 0.6,1.1 0.3,0.8 0.4,0.8 0.5,1 0.4,1.1 0.4,1.1 0.4,1 0.3,1 m -72.4,-11 v 0.2 0.3 0.2 0.3 0.3 0.2 0.3 0.1 M 0,-51.1 v 0.2 0.3 0.2 0.3 0.3 0.2 0.3 0.1 m -36.9,109 V 59.6 59.3 59 58.8 58.5 58.3 58 57.8 M 0,59.8 V 59.6 59.3 59 58.8 58.5 58.3 58 57.8 M -36.9,-51.1 v -0.2 -0.2 -0.2 -0.2 -0.2 -0.3 -0.2 -0.2 M 0,-51.1 v -0.2 -0.2 -0.2 -0.2 -0.2 -0.3 -0.2 -0.2 M -36.9,61.5 V 61.2 61 60.8 60.6 60.4 60.2 60 59.8 M 0,61.5 V 61.2 61 60.8 60.6 60.4 60.2 60 59.8 M -36.9,-52.8 v -0.1 -0.2 M 0,-52.8 v -0.1 -0.2 M -36.9,61.5 v 0.1 0.1 0.1 M 0,61.5 v 0.1 0.1 0.1 m -36.9,-120 v 0.7 0.8 0.8 0.9 0.9 0.8 0.2 M 0,-58.2 v 0.7 0.8 0.8 0.9 0.9 0.8 0.2 M -36.9,61.8 v 0.2 0.8 0.9 0.9 0.8 0.8 0.7 M 0,61.8 v 0.2 0.8 0.9 0.9 0.8 0.8 0.7 M 62.8,10.1 v 0.1 0.3 0.4 0.6 0.7 0.9 0.9 1.1 1.1 1.1 1.2 1.2 1.1 1.1 1 0.9 0.8 0.7 0.5 0.3 0.2 m 2.9,-2.8 V 23.4 23.3 22.9 22.5 21.8 21.1 20.3 19.4 18.5 17.5 16.6 15.7 15 14.3 13.7 13.3 13.1 13 M -36.9,-60.2 v 0.2 0.2 0.3 0.3 0.2 0.3 0.2 0.3 m 36.9,-2 v 0.2 0.2 0.3 0.3 0.2 0.3 0.2 0.3 m -36.9,127 V 68.7 68.4 68.2 67.9 67.7 67.4 67.1 66.9 M 0,68.8 V 68.7 68.4 68.2 67.9 67.7 67.4 67.1 66.9 M -36.9,-60.2 v -0.1 -0.2 -0.2 -0.2 -0.1 -0.2 -0.2 -0.1 M 0,-60.2 v -0.1 -0.2 -0.2 -0.2 -0.1 -0.2 -0.2 -0.1 M -36.9,70.2 V 70 69.9 69.7 69.5 69.4 69.2 69 68.8 M 0,70.2 V 70 69.9 69.7 69.5 69.4 69.2 69 68.8 M -36.9,-61.5 v -0.2 M 0,-61.5 v -0.2 M -36.9,70.2 v 0.1 0.1 M 0,70.2 v 0.1 0.1 M -36.9,-65.4 v 0.8 0.8 0.9 0.9 0.3 M 0,-65.4 v 0.8 0.8 0.9 0.9 0.3 M -36.9,70.4 v 0.3 0.9 0.9 0.8 0.8 M 0,70.4 v 0.3 0.9 0.9 0.8 0.8 M -36.9,-67.3 v 0.2 0.2 0.2 0.2 0.3 0.3 0.2 0.3 M 0,-67.3 v 0.2 0.2 0.2 0.2 0.3 0.3 0.2 0.3 M -36.9,76 V 75.8 75.6 75.4 75.1 74.9 74.6 74.3 74.1 M 0,76 V 75.8 75.6 75.4 75.1 74.9 74.6 74.3 74.1 M -36.9,-67.3 v -0.1 -0.1 -0.2 -0.1 -0.1 -0.1 -0.2 -0.1 m 36.9,1 v -0.1 -0.1 -0.2 -0.1 -0.1 -0.1 -0.2 -0.1 M -36.9,77 V 76.8 76.7 76.6 76.5 76.3 76.2 76.1 76 M 0,77 V 76.8 76.7 76.6 76.5 76.3 76.2 76.1 76 M 62.8,-40.1 v 0.1 0.3 0.4 0.6 0.7 0.8 1 1 1.1 1.2 1.2 1.2 1.1 1.1 1 0.9 0.8 0.6 0.5 0.4 0.2 m 2.9,-2.9 v 0 -0.2 -0.3 -0.5 -0.6 -0.7 -0.8 -0.9 -1 -0.9 -0.9 -0.9 -0.8 -0.7 -0.5 -0.4 -0.3 -0.1 m -102.6,-31 v -0.1 M 0,-68.3 v -0.1 M -36.9,77 v 0.1 M 0,77 v 0.1 M -36.9,-70.5 v 0.9 0.9 0.3 M 0,-70.5 v 0.9 0.9 0.3 M -36.9,77.1 v 0.3 0.9 0.9 M 0,77.1 v 0.3 0.9 0.9 M -36.9,-72.2 v 0.1 0.1 0.2 0.3 0.2 0.3 0.3 0.2 M 0,-72.2 v 0.1 0.1 0.2 0.3 0.2 0.3 0.3 0.2 M -36.9,80.9 V 80.8 80.6 80.4 80.2 80 79.7 79.4 79.2 M 0,80.9 V 80.8 80.6 80.4 80.2 80 79.7 79.4 79.2 M -36.9,-72.2 v -0.1 -0.1 -0.1 -0.1 -0.1 -0.1 M 0,-72.2 v -0.1 -0.1 -0.1 -0.1 -0.1 -0.1 M -36.9,81.5 V 81.4 81.3 81.2 81.1 81 80.9 M 0,81.5 V 81.4 81.3 81.2 81.1 81 80.9 M -36.9,-72.8 v -0.1 M 0,-72.8 v -0.1 M -36.9,81.5 v 0.1 M 0,81.5 v 0.1 M -36.9,-73.3 v 0.4 M 0,-73.3 v 0.4 M -36.9,81.6 v 0.3 M 0,81.6 v 0.3 M -36.9,-74.8 v 0 0.1 0.2 0.2 0.2 0.3 0.3 0.2 M 0,-74.8 v 0 0.1 0.2 0.2 0.2 0.3 0.3 0.2 M -36.9,83.5 v 0 V 83.3 83.2 83 82.7 82.5 82.2 81.9 M 0,83.5 v 0 V 83.3 83.2 83 82.7 82.5 82.2 81.9 M -36.9,-74.8 V -74.9 -75 M 0,-74.8 V -74.9 -75 M -36.9,83.7 v 0 -0.1 -0.1 M 0,83.7 v 0 -0.1 -0.1 M 62.8,41.2 v 0.1 0.2 0.5 0.5 0.8 0.8 1 1 1.1 1.2 1.2 1.1 1.2 1.1 1 0.9 0.8 0.6 0.5 0.4 0.1 m 2.9,-2.8 v 0 V 54.3 54 53.5 52.9 52.2 51.3 50.4 49.5 48.6 47.6 46.8 46 45.3 44.8 44.4 44.1 44 M -36.9,83.7 v 0 m 36.9,0 v 0 M -36.9,-75 v 0 M 0,-75 v 0"
           style="fill:none;stroke:#000000;stroke-width:0.709;stroke-linecap:round;stroke-linejoin:round;stroke-miterlimit:10;stroke-dasharray:none;stroke-opacity:1"
           id="path4349" />
      </g>
    </g>
  </g>
</svg>
