<?xml version="1.0" encoding="UTF-8" standalone="no"?>
<!-- Created with Inkscape (http://www.inkscape.org/) -->

<svg
   width="147.28323mm"
   height="77.427246mm"
   viewBox="0 0 147.28322 77.427246"
   version="1.1"
   id="svg5"
   inkscape:version="1.2.1 (9c6d41e410, 2022-07-14)"
   sodipodi:docname="HTD Parametric Pulley.svg"
   xml:space="preserve"
   xmlns:inkscape="http://www.inkscape.org/namespaces/inkscape"
   xmlns:sodipodi="http://sodipodi.sourceforge.net/DTD/sodipodi-0.dtd"
   xmlns="http://www.w3.org/2000/svg"
   xmlns:svg="http://www.w3.org/2000/svg"><sodipodi:namedview
     id="namedview7"
     pagecolor="#505050"
     bordercolor="#eeeeee"
     borderopacity="1"
     inkscape:pageshadow="0"
     inkscape:pageopacity="0"
     inkscape:pagecheckerboard="0"
     inkscape:document-units="mm"
     showgrid="false"
     inkscape:zoom="0.52347032"
     inkscape:cx="-711.59717"
     inkscape:cy="33.43074"
     inkscape:window-width="2560"
     inkscape:window-height="1361"
     inkscape:window-x="2551"
     inkscape:window-y="-9"
     inkscape:window-maximized="1"
     inkscape:current-layer="svg5"
     inkscape:showpageshadow="0"
     inkscape:deskcolor="#505050" /><defs
     id="defs2" /><g
     inkscape:label="Ebene 1"
     inkscape:groupmode="layer"
     id="layer1"
     transform="translate(59.394622,181.46504)" /><g
     id="g7695"><g
       id="g7203"
       transform="matrix(0.35277772,0,0,-0.35277777,138.47984,69.188119)"><path
         d="M 0,0 0.4,0.4 0.7,0.8 0.9,1.3 1.1,1.7 1.2,2.2 1.3,2.7 V 3.2 3.7 L 1.2,4.2 1.1,4.7 0.9,5.2 0.6,5.6 0.3,6 0,6.4 -0.4,6.7 -0.9,7 -1.3,7.2 -1.8,7.4 -2.3,7.5 -2.8,7.6 H -3.3 L -3.8,7.5 -4.3,7.4 -4.7,7.2 -5.2,7 -5.6,6.8 -6,6.4 -6.4,6.1 -6.7,5.7 -6.9,5.3 -7.2,4.8 -7.3,4.3 -7.4,3.8 -7.5,3.3 V 2.8 l 0.1,-0.5 0.1,-0.4 0.2,-0.5 0.2,-0.5 0.3,-0.4 0.3,-0.4 0.4,-0.3 0.4,-0.3 0.4,-0.3 0.5,-0.2 0.5,-0.1 0.5,-0.1 0.5,-0.1 0.5,0.1 h 0.5 l 0.4,0.2 0.5,0.2 0.5,0.2 0.4,0.3 L 0,0 M -9.3,0.5 3.2,5.8"
         style="fill:none;stroke:#000000;stroke-width:0.51;stroke-linecap:butt;stroke-linejoin:miter;stroke-miterlimit:10;stroke-dasharray:none;stroke-opacity:1"
         id="path7205" /></g><text
       xml:space="preserve"
       transform="matrix(0.70721315,0.70721324,-0.70700034,0.70700043,0,0)"
       style="font-variant:normal;font-weight:normal;font-stretch:normal;font-size:4.66739px;font-family:'Century Gothic';-inkscape-font-specification:CenturyGothic;writing-mode:lr-tb;fill:#000000;fill-opacity:1;fill-rule:nonzero;stroke:none;stroke-width:0.352831"
       id="text7209"
       x="147.83353"
       y="-47.337318"><tspan
         x="147.83353 150.42004 151.71329 154.2998"
         y="-47.337318"
         sodipodi:role="line"
         id="tspan7207"
         style="stroke-width:0.352831">4,2 </tspan></text><text
       xml:space="preserve"
       transform="scale(1.0001224,0.99987761)"
       style="font-variant:normal;font-weight:normal;font-stretch:normal;font-size:4.66722px;font-family:'Century Gothic';-inkscape-font-specification:CenturyGothic;writing-mode:lr-tb;fill:#000000;fill-opacity:1;fill-rule:nonzero;stroke:none;stroke-width:0.352821"
       id="text7213"
       x="81.047905"
       y="9.2037621"><tspan
         x="81.047905 83.634171 86.220444"
         y="9.2037621"
         sodipodi:role="line"
         id="tspan7211"
         style="stroke-width:0.352821">36T</tspan></text><text
       xml:space="preserve"
       transform="scale(1.0001504,0.99984962)"
       style="font-variant:normal;font-weight:normal;font-stretch:normal;font-size:4.66735px;font-family:'Century Gothic';-inkscape-font-specification:CenturyGothic;writing-mode:lr-tb;fill:#000000;fill-opacity:1;fill-rule:nonzero;stroke:none;stroke-width:0.352831"
       id="text7217"
       x="47.147911"
       y="74.056877"><tspan
         x="47.147911 49.734398 52.320885 53.614128 56.20063"
         y="74.056877"
         sodipodi:role="line"
         id="tspan7215"
         style="stroke-width:0.352831">13,0 </tspan></text><text
       xml:space="preserve"
       transform="scale(1.0000164,0.9999836)"
       style="font-variant:normal;font-weight:normal;font-stretch:normal;font-size:4.66673px;font-family:'Century Gothic';-inkscape-font-specification:CenturyGothic;writing-mode:lr-tb;fill:#000000;fill-opacity:1;fill-rule:nonzero;stroke:none;stroke-width:0.352784"
       id="text7221"
       x="-0.40788314"
       y="3.5000474"><tspan
         x="-0.40788314 3.0642848 4.4690089 7.3064723 10.325942 12.668715 14.479476 17.512939 18.44632 20.028397"
         y="3.5000474"
         sodipodi:role="line"
         id="tspan7219"
         style="stroke-width:0.352784">Druckseite</tspan></text><g
       id="g7323"
       transform="matrix(0.35277772,0,0,-0.35277777,99.286228,17.223954)"><path
         d="M 0,0 -8.8,3.8 -6.4,7.1 0,0 m 0,0 -5.7,3.9 -4.7,2.5 -4.1,1.1 -3.1,0.1 -3.1,-0.1 -3.3,0.1 -3.6,0.8 -2.5,1.3 -2.6,2.2 -2.7,3.2 -2.8,4.7 M -200,4 l -8.4,4.6 2.7,3.1 5.7,-7.7 m 0,0 -4.7,4.2 -3.1,3.5 -1.6,3.1 -0.7,2.3 -0.6,2.5 -1,2.7 -2.3,3 -2.6,2.3 -3.8,2.5 -5.3,2.8 -7.2,3"
         style="fill:none;stroke:#000000;stroke-width:0.51;stroke-linecap:butt;stroke-linejoin:miter;stroke-miterlimit:10;stroke-dasharray:none;stroke-opacity:1"
         id="path7325" /></g><g
       id="g7327"
       transform="matrix(0.35277772,0,0,-0.35277777,120.62929,55.218119)"><path
         d="M 0,0 5.2,-8 8,-5.2 0,0"
         style="fill:none;stroke:#000000;stroke-width:0.51;stroke-linecap:butt;stroke-linejoin:miter;stroke-miterlimit:10;stroke-dasharray:none;stroke-opacity:1"
         id="path7329" /></g><g
       id="g7331"
       transform="matrix(0.35277772,0,0,-0.35277777,28.730692,75.079507)"><path
         d="M 0,0 9.4,2.1 V -2 L 0,0 M 36.9,0 27.5,-2 V 2.1 L 36.9,0"
         style="fill:none;stroke:#000000;stroke-width:0.51;stroke-linecap:butt;stroke-linejoin:miter;stroke-miterlimit:10;stroke-dasharray:none;stroke-opacity:1"
         id="path7333" /></g><g
       id="g7335"
       transform="matrix(0.35277772,0,0,-0.35277777,103.31697,44.699803)"><path
         d="M 0,0 V -5.953"
         style="fill:none;stroke:#000000;stroke-width:0.51;stroke-linecap:round;stroke-linejoin:round;stroke-miterlimit:10;stroke-dasharray:43.2, 3.6, 3.6, 3.6;stroke-dashoffset:0;stroke-opacity:1"
         id="path7337" /></g><g
       id="g7339"
       transform="matrix(0.35277772,0,0,-0.35277777,100.81697,42.199808)"><path
         d="M 0,0 H -5.953"
         style="fill:none;stroke:#000000;stroke-width:0.51;stroke-linecap:round;stroke-linejoin:round;stroke-miterlimit:10;stroke-dasharray:43.2, 3.6, 3.6, 3.6;stroke-dashoffset:0;stroke-opacity:1"
         id="path7341" /></g><g
       id="g7343"
       transform="matrix(0.35277772,0,0,-0.35277777,103.31697,39.699813)"><path
         d="M 0,0 V 5.953"
         style="fill:none;stroke:#000000;stroke-width:0.51;stroke-linecap:round;stroke-linejoin:round;stroke-miterlimit:10;stroke-dasharray:43.2, 3.6, 3.6, 3.6;stroke-dashoffset:0;stroke-opacity:1"
         id="path7345" /></g><g
       id="g7347"
       transform="matrix(0.35277772,0,0,-0.35277777,105.817,42.199808)"><path
         d="M 0,0 H 5.953"
         style="fill:none;stroke:#000000;stroke-width:0.51;stroke-linecap:round;stroke-linejoin:round;stroke-miterlimit:10;stroke-dasharray:43.2, 3.6, 3.6, 3.6;stroke-dashoffset:0;stroke-opacity:1"
         id="path7349" /></g><g
       id="g7351"
       transform="matrix(0.35277772,0,0,-0.35277777,109.36724,26.078958)"><path
         d="M 0,0 V -5.953"
         style="fill:none;stroke:#000000;stroke-width:0.51;stroke-linecap:round;stroke-linejoin:round;stroke-miterlimit:10;stroke-dasharray:43.2, 3.6, 3.6, 3.6;stroke-dashoffset:0;stroke-opacity:1"
         id="path7353" /></g><g
       id="g7355"
       transform="matrix(0.35277772,0,0,-0.35277777,106.86725,23.578963)"><path
         d="M 0,0 H -5.953"
         style="fill:none;stroke:#000000;stroke-width:0.51;stroke-linecap:round;stroke-linejoin:round;stroke-miterlimit:10;stroke-dasharray:43.2, 3.6, 3.6, 3.6;stroke-dashoffset:0;stroke-opacity:1"
         id="path7357" /></g><g
       id="g7359"
       transform="matrix(0.35277772,0,0,-0.35277777,109.36724,21.078968)"><path
         d="M 0,0 V 5.953"
         style="fill:none;stroke:#000000;stroke-width:0.51;stroke-linecap:round;stroke-linejoin:round;stroke-miterlimit:10;stroke-dasharray:43.2, 3.6, 3.6, 3.6;stroke-dashoffset:0;stroke-opacity:1"
         id="path7361" /></g><g
       id="g7363"
       transform="matrix(0.35277772,0,0,-0.35277777,111.86724,23.578963)"><path
         d="M 0,0 H 5.953"
         style="fill:none;stroke:#000000;stroke-width:0.51;stroke-linecap:round;stroke-linejoin:round;stroke-miterlimit:10;stroke-dasharray:43.2, 3.6, 3.6, 3.6;stroke-dashoffset:0;stroke-opacity:1"
         id="path7365" /></g><g
       id="g7367"
       transform="matrix(0.35277772,0,0,-0.35277777,128.94637,26.078958)"><path
         d="M 0,0 V -5.953"
         style="fill:none;stroke:#000000;stroke-width:0.51;stroke-linecap:round;stroke-linejoin:round;stroke-miterlimit:10;stroke-dasharray:43.2, 3.6, 3.6, 3.6;stroke-dashoffset:0;stroke-opacity:1"
         id="path7369" /></g><g
       id="g7371"
       transform="matrix(0.35277772,0,0,-0.35277777,126.44638,23.578963)"><path
         d="M 0,0 H -5.953"
         style="fill:none;stroke:#000000;stroke-width:0.51;stroke-linecap:round;stroke-linejoin:round;stroke-miterlimit:10;stroke-dasharray:43.2, 3.6, 3.6, 3.6;stroke-dashoffset:0;stroke-opacity:1"
         id="path7373" /></g><g
       id="g7375"
       transform="matrix(0.35277772,0,0,-0.35277777,128.94637,21.078968)"><path
         d="M 0,0 V 5.953"
         style="fill:none;stroke:#000000;stroke-width:0.51;stroke-linecap:round;stroke-linejoin:round;stroke-miterlimit:10;stroke-dasharray:43.2, 3.6, 3.6, 3.6;stroke-dashoffset:0;stroke-opacity:1"
         id="path7377" /></g><g
       id="g7379"
       transform="matrix(0.35277772,0,0,-0.35277777,131.44637,23.578963)"><path
         d="M 0,0 H 5.953"
         style="fill:none;stroke:#000000;stroke-width:0.51;stroke-linecap:round;stroke-linejoin:round;stroke-miterlimit:10;stroke-dasharray:43.2, 3.6, 3.6, 3.6;stroke-dashoffset:0;stroke-opacity:1"
         id="path7381" /></g><g
       id="g7383"
       transform="matrix(0.35277772,0,0,-0.35277777,134.99665,44.699803)"><path
         d="M 0,0 V -5.953"
         style="fill:none;stroke:#000000;stroke-width:0.51;stroke-linecap:round;stroke-linejoin:round;stroke-miterlimit:10;stroke-dasharray:43.2, 3.6, 3.6, 3.6;stroke-dashoffset:0;stroke-opacity:1"
         id="path7385" /></g><g
       id="g7387"
       transform="matrix(0.35277772,0,0,-0.35277777,132.49666,42.199808)"><path
         d="M 0,0 H -5.953"
         style="fill:none;stroke:#000000;stroke-width:0.51;stroke-linecap:round;stroke-linejoin:round;stroke-miterlimit:10;stroke-dasharray:43.2, 3.6, 3.6, 3.6;stroke-dashoffset:0;stroke-opacity:1"
         id="path7389" /></g><g
       id="g7391"
       transform="matrix(0.35277772,0,0,-0.35277777,134.99665,39.699813)"><path
         d="M 0,0 V 5.953"
         style="fill:none;stroke:#000000;stroke-width:0.51;stroke-linecap:round;stroke-linejoin:round;stroke-miterlimit:10;stroke-dasharray:43.2, 3.6, 3.6, 3.6;stroke-dashoffset:0;stroke-opacity:1"
         id="path7393" /></g><g
       id="g7395"
       transform="matrix(0.35277772,0,0,-0.35277777,137.49665,42.199808)"><path
         d="M 0,0 H 5.953"
         style="fill:none;stroke:#000000;stroke-width:0.51;stroke-linecap:round;stroke-linejoin:round;stroke-miterlimit:10;stroke-dasharray:43.2, 3.6, 3.6, 3.6;stroke-dashoffset:0;stroke-opacity:1"
         id="path7397" /></g><g
       id="g7399"
       transform="matrix(0.35277772,0,0,-0.35277777,119.15683,56.20812)"><path
         d="M 0,0 V -5.953"
         style="fill:none;stroke:#000000;stroke-width:0.51;stroke-linecap:round;stroke-linejoin:round;stroke-miterlimit:10;stroke-dasharray:43.2, 3.6, 3.6, 3.6;stroke-dashoffset:0;stroke-opacity:1"
         id="path7401" /></g><g
       id="g7403"
       transform="matrix(0.35277772,0,0,-0.35277777,116.6568,53.708125)"><path
         d="M 0,0 H -5.953"
         style="fill:none;stroke:#000000;stroke-width:0.51;stroke-linecap:round;stroke-linejoin:round;stroke-miterlimit:10;stroke-dasharray:43.2, 3.6, 3.6, 3.6;stroke-dashoffset:0;stroke-opacity:1"
         id="path7405" /></g><g
       id="g7407"
       transform="matrix(0.35277772,0,0,-0.35277777,119.15683,51.20813)"><path
         d="M 0,0 V 5.953"
         style="fill:none;stroke:#000000;stroke-width:0.51;stroke-linecap:round;stroke-linejoin:round;stroke-miterlimit:10;stroke-dasharray:43.2, 3.6, 3.6, 3.6;stroke-dashoffset:0;stroke-opacity:1"
         id="path7409" /></g><g
       id="g7411"
       transform="matrix(0.35277772,0,0,-0.35277777,121.65682,53.708125)"><path
         d="M 0,0 H 5.953"
         style="fill:none;stroke:#000000;stroke-width:0.51;stroke-linecap:round;stroke-linejoin:round;stroke-miterlimit:10;stroke-dasharray:43.2, 3.6, 3.6, 3.6;stroke-dashoffset:0;stroke-opacity:1"
         id="path7413" /></g><g
       id="g7415"
       transform="matrix(0.35277772,0,0,-0.35277777,119.15683,42.053123)"><path
         d="M 0,0 V -60.641"
         style="fill:none;stroke:#000000;stroke-width:0.51;stroke-linecap:round;stroke-linejoin:round;stroke-miterlimit:10;stroke-dasharray:43.2, 3.6, 3.6, 3.6;stroke-dashoffset:18.279;stroke-opacity:1"
         id="path7417" /></g><g
       id="g7419"
       transform="matrix(0.35277772,0,0,-0.35277777,114.1568,37.053133)"><path
         d="M 0,0 H -60.641"
         style="fill:none;stroke:#000000;stroke-width:0.51;stroke-linecap:round;stroke-linejoin:round;stroke-miterlimit:10;stroke-dasharray:43.2, 3.6, 3.6, 3.6;stroke-dashoffset:18.279;stroke-opacity:1"
         id="path7421" /></g><g
       id="g7423"
       transform="matrix(0.35277772,0,0,-0.35277777,119.15683,32.053144)"><path
         d="M 0,0 V 60.641"
         style="fill:none;stroke:#000000;stroke-width:0.51;stroke-linecap:round;stroke-linejoin:round;stroke-miterlimit:10;stroke-dasharray:43.2, 3.6, 3.6, 3.6;stroke-dashoffset:18.279;stroke-opacity:1"
         id="path7425" /></g><g
       id="g7427"
       transform="matrix(0.35277772,0,0,-0.35277777,124.15682,37.053133)"><path
         d="M 0,0 H 60.641"
         style="fill:none;stroke:#000000;stroke-width:0.51;stroke-linecap:round;stroke-linejoin:round;stroke-miterlimit:10;stroke-dasharray:43.2, 3.6, 3.6, 3.6;stroke-dashoffset:18.279;stroke-opacity:1"
         id="path7429" /></g><g
       id="g7431"
       transform="matrix(0.35277772,0,0,-0.35277777,103.3079,42.20062)"><path
         d="M 0,0 V -7.1 M 0,0 H -7.1 M 0,0 V 7 M 0,0 h 7.1 m 10,52.7 v -7.1 m 0,7.1 H 10 m 7.1,0 v 7.1 m 0,-7.1 h 7.1 m 48.4,0 v -7.1 m 0,7.1 h -7.1 m 7.1,0 v 7.1 m 0,-7.1 h 7.1 M 89.8,0 v -7.1 m 0,7.1 h -7.1 m 7.1,0 v 7 m 0,-7 h 7.1 m -52,-32.7 v -7.1 m 0,7.1 h -7.1 m 7.1,0 v 7.1 m 0,-7.1 H 52 m -7.1,47.2 v -7 m 0,7 h -7.1 m 7.1,0 v 7.1 m 0,-7.1 H 52"
         style="fill:none;stroke:#000000;stroke-width:0.51;stroke-linecap:round;stroke-linejoin:round;stroke-miterlimit:10;stroke-dasharray:none;stroke-opacity:1"
         id="path7433" /></g><g
       id="g7443"
       transform="matrix(0.35277772,0,0,-0.35277777,120.62929,55.218119)"><path
         d="M 0,0 62.7,-62.7 M 0,0 -8.4,8.4"
         style="fill:none;stroke:#000000;stroke-width:0.51;stroke-linecap:round;stroke-linejoin:round;stroke-miterlimit:10;stroke-dasharray:none;stroke-opacity:1"
         id="path7445" /></g><g
       id="g7447"
       transform="matrix(0.35277772,0,0,-0.35277777,28.730692,66.083674)"><path
         d="M 0,0 V -28.3 M 36.9,0 V -28.3 M 0,-25.5 h 36.9 m 0,0 h 44.6"
         style="fill:none;stroke:#000000;stroke-width:0.51;stroke-linecap:round;stroke-linejoin:round;stroke-miterlimit:10;stroke-dasharray:none;stroke-opacity:1"
         id="path7449" /></g><g
       id="g7451"
       transform="matrix(0.35277772,0,0,-0.35277777,99.286228,17.223954)"><path
         d="m 0,0 -8.8,3.8 2.4,3.3 M -200,4 l -8.4,4.6 2.7,3.1"
         style="fill:#000000;fill-opacity:1;fill-rule:nonzero;stroke:none"
         id="path7453" /></g><g
       id="g7455"
       transform="matrix(0.35277772,0,0,-0.35277777,120.62929,55.218119)"><path
         d="M 0,0 5.2,-8 8,-5.2"
         style="fill:#000000;fill-opacity:1;fill-rule:nonzero;stroke:none"
         id="path7457" /></g><g
       id="g7459"
       transform="matrix(0.35277772,0,0,-0.35277777,28.730692,75.079507)"><path
         d="M 0,0 9.4,2.1 V -2 m 27.5,2 -9.4,-2 v 4.1"
         style="fill:#000000;fill-opacity:1;fill-rule:nonzero;stroke:none"
         id="path7461" /></g><g
       id="g7463"
       transform="matrix(0.35277772,0,0,-0.35277777,127.1204,63.473119)"><path
         d="M 0,0 -0.3,0.9 -0.4,1.8 -0.3,2.6 0,3.5 0.4,4.3 1,4.9 1.7,5.5 2.5,5.9 3.3,6.1 H 4.2 L 5.1,6 5.9,5.7 6.7,5.2 7.3,4.6 7.8,3.8 8.2,3 m -9.1,-4.7 0.3,0.1 0.2,0.1 0.2,0.2 L -0.1,-1 0,-0.8 0.1,-0.5 0,-0.2 V 0 M -0.9,-1.7 -1.2,-1.8 -1.5,-1.9 -1.7,-2 H -2 l -0.3,-0.1 -0.3,-0.1 -0.3,-0.1 h -0.3 m 0,0 -0.2,-0.1 h -0.3 l -0.3,0.1 -0.2,0.2 -0.2,0.1 -0.2,0.2 -0.1,0.3 -0.1,0.3 m -8.6,-1.6 -0.1,0.9 0.1,0.9 0.2,0.9 0.4,0.8 0.6,0.6 0.7,0.6 0.8,0.4 0.8,0.3 H -9 l 0.9,-0.1 0.8,-0.3 0.8,-0.4 0.7,-0.6 0.5,-0.8 0.3,-0.8 0.2,-0.8 m -9.7,-3.1 h 0.3 l 0.2,0.1 0.2,0.2 0.2,0.2 0.1,0.2 0.1,0.3 0.1,0.3 -0.1,0.2 m -1.1,-1.5 -0.3,-0.1 h -0.3 -0.3 -0.3 L -16,-4.5 h -0.3 -0.3 -0.3 M -27,-3.2 v 0.9 l 0.3,0.9 0.4,0.8 0.5,0.7 0.7,0.6 0.7,0.4 0.9,0.3 h 0.9 0.9 l 0.8,-0.3 0.8,-0.4 0.7,-0.6 0.5,-0.7 0.4,-0.8 0.2,-0.9 v -0.9 m -10.1,-1.3 h 0.3 0.3 l 0.2,0.2 0.2,0.1 0.2,0.2 0.1,0.3 0.1,0.2 v 0.3 m -1.4,-1.3 h -0.3 -0.3 -0.3 l -0.3,0.1 h -0.3 -0.3 -0.2 l -0.3,0.1 m 0,0 H -31 l -0.3,0.1 -0.2,0.2 -0.2,0.2 -0.1,0.2 -0.1,0.3 v 0.3 0.2 m -8.6,1.6 0.2,0.8 0.4,0.8 0.5,0.8 0.7,0.6 0.7,0.4 0.9,0.3 0.8,0.1 h 0.9 l 0.9,-0.3 0.8,-0.4 0.7,-0.6 0.5,-0.6 0.4,-0.8 0.3,-0.9 v -0.9 l -0.1,-0.9 m -10.2,0.5 0.3,-0.1 h 0.3 l 0.2,0.1 0.3,0.2 0.2,0.1 0.1,0.2 0.2,0.3 v 0.3 m -1.6,-1.1 h -0.3 l -0.2,0.1 -0.3,0.1 -0.3,0.1 h -0.3 l -0.3,0.1 -0.3,0.1 -0.3,0.1 m 0,0 -0.2,0.1 -0.2,0.1 -0.2,0.2 -0.2,0.3 -0.1,0.2 v 0.3 0.3 l 0.1,0.2 m -8.2,3 0.3,0.8 0.5,0.8 0.7,0.6 0.7,0.5 0.8,0.3 0.9,0.1 h 0.9 l 0.9,-0.2 0.8,-0.4 0.7,-0.6 0.6,-0.6 0.4,-0.8 0.3,-0.9 0.1,-0.8 -0.1,-0.9 -0.3,-0.9 m -10,2.2 0.3,-0.1 h 0.3 0.2 l 0.3,0.1 0.2,0.2 0.2,0.1 0.2,0.3 0.1,0.2 m -1.8,-0.8 -0.2,0.1 -0.3,0.2 -0.3,0.1 -0.3,0.1 -0.2,0.1 -0.3,0.2 -0.3,0.1 -0.2,0.1 m 0,0 -0.3,0.2 -0.2,0.2 -0.1,0.2 -0.1,0.2 -0.1,0.3 0.1,0.3 v 0.2 l 0.2,0.3 m -7.6,4.4 0.5,0.7 0.6,0.6 0.7,0.5 0.8,0.4 0.9,0.1 h 0.9 l 0.9,-0.2 0.8,-0.3 0.7,-0.5 0.6,-0.7 0.5,-0.8 0.2,-0.8 0.2,-0.9 -0.1,-0.9 -0.2,-0.8 -0.4,-0.8 m -9.5,3.9 0.2,-0.2 h 0.3 0.3 0.3 l 0.2,0.1 0.2,0.1 0.2,0.2 0.2,0.3 m -1.9,-0.5 -0.2,0.1 -0.3,0.2 -0.2,0.2 -0.3,0.1 -0.2,0.2 -0.3,0.2 -0.2,0.2 -0.2,0.1 m 0,0 -0.2,0.2 -0.2,0.2 -0.1,0.3 -0.1,0.3 v 0.2 l 0.1,0.3 0.1,0.2 0.2,0.3 m -6.7,5.6 0.6,0.6 0.7,0.6 0.8,0.3 0.9,0.2 h 0.9 l 0.8,-0.1 0.9,-0.4 0.7,-0.5 0.6,-0.6 0.5,-0.8 0.3,-0.8 0.2,-0.9 -0.1,-0.9 -0.2,-0.8 -0.4,-0.8 -0.5,-0.7 m -8.7,5.4 0.3,-0.1 0.2,-0.2 h 0.3 0.2 0.3 l 0.3,0.1 0.2,0.2 0.2,0.2 m -2,-0.2 -0.2,0.2 -0.2,0.2 -0.2,0.3 -0.2,0.2 -0.2,0.2 -0.2,0.2 -0.2,0.2 -0.2,0.2 m 0,0 -0.2,0.2 -0.1,0.3 -0.1,0.2 v 0.3 l 0.1,0.3 0.1,0.2 0.1,0.3 0.2,0.1 m -5.6,6.7 0.7,0.6 0.8,0.4 0.9,0.2 h 0.9 l 0.8,-0.1 0.9,-0.3 0.7,-0.5 0.7,-0.6 0.5,-0.8 0.3,-0.8 0.2,-0.9 -0.1,-0.9 -0.1,-0.8 -0.4,-0.8 -0.5,-0.8 -0.7,-0.6 m -7.5,6.9 0.2,-0.2 0.2,-0.1 0.2,-0.1 0.3,-0.1 h 0.3 l 0.2,0.1 0.3,0.1 0.2,0.1 m -1.9,0.2 -0.2,0.3 -0.2,0.2 -0.1,0.2 -0.2,0.3 -0.2,0.2 -0.2,0.3 -0.1,0.2 -0.2,0.3 m 0,0 -0.1,0.2 -0.1,0.3 v 0.2 0.3 l 0.1,0.3 0.2,0.2 0.2,0.2 0.2,0.1 m -4.4,7.6 0.8,0.4 0.9,0.3 h 0.9 l 0.8,-0.1 0.9,-0.3 0.7,-0.4 0.7,-0.6 0.5,-0.8 0.4,-0.8 0.2,-0.8 v -0.9 l -0.2,-0.9 -0.3,-0.8 -0.5,-0.8 -0.7,-0.6 L -88,32 m -6.2,8.1 0.1,-0.2 0.2,-0.2 0.2,-0.1 0.3,-0.1 0.2,-0.1 h 0.3 l 0.3,0.1 0.2,0.1 m -1.8,0.5 -0.2,0.3 -0.1,0.3 -0.1,0.2 -0.2,0.3 -0.1,0.3 -0.1,0.2 -0.1,0.3 -0.1,0.3 m 0,0 -0.1,0.2 -0.1,0.3 0.1,0.3 0.1,0.2 0.1,0.3 0.2,0.2 0.2,0.1 0.3,0.1 m -3,8.3 0.8,0.2 0.9,0.1 0.9,-0.1 0.8,-0.2 0.8,-0.5 0.7,-0.6 0.5,-0.7 0.4,-0.8 0.2,-0.8 0.1,-0.9 -0.2,-0.9 -0.3,-0.8 -0.5,-0.8 -0.6,-0.6 -0.7,-0.5 -0.8,-0.4 m -4.8,9.1 0.1,-0.3 0.2,-0.2 0.2,-0.2 0.2,-0.1 0.3,-0.1 h 0.2 0.3 l 0.3,0.1 m -1.8,0.8 -0.1,0.3 v 0.3 l -0.1,0.3 -0.1,0.2 -0.1,0.3 -0.1,0.3 v 0.3 l -0.1,0.3 m 0,0 v 0.3 0.2 l 0.1,0.3 0.1,0.2 0.2,0.2 0.2,0.2 0.2,0.1 0.3,0.1 m -1.5,8.6 0.9,0.1 0.8,-0.1 0.9,-0.2 0.8,-0.4 0.7,-0.6 0.5,-0.7 0.5,-0.7 0.2,-0.9 0.1,-0.9 -0.2,-0.9 -0.2,-0.8 -0.5,-0.8 -0.6,-0.6 -0.7,-0.6 -0.8,-0.3 -0.9,-0.2 m -3.1,9.7 0.1,-0.2 0.1,-0.3 0.1,-0.2 0.2,-0.2 0.3,-0.1 0.2,-0.1 h 0.3 0.3 m -1.6,1.1 V 67 l -0.1,0.3 v 0.3 0.3 0.3 l -0.1,0.3 v 0.3 0.3 m 0,0 v 0.3 l 0.1,0.2 0.1,0.3 0.2,0.2 0.2,0.2 0.2,0.1 0.3,0.1 h 0.3 m 0,8.7 h 0.8 l 0.9,-0.2 0.8,-0.4 0.7,-0.6 0.6,-0.6 0.4,-0.8 0.3,-0.9 0.1,-0.9 -0.1,-0.8 -0.3,-0.9 -0.4,-0.8 -0.6,-0.6 -0.7,-0.6 -0.8,-0.4 -0.9,-0.2 h -0.8 m -1.4,10.1 v -0.3 l 0.1,-0.2 0.1,-0.3 0.2,-0.2 0.2,-0.2 0.2,-0.1 0.3,-0.1 h 0.3 m -1.4,1.4 v 0.3 0.3 l 0.1,0.3 v 0.3 0.3 0.3 l 0.1,0.3 V 83 m 0,0 0.1,0.2 0.1,0.3 0.1,0.2 0.2,0.2 0.3,0.1 0.2,0.1 h 0.3 0.3 m 1.5,8.6 0.9,-0.2 0.8,-0.4 0.7,-0.5 0.6,-0.6 0.5,-0.8 0.2,-0.8 0.2,-0.9 -0.1,-0.9 -0.2,-0.9 -0.5,-0.8 -0.5,-0.6 -0.7,-0.6 -0.8,-0.4 -0.9,-0.3 h -0.8 l -0.9,0.1 m 0.4,10.2 V 94 93.7 l 0.1,-0.2 0.1,-0.3 0.2,-0.2 0.2,-0.1 0.2,-0.1 0.3,-0.1 m -1.1,1.6 0.1,0.3 v 0.3 l 0.1,0.3 0.1,0.2 0.1,0.3 0.1,0.3 v 0.3 l 0.1,0.3 m 0,0 0.1,0.2 0.2,0.3 0.2,0.2 0.2,0.1 0.3,0.1 h 0.2 0.3 l 0.3,-0.1 m 3,8.2 0.8,-0.3 0.7,-0.5 0.6,-0.6 0.5,-0.8 0.3,-0.8 0.2,-0.9 -0.1,-0.9 -0.2,-0.9 -0.4,-0.8 -0.5,-0.7 -0.7,-0.5 -0.8,-0.5 -0.8,-0.2 -0.9,-0.1 -0.9,0.1 -0.8,0.2 m 2.2,10 -0.1,-0.3 -0.1,-0.2 0.1,-0.3 0.1,-0.3 0.1,-0.2 0.2,-0.2 0.2,-0.2 0.3,-0.1 m -0.8,1.8 0.1,0.3 0.1,0.2 0.1,0.3 0.1,0.3 0.2,0.2 0.1,0.3 0.1,0.3 0.2,0.3 m 0,0 0.1,0.2 0.2,0.2 0.2,0.1 0.3,0.1 0.2,0.1 h 0.3 l 0.3,-0.1 0.2,-0.1 m 4.4,7.5 0.7,-0.4 0.7,-0.7 0.5,-0.7 0.3,-0.8 0.2,-0.9 v -0.9 l -0.2,-0.8 -0.4,-0.9 -0.5,-0.7 -0.7,-0.6 -0.7,-0.4 -0.9,-0.3 -0.8,-0.1 h -0.9 l -0.9,0.3 -0.8,0.4 m 3.9,9.4 -0.1,-0.2 -0.1,-0.3 v -0.3 -0.2 l 0.1,-0.3 0.2,-0.2 0.2,-0.2 0.2,-0.2 m -0.5,1.9 0.2,0.3 0.1,0.2 0.2,0.2 0.2,0.3 0.2,0.2 0.1,0.3 0.2,0.2 0.2,0.3 m 0,0 0.2,0.2 0.2,0.1 0.2,0.1 0.3,0.1 h 0.3 l 0.2,-0.1 0.3,-0.1 0.2,-0.2 m 5.6,6.7 0.7,-0.6 0.5,-0.7 0.4,-0.8 0.1,-0.9 0.1,-0.8 -0.2,-0.9 -0.3,-0.8 -0.5,-0.8 -0.7,-0.6 -0.7,-0.5 -0.9,-0.3 -0.8,-0.1 h -0.9 l -0.9,0.2 -0.8,0.4 -0.7,0.5 m 5.5,8.7 -0.2,-0.2 -0.1,-0.3 -0.1,-0.3 v -0.2 l 0.1,-0.3 0.1,-0.2 0.1,-0.3 0.2,-0.2 m -0.1,2 0.2,0.2 0.2,0.2 0.2,0.2 0.2,0.2 0.2,0.2 0.2,0.2 0.2,0.2 0.2,0.3 m 0,0 0.3,0.1 0.2,0.1 0.3,0.1 h 0.2 0.3 l 0.3,-0.1 0.2,-0.2 0.2,-0.2 m 6.7,5.6 0.5,-0.7 0.4,-0.8 0.2,-0.8 0.1,-0.9 -0.2,-0.9 -0.3,-0.8 -0.5,-0.8 -0.6,-0.6 -0.7,-0.5 -0.9,-0.4 -0.8,-0.1 h -0.9 l -0.9,0.2 -0.8,0.3 -0.7,0.5 -0.6,0.7 m 6.9,7.5 -0.2,-0.1 -0.2,-0.3 -0.1,-0.2 -0.1,-0.3 v -0.2 l 0.1,-0.3 0.1,-0.3 0.2,-0.2 m 0.2,1.9 0.2,0.2 0.2,0.2 0.3,0.2 0.2,0.1 0.3,0.2 0.2,0.2 0.3,0.1 0.2,0.2 m 0,0 0.2,0.1 0.3,0.1 h 0.3 0.3 l 0.2,-0.1 0.2,-0.2 0.2,-0.1 0.2,-0.3 m 7.6,4.4 0.4,-0.8 0.2,-0.8 0.1,-0.9 -0.2,-0.9 -0.2,-0.9 -0.5,-0.7 -0.6,-0.7 -0.7,-0.5 -0.8,-0.4 -0.9,-0.2 h -0.9 l -0.9,0.2 -0.8,0.3 -0.7,0.5 -0.6,0.7 -0.5,0.7 m 8.1,6.3 -0.3,-0.2 -0.2,-0.2 -0.1,-0.2 -0.1,-0.3 -0.1,-0.2 0.1,-0.3 v -0.3 l 0.2,-0.2 m 0.5,1.9 0.2,0.1 0.3,0.1 0.3,0.1 0.2,0.2 0.3,0.1 0.3,0.1 0.3,0.1 0.2,0.2 m 0,0 0.3,0.1 h 0.3 l 0.2,-0.1 h 0.3 l 0.2,-0.2 0.2,-0.2 0.2,-0.2 0.1,-0.2 m 8.2,3 0.3,-0.9 0.1,-0.9 -0.1,-0.9 -0.3,-0.8 -0.4,-0.8 -0.6,-0.7 -0.7,-0.5 -0.8,-0.4 -0.9,-0.2 h -0.9 l -0.9,0.1 -0.8,0.3 -0.7,0.5 -0.7,0.6 -0.5,0.7 -0.3,0.9 m 9,4.7 -0.2,-0.1 -0.2,-0.2 -0.2,-0.2 -0.2,-0.2 -0.1,-0.2 v -0.3 -0.3 l 0.1,-0.2 m 0.8,1.7 0.3,0.1 0.3,0.1 h 0.3 l 0.3,0.1 0.3,0.1 0.3,0.1 h 0.2 l 0.3,0.1 m 0,0 0.3,0.1 0.3,-0.1 h 0.2 l 0.3,-0.2 0.2,-0.1 0.1,-0.3 0.2,-0.2 v -0.3 m 8.6,1.5 0.1,-0.8 v -0.9 l -0.3,-0.9 -0.4,-0.8 -0.5,-0.7 -0.7,-0.5 -0.8,-0.4 -0.9,-0.3 h -0.9 l -0.8,0.1 -0.9,0.3 -0.7,0.4 -0.7,0.6 -0.5,0.7 -0.4,0.9 -0.2,0.8 m 9.8,3.1 H -31 l -0.3,-0.2 -0.2,-0.1 -0.2,-0.2 -0.1,-0.3 -0.1,-0.2 v -0.3 -0.3 m 1.2,1.6 h 0.3 l 0.2,0.1 h 0.3 0.3 l 0.3,0.1 h 0.3 0.3 0.3 m 0,0 h 0.3 l 0.3,-0.1 0.2,-0.1 0.2,-0.1 0.2,-0.3 0.1,-0.2 0.1,-0.3 v -0.2 m 8.7,0 V 152 l -0.2,-0.9 -0.4,-0.8 -0.5,-0.7 -0.7,-0.6 -0.8,-0.4 -0.8,-0.3 -0.9,-0.1 -0.9,0.1 -0.9,0.3 -0.7,0.4 -0.7,0.6 -0.5,0.7 -0.4,0.8 -0.3,0.9 v 0.9 m 10.1,1.3 h -0.2 l -0.3,-0.1 -0.3,-0.1 -0.2,-0.1 -0.1,-0.3 -0.2,-0.2 v -0.3 l -0.1,-0.2 m 1.4,1.3 h 0.3 0.3 0.3 l 0.3,-0.1 h 0.3 0.3 l 0.3,-0.1 h 0.3 m 0,0 h 0.3 l 0.2,-0.2 0.2,-0.1 0.2,-0.2 0.1,-0.3 0.1,-0.2 0.1,-0.3 -0.1,-0.3 m 8.6,-1.5 -0.2,-0.8 -0.3,-0.9 -0.5,-0.7 -0.7,-0.6 -0.8,-0.4 -0.8,-0.3 -0.9,-0.1 h -0.9 l -0.8,0.3 -0.8,0.4 -0.7,0.5 -0.6,0.7 -0.4,0.8 -0.2,0.9 -0.1,0.9 0.1,0.8 M -3.2,152 -3.4,152.1 -3.7,152 H -4 l -0.2,-0.2 -0.2,-0.1 -0.2,-0.3 -0.1,-0.2 -0.1,-0.3 m 1.6,1.1 0.3,-0.1 h 0.3 l 0.3,-0.1 0.3,-0.1 0.3,-0.1 h 0.2 l 0.3,-0.1 0.3,-0.1 m 0,0 0.3,-0.1 0.2,-0.2 0.2,-0.2 0.1,-0.2 0.1,-0.2 0.1,-0.3 -0.1,-0.3 v -0.2 m 8.2,-3 L 7.8,145.8 7.3,145.1 6.7,144.5 5.9,144 5.1,143.7 4.2,143.6 H 3.3 l -0.8,0.2 -0.8,0.4 -0.7,0.5 -0.6,0.7 -0.4,0.8 -0.3,0.8 -0.1,0.9 0.1,0.9 0.3,0.9 m 9.9,-2.2 -0.2,0.1 H 9.4 L 9.1,147.5 H 8.9 l -0.3,-0.2 -0.2,-0.2 -0.1,-0.2 -0.1,-0.2 m 1.7,0.8 0.3,-0.2 0.3,-0.1 0.2,-0.1 0.3,-0.1 0.3,-0.2 0.2,-0.1 0.3,-0.1 0.3,-0.1 m 0,0 0.2,-0.2 0.2,-0.2 0.2,-0.2 0.1,-0.3 v -0.2 -0.3 l -0.1,-0.3 -0.1,-0.2 m 7.6,-4.4 -0.5,-0.7 -0.6,-0.7 -0.8,-0.5 -0.8,-0.3 -0.9,-0.2 h -0.8 l -0.9,0.2 -0.8,0.4 -0.7,0.5 -0.6,0.7 -0.5,0.7 -0.3,0.9 -0.1,0.9 v 0.9 l 0.3,0.8 0.4,0.8 m 9.4,-3.9 -0.2,0.1 -0.3,0.1 H 21.3 21 l -0.3,-0.1 -0.2,-0.2 -0.2,-0.1 -0.1,-0.3 m 1.8,0.5 0.3,-0.2 0.2,-0.1 0.3,-0.2 0.2,-0.2 0.3,-0.1 0.2,-0.2 0.3,-0.2 0.2,-0.2 m 0,0 0.2,-0.1 0.2,-0.3 0.1,-0.2 v -0.3 -0.2 -0.3 l -0.2,-0.3 -0.1,-0.2 m 6.7,-5.6 -0.6,-0.7 -0.7,-0.5 -0.9,-0.3 -0.8,-0.2 H 27 l -0.9,0.1 -0.8,0.4 -0.7,0.5 -0.7,0.6 -0.4,0.8 -0.4,0.8 -0.1,0.9 v 0.9 l 0.3,0.8 0.3,0.8 0.6,0.7 m 8.6,-5.4 -0.2,0.1 -0.3,0.1 -0.2,0.1 h -0.3 -0.3 l -0.2,-0.1 -0.2,-0.2 -0.2,-0.2 m 1.9,0.2 0.2,-0.3 0.2,-0.2 0.2,-0.2 0.3,-0.2 0.2,-0.2 0.2,-0.2 0.2,-0.2 0.2,-0.2 m 0,0 0.2,-0.2 0.1,-0.3 v -0.3 -0.2 -0.3 l -0.1,-0.2 -0.2,-0.3 -0.2,-0.2 m 5.7,-6.7 -0.7,-0.5 -0.9,-0.4 -0.8,-0.2 h -0.9 l -0.9,0.1 -0.8,0.3 -0.8,0.5 -0.6,0.6 -0.5,0.8 -0.3,0.8 -0.2,0.9 v 0.8 l 0.2,0.9 0.4,0.8 0.5,0.7 0.6,0.6 m 7.6,-6.8 -0.2,0.2 -0.2,0.1 -0.3,0.1 -0.2,0.1 h -0.3 l -0.3,-0.1 -0.2,-0.1 -0.2,-0.2 m 1.9,-0.1 0.2,-0.3 0.1,-0.2 0.2,-0.3 0.2,-0.2 0.1,-0.3 0.2,-0.2 0.2,-0.2 0.1,-0.3 m 0,0 0.2,-0.2 V 119 l 0.1,-0.3 -0.1,-0.2 -0.1,-0.3 -0.1,-0.2 -0.2,-0.2 -0.2,-0.2 m 4.3,-7.5 -0.8,-0.4 -0.8,-0.3 h -0.9 l -0.9,0.1 -0.8,0.3 -0.8,0.4 -0.6,0.6 -0.6,0.7 -0.3,0.9 -0.2,0.8 v 0.9 l 0.1,0.9 0.4,0.8 0.5,0.7 0.6,0.7 0.8,0.4 m 6.2,-8 -0.1,0.2 -0.2,0.2 -0.3,0.1 -0.2,0.1 -0.3,0.1 h -0.3 l -0.2,-0.1 -0.3,-0.1 m 1.9,-0.5 0.1,-0.3 0.2,-0.3 0.1,-0.3 0.1,-0.2 0.1,-0.3 0.2,-0.3 0.1,-0.2 0.1,-0.3 m 0,0 0.1,-0.3 v -0.2 -0.3 l -0.1,-0.3 -0.1,-0.2 -0.2,-0.2 -0.3,-0.2 -0.2,-0.1 m 3,-8.2 -0.9,-0.2 -0.8,-0.1 -0.9,0.1 -0.9,0.2 -0.8,0.5 -0.6,0.5 -0.6,0.7 -0.4,0.8 -0.2,0.9 v 0.9 l 0.1,0.9 0.3,0.8 0.5,0.8 0.6,0.6 0.8,0.5 0.8,0.3 m 4.7,-9 -0.1,0.2 -0.1,0.3 -0.2,0.2 -0.2,0.1 -0.3,0.1 h -0.3 -0.2 l -0.3,-0.1 m 1.7,-0.8 0.1,-0.3 0.1,-0.3 0.1,-0.3 0.1,-0.3 v -0.2 l 0.1,-0.3 0.1,-0.3 0.1,-0.3 m 0,0 V 94 93.7 L 54.5,93.5 54.4,93.2 54.2,93 54,92.9 53.7,92.8 53.5,92.7 M 55,84.1 54.1,84 h -0.9 l -0.9,0.3 -0.7,0.4 -0.7,0.6 -0.6,0.6 -0.4,0.8 -0.2,0.9 -0.1,0.9 0.1,0.9 0.3,0.8 0.5,0.8 0.6,0.6 0.7,0.5 0.8,0.4 0.9,0.2 m 3,-9.7 v 0.2 l -0.1,0.3 -0.2,0.2 -0.2,0.2 -0.2,0.1 -0.3,0.1 H 55.2 55 m 1.5,-1.1 0.1,-0.3 v -0.3 -0.3 l 0.1,-0.3 v -0.3 -0.3 -0.3 l 0.1,-0.3 m 0,0 -0.1,-0.3 v -0.2 l -0.1,-0.3 -0.2,-0.2 -0.2,-0.2 -0.3,-0.1 -0.2,-0.1 h -0.3 m 0,-8.7 h -0.9 l -0.9,0.2 -0.8,0.4 -0.7,0.6 -0.5,0.6 -0.5,0.8 -0.2,0.9 -0.1,0.8 0.1,0.9 0.2,0.9 0.5,0.8 0.5,0.6 0.7,0.6 0.8,0.4 0.9,0.2 h 0.9 m 1.4,-10.1 -0.1,0.3 v 0.2 l -0.1,0.3 -0.2,0.2 -0.2,0.2 -0.3,0.1 -0.2,0.1 h -0.3 m 1.4,-1.4 -0.1,-0.3 V 68.5 68.2 67.9 L 56.6,67.6 V 67.3 67 l -0.1,-0.3 m 0,0 V 66.5 L 56.4,66.2 56.2,66 56,65.8 55.8,65.7 55.5,65.6 H 55.2 55 m -1.5,-8.6 -0.9,0.2 -0.8,0.3 -0.7,0.6 -0.6,0.6 -0.5,0.8 -0.3,0.8 -0.1,0.9 0.1,0.9 0.2,0.9 0.4,0.7 0.6,0.7 0.7,0.6 0.7,0.4 0.9,0.2 0.9,0.1 0.9,-0.1 M 54.6,55.4 v 0.3 0.2 l -0.1,0.3 -0.1,0.2 -0.2,0.2 -0.2,0.2 -0.3,0.1 -0.2,0.1 m 1.1,-1.6 -0.1,-0.3 -0.1,-0.3 -0.1,-0.3 V 54.2 L 54.2,54 54.1,53.7 54,53.4 53.9,53.1 m 0,0 -0.1,-0.3 -0.1,-0.2 -0.2,-0.2 -0.2,-0.1 -0.3,-0.1 h -0.3 -0.2 l -0.3,0.1 m -3,-8.3 -0.8,0.4 -0.8,0.5 -0.6,0.6 -0.5,0.8 -0.3,0.8 -0.1,0.9 v 0.9 l 0.2,0.8 0.4,0.8 0.6,0.7 0.6,0.6 0.8,0.5 0.9,0.2 0.9,0.1 0.8,-0.1 0.9,-0.2 m -2.2,-10 0.1,0.2 v 0.3 0.3 l -0.1,0.2 -0.1,0.3 -0.2,0.2 -0.3,0.1 -0.2,0.1 M 50,42.3 49.9,42 49.8,41.7 49.6,41.5 49.5,41.2 49.4,40.9 49.3,40.7 49.1,40.4 49,40.1 m 0,0 -0.1,-0.2 -0.2,-0.2 -0.3,-0.1 -0.2,-0.1 -0.3,-0.1 h -0.3 l -0.2,0.1 -0.3,0.1 M 42.8,32 42,32.5 l -0.6,0.6 -0.5,0.8 -0.4,0.8 -0.1,0.9 v 0.9 l 0.2,0.8 0.3,0.8 0.6,0.8 0.6,0.6 0.8,0.4 0.8,0.3 0.9,0.1 h 0.9 l 0.8,-0.3 0.8,-0.4 m -3.9,-9.4 0.2,0.2 v 0.3 l 0.1,0.2 -0.1,0.3 -0.1,0.3 -0.1,0.2 -0.2,0.2 -0.2,0.1 m 0.4,-1.8 -0.1,-0.3 -0.2,-0.2 -0.2,-0.3 -0.1,-0.2 -0.2,-0.3 -0.2,-0.2 -0.1,-0.2 -0.2,-0.3 m 0,0 L 41.7,28 41.5,27.9 41.2,27.8 41,27.7 H 40.7 L 40.4,27.8 40.2,27.9 40,28 m -5.7,-6.7 -0.6,0.6 -0.5,0.8 -0.4,0.8 -0.2,0.8 v 0.9 l 0.2,0.9 0.3,0.8 0.5,0.8 0.6,0.6 0.8,0.5 0.8,0.3 0.9,0.1 h 0.9 L 38.4,29 39.3,28.6 40,28 m -5.5,-8.6 0.2,0.2 0.1,0.3 v 0.2 0.3 0.3 l -0.1,0.2 -0.2,0.3 -0.2,0.1 M 34.5,19.4 34.3,19.2 34.1,19 33.9,18.8 33.7,18.6 33.4,18.4 33.2,18.1 33,17.9 32.8,17.7 m 0,0 -0.2,-0.1 -0.3,-0.2 h -0.2 -0.3 -0.3 l -0.2,0.1 -0.2,0.2 -0.2,0.2 M 24.2,12.3 23.6,13 23.3,13.8 23,14.6 v 0.9 l 0.1,0.9 0.4,0.8 0.4,0.8 0.7,0.6 0.7,0.5 0.8,0.4 0.9,0.1 h 0.9 l 0.8,-0.2 0.9,-0.3 0.7,-0.6 0.6,-0.6 m -6.9,-7.6 0.2,0.2 0.2,0.2 0.1,0.3 v 0.3 0.2 0.3 L 24.3,12 24.2,12.3 M 24,10.3 23.8,10.2 23.5,10 23.3,9.8 23,9.6 22.8,9.5 22.5,9.3 22.3,9.1 22,9 M 22,9 21.8,8.8 H 21.5 21.3 21 L 20.7,8.9 20.5,9 20.3,9.2 20.2,9.5 M 12.6,5.1 12.2,5.9 11.9,6.7 v 0.9 l 0.1,0.9 0.3,0.8 0.5,0.8 0.6,0.7 0.7,0.5 0.8,0.3 0.9,0.2 h 0.8 l 0.9,-0.1 0.8,-0.4 0.8,-0.5 0.6,-0.6 0.5,-0.7 m -8.1,-6.3 0.2,0.2 0.2,0.2 0.2,0.2 0.1,0.2 V 4.3 4.6 L 12.7,4.8 12.6,5.1 M 12.1,3.2 11.8,3.1 11.5,3 11.3,2.8 11,2.7 10.7,2.6 10.5,2.5 10.2,2.3 9.9,2.2 m 0,0 L 9.7,2.1 H 9.4 9.1 L 8.9,2.2 8.6,2.4 8.4,2.5 8.3,2.8 8.2,3 m -31.4,36.4 -2.3,-1.5 m 0,0 -1.3,-0.5 -1.2,-0.6 -1.1,-0.7 -1,-0.9 -0.9,-1 -0.8,-1.2 -0.6,-1.2 -0.4,-1.3 -0.3,-1.3 -0.2,-1.3 0.1,-1.4 0.2,-1.3 0.4,-1.3 0.6,-1.2 0.7,-1.2 0.8,-1.1 1,-0.9 1.1,-0.8 1.2,-0.7 1.2,-0.5 1.4,-0.3 1.3,-0.2 h 1.4 l 1.3,0.2 1.3,0.3 1.3,0.5 1.1,0.7 1.1,0.8 1,0.9 0.9,1.1 0.7,1.2 0.5,1.2 0.4,1.3 0.2,1.3 0.1,1.4 -0.1,1.3 -0.3,1.3 -0.5,1.3 -0.6,1.2 -0.7,1.2 -0.9,1 -1,0.9 -1.2,0.7 -1.2,0.6 -1.3,0.5 m 0,0 -2.3,1.5 m 33,24 L 10,61 8.9,58.7 7.7,56.4 6.3,54.3 4.7,52.3 3,50.4 1.2,48.6 l -2,-1.7 -2,-1.5 -2.2,-1.3 -2.3,-1.2 -2.3,-1 -2.4,-0.9 -2.5,-0.6 -2.5,-0.5 -2.5,-0.4 -2.6,-0.1 m 33,24 0.8,-2.7 m 0,0 v -1.4 l 0.2,-1.3 0.4,-1.3 0.5,-1.2 0.7,-1.2 0.8,-1.1 1,-0.9 1,-0.9 1.2,-0.7 1.3,-0.5 1.3,-0.3 1.3,-0.2 1.4,-0.1 1.3,0.2 1.3,0.3 1.3,0.5 1.2,0.6 1.1,0.8 1,0.9 0.8,1.1 0.8,1.1 0.6,1.2 0.4,1.3 0.2,1.3 0.1,1.4 -0.1,1.4 -0.2,1.3 -0.5,1.3 -0.6,1.2 -0.7,1.1 -0.9,1 -1,1 -1.1,0.7 -1.2,0.7 -1.3,0.4 -1.3,0.3 -1.3,0.2 -1.4,-0.1 -1.3,-0.2 -1.3,-0.3 -1.3,-0.6 -1.1,-0.7 -1.1,-0.8 -1,-1 -0.8,-1.1 m 0,0 -2.2,-1.7 m -12.5,38.8 1.9,-1.6 1.9,-1.8 1.7,-1.9 1.6,-1.9 1.5,-2.1 1.3,-2.2 1.1,-2.3 1,-2.4 0.7,-2.4 0.7,-2.5 0.4,-2.5 0.2,-2.6 0.1,-2.5 -0.1,-2.6 -0.3,-2.5 -0.5,-2.5 -0.7,-2.5 m -12.5,38.8 2.7,-0.1 m 0,0 1.3,-0.4 1.4,-0.2 1.3,-0.1 1.4,0.1 1.3,0.3 1.3,0.5 1.2,0.6 1.1,0.8 1,0.9 0.9,1 0.7,1.1 0.6,1.2 0.5,1.3 0.2,1.3 0.2,1.4 -0.1,1.3 -0.3,1.4 -0.4,1.3 -0.5,1.2 -0.7,1.1 -0.9,1.1 -1,0.9 -1.1,0.8 -1.2,0.7 -1.2,0.5 -1.3,0.3 -1.4,0.1 H 4.4 l -1.4,-0.1 -1.3,-0.4 -1.3,-0.5 -1.1,-0.7 -1.1,-0.8 -1,-1 -0.8,-1 -0.7,-1.2 -0.6,-1.2 -0.3,-1.3 -0.3,-1.4 v -1.3 l 0.1,-1.4 0.3,-1.3 0.5,-1.2 0.6,-1.3 0.8,-1.1 m 0,0 0.9,-2.6 m -40.7,0 2.1,1.4 2.3,1.3 2.3,1 2.4,0.9 2.4,0.8 2.5,0.5 2.6,0.4 2.5,0.2 h 2.6 l 2.5,-0.2 2.5,-0.4 2.5,-0.5 2.5,-0.8 2.4,-0.9 2.3,-1 2.2,-1.3 2.1,-1.4 m -40.7,0 1,2.6 m 0,0 0.7,1.1 0.7,1.3 0.4,1.2 0.3,1.3 0.2,1.4 -0.1,1.3 -0.2,1.4 -0.4,1.3 -0.5,1.2 -0.7,1.2 -0.9,1 -0.9,1 -1.1,0.8 -1.2,0.7 -1.2,0.5 -1.4,0.4 -1.3,0.1 H -51 l -1.3,-0.1 -1.3,-0.3 -1.3,-0.5 -1.2,-0.7 -1.1,-0.8 -0.9,-0.9 -0.9,-1.1 -0.7,-1.1 -0.6,-1.2 -0.4,-1.3 -0.2,-1.4 -0.1,-1.3 0.1,-1.4 0.3,-1.3 0.4,-1.3 0.6,-1.2 0.8,-1.1 0.9,-1 1,-0.9 1.1,-0.8 1.2,-0.6 1.3,-0.5 1.3,-0.3 1.3,-0.1 1.4,0.1 1.3,0.2 1.3,0.4 m 0,0 2.8,0.1 m -12.6,-38.8 -0.7,2.5 -0.4,2.5 -0.3,2.5 -0.2,2.6 0.1,2.5 0.3,2.6 0.4,2.5 0.6,2.5 0.8,2.4 1,2.4 1.1,2.3 1.3,2.2 1.4,2.1 1.6,1.9 1.7,1.9 1.9,1.8 2,1.6 m -12.6,-38.8 -2.2,1.7 m 0,0 -0.8,1.1 -0.9,1 -1.1,0.8 -1.2,0.7 -1.2,0.6 -1.3,0.3 -1.4,0.2 -1.3,0.1 -1.4,-0.2 -1.3,-0.3 -1.2,-0.4 -1.2,-0.7 -1.2,-0.7 -1,-1 -0.8,-1 -0.8,-1.1 -0.6,-1.2 -0.4,-1.3 -0.3,-1.3 -0.1,-1.4 0.1,-1.4 0.3,-1.3 0.4,-1.3 0.6,-1.2 0.7,-1.1 0.9,-1.1 1,-0.9 1.1,-0.8 1.2,-0.6 1.2,-0.5 1.3,-0.3 1.4,-0.2 1.3,0.1 1.4,0.2 1.3,0.3 1.2,0.5 1.2,0.7 1.1,0.9 0.9,0.9 0.9,1.1 0.7,1.2 0.5,1.2 0.4,1.3 0.2,1.3 v 1.4 m 0,0 0.8,2.7 m 32.9,-24 -2.5,0.1 -2.6,0.4 -2.5,0.5 -2.4,0.6 -2.4,0.9 -2.4,1 -2.2,1.2 -2.2,1.3 -2.1,1.5 -1.9,1.7 -1.8,1.8 -1.7,1.9 -1.6,2 -1.4,2.1 -1.2,2.3 -1.1,2.3 -0.9,2.4 m 39.2,-67.9 h -0.2 -0.3 l -0.3,0.2 -0.2,0.1 -0.1,0.2 -0.2,0.3 v 0.2 l -0.1,0.3 m 4.5,24.9 h -17.6 m 17.6,11.9 h -17.6 m 9.3,5.8 h -0.1 -0.1 -0.2 -0.1 -0.2 -0.1 -0.1 -0.2 m -50.3,12 v 17.7 m 101.7,0 V 51.4 m -89.8,0 v 17.7 m 5.5,-5.7 -0.1,0.1 v 0.1 l -0.1,0.2 v 0.1 l -0.1,0.1 v 0.2 l -0.1,0.1 v 0.1 m 72.8,4.7 V 51.4 m -5.1,13 V 64.3 64.2 L 11.1,64 V 63.9 L 11,63.8 v -0.2 l -0.1,-0.1 v -0.1 m -52.5,43.7 h -17.6 m 15.3,-3.9 0.1,0.1 h 0.1 l 0.1,0.1 0.1,0.1 0.2,0.1 0.1,0.1 0.1,0.1 h 0.1 m 56.9,3.3 H -3.7 m 1.4,-3.3 h 0.2 l 0.1,-0.1 0.1,-0.1 0.1,-0.1 0.1,-0.1 0.1,-0.1 h 0.1 l 0.2,-0.1 M 13.9,119 H -3.7 m -37.9,0 H -59.2 M -16.7,21.7 V 33.6 M -28.6,21.7 v 11.9 m -44.9,20.7 h 11.9 m 77.9,0 H 28.2 M -73.5,66.2 h 11.9 m 77.9,0 H 28.2 M 11.1,119 V 107.1 M -0.8,119 v -11.9 m -43.6,0 V 119 M -56.3,107.1 V 119 m 39.6,-91.4 -0.1,-1 -0.2,-1 -0.5,-0.9 -0.6,-0.9 -0.7,-0.7 -0.8,-0.6 -1,-0.5 -1,-0.2 -1,-0.1 m 0,0 -1.1,0.1 -1,0.2 -0.9,0.5 -0.9,0.6 -0.7,0.7 -0.6,0.9 -0.4,0.9 -0.3,1 -0.1,1 m 0,0 0.1,1.1 0.3,1 0.4,0.9 0.6,0.9 0.7,0.7 0.9,0.6 0.9,0.4 1,0.3 1.1,0.1 m 0,0 1,-0.1 1,-0.3 1,-0.4 0.8,-0.6 0.7,-0.7 0.6,-0.9 0.5,-0.9 0.2,-1 0.1,-1.1 m -50.8,26.7 -1.1,0.1 -1,0.3 -0.9,0.4 -0.9,0.6 -0.7,0.7 -0.6,0.9 -0.4,0.9 -0.3,1 -0.1,1.1 m 95.8,-6 -1.1,0.1 -1,0.3 -0.9,0.4 -0.8,0.6 -0.8,0.7 -0.6,0.9 -0.4,0.9 -0.3,1 -0.1,1.1 m 11.9,0 -0.1,-1.1 -0.2,-1 -0.5,-0.9 -0.6,-0.9 -0.7,-0.7 -0.8,-0.6 -1,-0.4 -1,-0.3 -1,-0.1 m -83.9,6 -0.1,-1.1 -0.2,-1 -0.5,-0.9 -0.6,-0.9 -0.7,-0.7 -0.8,-0.6 -1,-0.4 -1,-0.3 -1,-0.1 m -6,6 0.1,1 0.3,1 0.4,0.9 0.6,0.9 0.7,0.7 0.9,0.6 0.9,0.4 1,0.3 1.1,0.1 m 89.8,0 1,-0.1 1,-0.3 1,-0.4 0.8,-0.6 0.7,-0.7 0.6,-0.9 0.5,-0.9 0.2,-1 0.1,-1 m -11.9,0 0.1,1 0.3,1 0.4,0.9 0.6,0.9 0.8,0.7 0.8,0.6 0.9,0.4 1,0.3 1.1,0.1 m -89.8,0 1,-0.1 1,-0.3 1,-0.4 0.8,-0.6 0.7,-0.7 0.6,-0.9 0.5,-0.9 0.2,-1 0.1,-1 m 17.2,52.7 -0.1,-1 -0.3,-1 -0.4,-0.9 -0.6,-0.9 -0.7,-0.7 -0.9,-0.6 -0.9,-0.5 -1,-0.2 -1.1,-0.1 m 55.5,0 -1,0.1 -1,0.2 -1,0.5 -0.8,0.6 -0.7,0.7 -0.6,0.9 -0.5,0.9 -0.2,1 -0.1,1 m 11.9,0 -0.1,-1 -0.3,-1 -0.4,-0.9 -0.6,-0.9 -0.7,-0.7 -0.9,-0.6 -0.9,-0.5 -1,-0.2 -1.1,-0.1 m -55.5,0 -1,0.1 -1,0.2 -1,0.5 -0.8,0.6 -0.7,0.7 -0.6,0.9 -0.5,0.9 -0.2,1 -0.1,1 m 5.9,6 1.1,-0.1 1,-0.3 0.9,-0.4 0.9,-0.6 0.7,-0.7 0.6,-0.9 0.4,-0.9 0.3,-1 0.1,-1.1 m 43.6,0 0.1,1.1 0.2,1 0.5,0.9 0.6,0.9 0.7,0.7 0.8,0.6 1,0.4 1,0.3 1,0.1 m 0,0 1.1,-0.1 1,-0.3 0.9,-0.4 0.9,-0.6 0.7,-0.7 0.6,-0.9 0.4,-0.9 0.3,-1 0.1,-1.1 m -67.4,0 0.1,1.1 0.2,1 0.5,0.9 0.6,0.9 0.7,0.7 0.8,0.6 1,0.4 1,0.3 1,0.1"
         style="fill:none;stroke:#000000;stroke-width:0.709;stroke-linecap:round;stroke-linejoin:round;stroke-miterlimit:10;stroke-dasharray:none;stroke-opacity:1"
         id="path7465" /></g><g
       id="g7467"
       transform="matrix(0.35277772,0,0,-0.35277777,41.748192,38.602286)"><path
         d="m 0,0 h -36.9 m 0,8.7 H 0 M -36.9,-4.9 H 0 m 0,18.5 h -36.9 m 0,-31.9 H 0 M 0,27 H -36.9 M 0,-67.6 4.2,-63.4 M 4.2,72.1 0,76.3 M -36.9,-31.1 H 0 m 0,70.9 h -36.9 m 54.3,29.9 -0.1,0.4 -0.2,0.5 -0.3,0.4 -0.3,0.4 -0.4,0.3 -0.5,0.2 -0.5,0.1 -0.5,0.1 m 0,-135.5 0.5,0.1 0.5,0.1 0.5,0.2 0.4,0.3 0.3,0.4 0.3,0.4 0.2,0.4 0.1,0.5 M 14.6,72.1 H 4.2 m 0,-135.5 h 10.4 m 3.1,130.1 -0.1,1.7 -0.2,1.3 m 0,-130.7 0.2,1.7 0.1,1.3 m -54.6,15.2 H 0 m 0,94.3 h -36.9 m 68.7,5.8 -0.5,0.9 -2.1,2.7 -2.2,2.2 -2.3,1.6 -2.4,1.1 -2.3,0.7 -2.3,0.2 M 37.3,39.8 37.1,41.2 M 17.7,-58 l 2.4,0.2 2.5,0.8 2.5,1.2 2.4,1.9 2.3,2.4 2,2.7 m -68.7,-4.3 H 0 M 0,61.8 H -36.9 M 62.8,10.1 65.7,13 m 0,10.5 -2.9,2.8 m 0,0 H 34.4 M 36,10.1 H 62.8 M -36.9,-61.7 H 0 M 0,70.4 h -36.9 m 99.7,-110.5 2.9,2.8 m 0,10.5 -2.9,2.9 m 0,0 H 36.9 M 32.6,-40.1 H 62.8 M -36.9,-68.4 H 0 M 0,77.1 h -36.9 m 0,-150 H 0 M 0,81.6 H -36.9 M 62.8,41.2 65.7,44 m 0,10.5 -2.9,2.8 m 0,0 h -31 M 37.2,41.2 H 62.8 M 0,83.7 h -36.9 m 0,-158.7 H 0 m -36.9,73.6 v 0.3 0.2 0.3 0.2 0.2 0.1 V 0 M 0,-1.4 v 0.3 0.2 0.3 0.2 0.2 0.1 V 0 M -36.9,10.1 V 9.8 9.6 9.3 9.1 8.9 8.8 8.7 M 0,10.1 V 9.8 9.6 9.3 9.1 8.9 8.8 8.7 M -36.9,-1.4 V -1.7 -2 -2.3 -2.6 -2.9 -3.2 -3.5 -3.8 M 0,-1.4 V -1.7 -2 -2.3 -2.6 -2.9 -3.2 -3.5 -3.8 M -36.9,12.5 V 12.2 11.9 11.6 11.3 11 10.7 10.4 10.1 M 0,12.5 V 12.2 11.9 11.6 11.3 11 10.7 10.4 10.1 M -36.9,-3.8 V -4 -4.3 -4.5 -4.7 -4.8 -4.9 M 0,-3.8 V -4 -4.3 -4.5 -4.7 -4.8 -4.9 m -36.9,17.4 v 0.2 0.3 0.2 0.2 0.1 0.1 M 0,12.5 v 0.2 0.3 0.2 0.2 0.1 0.1 M -36.9,0 V 0 0.2 0.6 1.2 1.8 2.6 3.5 4.3 5.2 6.1 6.9 7.5 8.1 8.5 8.7 M 0,0 v 0 0.2 0.4 0.6 0.6 0.8 0.9 0.8 0.9 0.9 0.8 0.6 0.6 0.4 0.2 m -36.9,-22.2 v 0.2 0.3 0.6 0.6 0.8 0.8 0.9 0.9 0.9 0.7 0.7 0.6 0.4 0.2 M 0,-13.5 v 0.2 0.3 0.6 0.6 0.8 0.8 0.9 0.9 0.9 0.7 0.7 0.6 0.4 0.2 m -36.9,18.5 v 0.2 0.4 0.6 0.6 0.8 0.9 0.9 0.9 0.8 0.8 0.6 0.5 0.4 0.2 M 0,13.6 v 0.2 0.4 0.6 0.6 0.8 0.9 0.9 0.9 0.8 0.8 0.6 0.5 0.4 0.2 m -36.9,-37.3 v 0.3 0.2 0.3 0.2 0.2 0.2 0.1 0.1 M 0,-15.1 v 0.3 0.2 0.3 0.2 0.2 0.2 0.1 0.1 M -36.9,23.8 V 23.5 23.2 23 22.7 22.5 22.4 22.3 22.2 M 0,23.8 V 23.5 23.2 23 22.7 22.5 22.4 22.3 22.2 m -36.9,-37.3 v -0.3 -0.3 -0.3 -0.3 -0.2 -0.3 -0.3 -0.3 M 0,-15.1 v -0.3 -0.3 -0.3 -0.3 -0.2 -0.3 -0.3 -0.3 M -36.9,26.1 V 25.8 25.5 25.2 24.9 24.7 24.4 24.1 23.8 M 0,26.1 v -0.3 -0.3 -0.3 -0.3 -0.2 -0.3 -0.3 -0.3 m -36.9,-41.2 v -0.3 -0.2 -0.2 -0.1 -0.1 M 0,-17.4 v -0.3 -0.2 -0.2 -0.1 -0.1 m -36.9,44.4 v 0.2 0.3 0.2 0.1 0.1 M 0,26.1 v 0.2 0.3 0.2 0.1 0.1 m -36.9,-53.5 v 0.4 0.5 0.6 0.8 0.8 0.9 0.9 0.8 0.8 0.7 0.6 0.4 M 0,-26.5 v 0.4 0.5 0.6 0.8 0.8 0.9 0.9 0.8 0.8 0.7 0.6 0.4 M -36.9,27 v 0.4 0.5 0.7 0.8 0.9 0.9 0.9 0.8 0.8 0.6 0.5 0.3 M 0,27 v 0.4 0.5 0.7 0.8 0.9 0.9 0.9 0.8 0.8 0.6 0.5 0.3 m -36.9,-63.3 v 0.2 0.3 0.3 0.2 0.3 0.2 0.1 0.1 M 0,-28.2 v 0.2 0.3 0.3 0.2 0.3 0.2 0.1 0.1 M -36.9,36.9 V 36.6 36.4 36.1 35.8 35.6 35.4 35.2 35.1 M 0,36.9 v -0.3 -0.2 -0.3 -0.3 -0.2 -0.2 -0.2 -0.1 m -36.9,-63.3 v -0.3 -0.3 -0.2 -0.3 -0.3 -0.2 -0.3 -0.3 M 0,-28.2 v -0.3 -0.3 -0.2 -0.3 -0.3 -0.2 -0.3 -0.3 M -36.9,39.1 V 38.8 38.5 38.2 38 37.7 37.4 37.2 36.9 M 0,39.1 V 38.8 38.5 38.2 38 37.7 37.4 37.2 36.9 M 4.2,72.1 V 72 71.7 71.3 70.7 69.9 69 67.9 66.7 65.3 63.7 62 60.1 58.1 56 53.7 51.3 48.8 46.2 43.5 40.6 37.7 34.7 31.6 28.5 25.3 22 18.7 15.4 12 8.6 5.2 1.8 -1.6 -5 v -3.3 -3.4 -3.3 -3.2 -3.2 -3.1 -3 -3 -2.9 -2.8 -2.6 -2.6 -2.4 -2.4 -2.2 -2.1 -1.9 -1.8 -1.6 -1.5 -1.3 -1.2 -1 -0.9 -0.6 -0.6 -0.3 -0.2 m -41.1,33 v -0.2 -0.2 -0.1 -0.1 -0.1 M 0,-30.4 v -0.2 -0.2 -0.1 -0.1 -0.1 m -36.9,70.2 v 0.2 0.2 0.1 0.1 0.1 M 0,39.1 v 0.2 0.2 0.1 0.1 0.1 m -36.9,-78.3 v 0.5 0.6 0.8 0.8 0.9 0.9 0.8 0.8 0.8 0.5 M 0,-38.5 v 0.5 0.6 0.8 0.8 0.9 0.9 0.8 0.8 0.8 0.5 m -36.9,70.9 v 0.5 0.7 0.9 0.8 0.9 0.9 0.8 0.7 0.7 0.4 M 0,39.8 v 0.5 0.7 0.9 0.8 0.9 0.9 0.8 0.7 0.7 0.4 m -36.9,-87.4 v 0.2 0.3 0.2 0.3 0.3 0.2 0.2 0.1 M 0,-40.3 v 0.2 0.3 0.2 0.3 0.3 0.2 0.2 0.1 M -36.9,49 V 48.8 48.5 48.2 48 47.7 47.5 47.3 47.1 M 0,49 V 48.8 48.5 48.2 48 47.7 47.5 47.3 47.1 m -36.9,-87.4 v -0.3 -0.2 -0.3 -0.2 -0.3 -0.2 -0.2 -0.3 m 36.9,2 v -0.3 -0.2 -0.3 -0.2 -0.3 -0.2 -0.2 -0.3 M -36.9,51 V 50.7 50.5 50.2 50 49.7 49.5 49.3 49 M 0,51 V 50.7 50.5 50.2 50 49.7 49.5 49.3 49 m 17.7,17.7 v -0.1 -0.2 -0.5 -0.6 -0.7 -0.9 -1.1 -1.3 -1.4 -1.6 -1.7 -1.8 -2 -2.1 -2.3 -2.3 -2.5 -2.6 -2.7 -2.8 -2.8 -3 -3 -3.1 -3.1 -3.2 -3.2 -3.2 -3.3 -3.3 -3.2 -3.3 -3.2 -3.2 -3.2 -3.1 -3.1 -3 -3 -2.8 -2.8 -2.7 -2.6 -2.5 -2.4 -2.2 -2.1 -2 -1.9 -1.7 -1.5 -1.4 -1.3 -1.1 -0.9 -0.8 -0.6 -0.4 -0.2 -0.1 m -54.6,15.7 v -0.2 -0.1 -0.1 -0.1 M 0,-42.3 v -0.2 -0.1 -0.1 -0.1 M -36.9,51 v 0.2 0.1 0.1 0.1 M 0,51 v 0.2 0.1 0.1 0.1 M -36.9,-49.2 v 0.6 0.8 0.8 0.8 0.9 0.9 0.8 0.8 M 0,-49.2 v 0.6 0.8 0.8 0.8 0.9 0.9 0.8 0.8 m -36.9,94.3 v 0 0.8 0.8 0.9 0.8 0.9 0.8 0.7 0.6 M 0,51.5 v 0 0.8 0.8 0.9 0.8 0.9 0.8 0.7 0.6 m 34.4,-31.5 -0.6,-0.1 -0.5,-0.4 -0.5,-0.6 -0.4,-0.9 -0.3,-1 -0.2,-1.2 -0.1,-1.2 0.1,-1.2 0.1,-1.2 0.2,-1.2 0.3,-1.2 0.4,-1.1 0.4,-1.2 0.5,-1 0.5,-1 0.5,-0.7 0.5,-0.6 0.4,-0.3 H 36 m -4.2,47.1 h 0.1 L 32,57 l 0.3,-0.5 0.3,-0.6 0.4,-0.8 0.4,-1 0.5,-1.1 0.5,-1.3 0.5,-1.4 0.5,-1.5 0.4,-1.4 0.4,-1.4 0.3,-1.2 0.2,-1.1 0.2,-0.9 0.1,-0.8 0.1,-0.4 0.1,-0.3 v -0.1 m -0.3,-65.1 -0.1,-0.1 -0.3,-0.4 -0.2,-0.5 -0.4,-0.7 -0.4,-0.9 -0.4,-1.1 -0.5,-1.2 -0.5,-1.3 -0.5,-1.4 -0.5,-1.5 -0.4,-1.4 -0.4,-1.4 -0.3,-1.1 -0.1,-1.1 -0.1,-0.8 0.1,-0.6 0.2,-0.4 0.2,-0.2 0.3,-0.1 m 4.7,79.9 V 39.7 39.4 39 38.4 37.7 36.8 35.7 34.5 33.2 31.7 30 28.3 26.4 26.3 m 0,-16.2 V 8.6 6.2 3.7 1.3 v -2.4 -2.4 -2.4 -2.3 -2.3 -2.2 -2.1 -2 -1.9 -1.8 -1.7 -1.5 -0.2 m -4.9,72.4 0.3,-0.1 0.4,-0.3 0.4,-0.4 0.5,-0.6 0.4,-0.8 0.4,-0.9 0.4,-1 0.3,-1.1 0.3,-1 0.2,-1.1 0.2,-0.9 0.1,-0.9 0.1,-0.8 v -0.7 -0.6 -0.4 l -0.2,-0.3 -0.4,0.3 -0.3,0.3 -0.3,0.5 -0.3,0.7 -0.4,0.7 -0.4,0.9 -0.4,1 -0.5,1 -0.4,1.1 -0.4,1.1 -0.3,1 -0.2,0.9 -0.1,0.8 -0.1,0.6 0.1,0.4 0.3,0.5 0.3,0.1 m 2.8,-52.8 0.3,-0.1 0.3,-0.2 0.2,-0.4 0.2,-0.6 0.1,-0.7 0.1,-0.8 V -8 -8.9 l -0.1,-2 -0.3,-1.8 -0.4,-1.6 -0.3,-0.7 -0.4,-0.5 -0.3,-0.4 -0.4,-0.2 -0.5,-0.1 -0.4,0.1 -0.4,0.3 -0.4,0.5 -0.4,0.7 -0.2,0.8 -0.1,0.9 -0.1,0.9 0.2,1.7 0.4,1.8 0.6,1.6 0.4,0.8 0.5,0.6 0.4,0.6 0.4,0.4 0.6,0.2 m -3.4,-44.5 v 0.1 l 0.4,0.7 0.6,1.1 0.3,0.8 0.4,0.8 0.5,1 0.4,1.1 0.4,1.1 0.4,1 0.3,1 m -72.4,-11 v 0.2 0.3 0.2 0.3 0.3 0.2 0.3 0.1 M 0,-51.1 v 0.2 0.3 0.2 0.3 0.3 0.2 0.3 0.1 m -36.9,109 V 59.6 59.3 59 58.8 58.5 58.3 58 57.8 M 0,59.8 V 59.6 59.3 59 58.8 58.5 58.3 58 57.8 M -36.9,-51.1 v -0.2 -0.2 -0.2 -0.2 -0.2 -0.3 -0.2 -0.2 M 0,-51.1 v -0.2 -0.2 -0.2 -0.2 -0.2 -0.3 -0.2 -0.2 M -36.9,61.5 V 61.2 61 60.8 60.6 60.4 60.2 60 59.8 M 0,61.5 V 61.2 61 60.8 60.6 60.4 60.2 60 59.8 M -36.9,-52.8 v -0.1 -0.2 M 0,-52.8 v -0.1 -0.2 M -36.9,61.5 v 0.1 0.1 0.1 M 0,61.5 v 0.1 0.1 0.1 m -36.9,-120 v 0.7 0.8 0.8 0.9 0.9 0.8 0.2 M 0,-58.2 v 0.7 0.8 0.8 0.9 0.9 0.8 0.2 M -36.9,61.8 v 0.2 0.8 0.9 0.9 0.8 0.8 0.7 M 0,61.8 v 0.2 0.8 0.9 0.9 0.8 0.8 0.7 M 62.8,10.1 v 0.1 0.3 0.4 0.6 0.7 0.9 0.9 1.1 1.1 1.1 1.2 1.2 1.1 1.1 1 0.9 0.8 0.7 0.5 0.3 0.2 m 2.9,-2.8 V 23.4 23.3 22.9 22.5 21.8 21.1 20.3 19.4 18.5 17.5 16.6 15.7 15 14.3 13.7 13.3 13.1 13 M -36.9,-60.2 v 0.2 0.2 0.3 0.3 0.2 0.3 0.2 0.3 m 36.9,-2 v 0.2 0.2 0.3 0.3 0.2 0.3 0.2 0.3 m -36.9,127 V 68.7 68.4 68.2 67.9 67.7 67.4 67.1 66.9 M 0,68.8 V 68.7 68.4 68.2 67.9 67.7 67.4 67.1 66.9 M -36.9,-60.2 v -0.1 -0.2 -0.2 -0.2 -0.1 -0.2 -0.2 -0.1 M 0,-60.2 v -0.1 -0.2 -0.2 -0.2 -0.1 -0.2 -0.2 -0.1 M -36.9,70.2 V 70 69.9 69.7 69.5 69.4 69.2 69 68.8 M 0,70.2 V 70 69.9 69.7 69.5 69.4 69.2 69 68.8 M -36.9,-61.5 v -0.2 M 0,-61.5 v -0.2 M -36.9,70.2 v 0.1 0.1 M 0,70.2 v 0.1 0.1 M -36.9,-65.4 v 0.8 0.8 0.9 0.9 0.3 M 0,-65.4 v 0.8 0.8 0.9 0.9 0.3 M -36.9,70.4 v 0.3 0.9 0.9 0.8 0.8 M 0,70.4 v 0.3 0.9 0.9 0.8 0.8 M -36.9,-67.3 v 0.2 0.2 0.2 0.2 0.3 0.3 0.2 0.3 M 0,-67.3 v 0.2 0.2 0.2 0.2 0.3 0.3 0.2 0.3 M -36.9,76 V 75.8 75.6 75.4 75.1 74.9 74.6 74.3 74.1 M 0,76 V 75.8 75.6 75.4 75.1 74.9 74.6 74.3 74.1 M -36.9,-67.3 v -0.1 -0.1 -0.2 -0.1 -0.1 -0.1 -0.2 -0.1 m 36.9,1 v -0.1 -0.1 -0.2 -0.1 -0.1 -0.1 -0.2 -0.1 M -36.9,77 V 76.8 76.7 76.6 76.5 76.3 76.2 76.1 76 M 0,77 V 76.8 76.7 76.6 76.5 76.3 76.2 76.1 76 M 62.8,-40.1 v 0.1 0.3 0.4 0.6 0.7 0.8 1 1 1.1 1.2 1.2 1.2 1.1 1.1 1 0.9 0.8 0.6 0.5 0.4 0.2 m 2.9,-2.9 v 0 -0.2 -0.3 -0.5 -0.6 -0.7 -0.8 -0.9 -1 -0.9 -0.9 -0.9 -0.8 -0.7 -0.5 -0.4 -0.3 -0.1 m -102.6,-31 v -0.1 M 0,-68.3 v -0.1 M -36.9,77 v 0.1 M 0,77 v 0.1 M -36.9,-70.5 v 0.9 0.9 0.3 M 0,-70.5 v 0.9 0.9 0.3 M -36.9,77.1 v 0.3 0.9 0.9 M 0,77.1 v 0.3 0.9 0.9 M -36.9,-72.2 v 0.1 0.1 0.2 0.3 0.2 0.3 0.3 0.2 M 0,-72.2 v 0.1 0.1 0.2 0.3 0.2 0.3 0.3 0.2 M -36.9,80.9 V 80.8 80.6 80.4 80.2 80 79.7 79.4 79.2 M 0,80.9 V 80.8 80.6 80.4 80.2 80 79.7 79.4 79.2 M -36.9,-72.2 v -0.1 -0.1 -0.1 -0.1 -0.1 -0.1 M 0,-72.2 v -0.1 -0.1 -0.1 -0.1 -0.1 -0.1 M -36.9,81.5 V 81.4 81.3 81.2 81.1 81 80.9 M 0,81.5 V 81.4 81.3 81.2 81.1 81 80.9 M -36.9,-72.8 v -0.1 M 0,-72.8 v -0.1 M -36.9,81.5 v 0.1 M 0,81.5 v 0.1 M -36.9,-73.3 v 0.4 M 0,-73.3 v 0.4 M -36.9,81.6 v 0.3 M 0,81.6 v 0.3 M -36.9,-74.8 v 0 0.1 0.2 0.2 0.2 0.3 0.3 0.2 M 0,-74.8 v 0 0.1 0.2 0.2 0.2 0.3 0.3 0.2 M -36.9,83.5 v 0 V 83.3 83.2 83 82.7 82.5 82.2 81.9 M 0,83.5 v 0 V 83.3 83.2 83 82.7 82.5 82.2 81.9 M -36.9,-74.8 V -74.9 -75 M 0,-74.8 V -74.9 -75 M -36.9,83.7 v 0 -0.1 -0.1 M 0,83.7 v 0 -0.1 -0.1 M 62.8,41.2 v 0.1 0.2 0.5 0.5 0.8 0.8 1 1 1.1 1.2 1.2 1.1 1.2 1.1 1 0.9 0.8 0.6 0.5 0.4 0.1 m 2.9,-2.8 v 0 V 54.3 54 53.5 52.9 52.2 51.3 50.4 49.5 48.6 47.6 46.8 46 45.3 44.8 44.4 44.1 44 M -36.9,83.7 v 0 m 36.9,0 v 0 M -36.9,-75 v 0 M 0,-75 v 0"
         style="fill:none;stroke:#000000;stroke-width:0.709;stroke-linecap:round;stroke-linejoin:round;stroke-miterlimit:10;stroke-dasharray:none;stroke-opacity:1"
         id="path7469" /></g></g></svg>
