<?xml version="1.0" encoding="UTF-8" standalone="no"?>
<!-- Created with Inkscape (http://www.inkscape.org/) -->

<svg
   width="224.26401mm"
   height="116.03179mm"
   viewBox="0 0 224.26401 116.03179"
   version="1.1"
   id="svg5"
   inkscape:version="1.2.1 (9c6d41e410, 2022-07-14)"
   sodipodi:docname="Longboard.svg"
   xml:space="preserve"
   xmlns:inkscape="http://www.inkscape.org/namespaces/inkscape"
   xmlns:sodipodi="http://sodipodi.sourceforge.net/DTD/sodipodi-0.dtd"
   xmlns="http://www.w3.org/2000/svg"
   xmlns:svg="http://www.w3.org/2000/svg"><sodipodi:namedview
     id="namedview7"
     pagecolor="#505050"
     bordercolor="#eeeeee"
     borderopacity="1"
     inkscape:pageshadow="0"
     inkscape:pageopacity="0"
     inkscape:pagecheckerboard="0"
     inkscape:document-units="mm"
     showgrid="false"
     inkscape:zoom="2.7758979"
     inkscape:cx="459.13073"
     inkscape:cy="279.72931"
     inkscape:window-width="2560"
     inkscape:window-height="1361"
     inkscape:window-x="2551"
     inkscape:window-y="-9"
     inkscape:window-maximized="1"
     inkscape:current-layer="svg5"
     inkscape:snap-page="true"
     inkscape:showpageshadow="0"
     inkscape:deskcolor="#505050" /><defs
     id="defs2" /><g
     inkscape:label="Ebene 1"
     inkscape:groupmode="layer"
     id="layer1"
     transform="translate(-612.94667,-59.070178)" /><g
     id="g44401"
     transform="matrix(0.35277777,0,0,-0.35277779,100.067,84.75645)"><path
       d="M 0,0 2.4,-9.3 -1.7,-9.4 0,0 m 0,0 0.2,-6.2 0.1,-5.2 -0.2,-4.3 -0.6,-3.5 -1.3,-3.5 -2,-2.4 -2.8,-1.8 -3.3,-1.5 -3.7,-1.6 -3.8,-2.3 -2.2,-1.8 -2.1,-2.4 -1.8,-3 -1.4,-3.8 -0.9,-4.8 m 238.9,72.3 -9.6,0.1 0.9,4 8.7,-4.1 m 0,0 -6.5,1.5 -5.3,1.4 -4.1,1.4 -3.6,1.9 -2.3,2.2 -1.5,2.4 -0.9,2.6 -0.9,3 -1.1,3.1 -1.8,3.1 -1.8,2.1 -2.6,1.9 -3.3,1.7 -4.4,1.4 -5.5,1.1 m 44.4,-141.4 -9.5,-0.8 0.5,4 9,-3.2 m 0,0 -7.7,1 -6.7,1 -5.8,1.1 -4.9,1.1 -4,1.4 -3.9,2.1 -3,2.5 -2.2,2.9 -1.7,3.4 -1.5,3.7 -1.5,4 -2.1,4.1 -2.8,4.2 -2.6,2.6 -3.3,2.5 -4.1,2.2 -5.2,1.9 -6.2,1.5 -7.6,1 m 119.5,32.1 9.5,1.5 -0.3,-4.1 -9.2,2.6 m 0,0 5.7,-0.3 4.7,-0.4 3.9,-0.6 3.1,-0.7 3.1,-1.5 2.2,-2 1.6,-2.6 1.5,-3 1.6,-3.3 2.5,-3.3 2.1,-2 2.7,-1.7 3.4,-1.6 4.4,-1.1 5.4,-0.8"
       style="fill:none;stroke:#000000;stroke-width:0.51;stroke-linecap:butt;stroke-linejoin:miter;stroke-miterlimit:10;stroke-dasharray:none;stroke-opacity:1"
       id="path44403" /></g><g
     id="g44405"
     transform="matrix(0.35277777,0,0,-0.35277779,100.067,84.75645)"><path
       d="m 0,0 2.4,-9.3 -4.1,-0.1 m 214.8,33.6 -9.6,0.1 0.9,4 m 7.5,-114.7 -9.5,-0.8 0.5,4 m 51.7,73.1 9.5,1.5 -0.3,-4.1"
       style="fill:#000000;fill-opacity:1;fill-rule:nonzero;stroke:none"
       id="path44407" /></g><g
     id="g44409"
     transform="matrix(0.35277777,0,0,-0.35277779,87.084784,81.40506)"><path
       d="m 0,0 -20.7,-0.1 h -20.8 l -20.7,-0.1 -20.6,-0.1 -20.6,-0.2 -20.6,-0.3 -12.3,-0.1 -12.2,-0.2 -12.1,-0.2 -12,-0.2 -11.9,-0.2 -9.8,-0.2 -9.6,-0.2 -9.5,-0.2 -4.7,-0.1 -4.5,-0.1 -4.4,-0.1 -4.2,-0.1 h -4.1 -3.7 M 71,0 H 0 m -193.5,-17.5 0.5,-0.9 m 4.3,0 0.4,0.9 m 0,1.8 -0.3,0.2 m -4.6,0 -0.3,-0.2 m 442.2,-81.2 0.5,-0.9 m 4.3,0 0.4,0.9 m 0,1.8 -0.3,0.2 m -4.6,0 -0.3,-0.2 m -411.6,77.6 0.5,-0.9 m 4.3,0 0.4,0.9 m 0,1.8 -0.3,0.2 m -4.6,0 -0.3,-0.2 m 442.2,-81.2 0.5,-0.9 m 4.3,0 0.4,0.9 m 0,1.8 -0.3,0.2 m -4.6,0 -0.3,-0.2 m -471.6,76.7 v -1.1 m 2.8,0 v 1.1 m -2.8,-1.1 0.2,-0.2 m 2.4,0 0.2,0.2 m 438.1,42 1.3,-1.2 m 2.9,0 1.3,1.2 m -5.5,0.3 v -0.3 m 5.5,0 v 0.3 m -4.2,-1.5 v 0 -0.1 m 2.8,0 v 0 h 0.1 v 0.1 m -2.9,-0.1 V 6.1 m 2.8,0 v 15.1 m -2.8,-15.1 0.3,-0.3 m 2.3,0 0.2,0.3 m 26.5,16.4 1.3,-1.2 m 2.9,0 1.3,1.2 m -5.5,0.3 v -0.3 m 5.5,0 v 0.3 m -4.2,-1.5 v 0 -0.1 m 2.8,0 v 0 h 0.1 v 0.1 m -2.9,-0.1 V 6.1 m 2.8,0 v 15.1 m -2.8,-15.1 0.3,-0.3 m 2.3,0 0.2,0.3 m -445,-24.5 v -1.1 m 2.8,0 v 1.1 m -2.8,-1.1 0.2,-0.2 m 2.4,0 0.2,0.2 m -13.7,-29.9 v -0.1 l -0.3,-0.2 -0.2,-0.3 m 1.5,-1.1 0.2,0.3 0.2,0.3 v 0.1 m 428.6,-16.3 -0.1,-0.3 m 1.4,-1.1 0.3,0.2 0.1,0.4 v 0.1 m -1.3,1 -0.1,-0.1 -0.3,-0.2 m 2.4,-0.9 -0.1,-0.3 v -0.4 l 0.1,-0.1 m 1.8,0 v 0.1 0.3 l -0.1,0.4 m -435,20.4 h -0.3 l -0.4,-0.1 v -0.1 m 0.5,-1.7 h 0.2 l 0.3,0.1 m 435.4,-18.4 v 0 l 0.2,-0.4 0.2,-0.3 m 1.5,1.1 -0.1,0.2 -0.3,0.3 -0.1,0.1 m -436.8,21.7 -0.3,0.1 h -0.2 m -0.5,-1.7 0.3,-0.2 h 0.4 m 0.4,2.8 0.1,-0.2 0.3,-0.3 0.1,-0.1 m 1.4,1 v 0 l -0.1,0.4 -0.3,0.3 m 435.8,-23.4 0.3,-0.1 h 0.2 m 0.6,1.7 -0.4,0.2 h -0.3 -0.1 m -435.1,21.9 v -0.1 -0.3 l 0.1,-0.4 m 1.7,0 0.1,0.3 v 0.4 0.1 m 433.2,-21.2 h 0.4 l 0.3,0.1 0.1,0.1 m -0.6,1.7 h -0.1 l -0.4,-0.1 m -1.8,1.8 -0.2,-0.3 v -0.1 m 1.4,-1 0.1,0.1 0.3,0.2 0.1,0.3 m -1.5,1.1 -0.2,-0.3 m -430.1,17.3 -0.2,-0.2 -0.2,-0.4 v -0.1 m 1.4,-1 0.1,0.1 0.2,0.2 0.2,0.3 m 0.6,-0.9 h -0.2 l -0.3,-0.1 m 0.3,-1.8 h 0.3 l 0.4,0.2 m 424.9,-13 -0.1,-0.1 v -0.4 l 0.1,-0.3 m 1.7,0 0.1,0.3 v 0.3 0.2 m -4.3,-1.4 0.1,-0.2 0.2,-0.3 0.2,-0.1 m 1.3,1 v 0 l -0.1,0.4 -0.2,0.3 m -423.8,12.2 -0.4,0.2 h -0.4 m -0.3,-1.8 0.3,-0.1 h 0.2 m 421.7,-14.2 0.3,-0.2 h 0.4 m 0.3,1.8 -0.2,0.1 h -0.3 m -423.2,12.1 -0.1,0.1 m -1.4,-1 v 0 l 0.1,-0.4 0.3,-0.3 m 1.5,1.1 -0.1,0.2 -0.3,0.3 m -3.9,-1.1 -0.1,-0.3 v -0.3 -0.2 m 1.9,0 v 0.1 0.4 l -0.1,0.3 m 425.4,-15.5 h 0.2 l 0.3,0.1 h 0.1 m -0.4,1.8 h -0.3 l -0.4,-0.2 m -1.6,9.2 0.1,-0.2 0.1,-0.2 0.1,-0.1 0.1,-0.2 0.2,-0.1 0.1,-0.2 m -419.4,17 0.2,0.2 0.1,0.1 0.1,0.2 0.2,0.2 0.1,0.1 v 0.2 m -2.5,-1.6 1.1,1.4 m 420.8,-17 1.1,-1.4 m -434.3,6.5 0.7,0.7 m 444.2,-17 0.8,-0.7 m -423.3,42.6 0.1,0.1 m -0.8,0.8 -0.1,-0.1 m 1.8,-2 0.1,0.1 m 399.7,-15.8 0.1,-0.1 m 0.7,0.8 -0.1,0.1 m -1.8,-2.1 0.1,-0.1 m -491.4,38.6 v -3.4 m 7.7,5.1 H -239 M 0,0 V 0 M -238.8,-9.5 H 71 M 388.5,7.1 V 3.6 M 71,0 h 32.1 l 31.8,-0.1 h 31.9 l 31.8,-0.2 31.8,-0.1 15.9,-0.1 15.9,-0.1 15.8,-0.2 15.8,-0.1 M 71,-9.5 h 222.8 m 0,8.6 v 0 h 10.6 l 10.5,0.1 10.5,0.4 9.7,0.6 9.6,0.8 9.4,1.1 6.1,0.8 5.8,1 5.6,1.1 3.3,0.7 3.1,0.8 2.7,0.7 m -86.9,-16.7 13.9,0.2 13.4,0.5 13,0.8 12.6,1.3 9.5,1.3 9.2,1.6 8.9,2 8.4,2.3 m -2,6.7 v 0 l 1.6,0.4 1.4,0.4 1.1,0.3 0.7,0.2 m -2.8,-8 3.8,1.2 M -238.8,-9.5 h -1.4 -2 -1.6 -0.7 -0.3 m -1.7,1.7 0.1,-0.3 0.1,-0.4 0.1,-0.2 0.2,-0.3 0.3,-0.2 0.3,-0.2 0.3,-0.1 h 0.3 m 0,6.8 h 0.3 0.7 1.5 2.1 1.4 m -6,0 h -0.3 l -0.3,-0.1 -0.3,-0.2 -0.3,-0.2 -0.2,-0.3 -0.1,-0.2 -0.1,-0.4 -0.1,-0.3 m 632,12.9 0.4,0.1 0.2,0.1 h 0.2 m 2.2,-1.6 v 0.4 l -0.2,0.4 -0.2,0.3 -0.3,0.3 -0.3,0.2 -0.4,0.1 h -0.4 l -0.4,-0.1 m 1,-6.8 h -0.2 l -0.2,-0.1 -0.4,-0.1 m 0.8,0.2 0.3,0.1 0.2,0.2 0.2,0.1 0.2,0.2 0.1,0.3 0.1,0.2 0.1,0.3 V 3.6 M 0,0 h -21.2 l -21.2,-0.1 -21.2,-0.1 -16,-0.1 -15.9,-0.1 -15.9,-0.2 -15.9,-0.2 -14.4,-0.2 -14.3,-0.2 -14.2,-0.3 -14.1,-0.2 -7.2,-0.2 -7.2,-0.1 -7,-0.2 -7,-0.1 -6.9,-0.1 -6.7,-0.2 h -4.5 l -4.1,-0.1 h -3.9 m 0,0 h 4.5 m 42.1,-13 1.3,0.2 m 0,0 h 0.1 l 1.2,-0.2 m 0,0 v -1.8 m -2.6,0 0.7,-0.6 0.5,-0.1 h 0.4 l 0.5,0.2 0.5,0.5 m -2.6,1.8 v -1.8 m -1.3,0 0.4,-0.6 0.2,-0.1 h 0.2 l 0.2,0.2 0.3,0.5 m 2.6,0 0.2,-0.4 0.3,-0.2 0.2,-0.1 0.2,0.1 0.2,0.3 0.2,0.3 m -0.4,-0.9 h -0.1 -0.2 -0.4 -0.6 -0.7 -0.6 -0.7 -0.5 -0.4 -0.1 m 0.1,2.9 h 0.1 l 0.6,-0.2 m 2.6,0 0.2,0.1 0.5,0.1 m -4.6,-0.2 0.6,0.2 m -0.6,-0.2 v -1.8 m 4.6,2 h 0.2 l 0.4,-0.2 m 0,0 v -1.8 m 440.9,-77.6 0.7,0.2 m 0,0 v 0 l 0.6,-0.2 m 0,0 v -1.8 m -1.3,0 0.4,-0.5 0.2,-0.2 0.2,0.1 0.3,0.2 0.2,0.4 m -1.3,1.8 v -1.8 m -3.9,0 0.4,-0.5 0.2,-0.2 0.2,0.1 0.2,0.2 0.3,0.4 m 0,0 0.4,-0.3 0.5,-0.3 0.4,-0.1 0.4,0.1 0.6,0.3 0.3,0.3 m 0.9,-0.9 h -0.1 -0.3 -0.5 -0.6 -0.7 -0.6 -0.6 -0.5 -0.3 -0.1 m 2.1,2.9 h 0.4 l 0.9,-0.2 m 0.7,0.2 h -0.2 -0.2 -0.2 -0.2 -0.3 -0.3 -0.3 -0.3 m -1.3,-0.2 0.3,0.1 1,0.1 m -1.3,-0.2 v -1.8 m -0.6,2 v 0 l 0.6,-0.2 m 1.3,0.2 h -0.3 -0.3 -0.3 -0.2 -0.3 -0.2 -0.2 -0.1 m -0.7,-0.2 0.7,0.2 m -0.7,-0.2 v -1.8 m 4.9,2 v 0 h -0.1 -0.1 -0.1 m -3.9,0 h -0.2 -0.1 -0.1 m -410.6,79.2 1.3,0.2 m 0,0 h 0.1 l 1.2,-0.2 m 0,0 v -1.8 m -2.6,0 0.7,-0.6 0.5,-0.1 h 0.4 l 0.5,0.2 0.5,0.5 m -2.6,1.8 v -1.8 m -1.3,0 0.4,-0.6 0.2,-0.1 h 0.2 l 0.2,0.2 0.3,0.5 m 2.6,0 0.2,-0.4 0.3,-0.2 0.2,-0.1 0.2,0.1 0.2,0.3 0.2,0.3 m -0.4,-0.9 h -0.1 -0.2 -0.4 -0.6 -0.7 -0.6 -0.7 -0.5 -0.4 -0.1 m 0.1,2.9 h 0.1 l 0.6,-0.2 m 2.6,0 0.2,0.1 0.5,0.1 m -4.6,-0.2 0.6,0.2 m -0.6,-0.2 v -1.8 m 4.6,2 h 0.2 l 0.4,-0.2 m 0,0 v -1.8 m 440.9,-77.6 0.7,0.2 m 0,0 v 0 l 0.6,-0.2 m 0,0 v -1.8 m -1.3,0 0.4,-0.5 0.2,-0.2 0.2,0.1 0.3,0.2 0.2,0.4 m -1.3,1.8 v -1.8 m -3.9,0 0.4,-0.5 0.2,-0.2 0.2,0.1 0.2,0.2 0.3,0.4 m 0,0 0.4,-0.3 0.5,-0.3 0.4,-0.1 0.4,0.1 0.6,0.3 0.3,0.3 m 0.9,-0.9 h -0.1 -0.3 -0.5 -0.6 -0.7 -0.6 -0.6 -0.5 -0.3 -0.1 m 2.1,2.9 h 0.4 l 0.9,-0.2 m 0.7,0.2 h -0.2 -0.2 -0.2 -0.2 -0.3 -0.3 -0.3 -0.3 m -1.3,-0.2 0.3,0.1 1,0.1 m -1.3,-0.2 v -1.8 m -0.6,2 v 0 l 0.6,-0.2 m 1.3,0.2 h -0.3 -0.3 -0.3 -0.2 -0.3 -0.2 -0.2 -0.1 m -0.7,-0.2 0.7,0.2 m -0.7,-0.2 v -1.8 m 4.9,2 v 0 h -0.1 -0.1 -0.1 m -3.9,0 h -0.2 -0.1 -0.1 m -471.9,75.4 v 0 h 0.1 0.3 0.5 0.5 0.6 0.4 0.3 0.1 m -2.6,-0.2 v 0 h 0.1 0.3 0.4 0.4 0.5 0.3 0.3 0.1 m 438.3,42.2 v 0 h 0.3 0.4 0.6 0.6 0.8 0.7 0.7 0.6 0.4 0.3 0.1 m -5.5,0.3 v 0 h 0.3 0.4 0.6 0.6 0.8 0.7 0.7 0.6 0.4 0.3 0.1 M 249.9,6.1 v 0 h 0.1 0.3 0.5 0.5 0.6 0.4 0.3 0.1 m -2.5,-0.3 v 0 h 0.3 0.4 0.4 0.5 0.3 0.3 0.1 m 26.7,16.7 v 0 h 0.3 0.4 0.6 0.6 0.8 0.7 0.7 0.6 0.4 0.3 0.1 m -5.5,0.3 v 0 h 0.3 0.4 0.6 0.6 0.8 0.7 0.7 0.6 0.4 0.3 0.1 M 280.5,6.1 v 0 h 0.1 0.3 0.5 0.5 0.6 0.4 0.3 0.1 m -2.5,-0.3 v 0 h 0.3 0.4 0.4 0.5 0.3 0.3 0.1 m -444.8,-25.3 v 0 h 0.1 0.3 0.5 0.5 0.6 0.4 0.3 0.1 m -2.6,-0.2 v 0 h 0.1 0.3 0.4 0.4 0.5 0.3 0.3 0.1 m -39.8,7.4 h 41.6 m -43.1,2.8 v -2.8 m 0,0 h 0.1 0.2 0.2 0.2 0.2 0.3 0.3 m 43,2.8 v -2.8 m -1.4,0 h 0.3 0.3 0.2 0.2 0.2 0.1 0.1 m 404.2,-8.5 H 290 M 248.3,-18 H 290 m -43.1,0 v -2.8 m 0,0 v 0 h 0.1 0.1 0.1 0.2 0.2 0.2 0.3 0.2 m -1.4,2.8 v 0 h 0.1 0.1 0.1 0.2 0.2 0.2 0.3 0.2 m 43.1,0 v -2.8 m -1.4,0 h 0.2 0.3 0.3 0.2 0.2 0.1 0.1 M 290,-18 h 0.2 0.3 0.3 0.2 0.2 0.1 0.1 m -27.1,-45.9 -0.1,-0.4 v -0.5 l -0.2,-0.4 -0.2,-0.5 -0.3,-0.3 -0.3,-0.4 -0.3,-0.3 -0.4,-0.3 m 0,0 -0.4,-0.2 -0.5,-0.1 -0.5,-0.1 -0.4,-0.1 -0.5,0.1 -0.5,0.1 -0.4,0.1 -0.4,0.2 m 0,0 -0.4,0.3 -0.4,0.3 -0.3,0.4 -0.2,0.3 -0.2,0.5 -0.2,0.4 -0.1,0.5 v 0.4 m 0,0 v 0.5 l 0.1,0.5 0.2,0.4 0.2,0.4 0.2,0.4 0.3,0.4 0.4,0.3 0.4,0.3 m 0,0 0.4,0.2 0.4,0.1 0.5,0.1 h 0.5 0.4 l 0.5,-0.1 0.5,-0.1 0.4,-0.2 m 0,0 0.4,-0.3 0.3,-0.3 0.3,-0.4 0.3,-0.4 0.2,-0.4 0.2,-0.4 v -0.5 l 0.1,-0.5 m -3.6,-2.4 0.7,0.1 0.7,0.3 0.5,0.5 0.4,0.7 0.1,0.7 v 0.7 l -0.3,0.7 -0.5,0.5 -0.6,0.4 -0.7,0.3 h -0.7 l -0.7,-0.3 -0.6,-0.4 -0.4,-0.5 -0.3,-0.7 -0.1,-0.7 0.2,-0.7 0.4,-0.7 0.5,-0.5 0.7,-0.3 0.7,-0.1 m -1.8,5.6 0.8,0.4 1,0.6 m 0,0 1.8,-1 m -5.4,-3.2 v 1.6 0.5 m 0,0 1.8,1.1 m -1.8,-5.2 v 0.8 1.2 m 1.8,-3.1 -0.9,0.5 -0.9,0.6 m 3.6,-2.1 -1.8,1 m 3.6,0 -0.9,-0.5 -0.9,-0.5 m 1.8,7.3 0.8,-0.5 1,-0.6 m 0,0 v -0.5 -1.6 m 0,-2 -1.8,-1.1 m 1.8,3.1 v -1.2 -0.8 m -435.7,22.2 0.4,0.2 0.4,0.1 0.5,0.1 0.5,0.1 0.4,-0.1 0.5,-0.1 0.4,-0.1 0.5,-0.2 m 0,0 0.3,-0.3 0.4,-0.3 0.3,-0.4 0.3,-0.3 0.2,-0.5 0.1,-0.4 0.1,-0.5 0.1,-0.4 m 0,0 -0.1,-0.5 -0.1,-0.5 -0.1,-0.4 -0.2,-0.4 -0.3,-0.4 -0.3,-0.4 -0.4,-0.3 -0.3,-0.3 m 0,0 -0.5,-0.2 -0.4,-0.1 -0.5,-0.1 h -0.4 -0.5 l -0.5,0.1 -0.4,0.1 -0.4,0.2 m 0,0 -0.4,0.3 -0.4,0.3 -0.3,0.4 -0.3,0.4 -0.2,0.4 -0.1,0.4 -0.1,0.5 v 0.5 m 0,0 v 0.4 l 0.1,0.5 0.1,0.4 0.2,0.5 0.3,0.3 0.3,0.4 0.4,0.3 0.4,0.3 m 3.9,-1.9 -0.5,0.5 -0.6,0.5 -0.7,0.2 h -0.7 l -0.7,-0.2 -0.6,-0.5 -0.5,-0.5 -0.2,-0.7 -0.1,-0.7 0.2,-0.7 0.3,-0.7 0.6,-0.5 0.6,-0.3 0.8,-0.1 0.7,0.1 0.6,0.3 0.6,0.5 0.3,0.7 0.2,0.7 -0.1,0.7 -0.2,0.7 m -3.9,-4.4 -0.9,0.5 -0.9,0.6 m 0,0 v 2.1 m 0,0 v 0.9 1.1 m 0,0 0.4,0.3 1.4,0.8 m 3.6,-6.3 -1.4,-0.7 -0.4,-0.3 m 0,0 -1.8,1 m 5.4,1.1 -0.8,-0.4 -1,-0.7 m 1.8,3.2 v -1 -1.1 m -3.6,6.2 1.8,-1 m -3.6,0 1,0.6 0.8,0.4 m 3.6,-2.1 v -2 m -1.8,3.1 0.8,-0.5 1,-0.6 m 430.4,-21.8 -0.6,-0.7 -0.8,-0.6 -0.9,-0.4 -0.9,-0.2 h -1 l -1,0.2 -0.8,0.4 -0.8,0.6 -0.7,0.7 -0.4,0.9 -0.3,0.9 -0.1,0.9 0.1,1 0.3,0.9 0.4,0.9 0.7,0.7 0.8,0.6 0.8,0.3 1,0.2 h 1 l 0.9,-0.2 0.9,-0.3 0.8,-0.6 0.6,-0.7 0.5,-0.9 0.3,-0.9 0.1,-1 -0.1,-0.9 -0.3,-0.9 -0.5,-0.9 m 1.2,-0.8 -0.8,-0.8 -0.8,-0.7 -1,-0.5 -1.1,-0.4 -1.1,-0.1 -1.1,0.1 -1.1,0.3 -1,0.5 -0.9,0.6 -0.8,0.8 -0.6,1 -0.4,1 -0.2,1.1 v 1.1 l 0.1,1.1 0.4,1 0.6,1 0.7,0.8 0.9,0.7 1,0.5 1.1,0.4 1.1,0.1 1.1,-0.1 1.1,-0.3 1,-0.5 0.9,-0.6 0.7,-0.8 0.6,-1 0.5,-1 0.2,-1.1 v -1.1 l -0.2,-1.1 -0.4,-1 -0.5,-1 m -440.1,24.1 -0.6,-1 -0.4,-1 -0.2,-1.1 0.1,-1.1 0.2,-1.1 0.4,-1 0.6,-1 0.8,-0.8 0.9,-0.6 1,-0.5 1.1,-0.3 1.1,-0.1 1.1,0.1 1,0.4 1,0.5 0.9,0.7 0.7,0.8 0.6,1 0.4,1 0.2,1.1 v 1.1 l -0.3,1.1 -0.4,1 -0.6,1 -0.8,0.8 -0.9,0.6 -1,0.5 -1,0.3 -1.2,0.1 -1.1,-0.1 -1,-0.4 -1,-0.5 -0.9,-0.7 -0.7,-0.8 m 1.1,-0.8 -0.5,-0.9 -0.3,-0.9 -0.1,-0.9 0.1,-1 0.3,-0.9 0.5,-0.9 0.7,-0.7 0.7,-0.6 0.9,-0.3 1,-0.2 h 0.9 l 1,0.2 0.9,0.3 0.7,0.6 0.7,0.7 0.5,0.9 0.3,0.9 0.1,1 -0.1,0.9 -0.3,0.9 -0.5,0.9 -0.7,0.7 -0.7,0.6 -0.9,0.4 -1,0.2 h -0.9 l -1,-0.2 -0.9,-0.4 -0.7,-0.6 -0.7,-0.7 m 437.2,-22 -0.6,-0.7 -0.7,-0.5 -0.9,-0.3 -0.4,-0.1 m -1.2,0 -0.2,0.1 -0.8,0.3 -0.8,0.4 -0.4,0.5 m -0.8,1.3 -0.1,0.5 -0.1,0.9 0.2,0.9 v 0.3 m 0.6,1.1 0.2,0.2 0.7,0.6 0.8,0.4 0.7,0.2 m 1.4,0 0.6,-0.2 0.8,-0.4 0.7,-0.6 0.1,-0.1 m 0.7,-1.2 0.1,-0.2 0.1,-0.9 v -0.9 l -0.2,-0.8 m -437.6,19.8 -0.2,-0.7 v -0.9 l 0.1,-0.9 0.1,-0.1 m 0.7,-1.3 0.2,-0.1 0.7,-0.6 0.8,-0.4 0.6,-0.2 m 1.3,0 0.7,0.2 0.8,0.4 0.7,0.6 0.1,0.1 m 0.7,1.3 0.1,0.2 0.1,0.9 v 0.9 l -0.2,0.6 m -0.7,1.1 -0.5,0.6 -0.7,0.4 -0.9,0.3 -0.3,0.1 m -1.2,0 -0.3,-0.1 -0.8,-0.3 -0.8,-0.5 -0.6,-0.7 m 21.5,-15.6 -1.3,-1.6 -1.5,-1.6 -1.6,-1.3 -1.8,-1.3 -1.8,-1 -1.9,-0.9 -2.1,-0.7 -2,-0.5 -2.1,-0.3 -2.1,-0.1 -2.2,0.1 -2.1,0.3 -2,0.4 -2.1,0.7 -1.9,0.9 -1.9,1 -1.7,1.2 -1.6,1.4 -1.5,1.5 -1.4,1.7 -1.2,1.7 -1,1.9 -0.8,1.9 -0.6,2.1 -0.5,2 -0.3,2.2 v 2.1 l 0.1,2.1 0.4,2.1 0.5,2.1 0.7,2 0.9,1.9 1.1,1.8 1.2,1.7 1.5,1.6 1.5,1.5 1.7,1.3 1.8,1.1 1.9,1 1.9,0.8 2.1,0.6 2.1,0.4 2.1,0.2 h 2.1 l 2.1,-0.2 2.1,-0.4 2.1,-0.5 1.9,-0.8 1.9,-1 1.8,-1.1 1.7,-1.3 1.6,-1.4 1.4,-1.6 1.3,-1.7 1.1,-1.8 0.9,-1.9 0.8,-2 0.5,-2.1 0.4,-2.1 0.1,-2.1 v -2.1 l -0.3,-2.1 -0.4,-2.1 -0.6,-2.1 -0.8,-1.9 -1,-1.9 -1.2,-1.8 m -7.7,5.6 -1,-1.3 -1.2,-1.1 -1.3,-0.9 -1.4,-0.8 -1.5,-0.7 -1.6,-0.4 -1.6,-0.2 h -1.6 l -1.6,0.1 -1.6,0.4 -1.5,0.6 -1.5,0.7 -1.3,0.9 -1.3,1.1 -1,1.2 -1,1.3 -0.7,1.5 -0.6,1.5 -0.4,1.6 -0.1,1.6 v 1.6 l 0.2,1.6 0.4,1.6 0.6,1.5 0.8,1.4 1,1.4 1.1,1.2 1.2,1 1.4,0.9 1.5,0.7 1.5,0.5 1.6,0.3 1.6,0.2 1.6,-0.1 1.6,-0.3 1.6,-0.4 1.5,-0.7 1.4,-0.8 1.3,-1 1.1,-1.2 1,-1.2 0.9,-1.4 0.6,-1.5 0.5,-1.6 0.3,-1.6 0.1,-1.6 -0.2,-1.6 -0.3,-1.6 -0.5,-1.6 -0.7,-1.4 -0.9,-1.4 m 438,-22.6 -1.3,-1.6 -1.5,-1.6 -1.6,-1.4 -1.7,-1.2 -1.9,-1 -1.9,-0.9 -2,-0.7 -2.1,-0.5 -2.1,-0.3 -2.1,-0.1 -2.1,0.1 -2.1,0.2 -2.1,0.5 -2,0.7 -2,0.9 -1.8,1 -1.8,1.2 -1.6,1.4 -1.5,1.5 -1.3,1.6 -1.2,1.8 -1,1.9 -0.9,1.9 -0.6,2.1 -0.5,2 -0.2,2.1 -0.1,2.2 0.1,2.1 0.4,2.1 0.5,2.1 0.7,1.9 0.9,2 1.1,1.8 1.3,1.7 1.4,1.6 1.5,1.5 1.7,1.3 1.8,1.1 1.9,1 2,0.8 2,0.6 2.1,0.4 2.1,0.2 h 2.1 l 2.2,-0.2 2,-0.4 2.1,-0.6 2,-0.7 1.9,-1 1.8,-1.1 1.7,-1.3 1.5,-1.4 1.4,-1.6 1.3,-1.7 1.1,-1.8 0.9,-2 0.8,-1.9 0.5,-2.1 0.4,-2.1 0.1,-2.1 v -2.1 l -0.2,-2.2 -0.5,-2 -0.6,-2.1 -0.8,-1.9 -1,-1.9 -1.2,-1.8 m -7.6,5.6 -1.1,-1.3 -1.2,-1.1 -1.3,-1 -1.4,-0.7 -1.5,-0.7 -1.6,-0.4 -1.6,-0.2 -1.6,-0.1 -1.6,0.2 -1.6,0.4 -1.5,0.5 -1.5,0.8 -1.3,0.9 -1.2,1.1 -1.1,1.2 -0.9,1.3 -0.8,1.5 -0.6,1.5 -0.3,1.6 -0.2,1.6 v 1.6 l 0.2,1.6 0.4,1.6 0.6,1.5 0.8,1.4 1,1.4 1.1,1.1 1.2,1.1 1.4,0.9 1.5,0.7 1.5,0.5 1.6,0.3 1.6,0.2 1.7,-0.1 1.6,-0.3 1.5,-0.4 1.5,-0.7 1.4,-0.8 1.3,-1 1.2,-1.2 1,-1.3 0.8,-1.3 0.7,-1.5 0.4,-1.6 0.3,-1.6 0.1,-1.6 -0.1,-1.6 -0.4,-1.6 -0.5,-1.6 -0.7,-1.4 -0.8,-1.4 m -4.1,1.4 -0.1,0.2 m -2.5,0 -0.1,-0.3 m -2.6,-1.6 -0.1,0.2 m -2.4,0 -0.2,-0.3 m 3,-0.7 -0.1,0.5 -0.2,0.3 m -5.3,1.7 -0.1,0.2 m -2.4,0 -0.2,-0.2 m 3,-0.8 -0.1,0.5 -0.2,0.3 m -3.2,4.5 -0.1,0.1 m -2.5,0.1 -0.2,-0.3 m 2.9,-0.2 -0.1,0.3 m 0,5.6 -0.1,0.1 m -2.5,0 -0.2,-0.4 m 2.9,0 -0.1,0.3 m 0.6,4.6 -0.1,-0.2 m 16.8,-15.5 -1.1,-1.2 -1.1,-1.1 -1.3,-0.9 -1.4,-0.8 -1.5,-0.6 -1.6,-0.3 -1.6,-0.2 h -1.6 l -1.5,0.3 -1.6,0.4 -1.4,0.6 -1.4,0.8 -1.3,1 -1.1,1.1 -1,1.3 -0.8,1.4 -0.6,1.5 -0.4,1.5 -0.3,1.6 v 1.6 l 0.2,1.6 0.4,1.5 0.6,1.5 0.7,1.4 1,1.3 1.1,1.2 1.2,1 1.4,0.8 1.4,0.7 1.5,0.5 1.6,0.2 1.6,0.1 1.6,-0.1 1.6,-0.4 1.5,-0.5 1.4,-0.7 1.3,-0.9 1.2,-1.1 1.1,-1.2 0.9,-1.3 0.7,-1.4 0.5,-1.5 0.3,-1.6 0.2,-1.6 -0.1,-1.6 -0.3,-1.6 -0.5,-1.5 -0.7,-1.4 -0.8,-1.4 m 0.6,-0.4 -1.1,-1.3 -1.2,-1.1 -1.3,-1 -1.4,-0.7 -1.5,-0.7 -1.6,-0.4 -1.6,-0.2 -1.6,-0.1 -1.6,0.2 -1.6,0.4 -1.5,0.5 -1.5,0.8 -1.3,0.9 -1.2,1.1 -1.1,1.2 -0.9,1.3 -0.8,1.5 -0.6,1.5 -0.3,1.6 -0.2,1.6 v 1.6 l 0.2,1.6 0.4,1.6 0.6,1.5 0.8,1.4 1,1.4 1.1,1.1 1.2,1.1 1.4,0.9 1.5,0.7 1.5,0.5 1.6,0.3 1.6,0.2 1.7,-0.1 1.6,-0.3 1.5,-0.4 1.5,-0.7 1.4,-0.8 1.3,-1 1.2,-1.2 1,-1.3 0.8,-1.3 0.7,-1.5 0.4,-1.6 0.3,-1.6 0.1,-1.6 -0.1,-1.6 -0.4,-1.6 -0.5,-1.6 -0.7,-1.4 -0.8,-1.4 m -5.7,4.1 -0.7,-0.9 -0.9,-0.7 -1,-0.5 -1,-0.3 -1.1,-0.2 -1.2,0.1 -1,0.2 -1.1,0.5 -0.9,0.6 -0.8,0.7 -0.7,0.9 -0.5,1.1 -0.3,1 -0.1,1.1 0.1,1.2 0.3,1 0.5,1 0.7,0.9 0.8,0.8 0.9,0.6 1.1,0.5 1,0.2 1.2,0.1 1.1,-0.2 1,-0.3 1,-0.5 0.9,-0.7 0.7,-0.9 0.6,-0.9 0.4,-1.1 0.2,-1.1 v -1.1 l -0.2,-1.1 -0.4,-1.1 -0.6,-0.9 m -6.4,13.6 0.4,0.4 0.6,0.2 0.5,0.1 0.5,-0.1 0.4,-0.3 0.3,-0.4 0.3,-0.5 v -0.6 l -0.2,-0.5 -0.3,-0.5 -0.5,-0.3 -0.5,-0.1 h -0.5 l -0.5,0.3 -0.4,0.3 -0.3,0.5 -0.1,0.5 0.1,0.6 0.2,0.4 m -5.2,-1.7 0.3,0.3 0.4,0.3 0.5,0.1 0.5,-0.1 0.5,-0.2 0.4,-0.4 0.3,-0.6 v -0.6 l -0.1,-0.5 -0.3,-0.4 -0.5,-0.4 -0.5,-0.1 h -0.5 l -0.5,0.2 -0.4,0.3 -0.3,0.5 -0.1,0.6 v 0.6 l 0.3,0.4 m -3.3,-4.5 0.4,0.4 0.5,0.2 0.5,0.1 0.6,-0.2 0.5,-0.3 0.3,-0.5 0.2,-0.5 -0.1,-0.5 -0.2,-0.5 -0.3,-0.5 -0.5,-0.2 -0.5,-0.1 -0.6,0.1 -0.5,0.2 -0.3,0.4 -0.3,0.6 v 0.6 l 0.2,0.5 0.1,0.2 m 0,-5.6 0.4,0.4 0.6,0.3 h 0.6 l 0.5,-0.2 0.4,-0.3 0.3,-0.5 0.2,-0.5 -0.1,-0.5 -0.2,-0.5 -0.4,-0.4 -0.4,-0.3 -0.6,-0.1 -0.5,0.1 -0.6,0.3 -0.3,0.5 -0.2,0.5 v 0.5 l 0.1,0.4 0.2,0.3 m 3.3,-4.5 0.4,0.4 0.5,0.3 h 0.5 l 0.6,-0.1 0.4,-0.3 0.4,-0.5 0.1,-0.5 v -0.5 l -0.2,-0.5 -0.3,-0.4 -0.5,-0.3 -0.6,-0.2 -0.5,0.1 -0.5,0.3 -0.4,0.3 -0.2,0.5 v 0.5 l 0.1,0.5 0.2,0.4 m 5.2,-1.7 0.4,0.4 0.5,0.2 0.6,0.1 0.5,-0.1 0.5,-0.3 0.3,-0.4 0.2,-0.5 v -0.6 l -0.2,-0.5 -0.3,-0.5 -0.5,-0.3 -0.6,-0.1 -0.5,0.1 -0.4,0.2 -0.4,0.3 -0.3,0.5 -0.1,0.6 0.1,0.6 0.2,0.3 m 5.3,1.7 0.4,0.4 0.5,0.3 h 0.6 l 0.5,-0.1 0.4,-0.3 0.4,-0.4 0.2,-0.5 v -0.6 l -0.2,-0.6 -0.4,-0.4 -0.4,-0.2 -0.5,-0.2 -0.5,0.1 -0.5,0.2 -0.4,0.4 -0.3,0.5 -0.1,0.6 0.1,0.5 0.2,0.3 m 3.3,4.5 0.4,0.4 0.5,0.3 h 0.5 l 0.5,-0.1 0.5,-0.3 0.4,-0.4 0.2,-0.6 -0.1,-0.6 -0.2,-0.5 -0.3,-0.3 -0.4,-0.3 -0.5,-0.2 -0.6,0.1 -0.5,0.2 -0.4,0.4 -0.3,0.5 v 0.6 l 0.1,0.5 0.2,0.3 m 0,5.6 0.4,0.4 0.5,0.2 0.5,0.1 0.6,-0.2 0.5,-0.3 0.3,-0.5 0.2,-0.5 -0.1,-0.5 -0.1,-0.4 -0.3,-0.5 -0.5,-0.3 -0.6,-0.1 -0.6,0.1 -0.5,0.2 -0.3,0.4 -0.3,0.5 v 0.6 l 0.1,0.5 0.2,0.3 m -3.3,4.5 0.5,0.4 0.5,0.2 h 0.6 l 0.5,-0.1 0.4,-0.3 0.3,-0.4 0.2,-0.5 v -0.5 l -0.2,-0.6 -0.4,-0.4 -0.5,-0.3 -0.5,-0.1 -0.6,0.1 -0.5,0.2 -0.3,0.4 -0.2,0.5 -0.1,0.6 0.2,0.5 0.1,0.3 m -424.2,1.4 -1,-1.2 -1.1,-1.1 -1.3,-0.9 -1.5,-0.8 -1.4,-0.6 -1.6,-0.3 -1.6,-0.2 h -1.6 l -1.6,0.3 -1.5,0.4 -1.5,0.6 -1.4,0.8 -1.2,1 -1.1,1.1 -1,1.3 -0.8,1.4 -0.6,1.5 -0.5,1.5 -0.2,1.6 v 1.6 l 0.2,1.6 0.4,1.5 0.5,1.5 0.8,1.4 1,1.3 1,1.2 1.3,1 1.3,0.8 1.5,0.7 1.5,0.5 1.6,0.3 h 1.6 l 1.6,-0.1 1.5,-0.3 1.6,-0.6 1.4,-0.7 1.3,-0.9 1.2,-1.1 1.1,-1.2 0.8,-1.3 0.8,-1.4 0.5,-1.5 0.3,-1.6 0.1,-1.6 -0.1,-1.6 -0.2,-1.6 -0.5,-1.5 -0.7,-1.4 -0.9,-1.4 m 0.6,-0.4 -1,-1.3 -1.2,-1.1 -1.3,-0.9 -1.4,-0.8 -1.5,-0.7 -1.6,-0.4 -1.6,-0.2 h -1.6 l -1.6,0.1 -1.6,0.4 -1.5,0.6 -1.5,0.7 -1.3,0.9 -1.3,1.1 -1,1.2 -1,1.3 -0.7,1.5 -0.6,1.5 -0.4,1.6 -0.1,1.6 v 1.6 l 0.2,1.6 0.4,1.6 0.6,1.5 0.8,1.4 1,1.4 1.1,1.2 1.2,1 1.4,0.9 1.5,0.7 1.5,0.5 1.6,0.3 1.6,0.2 1.6,-0.1 1.6,-0.3 1.6,-0.4 1.5,-0.7 1.4,-0.8 1.3,-1 1.1,-1.2 1,-1.2 0.9,-1.4 0.6,-1.5 0.5,-1.6 0.3,-1.6 0.1,-1.6 -0.2,-1.6 -0.3,-1.6 -0.5,-1.6 -0.7,-1.4 -0.9,-1.4 m -5.6,4.1 -0.7,-0.9 -0.9,-0.7 -1,-0.5 -1.1,-0.3 -1.1,-0.2 -1.1,0.1 -1.1,0.2 -1,0.5 -0.9,0.6 -0.8,0.8 -0.7,0.9 -0.5,1 -0.3,1 -0.1,1.2 0.1,1.1 0.3,1 0.5,1.1 0.7,0.9 0.8,0.7 0.9,0.6 1,0.5 1.1,0.2 1.1,0.1 1.1,-0.2 1.1,-0.3 1,-0.5 0.9,-0.7 0.7,-0.9 0.6,-0.9 0.4,-1.1 0.2,-1.1 v -1.1 l -0.2,-1.1 -0.4,-1.1 -0.6,-0.9 m -6.4,13.6 0.4,0.4 0.5,0.2 0.6,0.1 0.4,-0.1 0.5,-0.3 0.3,-0.3 0.2,-0.6 0.1,-0.6 -0.2,-0.5 -0.3,-0.5 -0.5,-0.3 -0.5,-0.1 -0.6,0.1 -0.5,0.2 -0.4,0.3 -0.2,0.5 -0.1,0.6 0.1,0.5 0.2,0.4 m -5.3,-1.7 0.4,0.3 0.4,0.3 0.5,0.1 0.5,-0.1 0.5,-0.2 0.4,-0.4 0.3,-0.6 v -0.5 l -0.1,-0.6 -0.4,-0.4 -0.4,-0.3 -0.5,-0.2 h -0.6 l -0.5,0.2 -0.4,0.3 -0.3,0.5 -0.1,0.6 0.1,0.6 0.2,0.4 m -3.2,-4.5 0.4,0.4 0.4,0.2 0.6,0.1 0.6,-0.2 0.5,-0.3 0.3,-0.5 0.1,-0.5 v -0.5 l -0.2,-0.5 -0.4,-0.4 -0.4,-0.3 -0.6,-0.1 -0.5,0.1 -0.5,0.2 -0.4,0.4 -0.2,0.6 v 0.6 l 0.1,0.5 0.2,0.2 m 0,-5.6 0.4,0.4 0.5,0.3 h 0.6 l 0.6,-0.2 0.4,-0.3 0.3,-0.5 0.1,-0.5 V -50 l -0.2,-0.5 -0.4,-0.4 -0.5,-0.3 -0.5,-0.1 -0.6,0.1 -0.5,0.3 -0.3,0.5 -0.2,0.5 v 0.5 l 0.1,0.4 0.2,0.3 m 3.2,-4.4 0.4,0.3 0.6,0.3 h 0.5 l 0.5,-0.1 0.5,-0.3 0.3,-0.4 0.2,-0.6 v -0.5 l -0.2,-0.5 -0.3,-0.4 -0.5,-0.3 -0.6,-0.2 -0.6,0.1 -0.4,0.3 -0.4,0.4 -0.2,0.4 -0.1,0.5 0.1,0.5 0.2,0.5 m 5.3,-1.8 0.4,0.4 0.5,0.2 0.5,0.1 0.6,-0.1 0.4,-0.3 0.4,-0.4 0.2,-0.5 v -0.6 l -0.2,-0.5 -0.4,-0.5 -0.5,-0.3 -0.5,-0.1 -0.5,0.1 -0.4,0.2 -0.4,0.3 -0.3,0.5 -0.1,0.6 0.1,0.6 0.2,0.3 m 5.3,1.8 0.4,0.3 0.5,0.3 h 0.5 l 0.6,-0.1 0.4,-0.3 0.4,-0.4 0.1,-0.5 0.1,-0.6 -0.3,-0.6 -0.3,-0.4 -0.5,-0.2 -0.4,-0.2 -0.5,0.1 -0.5,0.2 -0.5,0.4 -0.2,0.5 -0.1,0.6 0.1,0.5 0.2,0.4 m 3.3,4.4 0.4,0.4 0.4,0.3 h 0.6 l 0.5,-0.1 0.5,-0.3 0.3,-0.4 0.2,-0.6 V -50 l -0.2,-0.4 -0.3,-0.4 -0.4,-0.3 -0.5,-0.2 -0.6,0.1 -0.5,0.2 -0.4,0.4 -0.3,0.5 v 0.6 l 0.1,0.5 0.2,0.3 m 0,5.6 0.4,0.4 0.5,0.2 0.5,0.1 0.6,-0.2 0.5,-0.3 0.3,-0.5 0.1,-0.5 v -0.5 l -0.1,-0.4 -0.4,-0.5 -0.5,-0.3 -0.5,-0.1 -0.6,0.1 -0.5,0.2 -0.4,0.4 -0.2,0.5 v 0.6 l 0.1,0.5 0.2,0.3 m -3.3,4.5 0.4,0.4 0.6,0.2 0.6,0.1 0.5,-0.2 0.4,-0.3 0.3,-0.4 0.2,-0.5 v -0.5 l -0.2,-0.6 -0.4,-0.4 -0.5,-0.3 -0.6,-0.1 -0.5,0.1 -0.5,0.2 -0.4,0.4 -0.2,0.5 v 0.6 l 0.1,0.5 0.2,0.3 m 2.7,-0.1 v 0.1 l -0.1,0.1 m 3.3,-4.6 -0.1,0.1 m 0.3,-0.4 v 0.1 l -0.2,0.2 m 0,-5.6 -0.1,0.2 m -2.5,-0.1 -0.2,-0.4 m 2.9,0.2 -0.1,0.1 m -3.2,-4.4 -0.2,0.1 m -5.1,-2 v 0.1 l -0.1,0.2 m -5.2,1.6 -0.1,0.1 m -2.4,0 -0.3,-0.3 v -0.1 m 2.9,0.1 -0.1,0.2 m -3.3,2.4 -0.4,0.4 -0.5,0.6 -0.6,0.7 -0.6,0.8 m 449,-17.1 -0.6,-0.7 -0.6,-0.7 -0.5,-0.6 -0.3,-0.5 h -0.1 m -12.7,11.6 v 0 l 0.1,0.1 0.3,0.3 0.3,0.4 0.2,0.2 m -421.2,17.1 v -0.1 l 0.4,-0.4 0.3,-0.4 0.2,-0.1 v -0.1 m 423.5,-23.5 -0.3,-0.5 -0.2,-0.6 0.1,-0.6 0.3,-0.5 0.4,-0.5 0.6,-0.2 0.6,-0.1 0.6,0.1 0.5,0.4 0.4,0.4 0.2,0.6 v 0.6 l -0.2,0.6 -0.3,0.5 -0.5,0.3 -0.6,0.2 -0.6,-0.1 -0.6,-0.2 -0.4,-0.4 m -0.4,0.3 0.5,0.5 0.7,0.2 0.6,0.1 0.7,-0.1 0.6,-0.3 0.5,-0.5 0.3,-0.6 0.1,-0.6 v -0.7 l -0.3,-0.6 -0.4,-0.6 -0.6,-0.3 -0.6,-0.2 h -0.7 l -0.7,0.2 -0.5,0.4 -0.4,0.6 -0.2,0.6 -0.1,0.7 0.2,0.6 0.3,0.6 m 10.7,2.9 -0.2,-0.3 -0.7,-0.8 -0.5,-0.6 -0.5,-0.5 m 4.2,17.5 0.3,0.4 1.1,1.3 1.1,1.3 1.1,1.3 m 6.2,-5.2 -1.1,-1.3 -1.1,-1.3 -1.1,-1.3 -0.3,-0.4 m -2.6,9.5 2.3,2.8 m 6.2,-5.2 -2.3,-2.8 M 278,-37 v 0 h -0.1 m -0.1,-0.1 v 0 h 0.1 v 0.1 m 6.2,-5.2 v 0 l 0.1,0.1 m -0.1,-0.1 v 0 -0.1 H 284 m -455.1,-5.7 0.5,-0.4 0.6,-0.2 0.6,-0.1 0.5,0.2 0.5,0.4 0.4,0.4 0.2,0.6 -0.1,0.6 -0.2,0.6 -0.4,0.4 -0.5,0.4 -0.6,0.1 -0.6,-0.1 -0.5,-0.2 -0.4,-0.5 -0.3,-0.5 -0.1,-0.6 0.1,-0.6 0.3,-0.5 m -0.3,-0.3 -0.3,0.6 -0.2,0.6 v 0.7 l 0.3,0.6 0.4,0.6 0.5,0.4 0.7,0.2 h 0.6 l 0.7,-0.2 0.6,-0.3 0.4,-0.6 0.2,-0.6 0.1,-0.7 -0.1,-0.6 -0.3,-0.6 -0.5,-0.5 -0.6,-0.3 -0.7,-0.1 -0.7,0.1 -0.6,0.2 -0.5,0.5 m -5.3,3.5 -0.4,0.6 -0.6,0.6 -0.6,0.8 -0.3,0.3 m -8.5,10.1 -0.3,0.4 -1.1,1.3 -1.1,1.3 -1.1,1.3 m 6.2,5.2 1.1,-1.3 1.1,-1.3 1.1,-1.3 0.3,-0.4 m -9.8,-0.9 -2.3,2.8 m 6.2,5.2 2.3,-2.8 m -8.6,-2.2 v -0.1 m 0.1,-0.1 v 0 h -0.1 v 0.1 m 6.1,5.3 0.1,-0.1 m 0,0 v 0 l 0.1,-0.1 m 31.6,-5.4 -1.4,-1.2 m 0.2,3.7 1.5,-1.7 m -0.3,-0.8 0.1,0.1 0.1,0.1 0.1,0.1 v 0.1 0.1 0.1 0.1 0.1 m 0,0 1.2,-1.5 m 0,-1.1 0.1,0.1 v 0.2 l 0.1,0.1 v 0.1 0.2 l -0.1,0.1 v 0.2 l -0.1,0.1 m 0,-1.1 -2,-1.6 m 0.6,4.6 v -0.1 h 0.1 v -0.1 h 0.1 v -0.1 h 0.1 m -0.7,0.8 0.4,-0.5 m -0.5,0.5 v 0 h 0.1 m 0.7,-0.8 v 0 m 0.9,-1.1 v 0 l 0.1,-0.1 m -1,1.2 0.9,-1.1 m 399.8,-16.1 1.5,1.8 m -1.2,-2.5 -0.1,0.1 -0.1,0.1 v 0.1 l -0.1,0.1 v 0.1 0.1 0.1 m -1.1,-2.5 2,-1.7 m -0.6,3.5 1.4,-1.2 m -2.8,-0.6 -0.1,0.1 -0.1,0.1 v 0.2 l -0.1,0.1 v 0.2 l 0.1,0.1 0.1,0.2 0.1,0.1 m 0,0 1.1,1.4 m 0,0.2 v 0 0.1 h 0.1 v 0.1 h 0.1 v 0.1 m 0,0 0.5,0.5 m 0,0 v 0 m -1.8,-2.1 v 0.1 h 0.1 l 0.1,0.1 m 0,0 0.9,1.1 m 0,0 v 0 m -446.3,26.1 v 3.2 m 0,0 h 0.1 0.2 0.2 0.2 0.2 0.3 0.3 m 0,-3.2 h -0.3 -0.3 -0.2 -0.2 -0.2 -0.2 -0.1 m 43.1,3.2 h -41.6 m 41.4,-3.2 h -41.4 m 43,3.2 -0.1,-3.2 m -1.3,3.2 h 0.3 0.3 0.2 0.2 0.2 0.1 0.1 m -0.1,-3.2 v 0 h -0.1 -0.2 -0.1 -0.3 -0.2 -0.3 -0.3 m -42.9,0 v -0.1 m 44.4,0.1 -0.6,-11.5 m -43.4,10.1 -0.1,0.4 -0.1,0.3 -0.1,0.3 -0.1,0.3 m 0.3,-6 -0.3,6.1 m 23.1,-3.1 v 0.1 l -0.1,0.1 v 0.1 l -0.1,0.1 -0.1,0.1 -0.1,0.1 h -0.1 l -0.1,0.1 h -0.2 m 0,0 h -6.2 m 0,0 h -0.1 l -0.2,-0.1 -0.1,-0.1 m 0,0 -8.3,-6.9 m 15.7,5.3 v 1.1 m 0.1,-1.6 v 0.1 l -0.1,0.1 v 0.1 0.1 0.1 m 3.8,-4.8 -3.7,4.3 m -15.8,-4.8 -2,-1.7 m 38.4,-0.3 -0.1,-1.2 m -39.3,1.6 -3.9,4.6 m 4.9,-4.7 -0.1,-0.1 h -0.2 l -0.1,-0.1 h -0.1 l -0.2,0.1 h -0.1 l -0.1,0.1 -0.1,0.1 m -4.1,5 h 0.1 v -0.1 -0.1 -0.1 l 0.1,-0.1 m 446.9,-10.5 -0.1,3.2 m 0,0 v 0 h 0.1 0.1 0.1 0.2 0.2 0.2 0.3 0.2 m 0.2,-3.2 h -0.3 -0.2 -0.2 -0.2 -0.2 -0.2 -0.1 -0.1 m 43,0 h -41.5 m 41.5,3.2 h -41.7 m 43.1,0 v -3.2 m 0,0 v 0 h -0.1 -0.1 -0.2 -0.2 -0.3 -0.3 -0.2 m 0,3.2 h 0.2 0.3 0.3 0.2 0.2 0.1 0.1 m 0,-3.3 v 0 0.1 M 247.6,-44 247,-32.5 m 44.4,0 -0.3,-6.1 m 0.3,6 -0.1,-0.3 v -0.3 l -0.2,-0.3 -0.1,-0.4 m -22.6,-1.7 v 0.1 0.1 l 0.1,0.1 v 0.1 l 0.1,0.1 0.1,0.1 h 0.1 l 0.2,0.1 h 0.1 m 6.2,0 h 0.1 l 0.1,-0.1 h 0.2 l 0.1,-0.1 m -0.5,0.2 h -6.2 m 14.9,-7.1 -8.2,6.9 m -7.4,-0.5 v -1.1 m -0.2,-0.5 -3.6,-4.3 m 3.6,4.3 v 0 l 0.1,0.1 v 0.1 0.1 h 0.1 v 0.1 0.1 m 17.6,-7 -2,1.7 m -36.3,-3.2 -0.1,1.2 m 39.5,0.4 -0.1,-0.1 -0.2,-0.1 h -0.1 l -0.1,-0.1 h -0.2 l -0.1,0.1 h -0.1 l -0.2,0.1 m 4.9,4.7 -3.8,-4.6 m 4,5 v -0.1 -0.1 H 291 v -0.1 -0.1 h -0.1 m -531.5,34.6 h -0.9 M -36,-1.8 h -7.1 L -64.6,-1.9 -80.8,-2 -97,-2.1 l -16.1,-0.2 -16.1,-0.2 -14.1,-0.2 -14.1,-0.2 -14,-0.3 -10.5,-0.2 -10.4,-0.2 M 0,-2.2 v -2.4 m -210.3,-2.7 6.2,0.1 9.5,0.2 9.7,0.2 14.1,0.3 14.3,0.2 14.5,0.2 14.5,0.2 15.7,0.2 15.8,0.2 15.9,0.1 15.9,0.1 m -182.2,-2.5 h 0.2 0.8 m 6.2,5 v 0 l -0.3,-0.2 -0.2,-0.2 -0.1,-0.3 -0.1,-0.2 M 0,-1.5 v 0.1 0.4 0.3 0.2 m 0,-6.3 v 0.1 0.1 0.1 0.2 m -35.8,-0.6 h -6.6 l -21.2,-0.1 -16,-0.1 -15.9,-0.1 -15.9,-0.2 -15.9,-0.2 -14.4,-0.2 -14.4,-0.2 -14.2,-0.2 -14,-0.3 -9.7,-0.2 m -46,0.6 0.1,-0.4 0.1,-0.2 0.1,-0.3 0.2,-0.2 M 71,-9.5 v 0.1 0.3 0.4 0.5 0.7 0.7 m -10.6,0 H 10.7 m 249.9,-0.6 -9.1,0.1 -21.2,0.1 -31.8,0.2 -31.9,0.1 H 134.7 M 71,-6.8 v 0.1 0.1 0.1 0.2 m 33.5,1.2 30.3,-0.1 h 31.9 l 31.9,-0.1 31.8,-0.2 21.3,-0.1 m 42.2,-2.1 v 0 0.2 l 0.1,0.1 v 0.2 m 13.4,1.2 h 1.1 l 14.4,0.4 9.4,0.4 9.4,0.7 9.1,0.9 5.9,0.8 5.8,0.8 M 71,-2.2 v -2.4 m 189.8,2.3 -9,0.1 -21.3,0.1 -31.8,0.1 -31.9,0.2 H 135 m 237.9,5.1 -5.7,-1.1 -6,-1 -6.2,-0.8 -9.6,-1.1 -9.7,-0.8 -9.9,-0.6 -10.5,-0.4 m 72.1,9.3 -0.5,-0.1 m 1.6,0.4 h -0.1 L 388.2,7 387.6,6.9 m 0,-3.6 0.6,0.2 h 0.2 l 0.1,0.1 M 384,2.3 384.9,2.6 M 71,-1.5 v 0.1 0.4 0.3 0.2 m 223.1,-1.9 v 0.1 0.4 l -0.1,0.3 v 0.2 m -0.2,-8.1 v 0.1 0.1 0.4 0.5 0.7 m -233.4,6 H 10.7 m 0,-3.4 h 49.7 m 312.9,3.5 -0.5,-0.1 -5.2,-1 -5.6,-1 -5.7,-0.8 -5.8,-0.7 -9.1,-1 -9.3,-0.6 -9.4,-0.5 m 60.2,8 0.2,0.2 0.2,0.1 0.1,0.2 0.1,0.3 0.1,0.2 m -1.1,4.3 -0.1,0.3 -0.2,0.3 -0.3,0.3 -0.3,0.2 -0.3,0.1 m 1.4,-6.7 v 0.1 m 4.8,6.7 -0.1,0.3 -0.2,0.3 -0.3,0.3 -0.3,0.2 -0.4,0.1 m 0.1,-6.9 -0.5,-0.1 m 0.9,0.3 0.2,0.1 0.2,0.2 0.2,0.2 0.1,0.2 0.1,0.3 M 249.9,21.3 v 0 h 0.1 0.3 0.5 0.5 0.6 0.4 0.4 0.1 m -0.1,-0.1 h -0.1 -0.3 -0.4 -0.6 -0.5 -0.5 -0.3 -0.1 m 30.6,0.1 v 0 h 0.1 0.3 0.5 0.5 0.6 0.4 0.4 0.1 m -0.1,-0.1 h -0.1 -0.3 -0.4 -0.6 -0.5 -0.5 -0.3 -0.1 M -198.9,-9.9 v -2 m 41.6,2 v -2 m 405.6,-6.5 v -2 m 41.7,2 v -2 m -29.3,-40.5 0.8,-0.1 0.7,-0.3 0.6,-0.4 0.5,-0.7 0.3,-0.7 0.1,-0.8 -0.1,-0.7 -0.3,-0.8 -0.5,-0.6 -0.6,-0.5 -0.7,-0.3 -0.8,-0.1 -0.8,0.1 -0.7,0.3 -0.6,0.5 -0.5,0.6 -0.3,0.8 -0.1,0.7 0.1,0.8 0.3,0.7 0.5,0.7 0.6,0.4 0.7,0.3 0.8,0.1 m -432.9,12.6 -0.3,0.7 -0.1,0.8 0.1,0.7 0.3,0.8 0.4,0.6 0.7,0.5 0.7,0.3 0.8,0.1 0.7,-0.1 0.8,-0.3 0.6,-0.5 0.4,-0.6 0.3,-0.8 0.2,-0.7 -0.2,-0.8 -0.3,-0.7 -0.4,-0.7 -0.6,-0.4 -0.8,-0.3 -0.7,-0.1 -0.8,0.1 -0.7,0.3 -0.7,0.4 -0.4,0.7 m 15.9,-8.2 -1.2,-1.4 -1.3,-1.3 -1.4,-1.1 -1.5,-1 -1.7,-0.7 -1.7,-0.6 -1.8,-0.5 -1.8,-0.2 h -1.8 l -1.8,0.2 -1.7,0.4 -1.8,0.6 -1.6,0.7 -1.5,1 -1.5,1.1 -1.3,1.3 -1.1,1.3 -1,1.6 -0.9,1.6 -0.6,1.7 -0.5,1.7 -0.2,1.8 -0.1,1.8 0.2,1.8 0.3,1.8 0.5,1.7 0.7,1.7 0.9,1.6 1.1,1.4 1.2,1.4 1.4,1.2 1.5,1 1.6,0.9 1.6,0.7 1.8,0.5 1.8,0.3 1.8,0.1 1.8,-0.1 1.8,-0.3 1.7,-0.5 1.7,-0.6 1.6,-0.9 1.5,-1 1.4,-1.2 1.2,-1.3 1.1,-1.5 0.9,-1.5 0.7,-1.7 0.6,-1.7 0.3,-1.8 0.2,-1.8 -0.1,-1.8 -0.2,-1.8 -0.4,-1.8 -0.7,-1.7 -0.8,-1.6 -0.9,-1.5 m -1.6,1.1 -1.1,-1.3 -1.2,-1.2 -1.4,-1 -1.5,-0.9 -1.6,-0.7 -1.6,-0.5 -1.7,-0.3 -1.7,-0.1 -1.8,0.2 -1.6,0.3 -1.7,0.5 -1.6,0.7 -1.4,0.9 -1.4,1 -1.2,1.2 -1.1,1.4 -0.9,1.4 -0.7,1.6 -0.6,1.6 -0.3,1.7 -0.2,1.7 0.1,1.7 0.3,1.7 0.4,1.7 0.7,1.6 0.8,1.5 1,1.4 1.2,1.2 1.3,1.1 1.4,1 1.6,0.8 1.6,0.6 1.7,0.4 1.7,0.1 h 1.7 l 1.7,-0.2 1.7,-0.4 1.6,-0.6 1.5,-0.8 1.4,-1 1.3,-1.1 1.2,-1.3 1,-1.4 0.8,-1.5 0.6,-1.6 0.5,-1.6 0.2,-1.7 0.1,-1.8 -0.2,-1.7 -0.4,-1.7 -0.5,-1.6 -0.8,-1.5 -0.9,-1.5 m 431.9,-18.1 -1.2,-1.4 -1.3,-1.3 -1.4,-1.1 -1.5,-1 -1.6,-0.8 -1.8,-0.6 -1.7,-0.4 -1.8,-0.2 h -1.8 l -1.8,0.2 -1.8,0.4 -1.7,0.6 -1.7,0.7 -1.5,1 -1.5,1.1 -1.3,1.2 -1.1,1.4 -1,1.5 -0.8,1.7 -0.7,1.7 -0.4,1.7 -0.3,1.8 -0.1,1.8 0.2,1.8 0.3,1.8 0.5,1.7 0.8,1.7 0.9,1.6 1,1.4 1.2,1.4 1.4,1.2 1.5,1 1.6,0.9 1.7,0.7 1.7,0.5 1.8,0.3 1.8,0.1 1.8,-0.1 1.8,-0.3 1.7,-0.5 1.7,-0.6 1.6,-0.9 1.5,-1 1.4,-1.2 1.2,-1.3 1.1,-1.5 0.9,-1.5 0.7,-1.7 0.6,-1.7 0.4,-1.8 0.1,-1.8 v -1.8 l -0.3,-1.8 -0.4,-1.8 -0.6,-1.7 -0.8,-1.6 -1,-1.5 m -1.6,1.1 -1.1,-1.3 -1.2,-1.2 -1.4,-1 -1.5,-0.9 -1.5,-0.7 -1.7,-0.5 -1.7,-0.3 -1.7,-0.1 -1.7,0.1 -1.7,0.4 -1.7,0.5 -1.5,0.7 -1.5,0.9 -1.4,1 -1.2,1.2 -1.1,1.4 -0.9,1.4 -0.7,1.6 -0.5,1.6 -0.4,1.7 -0.1,1.7 v 1.7 l 0.3,1.7 0.5,1.7 0.6,1.6 0.9,1.5 1,1.4 1.1,1.2 1.3,1.1 1.5,1 1.5,0.8 1.6,0.6 1.7,0.3 1.7,0.2 h 1.7 l 1.7,-0.2 1.7,-0.4 1.6,-0.6 1.5,-0.8 1.5,-1 1.2,-1.1 1.2,-1.3 1,-1.4 0.8,-1.5 0.7,-1.6 0.4,-1.6 0.2,-1.8 0.1,-1.7 -0.2,-1.7 -0.3,-1.7 -0.6,-1.6 -0.8,-1.5 -0.9,-1.5 m 1.5,8.8 -0.4,-0.5 -0.8,-0.9 -0.7,-0.9 -0.7,-0.7 -0.5,-0.7 -0.5,-0.6 -0.4,-0.5 -0.3,-0.3 -0.1,-0.1 m -1.8,7.7 0.5,0.6 m 7.3,20 -0.6,-0.8 -1.1,-1.3 m 2.1,2.6 v 0.1 h -0.1 -0.1 -0.1 m 1.2,-0.8 3.9,-3.2 m -2.4,-4.5 1,1.2 1.1,1.3 m 1.3,0.8 v 0 0.1 0.1 0.1 m -3.7,7.2 -1.7,-2.1 m 2.8,1.8 3.9,-3.3 m -1.2,-3.1 1.8,2.1 m -5.4,5 v 0 0.1 h -0.1 -0.1 m 6,-5.2 v 0 l 0.1,0.1 H 284 v 0.1 m -461.9,-0.5 v -0.1 m -12.1,14.5 0.6,-0.7 1.1,-1.3 m -2.2,2.5 v 0 l -0.1,-0.1 -0.1,-0.1 V -28 m 8.9,1.2 -1,1.2 -1.1,1.3 m -1.9,0.6 -3.9,-3.2 m 4.8,4 v 0 h 0.1 0.1 l 0.1,0.1 m -7.9,-2.4 1.7,-2.1 m -2.1,2.4 v 0 -0.1 h -0.1 v -0.1 -0.1 m 7.8,2.5 -1.8,2.1 m -1.1,-0.3 -3.9,-3.3 m 4.8,4 v 0 l 0.1,0.1 h 0.1 0.1 m 31.5,-5.2 -0.9,1 m 2.4,-2.8 -1.2,1.4 m 0,1.4 -0.1,-0.1 m -0.4,0.6 v -0.1 m 0.8,-0.8 h -0.1 m 0.9,-1 v -0.1 m 401.3,-15.5 -0.9,-1 m -0.3,-0.4 -1.2,-1.4 m 1.2,2.8 0.1,-0.1 m 0.4,0.6 0.1,-0.1 m -1.7,-1.8 0.1,-0.1 m 0.8,1.1 v 0 m -444.8,28.9 v -2.3 m 41.5,0 0.1,2.3 m -19.3,-6 v -0.8 m -0.1,1.3 v 0.1 l -0.1,0.3 -0.1,0.2 -0.2,0.1 -0.2,0.2 -0.3,0.1 m -5.7,0.1 h 4.3 m -5.4,0 -0.2,-0.1 -0.3,-0.1 m -7.3,-6.1 5.8,4.9 m -12.9,1.7 4.8,-6.3 m 37.3,-2 0.4,8 m -1,-10.2 0.4,0.4 m -18.6,6.5 2.7,-3.2 m 16.7,-3.3 v 0 h -0.1 -0.1 m -43.2,9.5 0.2,-3.7 m 0,-0.7 v 0 l -0.1,0.1 h -0.1 m 5.2,-1.8 -4.3,5.6 m 5.3,-6.8 v 0.1 h 0.1 l 0.1,0.1 m 16.3,6 v 0 h 0.1 l 0.1,-0.1 m -1,1.4 v -0.1 -0.1 -0.1 -0.1 m -6.2,0.4 v -0.1 -0.1 -0.1 -0.1 m -0.8,0.1 v -0.1 l 0.1,-0.1 0.1,-0.1 m -8.5,-6.7 v 0 l 0.1,-0.1 0.1,-0.1 0.1,-0.1 m 16.4,5.1 h -0.1 -0.1 -0.1 -0.1 m -0.1,-0.4 h 0.1 v 0.1 h 0.1 m -18.7,-6.2 1.6,1.3 m -5.1,2.4 2.8,-3.2 m 3.3,0.7 h -0.1 -0.1 -0.1 l -0.1,0.1 m 36.4,-2.3 v 0.1 h -0.1 v 0.1 h -0.1 m 0.4,-0.2 v 0 l 0.1,0.1 h 0.1 v 0.1 m -0.4,-0.3 -0.3,-0.3 m -38.4,1.1 0.1,-0.1 h 0.2 l 0.1,-0.1 h 0.1 m 38.2,-1.1 0.1,0.5 m -38.9,0.9 v 0 m -3.8,4.6 h -0.1 m 448.1,-7.9 0.2,-2.3 m 41.5,0 v 2.3 m -4.5,-10.4 4.9,6.3 m -12.9,-1.7 5.8,-4.9 m -7.2,6 -0.2,0.1 -0.3,0.1 m -5.6,0.1 h 4.4 m -5.7,-0.1 h -0.1 l -0.2,-0.1 -0.2,-0.2 -0.2,-0.1 -0.2,-0.3 -0.1,-0.2 m -0.1,-1.4 v 0.8 m -3.2,-4.9 2.7,3.2 m -18.6,-6.5 0.4,-0.4 m -1,10.1 0.4,-8 m 0,-1.7 h -0.1 -0.1 -0.1 -0.1 m 43.2,5.4 v 0 -0.1 H 291 v -0.1 m -0.2,0.6 0.2,3.7 m -0.9,-0.6 -4.3,-5.5 m -1.2,-1 v 0 h 0.1 v -0.1 h 0.1 m -16.4,6.1 h -0.1 v -0.1 h -0.1 m 0.9,0.8 v 0 0.1 0.1 m 6.2,-0.2 v 0 0.1 0.1 m 0.5,-0.4 v 0 0.1 l 0.1,0.1 M 284,-42 v 0 h 0.1 v 0.1 h 0.1 m -16.5,5.1 h 0.1 0.1 0.1 0.2 m -0.5,0 v -0.1 h 0.1 l 0.1,-0.1 0.1,-0.1 m 19.5,-5.7 2.7,3.2 m -5.1,-2.4 1.6,-1.3 m -1.9,1.4 -0.1,-0.1 -0.1,-0.1 h -0.2 -0.1 M 248,-44.3 v 0 h -0.1 l -0.1,0.1 -0.1,0.1 m 0.4,-0.2 v 0 l 0.1,0.1 v 0.1 h 0.1 m 0.1,-0.6 -0.3,0.3 m 38,0.6 h 0.1 0.1 0.2 l 0.1,0.1 m -38.5,-0.7 v -0.5 m 38.8,1.4 v 0 h 0.1 m 3.8,4.6 v 0"
       style="fill:none;stroke:#000000;stroke-width:0.709;stroke-linecap:round;stroke-linejoin:round;stroke-miterlimit:10;stroke-dasharray:none;stroke-opacity:1"
       id="path44411" /></g><g
     id="g44413"
     transform="matrix(0.35277777,0,0,-0.35277779,186.55664,73.91555)"><path
       d="m 0,0 h -0.542 -0.46 -0.307 -0.108"
       style="fill:none;stroke:#000000;stroke-width:0.51;stroke-linecap:round;stroke-linejoin:round;stroke-miterlimit:10;stroke-dasharray:3.6, 1.8;stroke-dashoffset:0;stroke-opacity:1"
       id="path44415" /></g><g
     id="g44417"
     transform="matrix(0.35277777,0,0,-0.35277779,187.05667,73.91555)"><path
       d="m 0,0 h -0.108 -0.307 -0.46 -0.542"
       style="fill:none;stroke:#000000;stroke-width:0.51;stroke-linecap:round;stroke-linejoin:round;stroke-miterlimit:10;stroke-dasharray:3.6, 1.8;stroke-dashoffset:0;stroke-opacity:1"
       id="path44419" /></g><g
     id="g44421"
     transform="matrix(0.35277777,0,0,-0.35277779,175.76168,73.91555)"><path
       d="m 0,0 h -0.542 -0.46 -0.307 -0.108"
       style="fill:none;stroke:#000000;stroke-width:0.51;stroke-linecap:round;stroke-linejoin:round;stroke-miterlimit:10;stroke-dasharray:3.6, 1.8;stroke-dashoffset:0;stroke-opacity:1"
       id="path44423" /></g><g
     id="g44425"
     transform="matrix(0.35277777,0,0,-0.35277779,176.26167,73.91555)"><path
       d="m 0,0 h -0.108 -0.307 -0.46 -0.542"
       style="fill:none;stroke:#000000;stroke-width:0.51;stroke-linecap:round;stroke-linejoin:round;stroke-miterlimit:10;stroke-dasharray:3.6, 1.8;stroke-dashoffset:0;stroke-opacity:1"
       id="path44427" /></g><g
     id="g44429"
     transform="matrix(0.35277777,0,0,-0.35277779,186.55664,114.86674)"><path
       d="M 0,0 V 23.099"
       style="fill:none;stroke:#000000;stroke-width:0.51;stroke-linecap:round;stroke-linejoin:round;stroke-miterlimit:10;stroke-dasharray:3.6, 1.8;stroke-dashoffset:1.05;stroke-opacity:1"
       id="path44431" /></g><g
     id="g44433"
     transform="matrix(0.35277777,0,0,-0.35277779,186.55664,101.10918)"><path
       d="M 0,0 V 23.364"
       style="fill:none;stroke:#000000;stroke-width:0.51;stroke-linecap:round;stroke-linejoin:round;stroke-miterlimit:10;stroke-dasharray:3.6, 1.8;stroke-dashoffset:0.918;stroke-opacity:1"
       id="path44435" /></g><g
     id="g44437"
     transform="matrix(0.35277777,0,0,-0.35277779,186.55664,91.73898)"><path
       d="M 0,0 V 8.504"
       style="fill:none;stroke:#000000;stroke-width:0.51;stroke-linecap:round;stroke-linejoin:round;stroke-miterlimit:10;stroke-dasharray:3.6, 1.8;stroke-dashoffset:0.248;stroke-opacity:1"
       id="path44439" /></g><g
     id="g44441"
     transform="matrix(0.35277777,0,0,-0.35277779,186.55664,87.73898)"><path
       d="M 0,0 V 8.504"
       style="fill:none;stroke:#000000;stroke-width:0.51;stroke-linecap:round;stroke-linejoin:round;stroke-miterlimit:10;stroke-dasharray:3.6, 1.8;stroke-dashoffset:0.248;stroke-opacity:1"
       id="path44443" /></g><g
     id="g44445"
     transform="matrix(0.35277777,0,0,-0.35277779,186.55664,81.67077)"><path
       d="M 0,0 V 6.61"
       style="fill:none;stroke:#000000;stroke-width:0.51;stroke-linecap:round;stroke-linejoin:round;stroke-miterlimit:10;stroke-dasharray:3.6, 1.8;stroke-dashoffset:1.195;stroke-opacity:1"
       id="path44447" /></g><g
     id="g44449"
     transform="matrix(0.35277777,0,0,-0.35277779,175.76168,79.33898)"><path
       d="M 0,0 V -6.357"
       style="fill:none;stroke:#000000;stroke-width:0.51;stroke-linecap:round;stroke-linejoin:round;stroke-miterlimit:10;stroke-dasharray:3.6, 1.8;stroke-dashoffset:1.322;stroke-opacity:1"
       id="path44451" /></g><g
     id="g44453"
     transform="matrix(0.35277777,0,0,-0.35277779,175.76168,84.73899)"><path
       d="M 0,0 V -8.504"
       style="fill:none;stroke:#000000;stroke-width:0.51;stroke-linecap:round;stroke-linejoin:round;stroke-miterlimit:10;stroke-dasharray:3.6, 1.8;stroke-dashoffset:0.248;stroke-opacity:1"
       id="path44455" /></g><g
     id="g44457"
     transform="matrix(0.35277777,0,0,-0.35277779,175.76168,88.73899)"><path
       d="M 0,0 V -8.504"
       style="fill:none;stroke:#000000;stroke-width:0.51;stroke-linecap:round;stroke-linejoin:round;stroke-miterlimit:10;stroke-dasharray:3.6, 1.8;stroke-dashoffset:0.248;stroke-opacity:1"
       id="path44459" /></g><g
     id="g44461"
     transform="matrix(0.35277777,0,0,-0.35277779,175.76168,92.86674)"><path
       d="M 0,0 V -10.659"
       style="fill:none;stroke:#000000;stroke-width:0.51;stroke-linecap:round;stroke-linejoin:round;stroke-miterlimit:10;stroke-dasharray:3.6, 1.8;stroke-dashoffset:1.87;stroke-opacity:1"
       id="path44463" /></g><g
     id="g44465"
     transform="matrix(0.35277777,0,0,-0.35277779,175.76168,102.43711)"><path
       d="M 0,0 V -2.811"
       style="fill:none;stroke:#000000;stroke-width:0.51;stroke-linecap:round;stroke-linejoin:round;stroke-miterlimit:10;stroke-dasharray:3.6, 1.8;stroke-dashoffset:1.406;stroke-opacity:1"
       id="path44467" /></g><g
     id="g44469"
     transform="matrix(0.35277777,0,0,-0.35277779,175.76168,104.39555)"><path
       d="M 0,0 V -2.806"
       style="fill:none;stroke:#000000;stroke-width:0.51;stroke-linecap:round;stroke-linejoin:round;stroke-miterlimit:10;stroke-dasharray:3.6, 1.8;stroke-dashoffset:1.403;stroke-opacity:1"
       id="path44471" /></g><g
     id="g44473"
     transform="matrix(0.35277777,0,0,-0.35277779,175.76168,111.19997)"><path
       d="M 0,0 V -10.394"
       style="fill:none;stroke:#000000;stroke-width:0.51;stroke-linecap:round;stroke-linejoin:round;stroke-miterlimit:10;stroke-dasharray:3.6, 1.8;stroke-dashoffset:2.003;stroke-opacity:1"
       id="path44475" /></g><g
     id="g44477"
     transform="matrix(0.35277777,0,0,-0.35277779,35.226448,11.343393)"><path
       d="m 0,0 v 31.8 m -45.3,0 V 0 m 0,-88.4 v -31.8 m 45.3,0 v 31.8 M 430.4,0 v 31.8 m -45.4,0 V 0 m 0,-88.4 v -31.8 m 45.4,0 v 31.8 m -5.6,40.6 h 0.2 l 0.6,0.2 0.5,0.3 0.5,0.4 0.3,0.6 0.3,0.7 0.2,0.8 v 0.6 m 0,0 v 0.5 l -0.2,0.8 -0.2,0.7 -0.4,0.6 -0.5,0.5 -0.5,0.3 -0.5,0.2 h -0.4 m -464.5,0 H -40 l -0.6,-0.2 -0.5,-0.3 -0.4,-0.5 -0.4,-0.5 -0.3,-0.7 -0.1,-0.8 -0.1,-0.6 m 0,0 0.1,-0.5 0.1,-0.8 0.3,-0.7 0.3,-0.6 0.5,-0.5 0.5,-0.3 0.6,-0.2 h 0.3 m 4.9,11.8 h -0.3 l -0.9,-0.1 -0.9,-0.3 -0.8,-0.5 -0.8,-0.6 -0.7,-0.7 -0.6,-0.9 -0.5,-1 -0.1,-0.5 m -0.1,-7.2 v -0.1 l 0.5,-1 0.6,-1 0.8,-0.9 0.7,-0.6 0.8,-0.5 0.9,-0.4 1,-0.1 h 0.4 m 454.7,0 h 0.2 l 1,0.1 0.9,0.3 0.8,0.5 0.7,0.6 0.7,0.7 0.6,0.9 0.5,1 0.2,0.5 m 0,7.2 v 0 l -0.5,1.1 -0.6,1 -0.7,0.9 -0.8,0.6 -0.8,0.5 -0.9,0.3 -0.9,0.2 h -0.5 m -436.3,-10.3 0.1,0.1 0.1,1.1 0.1,1.1 -0.1,1.1 -0.2,0.8 m 418,0 -0.1,-0.1 -0.1,-1.1 -0.1,-1.1 0.1,-1.1 0.2,-0.8 M -32,-51.2 h 1.7 m 0,14 H -32 m 449,0 h -1.7 m 0,-14 H 417 M 401.5,0 v -88.4 m 13,37.1 -0.3,0.4 -0.6,0.8 -0.5,0.9 -0.4,1 -0.4,1.1 -0.2,1.2 -0.1,1.2 v 1.2 l 0.2,1.2 0.2,1.2 0.3,1.1 0.4,1 0.6,0.9 0.5,0.7 0.3,0.3 m 0.1,-51.3 v 36.8 m 0,0 v 0.1 0.1 h -0.1 v 0.1 m 0.1,14.5 V 0 m -0.1,-37.1 v 0 0.1 h 0.1 v 0.1 0.1 m 0,-27.6 0.3,1.1 0.6,1.2 0.6,1.1 0.7,1 0.7,0.8 0.8,0.7 0.9,0.5 0.2,0.1 m 0,27.4 -0.5,0.2 -0.8,0.6 -0.8,0.7 -0.8,0.9 -0.6,1.1 -0.6,1.1 -0.5,1.3 -0.2,0.6 m 2.4,-28.5 h -0.5 -0.7 l -0.8,0.3 -0.4,0.2 m 0,15.6 0.7,0.3 0.7,0.2 m 3.4,-22 1,0.5 1.8,1.1 1.8,1.2 1.7,1.3 1.7,1.6 1.3,1.3 m 0,13.4 -0.9,0.9 -1.6,1.5 -1.7,1.5 -1.8,1.2 -1.8,1.1 -1.5,0.8 m 9.3,-20.4 2.3,2.6 m 0,8.2 -2.3,2.6 m 2.5,-3.1 v 0.1 l -0.1,0.2 v 0.1 l -0.1,0.1 m 0,-8.2 0.1,0.1 v 0.1 l 0.1,0.2 v 0.1 m 0,0 v 0.6 m 0,6 v 0.6 M -16.5,-88.4 V 0 m -12.9,-37.1 0.3,-0.4 0.6,-0.8 0.5,-0.9 0.4,-1 0.3,-1.1 0.2,-1.2 0.1,-1.2 v -1.2 l -0.1,-1.2 -0.3,-1.2 -0.3,-1.1 -0.4,-1 -0.5,-0.9 -0.6,-0.7 -0.2,-0.3 m -0.2,-0.3 v -36.8 m 0.2,37.1 h -0.1 v -0.1 h -0.1 v -0.1 -0.1 m 0,51.6 v -36.8 m 0,0 v -0.1 -0.1 h 0.1 v -0.1 h 0.1 m -5,-20.8 0.5,-0.2 0.8,-0.6 0.8,-0.7 0.8,-0.9 0.7,-1.1 0.5,-1.1 0.5,-1.3 0.2,-0.6 m 0,40.4 -0.3,-1.1 -0.5,-1.2 -0.7,-1.1 -0.6,-1 -0.8,-0.8 -0.8,-0.7 -0.8,-0.5 -0.3,-0.1 m 2.5,-5.5 0.4,0.1 0.8,-0.1 0.7,-0.2 0.4,-0.3 m 0,-15.5 -0.7,-0.3 -0.6,-0.2 m -12.7,1.6 0.8,-0.9 1.7,-1.5 1.7,-1.5 1.7,-1.2 1.9,-1.1 1.4,-0.8 m 0,27.4 -0.9,-0.5 -1.9,-1.1 -1.7,-1.2 -1.8,-1.4 -1.6,-1.5 -1.3,-1.3 m -2.4,-10.8 2.4,-2.6 m 0,13.4 -2.4,-2.6 m -0.2,-7.7 v -0.1 l 0.1,-0.2 v -0.1 l 0.1,-0.1 m 0,8.2 -0.1,-0.1 v -0.1 l -0.1,-0.2 v -0.1 m 0,0 v -0.6 m 0,-6 v -0.6 m 437.7,3.6 1.4,-3.7 m 0,7.4 -1.4,-3.7 m -399.4,-3.7 1.4,3.7 m 0,0 -1.4,3.7 m -1.8,0.2 v 0.3 l 0.1,0.1 -0.1,-0.1 v -0.1 m 0.1,-8.4 v 0 l -0.1,0.2 v 0.4 0.3 0.3 m 0,0 v 6.2 m 0.5,-7.5 -0.5,0.3 m 0,8.2 0.5,0.3 m 403.9,-8.3 v -0.3 -0.1 m 0,7.4 v -6.2 m 0,7.4 v 0 -0.1 -0.1 -0.4 -0.3 -0.3 m 0,-7.2 -0.5,-0.3 m 0,8.8 0.5,-0.3 m -247.7,-75 -21.5,0.2 -21.6,0.7 -21.5,1.2 -16.2,1.3 -16.2,1.6 -16.1,2.1 -16.1,2.4 -14.1,2.6 -3.7,0.8 m -45.3,12.4 -10.2,4 -10,4.5 -7.4,3.8 -7.1,4.3 -4.6,3.3 -4.4,3.6 -4,4 m 0,36.2 3.7,3.8 4.1,3.4 4.4,3.1 7,4.4 7.4,3.9 6.9,3.2 7.1,3 7.1,2.6 M 0,13.7 l 4.9,1.1 14.6,2.6 15.7,2.4 15.8,2 15.9,1.6 15.9,1.2 21.4,1.2 21.4,0.6 21.4,0.3 m 294.1,-11 14.4,-2.3 14.4,-2.7 7.1,-1.5 7,-1.8 7,-1.9 6.8,-2.2 5.9,-2.2 5.7,-2.4 5.6,-2.8 5.4,-3.3 2.8,-2.1 2.7,-2.4 2.5,-2.6 2.2,-3 m 0,-53.5 -2.3,-3 -2.6,-2.7 -3,-2.6 -3.2,-2.3 -4,-2.4 -4.2,-2.2 -4.3,-2 -4.4,-1.8 -7.3,-2.5 -7.4,-2.3 -7.5,-1.9 -7.6,-1.8 -7.9,-1.6 -7.9,-1.5 -15.9,-2.5 M 218,26.7 l 31.8,-0.2 32,-0.4 31.9,-0.8 31.9,-1.3 31.8,-1.9 7.6,-0.6 m 45.4,-4.5 10.7,-1.3 m 0,-119.8 -10.7,-1.4 m -45.4,-4.5 -7.5,-0.5 -31.8,-1.9 -31.9,-1.3 -31.8,-0.8 -31.9,-0.4 -32.1,-0.2 m -311,52.8 -2.2,2.6 -1.9,2.9 -1.2,2.4 -0.8,2.5 -0.4,2.9 m 0,0 v 9.6 m 0,0 v 0 l 0.3,2.6 0.8,2.4 1.7,3.4 2.2,3.2 1.5,1.7 m 311,-89 h -71 m 0,141.8 h 71 m 316.6,-88.3 -0.6,-2.4 -0.9,-2.4 -1.1,-2.3 -1.4,-2.3 m 0,53.5 1.3,-2.1 1.1,-2.3 0.9,-2.4 0.7,-2.5 m 0.9,-25.1 -0.1,-3.4 -0.2,-3.1 -0.6,-3.2 m 0,34.8 0.6,-3.4 0.2,-3.2 0.1,-3.2 m 0,0 v -15.3 m -581.3,18.3 0.5,-0.5 0.5,-0.4 0.7,-0.1 h 0.7 l 0.6,0.2 0.5,0.5 0.4,0.5 0.2,0.7 -0.1,0.6 -0.2,0.7 -0.4,0.5 -0.6,0.4 -0.7,0.1 h -0.6 l -0.7,-0.2 -0.5,-0.5 -0.4,-0.5 -0.1,-0.7 V -33 l 0.2,-0.6 m 4.5,1.1 -0.3,-0.6 -0.2,-0.4 -0.3,-0.4 -0.2,-0.4 -0.3,-0.5 m 0,0 h -0.7 -0.4 -0.5 -0.5 -0.5 m -1.3,2.3 0.2,-0.4 0.2,-0.4 0.2,-0.3 0.3,-0.4 0.2,-0.5 0.2,-0.3 m -1.3,2.3 0.4,0.6 0.2,0.4 0.2,0.4 0.2,0.4 0.3,0.5 m 0,0 h 0.7 0.5 0.4 0.5 0.5 m 0,0 0.2,-0.4 0.3,-0.4 0.2,-0.4 0.2,-0.3 0.2,-0.5 0.2,-0.3 m 440.9,2.3 0.4,-0.7 0.2,-0.3 0.2,-0.4 0.3,-0.4 0.2,-0.5 m 0,0 -0.3,-0.6 -0.2,-0.4 -0.3,-0.4 -0.2,-0.4 -0.3,-0.5 m -2.6,0 h 0.4 0.5 0.4 0.4 0.6 0.3 m -2.6,0 -0.4,0.7 -0.2,0.3 -0.2,0.4 -0.2,0.4 -0.3,0.5 m 0,0 0.4,0.6 0.2,0.4 0.2,0.4 0.2,0.4 0.3,0.5 m 0,0 h 0.4 0.5 0.4 0.4 0.6 0.3 m -1.3,-4.5 0.7,0.1 0.6,0.4 0.5,0.4 0.3,0.6 0.1,0.7 -0.1,0.7 -0.3,0.6 -0.5,0.4 -0.6,0.3 -0.7,0.1 -0.6,-0.1 -0.6,-0.3 -0.5,-0.4 -0.3,-0.6 -0.1,-0.7 0.1,-0.7 0.3,-0.6 0.5,-0.4 0.6,-0.4 0.6,-0.1 m -409,-21.2 -0.3,-0.6 -0.2,-0.4 -0.3,-0.4 -0.2,-0.4 -0.3,-0.5 m 0,0 h -0.7 -0.4 -0.5 -0.5 -0.5 m -1.3,2.3 0.2,-0.4 0.2,-0.4 0.2,-0.3 0.3,-0.4 0.2,-0.5 0.2,-0.3 m -1.3,2.3 0.4,0.6 0.2,0.4 0.2,0.4 0.2,0.4 0.3,0.5 m 0,0 h 0.7 0.5 0.4 0.5 0.5 m 0,0 0.2,-0.4 0.3,-0.4 0.2,-0.4 0.2,-0.3 0.2,-0.5 0.2,-0.3 m -4.5,-1.1 0.5,-0.5 0.5,-0.4 0.7,-0.1 h 0.7 l 0.6,0.2 0.5,0.5 0.4,0.5 0.2,0.7 -0.1,0.6 -0.2,0.7 -0.4,0.5 -0.6,0.4 -0.7,0.1 h -0.6 l -0.7,-0.2 -0.5,-0.5 -0.4,-0.5 -0.1,-0.7 v -0.7 l 0.2,-0.6 m 445.4,3.4 0.4,-0.7 0.2,-0.3 0.2,-0.4 0.3,-0.4 0.2,-0.5 m 0,0 -0.3,-0.6 -0.2,-0.4 -0.3,-0.4 -0.2,-0.4 -0.3,-0.5 m -2.6,0 h 0.4 0.5 0.4 0.4 0.6 0.3 m -2.6,0 -0.4,0.7 -0.2,0.3 -0.2,0.4 -0.2,0.4 -0.3,0.5 m 0,0 0.4,0.6 0.2,0.4 0.2,0.4 0.2,0.4 0.3,0.5 m 0,0 h 0.4 0.5 0.4 0.4 0.6 0.3 m -1.3,-4.5 0.7,0.1 0.6,0.4 0.5,0.4 0.3,0.6 0.1,0.7 -0.1,0.7 -0.3,0.6 -0.5,0.4 -0.6,0.3 -0.7,0.1 -0.6,-0.1 -0.6,-0.3 -0.5,-0.4 -0.3,-0.6 -0.1,-0.7 0.1,-0.7 0.3,-0.6 0.5,-0.4 0.6,-0.4 0.6,-0.1 m -28,2.2 -0.3,-0.6 -0.2,-0.4 -0.3,-0.4 -0.2,-0.4 -0.3,-0.5 m 0,0 h -0.7 -0.4 -0.5 -0.4 -0.6 m -1.3,2.3 0.2,-0.4 0.2,-0.4 0.3,-0.3 0.2,-0.4 0.2,-0.5 0.2,-0.3 m -1.3,2.3 0.4,0.6 0.2,0.4 0.2,0.4 0.2,0.4 0.3,0.5 m 0,0 h 0.7 0.5 0.4 0.5 0.5 m 0,0 0.2,-0.4 0.3,-0.4 0.2,-0.4 0.2,-0.3 0.3,-0.5 0.1,-0.3 m -4.4,-1.1 0.4,-0.5 0.5,-0.4 0.7,-0.1 h 0.7 l 0.6,0.2 0.5,0.5 0.4,0.5 0.2,0.7 -0.1,0.6 -0.2,0.7 -0.4,0.5 -0.6,0.4 -0.7,0.1 h -0.6 l -0.7,-0.2 -0.5,-0.5 -0.4,-0.5 -0.1,-0.7 v -0.7 l 0.3,-0.6 m -407.2,24.5 -0.3,-0.6 -0.2,-0.4 -0.3,-0.4 -0.2,-0.4 -0.3,-0.5 m 0,0 h -0.7 -0.4 -0.5 -0.5 -0.5 m -1.3,2.3 0.2,-0.4 0.2,-0.4 0.2,-0.3 0.3,-0.4 0.2,-0.5 0.2,-0.3 m -1.3,2.3 0.4,0.6 0.2,0.4 0.2,0.4 0.2,0.4 0.3,0.5 m 0,0 h 0.7 0.5 0.4 0.5 0.5 m 0,0 0.2,-0.4 0.3,-0.4 0.2,-0.4 0.2,-0.3 0.2,-0.5 0.2,-0.3 m -4.5,-1.1 0.5,-0.5 0.5,-0.4 0.7,-0.1 h 0.7 l 0.6,0.2 0.5,0.5 0.4,0.5 0.2,0.7 -0.1,0.6 -0.2,0.7 -0.4,0.5 -0.6,0.4 -0.7,0.1 h -0.6 l -0.7,-0.2 -0.5,-0.5 -0.4,-0.5 -0.1,-0.7 V -33 l 0.2,-0.6 m -26.1,-22.3 -0.3,-0.6 -0.2,-0.4 -0.3,-0.4 -0.2,-0.4 -0.3,-0.5 m 0,0 h -0.7 -0.4 -0.5 -0.5 -0.5 m -1.3,2.3 0.2,-0.4 0.2,-0.4 0.2,-0.3 0.3,-0.4 0.2,-0.5 0.2,-0.3 m -1.3,2.3 0.4,0.6 0.2,0.4 0.2,0.4 0.2,0.4 0.3,0.5 m 0,0 h 0.7 0.5 0.4 0.5 0.5 m 0,0 0.2,-0.4 0.3,-0.4 0.2,-0.4 0.2,-0.3 0.2,-0.5 0.2,-0.3 m -4.5,-1.1 0.5,-0.5 0.5,-0.4 0.7,-0.1 h 0.7 l 0.6,0.2 0.5,0.5 0.4,0.5 0.2,0.7 -0.1,0.6 -0.2,0.7 -0.4,0.5 -0.6,0.4 -0.7,0.1 h -0.6 l -0.7,-0.2 -0.5,-0.5 -0.4,-0.5 -0.1,-0.7 v -0.7 l 0.2,-0.6 m 474.7,22.3 0.7,0.1 0.6,0.4 0.5,0.4 0.3,0.6 0.1,0.7 -0.1,0.7 -0.3,0.6 -0.5,0.4 -0.6,0.3 -0.7,0.1 -0.6,-0.1 -0.6,-0.3 -0.5,-0.4 -0.3,-0.6 -0.1,-0.7 0.1,-0.7 0.3,-0.6 0.5,-0.4 0.6,-0.4 0.6,-0.1 m 1.3,4.5 0.4,-0.7 0.2,-0.3 0.2,-0.4 0.3,-0.4 0.2,-0.5 m 0,0 -0.3,-0.6 -0.2,-0.4 -0.3,-0.4 -0.2,-0.4 -0.3,-0.5 m -2.6,0 h 0.4 0.5 0.4 0.4 0.6 0.3 m -2.6,0 -0.4,0.7 -0.2,0.3 -0.2,0.4 -0.2,0.4 -0.3,0.5 m 0,0 0.4,0.6 0.2,0.4 0.2,0.4 0.2,0.4 0.3,0.5 m 0,0 h 0.4 0.5 0.4 0.4 0.6 0.3 m -32.3,-3.4 -0.4,0.3 -0.3,0.3 v 0.5 0.4 l 0.3,0.4 0.4,0.3 0.4,0.1 0.5,-0.1 0.3,-0.3 0.3,-0.4 0.1,-0.4 -0.1,-0.5 -0.3,-0.3 -0.3,-0.3 -0.5,-0.1 -0.4,0.1 m -0.1,-0.2 -0.5,0.3 -0.3,0.5 -0.1,0.5 0.1,0.5 0.3,0.5 0.5,0.3 0.5,0.1 0.6,-0.1 0.4,-0.3 0.3,-0.5 0.1,-0.5 -0.1,-0.5 -0.3,-0.5 -0.4,-0.3 -0.6,-0.1 -0.5,0.1 M -44.3,-57 l -0.4,0.3 -0.3,0.3 -0.1,0.5 0.1,0.4 0.3,0.4 0.4,0.3 0.4,0.1 0.5,-0.1 0.3,-0.3 0.3,-0.4 0.1,-0.4 -0.1,-0.5 -0.3,-0.3 -0.3,-0.3 -0.5,-0.1 -0.4,0.1 m -0.1,-0.2 -0.5,0.3 -0.3,0.5 -0.1,0.5 0.1,0.5 0.3,0.5 0.5,0.3 0.5,0.1 0.6,-0.1 0.4,-0.3 0.3,-0.5 0.1,-0.5 -0.1,-0.5 -0.3,-0.5 -0.4,-0.3 -0.6,-0.1 -0.5,0.1 m 472.9,23.6 -0.4,0.3 -0.3,0.3 v 0.5 0.4 l 0.3,0.4 0.4,0.3 0.4,0.1 0.5,-0.1 0.3,-0.3 0.3,-0.4 0.1,-0.4 -0.1,-0.5 -0.3,-0.3 -0.3,-0.3 -0.5,-0.1 -0.4,0.1 m -0.1,-0.2 -0.5,0.3 -0.3,0.5 -0.1,0.5 0.1,0.5 0.3,0.5 0.5,0.3 0.5,0.1 0.6,-0.1 0.4,-0.3 0.3,-0.5 0.1,-0.5 -0.1,-0.5 -0.3,-0.5 -0.4,-0.3 -0.6,-0.1 -0.5,0.1 m 0.1,-23.2 -0.4,0.3 -0.3,0.3 v 0.5 0.4 l 0.3,0.4 0.4,0.3 0.4,0.1 0.5,-0.1 0.3,-0.3 0.3,-0.4 0.1,-0.4 -0.1,-0.5 -0.3,-0.3 -0.3,-0.3 -0.5,-0.1 -0.4,0.1 m -0.1,-0.2 -0.5,0.3 -0.3,0.5 -0.1,0.5 0.1,0.5 0.3,0.5 0.5,0.3 0.5,0.1 0.6,-0.1 0.4,-0.3 0.3,-0.5 0.1,-0.5 -0.1,-0.5 -0.3,-0.5 -0.4,-0.3 -0.6,-0.1 -0.5,0.1 m -472.7,23.6 -0.4,0.3 -0.3,0.3 -0.1,0.5 0.1,0.4 0.3,0.4 0.4,0.3 0.4,0.1 0.5,-0.1 0.3,-0.3 0.3,-0.4 0.1,-0.4 -0.1,-0.5 -0.3,-0.3 -0.3,-0.3 -0.5,-0.1 -0.4,0.1 m -0.1,-0.2 -0.5,0.3 -0.3,0.5 -0.1,0.5 0.1,0.5 0.3,0.5 0.5,0.3 0.5,0.1 0.6,-0.1 0.4,-0.3 0.3,-0.5 0.1,-0.5 -0.1,-0.5 -0.3,-0.5 -0.4,-0.3 -0.6,-0.1 -0.5,0.1 m 30.7,0.2 -0.4,0.3 -0.3,0.3 -0.1,0.5 0.1,0.4 0.3,0.4 0.4,0.3 0.4,0.1 0.5,-0.1 0.3,-0.3 0.3,-0.4 0.1,-0.4 -0.1,-0.5 -0.3,-0.3 -0.3,-0.3 -0.5,-0.1 -0.4,0.1 m -0.1,-0.2 -0.5,0.3 -0.3,0.5 -0.1,0.5 0.1,0.5 0.3,0.5 0.5,0.3 0.5,0.1 0.6,-0.1 0.4,-0.3 0.3,-0.5 0.1,-0.5 -0.1,-0.5 -0.3,-0.5 -0.4,-0.3 -0.6,-0.1 -0.5,0.1 m 411.7,-23.2 -0.4,0.3 -0.3,0.3 v 0.5 0.4 l 0.3,0.4 0.4,0.3 0.4,0.1 0.5,-0.1 0.3,-0.3 0.3,-0.4 0.1,-0.4 -0.1,-0.5 -0.3,-0.3 -0.3,-0.3 -0.5,-0.1 -0.4,0.1 m -0.1,-0.2 -0.5,0.3 -0.3,0.5 -0.1,0.5 0.1,0.5 0.3,0.5 0.5,0.3 0.5,0.1 0.6,-0.1 0.4,-0.3 0.3,-0.5 0.1,-0.5 -0.1,-0.5 -0.3,-0.5 -0.4,-0.3 -0.6,-0.1 -0.5,0.1 m -411.5,0.2 -0.4,0.3 -0.3,0.3 -0.1,0.5 0.1,0.4 0.3,0.4 0.4,0.3 0.4,0.1 0.5,-0.1 0.3,-0.3 0.3,-0.4 0.1,-0.4 -0.1,-0.5 -0.3,-0.3 -0.3,-0.3 -0.5,-0.1 -0.4,0.1 m -0.1,-0.2 -0.5,0.3 -0.3,0.5 -0.1,0.5 0.1,0.5 0.3,0.5 0.5,0.3 0.5,0.1 0.6,-0.1 0.4,-0.3 0.3,-0.5 0.1,-0.5 -0.1,-0.5 -0.3,-0.5 -0.4,-0.3 -0.6,-0.1 -0.5,0.1 m 407.7,18 v 9.4 m 0,0 v 0.2 l 0.1,0.3 0.1,0.2 0.1,0.2 0.2,0.2 0.2,0.1 0.2,0.1 0.3,0.1 h 0.2 m 0,-31.6 H 395 l -0.2,0.1 -0.3,0.1 -0.2,0.2 -0.2,0.2 -0.1,0.2 -0.1,0.3 v 0.3 m 0,0 v 9.4 m 0,0 v 0 m 0,0 v 1.1 m 0,7.8 v 1.1 m -402.8,-10 v -9.4 m 0,0 v -0.3 -0.2 l -0.1,-0.2 -0.2,-0.2 -0.2,-0.2 -0.2,-0.2 -0.2,-0.1 h -0.2 -0.3 m 0,31.6 h 0.3 l 0.3,-0.1 0.2,-0.1 0.2,-0.2 0.2,-0.2 0.1,-0.3 0.1,-0.2 v -0.3 m 0,0 v -9.4 m 0,0 v 0 m 0,0 v -1.1 m 0,-7.8 v -1.1 m 4.6,81 h -1.3 -1.5 -1.6 -1.8 -1.8 -1.9 -2.1 -2 -2.1 -2.1 -2.2 -2.1 -2 -2.1 -1.9 -1.9 -1.7 -1.6 -1.5 -1.4 -1.2 -1 -0.8 -0.6 -0.5 -0.3 m 45.3,0 v 0 h -0.3 -0.4 -0.6 -0.8 -1 -1.2 M -4.3,0 h -1.3 -1.5 -1.6 -1.8 -1.8 -1.9 -2.1 -2 -2.1 -2.1 -2.2 -2.1 -2 -2.1 -1.9 -1.9 -1.7 -1.6 -1.5 -1.4 -1.2 -1 -0.8 -0.6 -0.5 -0.3 M 0,0 v 0 h -0.3 -0.4 -0.6 -0.8 -1 -1.2 M -41,-88.4 h 1.3 1.5 1.6 1.8 1.8 1.9 2.1 2 2.1 2.1 2.2 2.1 2 2.1 1.9 1.9 1.7 1.6 1.5 1.4 1.2 1 0.8 0.7 0.4 0.3 m -45.3,0 v 0 h 0.3 0.4 0.6 0.8 1 1.2 m 0,-31.8 h 1.3 1.5 1.6 1.8 1.8 1.9 2.1 2 2.1 2.1 2.2 2.1 2 2.1 1.9 1.9 1.7 1.6 1.5 1.4 1.2 1 0.8 0.7 0.4 0.3 m -45.3,0 v 0 h 0.3 0.4 0.6 0.8 1 1.2 m 467,152 h -1.3 -1.5 -1.6 -1.7 -1.9 -1.9 -2 -2.1 -2.1 -2.1 -2.1 -2.1 -2.1 -2 -2 -1.8 -1.8 -1.6 -1.5 -1.3 -1.2 -1 -0.9 -0.6 -0.5 -0.2 -0.1 m 45.4,0 h -0.1 -0.2 -0.5 -0.6 -0.8 -1 -1.2 M 426,0 h -1.3 -1.5 -1.6 -1.7 -1.9 -1.9 -2 -2.1 -2.1 -2.1 -2.1 -2.1 -2.1 -2 -2 -1.8 -1.8 -1.6 -1.5 -1.3 -1.2 -1 -0.9 -0.6 -0.5 -0.2 -0.1 m 45.4,0 h -0.1 -0.2 -0.5 -0.6 -0.8 -1 -1.2 m -36.7,-120.2 h 1.4 1.4 1.7 1.7 1.8 2 2 2 2.1 2.2 2.1 2.1 2.1 2 1.9 1.9 1.7 1.7 1.5 1.3 1.2 1 0.8 0.7 0.4 0.3 0.1 m -45.4,0 h 0.1 0.2 0.4 0.7 0.8 1 1.1 m 0,31.8 h 1.4 1.4 1.7 1.7 1.8 2 2 2 2.1 2.2 2.1 2.1 2.1 2 1.9 1.9 1.7 1.7 1.5 1.3 1.2 1 0.8 0.7 0.4 0.3 0.1 m -45.4,0 h 0.1 0.2 0.4 0.7 0.8 1 1.1 m 35.5,40.6 h -0.3 l -0.3,0.1 -0.3,0.1 -0.2,0.3 -0.3,0.2 -0.2,0.3 -0.2,0.4 -0.2,0.4 m 0,0 -0.1,0.4 -0.1,0.4 -0.1,0.5 v 0.4 0.5 0.5 l 0.1,0.4 0.2,0.5 m 0,0 0.1,0.3 0.2,0.4 0.3,0.3 0.2,0.3 0.3,0.2 0.3,0.2 0.3,0.1 h 0.3 m -5.2,-1.8 -0.2,-0.9 -0.2,-1 m 1.3,3.7 -0.9,-1.8 m 3.6,1.8 h -2.7 m 2.3,-1.8 0.2,0.8 0.2,1 m -1.3,-3.7 0.9,1.9 m -0.9,-1.9 h -2.7 m 3.6,-1.7 -0.4,0.8 -0.5,0.9 m -2.3,-1.7 0.4,-0.9 0.5,-0.9 m -1.3,3.5 0.4,-1.7 m 3.7,-1.8 -0.5,1.8 m 0.5,-1.8 h -2.8 m 6.4,3.6 v -0.7 l -0.2,-0.6 -0.3,-0.5 -0.4,-0.4 -0.4,-0.1 h -0.5 l -0.4,0.3 -0.4,0.4 -0.2,0.6 -0.2,0.6 v 0.7 l 0.2,0.7 0.2,0.6 0.4,0.4 0.4,0.3 h 0.4 l 0.4,-0.1 0.4,-0.4 0.3,-0.5 0.2,-0.6 0.1,-0.7 m -3.7,3.6 h 0.7 0.9 m 0,-7.2 h -0.9 -0.6 m 3.6,3.6 -0.1,-0.7 -0.2,-0.6 -0.3,-0.5 -0.4,-0.4 -0.4,-0.1 h -0.1 m 0,4.6 v 0 l 0.5,-0.1 0.4,-0.4 0.3,-0.5 0.2,-0.6 0.1,-0.7 m -1.2,-0.3 v 0.3 0.4 m -4.1,3.2 h -0.7 -0.4 m 2.6,0 h -0.4 -1.1 m 4.3,0 h -2.8 m 1.7,0 h 0.8 0.3 m 0,0 0.3,-0.5 m 0.1,-6.1 -0.3,-0.6 m 0,0 h -0.3 -0.9 m -464.6,7.2 h 0.3 l 0.3,-0.1 0.3,-0.2 0.3,-0.2 0.2,-0.2 0.3,-0.3 0.2,-0.4 0.1,-0.4 m 0,0 0.2,-0.4 0.1,-0.4 v -0.5 l 0.1,-0.5 -0.1,-0.4 v -0.5 l -0.1,-0.4 -0.1,-0.5 m 0,0 -0.2,-0.4 -0.2,-0.3 -0.2,-0.3 -0.3,-0.3 -0.2,-0.2 -0.3,-0.2 -0.3,-0.1 h -0.3 m 5.1,1.8 0.3,0.9 0.2,0.9 m -1.3,-3.6 0.8,1.8 m -3.6,-1.8 h 2.8 m -2.3,1.8 -0.3,-0.8 -0.2,-1 m 1.3,3.6 -0.8,-1.8 m 0.8,1.8 h 2.8 m -3.7,1.8 0.4,-0.8 0.5,-1 m 2.3,1.8 -0.4,0.9 -0.5,0.9 m 1.4,-3.6 -0.5,1.8 m -3.7,1.8 0.5,-1.8 m -0.5,1.8 h 2.8 m -6.4,-3.6 0.1,0.7 0.2,0.6 0.3,0.5 0.3,0.4 0.5,0.1 h 0.4 l 0.4,-0.3 0.4,-0.4 0.3,-0.6 0.1,-0.6 v -0.7 l -0.1,-0.7 -0.3,-0.6 -0.3,-0.4 -0.4,-0.3 h -0.5 l -0.4,0.1 -0.4,0.4 -0.3,0.5 -0.2,0.6 -0.1,0.7 m 3.7,-3.6 h -0.6 -0.9 m -0.1,7.2 h 0.9 0.6 m -3.5,-3.6 v 0.7 l 0.2,0.6 0.3,0.5 0.4,0.4 0.4,0.1 h 0.1 m 0,-4.6 v 0 l -0.5,0.1 -0.3,0.4 -0.3,0.5 -0.2,0.6 -0.1,0.7 m 1.2,0.3 -0.1,-0.3 0.1,-0.4 m 4,-3.2 h 0.8 0.4 m -2.7,0 h 0.4 1.1 m -4.3,0 h 2.8 m -1.6,0 h -0.9 -0.3 m 0,0 -0.2,0.5 m -0.1,6 0.3,0.7 m 0,0 h 0.2 0.9 m 466.3,-3.6 v -0.6 l -0.2,-0.5 -0.3,-0.5 -0.4,-0.2 -0.4,-0.1 -0.4,0.2 -0.3,0.3 -0.2,0.5 -0.2,0.6 v 0.6 l 0.1,0.6 0.3,0.5 0.3,0.3 0.4,0.2 0.4,-0.1 0.4,-0.2 0.3,-0.4 0.2,-0.6 v -0.6 m -0.5,0 v -0.6 l -0.2,-0.5 -0.3,-0.5 -0.4,-0.2 v -0.1 m 0,3.7 v 0 l 0.4,-0.2 0.3,-0.4 0.2,-0.6 v -0.6 m -467.5,0 0.1,0.6 0.1,0.5 0.3,0.5 0.4,0.2 0.4,0.1 0.4,-0.2 0.3,-0.3 0.3,-0.5 0.1,-0.6 v -0.6 l -0.1,-0.6 -0.3,-0.5 -0.3,-0.3 -0.4,-0.2 -0.4,0.1 -0.3,0.2 -0.3,0.4 -0.2,0.6 -0.1,0.6 m 0.5,0 0.1,0.6 0.1,0.5 0.3,0.5 0.4,0.2 h 0.1 m 0,-3.7 -0.1,0.1 -0.3,0.2 -0.3,0.4 -0.2,0.6 -0.1,0.6 m 6.2,-8.3 0.4,0.1 0.8,0.2 0.8,0.4 0.8,0.6 0.6,0.8 0.6,0.9 0.5,1 0.4,1.2 0.2,1.2 0.2,1.3 -0.1,1.3 -0.1,1.3 -0.2,1.2 -0.4,1.1 -0.5,1.1 -0.6,0.9 -0.7,0.7 -0.7,0.6 -0.8,0.4 -0.8,0.2 h -0.4 m 454.6,0 h -0.4 l -0.8,-0.2 -0.8,-0.4 -0.7,-0.6 -0.7,-0.8 -0.6,-0.9 -0.5,-1 -0.3,-1.2 -0.3,-1.2 -0.1,-1.3 v -1.3 l 0.1,-1.3 0.3,-1.2 0.4,-1.2 0.5,-1 0.5,-0.9 0.7,-0.8 0.8,-0.5 0.8,-0.4 0.8,-0.2 0.4,-0.1 m -3.5,0 h 0.1 0.5 m -0.6,16.6 h -0.5 m -0.1,-16.6 0.6,0.1 0.9,0.3 0.5,0.3 m 0,15.2 -0.5,0.3 -0.9,0.3 -0.4,0.1 m 15,-12.4 v 0 m 0,8.2 v 0 m -462.4,4.2 h -0.1 -0.5 m 0.6,-16.6 h 0.5 m 0.2,16.6 -0.7,-0.1 -0.8,-0.3 -0.6,-0.3 m 0,-15.2 0.6,-0.3 0.8,-0.3 0.4,-0.1 m -15,4.2 v 0 m 0,8.2 v 0 m 440.7,-6.1 -0.7,2 m -0.8,-3.9 h 1.5 m -2.9,3.9 h 2.2 m 0,0 0.7,2 m -1.5,1.9 h 1.5 m -1.5,-7.8 h -0.1 -0.1 v 0.1 l -0.1,0.1 m -1.1,3.7 h -0.1 -0.1 -0.1 m 1.7,3.9 h -0.1 -0.1 v -0.1 l -0.1,-0.1 m -401.8,-3.7 -0.8,-2 m 3,2 h -2.2 m 0.7,-3.9 h -1.5 m 0,5.9 0.8,-2 m 0.7,3.9 h -1.5 m 3,-3.9 h 0.1 0.1 m -1.7,-3.9 h 0.1 0.1 l 0.1,0.1 v 0.1 m -0.3,7.6 h 0.1 0.1 l 0.1,-0.1 v -0.1 m -38.2,-0.8 -0.3,-0.5 -0.3,-0.9 -0.1,-1 v -1 l 0.1,-1 0.3,-0.9 0.3,-0.5 m 0,2.7 v 0.4 m 477.3,-3.1 0.2,0.5 0.3,0.9 0.1,1 0.1,1 -0.2,1 -0.3,0.9 -0.2,0.5 m 0,-2.7 v -0.4 m -484.6,-7.4 h 10.6 m 26.3,0 h 6.8 m -43.7,0 v 0 m 0,15.2 v 0 m 43.7,0 h -6.8 m -26.3,0 h -10.6 m 44.4,-22 v 7.6 m 0,13.6 v 7.6 m 0.1,-9.4 v 9.4 m -0.8,-10.4 v -0.1 -0.3 -0.3 -0.2 m 0.8,-17.5 v 9.4 m -0.8,8.1 v 0 m 0,-6.2 v 0 M -9,-51 v -0.2 l -0.1,-0.1 v -0.1 l -0.1,-0.2 h -0.1 l -0.2,-0.1 -0.1,-0.1 h -0.1 m 0,15.2 0.1,-0.1 h 0.1 l 0.2,-0.1 0.1,-0.1 0.1,-0.1 v -0.1 l 0.1,-0.1 v -0.2 m -38.7,-6.8 0.1,1.1 0.2,1.1 0.4,1 0.5,0.9 0.7,0.7 0.7,0.6 0.6,0.3 m 0,-11.5 -0.6,0.4 -0.7,0.6 -0.7,0.7 -0.5,0.9 -0.4,1 -0.2,1.1 -0.1,1.1 m 38.8,-5 v 0 m 0,0 v 0.1 0.1 l -0.1,0.2 -0.1,0.1 -0.1,0.1 m 0,8.8 0.1,0.1 0.1,0.1 0.1,0.1 v 0.2 0.1 m 0,0 v 0 m -38.7,-5 0.1,1 0.3,1 0.3,0.9 0.5,0.7 0.2,0.3 m 0,-7.8 -0.2,0.2 -0.5,0.8 -0.3,0.9 -0.3,1 -0.1,1 m -5.8,-7.6 0.1,0.1 h 0.1 l 0.1,0.1 0.1,0.1 m 0,14.6 -0.1,0.1 -0.1,0.1 h -0.1 l -0.1,0.1 m 0,-15.2 v 0.1 0.1 m 0,14.8 v 0.1 0.1 m 0,-0.2 v -14.8 m 42.9,-8.4 h 0.3 0.2 l 0.3,0.1 0.2,0.2 0.1,0.2 0.2,0.2 0.1,0.2 0.1,0.2 v 0.3 m -44.4,7 v -7 m 2.7,2.7 0.1,-0.6 0.3,-0.4 0.5,-0.3 0.5,-0.1 0.6,0.1 0.4,0.3 0.3,0.4 0.2,0.6 -0.2,0.5 -0.3,0.5 -0.4,0.3 -0.6,0.1 -0.5,-0.1 -0.5,-0.3 -0.3,-0.5 -0.1,-0.5 m -2.7,-2.7 0.1,-0.3 v -0.3 l 0.2,-0.2 0.2,-0.2 0.2,-0.2 0.2,-0.1 0.3,-0.1 h 0.3 m 0,0 h 20.1 m 15.3,0 h 6 m 1.5,30.2 v 0.3 l -0.1,0.2 -0.2,0.3 -0.1,0.2 -0.3,0.2 -0.2,0.1 -0.3,0.1 h -0.3 m -41.4,0 h -0.3 l -0.3,-0.1 -0.2,-0.1 -0.2,-0.2 -0.2,-0.2 -0.2,-0.3 v -0.2 l -0.1,-0.3 m 42.9,1.4 h -6 m -15.2,0 h -20.2 m 1.2,-4.1 0.1,-0.6 0.3,-0.4 0.5,-0.3 0.5,-0.1 0.6,0.1 0.4,0.3 0.3,0.4 0.2,0.6 -0.2,0.5 -0.3,0.5 -0.4,0.3 -0.6,0.1 -0.5,-0.1 -0.5,-0.3 -0.3,-0.5 -0.1,-0.5 m -2.7,2.7 v -7 m 44.5,-21.8 v -0.3 -0.2 l -0.1,-0.2 -0.2,-0.2 -0.2,-0.2 -0.2,-0.2 -0.2,-0.1 h -0.2 -0.3 m 0,0 h -0.2 m 0.2,31.6 h 0.3 l 0.3,-0.1 0.2,-0.1 0.2,-0.2 0.2,-0.2 0.1,-0.3 0.1,-0.2 v -0.3 m -1.6,1.4 h 0.2 m 448.7,-23.4 v 0 m -43.6,0 h 6.7 m 26.3,0 h 10.6 m 0,15.2 h -10.6 m -26.3,0 h -6.7 m 43.6,0 v 0 m -44.4,6.8 v -7.6 m 0,-13.6 v -7.6 m -0.1,9.4 v -9.4 m 0.8,10.4 v 0.1 0.3 0.2 0.3 m -0.8,17.5 v -9.4 m 0.8,-8.1 v 0 m 0,6.2 v 0 m 0.1,-10.7 h -0.2 l -0.1,0.1 -0.1,0.1 h -0.1 l -0.1,0.2 -0.1,0.1 v 0.1 L 394,-51 m 0,13.6 0.1,0.2 v 0.1 l 0.1,0.1 0.1,0.1 0.1,0.1 0.1,0.1 h 0.1 l 0.2,0.1 m 37.9,-7.6 -0.1,-1.1 -0.2,-1.1 -0.4,-1 -0.5,-0.9 -0.6,-0.7 -0.8,-0.6 -0.6,-0.4 m 0,11.5 0.6,-0.3 0.8,-0.6 0.6,-0.7 0.5,-0.9 0.4,-1 0.2,-1.1 0.1,-1.1 m -38.5,-4.4 -0.1,-0.1 -0.1,-0.1 -0.1,-0.2 v -0.1 -0.1 m 0,0 v 0 m 0,10 v 0 m 0,0 v -0.1 -0.2 l 0.1,-0.1 0.1,-0.1 0.1,-0.1 m 38.4,-4.4 -0.1,-1 -0.2,-1 -0.4,-0.9 -0.5,-0.8 -0.2,-0.2 m 0,7.7 0.2,-0.2 0.5,-0.7 0.4,-0.9 0.2,-1 0.1,-1 m 5.4,-7.3 0.1,-0.1 0.2,-0.1 0.1,-0.1 m 0,15.2 -0.1,-0.1 -0.2,-0.1 -0.1,-0.1 m 0.4,-14.7 v -0.1 -0.1 m 0,15.2 v -0.1 -0.1 m 0,-14.8 v 14.8 m -44.4,-21.8 0.1,-0.3 0.1,-0.3 0.1,-0.2 0.2,-0.2 0.2,-0.2 0.2,-0.1 0.3,-0.1 h 0.3 m 42.9,1.4 v 7 M 437,-60 h 0.2 l 0.3,0.1 0.3,0.1 0.2,0.2 0.2,0.2 0.1,0.2 0.1,0.3 v 0.3 M 395.5,-60 h 6 m 15.3,0 H 437 m -1.2,4.1 -0.2,0.5 -0.3,0.5 -0.4,0.3 -0.6,0.1 -0.5,-0.1 -0.5,-0.3 -0.3,-0.5 -0.1,-0.5 0.1,-0.6 0.3,-0.4 0.5,-0.3 0.5,-0.1 0.6,0.1 0.4,0.3 0.3,0.4 0.2,0.6 M 395.5,-60 h -0.2 m 0,0 H 395 l -0.2,0.1 -0.3,0.1 -0.2,0.2 -0.2,0.2 -0.1,0.2 -0.1,0.3 v 0.3 m 1.6,30.2 h -0.3 l -0.2,-0.1 -0.2,-0.1 -0.2,-0.1 -0.2,-0.2 -0.2,-0.2 -0.1,-0.2 v -0.3 l -0.1,-0.2 m 43,1.4 h -20.2 m -15.3,0 h -6 m 42.9,-1.4 v 0.3 l -0.1,0.2 -0.1,0.3 -0.2,0.2 -0.2,0.2 -0.3,0.1 -0.3,0.1 H 437 m 1.4,-8.4 v 7 m -2.6,-2.7 -0.2,0.5 -0.3,0.5 -0.4,0.3 -0.6,0.1 -0.5,-0.1 -0.5,-0.3 -0.3,-0.5 -0.1,-0.5 0.1,-0.6 0.3,-0.4 0.5,-0.3 0.5,-0.1 0.6,0.1 0.4,0.3 0.3,0.4 0.2,0.6 m -41.9,2.7 v 0.2 l 0.1,0.3 0.1,0.2 0.1,0.2 0.2,0.2 0.2,0.1 0.2,0.1 0.3,0.1 h 0.2 m 0,0 h 0.2 M -93,-62.3 v 0 h 0.1 l 0.1,0.1 0.1,0.2 m 7,-4.9 1.9,-1.5 4.4,-3.2 7.1,-4.4 7.5,-3.9 9.7,-4.4 m 76.9,-20.3 10.1,-1.6 13.9,-1.8 14,-1.5 21,-1.8 21.1,-1.2 22.5,-0.8 m 22.6,-1.8 v 0.1 0.2 0.2 m 10.7,1.1 h 49.7 m -290,52.3 h 42.5 m 58.8,0 H 182.9 M 147,25.3 v 0.1 0.3 0.3 0.2 m -22.1,-1.3 -20.3,-0.7 -21.2,-1.1 -16,-1.3 -15.9,-1.5 -15.9,-2 m -87.5,-21.2 -4.5,-1.8 -9.3,-4.3 -4.7,-2.4 -4.7,-2.6 -4.5,-2.9 -4.4,-3.1 m -9,-6.1 v 0 l 0.1,-0.1 0.1,-0.1 0.1,-0.1 m 10.1,-0.8 h 42.5 m 58.8,0 h 164.2 m 24.5,52.3 h -49.7 m 361.7,-33.6 -4.8,2.9 -5.5,2.8 -5.7,2.4 -5.9,2.2 -6.8,2.1 -6.9,2 -7.1,1.7 -7,1.6 m -28.8,5.2 v 0 0.3 L 441,15 v 0.2 m 88.9,-33.4 v 0 l 0.2,0.1 0.2,0.2 0.1,0.1 m -89.3,-86.3 v 0 l -0.1,0.1 v 0.2 0.1 m 14.2,3.4 1.5,0.3 8,1.4 7.9,1.6 7.5,1.8 7.4,1.9 7.4,2.3 7.3,2.5 4.4,1.8 4.2,1.9 4.1,2.1 4,2.5 m 11.7,9.3 v 0 0.1 l -0.1,0.1 -0.1,0.1 M 245.5,-27.2 H 374 m 45.7,0 h 17.4 m 2.2,41.5 -7.4,1 m -71.9,6.3 -14.5,0.8 -31.9,1.3 -31.9,0.8 -31.9,0.5 m 191,-46 v 0.6 7.2 7.7 V 4 M 218,25.3 v 0.1 0.3 0.3 0.2 m 0,-141.3 v 0.1 0.2 0.2 m 25.1,1.2 h 7 l 31.8,0.5 31.9,0.8 31.8,1.3 m 86.3,7.1 7.4,0.9 M 245.5,-61.2 H 374 m 45.7,0 h 17.4 m 3.7,-35.2 v 2.5 8.2 7.8 8.6 m 0,13.2 v 23.8 m -538.3,-18.8 0.1,-0.4 0.7,-2.3 1.1,-2.2 1.8,-2.7 m -4,17.9 v -6.8 m 4.7,18.8 -0.1,-0.1 -2,-2.9 -1.6,-3.2 -0.7,-2.1 M -99.4,-49 v 0 h 0.1 0.1 0.2 m -0.4,9.6 v 0 h 0.1 0.1 0.2 m 553.2,-21.8 h 0.5 13.4 13 12.6 9.5 9.2 m 17.3,-7.5 v 3.7 m 0,8.9 v 23.8 m -75.5,5.1 h 0.5 13.4 13 12.6 9.5 9.2 m 17.3,1.3 v 3.6 m 0.6,-38.9 h 2.6 m -2.4,-7.6 0.4,0.8 1.1,2.1 0.8,2.3 m 0.8,2.3 h 0.1 0.2 l 0.2,-0.1 m -1,35.6 -0.3,0.9 -0.8,2.2 -1,2.2 m 2.6,-6.7 0.1,0.1 h 0.2 l 0.2,0.1 m -3.8,-0.2 h 2.6 m 1.4,-8 -0.2,3.3 -0.2,2.4 m 0.4,-20.1 v 10.7 m -0.6,-20.9 0.2,0.9 0.2,2.3 m 0.4,4.7 h 0.1 0.2 0.2 m -0.5,15.3 h 0.1 0.2 0.2 m -107.8,-7.6 -0.1,-0.7 -0.1,-0.7 -0.3,-0.6 -0.4,-0.5 -0.5,-0.2 -0.5,-0.1 -0.5,0.2 -0.4,0.3 -0.3,0.5 -0.3,0.7 -0.1,0.7 -0.1,0.7 0.2,0.8 0.2,0.6 0.4,0.5 0.4,0.4 0.5,0.2 0.5,-0.1 0.4,-0.2 0.4,-0.5 0.3,-0.5 0.2,-0.7 0.1,-0.8 m -469.4,0 0.1,0.7 0.2,0.7 0.3,0.6 0.4,0.4 0.4,0.3 0.5,0.1 0.5,-0.2 0.4,-0.3 0.4,-0.5 0.2,-0.7 0.2,-0.7 v -0.7 l -0.1,-0.8 -0.3,-0.6 -0.3,-0.6 -0.5,-0.3 -0.4,-0.2 -0.5,0.1 -0.5,0.2 -0.4,0.4 -0.3,0.6 -0.2,0.7 -0.1,0.8 m 1.7,-3.6 0.2,-0.5 0.5,-1 0.6,-0.8 0.6,-0.7 0.8,-0.5 0.7,-0.3 0.8,-0.1 0.8,0.1 0.8,0.3 0.7,0.5 0.7,0.7 0.6,0.8 0.4,1 0.4,1.1 0.3,1.2 0.1,1.2 v 1.2 l -0.1,1.2 -0.3,1.2 -0.4,1.1 -0.4,1 -0.6,0.8 -0.7,0.7 -0.7,0.5 -0.8,0.3 -0.8,0.1 -0.8,-0.1 -0.7,-0.3 -0.8,-0.5 -0.6,-0.7 -0.6,-0.9 -0.5,-0.9 -0.2,-0.4 m 0.5,-7.3 V -48 l 0.5,-0.8 0.6,-0.8 0.7,-0.5 0.7,-0.4 0.7,-0.1 h 0.7 l 0.8,0.3 0.6,0.4 0.7,0.6 0.5,0.8 0.4,1 0.4,1 0.2,1.1 v 1.2 1.1 l -0.2,1.1 -0.3,1.1 -0.5,0.9 -0.5,0.8 -0.6,0.7 -0.7,0.4 -0.7,0.3 h -0.8 l -0.7,-0.1 -0.7,-0.4 -0.7,-0.5 -0.5,-0.7 -0.5,-0.9 -0.1,-0.2 m 465.5,0 -0.2,0.5 -0.5,1 -0.6,0.8 -0.6,0.7 -0.7,0.5 -0.8,0.3 -0.8,0.1 -0.8,-0.1 -0.8,-0.3 -0.7,-0.5 -0.7,-0.7 -0.5,-0.9 -0.5,-0.9 -0.4,-1.1 -0.3,-1.2 -0.1,-1.2 v -1.2 l 0.2,-1.3 0.2,-1.1 0.4,-1.1 0.5,-1 0.6,-0.8 0.6,-0.7 0.8,-0.5 0.7,-0.3 0.8,-0.1 0.8,0.1 0.8,0.3 0.7,0.5 0.7,0.7 0.5,0.8 0.5,1 0.2,0.4 m -0.4,7.3 -0.1,0.2 -0.5,0.8 -0.6,0.8 -0.6,0.5 -0.7,0.4 -0.8,0.1 h -0.7 l -0.7,-0.3 -0.7,-0.4 -0.6,-0.6 -0.6,-0.8 -0.4,-1 -0.3,-1 -0.2,-1.1 -0.1,-1.2 v -1.1 l 0.2,-1.1 0.4,-1.1 0.4,-0.9 0.5,-0.8 0.6,-0.7 0.7,-0.4 0.7,-0.3 h 0.8 l 0.7,0.1 0.7,0.4 0.7,0.5 0.6,0.7 0.5,0.9 0.1,0.2 m -441.6,5.5 0.1,-0.4 0.1,-1.2 V -45 l -0.2,-1.1 m 418,0 -0.1,0.4 -0.1,1.1 v 1.2 l 0.2,1.1 m 7.6,-32.9 v 61.9 m 0.2,0 v -61.9 m 5.2,43.9 v 25.8 m -1.2,-44.5 -0.1,0.2 -0.5,1.1 -0.4,1.2 -0.2,1.3 -0.2,1.3 v 1.4 l 0.2,1.3 0.2,1.3 0.4,1.2 m 1.8,-43.2 v 25.8 m 0,5.8 v 0 -0.1 m 0,14.5 v 0 -0.1 m 2.6,-15.5 0.2,0.1 m 0.8,16.1 -0.8,0.3 m -1.9,-0.2 h -0.5 m -0.1,-16 h 0.2 0.8 l 0.8,0.2 0.8,0.4 h 0.1 m 0,14.7 -0.5,0.3 -0.8,0.3 -0.8,0.1 m 0,-0.8 -0.8,-0.1 -0.3,-0.2 m 0,-13.9 0.7,-0.1 h 0.8 l 0.6,0.1 m 0,14 -0.2,0.1 -0.8,0.1 m -0.9,-14.6 v 0 m 0.1,14.8 v 0 m 0.4,-26.1 0.2,0.4 0.5,1.2 0.7,1 0.7,0.9 m 2.3,1.5 0.1,0.1 v 0.1 0.1 m -0.7,27.1 -0.1,0.1 -0.9,0.6 -0.7,0.8 -0.7,0.9 m 3.1,-2.8 v 0.1 0.1 0.1 m 8.3,-6.3 -0.2,0.2 -1.1,1 -1.1,1 -1.1,0.9 m 6.4,-6.3 -1.7,2 m 2.1,-2.5 v 0.1 0.1 H 431 m 0.1,-6.3 v 5 M 431,-48 v 0 h 0.1 v 0.1 m -2.1,-2.4 1.7,2 m -10.1,-8.7 0.1,0.1 1.2,0.7 1.2,0.8 1.2,0.8 m -9.3,18.7 0.1,0.1 0.9,0.3 h 0.8 m 1.7,-17 -0.8,-0.3 -0.9,-0.2 m 11.9,2.2 v 0 0.1 m 0,12.9 v 0 0.1 0.1 m 2.3,-10.7 v 0 0.1 h 0.1 m -0.1,7.9 v 0 l 0.1,0.1 m 0,-0.4 v 0 m 0.1,-7.2 v 0 m -455.3,34.5 v -61.9 m -0.2,0 v 61.9 m -5.2,-43.8 v -25.8 m 1.2,44.5 0.1,-0.2 0.5,-1.1 0.4,-1.2 0.3,-1.3 0.1,-1.3 v -1.4 l -0.1,-1.3 -0.3,-1.3 -0.4,-1.2 m -1.8,43.2 v -25.8 m 0,-5.8 v 0 0.1 m 0,-14.5 v 0 0.1 m -2.6,15.4 h -0.2 m -0.7,-16.1 0.7,-0.3 m 1.9,0.2 h 0.6 m 0,16 h -0.1 -0.9 l -0.8,-0.2 -0.8,-0.4 v -0.1 m 0,-14.7 0.4,-0.2 0.8,-0.3 0.8,-0.1 m 0,0.8 0.8,0.1 0.3,0.1 m 0,13.9 -0.7,0.2 h -0.8 l -0.6,-0.1 m 0,-14 0.3,-0.1 0.7,-0.1 m 0.8,-0.2 v 0 m 0.1,14.8 v 0 m -4.2,-21.1 0.1,-0.1 0.8,-0.6 0.8,-0.8 0.7,-0.9 m -3.2,2.7 v 0 -0.1 -0.1 m 4.5,32.3 -0.1,-0.4 -0.6,-1.2 -0.6,-1 -0.7,-0.9 m -2.4,-1.6 v 0 h -0.1 v -0.1 -0.1 m -8.2,-20.7 0.1,-0.2 1.1,-1 1.1,-1 1.1,-0.9 m -6.4,6.3 1.8,-2 m -2.2,2.5 v -0.1 H -46 V -48 m -0.1,6.3 v -5 m 0.1,6.3 v 0 -0.1 h -0.1 m 2.2,2.4 -1.8,-2 m 10.1,8.6 h -0.1 l -1.2,-0.7 -1.2,-0.8 -1.2,-0.8 m 9.3,-18.7 -0.1,-0.1 -0.8,-0.3 -0.9,-0.1 m -1.6,17.1 0.7,0.3 0.9,0.1 m -11.9,-15.1 v 0 -0.1 -0.1 m 0,13.2 v 0 -0.1 M -46,-48.1 v 0 -0.1 m 0,8.1 v 0 -0.1 m -0.1,-7.6 v 0 m -0.1,7.2 v 0 m 438.2,-4.2 1,-2.8 m 0,6.8 -1,-2.9 m -400,-3.9 1.1,2.8 m 0,1.1 -1.1,2.9 m -8.2,0.2 h -0.1 m 0.1,-1.1 v -5 m -0.2,-1.1 h 0.1 m 0.1,-0.1 v -0.1 -0.1 -0.1 h -0.1 m 0,-0.1 h -0.1 -0.1 m 0.2,8.2 v -0.1 l 0.1,-0.1 v -0.1 -0.1 m -0.2,0.4 v 0 m 0.1,-8.2 -0.1,-0.2 m 0,8.6 0.1,-0.2 m 0.8,-7.7 4.8,-0.3 m 0.7,-0.1 h -0.1 v -0.1 -0.1 -0.1 m -0.8,-0.1 -4.7,0.2 m 0,8.3 4.7,0.2 m 0.7,0 h 0.1 v -0.1 -0.1 -0.1 m -0.6,-0.2 -4.8,-0.2 m 5.5,-6.3 v 5.4 m 0,-9.2 -0.2,1.9 m -5.5,-1.9 4.9,-0.2 m 0,13.4 -4.9,-0.2 m 5.5,-1.9 0.2,1.9 M -10.1,-51 v 0 -0.1 h -0.1 m -0.8,0 -4.7,0.2 m 0,13.4 4.7,0.2 m 0.9,-0.1 v 0 0.1 h -0.1 m -36.9,-14 -5.6,-0.4 m 9.2,0.3 -2.6,0.1 m 36.4,-0.5 -0.6,0.6 m -35.8,14.1 2.6,0.1 m -9.2,0.3 5.6,-0.4 m 36.8,-0.1 0.6,0.5 M -10,-48.1 v 0 h 0.1 m -0.2,-0.5 0.1,0.1 v 0.1 h 0.1 v 0.1 m -0.2,8.4 H -10 V -40 h 0.1 v -0.1 m -0.1,-0.2 v 0 h 0.1 m 0.1,-1.2 v -5.4 m 0,-1.4 0.2,-1.9 m -0.3,-0.7 v 0 l 0.1,0.1 0.1,0.1 m -0.2,13.2 v 0 l 0.1,-0.1 0.1,-0.1 m 0.1,-0.5 -0.2,-1.9 M -9,-58.6 h 0.1 m -0.7,8.1 0.6,-0.5 m 0,13.6 -0.6,-0.6 m 0.7,8.2 H -9 m -0.6,-9.9 0.7,0.5 m -0.7,-0.5 v 0 m -0.1,-6.7 v 4.3 m 0,-5.4 v -0.1 -0.2 -0.3 -0.2 m 0.8,-0.9 -0.7,0.4 m 0,8.9 v 0.1 m 0,-8.9 v 0.1 m -0.6,-2.5 h 0.1 l 0.2,0.1 h 0.1 l 0.1,0.2 v 0.1 m 0.1,12.9 -0.1,0.1 v 0.1 l -0.1,0.1 -0.1,0.1 -0.2,0.1 m -38.8,-10.6 h 0.1 0.1 0.2 0.1 0.1 m -0.7,1.1 v 5.2 m 0.9,1 h -0.2 -0.1 -0.1 -0.2 -0.1 m 0.8,-1 v -5.2 m -0.9,-1.5 v 0 l -0.1,0.1 v 0.1 0.1 m 0.9,0 -0.1,-0.1 h -0.1 l -0.1,-0.1 -0.1,-0.1 h -0.2 m -0.2,8.2 v -0.1 H -49 v -0.1 -0.1 m 0.2,0.3 h 0.1 0.2 l 0.1,-0.1 0.1,-0.1 0.1,-0.1 m 1.4,-10.7 0.1,0.1 h 0.2 l 0.1,0.1 h 0.1 l 0.1,0.1 m -0.9,0.1 -1.5,2 m 0.9,0.5 1.4,-2 m 0.2,12.5 -0.1,0.1 h -0.1 l -0.1,0.1 -0.1,0.1 h -0.2 m 0.4,-0.8 -1.4,-2 m -0.9,0.5 1.5,2 m 3,-0.1 h -1.6 m 0,-12.8 1.6,-0.1 m -5.1,2.3 h -3.2 m -0.4,0.1 v 0 0.1 0.1 h -0.1 v 0.1 m 0.4,0.1 h 3.1 m -3.5,6.3 v -5.2 m 3.5,6.2 h -3.1 m 0.1,0.5 h 3.2 m -3.6,0 v -0.1 -0.1 h -0.1 v -0.1 m 0.5,-11.1 5,0.4 m -5.4,2.5 -0.2,-2.6 m 5.6,13.9 -5,0.3 m -0.6,-0.2 0.2,-2.6 m 6.8,-10.9 v -0.1 l -0.1,-0.2 v -0.1 l -0.1,-0.1 m -0.3,-0.1 h -0.1 l -0.1,0.1 m -0.1,13.9 v 0.1 h 0.1 0.1 m 0.2,0.1 0.1,-0.1 h 0.1 l 0.1,-0.1 v -0.1 m -7,-10.5 h 0.1 m 0,0 v -0.1 -0.1 l 0.1,-0.1 v -0.1 m -0.2,1.5 v 5.2 m 0,1 h 0.1 m 0.2,0.5 h -0.1 v -0.1 l -0.1,-0.1 v -0.1 m -0.3,-10.9 0.2,3.1 m 0,7.9 -0.2,3.2 m 454.5,-10.7 h 0.1 m -0.1,1.1 v 5 m 0.2,1.1 h -0.1 m -0.1,0.1 v 0 0.1 0.1 h 0.1 v 0.1 m 0.1,0.1 h 0.1 m -0.2,-8.2 v 0.1 l -0.1,0.1 v 0.1 m 0.3,-0.3 v 0 m 0,-0.2 -0.1,0.2 m 0,8.2 0.1,0.2 m -1,-0.7 -4.7,0.2 m -0.7,0.2 v 0 0.1 0.1 l 0.1,0.1 m 0.7,0 4.7,-0.2 m 0,-8.3 -4.7,-0.2 m -0.7,0.1 v 0 l -0.1,0.1 v 0.1 0.1 m 0.7,0.1 4.7,0.3 m -5.4,6.3 v -5.4 m 0.7,-4 4.9,0.2 m -5.5,1.9 -0.1,-1.9 m 0,13 0.1,-1.9 m 5.5,1.9 -4.9,0.2 m 5,-13.4 -4.7,-0.2 m -1,0.1 v 0 l 0.1,-0.1 m -0.1,13.7 v 0 l 0.1,0.1 m 0.9,0 4.7,-0.2 m 30.3,-13.8 -2.6,-0.1 m 9.3,-0.3 -5.7,0.4 m -36.7,0.1 -0.6,-0.6 m 37.3,14.7 5.7,0.4 m -9.3,-0.3 2.6,-0.1 m -36.3,0.4 0.6,-0.5 m -0.4,-3.1 v 0 m 0.1,0.4 v 0 L 395,-40 h -0.1 v -0.1 m 0.2,-8.5 v 0.1 l -0.1,0.1 h -0.1 v 0.1 m 0.1,0.2 v 0 m -0.2,1.2 v 5.4 m 0.2,-9.4 h -0.1 l -0.1,0.1 v 0.1 h -0.1 m 0,0.5 0.1,1.9 m 0,8.2 -0.1,1.9 m 0.3,0.7 h -0.1 l -0.1,-0.1 v -0.1 h -0.1 m -0.7,7.9 h -0.1 m 0.7,-8.2 -0.5,0.6 m 0,-13.6 0.5,0.5 m -0.7,-8.1 h 0.1 m 0.6,9.8 -0.7,-0.4 m 0.7,0.5 v 0 m 0.1,6.6 v -4.3 m 0,5.5 v 0 0.3 0.3 0.2 m -0.8,0.9 0.7,-0.5 m 0.1,-8.8 -0.1,-0.1 m 0,8.9 v -0.1 m 0.1,-10.8 v -0.1 l 0.1,-0.1 0.1,-0.2 h 0.1 l 0.1,-0.1 m 0.1,13.8 h -0.1 l -0.1,-0.1 -0.1,-0.1 -0.1,-0.1 -0.1,-0.1 m 39.2,-2.9 h -0.1 -0.1 -0.1 -0.2 -0.1 m 0.8,-1 v -5.2 m -0.9,-1.1 h 0.1 0.1 0.2 0.1 0.1 m -0.8,1.1 v 5.2 m 0.9,1.5 0.1,-0.1 v -0.1 -0.1 m -0.9,0 h 0.1 l 0.1,0.1 0.2,0.1 0.1,0.1 h 0.1 m 0.2,-8.2 h 0.1 v 0.1 0.1 0.1 m -0.2,-0.3 h -0.1 -0.1 l -0.1,0.1 -0.2,0.1 h -0.1 m -1.4,10.8 -0.1,-0.1 h -0.1 l -0.2,-0.1 -0.1,-0.1 h -0.1 m 1,-0.1 1.4,-2 m -0.8,-0.5 -1.5,2 m -0.2,-12.5 0.1,-0.1 0.1,-0.1 h 0.1 l 0.2,-0.1 h 0.1 m -0.4,0.8 1.5,2 m 0.8,-0.5 -1.4,-2 m -3.1,0 1.7,0.1 m 0,12.8 h -1.7 m 8.4,-2.8 h -3.1 m 3.5,-6.2 v 5.2 m -3.5,-6.3 h 3.1 m -3.2,7.8 h 3.1 m 0.4,0 v -0.1 h 0.1 v -0.1 -0.1 m -0.5,-8 h -3.1 m 3.5,0.1 v 0 l 0.1,0.1 v 0.1 0.1 m -5.4,-3.1 5,-0.4 m 0.5,0.3 -0.2,2.6 m -0.3,11.6 -5,-0.3 m 5.3,-2.5 0.2,2.6 m -6.2,-13.9 v -0.1 h -0.1 v -0.1 m -0.3,0 -0.1,0.1 h -0.1 v 0.1 l -0.1,0.1 m -0.1,13.3 0.1,0.1 v 0.2 l 0.1,0.1 v 0.1 m 0.3,0.1 h 0.1 l 0.1,-0.1 h 0.1 m 6.3,-4.4 v -5.2 m 0,-1.1 v 0 m 0,7.3 v 0 m 0,0.1 v 0.1 l -0.1,0.1 -0.1,0.1 v 0.1 m -0.1,-8.2 h 0.1 v 0.1 l 0.1,0.1 0.1,0.1 m 0,-0.2 0.3,-3.1 m 0,14.2 -0.3,-3.2"
       style="fill:none;stroke:#000000;stroke-width:0.709;stroke-linecap:round;stroke-linejoin:round;stroke-miterlimit:10;stroke-dasharray:none;stroke-opacity:1"
       id="path44479" /></g><text
     xml:space="preserve"
     style="font-style:normal;font-variant:normal;font-weight:normal;font-stretch:normal;font-size:7.05556px;line-height:1.25;font-family:Bahnschrift;-inkscape-font-specification:'Bahnschrift, Normal';font-variant-ligatures:normal;font-variant-caps:normal;font-variant-numeric:normal;font-variant-east-asian:normal;letter-spacing:0px;word-spacing:0px;stroke-width:0.264583"
     x="88.26123"
     y="107.32413"
     id="text44587"><tspan
       sodipodi:role="line"
       id="tspan44585"
       style="font-style:normal;font-variant:normal;font-weight:normal;font-stretch:normal;font-size:7.05556px;font-family:Bahnschrift;-inkscape-font-specification:'Bahnschrift, Normal';font-variant-ligatures:normal;font-variant-caps:normal;font-variant-numeric:normal;font-variant-east-asian:normal;stroke-width:0.264583"
       x="88.26123"
       y="107.32413">15</tspan></text><text
     xml:space="preserve"
     style="font-style:normal;font-variant:normal;font-weight:normal;font-stretch:normal;font-size:7.05556px;line-height:1.25;font-family:Bahnschrift;-inkscape-font-specification:'Bahnschrift, Normal';font-variant-ligatures:normal;font-variant-caps:normal;font-variant-numeric:normal;font-variant-east-asian:normal;letter-spacing:0px;word-spacing:0px;stroke-width:0.264583"
     x="141.54204"
     y="101.12869"
     id="text44591"><tspan
       sodipodi:role="line"
       id="tspan44589"
       style="font-style:normal;font-variant:normal;font-weight:normal;font-stretch:normal;font-size:7.05556px;font-family:Bahnschrift;-inkscape-font-specification:'Bahnschrift, Normal';font-variant-ligatures:normal;font-variant-caps:normal;font-variant-numeric:normal;font-variant-east-asian:normal;stroke-width:0.264583"
       x="141.54204"
       y="101.12869">17</tspan></text><text
     xml:space="preserve"
     style="font-style:normal;font-variant:normal;font-weight:normal;font-stretch:normal;font-size:7.05556px;line-height:1.25;font-family:Bahnschrift;-inkscape-font-specification:'Bahnschrift, Normal';font-variant-ligatures:normal;font-variant-caps:normal;font-variant-numeric:normal;font-variant-east-asian:normal;letter-spacing:0px;word-spacing:0px;stroke-width:0.264583"
     x="206.83249"
     y="99.698975"
     id="text44595"><tspan
       sodipodi:role="line"
       id="tspan44593"
       style="font-style:normal;font-variant:normal;font-weight:normal;font-stretch:normal;font-size:7.05556px;font-family:Bahnschrift;-inkscape-font-specification:'Bahnschrift, Normal';font-variant-ligatures:normal;font-variant-caps:normal;font-variant-numeric:normal;font-variant-east-asian:normal;stroke-width:0.264583"
       x="206.83249"
       y="99.698975">18</tspan></text><text
     xml:space="preserve"
     style="font-style:normal;font-variant:normal;font-weight:normal;font-stretch:normal;font-size:7.05556px;line-height:1.25;font-family:Bahnschrift;-inkscape-font-specification:'Bahnschrift, Normal';font-variant-ligatures:normal;font-variant-caps:normal;font-variant-numeric:normal;font-variant-east-asian:normal;letter-spacing:0px;word-spacing:0px;stroke-width:0.264583"
     x="152.69385"
     y="67.196732"
     id="text44599"><tspan
       sodipodi:role="line"
       id="tspan44597"
       style="font-style:normal;font-variant:normal;font-weight:normal;font-stretch:normal;font-size:7.05556px;font-family:Bahnschrift;-inkscape-font-specification:'Bahnschrift, Normal';font-variant-ligatures:normal;font-variant-caps:normal;font-variant-numeric:normal;font-variant-east-asian:normal;stroke-width:0.264583"
       x="152.69385"
       y="67.196732">16</tspan></text></svg>
