<?xml version="1.0" encoding="UTF-8" standalone="no"?>
<!-- Created with Inkscape (http://www.inkscape.org/) -->

<svg
   width="201.29758mm"
   height="78.977875mm"
   viewBox="0 0 201.29758 78.977874"
   version="1.1"
   id="svg5"
   inkscape:version="1.2.1 (9c6d41e410, 2022-07-14)"
   sodipodi:docname="Motor.svg"
   xml:space="preserve"
   xmlns:inkscape="http://www.inkscape.org/namespaces/inkscape"
   xmlns:sodipodi="http://sodipodi.sourceforge.net/DTD/sodipodi-0.dtd"
   xmlns="http://www.w3.org/2000/svg"
   xmlns:svg="http://www.w3.org/2000/svg"><sodipodi:namedview
     id="namedview7"
     pagecolor="#505050"
     bordercolor="#eeeeee"
     borderopacity="1"
     inkscape:pageshadow="0"
     inkscape:pageopacity="0"
     inkscape:pagecheckerboard="0"
     inkscape:document-units="mm"
     showgrid="false"
     inkscape:zoom="0.69397446"
     inkscape:cx="-65.564372"
     inkscape:cy="35.303893"
     inkscape:window-width="2560"
     inkscape:window-height="1361"
     inkscape:window-x="2551"
     inkscape:window-y="-9"
     inkscape:window-maximized="1"
     inkscape:current-layer="svg5"
     inkscape:snap-page="true"
     inkscape:showpageshadow="0"
     inkscape:deskcolor="#505050" /><defs
     id="defs2" /><g
     inkscape:label="Ebene 1"
     inkscape:groupmode="layer"
     id="layer1"
     transform="translate(-1975.0355,-322.42846)" /><g
     id="g36067"
     transform="matrix(0.35277777,0,0,-0.35277776,5.6503157,61.591249)"><path
       d="M 0,0 -0.029,0.503 -0.115,0.999 -0.256,1.482 -0.452,1.946 -0.7,2.384 -0.996,2.792 -1.336,3.163 -1.717,3.492 -2.133,3.777 -2.578,4.012 -3.047,4.194 -3.534,4.322 -4.033,4.394 -4.536,4.408 -5.038,4.365 -5.531,4.265 -6.01,4.11 -6.468,3.9 -6.899,3.64 -7.298,3.333 -7.659,2.982 -7.978,2.592 -8.25,2.169 -8.472,1.717 -8.641,1.242 -8.755,0.752 -8.813,0.252 v -0.504 l 0.058,-0.5 0.114,-0.49 0.169,-0.475 0.222,-0.452 0.272,-0.423 0.319,-0.39 0.361,-0.351 0.399,-0.307 0.431,-0.26 0.458,-0.209 0.479,-0.156 0.493,-0.1 0.502,-0.043 0.503,0.014 0.499,0.072 0.487,0.128 0.469,0.183 0.445,0.235 0.416,0.284 0.381,0.329 0.34,0.371 0.296,0.408 0.248,0.438 0.196,0.464 0.141,0.483 0.086,0.496 L 0,0 m -6.93,-6.3 5.04,12.6"
       style="fill:none;stroke:#000000;stroke-width:0.51;stroke-linecap:butt;stroke-linejoin:miter;stroke-miterlimit:10;stroke-dasharray:none;stroke-opacity:1"
       id="path36069" /></g><g
     aria-label="63,0 "
     transform="matrix(1.0001505,0,0,0.99984953,-261.24136,-57.775411)"
     id="text36073"
     style="font-size:4.66735px;font-family:'Century Gothic';-inkscape-font-specification:CenturyGothic;stroke-width:0.352831"><path
       d="m 269.57412,117.65958 0.27576,0.18004 -0.90475,1.37195 q 0.18231,-0.0615 0.34184,-0.0615 0.39882,0 0.67686,0.28943 0.27803,0.28716 0.27803,0.70877 0,0.28943 -0.13446,0.52416 -0.13446,0.23246 -0.38286,0.37148 -0.24613,0.13674 -0.53101,0.13674 -0.27575,0 -0.51277,-0.13219 -0.23473,-0.13446 -0.36919,-0.37603 -0.13446,-0.24157 -0.13446,-0.51733 0,-0.2051 0.082,-0.43072 0.0843,-0.2279 0.29855,-0.54696 z m -0.36691,1.78444 q -0.29171,0 -0.4991,0.20739 -0.20511,0.20511 -0.20511,0.4991 0,0.29171 0.20511,0.49909 0.20739,0.20511 0.4991,0.20511 0.29171,0 0.49682,-0.20511 0.20738,-0.20738 0.20738,-0.49909 0,-0.29399 -0.20738,-0.4991 -0.20511,-0.20739 -0.49682,-0.20739 z"
       id="path36468" /><path
       d="m 271.0667,118.52104 h -0.34185 q 0.0934,-0.41478 0.3578,-0.63812 0.26436,-0.22334 0.62444,-0.22334 0.26209,0 0.4877,0.12079 0.2279,0.1185 0.35097,0.32133 0.12534,0.20283 0.12534,0.42389 0,0.43301 -0.43073,0.68598 0.24158,0.098 0.39655,0.28715 0.21878,0.26664 0.21878,0.59709 0,0.28487 -0.15041,0.54468 -0.15042,0.25752 -0.41022,0.39882 -0.2598,0.1413 -0.58114,0.1413 -0.43301,0 -0.72244,-0.24841 -0.28943,-0.25069 -0.37831,-0.73383 h 0.32818 q 0.0866,0.32589 0.2484,0.47174 0.20739,0.1846 0.52873,0.1846 0.36463,0 0.5857,-0.21878 0.22106,-0.21878 0.22106,-0.51277 0,-0.19599 -0.11167,-0.36692 -0.10939,-0.17092 -0.29627,-0.25752 -0.1846,-0.0866 -0.5743,-0.10711 v -0.30767 q 0.23017,0 0.41933,-0.0798 0.18915,-0.082 0.27348,-0.20739 0.0866,-0.12534 0.0866,-0.27347 0,-0.21879 -0.17548,-0.37832 -0.17321,-0.15952 -0.43985,-0.15952 -0.2165,0 -0.37375,0.12306 -0.15725,0.12079 -0.26664,0.4125 z"
       id="path36470" /><path
       d="m 273.70788,120.48096 0.30766,0.14585 -0.46263,0.86146 -0.22562,-0.0957 z"
       id="path36472" /><path
       d="m 274.47696,119.42123 q 0,-0.66318 0.1413,-1.02554 0.14357,-0.36236 0.40338,-0.54923 0.2598,-0.18688 0.58114,-0.18688 0.32589,0 0.59025,0.18916 0.26436,0.18687 0.41706,0.56291 0.15497,0.37603 0.15497,1.00958 0,0.63128 -0.1527,1.00503 -0.15041,0.37376 -0.41705,0.56519 -0.26664,0.18916 -0.59253,0.18916 -0.32134,0 -0.57886,-0.1846 -0.25753,-0.1846 -0.40338,-0.54924 -0.14358,-0.36691 -0.14358,-1.02554 z m 0.31678,0.007 q 0,0.56747 0.10027,0.85918 0.10256,0.28943 0.30083,0.43984 0.19827,0.15041 0.41933,0.15041 0.22334,0 0.41705,-0.14585 0.19372,-0.14814 0.29399,-0.44213 0.12535,-0.3578 0.12535,-0.86145 0,-0.50593 -0.11167,-0.82727 -0.11167,-0.32361 -0.30994,-0.47175 -0.196,-0.15041 -0.41478,-0.15041 -0.22334,0 -0.41933,0.15041 -0.19599,0.14814 -0.29855,0.43984 -0.10255,0.28944 -0.10255,0.85918 z"
       id="path36474" /></g><g
     id="g36075"
     transform="matrix(0.35277777,0,0,-0.35277776,6.9433957,23.331376)"><path
       d="M 0,0 -0.029,0.503 -0.115,0.999 -0.256,1.482 -0.452,1.946 -0.7,2.384 -0.996,2.792 -1.337,3.163 -1.717,3.492 -2.133,3.777 -2.578,4.011 -3.047,4.194 -3.534,4.322 -4.033,4.394 -4.536,4.408 -5.038,4.365 -5.531,4.265 -6.01,4.11 -6.468,3.9 -6.899,3.64 -7.298,3.333 -7.659,2.982 -7.978,2.592 -8.25,2.169 -8.472,1.717 -8.641,1.242 -8.755,0.752 -8.813,0.252 v -0.504 l 0.058,-0.5 0.114,-0.49 0.169,-0.475 0.222,-0.452 0.272,-0.423 0.319,-0.39 0.361,-0.351 0.399,-0.307 0.431,-0.26 0.458,-0.21 0.479,-0.155 0.493,-0.1 0.502,-0.043 0.503,0.014 0.499,0.072 0.487,0.128 0.469,0.183 0.445,0.234 0.416,0.285 0.38,0.329 0.341,0.371 0.296,0.408 0.248,0.438 0.196,0.464 0.141,0.483 0.086,0.496 L 0,0 m -6.93,-6.3 5.04,12.6"
       style="fill:none;stroke:#000000;stroke-width:0.51;stroke-linecap:butt;stroke-linejoin:miter;stroke-miterlimit:10;stroke-dasharray:none;stroke-opacity:1"
       id="path36077" /></g><g
     aria-label="8,0 "
     transform="matrix(1.0001505,0,0,0.99984953,-261.24136,-57.775411)"
     id="text36081"
     style="font-size:4.66735px;font-family:'Century Gothic';-inkscape-font-specification:CenturyGothic;stroke-width:0.352831"><path
       d="m 270.94904,80.991506 q 0.33957,0.168645 0.48543,0.385148 0.14813,0.216503 0.14813,0.492259 0,0.387427 -0.25297,0.683694 -0.30994,0.362358 -0.88652,0.362358 -0.55607,0 -0.84322,-0.316778 -0.28715,-0.319057 -0.28715,-0.701926 0,-0.280314 0.15041,-0.503654 0.15041,-0.225619 0.50137,-0.401101 -0.24613,-0.127623 -0.36919,-0.316778 -0.12306,-0.189155 -0.12306,-0.405658 0,-0.218782 0.1299,-0.426169 0.13218,-0.209666 0.36235,-0.328173 0.23246,-0.120786 0.50138,-0.120786 0.26208,0 0.48542,0.120786 0.22334,0.120786 0.34869,0.328173 0.12762,0.207387 0.12762,0.435285 0,0.227898 -0.12079,0.405658 -0.1185,0.17776 -0.3578,0.307662 z m -0.49909,-1.27167 q -0.27576,0 -0.45808,0.164086 -0.18004,0.161808 -0.18004,0.387427 0,0.22334 0.19372,0.405658 0.19599,0.18004 0.45579,0.18004 0.16637,0 0.3145,-0.08204 0.14814,-0.08204 0.23018,-0.22334 0.0843,-0.143575 0.0843,-0.287151 0,-0.202829 -0.16409,-0.373753 -0.16408,-0.170923 -0.4763,-0.170923 z m 0.0159,1.440315 q -0.3464,0 -0.58114,0.225619 -0.23473,0.22334 -0.23473,0.521886 0,0.184597 0.10027,0.348684 0.10028,0.164086 0.28032,0.252967 0.18003,0.08888 0.41705,0.08888 0.36691,0 0.58342,-0.216503 0.2165,-0.216503 0.2165,-0.505934 0,-0.280314 -0.23018,-0.496817 -0.22789,-0.218782 -0.55151,-0.218782 z"
       id="path36461" /><path
       d="m 272.41427,82.215318 0.30767,0.145855 -0.46264,0.861454 -0.22562,-0.09572 z"
       id="path36463" /><path
       d="m 273.18335,81.155593 q 0,-0.663183 0.1413,-1.025541 0.14357,-0.362358 0.40338,-0.549234 0.2598,-0.186876 0.58114,-0.186876 0.32589,0 0.59025,0.189155 0.26436,0.186876 0.41706,0.562908 0.15497,0.376032 0.15497,1.009588 0,0.631277 -0.1527,1.00503 -0.15041,0.373752 -0.41705,0.565187 -0.26664,0.189155 -0.59253,0.189155 -0.32134,0 -0.57886,-0.184597 -0.25753,-0.184598 -0.40338,-0.549234 -0.14358,-0.366916 -0.14358,-1.025541 z m 0.31678,0.0068 q 0,0.567466 0.10027,0.859175 0.10256,0.28943 0.30083,0.439843 0.19827,0.150413 0.41933,0.150413 0.22334,0 0.41705,-0.145855 0.19372,-0.148134 0.29399,-0.442122 0.12535,-0.3578 0.12535,-0.861454 0,-0.505934 -0.11167,-0.82727 -0.11167,-0.323615 -0.30994,-0.471748 -0.196,-0.150413 -0.41478,-0.150413 -0.22334,0 -0.41933,0.150413 -0.19599,0.148133 -0.29855,0.439843 -0.10255,0.28943 -0.10255,0.859175 z"
       id="path36465" /></g><g
     aria-label="4 x M4 "
     transform="matrix(1.0000865,0,0,0.9999135,-261.24136,-57.775411)"
     id="text36085"
     style="font-size:4.66705px;font-family:'Century Gothic';-inkscape-font-specification:CenturyGothic;stroke-width:0.352808"><path
       d="m 264.60866,57.780408 h 0.0684 v 2.335804 h 0.40563 v 0.321316 h -0.40563 v 0.77936 h -0.33499 v -0.77936 h -1.60202 z m -0.26662,2.335804 v -1.396924 l -0.98673,1.396924 z"
       id="path36452" /><path
       d="m 266.57344,58.737518 h 0.38285 l 0.6563,0.91837 0.6563,-0.91837 h 0.38285 l -0.84773,1.178157 0.95483,1.301213 h -0.3874 l -0.75885,-1.041426 -0.74746,1.041426 h -0.38056 l 0.93888,-1.301213 z"
       id="path36454" /><path
       d="m 270.28932,61.216888 0.47627,-3.352163 h 0.0547 l 1.36274,2.750552 1.34907,-2.750552 h 0.0547 l 0.48083,3.352163 h -0.33043 l -0.32815,-2.397332 -1.18499,2.397332 h -0.0843 l -1.20095,-2.415563 -0.32587,2.415563 z"
       id="path36456" /><path
       d="m 276.31099,57.780408 h 0.0684 v 2.335804 h 0.40563 v 0.321316 h -0.40563 v 0.77936 h -0.33499 v -0.77936 h -1.60202 z m -0.26662,2.335804 v -1.396924 l -0.98673,1.396924 z"
       id="path36458" /></g><g
     id="g36087"
     transform="matrix(0.35277777,0,0,-0.35277776,5.6503157,43.541489)"><path
       d="M 0,0 -0.029,0.503 -0.115,0.999 -0.256,1.482 -0.452,1.946 -0.7,2.384 -0.996,2.792 -1.336,3.163 -1.717,3.492 -2.133,3.776 -2.578,4.011 -3.047,4.194 -3.534,4.322 -4.033,4.394 -4.536,4.408 -5.038,4.365 -5.531,4.265 -6.01,4.109 -6.468,3.9 -6.899,3.64 -7.298,3.333 -7.659,2.982 -7.978,2.592 -8.25,2.169 -8.472,1.717 -8.641,1.242 -8.755,0.752 -8.813,0.252 v -0.504 l 0.058,-0.5 0.114,-0.49 0.169,-0.475 0.222,-0.452 0.272,-0.423 0.319,-0.39 0.361,-0.351 0.399,-0.307 0.431,-0.26 0.458,-0.21 0.479,-0.155 0.493,-0.1 0.502,-0.043 0.503,0.014 0.499,0.072 0.487,0.128 0.469,0.183 0.445,0.234 0.416,0.285 0.381,0.329 0.34,0.371 0.296,0.408 0.248,0.438 0.196,0.464 0.141,0.483 0.086,0.496 L 0,0 m -6.93,-6.3 5.04,12.6"
       style="fill:none;stroke:#000000;stroke-width:0.51;stroke-linecap:butt;stroke-linejoin:miter;stroke-miterlimit:10;stroke-dasharray:none;stroke-opacity:1"
       id="path36089" /></g><g
     aria-label="44,0 "
     transform="matrix(1.0001505,0,0,0.99984953,-261.24136,-57.775411)"
     id="text36093"
     style="font-size:4.66735px;font-family:'Century Gothic';-inkscape-font-specification:CenturyGothic;stroke-width:0.352831"><path
       d="m 269.84988,99.60713 h 0.0684 v 2.33595 h 0.40566 v 0.32134 h -0.40566 v 0.77941 h -0.33501 v -0.77941 h -1.60212 z m -0.26664,2.33595 v -1.39701 l -0.9868,1.39701 z"
       id="path36443" /><path
       d="m 272.43637,99.60713 h 0.0684 v 2.33595 h 0.40565 v 0.32134 h -0.40565 v 0.77941 h -0.33501 v -0.77941 h -1.60213 z m -0.26664,2.33595 v -1.39701 l -0.9868,1.39701 z"
       id="path36445" /><path
       d="m 273.70788,102.42851 0.30766,0.14585 -0.46263,0.86146 -0.22562,-0.0957 z"
       id="path36447" /><path
       d="m 274.47696,101.36878 q 0,-0.66318 0.1413,-1.02554 0.14357,-0.362357 0.40338,-0.549234 0.2598,-0.186876 0.58114,-0.186876 0.32589,0 0.59025,0.189155 0.26436,0.186877 0.41706,0.562905 0.15497,0.37603 0.15497,1.00959 0,0.63128 -0.1527,1.00503 -0.15041,0.37375 -0.41705,0.56519 -0.26664,0.18915 -0.59253,0.18915 -0.32134,0 -0.57886,-0.18459 -0.25753,-0.1846 -0.40338,-0.54924 -0.14358,-0.36691 -0.14358,-1.02554 z m 0.31678,0.007 q 0,0.56746 0.10027,0.85917 0.10256,0.28943 0.30083,0.43985 0.19827,0.15041 0.41933,0.15041 0.22334,0 0.41705,-0.14586 0.19372,-0.14813 0.29399,-0.44212 0.12535,-0.3578 0.12535,-0.86145 0,-0.50594 -0.11167,-0.82727 -0.11167,-0.32362 -0.30994,-0.47175 -0.196,-0.150413 -0.41478,-0.150413 -0.22334,0 -0.41933,0.150413 -0.19599,0.14813 -0.29855,0.43984 -0.10255,0.28943 -0.10255,0.85918 z"
       id="path36449" /></g><g
     aria-label="55,0 35,0 "
     transform="matrix(1.0001505,0,0,0.99984953,-261.24136,-57.775411)"
     id="text36097"
     style="font-size:4.66735px;font-family:'Century Gothic';-inkscape-font-specification:CenturyGothic;stroke-width:0.352831"><path
       d="m 385.87342,131.31744 v 0.31905 h -1.19418 l -0.16637,0.91387 q 0.21878,-0.0638 0.39427,-0.0638 0.45807,0 0.75434,0.30767 0.29854,0.30538 0.29854,0.78396 0,0.33046 -0.15269,0.60621 -0.15269,0.27576 -0.41477,0.42389 -0.2598,0.14586 -0.60165,0.14586 -0.40794,0 -0.68825,-0.24841 -0.28032,-0.25069 -0.33501,-0.64723 h 0.34412 q 0.0387,0.19371 0.1299,0.3145 0.0934,0.12078 0.24613,0.19599 0.15497,0.0729 0.32362,0.0729 0.33045,0 0.56746,-0.25069 0.23702,-0.25069 0.23702,-0.62672 0,-0.33957 -0.21423,-0.55151 -0.21422,-0.21195 -0.57202,-0.21195 -0.29627,0 -0.71788,0.18004 l 0.30994,-1.66365 z"
       id="path36426" /><path
       d="m 388.45994,131.31744 v 0.31905 h -1.19418 l -0.16637,0.91387 q 0.21878,-0.0638 0.39426,-0.0638 0.45808,0 0.75435,0.30767 0.29854,0.30538 0.29854,0.78396 0,0.33046 -0.15269,0.60621 -0.15269,0.27576 -0.41477,0.42389 -0.25981,0.14586 -0.60165,0.14586 -0.40794,0 -0.68826,-0.24841 -0.28031,-0.25069 -0.33501,-0.64723 h 0.34413 q 0.0387,0.19371 0.1299,0.3145 0.0934,0.12078 0.24613,0.19599 0.15497,0.0729 0.32362,0.0729 0.33045,0 0.56746,-0.25069 0.23702,-0.25069 0.23702,-0.62672 0,-0.33957 -0.21423,-0.55151 -0.21422,-0.21195 -0.57202,-0.21195 -0.29627,0 -0.71788,0.18004 l 0.30994,-1.66365 z"
       id="path36428" /><path
       d="m 389.42379,134.05449 0.30767,0.14586 -0.46264,0.86145 -0.22562,-0.0957 z"
       id="path36430" /><path
       d="m 390.19287,132.99477 q 0,-0.66319 0.1413,-1.02555 0.14357,-0.36235 0.40338,-0.54923 0.2598,-0.18688 0.58114,-0.18688 0.32589,0 0.59025,0.18916 0.26437,0.18688 0.41706,0.56291 0.15497,0.37603 0.15497,1.00959 0,0.63127 -0.15269,1.00503 -0.15042,0.37375 -0.41706,0.56518 -0.26664,0.18916 -0.59253,0.18916 -0.32134,0 -0.57886,-0.1846 -0.25753,-0.1846 -0.40338,-0.54923 -0.14358,-0.36692 -0.14358,-1.02554 z m 0.31678,0.007 q 0,0.56747 0.10028,0.85918 0.10255,0.28943 0.30082,0.43984 0.19827,0.15041 0.41933,0.15041 0.22334,0 0.41706,-0.14585 0.19371,-0.14814 0.29398,-0.44212 0.12535,-0.3578 0.12535,-0.86146 0,-0.50593 -0.11167,-0.82727 -0.11167,-0.32361 -0.30994,-0.47175 -0.19599,-0.15041 -0.41478,-0.15041 -0.22334,0 -0.41933,0.15041 -0.19599,0.14814 -0.29855,0.43985 -0.10255,0.28943 -0.10255,0.85917 z"
       id="path36432" /><path
       d="m 429.20339,132.09457 h -0.34185 q 0.0934,-0.41478 0.3578,-0.63812 0.26436,-0.22334 0.62444,-0.22334 0.26208,0 0.4877,0.12079 0.2279,0.11851 0.35097,0.32134 0.12534,0.20283 0.12534,0.42389 0,0.433 -0.43073,0.68597 0.24157,0.098 0.39655,0.28715 0.21878,0.26664 0.21878,0.59709 0,0.28488 -0.15042,0.54468 -0.15041,0.25752 -0.41021,0.39882 -0.25981,0.1413 -0.58114,0.1413 -0.43301,0 -0.72244,-0.24841 -0.28943,-0.25069 -0.37831,-0.73383 h 0.32817 q 0.0866,0.32589 0.24841,0.47175 0.20739,0.18459 0.52873,0.18459 0.36463,0 0.58569,-0.21878 0.22107,-0.21878 0.22107,-0.51277 0,-0.19599 -0.11167,-0.36691 -0.1094,-0.17093 -0.29627,-0.25753 -0.1846,-0.0866 -0.5743,-0.10711 v -0.30766 q 0.23017,0 0.41933,-0.0798 0.18915,-0.082 0.27347,-0.20739 0.0866,-0.12534 0.0866,-0.27347 0,-0.21878 -0.17549,-0.37831 -0.1732,-0.15953 -0.43984,-0.15953 -0.2165,0 -0.37375,0.12306 -0.15725,0.12079 -0.26664,0.4125 z"
       id="path36434" /><path
       d="m 433.4672,131.31744 v 0.31905 h -1.19418 l -0.16637,0.91387 q 0.21879,-0.0638 0.39427,-0.0638 0.45807,0 0.75434,0.30767 0.29855,0.30538 0.29855,0.78396 0,0.33046 -0.1527,0.60621 -0.15269,0.27576 -0.41477,0.42389 -0.2598,0.14586 -0.60165,0.14586 -0.40794,0 -0.68825,-0.24841 -0.28032,-0.25069 -0.33501,-0.64723 h 0.34412 q 0.0387,0.19371 0.1299,0.3145 0.0934,0.12078 0.24613,0.19599 0.15498,0.0729 0.32362,0.0729 0.33045,0 0.56747,-0.25069 0.23701,-0.25069 0.23701,-0.62672 0,-0.33957 -0.21422,-0.55151 -0.21423,-0.21195 -0.57203,-0.21195 -0.29627,0 -0.71788,0.18004 l 0.30994,-1.66365 z"
       id="path36436" /><path
       d="m 434.43106,134.05449 0.30766,0.14586 -0.46263,0.86145 -0.22562,-0.0957 z"
       id="path36438" /><path
       d="m 435.20014,132.99477 q 0,-0.66319 0.14129,-1.02555 0.14358,-0.36235 0.40338,-0.54923 0.25981,-0.18688 0.58114,-0.18688 0.3259,0 0.59026,0.18916 0.26436,0.18688 0.41705,0.56291 0.15497,0.37603 0.15497,1.00959 0,0.63127 -0.15269,1.00503 -0.15041,0.37375 -0.41705,0.56518 -0.26664,0.18916 -0.59254,0.18916 -0.32133,0 -0.57886,-0.1846 -0.25752,-0.1846 -0.40338,-0.54923 -0.14357,-0.36692 -0.14357,-1.02554 z m 0.31677,0.007 q 0,0.56747 0.10028,0.85918 0.10255,0.28943 0.30082,0.43984 0.19828,0.15041 0.41934,0.15041 0.22334,0 0.41705,-0.14585 0.19371,-0.14814 0.29399,-0.44212 0.12534,-0.3578 0.12534,-0.86146 0,-0.50593 -0.11167,-0.82727 -0.11167,-0.32361 -0.30994,-0.47175 -0.19599,-0.15041 -0.41477,-0.15041 -0.22334,0 -0.41934,0.15041 -0.19599,0.14814 -0.29854,0.43985 -0.10256,0.28943 -0.10256,0.85917 z"
       id="path36440" /></g><g
     aria-label="3x3 Passfedernut"
     transform="matrix(1.0000595,0,0,0.9999405,-261.24136,-57.775411)"
     id="text36101"
     style="font-size:4.66693px;font-family:'Century Gothic';-inkscape-font-specification:CenturyGothic;stroke-width:0.352799"><path
       d="m 425.56997,74.702664 h -0.34182 q 0.0934,-0.414737 0.35777,-0.638057 0.26434,-0.22332 0.62439,-0.22332 0.26206,0 0.48765,0.120776 0.22788,0.118496 0.35094,0.321307 0.12533,0.202811 0.12533,0.423852 0,0.432967 -0.43069,0.685911 0.24155,0.09799 0.39651,0.287126 0.21876,0.266616 0.21876,0.597038 0,0.284847 -0.1504,0.544628 -0.1504,0.257501 -0.41018,0.398785 -0.25978,0.141284 -0.58109,0.141284 -0.43296,0 -0.72237,-0.248386 -0.2894,-0.250666 -0.37828,-0.733766 h 0.32815 q 0.0866,0.325865 0.24838,0.471707 0.20737,0.18458 0.52868,0.18458 0.3646,0 0.58565,-0.218762 0.22104,-0.218762 0.22104,-0.512724 0,-0.195975 -0.11166,-0.366883 -0.10938,-0.170908 -0.29624,-0.257501 -0.18458,-0.08659 -0.57426,-0.107103 v -0.307634 q 0.23016,0 0.4193,-0.07976 0.18914,-0.08204 0.27345,-0.207368 0.0866,-0.125333 0.0866,-0.273453 0,-0.218762 -0.17547,-0.378277 -0.17319,-0.159514 -0.4398,-0.159514 -0.21649,0 -0.37372,0.123054 -0.15724,0.120775 -0.26662,0.412458 z"
       id="path36395" /><path
       d="m 427.61113,74.798373 h 0.38283 l 0.65629,0.918346 0.65629,-0.918346 h 0.38283 l -0.8477,1.178126 0.9548,1.30118 h -0.38739 l -0.75883,-1.0414 -0.74744,1.0414 h -0.38055 l 0.93885,-1.30118 z"
       id="path36397" /><path
       d="m 430.39614,74.702664 h -0.34181 q 0.0934,-0.414737 0.35776,-0.638057 0.26434,-0.22332 0.62439,-0.22332 0.26206,0 0.48766,0.120776 0.22787,0.118496 0.35093,0.321307 0.12533,0.202811 0.12533,0.423852 0,0.432967 -0.43069,0.685911 0.24155,0.09799 0.39651,0.287126 0.21876,0.266616 0.21876,0.597038 0,0.284847 -0.1504,0.544628 -0.1504,0.257501 -0.41018,0.398785 -0.25978,0.141284 -0.58109,0.141284 -0.43296,0 -0.72237,-0.248386 -0.2894,-0.250666 -0.37827,-0.733766 h 0.32814 q 0.0866,0.325865 0.24839,0.471707 0.20737,0.18458 0.52867,0.18458 0.36461,0 0.58565,-0.218762 0.22104,-0.218762 0.22104,-0.512724 0,-0.195975 -0.11166,-0.366883 -0.10938,-0.170908 -0.29624,-0.257501 -0.18458,-0.08659 -0.57425,-0.107103 v -0.307634 q 0.23015,0 0.41929,-0.07976 0.18914,-0.08204 0.27345,-0.207368 0.0866,-0.125333 0.0866,-0.273453 0,-0.218762 -0.17547,-0.378277 -0.17318,-0.159514 -0.4398,-0.159514 -0.21649,0 -0.37372,0.123054 -0.15724,0.120775 -0.26662,0.412458 z"
       id="path36399" /><path
       d="m 434.06288,73.925602 h 0.66768 q 0.57425,0 0.77478,0.05013 0.28713,0.07064 0.46943,0.291683 0.1823,0.218763 0.1823,0.551464 0,0.33498 -0.17774,0.553742 -0.17775,0.216484 -0.48994,0.291683 -0.22788,0.05469 -0.85226,0.05469 h -0.23927 v 1.558681 h -0.33498 z m 0.33498,0.325865 v 1.139387 l 0.56741,0.0068 q 0.3441,0 0.50361,-0.06153 0.15952,-0.06381 0.25067,-0.202811 0.0911,-0.141284 0.0911,-0.314471 0,-0.16863 -0.0911,-0.307635 -0.0912,-0.141284 -0.24155,-0.200532 -0.14812,-0.05925 -0.48766,-0.05925 z"
       id="path36401" /><path
       d="m 439.24609,74.798373 v 2.479306 h -0.31447 v -0.42613 q -0.20053,0.243828 -0.4512,0.366882 -0.24838,0.123054 -0.54462,0.123054 -0.5264,0 -0.90012,-0.380555 -0.37144,-0.382834 -0.37144,-0.92974 0,-0.535512 0.376,-0.916068 0.37599,-0.380555 0.90467,-0.380555 0.30536,0 0.55146,0.12989 0.24839,0.12989 0.43525,0.389671 v -0.455755 z m -1.27611,0.243829 q -0.26662,0 -0.49222,0.132169 -0.2256,0.12989 -0.36004,0.366882 -0.13217,0.236993 -0.13217,0.501331 0,0.262059 0.13444,0.50133 0.13445,0.239271 0.36005,0.373719 0.22788,0.132169 0.48766,0.132169 0.26206,0 0.49677,-0.132169 0.23471,-0.132169 0.36005,-0.357768 0.12761,-0.225598 0.12761,-0.508166 0,-0.430689 -0.28485,-0.720093 -0.28257,-0.289404 -0.6973,-0.289404 z"
       id="path36403" /><path
       d="m 441.21029,75.069547 -0.20509,0.211926 q -0.25523,-0.248386 -0.49906,-0.248386 -0.15495,0 -0.26661,0.102544 -0.10938,0.102545 -0.10938,0.239272 0,0.120775 0.0911,0.230156 0.0912,0.11166 0.38283,0.262059 0.35549,0.184581 0.4831,0.355489 0.12533,0.173187 0.12533,0.38967 0,0.305356 -0.2142,0.517282 -0.21421,0.211926 -0.53551,0.211926 -0.21421,0 -0.41018,-0.09343 -0.1937,-0.09343 -0.32131,-0.257501 l 0.20053,-0.227878 q 0.24383,0.275732 0.51728,0.275732 0.19142,0 0.32587,-0.123054 0.13445,-0.123054 0.13445,-0.289404 0,-0.136727 -0.0889,-0.243829 -0.0889,-0.104824 -0.40106,-0.264338 -0.33498,-0.173187 -0.45575,-0.341816 -0.12078,-0.168629 -0.12078,-0.385113 0,-0.282568 0.19142,-0.469427 0.19369,-0.18686 0.48766,-0.18686 0.34181,0 0.68819,0.33498 z"
       id="path36405" /><path
       d="m 443.02126,75.069547 -0.20509,0.211926 q -0.25522,-0.248386 -0.49905,-0.248386 -0.15496,0 -0.26662,0.102544 -0.10938,0.102545 -0.10938,0.239272 0,0.120775 0.0911,0.230156 0.0912,0.11166 0.38284,0.262059 0.35548,0.184581 0.4831,0.355489 0.12533,0.173187 0.12533,0.38967 0,0.305356 -0.21421,0.517282 -0.2142,0.211926 -0.53551,0.211926 -0.2142,0 -0.41018,-0.09343 -0.19369,-0.09343 -0.32131,-0.257501 l 0.20054,-0.227878 q 0.24383,0.275732 0.51728,0.275732 0.19142,0 0.32586,-0.123054 0.13445,-0.123054 0.13445,-0.289404 0,-0.136727 -0.0889,-0.243829 -0.0889,-0.104824 -0.40107,-0.264338 -0.33498,-0.173187 -0.45575,-0.341816 -0.12078,-0.168629 -0.12078,-0.385113 0,-0.282568 0.19142,-0.469427 0.1937,-0.18686 0.48766,-0.18686 0.34182,0 0.68819,0.33498 z"
       id="path36407" /><path
       d="m 444.60667,73.841287 v 0.312193 q -0.17547,-0.0752 -0.3008,-0.0752 -0.0934,0 -0.15496,0.03874 -0.0615,0.03646 -0.0775,0.08659 -0.0159,0.04785 -0.0159,0.25978 v 0.33498 h 0.51728 v 0.273453 h -0.51956 v 2.205853 h -0.31903 v -2.205853 h -0.32586 V 74.79837 h 0.32586 v -0.387392 q 0,-0.266617 0.0479,-0.380555 0.0501,-0.113939 0.16635,-0.182302 0.11849,-0.07064 0.28485,-0.07064 0.15495,0 0.37144,0.0638 z"
       id="path36409" /><path
       d="m 447.13871,76.455042 0.26889,0.141284 q -0.13217,0.25978 -0.30535,0.419294 -0.17319,0.159515 -0.38967,0.243829 -0.21649,0.08204 -0.48994,0.08204 -0.60615,0 -0.94797,-0.396507 -0.34182,-0.398785 -0.34182,-0.900116 0,-0.471706 0.28941,-0.840867 0.36688,-0.469428 0.98215,-0.469428 0.6335,0 1.01178,0.480822 0.26889,0.339537 0.27345,0.847704 H 445.261 q 0.009,0.432967 0.27573,0.710977 0.26662,0.275732 0.65857,0.275732 0.18913,0 0.36688,-0.06608 0.18002,-0.06609 0.30535,-0.175466 0.12534,-0.109381 0.27118,-0.35321 z m 0,-0.667681 q -0.0638,-0.255223 -0.18686,-0.407901 -0.12078,-0.152678 -0.32131,-0.246107 -0.20053,-0.09343 -0.42157,-0.09343 -0.36461,0 -0.62666,0.234714 -0.19142,0.170908 -0.28941,0.512724 z"
       id="path36411" /><path
       d="m 450.55997,73.841287 v 3.436392 h -0.31447 v -0.42613 q -0.20053,0.243828 -0.45119,0.366882 -0.24839,0.123054 -0.54463,0.123054 -0.5264,0 -0.90012,-0.380555 -0.37144,-0.382834 -0.37144,-0.92974 0,-0.535512 0.376,-0.916068 0.376,-0.380555 0.90467,-0.380555 0.30536,0 0.55147,0.12989 0.24838,0.12989 0.43524,0.389671 v -1.412841 z m -1.27611,1.200915 q -0.26662,0 -0.49221,0.132169 -0.2256,0.12989 -0.36005,0.366882 -0.13217,0.236993 -0.13217,0.501331 0,0.262059 0.13445,0.50133 0.13445,0.239271 0.36004,0.373719 0.22788,0.132169 0.48766,0.132169 0.26206,0 0.49677,-0.132169 0.23472,-0.132169 0.36005,-0.357768 0.12761,-0.225598 0.12761,-0.508166 0,-0.430689 -0.28484,-0.720093 -0.28257,-0.289404 -0.69731,-0.289404 z"
       id="path36413" /><path
       d="m 453.36979,76.455042 0.26889,0.141284 q -0.13217,0.25978 -0.30535,0.419294 -0.17319,0.159515 -0.38967,0.243829 -0.21649,0.08204 -0.48994,0.08204 -0.60615,0 -0.94797,-0.396507 -0.34182,-0.398785 -0.34182,-0.900116 0,-0.471706 0.28941,-0.840867 0.36688,-0.469428 0.98215,-0.469428 0.6335,0 1.01178,0.480822 0.26889,0.339537 0.27345,0.847704 h -2.22864 q 0.009,0.432967 0.27573,0.710977 0.26662,0.275732 0.65856,0.275732 0.18914,0 0.36689,-0.06608 0.18002,-0.06609 0.30535,-0.175466 0.12534,-0.109381 0.27118,-0.35321 z m 0,-0.667681 q -0.0638,-0.255223 -0.18686,-0.407901 -0.12078,-0.152678 -0.32131,-0.246107 -0.20053,-0.09343 -0.42157,-0.09343 -0.36461,0 -0.62667,0.234714 -0.19141,0.170908 -0.2894,0.512724 z"
       id="path36415" /><path
       d="m 454.19553,74.798373 h 0.32586 v 0.362325 q 0.14585,-0.214205 0.30764,-0.319029 0.16179,-0.107102 0.33726,-0.107102 0.13217,0 0.28257,0.08432 l -0.16636,0.268895 q -0.10026,-0.0433 -0.16862,-0.0433 -0.15952,0 -0.30764,0.132169 -0.14812,0.12989 -0.2256,0.405622 -0.0593,0.211926 -0.0593,0.856819 v 0.838589 h -0.32586 z"
       id="path36417" /><path
       d="m 455.72121,74.798373 h 0.31903 v 0.444361 q 0.19142,-0.255223 0.42385,-0.380556 0.23244,-0.127611 0.50589,-0.127611 0.27801,0 0.49222,0.141284 0.21648,0.141284 0.31902,0.380555 0.10255,0.239272 0.10255,0.74516 v 1.276113 h -0.31675 v -1.182684 q 0,-0.428409 -0.0365,-0.571972 -0.057,-0.246108 -0.21421,-0.369161 -0.15723,-0.125333 -0.41018,-0.125333 -0.2894,0 -0.51956,0.191417 -0.22787,0.191417 -0.30079,0.473985 -0.0456,0.184581 -0.0456,0.674517 v 0.909231 h -0.31903 z"
       id="path36419" /><path
       d="m 458.52736,74.798373 h 0.32131 v 1.157617 q 0,0.423852 0.0456,0.583367 0.0684,0.227877 0.25978,0.360046 0.1937,0.132169 0.46032,0.132169 0.26661,0 0.45119,-0.127612 0.18686,-0.12989 0.25751,-0.339537 0.0478,-0.143563 0.0478,-0.608433 v -1.157617 h 0.32586 v 1.216865 q 0,0.512725 -0.12077,0.772505 -0.1185,0.25978 -0.36005,0.407901 -0.23927,0.145841 -0.60159,0.145841 -0.36233,0 -0.60616,-0.145841 -0.24155,-0.148121 -0.36232,-0.41018 -0.1185,-0.264338 -0.1185,-0.793013 z"
       id="path36421" /><path
       d="m 461.68422,73.877748 h 0.32131 v 0.920625 h 0.50588 v 0.273453 h -0.50588 v 2.205853 h -0.32131 v -2.205853 h -0.43525 v -0.273453 h 0.43525 z"
       id="path36423" /></g><g
     id="g36103"
     transform="matrix(0.35277777,0,0,-0.35277776,34.177236,34.45594)"><path
       d="M 0,0 -0.555,0.119 -1.12,0.183 -1.688,0.189 -2.254,0.138 -2.812,0.031 -3.357,-0.131 -3.882,-0.347 -4.384,-0.614 -4.856,-0.931 -5.294,-1.293 -5.693,-1.697 -6.05,-2.139 l -0.311,-0.475 -0.262,-0.504 -0.21,-0.528 -0.156,-0.547 -0.101,-0.559 -0.044,-0.566 0.012,-0.568 0.07,-0.564 0.125,-0.554 0.181,-0.539 0.233,-0.518 0.284,-0.492 0.332,-0.461 0.376,-0.426 0.418,-0.386 0.453,-0.342 0.486,-0.295 0.513,-0.245 0.534,-0.192 0.551,-0.138 0.563,-0.082 0.567,-0.025 0.568,0.031 0.561,0.089 0.55,0.144 0.532,0.198 0.51,0.25 0.482,0.301 0.45,0.347 0.413,0.39 0.371,0.43 0.327,0.465 0.279,0.495 0.227,0.521 0.175,0.541"
       style="fill:none;stroke:#000000;stroke-width:0.51;stroke-linecap:butt;stroke-linejoin:miter;stroke-miterlimit:10;stroke-dasharray:18, 3.6, 3.6, 3.6, 3.6, 3.6;stroke-dashoffset:13.648;stroke-opacity:1"
       id="path36105" /></g><g
     id="g36107"
     transform="matrix(0.35277777,0,0,-0.35277776,78.177236,34.45594)"><path
       d="M 0,0 -0.556,0.119 -1.12,0.183 -1.688,0.189 -2.254,0.138 -2.812,0.031 -3.357,-0.131 -3.882,-0.347 -4.384,-0.614 -4.856,-0.931 -5.294,-1.293 -5.693,-1.697 -6.05,-2.139 l -0.311,-0.475 -0.262,-0.504 -0.21,-0.528 -0.156,-0.547 -0.101,-0.559 -0.044,-0.566 0.012,-0.568 0.07,-0.564 0.125,-0.554 0.181,-0.539 0.233,-0.518 0.284,-0.492 0.332,-0.461 0.376,-0.426 0.418,-0.386 0.453,-0.342 0.486,-0.295 0.513,-0.245 0.534,-0.192 0.551,-0.138 0.563,-0.082 0.567,-0.025 0.568,0.031 0.561,0.089 0.549,0.144 0.533,0.198 0.51,0.25 0.482,0.301 0.45,0.347 0.413,0.39 0.371,0.43 0.327,0.465 0.279,0.495 0.227,0.521 0.175,0.541"
       style="fill:none;stroke:#000000;stroke-width:0.51;stroke-linecap:butt;stroke-linejoin:miter;stroke-miterlimit:10;stroke-dasharray:18, 3.6, 3.6, 3.6, 3.6, 3.6;stroke-dashoffset:13.648;stroke-opacity:1"
       id="path36109" /></g><g
     id="g36111"
     transform="matrix(0.35277777,0,0,-0.35277776,56.177236,56.455939)"><path
       d="M 0,0 -0.556,0.119 -1.12,0.183 -1.688,0.189 -2.254,0.138 -2.812,0.031 -3.357,-0.131 -3.882,-0.347 -4.384,-0.614 -4.856,-0.931 -5.294,-1.293 -5.693,-1.697 -6.05,-2.139 l -0.311,-0.475 -0.262,-0.504 -0.21,-0.528 -0.156,-0.547 -0.101,-0.559 -0.044,-0.566 0.012,-0.568 0.07,-0.564 0.125,-0.554 0.181,-0.539 0.233,-0.518 0.284,-0.492 0.332,-0.461 0.376,-0.426 0.418,-0.386 0.453,-0.342 0.486,-0.295 0.513,-0.245 0.534,-0.192 0.551,-0.138 0.563,-0.082 0.567,-0.025 0.568,0.031 0.561,0.089 0.549,0.144 0.533,0.198 0.51,0.25 0.482,0.301 0.45,0.347 0.413,0.39 0.371,0.43 0.327,0.465 0.279,0.495 0.227,0.521 0.175,0.541"
       style="fill:none;stroke:#000000;stroke-width:0.51;stroke-linecap:butt;stroke-linejoin:miter;stroke-miterlimit:10;stroke-dasharray:18, 3.6, 3.6, 3.6, 3.6, 3.6;stroke-dashoffset:13.648;stroke-opacity:1"
       id="path36113" /></g><g
     id="g36115"
     transform="matrix(0.35277777,0,0,-0.35277776,56.177236,12.455943)"><path
       d="M 0,0 -0.556,0.119 -1.12,0.183 -1.688,0.189 -2.254,0.138 -2.812,0.031 -3.357,-0.131 -3.882,-0.347 -4.384,-0.614 -4.856,-0.931 -5.294,-1.293 -5.693,-1.697 -6.05,-2.139 l -0.311,-0.475 -0.262,-0.504 -0.21,-0.528 -0.156,-0.547 -0.101,-0.559 -0.044,-0.566 0.012,-0.568 0.07,-0.564 0.125,-0.554 0.181,-0.539 0.233,-0.518 0.284,-0.492 0.332,-0.461 0.376,-0.426 0.418,-0.386 0.453,-0.342 0.486,-0.295 0.513,-0.245 0.534,-0.192 0.551,-0.138 0.563,-0.082 0.567,-0.025 0.568,0.031 0.561,0.089 0.549,0.144 0.533,0.198 0.51,0.25 0.482,0.301 0.45,0.347 0.413,0.39 0.371,0.43 0.327,0.465 0.279,0.495 0.227,0.521 0.175,0.541"
       style="fill:none;stroke:#000000;stroke-width:0.51;stroke-linecap:butt;stroke-linejoin:miter;stroke-miterlimit:10;stroke-dasharray:18, 3.6, 3.6, 3.6, 3.6, 3.6;stroke-dashoffset:13.648;stroke-opacity:1"
       id="path36117" /></g><g
     id="g36119"
     transform="matrix(0.35277777,0,0,-0.35277776,171.36705,34.881567)"><path
       d="M 0,0 2.873,9.139 6.417,7.113 0,0 m 0,0 3.382,5.79 2.976,4.414 2.795,3.032 2.777,1.822 2.279,0.815 2.356,0.522 2.431,0.562 2.475,1.011 2.467,1.939 1.338,1.679 1.295,2.239 1.231,2.91 1.145,3.702 1.035,4.616 0.899,5.665"
       style="fill:none;stroke:#000000;stroke-width:0.51;stroke-linecap:butt;stroke-linejoin:miter;stroke-miterlimit:10;stroke-dasharray:none;stroke-opacity:1"
       id="path36121" /></g><g
     id="g36123"
     transform="matrix(0.35277777,0,0,-0.35277776,76.909946,30.693777)"><path
       d="M 0,0 -9.569,-0.451 -8.513,-4.394 0,0 m -120.475,-32.281 9.57,0.451 -1.057,3.943 -8.513,-4.394"
       style="fill:none;stroke:#000000;stroke-width:0.51;stroke-linecap:butt;stroke-linejoin:miter;stroke-miterlimit:10;stroke-dasharray:none;stroke-opacity:1"
       id="path36125" /></g><g
     id="g36127"
     transform="matrix(0.35277777,0,0,-0.35277776,76.698316,29.955625)"><path
       d="m 0,0 -0.578,1.793 -0.632,1.775 -0.685,1.754 -0.738,1.734 -0.789,1.71 -0.841,1.685 -0.892,1.66 -0.941,1.631 -0.991,1.603 -1.038,1.572 -1.085,1.539 -1.131,1.507 -1.176,1.471 -1.22,1.436 -1.263,1.397 -1.304,1.359 -1.345,1.319 -1.384,1.278 -1.423,1.235 -1.458,1.192 -1.494,1.148 -1.528,1.101 -1.561,1.055 -1.592,1.007 -1.621,0.959 -1.65,0.91 -1.676,0.859 -1.702,0.808 -1.725,0.756 -1.748,0.704 -1.767,0.651 -1.787,0.597 -1.804,0.543 -1.819,0.488 -1.833,0.433 -1.846,0.378 -1.856,0.321 -1.865,0.265 -1.872,0.209 -1.878,0.152 -1.881,0.096 -1.883,0.038 -1.884,-0.018 -1.882,-0.075 -1.879,-0.132 -1.875,-0.189 -1.867,-0.245 -1.86,-0.302 -1.849,-0.357 -1.838,-0.414 -1.825,-0.468 -1.809,-0.524 -1.793,-0.578 -1.775,-0.631 -1.755,-0.685 -1.733,-0.738 -1.71,-0.79 -1.686,-0.841 -1.659,-0.892 -1.632,-0.941 -1.602,-0.99 -1.572,-1.038 -1.54,-1.086 -1.506,-1.131 -1.472,-1.176 -1.435,-1.22 -1.398,-1.263 -1.359,-1.304 -1.319,-1.345 -1.277,-1.384 -1.236,-1.422 -1.192,-1.459 -1.147,-1.494 -1.101,-1.528 -1.055,-1.561 -1.008,-1.592 -0.958,-1.621 -0.91,-1.65 -0.859,-1.676 -0.808,-1.702 -0.756,-1.725 -0.704,-1.747 -0.651,-1.768 -0.597,-1.787 -0.543,-1.803 -0.488,-1.82 -0.433,-1.833 -0.378,-1.846 -0.321,-1.856 -0.266,-1.865 -0.208,-1.872 -0.153,-1.877 -0.095,-1.882 -0.039,-1.883 0.019,-1.884 0.075,-1.882 0.132,-1.879 0.189,-1.874 0.245,-1.868 0.301,-1.86 0.358,-1.849 0.413,-1.838 0.469,-1.824 0.523,-1.81 0.578,-1.793 0.632,-1.774 0.685,-1.755 0.738,-1.733 0.79,-1.711 0.841,-1.685 0.891,-1.66 0.942,-1.631 0.99,-1.603 1.038,-1.572 1.085,-1.539 1.131,-1.507 1.176,-1.471 1.221,-1.435 1.262,-1.398 1.305,-1.359 1.345,-1.319 1.384,-1.278 1.422,-1.235 1.459,-1.192 1.494,-1.147 1.528,-1.102 1.56,-1.055 1.592,-1.007 1.622,-0.959 1.649,-0.91 1.677,-0.859 1.701,-0.808 1.726,-0.756 1.747,-0.704 1.768,-0.651 1.786,-0.597 1.804,-0.543 1.819,-0.488 1.834,-0.433 1.845,-0.377 1.856,-0.322 1.865,-0.265 1.873,-0.209 1.877,-0.152 1.881,-0.096 1.884,-0.038 1.883,0.018 1.883,0.075 1.879,0.132 1.874,0.189 1.868,0.245 1.859,0.302 1.85,0.357 1.838,0.414 1.824,0.468 1.81,0.524 1.793,0.578 1.774,0.631 1.755,0.686 1.733,0.737 1.71,0.79 1.686,0.841 1.659,0.892 1.632,0.941 1.602,0.99 1.572,1.038 1.54,1.086 1.506,1.131 1.472,1.176 1.435,1.22 1.398,1.263 1.359,1.304 1.319,1.345 1.278,1.384 1.235,1.422 1.192,1.459 1.147,1.494 1.102,1.528 1.055,1.561 1.007,1.592 0.959,1.621 0.909,1.65 0.859,1.676 0.809,1.702 0.756,1.725 0.704,1.747 0.651,1.768 0.597,1.787 0.543,1.803 0.488,1.82 0.433,1.833 0.377,1.846 0.322,1.856 0.265,1.865 0.209,1.872 0.152,1.877 0.095,1.882 0.039,1.883 -0.018,1.884 -0.076,1.882 -0.132,1.879 -0.188,1.874 -0.246,1.868 -0.301,1.86 L 1.405,-5.472 0.992,-3.634 0.523,-1.81 0,0"
       style="fill:none;stroke:#000000;stroke-width:0.51;stroke-linecap:butt;stroke-linejoin:miter;stroke-miterlimit:10;stroke-dasharray:18, 3.6, 3.6, 3.6, 3.6, 3.6;stroke-dashoffset:11.091;stroke-opacity:1"
       id="path36129" /></g><g
     id="g36131"
     transform="matrix(0.35277777,0,0,-0.35277776,55.659606,37.387806)"><path
       d="M 0,0 V 5.669"
       style="fill:none;stroke:#000000;stroke-width:0.51;stroke-linecap:butt;stroke-linejoin:miter;stroke-miterlimit:10;stroke-dasharray:18, 3.6, 3.6, 3.6, 3.6, 3.6;stroke-dashoffset:0;stroke-opacity:1"
       id="path36133" /></g><g
     id="g36135"
     transform="matrix(0.35277777,0,0,-0.35277776,56.659586,36.387787)"><path
       d="M 0,0 H -5.669"
       style="fill:none;stroke:#000000;stroke-width:0.51;stroke-linecap:butt;stroke-linejoin:miter;stroke-miterlimit:10;stroke-dasharray:18, 3.6, 3.6, 3.6, 3.6, 3.6;stroke-dashoffset:0;stroke-opacity:1"
       id="path36137" /></g><g
     id="g36139"
     transform="matrix(0.35277777,0,0,-0.35277776,80.800206,17.408872)"><path
       d="M 0,0 -8.7,-4.01 -6.241,-7.268 0,0 m -142.529,-107.597 8.7,4.011 -2.46,3.257 -6.24,-7.268 m 60.312,56.733 -8.513,4.394 -1.056,-3.943 9.569,-0.451 m 5.476,60.895 -8.513,4.394 -1.056,-3.943 9.569,-0.451"
       style="fill:none;stroke:#000000;stroke-width:0.51;stroke-linecap:butt;stroke-linejoin:miter;stroke-miterlimit:10;stroke-dasharray:none;stroke-opacity:1"
       id="path36141" /></g><g
     id="g36143"
     transform="matrix(0.35277777,0,0,-0.35277776,99.422606,77.887789)"><path
       d="M 0,0 9.36,2.041 V -2.041 L 0,0 m 155.905,0 -9.359,-2.041 V 2.041 L 155.905,0 m 0,0 9.361,2.041 V -2.041 L 155.905,0 m 99.213,0 -9.36,-2.041 V 2.041 L 255.118,0"
       style="fill:none;stroke:#000000;stroke-width:0.51;stroke-linecap:butt;stroke-linejoin:miter;stroke-miterlimit:10;stroke-dasharray:none;stroke-opacity:1"
       id="path36145" /></g><g
     id="g36147"
     transform="matrix(0.35277777,0,0,-0.35277776,55.659606,31.387797)"><path
       d="M 0,0 V 82.205"
       style="fill:none;stroke:#000000;stroke-width:0.51;stroke-linecap:round;stroke-linejoin:round;stroke-miterlimit:10;stroke-dasharray:43.2, 3.6, 3.6, 3.6;stroke-dashoffset:7.498;stroke-opacity:1"
       id="path36149" /></g><g
     id="g36151"
     transform="matrix(0.35277777,0,0,-0.35277776,50.659576,36.387787)"><path
       d="M 0,0 H -82.205"
       style="fill:none;stroke:#000000;stroke-width:0.51;stroke-linecap:round;stroke-linejoin:round;stroke-miterlimit:10;stroke-dasharray:43.2, 3.6, 3.6, 3.6;stroke-dashoffset:7.498;stroke-opacity:1"
       id="path36153" /></g><g
     id="g36155"
     transform="matrix(0.35277777,0,0,-0.35277776,55.659606,41.387812)"><path
       d="M 0,0 V -82.205"
       style="fill:none;stroke:#000000;stroke-width:0.51;stroke-linecap:round;stroke-linejoin:round;stroke-miterlimit:10;stroke-dasharray:43.2, 3.6, 3.6, 3.6;stroke-dashoffset:7.498;stroke-opacity:1"
       id="path36157" /></g><g
     id="g36159"
     transform="matrix(0.35277777,0,0,-0.35277776,60.659596,36.387787)"><path
       d="M 0,0 H 82.205"
       style="fill:none;stroke:#000000;stroke-width:0.51;stroke-linecap:round;stroke-linejoin:round;stroke-miterlimit:10;stroke-dasharray:43.2, 3.6, 3.6, 3.6;stroke-dashoffset:7.498;stroke-opacity:1"
       id="path36161" /></g><g
     id="g36163"
     transform="matrix(0.35277777,0,0,-0.35277776,33.659606,33.887792)"><path
       d="M 0,0 V 4.677"
       style="fill:none;stroke:#000000;stroke-width:0.51;stroke-linecap:round;stroke-linejoin:round;stroke-miterlimit:10;stroke-dasharray:43.2, 3.6, 3.6, 3.6;stroke-dashoffset:0;stroke-opacity:1"
       id="path36165" /></g><g
     id="g36167"
     transform="matrix(0.35277777,0,0,-0.35277776,31.159606,36.387787)"><path
       d="M 0,0 H -4.677"
       style="fill:none;stroke:#000000;stroke-width:0.51;stroke-linecap:round;stroke-linejoin:round;stroke-miterlimit:10;stroke-dasharray:43.2, 3.6, 3.6, 3.6;stroke-dashoffset:0;stroke-opacity:1"
       id="path36169" /></g><g
     id="g36171"
     transform="matrix(0.35277777,0,0,-0.35277776,33.659606,38.887781)"><path
       d="M 0,0 V -4.677"
       style="fill:none;stroke:#000000;stroke-width:0.51;stroke-linecap:round;stroke-linejoin:round;stroke-miterlimit:10;stroke-dasharray:43.2, 3.6, 3.6, 3.6;stroke-dashoffset:0;stroke-opacity:1"
       id="path36173" /></g><g
     id="g36175"
     transform="matrix(0.35277777,0,0,-0.35277776,36.159596,36.387787)"><path
       d="M 0,0 H 4.677"
       style="fill:none;stroke:#000000;stroke-width:0.51;stroke-linecap:round;stroke-linejoin:round;stroke-miterlimit:10;stroke-dasharray:43.2, 3.6, 3.6, 3.6;stroke-dashoffset:0;stroke-opacity:1"
       id="path36177" /></g><g
     id="g36179"
     transform="matrix(0.35277777,0,0,-0.35277776,77.659596,33.887792)"><path
       d="M 0,0 V 4.677"
       style="fill:none;stroke:#000000;stroke-width:0.51;stroke-linecap:round;stroke-linejoin:round;stroke-miterlimit:10;stroke-dasharray:43.2, 3.6, 3.6, 3.6;stroke-dashoffset:0;stroke-opacity:1"
       id="path36181" /></g><g
     id="g36183"
     transform="matrix(0.35277777,0,0,-0.35277776,75.159606,36.387787)"><path
       d="M 0,0 H -4.677"
       style="fill:none;stroke:#000000;stroke-width:0.51;stroke-linecap:round;stroke-linejoin:round;stroke-miterlimit:10;stroke-dasharray:43.2, 3.6, 3.6, 3.6;stroke-dashoffset:0;stroke-opacity:1"
       id="path36185" /></g><g
     id="g36187"
     transform="matrix(0.35277777,0,0,-0.35277776,77.659596,38.887781)"><path
       d="M 0,0 V -4.677"
       style="fill:none;stroke:#000000;stroke-width:0.51;stroke-linecap:round;stroke-linejoin:round;stroke-miterlimit:10;stroke-dasharray:43.2, 3.6, 3.6, 3.6;stroke-dashoffset:0;stroke-opacity:1"
       id="path36189" /></g><g
     id="g36191"
     transform="matrix(0.35277777,0,0,-0.35277776,80.159596,36.387787)"><path
       d="M 0,0 H 4.677"
       style="fill:none;stroke:#000000;stroke-width:0.51;stroke-linecap:round;stroke-linejoin:round;stroke-miterlimit:10;stroke-dasharray:43.2, 3.6, 3.6, 3.6;stroke-dashoffset:0;stroke-opacity:1"
       id="path36193" /></g><g
     id="g36195"
     transform="matrix(0.35277777,0,0,-0.35277776,55.659606,55.887789)"><path
       d="M 0,0 V 4.677"
       style="fill:none;stroke:#000000;stroke-width:0.51;stroke-linecap:round;stroke-linejoin:round;stroke-miterlimit:10;stroke-dasharray:43.2, 3.6, 3.6, 3.6;stroke-dashoffset:0;stroke-opacity:1"
       id="path36197" /></g><g
     id="g36199"
     transform="matrix(0.35277777,0,0,-0.35277776,53.159606,58.387819)"><path
       d="M 0,0 H -4.677"
       style="fill:none;stroke:#000000;stroke-width:0.51;stroke-linecap:round;stroke-linejoin:round;stroke-miterlimit:10;stroke-dasharray:43.2, 3.6, 3.6, 3.6;stroke-dashoffset:0;stroke-opacity:1"
       id="path36201" /></g><g
     id="g36203"
     transform="matrix(0.35277777,0,0,-0.35277776,55.659606,60.887819)"><path
       d="M 0,0 V -4.677"
       style="fill:none;stroke:#000000;stroke-width:0.51;stroke-linecap:round;stroke-linejoin:round;stroke-miterlimit:10;stroke-dasharray:43.2, 3.6, 3.6, 3.6;stroke-dashoffset:0;stroke-opacity:1"
       id="path36205" /></g><g
     id="g36207"
     transform="matrix(0.35277777,0,0,-0.35277776,58.159596,58.387819)"><path
       d="M 0,0 H 4.677"
       style="fill:none;stroke:#000000;stroke-width:0.51;stroke-linecap:round;stroke-linejoin:round;stroke-miterlimit:10;stroke-dasharray:43.2, 3.6, 3.6, 3.6;stroke-dashoffset:0;stroke-opacity:1"
       id="path36209" /></g><g
     id="g36211"
     transform="matrix(0.35277777,0,0,-0.35277776,55.659606,11.887794)"><path
       d="M 0,0 V 4.677"
       style="fill:none;stroke:#000000;stroke-width:0.51;stroke-linecap:round;stroke-linejoin:round;stroke-miterlimit:10;stroke-dasharray:43.2, 3.6, 3.6, 3.6;stroke-dashoffset:0;stroke-opacity:1"
       id="path36213" /></g><g
     id="g36215"
     transform="matrix(0.35277777,0,0,-0.35277776,53.159606,14.387789)"><path
       d="M 0,0 H -4.677"
       style="fill:none;stroke:#000000;stroke-width:0.51;stroke-linecap:round;stroke-linejoin:round;stroke-miterlimit:10;stroke-dasharray:43.2, 3.6, 3.6, 3.6;stroke-dashoffset:0;stroke-opacity:1"
       id="path36217" /></g><g
     id="g36219"
     transform="matrix(0.35277777,0,0,-0.35277776,55.659606,16.887784)"><path
       d="M 0,0 V -4.677"
       style="fill:none;stroke:#000000;stroke-width:0.51;stroke-linecap:round;stroke-linejoin:round;stroke-miterlimit:10;stroke-dasharray:43.2, 3.6, 3.6, 3.6;stroke-dashoffset:0;stroke-opacity:1"
       id="path36221" /></g><g
     id="g36223"
     transform="matrix(0.35277777,0,0,-0.35277776,58.159596,14.387789)"><path
       d="M 0,0 H 4.677"
       style="fill:none;stroke:#000000;stroke-width:0.51;stroke-linecap:round;stroke-linejoin:round;stroke-miterlimit:10;stroke-dasharray:43.2, 3.6, 3.6, 3.6;stroke-dashoffset:0;stroke-opacity:1"
       id="path36225" /></g><g
     id="g36227"
     transform="matrix(0.35277777,0,0,-0.35277776,55.659606,36.387787)"><path
       d="M 0,0 V 7.087 M 0,0 H -7.087 M 0,0 V -7.087 M 0,0 h 7.087 m -69.449,0 v 7.087 m 0,-7.087 h -7.087 m 7.087,0 v -7.087 m 0,7.087 h 7.086 M 62.362,0 v 7.087 m 0,-7.087 h -7.086 m 7.086,0 v -7.087 m 0,7.087 h 7.087 M 0,-62.362 v 7.086 m 0,-7.086 h -7.087 m 7.087,0 v -7.087 m 0,7.087 H 7.087 M 0,62.362 v 7.087 m 0,-7.087 h -7.087 m 7.087,0 v -7.086 m 0,7.086 h 7.087"
       style="fill:none;stroke:#000000;stroke-width:0.51;stroke-linecap:round;stroke-linejoin:round;stroke-miterlimit:10;stroke-dasharray:none;stroke-opacity:1"
       id="path36229" /></g><g
     id="g36231"
     transform="matrix(0.35277777,0,0,-0.35277776,96.527146,36.387787)"><path
       d="M 0,0 H 272.6"
       style="fill:none;stroke:#000000;stroke-width:0.51;stroke-linecap:round;stroke-linejoin:round;stroke-miterlimit:10;stroke-dasharray:43.2, 3.6, 3.6, 3.6;stroke-dashoffset:20.3;stroke-opacity:1"
       id="path36233" /></g><g
     id="g36235"
     transform="matrix(0.35277777,0,0,-0.35277776,142.42262,14.387789)"><path
       d="M 0,0 H 39.685"
       style="fill:none;stroke:#000000;stroke-width:0.51;stroke-linecap:round;stroke-linejoin:round;stroke-miterlimit:10;stroke-dasharray:43.2, 3.6, 3.6, 3.6;stroke-dashoffset:28.757;stroke-opacity:1"
       id="path36237" /></g><g
     id="g36239"
     transform="matrix(0.35277777,0,0,-0.35277776,142.42262,58.387819)"><path
       d="M 0,0 H 39.685"
       style="fill:none;stroke:#000000;stroke-width:0.51;stroke-linecap:round;stroke-linejoin:round;stroke-miterlimit:10;stroke-dasharray:43.2, 3.6, 3.6, 3.6;stroke-dashoffset:28.757;stroke-opacity:1"
       id="path36241" /></g><g
     id="g36243"
     transform="matrix(0.35277777,0,0,-0.35277776,34.409226,42.081796)"><path
       d="M 0,0 -44.832,-12.013 M 120.475,32.281 0,0 m -44.832,-12.013 h -52.451"
       style="fill:none;stroke:#000000;stroke-width:0.51;stroke-linecap:round;stroke-linejoin:round;stroke-miterlimit:10;stroke-dasharray:none;stroke-opacity:1"
       id="path36245" /></g><g
     id="g36247"
     transform="matrix(0.35277777,0,0,-0.35277776,30.518966,55.366739)"><path
       d="M 0,0 -33.804,-25.519 M 142.529,107.597 0,0 M -33.804,-25.519 H -86.255 M 60.313,56.733 -37.47,82.934 M 82.217,50.864 60.313,56.733 M -37.47,82.934 h -45.12 m 148.379,34.694 -99.654,26.702 m 110.606,-29.637 -10.952,2.935 m -99.654,26.702 h -52.329"
       style="fill:none;stroke:#000000;stroke-width:0.51;stroke-linecap:round;stroke-linejoin:round;stroke-miterlimit:10;stroke-dasharray:none;stroke-opacity:1"
       id="path36249" /></g><g
     id="g36251"
     transform="matrix(0.35277777,0,0,-0.35277776,99.422606,61.737269)"><path
       d="M 0,0 V -48.616 M 155.905,-7.177 V -48.616 M 0,-45.781 h 155.905 m 0,38.604 V -48.616 M 255.118,59.101 V -48.616 m -99.213,2.835 h 99.213"
       style="fill:none;stroke:#000000;stroke-width:0.51;stroke-linecap:round;stroke-linejoin:round;stroke-miterlimit:10;stroke-dasharray:none;stroke-opacity:1"
       id="path36253" /></g><g
     id="g36255"
     transform="matrix(0.35277777,0,0,-0.35277776,171.36705,34.881567)"><path
       d="M 0,0 2.873,9.139 6.417,7.113"
       style="fill:#000000;fill-opacity:1;fill-rule:nonzero;stroke:none"
       id="path36257" /></g><g
     id="g36259"
     transform="matrix(0.35277777,0,0,-0.35277776,76.909946,30.693777)"><path
       d="m 0,0 -9.569,-0.451 1.056,-3.943 m -111.962,-27.887 9.57,0.451 -1.057,3.943"
       style="fill:#000000;fill-opacity:1;fill-rule:nonzero;stroke:none"
       id="path36261" /></g><g
     id="g36263"
     transform="matrix(0.35277777,0,0,-0.35277776,80.800206,17.408872)"><path
       d="m 0,0 -8.7,-4.01 2.459,-3.258 m -136.288,-100.329 8.7,4.011 -2.46,3.257 m 54.072,49.465 -8.513,4.394 -1.056,-3.943 m 15.045,60.444 -8.513,4.394 -1.056,-3.943"
       style="fill:#000000;fill-opacity:1;fill-rule:nonzero;stroke:none"
       id="path36265" /></g><g
     id="g36267"
     transform="matrix(0.35277777,0,0,-0.35277776,99.422606,77.887789)"><path
       d="M 0,0 9.36,2.041 V -2.041 M 155.905,0 146.546,-2.041 V 2.041 M 155.905,0 165.266,2.041 V -2.041 M 255.118,0 l -9.36,-2.041 v 4.082"
       style="fill:#000000;fill-opacity:1;fill-rule:nonzero;stroke:none"
       id="path36269" /></g><g
     id="g36271"
     transform="matrix(0.35277777,0,0,-0.35277776,55.659606,32.887808)"><path
       d="m 0,0 -1.591,-0.128 -1.551,-0.383 -1.469,-0.625 -1.349,-0.854 -1.195,-1.059 -1.01,-1.236 -0.798,-1.383 -0.567,-1.493 -0.319,-1.564 -0.064,-1.596 0.192,-1.585 0.444,-1.533 0.685,-1.443 0.907,-1.314 1.106,-1.151 1.276,-0.96 1.414,-0.742 1.515,-0.505 1.576,-0.256 h 1.596 l 1.576,0.256 1.515,0.505 1.414,0.742 1.276,0.96 1.106,1.151 0.907,1.314 0.685,1.443 0.444,1.533 0.192,1.585 L 9.849,-8.725 9.53,-7.161 8.963,-5.668 8.165,-4.285 7.155,-3.049 5.96,-1.99 4.611,-1.136 3.142,-0.511 1.591,-0.128 0,0 m 0,0 h 1.777 1.778 1.934 m 0,0 1.427,-0.936 1.27,-1.14 1.085,-1.317 0.874,-1.465 0.645,-1.58 0.401,-1.659 0.147,-1.7 -0.11,-1.703 -0.364,-1.667 -0.61,-1.594 -0.843,-1.484 -1.055,-1.341 -1.245,-1.167 -1.406,-0.967 -1.535,-0.745 -1.63,-0.507 -1.687,-0.256 h -1.706 l -1.687,0.256 -1.63,0.507 -1.535,0.745 -1.406,0.967 -1.245,1.167 -1.055,1.341 -0.843,1.484 -0.61,1.594 -0.364,1.667 -0.11,1.703 0.147,1.7 0.401,1.659 0.644,1.58 0.875,1.465 1.085,1.317 1.27,1.14 L -5.489,0 m 0,0 H -3.186 -0.669 0 M 5.489,0 4.195,0.613 2.835,1.057 1.429,1.327 0,1.417 -1.429,1.327 -2.835,1.057 -4.195,0.613 -5.489,0 M 0,4.252 -1.889,4.126 -3.745,3.748 -5.533,3.127 -7.223,2.273 -8.784,1.202 l -1.404,-1.27 -1.222,-1.446 -1.019,-1.596 -0.797,-1.717 -0.561,-1.809 -0.315,-1.867 -0.063,-1.892 0.189,-1.884 0.439,-1.841 0.681,-1.767 0.909,-1.661 1.124,-1.524 1.316,-1.361 1.486,-1.173 1.629,-0.965 1.743,-0.739 1.826,-0.5 1.876,-0.253 h 1.894 l 1.876,0.253 1.826,0.5 1.743,0.739 1.629,0.965 1.486,1.173 1.316,1.361 1.124,1.524 0.909,1.661 0.681,1.767 0.439,1.841 0.189,1.884 -0.063,1.892 -0.315,1.867 -0.561,1.809 -0.797,1.717 -1.019,1.596 -1.222,1.446 L 8.784,1.202 7.223,2.273 5.533,3.127 3.744,3.748 1.889,4.126 0,4.252 m 0,62.025 -4.35,-0.124 -4.336,-0.372 -4.308,-0.62 -4.265,-0.864 -4.209,-1.106 -4.139,-1.345 -4.055,-1.579 -3.958,-1.808 -3.849,-2.031 -3.727,-2.247 -3.592,-2.456 -3.447,-2.658 -3.289,-2.85 -3.121,-3.033 -2.942,-3.206 -2.755,-3.369 -2.558,-3.52 -2.353,-3.661 -2.14,-3.79 -1.92,-3.905 -1.694,-4.009 -1.462,-4.099 -1.226,-4.175 -0.986,-4.239 -0.742,-4.288 -0.496,-4.324 -0.249,-4.344 v -4.352 l 0.249,-4.345 0.496,-4.323 0.742,-4.289 0.986,-4.238 1.226,-4.176 1.462,-4.099 1.694,-4.008 1.92,-3.906 2.14,-3.789 2.353,-3.661 2.558,-3.521 2.755,-3.369 2.942,-3.206 3.121,-3.033 3.289,-2.85 3.447,-2.657 3.592,-2.457 3.727,-2.247 3.849,-2.031 3.958,-1.808 4.055,-1.579 4.139,-1.344 4.209,-1.107 4.265,-0.864 4.308,-0.619 4.336,-0.373 4.35,-0.124 4.35,0.124 4.336,0.373 4.308,0.619 4.265,0.864 4.209,1.107 4.139,1.344 4.055,1.579 3.958,1.808 3.849,2.031 3.727,2.247 3.592,2.457 3.447,2.657 3.289,2.85 3.121,3.033 2.942,3.206 2.755,3.369 2.558,3.521 2.353,3.661 2.14,3.789 1.92,3.906 1.694,4.008 1.462,4.099 1.226,4.176 0.986,4.238 0.742,4.289 0.496,4.323 0.249,4.345 v 4.352 l -0.249,4.344 -0.496,4.324 -0.742,4.288 -0.986,4.239 -1.226,4.175 -1.462,4.099 -1.694,4.009 -1.92,3.905 -2.14,3.79 -2.353,3.661 -2.558,3.52 -2.755,3.369 -2.942,3.206 -3.121,3.033 -3.289,2.85 -3.447,2.658 -3.592,2.456 -3.727,2.247 -3.849,2.031 -3.958,1.808 -4.055,1.579 -4.139,1.345 -4.209,1.106 -4.265,0.864 -4.308,0.62 L 4.35,66.153 0,66.277 m -57.685,-76.198 -0.126,1.078 -0.372,1.021 -0.596,0.907 -0.79,0.745 -0.941,0.543 -1.04,0.312 -1.084,0.063 -1.07,-0.189 -0.997,-0.43 -0.871,-0.648 -0.698,-0.832 -0.487,-0.971 -0.251,-1.056 v -1.086 l 0.251,-1.057 0.487,-0.97 0.698,-0.832 0.871,-0.649 0.997,-0.43 1.07,-0.189 1.084,0.064 1.04,0.311 0.941,0.543 0.79,0.745 0.596,0.908 0.372,1.02 0.126,1.079 m 124.724,0 -0.126,1.078 -0.371,1.021 -0.597,0.907 -0.79,0.745 -0.94,0.543 -1.041,0.312 -1.084,0.063 -1.069,-0.189 -0.997,-0.43 -0.871,-0.648 -0.699,-0.832 -0.487,-0.971 -0.25,-1.056 v -1.086 l 0.25,-1.057 0.487,-0.97 0.699,-0.832 0.871,-0.649 0.997,-0.43 1.069,-0.189 1.084,0.064 1.041,0.311 0.94,0.543 0.79,0.745 0.597,0.908 0.371,1.02 0.126,1.079 M 4.677,52.441 4.551,53.52 4.18,54.54 l -0.597,0.907 -0.79,0.746 -0.94,0.543 -1.041,0.311 -1.084,0.063 -1.069,-0.188 -0.998,-0.431 -0.871,-0.648 -0.698,-0.832 -0.487,-0.97 -0.251,-1.057 v -1.086 l 0.251,-1.057 0.487,-0.97 0.698,-0.832 0.871,-0.649 0.998,-0.43 1.069,-0.188 1.084,0.063 1.041,0.311 0.94,0.543 0.79,0.746 0.597,0.907 0.371,1.02 0.126,1.079 m 0,-124.724 -0.126,1.078 -0.371,1.021 -0.597,0.907 -0.79,0.745 -0.94,0.543 -1.041,0.312 -1.084,0.063 -1.069,-0.189 -0.998,-0.43 -0.871,-0.648 -0.698,-0.832 -0.487,-0.971 -0.251,-1.056 v -1.086 l 0.251,-1.057 0.487,-0.971 0.698,-0.831 0.871,-0.649 0.998,-0.43 1.069,-0.189 1.084,0.063 1.041,0.312 0.94,0.543 0.79,0.745 0.597,0.907 0.371,1.021 0.126,1.079 M 0,79.37 l -4.712,-0.124 -4.7,-0.373 -4.673,-0.621 -4.633,-0.866 -4.582,-1.11 -4.517,-1.349 -4.439,-1.587 -4.349,-1.818 -4.247,-2.045 -4.133,-2.267 -4.008,-2.481 -3.872,-2.69 -3.724,-2.89 -3.566,-3.083 -3.399,-3.267 -3.221,-3.441 -3.036,-3.607 -2.841,-3.762 -2.638,-3.906 -2.428,-4.041 -2.212,-4.163 -1.989,-4.274 -1.761,-4.372 -1.528,-4.46 -1.29,-4.534 -1.049,-4.596 -0.805,-4.645 -0.558,-4.68 -0.311,-4.704 -0.063,-4.714 0.187,-4.71 0.435,-4.694 0.682,-4.665 0.927,-4.621 1.17,-4.567 1.41,-4.498 1.644,-4.418 1.876,-4.325 2.101,-4.22 2.321,-4.103 2.534,-3.975 2.741,-3.835 2.939,-3.686 3.13,-3.525 3.311,-3.355 3.484,-3.176 3.646,-2.988 3.799,-2.791 3.941,-2.586 4.072,-2.375 4.192,-2.157 4.3,-1.932 4.395,-1.703 4.48,-1.469 4.55,-1.23 4.61,-0.988 4.655,-0.744 4.688,-0.497 4.707,-0.248 h 4.714 l 4.707,0.248 4.688,0.497 4.655,0.744 4.61,0.988 4.55,1.23 4.48,1.469 4.395,1.703 4.3,1.932 4.192,2.157 4.072,2.375 3.941,2.586 3.799,2.791 3.646,2.988 3.484,3.176 3.311,3.355 3.13,3.525 2.939,3.686 2.741,3.835 2.534,3.975 2.321,4.103 2.101,4.22 1.876,4.325 1.644,4.418 1.41,4.498 1.17,4.567 0.927,4.621 0.682,4.665 0.435,4.694 0.187,4.71 -0.063,4.714 -0.311,4.704 -0.558,4.68 -0.805,4.645 -1.049,4.596 -1.29,4.534 -1.528,4.46 -1.761,4.372 -1.989,4.274 -2.212,4.163 -2.428,4.041 -2.638,3.906 -2.841,3.762 -3.036,3.607 -3.221,3.441 -3.399,3.267 -3.566,3.083 -3.724,2.89 -3.872,2.69 -4.008,2.481 -4.133,2.267 -4.247,2.045 -4.349,1.818 -4.439,1.587 -4.517,1.349 -4.582,1.11 -4.633,0.866 -4.673,0.621 -4.7,0.373 L 0,79.37"
       style="fill:none;stroke:#000000;stroke-width:0.709;stroke-linecap:round;stroke-linejoin:round;stroke-miterlimit:10;stroke-dasharray:none;stroke-opacity:1"
       id="path36273" /></g><g
     id="g36275"
     transform="matrix(0.35277777,0,0,-0.35277776,105.42262,4.8878021)"><path
       d="m 0,0 -17.008,-20.269 m 0,-138.044 L 0,-178.583 M 116.22,0 H 0 m 0,-178.583 h 116.22 m 0,0 22.678,13.093 m 0,152.397 L 116.22,0 m 22.678,-103.465 h 2.834 m 0,28.347 h -2.834 m 2.834,-25.512 h 94.961 m -80.788,22.677 h -14.173 m 94.961,-22.677 1.417,1.417 M 0,0 v -0.124 -0.373 -0.621 -0.866 -1.11 -1.349 -1.587 -1.818 -2.045 -2.267 -2.482 -2.689 -2.89 -3.083 -3.267 -3.441 -3.607 -3.762 -3.907 -4.04 -4.163 -4.274 -4.372 -4.46 -4.534 -4.596 -4.645 -4.681 -4.703 -4.714 -4.71 -4.694 -4.665 -4.622 -4.566 -4.498 -4.418 -4.325 -4.22 -4.103 -3.975 -3.835 -3.686 -3.525 -3.356 -3.175 -2.988 -2.791 -2.586 -2.375 -2.157 -1.933 -1.702 -1.469 -1.23 -0.988 -0.744 -0.497 -0.249 -0.031 m -17.008,158.314 v -0.124 -0.37 -0.615 -0.859 -1.099 -1.334 -1.566 -1.792 -2.011 -2.224 -2.427 -2.623 -2.809 -2.984 -3.151 -3.304 -3.447 -3.576 -3.693 -3.798 -3.887 -3.964 -4.026 -4.074 -4.107 -4.126 -4.129 -4.118 -4.092 -4.052 -3.997 -3.928 -3.844 -3.747 -3.636 -3.513 -3.377 -3.229 -3.069 -2.898 -2.717 -2.526 -2.327 -2.118 -1.902 -1.68 -1.451 -1.217 -0.979 -0.738 -0.493 -0.247 -0.03 M 116.22,0 v -0.124 -0.373 -0.621 -0.866 -1.11 -1.349 -1.587 -1.818 -2.045 -2.267 -2.482 -2.689 -2.89 -3.083 -3.267 -3.441 -3.607 -3.762 -3.907 -4.04 -4.163 -4.274 -4.372 -4.46 -4.534 -4.596 -4.645 -4.681 -4.703 -4.714 -4.71 -4.694 -4.665 -4.622 -4.566 -4.498 -4.418 -4.325 -4.22 -4.103 -3.975 -3.835 -3.686 -3.525 -3.356 -3.175 -2.988 -2.791 -2.586 -2.375 -2.157 -1.933 -1.702 -1.469 -1.23 -0.988 -0.744 -0.497 -0.249 -0.031 m 22.678,165.49 v -0.124 -0.372 -0.62 -0.864 -1.106 -1.345 -1.579 -1.808 -2.031 -2.247 -2.456 -2.658 -2.85 -3.033 -3.206 -3.369 -3.52 -3.662 -3.789 -3.905 -4.009 -4.099 -4.175 -4.239 -4.288 -4.324 -4.344 -4.352 -4.345 -4.323 -4.289 -4.238 -4.176 -4.099 -4.008 -3.906 -3.789 -3.661 -3.521 -3.369 -3.206 -3.033 -2.85 -2.657 -2.457 -2.247 -2.031 -1.808 -1.579 -1.344 -1.107 -0.864 -0.619 -0.373 -0.124 m 2.834,90.372 v -0.127 -0.377 -0.621 -0.854 -1.071 -1.27 -1.446 -1.596 -1.717 -1.809 -1.867 -1.892 -1.884 -1.842 -1.766 -1.661 -1.524 -1.361 -1.173 -0.965 -0.739 -0.501 -0.252 -0.032 m 72.266,9.904 h -48.154 m 48.154,8.539 1.355,-0.22 1.201,-0.629 0.975,-1.02 0.605,-1.34 0.119,-1.414 -0.321,-1.305 -0.715,-1.146 -1.102,-0.903 -1.383,-0.498 -0.734,-0.064 m -48.154,8.539 h 48.154 m -58.093,7.069 v -0.09 -0.27 -0.444 -0.613 m 80.788,0 h -80.788 m 80.788,-21.26 v 0.032 0.256 0.507 0.745 0.967 1.167 1.341 1.484 1.594 1.667 1.703 1.7 1.659 1.58 1.465 1.317 1.14 0.936 m -70.849,-14.191 -1.355,0.221 -1.201,0.629 -0.975,1.019 -0.604,1.34 -0.119,1.414 0.32,1.306 0.715,1.145 1.102,0.903 1.384,0.499 0.733,0.063 m 72.266,5.652 v -0.129 -0.382 -0.625 -0.854 -1.059 -1.236 -1.383 -1.493 -1.564 -1.596 -1.585 -1.533 -1.443 -1.314 -1.151 -0.96 -0.742 -0.505 -0.256 -0.033 m -1.417,19.843 h 0.918 0.477 0.022"
       style="fill:none;stroke:#000000;stroke-width:0.709;stroke-linecap:round;stroke-linejoin:round;stroke-miterlimit:10;stroke-dasharray:none;stroke-opacity:1"
       id="path36277" /></g></svg>
