<?xml version="1.0" encoding="UTF-8" standalone="no"?>
<!-- Created with Inkscape (http://www.inkscape.org/) -->

<svg
   width="130.5719mm"
   height="103.67652mm"
   viewBox="0 0 130.5719 103.67653"
   version="1.1"
   id="svg5"
   inkscape:version="1.2.1 (9c6d41e410, 2022-07-14)"
   sodipodi:docname="Mount - Hanger Clamp.svg"
   xml:space="preserve"
   xmlns:inkscape="http://www.inkscape.org/namespaces/inkscape"
   xmlns:sodipodi="http://sodipodi.sourceforge.net/DTD/sodipodi-0.dtd"
   xmlns="http://www.w3.org/2000/svg"
   xmlns:svg="http://www.w3.org/2000/svg"><sodipodi:namedview
     id="namedview7"
     pagecolor="#505050"
     bordercolor="#eeeeee"
     borderopacity="1"
     inkscape:pageshadow="0"
     inkscape:pageopacity="0"
     inkscape:pagecheckerboard="0"
     inkscape:document-units="mm"
     showgrid="false"
     inkscape:zoom="0.52347032"
     inkscape:cx="-264.58043"
     inkscape:cy="-88.830251"
     inkscape:window-width="2560"
     inkscape:window-height="1361"
     inkscape:window-x="2551"
     inkscape:window-y="-9"
     inkscape:window-maximized="1"
     inkscape:current-layer="svg5"
     inkscape:showpageshadow="0"
     inkscape:deskcolor="#505050" /><defs
     id="defs2" /><g
     inkscape:label="Ebene 1"
     inkscape:groupmode="layer"
     id="layer1"
     transform="translate(41.642556,-37.634316)" /><g
     id="g4250"><text
       xml:space="preserve"
       transform="matrix(0.70722591,0.70722594,-0.70698765,0.70698768,0,0)"
       style="font-variant:normal;font-weight:normal;font-stretch:normal;font-size:4.66747px;font-family:'Century Gothic';-inkscape-font-specification:CenturyGothic;writing-mode:lr-tb;fill:#000000;fill-opacity:1;fill-rule:nonzero;stroke:none;stroke-width:0.352837"
       id="text3232"
       x="122.38774"
       y="9.8981028"><tspan
         x="122.38774 125.22185 127.80852 130.39516 131.68849 134.27513"
         y="9.8981028"
         sodipodi:role="line"
         id="tspan3230"
         style="stroke-width:0.352837">R10,9 </tspan></text><text
       xml:space="preserve"
       transform="scale(1.0001505,0.99984953)"
       style="font-variant:normal;font-weight:normal;font-stretch:normal;font-size:4.66735px;font-family:'Century Gothic';-inkscape-font-specification:CenturyGothic;writing-mode:lr-tb;fill:#000000;fill-opacity:1;fill-rule:nonzero;stroke:none;stroke-width:0.352831"
       id="text3236"
       x="40.51759"
       y="3.3523788"><tspan
         x="40.51759 43.104092 45.690586 46.983833 49.570312"
         y="3.3523788"
         sodipodi:role="line"
         id="tspan3234"
         style="stroke-width:0.352831">17,5 </tspan></text><text
       xml:space="preserve"
       transform="matrix(0.70722767,0.7072277,-0.70698588,0.70698591,0,0)"
       style="font-variant:normal;font-weight:normal;font-stretch:normal;font-size:4.66748px;font-family:'Century Gothic';-inkscape-font-specification:CenturyGothic;writing-mode:lr-tb;fill:#000000;fill-opacity:1;fill-rule:nonzero;stroke:none;stroke-width:0.352838"
       id="text3240"
       x="107.95351"
       y="-4.2899003"><tspan
         x="107.95351 110.54018 111.83351"
         y="-4.2899003"
         sodipodi:role="line"
         id="tspan3238"
         style="stroke-width:0.352838">6 x</tspan></text><g
       id="g3242"
       transform="matrix(0.35277778,0,0,-0.35277779,87.910136,79.456559)"><path
         d="M 0,0 0.4,0.3 0.6,0.8 0.9,1.2 1.1,1.7 1.2,2.2 1.3,2.6 V 3.2 3.7 L 1.2,4.1 1,4.6 0.8,5.1 0.6,5.5 0.3,5.9 -0.1,6.3 -0.5,6.6 -0.9,6.9 -1.3,7.1 -1.8,7.3 -2.3,7.4 -2.8,7.5 H -3.3 L -3.8,7.4 -4.3,7.3 -4.8,7.2 -5.2,7 -5.6,6.7 -6,6.4 -6.4,6 -6.7,5.6 -7,5.2 -7.2,4.7 -7.3,4.3 -7.5,3.8 V 3.3 2.8 l 0.1,-0.5 0.1,-0.5 0.2,-0.5 0.2,-0.4 0.3,-0.5 0.3,-0.3 0.4,-0.4 0.4,-0.3 0.4,-0.2 0.5,-0.2 0.4,-0.2 0.5,-0.1 h 0.5 0.5 l 0.5,0.1 0.5,0.1 0.5,0.2 0.4,0.2 0.4,0.3 L 0,0 M -9.3,0.4 3.1,5.8"
         style="fill:none;stroke:#000000;stroke-width:0.51;stroke-linecap:butt;stroke-linejoin:miter;stroke-miterlimit:10;stroke-dasharray:none;stroke-opacity:1"
         id="path3244" /></g><text
       xml:space="preserve"
       transform="matrix(0.70721318,0.70721321,-0.70700037,0.7070004,0,0)"
       style="font-variant:normal;font-weight:normal;font-stretch:normal;font-size:4.66739px;font-family:'Century Gothic';-inkscape-font-specification:CenturyGothic;writing-mode:lr-tb;fill:#000000;fill-opacity:1;fill-rule:nonzero;stroke:none;stroke-width:0.352831"
       id="text3248"
       x="119.35251"
       y="-4.2898088"><tspan
         x="119.35251 121.93903 123.2323 125.81882"
         y="-4.2898088"
         sodipodi:role="line"
         id="tspan3246"
         style="stroke-width:0.352831">4,5 </tspan></text><g
       id="g3250"
       transform="matrix(0.35277778,0,0,-0.35277779,2.2556807,17.014888)"><path
         d="M 0,0 H -0.5 L -1,-0.1 -1.5,-0.2 -2,-0.4 -2.4,-0.7 -2.8,-1 -3.2,-1.3 -3.5,-1.7 -3.8,-2.1 -4,-2.5 -4.2,-3 -4.3,-3.5 -4.4,-4 V -4.5 -5 l 0.1,-0.5 0.2,-0.5 0.2,-0.4 0.3,-0.5 0.3,-0.4 0.3,-0.3 0.4,-0.3 0.4,-0.3 0.5,-0.2 0.5,-0.2 0.4,-0.1 0.5,-0.1 h 0.5 l 0.5,0.1 0.5,0.1 0.5,0.2 0.5,0.2 0.4,0.3 0.4,0.3 0.3,0.3 0.3,0.4 0.3,0.5 0.2,0.4 0.2,0.5 0.1,0.5 V -4.5 -4 L 4.3,-3.5 4.2,-3 4,-2.5 3.8,-2.1 3.5,-1.7 3.2,-1.3 2.8,-1 2.4,-0.7 1.9,-0.4 1.5,-0.2 1,-0.1 0.5,0 H 0 m 6.3,-6.9 -12.6,5"
         style="fill:none;stroke:#000000;stroke-width:0.51;stroke-linecap:butt;stroke-linejoin:miter;stroke-miterlimit:10;stroke-dasharray:none;stroke-opacity:1"
         id="path3252" /></g><text
       xml:space="preserve"
       transform="matrix(0,-1.0001505,0.99984952,0,0,0)"
       style="font-variant:normal;font-weight:normal;font-stretch:normal;font-size:4.66735px;font-family:'Century Gothic';-inkscape-font-specification:CenturyGothic;writing-mode:lr-tb;fill:#000000;fill-opacity:1;fill-rule:nonzero;stroke:none;stroke-width:0.352831"
       id="text3256"
       x="-15.969883"
       y="3.9832606"><tspan
         x="-15.969883 -13.383392 -12.090149 -9.5036545"
         y="3.9832606"
         sodipodi:role="line"
         id="tspan3254"
         style="stroke-width:0.352831">4,5 </tspan></text><text
       xml:space="preserve"
       transform="matrix(0,-1.0001505,0.99984952,0,0,0)"
       style="font-variant:normal;font-weight:normal;font-stretch:normal;font-size:4.66735px;font-family:'Century Gothic';-inkscape-font-specification:CenturyGothic;writing-mode:lr-tb;fill:#000000;fill-opacity:1;fill-rule:nonzero;stroke:none;stroke-width:0.352831"
       id="text3260"
       x="-72.716759"
       y="4.0346065"><tspan
         x="-72.716759 -70.130264 -67.543777 -66.250526 -63.66404"
         y="4.0346065"
         sodipodi:role="line"
         id="tspan3258"
         style="stroke-width:0.352831">10,4 </tspan></text><text
       xml:space="preserve"
       transform="matrix(0.50006174,0.86613006,-0.86591961,0.49994027,0,0)"
       style="font-variant:normal;font-weight:normal;font-stretch:normal;font-size:4.66725px;font-family:'Century Gothic';-inkscape-font-specification:CenturyGothic;writing-mode:lr-tb;fill:#000000;fill-opacity:1;fill-rule:nonzero;stroke:none;stroke-width:0.352821"
       id="text3264"
       x="59.536583"
       y="-56.039009"><tspan
         x="59.536583 62.122879 63.416016 65.656845 66.949982 69.53627 72.122543 73.989899 75.712524 78.541565 81.127838 83.714127"
         y="-56.039009"
         sodipodi:role="line"
         id="tspan3262"
         style="stroke-width:0.352821">6 x 60°(=360</tspan></text><g
       id="g3266"
       transform="matrix(0.35277778,0,0,-0.35277779,95.212636,46.789334)"><path
         d="M 0,0 0.2,0.1 0.4,0.3 0.5,0.6 0.6,0.8 V 1.1 1.4 L 0.5,1.6 0.3,1.9 0.1,2.1 -0.1,2.2 -0.4,2.3 H -0.6 -0.9 L -1.2,2.2 -1.4,2.1 -1.6,1.9 -1.7,1.7 -1.9,1.4 V 1.2 0.9 l 0.1,-0.3 0.1,-0.2 0.2,-0.2 0.2,-0.2 0.2,-0.1 0.3,-0.1 h 0.3 L -0.3,-0.1 0,0"
         style="fill:none;stroke:#000000;stroke-width:0.51;stroke-linecap:butt;stroke-linejoin:miter;stroke-miterlimit:10;stroke-dasharray:none;stroke-opacity:1"
         id="path3268" /></g><text
       xml:space="preserve"
       transform="matrix(0.49993649,0.86591312,-0.86613655,0.50006552,0,0)"
       style="font-variant:normal;font-weight:normal;font-stretch:normal;font-size:4.66608px;font-family:'Century Gothic';-inkscape-font-specification:CenturyGothic;writing-mode:lr-tb;fill:#000000;fill-opacity:1;fill-rule:nonzero;stroke:none;stroke-width:0.352732"
       id="text3272"
       x="88.538223"
       y="-56.024921"><tspan
         x="88.538223 90.259567"
         y="-56.024921"
         sodipodi:role="line"
         id="tspan3270"
         style="stroke-width:0.352732">) </tspan></text><text
       xml:space="preserve"
       transform="scale(1.0001505,0.99984953)"
       style="font-variant:normal;font-weight:normal;font-stretch:normal;font-size:4.66735px;font-family:'Century Gothic';-inkscape-font-specification:CenturyGothic;writing-mode:lr-tb;fill:#000000;fill-opacity:1;fill-rule:nonzero;stroke:none;stroke-width:0.352831"
       id="text3276"
       x="106.31457"
       y="9.3532906"><tspan
         x="106.31457 108.90105 110.1943 112.78078"
         y="9.3532906"
         sodipodi:role="line"
         id="tspan3274"
         style="stroke-width:0.352831">8,0 </tspan></text><g
       id="g3394"
       transform="matrix(0.35277778,0,0,-0.35277779,35.049411,77.793319)"><path
         d="m 0,0 0.771,-0.437 0.777,-0.425 0.784,-0.412 0.79,-0.401 0.796,-0.388 0.803,-0.375 0.808,-0.363 0.813,-0.35"
         style="fill:none;stroke:#000000;stroke-width:0.51;stroke-linecap:butt;stroke-linejoin:miter;stroke-miterlimit:10;stroke-dasharray:43.2, 3.6, 3.6, 3.6;stroke-dashoffset:0;stroke-opacity:1"
         id="path3396" /></g><g
       id="g3398"
       transform="matrix(0.35277778,0,0,-0.35277779,35.049411,77.793319)"><path
         d="M 0,0 -0.764,0.449 -1.52,0.91 -2.269,1.382 -3.011,1.866 -3.745,2.362 -4.472,2.869 -5.19,3.388 -5.9,3.917"
         style="fill:none;stroke:#000000;stroke-width:0.51;stroke-linecap:butt;stroke-linejoin:miter;stroke-miterlimit:10;stroke-dasharray:43.2, 3.6, 3.6, 3.6;stroke-dashoffset:0;stroke-opacity:1"
         id="path3400" /></g><g
       id="g3402"
       transform="matrix(0.35277778,0,0,-0.35277779,55.049406,77.793319)"><path
         d="M 0,0 0.764,0.449 1.52,0.91 2.269,1.382 3.011,1.866 3.745,2.362 4.472,2.869 5.19,3.388 5.9,3.917"
         style="fill:none;stroke:#000000;stroke-width:0.51;stroke-linecap:butt;stroke-linejoin:miter;stroke-miterlimit:10;stroke-dasharray:43.2, 3.6, 3.6, 3.6;stroke-dashoffset:0;stroke-opacity:1"
         id="path3404" /></g><g
       id="g3406"
       transform="matrix(0.35277778,0,0,-0.35277779,55.049406,77.793319)"><path
         d="m 0,0 -0.771,-0.437 -0.777,-0.425 -0.784,-0.412 -0.79,-0.401 -0.796,-0.388 -0.803,-0.375 -0.808,-0.363 -0.813,-0.35"
         style="fill:none;stroke:#000000;stroke-width:0.51;stroke-linecap:butt;stroke-linejoin:miter;stroke-miterlimit:10;stroke-dasharray:43.2, 3.6, 3.6, 3.6;stroke-dashoffset:0;stroke-opacity:1"
         id="path3408" /></g><g
       id="g3410"
       transform="matrix(0.35277778,0,0,-0.35277779,65.049426,60.472809)"><path
         d="m 0,0 -0.007,0.886 -0.021,0.885 -0.034,0.885 -0.049,0.885 -0.062,0.884 -0.076,0.882 -0.09,0.881 -0.103,0.88"
         style="fill:none;stroke:#000000;stroke-width:0.51;stroke-linecap:butt;stroke-linejoin:miter;stroke-miterlimit:10;stroke-dasharray:43.2, 3.6, 3.6, 3.6;stroke-dashoffset:0;stroke-opacity:1"
         id="path3412" /></g><g
       id="g3414"
       transform="matrix(0.35277778,0,0,-0.35277779,65.049426,60.472809)"><path
         d="m 0,0 -0.007,-0.886 -0.021,-0.885 -0.034,-0.886 -0.049,-0.884 -0.062,-0.884 -0.076,-0.882 -0.09,-0.881 -0.103,-0.88"
         style="fill:none;stroke:#000000;stroke-width:0.51;stroke-linecap:butt;stroke-linejoin:miter;stroke-miterlimit:10;stroke-dasharray:43.2, 3.6, 3.6, 3.6;stroke-dashoffset:0;stroke-opacity:1"
         id="path3416" /></g><g
       id="g3418"
       transform="matrix(0.35277778,0,0,-0.35277779,55.049406,43.152301)"><path
         d="m 0,0 -0.771,0.437 -0.777,0.425 -0.784,0.412 -0.79,0.401 -0.796,0.388 -0.803,0.375 -0.808,0.363 -0.813,0.35"
         style="fill:none;stroke:#000000;stroke-width:0.51;stroke-linecap:butt;stroke-linejoin:miter;stroke-miterlimit:10;stroke-dasharray:43.2, 3.6, 3.6, 3.6;stroke-dashoffset:0;stroke-opacity:1"
         id="path3420" /></g><g
       id="g3422"
       transform="matrix(0.35277778,0,0,-0.35277779,55.049406,43.152301)"><path
         d="M 0,0 0.764,-0.449 1.52,-0.91 2.269,-1.382 3.011,-1.866 3.745,-2.362 4.472,-2.869 5.19,-3.388 5.9,-3.917"
         style="fill:none;stroke:#000000;stroke-width:0.51;stroke-linecap:butt;stroke-linejoin:miter;stroke-miterlimit:10;stroke-dasharray:43.2, 3.6, 3.6, 3.6;stroke-dashoffset:0;stroke-opacity:1"
         id="path3424" /></g><g
       id="g3426"
       transform="matrix(0.35277778,0,0,-0.35277779,35.049411,43.152301)"><path
         d="M 0,0 -0.764,-0.449 -1.52,-0.91 -2.269,-1.382 -3.011,-1.866 -3.745,-2.362 -4.472,-2.869 -5.19,-3.388 -5.9,-3.917"
         style="fill:none;stroke:#000000;stroke-width:0.51;stroke-linecap:butt;stroke-linejoin:miter;stroke-miterlimit:10;stroke-dasharray:43.2, 3.6, 3.6, 3.6;stroke-dashoffset:0;stroke-opacity:1"
         id="path3428" /></g><g
       id="g3430"
       transform="matrix(0.35277778,0,0,-0.35277779,35.049411,43.152301)"><path
         d="m 0,0 0.771,0.437 0.777,0.425 0.784,0.412 0.79,0.401 0.796,0.388 0.803,0.375 0.808,0.363 0.813,0.35"
         style="fill:none;stroke:#000000;stroke-width:0.51;stroke-linecap:butt;stroke-linejoin:miter;stroke-miterlimit:10;stroke-dasharray:43.2, 3.6, 3.6, 3.6;stroke-dashoffset:0;stroke-opacity:1"
         id="path3432" /></g><g
       id="g3434"
       transform="matrix(0.35277778,0,0,-0.35277779,25.671131,65.420909)"><path
         d="m 0,0 0.48,-1.761 0.536,-1.744 0.592,-1.726 0.648,-1.706 0.702,-1.684 0.755,-1.661 0.809,-1.636 0.861,-1.609 0.913,-1.58 0.962,-1.55 1.012,-1.518 1.061,-1.485 1.108,-1.45 1.153,-1.414 1.199,-1.376 1.243,-1.336 1.284,-1.296"
         style="fill:none;stroke:#000000;stroke-width:0.51;stroke-linecap:butt;stroke-linejoin:miter;stroke-miterlimit:10;stroke-dasharray:43.2, 3.6, 3.6, 3.6;stroke-dashoffset:33.09;stroke-opacity:1"
         id="path3436" /></g><g
       id="g3438"
       transform="matrix(0.35277778,0,0,-0.35277779,39.645436,79.728939)"><path
         d="m 0,0 1.765,-0.465 1.778,-0.407 1.791,-0.351 1.801,-0.292 1.81,-0.234 1.816,-0.176 1.821,-0.118 1.824,-0.058 h 1.825 l 1.824,0.058 1.82,0.118 1.817,0.176 1.809,0.234 1.802,0.292 1.79,0.351 1.779,0.407 L 30.637,0"
         style="fill:none;stroke:#000000;stroke-width:0.51;stroke-linecap:butt;stroke-linejoin:miter;stroke-miterlimit:10;stroke-dasharray:43.2, 3.6, 3.6, 3.6;stroke-dashoffset:33.09;stroke-opacity:1"
         id="path3440" /></g><g
       id="g3442"
       transform="matrix(0.35277778,0,0,-0.35277779,59.023696,74.780839)"><path
         d="m 0,0 1.285,1.296 1.242,1.336 1.199,1.376 1.154,1.414 1.107,1.45 1.061,1.485 1.012,1.518 0.963,1.55 0.912,1.581 0.861,1.608 0.809,1.636 0.756,1.661 0.702,1.684 0.647,1.706 0.592,1.726 0.536,1.745 0.48,1.76"
         style="fill:none;stroke:#000000;stroke-width:0.51;stroke-linecap:butt;stroke-linejoin:miter;stroke-miterlimit:10;stroke-dasharray:43.2, 3.6, 3.6, 3.6;stroke-dashoffset:33.09;stroke-opacity:1"
         id="path3444" /></g><g
       id="g3446"
       transform="matrix(0.35277778,0,0,-0.35277779,64.427656,55.524747)"><path
         d="m 0,0 -0.48,1.761 -0.536,1.744 -0.592,1.726 -0.648,1.706 -0.701,1.684 -0.756,1.661 -0.809,1.636 -0.861,1.609 -0.913,1.58 -0.962,1.55 -1.012,1.518 -1.061,1.485 -1.108,1.45 -1.153,1.414 -1.199,1.376 -1.243,1.336 -1.284,1.296"
         style="fill:none;stroke:#000000;stroke-width:0.51;stroke-linecap:butt;stroke-linejoin:miter;stroke-miterlimit:10;stroke-dasharray:43.2, 3.6, 3.6, 3.6;stroke-dashoffset:33.09;stroke-opacity:1"
         id="path3448" /></g><g
       id="g3450"
       transform="matrix(0.35277778,0,0,-0.35277779,50.453356,41.216715)"><path
         d="m 0,0 -1.765,0.465 -1.778,0.407 -1.791,0.351 -1.801,0.292 -1.81,0.234 -1.816,0.176 -1.821,0.118 -1.824,0.058 h -1.825 L -18.055,2.043 -19.875,1.925 -21.692,1.749 -23.501,1.515 -25.303,1.223 -27.093,0.872 -28.872,0.465 -30.637,0"
         style="fill:none;stroke:#000000;stroke-width:0.51;stroke-linecap:butt;stroke-linejoin:miter;stroke-miterlimit:10;stroke-dasharray:43.2, 3.6, 3.6, 3.6;stroke-dashoffset:33.09;stroke-opacity:1"
         id="path3452" /></g><g
       id="g3454"
       transform="matrix(0.35277778,0,0,-0.35277779,31.075121,46.164812)"><path
         d="m 0,0 -1.285,-1.296 -1.242,-1.336 -1.199,-1.376 -1.154,-1.414 -1.107,-1.45 -1.061,-1.485 -1.012,-1.518 -0.963,-1.55 -0.912,-1.58 -0.861,-1.609 -0.809,-1.636 -0.756,-1.661 -0.702,-1.684 -0.647,-1.706 -0.592,-1.726 -0.536,-1.745 -0.48,-1.76"
         style="fill:none;stroke:#000000;stroke-width:0.51;stroke-linecap:butt;stroke-linejoin:miter;stroke-miterlimit:10;stroke-dasharray:43.2, 3.6, 3.6, 3.6;stroke-dashoffset:33.09;stroke-opacity:1"
         id="path3456" /></g><g
       id="g3458"
       transform="matrix(0.35277778,0,0,-0.35277779,25.045131,60.477109)"><path
         d="M 0,0 V -0.9 -1.8 -2.7 L 0.1,-3.6 V -4.5 L 0.2,-5.3 0.3,-6.2 0.4,-7.1 M 0,0 V 0.8 1.7 2.6 L 0.1,3.5 V 4.4 L 0.2,5.3 0.3,6.2 0.4,7"
         style="fill:none;stroke:#000000;stroke-width:0.51;stroke-linecap:butt;stroke-linejoin:miter;stroke-miterlimit:10;stroke-dasharray:none;stroke-opacity:1"
         id="path3460" /></g><g
       id="g3462"
       transform="matrix(0.35277778,0,0,-0.35277779,91.226246,60.477109)"><path
         d="M 0,0 -2.4,9.2 1.7,9.4 0,0 m -65.5,113.3 9,-3.2 -2.1,-3.4 -6.9,6.6 M 0,0 v 2.7 l -0.1,2.7 -0.2,2.8 -0.2,2.7 -0.2,2.7 -0.4,2.8 -0.3,2.7 -0.5,2.7 -0.4,2.7 -0.6,2.7 -0.6,2.7 -0.6,2.6 -0.7,2.7 -0.8,2.6 -0.8,2.6 -0.9,2.6 -0.9,2.6 -1,2.6 -1,2.5 -1.1,2.5 -1.2,2.5 -1.2,2.5 -1.2,2.4 -1.3,2.4 -1.4,2.4 -1.4,2.4 -1.4,2.3 -1.5,2.3 -1.5,2.3 -1.6,2.2 -1.7,2.2 -1.6,2.2 -1.8,2.1 -1.7,2.1 -1.8,2.1 -1.9,2 -1.9,2 -1.9,1.9 -2,1.9 -2,1.9 -2.1,1.8 -2.1,1.7 -2.1,1.8 -2.2,1.6 -2.2,1.7 -2.2,1.6 -2.3,1.5 -2.3,1.5 -2.3,1.5 -2.4,1.3"
         style="fill:none;stroke:#000000;stroke-width:0.51;stroke-linecap:butt;stroke-linejoin:miter;stroke-miterlimit:10;stroke-dasharray:none;stroke-opacity:1"
         id="path3464" /></g><g
       id="g3466"
       transform="matrix(0.35277778,0,0,-0.35277779,5.0426307,50.105446)"><path
         d="M 0,0 2,-9.4 H -2.1 L 0,0 m 0,-29.4 -2.1,9.3 H 2 l -2,-9.3"
         style="fill:none;stroke:#000000;stroke-width:0.51;stroke-linecap:butt;stroke-linejoin:miter;stroke-miterlimit:10;stroke-dasharray:none;stroke-opacity:1"
         id="path3468" /></g><g
       id="g3470"
       transform="matrix(0.35277778,0,0,-0.35277779,5.0426307,27.139611)"><path
         d="M 0,0 -2.1,9.4 H 2 L 0,0 m 0,-12.7 2,-9.4 h -4.1 l 2.1,9.4"
         style="fill:none;stroke:#000000;stroke-width:0.51;stroke-linecap:butt;stroke-linejoin:miter;stroke-miterlimit:10;stroke-dasharray:none;stroke-opacity:1"
         id="path3472" /></g><g
       id="g3474"
       transform="matrix(0.35277778,0,0,-0.35277779,66.637636,62.064609)"><path
         d="M 0,0 5.1,-8.1 8,-5.2 0,0"
         style="fill:none;stroke:#000000;stroke-width:0.51;stroke-linecap:butt;stroke-linejoin:miter;stroke-miterlimit:10;stroke-dasharray:none;stroke-opacity:1"
         id="path3476" /></g><g
       id="g3478"
       transform="matrix(0.35277778,0,0,-0.35277779,121.70625,10.382666)"><path
         d="M 0,0 9.4,2 V -2 L 0,0 m 22.7,0 -9.4,-2 v 4 l 9.4,-2"
         style="fill:none;stroke:#000000;stroke-width:0.51;stroke-linecap:butt;stroke-linejoin:miter;stroke-miterlimit:10;stroke-dasharray:none;stroke-opacity:1"
         id="path3480" /></g><g
       id="g3482"
       transform="matrix(0.35277778,0,0,-0.35277779,52.773466,68.202949)"><path
         d="M 0,0 5.1,-8.1 8,-5.2 0,0"
         style="fill:none;stroke:#000000;stroke-width:0.51;stroke-linecap:butt;stroke-linejoin:miter;stroke-miterlimit:10;stroke-dasharray:none;stroke-opacity:1"
         id="path3484" /></g><g
       id="g3486"
       transform="matrix(0.35277778,0,0,-0.35277779,36.298741,4.3854428)"><path
         d="M 0,0 9.3,2 V -2 L 0,0 m 49.6,0 -9.4,-2 v 4 l 9.4,-2"
         style="fill:none;stroke:#000000;stroke-width:0.51;stroke-linecap:butt;stroke-linejoin:miter;stroke-miterlimit:10;stroke-dasharray:none;stroke-opacity:1"
         id="path3488" /></g><g
       id="g3490"
       transform="matrix(0.35277778,0,0,-0.35277779,21.725271,29.365145)"><path
         d="M 0,0 H 132.1"
         style="fill:none;stroke:#000000;stroke-width:0.51;stroke-linecap:round;stroke-linejoin:round;stroke-miterlimit:10;stroke-dasharray:43.2, 3.6, 3.6, 3.6;stroke-dashoffset:9.55;stroke-opacity:1"
         id="path3492" /></g><g
       id="g3494"
       transform="matrix(0.35277778,0,0,-0.35277779,45.049396,16.829927)"><path
         d="M 0,0 V -212.301"
         style="fill:none;stroke:#000000;stroke-width:0.51;stroke-linecap:round;stroke-linejoin:round;stroke-miterlimit:10;stroke-dasharray:43.2, 3.6, 3.6, 3.6;stroke-dashoffset:-3.551;stroke-opacity:1"
         id="path3496" /></g><g
       id="g3498"
       transform="matrix(0.35277778,0,0,-0.35277779,36.299411,45.089686)"><path
         d="M 0,0 V 1.417"
         style="fill:none;stroke:#000000;stroke-width:0.51;stroke-linecap:round;stroke-linejoin:round;stroke-miterlimit:10;stroke-dasharray:43.2, 3.6, 3.6, 3.6;stroke-dashoffset:0;stroke-opacity:1"
         id="path3500" /></g><g
       id="g3502"
       transform="matrix(0.35277778,0,0,-0.35277779,31.299381,50.089676)"><path
         d="M 0,0 H -1.417"
         style="fill:none;stroke:#000000;stroke-width:0.51;stroke-linecap:round;stroke-linejoin:round;stroke-miterlimit:10;stroke-dasharray:43.2, 3.6, 3.6, 3.6;stroke-dashoffset:0;stroke-opacity:1"
         id="path3504" /></g><g
       id="g3506"
       transform="matrix(0.35277778,0,0,-0.35277779,36.299411,55.089702)"><path
         d="M 0,0 V -1.417"
         style="fill:none;stroke:#000000;stroke-width:0.51;stroke-linecap:round;stroke-linejoin:round;stroke-miterlimit:10;stroke-dasharray:43.2, 3.6, 3.6, 3.6;stroke-dashoffset:0;stroke-opacity:1"
         id="path3508" /></g><g
       id="g3510"
       transform="matrix(0.35277778,0,0,-0.35277779,41.299406,50.089676)"><path
         d="M 0,0 H 1.417"
         style="fill:none;stroke:#000000;stroke-width:0.51;stroke-linecap:round;stroke-linejoin:round;stroke-miterlimit:10;stroke-dasharray:43.2, 3.6, 3.6, 3.6;stroke-dashoffset:0;stroke-opacity:1"
         id="path3512" /></g><g
       id="g3514"
       transform="matrix(0.35277778,0,0,-0.35277779,53.799416,45.089686)"><path
         d="M 0,0 V 1.417"
         style="fill:none;stroke:#000000;stroke-width:0.51;stroke-linecap:round;stroke-linejoin:round;stroke-miterlimit:10;stroke-dasharray:43.2, 3.6, 3.6, 3.6;stroke-dashoffset:0;stroke-opacity:1"
         id="path3516" /></g><g
       id="g3518"
       transform="matrix(0.35277778,0,0,-0.35277779,48.799386,50.089676)"><path
         d="M 0,0 H -1.417"
         style="fill:none;stroke:#000000;stroke-width:0.51;stroke-linecap:round;stroke-linejoin:round;stroke-miterlimit:10;stroke-dasharray:43.2, 3.6, 3.6, 3.6;stroke-dashoffset:0;stroke-opacity:1"
         id="path3520" /></g><g
       id="g3522"
       transform="matrix(0.35277778,0,0,-0.35277779,53.799416,55.089702)"><path
         d="M 0,0 V -1.417"
         style="fill:none;stroke:#000000;stroke-width:0.51;stroke-linecap:round;stroke-linejoin:round;stroke-miterlimit:10;stroke-dasharray:43.2, 3.6, 3.6, 3.6;stroke-dashoffset:0;stroke-opacity:1"
         id="path3524" /></g><g
       id="g3526"
       transform="matrix(0.35277778,0,0,-0.35277779,58.799406,50.089676)"><path
         d="M 0,0 H 1.417"
         style="fill:none;stroke:#000000;stroke-width:0.51;stroke-linecap:round;stroke-linejoin:round;stroke-miterlimit:10;stroke-dasharray:43.2, 3.6, 3.6, 3.6;stroke-dashoffset:0;stroke-opacity:1"
         id="path3528" /></g><g
       id="g3530"
       transform="matrix(0.35277778,0,0,-0.35277779,22.549401,60.472809)"><path
         d="M 0,0 H -6.378"
         style="fill:none;stroke:#000000;stroke-width:0.51;stroke-linecap:round;stroke-linejoin:round;stroke-miterlimit:10;stroke-dasharray:43.2, 3.6, 3.6, 3.6;stroke-dashoffset:0;stroke-opacity:1"
         id="path3532" /></g><g
       id="g3534"
       transform="matrix(0.35277778,0,0,-0.35277779,27.549391,60.472809)"><path
         d="M 0,0 H 6.378"
         style="fill:none;stroke:#000000;stroke-width:0.51;stroke-linecap:round;stroke-linejoin:round;stroke-miterlimit:10;stroke-dasharray:43.2, 3.6, 3.6, 3.6;stroke-dashoffset:0;stroke-opacity:1"
         id="path3536" /></g><g
       id="g3538"
       transform="matrix(0.35277778,0,0,-0.35277779,35.049411,77.793319)"><path
         d="M 0,0 -3.543,-6.137"
         style="fill:none;stroke:#000000;stroke-width:0.51;stroke-linecap:round;stroke-linejoin:round;stroke-miterlimit:10;stroke-dasharray:43.2, 3.6, 3.6, 3.6;stroke-dashoffset:0;stroke-opacity:1"
         id="path3540" /></g><g
       id="g3542"
       transform="matrix(0.35277778,0,0,-0.35277779,35.049411,77.793319)"><path
         d="M 0,0 3.543,6.137"
         style="fill:none;stroke:#000000;stroke-width:0.51;stroke-linecap:round;stroke-linejoin:round;stroke-miterlimit:10;stroke-dasharray:43.2, 3.6, 3.6, 3.6;stroke-dashoffset:0;stroke-opacity:1"
         id="path3544" /></g><g
       id="g3546"
       transform="matrix(0.35277778,0,0,-0.35277779,33.799411,79.958389)"><path
         d="M 0,0 -3.189,-5.523"
         style="fill:none;stroke:#000000;stroke-width:0.51;stroke-linecap:round;stroke-linejoin:round;stroke-miterlimit:10;stroke-dasharray:43.2, 3.6, 3.6, 3.6;stroke-dashoffset:0;stroke-opacity:1"
         id="path3548" /></g><g
       id="g3550"
       transform="matrix(0.35277778,0,0,-0.35277779,36.299411,75.628289)"><path
         d="M 0,0 3.189,5.523"
         style="fill:none;stroke:#000000;stroke-width:0.51;stroke-linecap:round;stroke-linejoin:round;stroke-miterlimit:10;stroke-dasharray:43.2, 3.6, 3.6, 3.6;stroke-dashoffset:0;stroke-opacity:1"
         id="path3552" /></g><g
       id="g3554"
       transform="matrix(0.35277778,0,0,-0.35277779,55.049406,77.793319)"><path
         d="M 0,0 3.543,-6.137"
         style="fill:none;stroke:#000000;stroke-width:0.51;stroke-linecap:round;stroke-linejoin:round;stroke-miterlimit:10;stroke-dasharray:43.2, 3.6, 3.6, 3.6;stroke-dashoffset:0;stroke-opacity:1"
         id="path3556" /></g><g
       id="g3558"
       transform="matrix(0.35277778,0,0,-0.35277779,55.049406,77.793319)"><path
         d="M 0,0 -3.543,6.137"
         style="fill:none;stroke:#000000;stroke-width:0.51;stroke-linecap:round;stroke-linejoin:round;stroke-miterlimit:10;stroke-dasharray:43.2, 3.6, 3.6, 3.6;stroke-dashoffset:0;stroke-opacity:1"
         id="path3560" /></g><g
       id="g3562"
       transform="matrix(0.35277778,0,0,-0.35277779,56.299406,79.958389)"><path
         d="M 0,0 3.189,-5.523"
         style="fill:none;stroke:#000000;stroke-width:0.51;stroke-linecap:round;stroke-linejoin:round;stroke-miterlimit:10;stroke-dasharray:43.2, 3.6, 3.6, 3.6;stroke-dashoffset:0;stroke-opacity:1"
         id="path3564" /></g><g
       id="g3566"
       transform="matrix(0.35277778,0,0,-0.35277779,53.799416,75.628289)"><path
         d="M 0,0 -3.189,5.523"
         style="fill:none;stroke:#000000;stroke-width:0.51;stroke-linecap:round;stroke-linejoin:round;stroke-miterlimit:10;stroke-dasharray:43.2, 3.6, 3.6, 3.6;stroke-dashoffset:0;stroke-opacity:1"
         id="path3568" /></g><g
       id="g3570"
       transform="matrix(0.35277778,0,0,-0.35277779,45.049396,60.472809)"><path
         d="M 0,0 V 7.087"
         style="fill:none;stroke:#000000;stroke-width:0.51;stroke-linecap:round;stroke-linejoin:round;stroke-miterlimit:10;stroke-dasharray:43.2, 3.6, 3.6, 3.6;stroke-dashoffset:0;stroke-opacity:1"
         id="path3572" /></g><g
       id="g3574"
       transform="matrix(0.35277778,0,0,-0.35277779,45.049396,60.472809)"><path
         d="M 0,0 H -7.087"
         style="fill:none;stroke:#000000;stroke-width:0.51;stroke-linecap:round;stroke-linejoin:round;stroke-miterlimit:10;stroke-dasharray:43.2, 3.6, 3.6, 3.6;stroke-dashoffset:0;stroke-opacity:1"
         id="path3576" /></g><g
       id="g3578"
       transform="matrix(0.35277778,0,0,-0.35277779,45.049396,60.472809)"><path
         d="M 0,0 V -7.087"
         style="fill:none;stroke:#000000;stroke-width:0.51;stroke-linecap:round;stroke-linejoin:round;stroke-miterlimit:10;stroke-dasharray:43.2, 3.6, 3.6, 3.6;stroke-dashoffset:0;stroke-opacity:1"
         id="path3580" /></g><g
       id="g3582"
       transform="matrix(0.35277778,0,0,-0.35277779,45.049396,60.472809)"><path
         d="M 0,0 H 7.087"
         style="fill:none;stroke:#000000;stroke-width:0.51;stroke-linecap:round;stroke-linejoin:round;stroke-miterlimit:10;stroke-dasharray:43.2, 3.6, 3.6, 3.6;stroke-dashoffset:0;stroke-opacity:1"
         id="path3584" /></g><g
       id="g3586"
       transform="matrix(0.35277778,0,0,-0.35277779,45.049396,55.472819)"><path
         d="M 0,0 V 42.011"
         style="fill:none;stroke:#000000;stroke-width:0.51;stroke-linecap:round;stroke-linejoin:round;stroke-miterlimit:10;stroke-dasharray:43.2, 3.6, 3.6, 3.6;stroke-dashoffset:21.005;stroke-opacity:1"
         id="path3588" /></g><g
       id="g3590"
       transform="matrix(0.35277778,0,0,-0.35277779,40.049406,60.472809)"><path
         d="M 0,0 H -42.011"
         style="fill:none;stroke:#000000;stroke-width:0.51;stroke-linecap:round;stroke-linejoin:round;stroke-miterlimit:10;stroke-dasharray:43.2, 3.6, 3.6, 3.6;stroke-dashoffset:21.005;stroke-opacity:1"
         id="path3592" /></g><g
       id="g3594"
       transform="matrix(0.35277778,0,0,-0.35277779,45.049396,65.472839)"><path
         d="M 0,0 V -42.011"
         style="fill:none;stroke:#000000;stroke-width:0.51;stroke-linecap:round;stroke-linejoin:round;stroke-miterlimit:10;stroke-dasharray:43.2, 3.6, 3.6, 3.6;stroke-dashoffset:21.005;stroke-opacity:1"
         id="path3596" /></g><g
       id="g3598"
       transform="matrix(0.35277778,0,0,-0.35277779,50.049386,60.472809)"><path
         d="M 0,0 H 42.011"
         style="fill:none;stroke:#000000;stroke-width:0.51;stroke-linecap:round;stroke-linejoin:round;stroke-miterlimit:10;stroke-dasharray:43.2, 3.6, 3.6, 3.6;stroke-dashoffset:21.005;stroke-opacity:1"
         id="path3600" /></g><g
       id="g3602"
       transform="matrix(0.35277778,0,0,-0.35277779,65.049426,60.472809)"><path
         d="M 0,0 H 7.087"
         style="fill:none;stroke:#000000;stroke-width:0.51;stroke-linecap:round;stroke-linejoin:round;stroke-miterlimit:10;stroke-dasharray:43.2, 3.6, 3.6, 3.6;stroke-dashoffset:0;stroke-opacity:1"
         id="path3604" /></g><g
       id="g3606"
       transform="matrix(0.35277778,0,0,-0.35277779,65.049426,60.472809)"><path
         d="M 0,0 H -7.087"
         style="fill:none;stroke:#000000;stroke-width:0.51;stroke-linecap:round;stroke-linejoin:round;stroke-miterlimit:10;stroke-dasharray:43.2, 3.6, 3.6, 3.6;stroke-dashoffset:0;stroke-opacity:1"
         id="path3608" /></g><g
       id="g3610"
       transform="matrix(0.35277778,0,0,-0.35277779,67.549386,60.472809)"><path
         d="M 0,0 H 6.378"
         style="fill:none;stroke:#000000;stroke-width:0.51;stroke-linecap:round;stroke-linejoin:round;stroke-miterlimit:10;stroke-dasharray:43.2, 3.6, 3.6, 3.6;stroke-dashoffset:0;stroke-opacity:1"
         id="path3612" /></g><g
       id="g3614"
       transform="matrix(0.35277778,0,0,-0.35277779,62.549396,60.472809)"><path
         d="M 0,0 H -6.378"
         style="fill:none;stroke:#000000;stroke-width:0.51;stroke-linecap:round;stroke-linejoin:round;stroke-miterlimit:10;stroke-dasharray:43.2, 3.6, 3.6, 3.6;stroke-dashoffset:0;stroke-opacity:1"
         id="path3616" /></g><g
       id="g3618"
       transform="matrix(0.35277778,0,0,-0.35277779,55.049406,43.152301)"><path
         d="M 0,0 3.543,6.137"
         style="fill:none;stroke:#000000;stroke-width:0.51;stroke-linecap:round;stroke-linejoin:round;stroke-miterlimit:10;stroke-dasharray:43.2, 3.6, 3.6, 3.6;stroke-dashoffset:0;stroke-opacity:1"
         id="path3620" /></g><g
       id="g3622"
       transform="matrix(0.35277778,0,0,-0.35277779,55.049406,43.152301)"><path
         d="M 0,0 -3.543,-6.137"
         style="fill:none;stroke:#000000;stroke-width:0.51;stroke-linecap:round;stroke-linejoin:round;stroke-miterlimit:10;stroke-dasharray:43.2, 3.6, 3.6, 3.6;stroke-dashoffset:0;stroke-opacity:1"
         id="path3624" /></g><g
       id="g3626"
       transform="matrix(0.35277778,0,0,-0.35277779,56.299406,40.987268)"><path
         d="M 0,0 3.189,5.523"
         style="fill:none;stroke:#000000;stroke-width:0.51;stroke-linecap:round;stroke-linejoin:round;stroke-miterlimit:10;stroke-dasharray:43.2, 3.6, 3.6, 3.6;stroke-dashoffset:0;stroke-opacity:1"
         id="path3628" /></g><g
       id="g3630"
       transform="matrix(0.35277778,0,0,-0.35277779,53.799416,45.317369)"><path
         d="M 0,0 -3.189,-5.523"
         style="fill:none;stroke:#000000;stroke-width:0.51;stroke-linecap:round;stroke-linejoin:round;stroke-miterlimit:10;stroke-dasharray:43.2, 3.6, 3.6, 3.6;stroke-dashoffset:0;stroke-opacity:1"
         id="path3632" /></g><g
       id="g3634"
       transform="matrix(0.35277778,0,0,-0.35277779,35.049411,43.152301)"><path
         d="M 0,0 -3.543,6.137"
         style="fill:none;stroke:#000000;stroke-width:0.51;stroke-linecap:round;stroke-linejoin:round;stroke-miterlimit:10;stroke-dasharray:43.2, 3.6, 3.6, 3.6;stroke-dashoffset:0;stroke-opacity:1"
         id="path3636" /></g><g
       id="g3638"
       transform="matrix(0.35277778,0,0,-0.35277779,35.049411,43.152301)"><path
         d="M 0,0 3.543,-6.137"
         style="fill:none;stroke:#000000;stroke-width:0.51;stroke-linecap:round;stroke-linejoin:round;stroke-miterlimit:10;stroke-dasharray:43.2, 3.6, 3.6, 3.6;stroke-dashoffset:0;stroke-opacity:1"
         id="path3640" /></g><g
       id="g3642"
       transform="matrix(0.35277778,0,0,-0.35277779,33.799411,40.987268)"><path
         d="M 0,0 -3.189,5.523"
         style="fill:none;stroke:#000000;stroke-width:0.51;stroke-linecap:round;stroke-linejoin:round;stroke-miterlimit:10;stroke-dasharray:43.2, 3.6, 3.6, 3.6;stroke-dashoffset:0;stroke-opacity:1"
         id="path3644" /></g><g
       id="g3646"
       transform="matrix(0.35277778,0,0,-0.35277779,36.299411,45.317369)"><path
         d="M 0,0 3.189,-5.523"
         style="fill:none;stroke:#000000;stroke-width:0.51;stroke-linecap:round;stroke-linejoin:round;stroke-miterlimit:10;stroke-dasharray:43.2, 3.6, 3.6, 3.6;stroke-dashoffset:0;stroke-opacity:1"
         id="path3648" /></g><g
       id="g3650"
       transform="matrix(0.35277778,0,0,-0.35277779,125.73194,92.348649)"><path
         d="M 0,0 V 214.963"
         style="fill:none;stroke:#000000;stroke-width:0.51;stroke-linecap:round;stroke-linejoin:round;stroke-miterlimit:10;stroke-dasharray:43.2, 3.6, 3.6, 3.6;stroke-dashoffset:-4.882;stroke-opacity:1"
         id="path3652" /></g><g
       id="g3654"
       transform="matrix(0.35277778,0,0,-0.35277779,125.73194,26.86515)"><path
         d="M 0,0 V 6.378"
         style="fill:none;stroke:#000000;stroke-width:0.51;stroke-linecap:round;stroke-linejoin:round;stroke-miterlimit:10;stroke-dasharray:43.2, 3.6, 3.6, 3.6;stroke-dashoffset:0;stroke-opacity:1"
         id="path3656" /></g><g
       id="g3658"
       transform="matrix(0.35277778,0,0,-0.35277779,123.23194,29.365145)"><path
         d="M 0,0 H -6.378"
         style="fill:none;stroke:#000000;stroke-width:0.51;stroke-linecap:round;stroke-linejoin:round;stroke-miterlimit:10;stroke-dasharray:43.2, 3.6, 3.6, 3.6;stroke-dashoffset:0;stroke-opacity:1"
         id="path3660" /></g><g
       id="g3662"
       transform="matrix(0.35277778,0,0,-0.35277779,125.73194,31.86514)"><path
         d="M 0,0 V -6.378"
         style="fill:none;stroke:#000000;stroke-width:0.51;stroke-linecap:round;stroke-linejoin:round;stroke-miterlimit:10;stroke-dasharray:43.2, 3.6, 3.6, 3.6;stroke-dashoffset:0;stroke-opacity:1"
         id="path3664" /></g><g
       id="g3666"
       transform="matrix(0.35277778,0,0,-0.35277779,128.23193,29.365145)"><path
         d="M 0,0 H 6.378"
         style="fill:none;stroke:#000000;stroke-width:0.51;stroke-linecap:round;stroke-linejoin:round;stroke-miterlimit:10;stroke-dasharray:43.2, 3.6, 3.6, 3.6;stroke-dashoffset:0;stroke-opacity:1"
         id="path3668" /></g><g
       id="g3670"
       transform="matrix(0.35277778,0,0,-0.35277779,36.298741,50.105446)"><path
         d="M 0,0 V 7.1 M 0,0 H -7.1 M 0,0 V -7.1 M 0,0 h 7 m 42.6,0 v 7.1 m 0,-7.1 h -7.1 m 7.1,0 v -7.1 m 0,7.1 h 7 M -31.9,-29.4 H -39 m 7.1,0 h 7"
         style="fill:none;stroke:#000000;stroke-width:0.51;stroke-linecap:round;stroke-linejoin:round;stroke-miterlimit:10;stroke-dasharray:none;stroke-opacity:1"
         id="path3672" /></g><g
       id="g3674"
       transform="matrix(0.35277778,0,0,-0.35277779,125.72791,29.397389)"><path
         d="M 0,0 V 7.1 M 0,0 H -7.1 M 0,0 v -7 m 0,7 h 7"
         style="fill:none;stroke:#000000;stroke-width:0.51;stroke-linecap:round;stroke-linejoin:round;stroke-miterlimit:10;stroke-dasharray:none;stroke-opacity:1"
         id="path3676" /></g><g
       id="g3686"
       transform="matrix(0.35277778,0,0,-0.35277779,66.037906,60.477109)"><path
         d="m 0,0 h 74.2 m -104,51.5 37.1,64.3"
         style="fill:none;stroke:#000000;stroke-width:0.51;stroke-linecap:round;stroke-linejoin:round;stroke-miterlimit:10;stroke-dasharray:none;stroke-opacity:1"
         id="path3688" /></g><g
       id="g3690"
       transform="matrix(0.35277778,0,0,-0.35277779,38.274296,50.105446)"><path
         d="M 0,0 H -97.1 M -8.5,-29.4 H -97.1 M -94.2,0 v -29.4 m 0,0 v -38.4"
         style="fill:none;stroke:#000000;stroke-width:0.51;stroke-linecap:round;stroke-linejoin:round;stroke-miterlimit:10;stroke-dasharray:none;stroke-opacity:1"
         id="path3692" /></g><g
       id="g3694"
       transform="matrix(0.35277778,0,0,-0.35277779,22.540401,27.139611)"><path
         d="M 0,0 H -52.5 M 0,-12.7 H -52.5 M -49.6,0 v 53.6 m 0,-53.6 v -12.7 m 0,0 v -18"
         style="fill:none;stroke:#000000;stroke-width:0.51;stroke-linecap:round;stroke-linejoin:round;stroke-miterlimit:10;stroke-dasharray:none;stroke-opacity:1"
         id="path3696" /></g><g
       id="g3698"
       transform="matrix(0.35277778,0,0,-0.35277779,66.637636,62.064609)"><path
         d="M 0,0 72.4,-72.4"
         style="fill:none;stroke:#000000;stroke-width:0.51;stroke-linecap:round;stroke-linejoin:round;stroke-miterlimit:10;stroke-dasharray:none;stroke-opacity:1"
         id="path3700" /></g><g
       id="g3702"
       transform="matrix(0.35277778,0,0,-0.35277779,121.70625,19.3785)"><path
         d="M 0,0 V 28.3 M 22.7,0 V 28.3 M 0,25.5 h -47.3 m 47.3,0 h 22.7"
         style="fill:none;stroke:#000000;stroke-width:0.51;stroke-linecap:round;stroke-linejoin:round;stroke-miterlimit:10;stroke-dasharray:none;stroke-opacity:1"
         id="path3704" /></g><g
       id="g3706"
       transform="matrix(0.35277778,0,0,-0.35277779,52.773466,68.202949)"><path
         d="M 0,0 100.3,-100.3 M 0,0 -21.9,21.9"
         style="fill:none;stroke:#000000;stroke-width:0.51;stroke-linecap:round;stroke-linejoin:round;stroke-miterlimit:10;stroke-dasharray:none;stroke-opacity:1"
         id="path3708" /></g><g
       id="g3710"
       transform="matrix(0.35277778,0,0,-0.35277779,36.298741,52.116279)"><path
         d="m 0,0 v 138.1 m 49.6,-114 v 114 M 0,135.3 h 49.6"
         style="fill:none;stroke:#000000;stroke-width:0.51;stroke-linecap:round;stroke-linejoin:round;stroke-miterlimit:10;stroke-dasharray:none;stroke-opacity:1"
         id="path3712" /></g><g
       id="g3714"
       transform="matrix(0.35277778,0,0,-0.35277779,91.226246,60.477109)"><path
         d="m 0,0 -2.4,9.2 4.1,0.2 m -67.2,103.9 9,-3.2 -2.1,-3.4"
         style="fill:#000000;fill-opacity:1;fill-rule:nonzero;stroke:none"
         id="path3716" /></g><g
       id="g3718"
       transform="matrix(0.35277778,0,0,-0.35277779,5.0426307,50.105446)"><path
         d="m 0,0 2,-9.4 h -4.1 m 2.1,-20 -2.1,9.3 H 2"
         style="fill:#000000;fill-opacity:1;fill-rule:nonzero;stroke:none"
         id="path3720" /></g><g
       id="g3722"
       transform="matrix(0.35277778,0,0,-0.35277779,5.0426307,27.139611)"><path
         d="M 0,0 -2.1,9.4 H 2 m -2,-22.1 2,-9.4 h -4.1"
         style="fill:#000000;fill-opacity:1;fill-rule:nonzero;stroke:none"
         id="path3724" /></g><g
       id="g3726"
       transform="matrix(0.35277778,0,0,-0.35277779,66.637636,62.064609)"><path
         d="M 0,0 5.1,-8.1 8,-5.2"
         style="fill:#000000;fill-opacity:1;fill-rule:nonzero;stroke:none"
         id="path3728" /></g><g
       id="g3730"
       transform="matrix(0.35277778,0,0,-0.35277779,121.70625,10.382666)"><path
         d="M 0,0 9.4,2 V -2 M 22.7,0 13.3,-2 V 2"
         style="fill:#000000;fill-opacity:1;fill-rule:nonzero;stroke:none"
         id="path3732" /></g><g
       id="g3734"
       transform="matrix(0.35277778,0,0,-0.35277779,52.773466,68.202949)"><path
         d="M 0,0 5.1,-8.1 8,-5.2"
         style="fill:#000000;fill-opacity:1;fill-rule:nonzero;stroke:none"
         id="path3736" /></g><g
       id="g3738"
       transform="matrix(0.35277778,0,0,-0.35277779,36.298741,4.3854428)"><path
         d="M 0,0 9.3,2 V -2 M 49.6,0 40.2,-2 V 2"
         style="fill:#000000;fill-opacity:1;fill-rule:nonzero;stroke:none"
         id="path3740" /></g><g
       id="g3742"
       transform="matrix(0.35277778,0,0,-0.35277779,43.530686,50.105446)"><path
         d="M 0,0 V 84.3 M -12,0 H 0 m -20.5,-8.5 -1.3,0.1 -1.2,0.3 -1.2,0.4 -1.1,0.6 -1,0.8 -0.8,0.9 -0.7,1 -0.6,1.1 -0.4,1.2 -0.2,1.3 v 1.2 l 0.1,1.3 0.3,1.2 0.6,1.1 0.6,1.1 0.8,0.9 1,0.8 1,0.7 1.2,0.5 1.2,0.3 1.2,0.2 h 1.3 l 1.2,-0.3 1.2,-0.3 1.1,-0.6 1,-0.7 1,-0.9 0.7,-1 0.6,-1.1 0.5,-1.1 0.3,-1.3 L -12,0 m -8.5,-44.9 v 36.4 m 2.3,-42.3 -0.5,0.6 -0.5,0.7 -0.4,0.7 -0.3,0.7 -0.3,0.8 -0.2,0.8 -0.1,0.8 v 0.8 m 47.2,-5.9 -1.7,-1.6 -1.8,-1.6 -2,-1.4 -2,-1.2 -2.2,-1.1 -2.2,-0.9 -2.3,-0.7 -2.3,-0.5 -2.4,-0.4 -2.3,-0.2 H 3.1 l -2.4,0.2 -2.4,0.4 -2.3,0.5 -2.3,0.7 -2.2,0.9 -2.2,1.1 -2,1.2 -2,1.4 -1.8,1.6 -1.7,1.6 m 9.7,-46.8 H 17 m -34,-8.5 0.1,1.3 0.3,1.3 0.5,1.3 0.7,1.1 0.9,1 1,0.9 1.1,0.7 1.3,0.5 1.3,0.3 1.3,0.1 m -8.5,-11.3 v 2.8 m -8.9,-2.8 h 8.9 m -32.5,13.6 2.7,-2.1 2.8,-2 2.8,-1.9 2.9,-1.8 3,-1.6 3.1,-1.6 3.1,-1.4 3.2,-1.2 m -28.1,21.3 4.5,-7.7 m -2,9.1 -2.5,-1.4 m 5.6,13 0.6,-1.2 0.4,-1.3 0.1,-1.3 v -1.3 l -0.3,-1.3 -0.4,-1.3 -0.6,-1.2 -0.8,-1 -1,-0.9 -1.1,-0.8 m -9.7,33.7 12.8,-22.1 m -24.4,25.2 1.2,0.6 1.3,0.4 1.3,0.2 1.4,-0.1 1.3,-0.2 1.2,-0.5 1.2,-0.6 1.1,-0.8 0.9,-1 0.7,-1.1 m -14,1.7 2.4,1.4 m -6.9,6.3 4.5,-7.7 m 16.3,78.3 -2.6,-3 -2.5,-3.2 -2.3,-3.2 -2.1,-3.4 -2,-3.5 -1.9,-3.5 -1.6,-3.7 -1.5,-3.7 -1.3,-3.8 -1.2,-3.8 -0.9,-3.9 -0.8,-3.9 -0.6,-4 -0.3,-4 -0.3,-4 v -4 l 0.2,-4 0.4,-4 0.5,-4 m 23,76.3 v -0.7 l -0.1,-0.8 -0.2,-0.8 -0.3,-0.7 -0.3,-0.7 -0.3,-0.7 -0.5,-0.7 -0.5,-0.6 m 2.2,51.1 V 33.2 m 14.2,51.1 -14.2,-5.7 M 0,84.3 H -42.5 M 65.2,33.2 v 45.4 m 2.2,-51.1 -0.5,0.6 -0.4,0.7 -0.4,0.7 -0.3,0.7 -0.3,0.7 -0.2,0.8 -0.1,0.8 v 0.7 m 23,-76.3 0.5,4 0.4,4 0.2,4 v 4 l -0.2,4 -0.4,4 -0.6,4 -0.8,3.9 -0.9,3.9 -1.2,3.8 -1.3,3.8 -1.5,3.7 -1.6,3.7 -1.9,3.5 -2,3.5 -2.1,3.4 -2.3,3.2 -2.5,3.2 -2.6,3 m 16.3,-78.3 4.5,7.7 m -6.9,-6.3 2.4,-1.4 m -14,-1.7 0.7,1.1 0.9,1 1.1,0.8 1.2,0.6 1.2,0.5 1.3,0.2 1.4,0.1 1.3,-0.2 1.3,-0.4 1.2,-0.6 m -52.2,4.5 -0.1,-0.8 -0.1,-0.8 -0.2,-0.8 -0.2,-0.8 -0.4,-0.7 -0.4,-0.7 -0.5,-0.7 -0.5,-0.6 m 2.4,42.3 V -44.9 M 20.6,0 v 1.2 l 0.3,1.3 0.5,1.1 0.6,1.1 0.8,1 0.9,0.9 1,0.7 1.1,0.6 1.2,0.3 1.2,0.3 h 1.3 l 1.2,-0.2 1.2,-0.3 1.2,-0.5 1,-0.7 1,-0.8 0.8,-0.9 0.7,-1.1 0.5,-1.1 0.3,-1.2 0.2,-1.3 -0.1,-1.2 -0.2,-1.3 -0.4,-1.2 -0.5,-1.1 -0.8,-1 -0.8,-0.9 -1,-0.8 -1.1,-0.6 -1.2,-0.4 -1.2,-0.3 -1.2,-0.1 M 8.5,0 H 20.6 M 8.5,84.3 V 0 M 51,84.3 H 8.5 M 65.2,78.6 51,84.3 m -34,-181.9 1.3,-0.1 1.3,-0.3 1.3,-0.5 1.1,-0.7 1,-0.9 0.9,-1 0.7,-1.1 0.5,-1.3 0.3,-1.3 0.1,-1.3 m 34.5,19.9 -1.1,0.8 -0.9,0.9 -0.9,1 -0.6,1.2 -0.4,1.3 -0.3,1.3 v 1.3 l 0.2,1.3 0.3,1.3 0.6,1.2 m 5.6,-13 -2.5,1.4 m -2,-9.1 4.5,7.7 m -28.1,-21.3 3.2,1.2 3.1,1.4 3.1,1.6 3,1.6 2.9,1.8 2.9,1.9 2.7,2 2.7,2.1 m -32.5,-13.6 h 8.9 m 22.5,34.3 12.8,22.1 m -44.2,-53.6 v -2.8 M 39,19.7 l -0.1,1 -0.3,1.1 -0.4,1 -0.6,0.9 -0.8,0.7 -0.9,0.7 -0.9,0.5 -1.1,0.3 -1,0.1 h -1.1 l -1.1,-0.2 -1,-0.4 -0.9,-0.6 -0.8,-0.7 -0.7,-0.9 -0.5,-0.9 -0.4,-1 -0.2,-1.1 v -1.1 l 0.2,-1 0.4,-1.1 0.5,-0.9 0.7,-0.9 0.8,-0.7 0.9,-0.5 1,-0.4 1.1,-0.3 h 1.1 l 1,0.1 1.1,0.3 0.9,0.5 0.9,0.7 0.8,0.8 0.6,0.8 0.4,1 0.3,1.1 0.1,1.1 m 28.3,-49.1 -0.1,1 -0.2,1.1 -0.5,1 -0.6,0.9 -0.7,0.7 -0.9,0.7 -1,0.5 -1,0.3 -1.1,0.1 h -1.1 l -1,-0.2 -1,-0.4 -0.9,-0.6 -0.9,-0.7 -0.6,-0.9 -0.6,-0.9 -0.3,-1 -0.2,-1.1 V -30 l 0.2,-1 0.3,-1.1 0.6,-0.9 0.6,-0.9 0.9,-0.7 0.9,-0.5 1,-0.4 1,-0.3 h 1.1 l 1.1,0.1 1,0.3 1,0.5 0.9,0.7 0.7,0.8 0.6,0.9 0.5,0.9 0.2,1.1 0.1,1.1 m -85,-49.1 -0.1,1 -0.3,1.1 -0.4,1 -0.6,0.9 -0.8,0.8 -0.8,0.6 -1,0.5 -1,0.3 -1.1,0.1 h -1.1 l -1.1,-0.2 -1,-0.4 -0.9,-0.6 -0.8,-0.7 -0.7,-0.9 -0.5,-0.9 -0.4,-1 -0.1,-1.1 v -1.1 l 0.1,-1 0.4,-1.1 0.5,-0.9 0.7,-0.8 0.8,-0.8 0.9,-0.5 1,-0.4 1.1,-0.3 h 1.1 l 1.1,0.1 1,0.3 1,0.5 0.8,0.7 0.8,0.8 0.6,0.9 0.4,0.9 0.3,1.1 0.1,1.1 m -28.4,49.1 -0.1,1 -0.2,1.1 -0.5,1 -0.6,0.9 -0.7,0.7 -0.9,0.7 -1,0.5 -1,0.3 -1.1,0.1 h -1 l -1.1,-0.2 -1,-0.4 -0.9,-0.6 -0.8,-0.7 -0.7,-0.9 -0.5,-0.9 -0.4,-1 -0.2,-1.1 V -30 l 0.2,-1 0.4,-1.1 0.5,-0.9 0.7,-0.9 0.8,-0.7 0.9,-0.5 1,-0.4 1.1,-0.3 h 1 l 1.1,0.1 1,0.3 1,0.5 0.9,0.7 0.7,0.8 0.6,0.9 0.5,0.9 0.2,1.1 0.1,1.1 m 85.1,-49.1 -0.1,1 -0.3,1.1 -0.4,1 -0.6,0.9 -0.8,0.8 -0.9,0.6 -0.9,0.5 -1.1,0.3 -1,0.1 h -1.1 l -1.1,-0.2 -1,-0.4 -0.9,-0.6 -0.8,-0.7 -0.7,-0.9 -0.5,-0.9 -0.4,-1 -0.2,-1.1 v -1.1 l 0.2,-1 0.4,-1.1 0.5,-0.9 0.7,-0.8 0.8,-0.8 0.9,-0.5 1,-0.4 1.1,-0.3 h 1.1 l 1,0.1 1.1,0.3 0.9,0.5 0.9,0.7 0.8,0.8 0.6,0.9 0.4,0.9 0.3,1.1 0.1,1.1 m -56.7,98.2 -0.1,1 -0.3,1.1 -0.4,1 -0.6,0.9 -0.8,0.7 -0.8,0.7 -1,0.5 -1,0.3 -1.1,0.1 h -1.1 l -1.1,-0.2 -1,-0.4 -0.9,-0.6 -0.8,-0.7 -0.7,-0.9 -0.5,-0.9 -0.4,-1 -0.1,-1.1 v -1.1 l 0.1,-1 0.4,-1.1 0.5,-0.9 0.7,-0.9 0.8,-0.7 0.9,-0.5 1,-0.4 1.1,-0.3 h 1.1 l 1.1,0.1 1,0.3 1,0.5 0.8,0.7 0.8,0.8 0.6,0.8 0.4,1 0.3,1.1 0.1,1.1"
         style="fill:none;stroke:#000000;stroke-width:0.709;stroke-linecap:round;stroke-linejoin:round;stroke-miterlimit:10;stroke-dasharray:none;stroke-opacity:1"
         id="path3744" /></g><g
       id="g3746"
       transform="matrix(0.35277778,0,0,-0.35277779,66.549406,27.115128)"><path
         d="M 0,0 H -56.693"
         style="fill:none;stroke:#000000;stroke-width:0.51;stroke-linecap:round;stroke-linejoin:round;stroke-miterlimit:10;stroke-dasharray:3.6, 1.8;stroke-dashoffset:0.454;stroke-opacity:1"
         id="path3748" /></g><g
       id="g3750"
       transform="matrix(0.35277778,0,0,-0.35277779,46.549406,31.615127)"><path
         d="M 0,0 H 56.693"
         style="fill:none;stroke:#000000;stroke-width:0.51;stroke-linecap:round;stroke-linejoin:round;stroke-miterlimit:10;stroke-dasharray:3.6, 1.8;stroke-dashoffset:0.454;stroke-opacity:1"
         id="path3752" /></g><g
       id="g3754"
       transform="matrix(0.35277778,0,0,-0.35277779,43.549386,27.115128)"><path
         d="M 0,0 H -56.693"
         style="fill:none;stroke:#000000;stroke-width:0.51;stroke-linecap:round;stroke-linejoin:round;stroke-miterlimit:10;stroke-dasharray:3.6, 1.8;stroke-dashoffset:0.454;stroke-opacity:1"
         id="path3756" /></g><g
       id="g3758"
       transform="matrix(0.35277778,0,0,-0.35277779,23.549381,31.615127)"><path
         d="M 0,0 H 56.693"
         style="fill:none;stroke:#000000;stroke-width:0.51;stroke-linecap:round;stroke-linejoin:round;stroke-miterlimit:10;stroke-dasharray:3.6, 1.8;stroke-dashoffset:0.454;stroke-opacity:1"
         id="path3760" /></g><g
       id="g3762"
       transform="matrix(0.35277778,0,0,-0.35277779,121.70625,65.310169)"><path
         d="M 0,0 H 22.7 M 0,0 v 4 4 4 4 4 4 4 3.9 3.9 3.8 3.8 3.7 3.7 3.5 3.5 3.4 3.2 3.2 3 m 0,0 H 22.7 M 22.7,0 v 4 4 4 4 4 4 4 3.9 3.9 3.8 3.8 3.7 3.7 3.5 3.5 3.4 3.2 3.2 3 M 0,-7.7 H 22.7 M 0,-7.7 V 0 M 22.7,-7.7 V 0 M 0,-9.4 H 22.7 M 0,-9.4 v 1.1 0.6 m 22.7,-1.7 v 1.1 0.6 M 0,-31.5 H 22.7 M 0,-31.5 V -9.4 M 22.7,-31.5 V -9.4 M 0,76.3 H 22.7 M 0,70.6 v 0.6 0.7 0.7 0.7 0.7 0.8 0.8 0.7 m 22.7,-5.7 v 0.6 0.7 0.7 0.7 0.7 0.8 0.8 0.7 M 0,121.7 h 22.7 m -5,-19.9 -0.1,1.1 -0.2,1.1 -0.5,1 -0.6,0.8 -0.7,0.8 -0.9,0.7 -1,0.5 -1,0.3 -1.1,0.1 h -1 l -1.1,-0.3 -1,-0.4 -0.9,-0.5 -0.8,-0.7 -0.7,-0.9 -0.6,-0.9 -0.3,-1.1 -0.2,-1 v -1.1 l 0.2,-1.1 0.3,-1 0.6,-0.9 0.7,-0.9 0.8,-0.7 0.9,-0.6 1,-0.4 1.1,-0.2 h 1 l 1.1,0.1 1,0.3 1,0.5 0.9,0.7 0.7,0.7 0.6,0.9 0.5,1 0.2,1.1 0.1,1 M 0,76.3 v 45.4 M 22.7,76.3 v 45.4 M 0,127.4 H 22.7 M 0,121.7 v 5.7 m 22.7,-5.7 v 5.7 M 0,-44.5 H 22.7 M 0,-43.1 H 22.7 M 0,-44.5 v 1.4 m 22.7,-1.4 v 1.4 M 0,-52.2 h 22.7 m -22.7,0 v 7.7 m 22.7,-7.7 v 7.7 M 0,-43.1 v 0.8 0.9 1 1.2 1.3 1.3 1.3 1.3 1.3 1.2 m 22.7,-11.6 v 0.8 0.9 1 1.2 1.3 1.3 1.3 1.3 1.3 1.2 M 0,-65.8 h 22.7 m -22.7,0 v 1.2 1.4 1.6 1.6 1.8 1.9 2 2.1 m 22.7,-13.6 v 1.2 1.4 1.6 1.6 1.8 1.9 2 2.1"
         style="fill:none;stroke:#000000;stroke-width:0.709;stroke-linecap:round;stroke-linejoin:round;stroke-miterlimit:10;stroke-dasharray:none;stroke-opacity:1"
         id="path3764" /></g></g></svg>
