<?xml version="1.0" encoding="UTF-8" standalone="no"?>
<!-- Created with Inkscape (http://www.inkscape.org/) -->

<svg
   width="210.59248mm"
   height="99.550003mm"
   viewBox="0 0 210.59248 99.550003"
   version="1.1"
   id="svg5"
   inkscape:version="1.2.1 (9c6d41e410, 2022-07-14)"
   sodipodi:docname="Orangatang Kegel 83mm Longboard Wheel.svg"
   xml:space="preserve"
   xmlns:inkscape="http://www.inkscape.org/namespaces/inkscape"
   xmlns:sodipodi="http://sodipodi.sourceforge.net/DTD/sodipodi-0.dtd"
   xmlns="http://www.w3.org/2000/svg"
   xmlns:svg="http://www.w3.org/2000/svg"><sodipodi:namedview
     id="namedview7"
     pagecolor="#505050"
     bordercolor="#eeeeee"
     borderopacity="1"
     inkscape:pageshadow="0"
     inkscape:pageopacity="0"
     inkscape:pagecheckerboard="0"
     inkscape:document-units="mm"
     showgrid="false"
     inkscape:zoom="0.69397446"
     inkscape:cx="342.23161"
     inkscape:cy="264.41895"
     inkscape:window-width="2560"
     inkscape:window-height="1361"
     inkscape:window-x="2551"
     inkscape:window-y="-9"
     inkscape:window-maximized="1"
     inkscape:current-layer="svg5"
     inkscape:snap-page="true"
     inkscape:showpageshadow="0"
     inkscape:deskcolor="#505050" /><defs
     id="defs2" /><g
     inkscape:label="Ebene 1"
     inkscape:groupmode="layer"
     id="layer1"
     transform="translate(-985.82892,-162.85087)" /><g
     aria-label="10 x"
     transform="scale(1.0001655,0.99983453)"
     id="text4699"
     style="font-size:4.66742px;font-family:'Century Gothic';-inkscape-font-specification:CenturyGothic;stroke-width:0.352836"><path
       d="m 2.2465392,8.4296506 h 0.658635 V 11.78208 H 2.5724382 V 8.7578286 H 2.045986 Z"
       id="path5210" /><path
       d="m 4.117538,10.107005 q 0,-0.6631933 0.1412988,-1.0255565 0.1435779,-0.3623631 0.4033854,-0.5492422 0.2598076,-0.1868792 0.5811485,-0.1868792 0.3258989,0 0.5902645,0.1891582 0.2643656,0.1868791 0.4170595,0.5629163 0.1549729,0.3760373 0.1549729,1.0096034 0,0.631286 -0.1526939,1.005045 -0.1504149,0.373758 -0.4170595,0.565195 -0.2666446,0.189158 -0.5925435,0.189158 -0.3213409,0 -0.5788695,-0.1846 Q 4.4069727,11.497203 4.2611158,11.132561 4.117538,10.76564 4.117538,10.107005 Z m 0.3167829,0.0068 q 0,0.567474 0.1002766,0.859188 0.1025556,0.289435 0.3008298,0.439849 0.1982741,0.150415 0.4193385,0.150415 0.2233433,0 0.4170595,-0.145856 0.1937161,-0.148136 0.2939927,-0.442129 0.1253458,-0.357805 0.1253458,-0.861467 0,-0.5059413 -0.1116717,-0.8272822 Q 5.8678204,8.9629398 5.6695462,8.814804 5.4735511,8.6643891 5.2547658,8.6643891 q -0.2233434,0 -0.4193385,0.1504149 Q 4.6394321,8.9629398 4.5368765,9.2546536 4.4343209,9.5440883 4.4343209,10.113842 Z"
       id="path5212" /><path
       d="M 7.9222436,9.3025129 H 8.3051179 L 8.9614738,10.220955 9.6178297,9.3025129 H 10.000704 L 9.152911,10.480763 10.107818,11.78208 H 9.7203854 L 8.9614738,10.74057 8.2139573,11.78208 H 7.8333621 l 0.9389536,-1.301317 z"
       id="path5214" /></g><g
     id="g4701"
     transform="matrix(0.35277776,0,0,-0.35277776,14.35644,10.068736)"><path
       d="M 0,0 -0.029,0.503 -0.115,0.999 -0.256,1.482 -0.452,1.946 -0.7,2.384 -0.996,2.792 -1.337,3.163 -1.717,3.492 -2.133,3.777 -2.578,4.012 -3.047,4.194 -3.534,4.322 -4.033,4.394 -4.536,4.408 -5.038,4.365 -5.531,4.265 -6.01,4.11 -6.468,3.9 -6.899,3.64 -7.298,3.333 -7.659,2.982 -7.978,2.592 -8.25,2.169 -8.472,1.717 -8.641,1.242 -8.755,0.752 -8.813,0.252 v -0.504 l 0.058,-0.5 0.114,-0.49 0.169,-0.475 0.222,-0.452 0.272,-0.423 0.319,-0.39 0.361,-0.351 0.399,-0.307 0.431,-0.26 0.458,-0.209 0.479,-0.156 0.493,-0.1 0.502,-0.043 0.503,0.014 0.499,0.072 0.487,0.128 0.469,0.183 0.445,0.235 0.416,0.284 0.38,0.329 0.341,0.371 0.296,0.408 0.248,0.438 0.196,0.464 0.141,0.483 0.086,0.496 L 0,0 m -6.93,-6.3 5.04,12.6"
       style="fill:none;stroke:#000000;stroke-width:0.51;stroke-linecap:butt;stroke-linejoin:miter;stroke-miterlimit:10;stroke-dasharray:none;stroke-opacity:1"
       id="path4703" /></g><g
     aria-label="5,8 "
     transform="scale(1.0001505,0.99984953)"
     id="text4707"
     style="font-size:4.66735px;font-family:'Century Gothic';-inkscape-font-specification:CenturyGothic;stroke-width:0.352831"><path
       d="m 17.660302,8.4295265 v 0.3190571 h -1.194185 l -0.166366,0.9138707 q 0.218782,-0.063811 0.394264,-0.063811 0.458075,0 0.754342,0.3076622 0.298546,0.3053825 0.298546,0.7839685 0,0.330452 -0.152691,0.606209 -0.152692,0.275756 -0.414775,0.42389 -0.259803,0.145854 -0.60165,0.145854 -0.407937,0 -0.688252,-0.248408 -0.280314,-0.250688 -0.33501,-0.64723 h 0.344126 q 0.03874,0.193713 0.129902,0.314499 0.09344,0.120786 0.24613,0.195992 0.15497,0.07293 0.323615,0.07293 0.330452,0 0.567466,-0.250688 0.237013,-0.250687 0.237013,-0.626719 0,-0.339568 -0.214224,-0.551513 -0.214224,-0.2119445 -0.572024,-0.2119445 -0.296267,0 -0.717878,0.1800385 l 0.309941,-1.6636541 z"
       id="path5203" /><path
       d="m 18.624156,11.166581 0.307662,0.145854 -0.462633,0.861455 -0.225619,-0.09572 z"
       id="path5205" /><path
       d="m 21.038657,9.9427688 q 0.339568,0.1686442 0.485422,0.3851472 0.148134,0.216503 0.148134,0.49226 0,0.387426 -0.252967,0.683694 -0.309941,0.362357 -0.886523,0.362357 -0.556071,0 -0.843222,-0.316778 -0.287151,-0.319057 -0.287151,-0.701925 0,-0.280315 0.150412,-0.503655 0.150413,-0.225619 0.501376,-0.4011002 -0.24613,-0.1276228 -0.369195,-0.3167781 -0.123065,-0.1891553 -0.123065,-0.4056584 0,-0.218782 0.129902,-0.4261691 0.132181,-0.2096661 0.362358,-0.3281731 0.232456,-0.1207859 0.501375,-0.1207859 0.262083,0 0.485423,0.1207859 0.22334,0.120786 0.348684,0.3281731 0.127622,0.2073871 0.127622,0.435285 0,0.227898 -0.120785,0.4056584 -0.118507,0.1777604 -0.3578,0.3076622 z M 20.53956,8.6710983 q -0.275756,0 -0.458075,0.1640865 -0.180039,0.1618075 -0.180039,0.3874265 0,0.22334 0.193713,0.4056583 0.195993,0.1800394 0.455796,0.1800394 0.166366,0 0.314499,-0.082043 0.148134,-0.082043 0.230177,-0.22334 0.08432,-0.1435757 0.08432,-0.2871514 0,-0.2028292 -0.164087,-0.3737527 Q 20.85178,8.6710983 20.53956,8.6710983 Z m 0.01595,1.4403147 q -0.346405,0 -0.58114,0.225619 -0.234734,0.22334 -0.234734,0.521887 0,0.184597 0.100275,0.348683 0.100275,0.164087 0.280314,0.252967 0.180039,0.08888 0.417053,0.08888 0.366916,0 0.583419,-0.216503 0.216503,-0.216503 0.216503,-0.505933 0,-0.280315 -0.230177,-0.496818 -0.227898,-0.218782 -0.551513,-0.218782 z"
       id="path5207" /></g><g
     id="g4709"
     transform="matrix(0.35277776,0,0,-0.35277776,8.7102608,83.478538)"><path
       d="M 0,0 -0.029,0.503 -0.115,0.999 -0.256,1.482 -0.452,1.946 -0.7,2.384 -0.996,2.792 -1.337,3.163 -1.717,3.492 -2.133,3.776 -2.578,4.011 -3.047,4.194 -3.534,4.322 -4.033,4.394 -4.536,4.408 -5.038,4.365 -5.531,4.265 -6.01,4.109 -6.468,3.9 -6.899,3.64 -7.298,3.333 -7.659,2.982 -7.978,2.592 -8.25,2.169 -8.472,1.717 -8.641,1.242 -8.755,0.752 -8.813,0.252 v -0.504 l 0.058,-0.5 0.114,-0.49 0.169,-0.475 0.222,-0.452 0.272,-0.423 0.319,-0.39 0.361,-0.351 0.399,-0.307 0.431,-0.26 0.458,-0.21 0.479,-0.155 0.493,-0.1 0.502,-0.043 0.503,0.014 0.499,0.072 0.487,0.128 0.469,0.183 0.445,0.235 0.416,0.284 0.38,0.329 0.341,0.371 0.296,0.408 0.248,0.438 0.196,0.464 0.141,0.483 0.086,0.496 L 0,0 m -6.93,-6.3 5.04,12.6"
       style="fill:none;stroke:#000000;stroke-width:0.51;stroke-linecap:butt;stroke-linejoin:miter;stroke-miterlimit:10;stroke-dasharray:none;stroke-opacity:1"
       id="path4711" /></g><g
     aria-label="80,0 "
     transform="scale(1.0001505,0.99984953)"
     id="text4715"
     style="font-size:4.66735px;font-family:'Century Gothic';-inkscape-font-specification:CenturyGothic;stroke-width:0.352831"><path
       d="m 11.513602,83.363615 q 0.339568,0.168644 0.485422,0.385147 0.148134,0.216503 0.148134,0.49226 0,0.387426 -0.252967,0.683694 -0.309941,0.362357 -0.886523,0.362357 -0.556071,0 -0.843222,-0.316778 -0.2871513,-0.319057 -0.2871513,-0.701925 0,-0.280315 0.1504123,-0.503655 0.150413,-0.225619 0.501376,-0.4011 -0.24613,-0.127623 -0.369195,-0.316778 -0.123065,-0.189156 -0.123065,-0.405659 0,-0.218782 0.129902,-0.426169 0.132181,-0.209666 0.362358,-0.328173 0.232456,-0.120786 0.501375,-0.120786 0.262083,0 0.485423,0.120786 0.22334,0.120786 0.348684,0.328173 0.127623,0.207387 0.127623,0.435285 0,0.227898 -0.120786,0.405659 -0.118507,0.17776 -0.3578,0.307662 z m -0.499097,-1.271671 q -0.275756,0 -0.458074,0.164087 -0.18004,0.161807 -0.18004,0.387426 0,0.22334 0.193713,0.405659 0.195993,0.180039 0.455796,0.180039 0.166366,0 0.314499,-0.08204 0.148134,-0.08204 0.230177,-0.22334 0.08432,-0.143576 0.08432,-0.287152 0,-0.202829 -0.164087,-0.373752 -0.164086,-0.170924 -0.476307,-0.170924 z m 0.01595,1.440315 q -0.346405,0 -0.58114,0.225619 -0.234734,0.22334 -0.234734,0.521887 0,0.184597 0.100275,0.348683 0.100275,0.164087 0.280314,0.252967 0.18004,0.08888 0.417053,0.08888 0.366916,0 0.583419,-0.216503 0.216503,-0.216503 0.216503,-0.505933 0,-0.280315 -0.230177,-0.496818 -0.227898,-0.218782 -0.551513,-0.218782 z"
       id="path5194" /><path
       d="m 12.454666,83.527701 q 0,-0.663183 0.141296,-1.02554 0.143576,-0.362358 0.40338,-0.549234 0.259803,-0.186877 0.581139,-0.186877 0.325894,0 0.590256,0.189156 0.264362,0.186876 0.417053,0.562907 0.154971,0.376032 0.154971,1.009588 0,0.631278 -0.152692,1.00503 -0.150412,0.373753 -0.417053,0.565187 -0.266641,0.189155 -0.592535,0.189155 -0.321336,0 -0.57886,-0.184597 -0.257525,-0.184597 -0.40338,-0.549234 -0.143575,-0.366916 -0.143575,-1.025541 z m 0.316778,0.0068 q 0,0.567466 0.100275,0.859175 0.102554,0.289431 0.300825,0.439843 0.198271,0.150413 0.419332,0.150413 0.22334,0 0.417054,-0.145855 0.193713,-0.148133 0.293988,-0.442122 0.125344,-0.357799 0.125344,-0.861454 0,-0.505933 -0.11167,-0.827269 -0.11167,-0.323615 -0.309941,-0.471749 -0.195993,-0.150413 -0.414775,-0.150413 -0.22334,0 -0.419332,0.150413 -0.195992,0.148134 -0.298546,0.439843 -0.102554,0.28943 -0.102554,0.859175 z"
       id="path5196" /><path
       d="m 15.565318,84.587427 0.307662,0.145854 -0.462633,0.861455 -0.225619,-0.09572 z"
       id="path5198" /><path
       d="m 16.334411,83.527701 q 0,-0.663183 0.141297,-1.02554 0.143575,-0.362358 0.403379,-0.549234 0.259804,-0.186877 0.58114,-0.186877 0.325894,0 0.590256,0.189156 0.264361,0.186876 0.417053,0.562907 0.15497,0.376032 0.15497,1.009588 0,0.631278 -0.152691,1.00503 -0.150413,0.373753 -0.417053,0.565187 -0.266641,0.189155 -0.592535,0.189155 -0.321336,0 -0.578861,-0.184597 -0.257525,-0.184597 -0.403379,-0.549234 -0.143576,-0.366916 -0.143576,-1.025541 z m 0.316778,0.0068 q 0,0.567466 0.100275,0.859175 0.102554,0.289431 0.300826,0.439843 0.198271,0.150413 0.419332,0.150413 0.22334,0 0.417053,-0.145855 0.193713,-0.148133 0.293988,-0.442122 0.125344,-0.357799 0.125344,-0.861454 0,-0.505933 -0.11167,-0.827269 -0.11167,-0.323615 -0.309941,-0.471749 -0.195992,-0.150413 -0.414774,-0.150413 -0.22334,0 -0.419332,0.150413 -0.195993,0.148134 -0.298547,0.439843 -0.102554,0.28943 -0.102554,0.859175 z"
       id="path5200" /></g><g
     aria-label="Position der Zahnscheibe"
     transform="scale(0.999981,1.000019)"
     id="text4735"
     style="font-size:4.66656px;font-family:'Century Gothic';-inkscape-font-specification:CenturyGothic;stroke-width:0.352771"><path
       d="m 155.06308,0.39583623 h 0.66762 q 0.57421,0 0.77473,0.0501291 0.2871,0.0706364 0.46939,0.29166001 0.18228,0.21874501 0.18228,0.55141966 0,0.3349533 -0.17773,0.5536983 -0.17773,0.2164664 -0.48989,0.29166 -0.22786,0.054686 -0.8522,0.054686 h -0.23925 v 1.5585582 h -0.33495 z m 0.33495,0.32583892 V 1.8609721 l 0.56737,0.00684 q 0.34407,0 0.50357,-0.061522 0.1595,-0.063801 0.25064,-0.2027948 0.0911,-0.1412729 0.0911,-0.314446 0,-0.1686159 -0.0911,-0.30761015 -0.0911,-0.14127282 -0.24153,-0.20051626 -0.14811,-0.0592434 -0.48762,-0.0592434 z"
       id="path5109" /><path
       d="m 158.94893,1.204737 q 0.57193,0 0.9479,0.4147041 0.34179,0.3782466 0.34179,0.8954874 0,0.5195194 -0.3623,0.9091589 -0.36002,0.387361 -0.92739,0.387361 -0.56964,0 -0.93194,-0.387361 -0.36002,-0.3896395 -0.36002,-0.9091589 0,-0.5149622 0.34179,-0.8932088 0.37597,-0.4169827 0.95017,-0.4169827 z m 0,0.3121674 q -0.39647,0 -0.68129,0.2939386 -0.28483,0.2939386 -0.28483,0.7109213 0,0.2688741 0.12988,0.5012906 0.12988,0.2324166 0.3509,0.3600178 0.22103,0.1253227 0.48534,0.1253227 0.26432,0 0.48535,-0.1253227 0.22102,-0.1276012 0.3509,-0.3600178 0.12988,-0.2324165 0.12988,-0.5012906 0,-0.4169827 -0.2871,-0.7109213 -0.28483,-0.2939386 -0.67903,-0.2939386 z"
       id="path5111" /><path
       d="m 162.07834,1.5396903 -0.20508,0.2119093 q -0.2552,-0.2483668 -0.49901,-0.2483668 -0.15494,0 -0.26659,0.1025368 -0.10938,0.1025367 -0.10938,0.2392523 0,0.1207655 0.0911,0.230138 0.0911,0.1116511 0.3828,0.2620383 0.35546,0.1845661 0.48306,0.3554606 0.12533,0.1731731 0.12533,0.3896396 0,0.3053315 -0.21419,0.5172408 -0.21419,0.2119092 -0.53547,0.2119092 -0.21419,0 -0.41015,-0.093422 -0.19368,-0.093422 -0.32128,-0.2574811 L 160.8,3.232686 q 0.24381,0.2757098 0.51724,0.2757098 0.1914,0 0.32584,-0.1230441 0.13443,-0.123044 0.13443,-0.2893814 0,-0.1367156 -0.0889,-0.2438095 -0.0889,-0.1048153 -0.40103,-0.2643169 -0.33496,-0.1731731 -0.45572,-0.3417891 -0.12077,-0.1686159 -0.12077,-0.3850823 0,-0.2825457 0.1914,-0.4693904 0.19368,-0.1868447 0.48762,-0.1868447 0.34179,0 0.68814,0.3349533 z"
       id="path5113" /><path
       d="m 162.75414,0.24772763 q 0.10938,0 0.18685,0.0774722 0.0775,0.0774722 0.0775,0.1868447 0,0.10709391 -0.0775,0.1845661 -0.0775,0.0774722 -0.18685,0.0774722 -0.10709,0 -0.18456,-0.0774722 -0.0775,-0.0774722 -0.0775,-0.1845661 0,-0.10937251 0.0775,-0.1868447 0.0775,-0.0774722 0.18456,-0.0774722 z m -0.1595,1.02081007 h 0.32128 v 2.4791101 h -0.32128 z"
       id="path5115" /><path
       d="m 163.85377,0.34798576 h 0.32128 V 1.2685377 h 0.50585 v 0.2734312 h -0.50585 v 2.2056789 h -0.32128 V 1.5419689 h -0.43521 V 1.2685377 h 0.43521 z"
       id="path5117" /><path
       d="m 165.26931,0.24772763 q 0.10937,0 0.18685,0.0774722 0.0775,0.0774722 0.0775,0.1868447 0,0.10709391 -0.0775,0.1845661 -0.0775,0.0774722 -0.18685,0.0774722 -0.10709,0 -0.18456,-0.0774722 -0.0775,-0.0774722 -0.0775,-0.1845661 0,-0.10937251 0.0775,-0.1868447 0.0775,-0.0774722 0.18456,-0.0774722 z m -0.1595,1.02081007 h 0.32128 v 2.4791101 h -0.32128 z"
       id="path5119" /><path
       d="m 167.26443,1.204737 q 0.57192,0 0.94789,0.4147041 0.34179,0.3782466 0.34179,0.8954874 0,0.5195194 -0.3623,0.9091589 -0.36001,0.387361 -0.92738,0.387361 -0.56965,0 -0.93195,-0.387361 -0.36002,-0.3896395 -0.36002,-0.9091589 0,-0.5149622 0.34179,-0.8932088 0.37597,-0.4169827 0.95018,-0.4169827 z m 0,0.3121674 q -0.39648,0 -0.6813,0.2939386 -0.28483,0.2939386 -0.28483,0.7109213 0,0.2688741 0.12988,0.5012906 0.12988,0.2324166 0.3509,0.3600178 0.22103,0.1253227 0.48535,0.1253227 0.26431,0 0.48534,-0.1253227 0.22102,-0.1276012 0.3509,-0.3600178 0.12988,-0.2324165 0.12988,-0.5012906 0,-0.4169827 -0.2871,-0.7109213 -0.28483,-0.2939386 -0.67902,-0.2939386 z"
       id="path5121" /><path
       d="m 169.14744,1.2685377 h 0.319 v 0.4443258 q 0.1914,-0.2552025 0.42382,-0.3805252 0.23242,-0.1276013 0.50585,-0.1276013 0.27799,0 0.49217,0.1412729 0.21647,0.1412728 0.31901,0.3805251 0.10253,0.2392524 0.10253,0.7451002 V 3.7476478 H 170.9931 V 2.5650576 q 0,-0.4283757 -0.0365,-0.5719271 -0.057,-0.2460881 -0.21419,-0.3691322 -0.15722,-0.1253227 -0.41014,-0.1253227 -0.28939,0 -0.51952,0.1914019 -0.22786,0.1914019 -0.30078,0.4739475 -0.0456,0.1845661 -0.0456,0.6744638 v 0.909159 h -0.319 z"
       id="path5123" /><path
       d="M 175.76106,0.31152826 V 3.7476478 h -0.31445 V 3.3215507 q -0.20051,0.2438096 -0.45116,0.3668536 -0.24837,0.1230441 -0.54458,0.1230441 -0.52636,0 -0.90005,-0.3805252 -0.37141,-0.3828037 -0.37141,-0.9296663 0,-0.5354695 0.37597,-0.9159947 0.37597,-0.3805252 0.9046,-0.3805252 0.30533,0 0.55142,0.1298799 0.24837,0.1298798 0.43521,0.3896395 V 0.31152826 Z m -1.27601,1.20081894 q -0.2666,0 -0.49218,0.1321585 -0.22558,0.1298798 -0.36002,0.3668536 -0.13216,0.2369737 -0.13216,0.5012906 0,0.2620383 0.13444,0.5012906 0.13444,0.2392524 0.36002,0.3736894 0.22786,0.1321585 0.48762,0.1321585 0.26204,0 0.49673,-0.1321585 0.2347,-0.1321584 0.36002,-0.3577392 0.1276,-0.2255808 0.1276,-0.5081264 0,-0.4306543 -0.28482,-0.7200357 -0.28255,-0.2893814 -0.69725,-0.2893814 z"
       id="path5125" /><path
       d="m 178.57017,2.9250754 0.26887,0.1412728 q -0.13215,0.2597597 -0.30533,0.4192613 -0.17317,0.1595015 -0.38964,0.2438095 -0.21646,0.082029 -0.48989,0.082029 -0.60611,0 -0.9479,-0.3964753 -0.34179,-0.398754 -0.34179,-0.9000446 0,-0.4716689 0.28938,-0.8408011 0.36686,-0.4693904 0.98208,-0.4693904 0.63345,0 1.01169,0.4807833 0.26888,0.3395105 0.27343,0.8476369 h -2.22846 q 0.009,0.4329329 0.27571,0.7109213 0.26659,0.2757099 0.65851,0.2757099 0.18913,0 0.36686,-0.066079 0.18,-0.066079 0.30533,-0.1754518 0.12532,-0.1093725 0.27115,-0.3531818 z m 0,-0.667628 q -0.0638,-0.2552025 -0.18684,-0.4078683 -0.12077,-0.1526658 -0.32129,-0.2460881 -0.20051,-0.093422 -0.42154,-0.093422 -0.36457,0 -0.62661,0.2346952 -0.1914,0.1708945 -0.28938,0.5126836 z"
       id="path5127" /><path
       d="m 179.39539,1.2685377 h 0.32583 v 0.3622964 q 0.14583,-0.2141878 0.30761,-0.3190031 0.16178,-0.107094 0.33724,-0.107094 0.13215,0 0.28254,0.084308 l -0.16634,0.2688741 q -0.10025,-0.043293 -0.16861,-0.043293 -0.1595,0 -0.30761,0.1321584 -0.14811,0.1298799 -0.22558,0.4055897 -0.0593,0.2119093 -0.0593,0.8567513 v 0.8385226 h -0.32583 z"
       id="path5129" /><path
       d="M 182.13582,0.71939656 V 0.39583623 h 1.76819 l -1.40133,3.02597257 h 1.33069 v 0.325839 h -1.84793 l 1.41044,-3.02825124 z"
       id="path5131" /><path
       d="m 186.92316,1.2685377 v 2.4791101 h -0.31445 V 3.3215507 q -0.20051,0.2438096 -0.45116,0.3668536 -0.24837,0.1230441 -0.54458,0.1230441 -0.52636,0 -0.90005,-0.3805252 -0.37141,-0.3828037 -0.37141,-0.9296663 0,-0.5354695 0.37597,-0.9159947 0.37597,-0.3805252 0.9046,-0.3805252 0.30533,0 0.55142,0.1298799 0.24837,0.1298798 0.43521,0.3896395 V 1.2685377 Z m -1.27601,0.2438095 q -0.2666,0 -0.49218,0.1321585 -0.22558,0.1298798 -0.36002,0.3668536 -0.13216,0.2369737 -0.13216,0.5012906 0,0.2620383 0.13444,0.5012906 0.13444,0.2392524 0.36002,0.3736894 0.22786,0.1321585 0.48762,0.1321585 0.26204,0 0.49673,-0.1321585 0.2347,-0.1321584 0.36002,-0.3577392 0.1276,-0.2255808 0.1276,-0.5081264 0,-0.4306543 -0.28482,-0.7200357 -0.28255,-0.2893814 -0.69725,-0.2893814 z"
       id="path5133" /><path
       d="m 187.64033,0.31152826 h 0.319 V 1.7128635 q 0.19368,-0.2552025 0.4261,-0.3805252 0.23241,-0.1276013 0.50357,-0.1276013 0.27798,0 0.49217,0.1412729 0.21647,0.1412728 0.31901,0.3805251 0.10253,0.2369738 0.10253,0.7451002 v 1.2760126 h -0.319 V 2.5650576 q 0,-0.4283757 -0.0342,-0.5719271 -0.0592,-0.2460881 -0.21647,-0.3691322 -0.15494,-0.1253227 -0.40786,-0.1253227 -0.28939,0 -0.51952,0.1914019 -0.22786,0.1914019 -0.30078,0.4739475 -0.0456,0.1822876 -0.0456,0.6744638 v 0.909159 h -0.319 z"
       id="path5135" /><path
       d="m 190.48679,1.2685377 h 0.31901 v 0.4443258 q 0.1914,-0.2552025 0.42381,-0.3805252 0.23242,-0.1276013 0.50585,-0.1276013 0.27799,0 0.49218,0.1412729 0.21647,0.1412728 0.319,0.3805251 0.10254,0.2392524 0.10254,0.7451002 v 1.2760126 h -0.31673 V 2.5650576 q 0,-0.4283757 -0.0365,-0.5719271 -0.057,-0.2460881 -0.21419,-0.3691322 -0.15722,-0.1253227 -0.41015,-0.1253227 -0.28938,0 -0.51952,0.1914019 -0.22786,0.1914019 -0.30077,0.4739475 -0.0456,0.1845661 -0.0456,0.6744638 v 0.909159 h -0.31901 z"
       id="path5137" /><path
       d="m 194.57968,1.5396903 -0.20507,0.2119093 q -0.25521,-0.2483668 -0.49902,-0.2483668 -0.15494,0 -0.26659,0.1025368 -0.10937,0.1025367 -0.10937,0.2392523 0,0.1207655 0.0911,0.230138 0.0911,0.1116511 0.3828,0.2620383 0.35547,0.1845661 0.48307,0.3554606 0.12532,0.1731731 0.12532,0.3896396 0,0.3053315 -0.21419,0.5172408 -0.21419,0.2119092 -0.53547,0.2119092 -0.21419,0 -0.41015,-0.093422 -0.19368,-0.093422 -0.32128,-0.2574811 l 0.20052,-0.2278593 q 0.24381,0.2757098 0.51724,0.2757098 0.1914,0 0.32584,-0.1230441 0.13444,-0.123044 0.13444,-0.2893814 0,-0.1367156 -0.0889,-0.2438095 -0.0889,-0.1048153 -0.40103,-0.2643169 -0.33495,-0.1731731 -0.45572,-0.3417891 -0.12077,-0.1686159 -0.12077,-0.3850823 0,-0.2825457 0.19141,-0.4693904 0.19368,-0.1868447 0.48762,-0.1868447 0.34178,0 0.68813,0.3349533 z"
       id="path5139" /><path
       d="m 197.55006,1.7834999 -0.25292,0.157223 q -0.32812,-0.4352115 -0.89549,-0.4352115 -0.45344,0 -0.75421,0.29166 -0.2985,0.2916601 -0.2985,0.7086427 0,0.2711527 0.13672,0.510405 0.13899,0.2392524 0.37824,0.3714108 0.24153,0.1321585 0.54003,0.1321585 0.54686,0 0.89321,-0.4352114 l 0.25292,0.1663373 q -0.17773,0.2665955 -0.4785,0.4147041 -0.2985,0.14583 -0.6813,0.14583 -0.58788,0 -0.97524,-0.3736894 -0.38736,-0.3736894 -0.38736,-0.9091589 0,-0.3600179 0.18001,-0.667628 0.18229,-0.3098888 0.49901,-0.4830619 0.31672,-0.1731732 0.70864,-0.1731732 0.24609,0 0.47395,0.075194 0.23014,0.075194 0.38964,0.1959591 0.1595,0.1207655 0.27115,0.3076098 z"
       id="path5141" /><path
       d="m 198.163,0.31152826 h 0.319 V 1.7128635 q 0.19369,-0.2552025 0.4261,-0.3805252 0.23242,-0.1276013 0.50357,-0.1276013 0.27799,0 0.49218,0.1412729 0.21646,0.1412728 0.319,0.3805251 0.10254,0.2369738 0.10254,0.7451002 v 1.2760126 h -0.31901 V 2.5650576 q 0,-0.4283757 -0.0342,-0.5719271 -0.0592,-0.2460881 -0.21647,-0.3691322 -0.15495,-0.1253227 -0.40787,-0.1253227 -0.28938,0 -0.51952,0.1914019 -0.22786,0.1914019 -0.30077,0.4739475 -0.0456,0.1822876 -0.0456,0.6744638 v 0.909159 h -0.319 z"
       id="path5143" /><path
       d="m 203.09669,2.9250754 0.26887,0.1412728 q -0.13215,0.2597597 -0.30533,0.4192613 -0.17317,0.1595015 -0.38964,0.2438095 -0.21646,0.082029 -0.48989,0.082029 -0.60611,0 -0.9479,-0.3964753 -0.34179,-0.398754 -0.34179,-0.9000446 0,-0.4716689 0.28938,-0.8408011 0.36686,-0.4693904 0.98208,-0.4693904 0.63345,0 1.01169,0.4807833 0.26888,0.3395105 0.27343,0.8476369 h -2.22846 q 0.009,0.4329329 0.27571,0.7109213 0.26659,0.2757099 0.65851,0.2757099 0.18913,0 0.36686,-0.066079 0.18,-0.066079 0.30533,-0.1754518 0.12532,-0.1093725 0.27115,-0.3531818 z m 0,-0.667628 q -0.0638,-0.2552025 -0.18684,-0.4078683 -0.12077,-0.1526658 -0.32129,-0.2460881 -0.20051,-0.093422 -0.42154,-0.093422 -0.36457,0 -0.62661,0.2346952 -0.1914,0.1708945 -0.28938,0.5126836 z"
       id="path5145" /><path
       d="m 204.15429,0.24772763 q 0.10937,0 0.18685,0.0774722 0.0775,0.0774722 0.0775,0.1868447 0,0.10709391 -0.0775,0.1845661 -0.0775,0.0774722 -0.18685,0.0774722 -0.10709,0 -0.18456,-0.0774722 -0.0775,-0.0774722 -0.0775,-0.1845661 0,-0.10937251 0.0775,-0.1868447 0.0775,-0.0774722 0.18456,-0.0774722 z m -0.1595,1.02081007 h 0.32128 v 2.4791101 h -0.32128 z"
       id="path5147" /><path
       d="M 204.99644,3.7476478 V 0.31152826 h 0.31672 V 1.6946347 q 0.20052,-0.2460881 0.44888,-0.3668536 0.24837,-0.1230441 0.54459,-0.1230441 0.52635,0 0.89776,0.3828038 0.37369,0.3805252 0.37369,0.9251091 0,0.5377481 -0.37597,0.9182733 -0.37596,0.3805252 -0.9046,0.3805252 -0.30305,0 -0.54914,-0.1298799 -0.24609,-0.1298798 -0.43521,-0.3896395 v 0.4557188 z m 1.27601,-0.2438096 q 0.26659,0 0.49217,-0.1298798 0.22559,-0.1321585 0.35774,-0.3691322 0.13444,-0.2369738 0.13444,-0.5012907 0,-0.2643169 -0.13444,-0.5035692 -0.13443,-0.2392524 -0.36229,-0.3714108 -0.22558,-0.134437 -0.48306,-0.134437 -0.26204,0 -0.49902,0.134437 -0.23469,0.1321584 -0.36229,0.3577392 -0.12533,0.2255808 -0.12533,0.5081265 0,0.4306542 0.28255,0.7200356 0.28482,0.2893814 0.69953,0.2893814 z"
       id="path5149" /><path
       d="m 210.24559,2.9250754 0.26887,0.1412728 q -0.13216,0.2597597 -0.30533,0.4192613 -0.17318,0.1595015 -0.38964,0.2438095 -0.21647,0.082029 -0.4899,0.082029 -0.60611,0 -0.94789,-0.3964753 -0.34179,-0.398754 -0.34179,-0.9000446 0,-0.4716689 0.28938,-0.8408011 0.36685,-0.4693904 0.98207,-0.4693904 0.63345,0 1.0117,0.4807833 0.26887,0.3395105 0.27343,0.8476369 h -2.22847 q 0.009,0.4329329 0.27571,0.7109213 0.2666,0.2757099 0.65852,0.2757099 0.18912,0 0.36685,-0.066079 0.18001,-0.066079 0.30533,-0.1754518 0.12533,-0.1093725 0.27116,-0.3531818 z m 0,-0.667628 q -0.0638,-0.2552025 -0.18685,-0.4078683 -0.12076,-0.1526658 -0.32128,-0.2460881 -0.20052,-0.093422 -0.42154,-0.093422 -0.36458,0 -0.62661,0.2346952 -0.19141,0.1708945 -0.28939,0.5126836 z"
       id="path5151" /></g><g
     id="g4737"
     transform="matrix(0.35277776,0,0,-0.35277776,177.4863,38.668076)"><path
       d="M 0,0 4.866,8.252 7.859,5.478 0,0 m 0,0 5.638,6.131 4.75,5.44 3.769,4.88 2.74,4.454 1.709,4.164 0.717,4.019 -0.189,4.021 -0.964,4.175 -1.784,5.053 -2.225,5.67 -2.286,6.522 -1.895,7.615 -0.76,5.458 -0.257,6.051 0.4,6.709 1.223,7.432 2.222,8.223"
       style="fill:none;stroke:#000000;stroke-width:0.51;stroke-linecap:butt;stroke-linejoin:miter;stroke-miterlimit:10;stroke-dasharray:none;stroke-opacity:1"
       id="path4739" /></g><g
     id="g4741"
     transform="matrix(0.35277776,0,0,-0.35277776,58.12014,2.1749808)"><path
       d="M 0,0 -17.008,-4.252 V 4.252 L 0,0 m 0,-269.858 -17.008,-4.252 v 8.504 L 0,-269.858"
       style="fill:none;stroke:#000000;stroke-width:0.992;stroke-linecap:butt;stroke-linejoin:miter;stroke-miterlimit:10;stroke-dasharray:none;stroke-opacity:1"
       id="path4743" /></g><g
     id="g4745"
     transform="matrix(0.35277776,0,0,-0.35277776,46.7681,34.901468)"><path
       d="M 0,0 -5.175,8.062 -8.062,5.175 0,0 m 112.397,38.015 -8.061,-5.176 2.886,-2.886 5.175,8.062 m -160.351,-160.352 8.061,5.175 -2.886,2.887 -5.175,-8.062"
       style="fill:none;stroke:#000000;stroke-width:0.51;stroke-linecap:butt;stroke-linejoin:miter;stroke-miterlimit:10;stroke-dasharray:none;stroke-opacity:1"
       id="path4747" /></g><g
     id="g4749"
     transform="matrix(0.35277776,0,0,-0.35277776,48.81873,57.597919)"><path
       d="M 0,0 V 1.134"
       style="fill:none;stroke:#000000;stroke-width:0.51;stroke-linecap:round;stroke-linejoin:round;stroke-miterlimit:10;stroke-dasharray:43.2, 3.6, 3.6, 3.6;stroke-dashoffset:0;stroke-opacity:1"
       id="path4751" /></g><g
     id="g4753"
     transform="matrix(0.35277776,0,0,-0.35277776,43.81871,62.597908)"><path
       d="M 0,0 H -1.134"
       style="fill:none;stroke:#000000;stroke-width:0.51;stroke-linecap:round;stroke-linejoin:round;stroke-miterlimit:10;stroke-dasharray:43.2, 3.6, 3.6, 3.6;stroke-dashoffset:0;stroke-opacity:1"
       id="path4755" /></g><g
     id="g4757"
     transform="matrix(0.35277776,0,0,-0.35277776,48.81873,67.597898)"><path
       d="M 0,0 V -1.134"
       style="fill:none;stroke:#000000;stroke-width:0.51;stroke-linecap:round;stroke-linejoin:round;stroke-miterlimit:10;stroke-dasharray:43.2, 3.6, 3.6, 3.6;stroke-dashoffset:0;stroke-opacity:1"
       id="path4759" /></g><g
     id="g4761"
     transform="matrix(0.35277776,0,0,-0.35277776,53.81872,62.597908)"><path
       d="M 0,0 H 1.134"
       style="fill:none;stroke:#000000;stroke-width:0.51;stroke-linecap:round;stroke-linejoin:round;stroke-miterlimit:10;stroke-dasharray:43.2, 3.6, 3.6, 3.6;stroke-dashoffset:0;stroke-opacity:1"
       id="path4763" /></g><g
     id="g4765"
     transform="matrix(0.35277776,0,0,-0.35277776,43.06087,49.672908)"><path
       d="M 0,0 V 1.134"
       style="fill:none;stroke:#000000;stroke-width:0.51;stroke-linecap:round;stroke-linejoin:round;stroke-miterlimit:10;stroke-dasharray:43.2, 3.6, 3.6, 3.6;stroke-dashoffset:0;stroke-opacity:1"
       id="path4767" /></g><g
     id="g4769"
     transform="matrix(0.35277776,0,0,-0.35277776,38.06088,54.672898)"><path
       d="M 0,0 H -1.134"
       style="fill:none;stroke:#000000;stroke-width:0.51;stroke-linecap:round;stroke-linejoin:round;stroke-miterlimit:10;stroke-dasharray:43.2, 3.6, 3.6, 3.6;stroke-dashoffset:0;stroke-opacity:1"
       id="path4771" /></g><g
     id="g4773"
     transform="matrix(0.35277776,0,0,-0.35277776,43.06087,59.672923)"><path
       d="M 0,0 V -1.134"
       style="fill:none;stroke:#000000;stroke-width:0.51;stroke-linecap:round;stroke-linejoin:round;stroke-miterlimit:10;stroke-dasharray:43.2, 3.6, 3.6, 3.6;stroke-dashoffset:0;stroke-opacity:1"
       id="path4775" /></g><g
     id="g4777"
     transform="matrix(0.35277776,0,0,-0.35277776,48.06086,54.672898)"><path
       d="M 0,0 H 1.134"
       style="fill:none;stroke:#000000;stroke-width:0.51;stroke-linecap:round;stroke-linejoin:round;stroke-miterlimit:10;stroke-dasharray:43.2, 3.6, 3.6, 3.6;stroke-dashoffset:0;stroke-opacity:1"
       id="path4779" /></g><g
     id="g4781"
     transform="matrix(0.35277776,0,0,-0.35277776,43.06087,39.877081)"><path
       d="M 0,0 V 1.134"
       style="fill:none;stroke:#000000;stroke-width:0.51;stroke-linecap:round;stroke-linejoin:round;stroke-miterlimit:10;stroke-dasharray:43.2, 3.6, 3.6, 3.6;stroke-dashoffset:0;stroke-opacity:1"
       id="path4783" /></g><g
     id="g4785"
     transform="matrix(0.35277776,0,0,-0.35277776,38.06088,44.877071)"><path
       d="M 0,0 H -1.134"
       style="fill:none;stroke:#000000;stroke-width:0.51;stroke-linecap:round;stroke-linejoin:round;stroke-miterlimit:10;stroke-dasharray:43.2, 3.6, 3.6, 3.6;stroke-dashoffset:0;stroke-opacity:1"
       id="path4787" /></g><g
     id="g4789"
     transform="matrix(0.35277776,0,0,-0.35277776,43.06087,49.87706)"><path
       d="M 0,0 V -1.134"
       style="fill:none;stroke:#000000;stroke-width:0.51;stroke-linecap:round;stroke-linejoin:round;stroke-miterlimit:10;stroke-dasharray:43.2, 3.6, 3.6, 3.6;stroke-dashoffset:0;stroke-opacity:1"
       id="path4791" /></g><g
     id="g4793"
     transform="matrix(0.35277776,0,0,-0.35277776,48.06086,44.877071)"><path
       d="M 0,0 H 1.134"
       style="fill:none;stroke:#000000;stroke-width:0.51;stroke-linecap:round;stroke-linejoin:round;stroke-miterlimit:10;stroke-dasharray:43.2, 3.6, 3.6, 3.6;stroke-dashoffset:0;stroke-opacity:1"
       id="path4795" /></g><g
     id="g4797"
     transform="matrix(0.35277776,0,0,-0.35277776,48.81873,31.952069)"><path
       d="M 0,0 V 1.134"
       style="fill:none;stroke:#000000;stroke-width:0.51;stroke-linecap:round;stroke-linejoin:round;stroke-miterlimit:10;stroke-dasharray:43.2, 3.6, 3.6, 3.6;stroke-dashoffset:0;stroke-opacity:1"
       id="path4799" /></g><g
     id="g4801"
     transform="matrix(0.35277776,0,0,-0.35277776,43.81871,36.952059)"><path
       d="M 0,0 H -1.134"
       style="fill:none;stroke:#000000;stroke-width:0.51;stroke-linecap:round;stroke-linejoin:round;stroke-miterlimit:10;stroke-dasharray:43.2, 3.6, 3.6, 3.6;stroke-dashoffset:0;stroke-opacity:1"
       id="path4803" /></g><g
     id="g4805"
     transform="matrix(0.35277776,0,0,-0.35277776,48.81873,41.952049)"><path
       d="M 0,0 V -1.134"
       style="fill:none;stroke:#000000;stroke-width:0.51;stroke-linecap:round;stroke-linejoin:round;stroke-miterlimit:10;stroke-dasharray:43.2, 3.6, 3.6, 3.6;stroke-dashoffset:0;stroke-opacity:1"
       id="path4807" /></g><g
     id="g4809"
     transform="matrix(0.35277776,0,0,-0.35277776,53.81872,36.952059)"><path
       d="M 0,0 H 1.134"
       style="fill:none;stroke:#000000;stroke-width:0.51;stroke-linecap:round;stroke-linejoin:round;stroke-miterlimit:10;stroke-dasharray:43.2, 3.6, 3.6, 3.6;stroke-dashoffset:0;stroke-opacity:1"
       id="path4811" /></g><g
     id="g4813"
     transform="matrix(0.35277776,0,0,-0.35277776,58.1351,28.924989)"><path
       d="M 0,0 V 1.134"
       style="fill:none;stroke:#000000;stroke-width:0.51;stroke-linecap:round;stroke-linejoin:round;stroke-miterlimit:10;stroke-dasharray:43.2, 3.6, 3.6, 3.6;stroke-dashoffset:0;stroke-opacity:1"
       id="path4815" /></g><g
     id="g4817"
     transform="matrix(0.35277776,0,0,-0.35277776,53.13511,33.924979)"><path
       d="M 0,0 H -1.134"
       style="fill:none;stroke:#000000;stroke-width:0.51;stroke-linecap:round;stroke-linejoin:round;stroke-miterlimit:10;stroke-dasharray:43.2, 3.6, 3.6, 3.6;stroke-dashoffset:0;stroke-opacity:1"
       id="path4819" /></g><g
     id="g4821"
     transform="matrix(0.35277776,0,0,-0.35277776,58.1351,38.925004)"><path
       d="M 0,0 V -1.134"
       style="fill:none;stroke:#000000;stroke-width:0.51;stroke-linecap:round;stroke-linejoin:round;stroke-miterlimit:10;stroke-dasharray:43.2, 3.6, 3.6, 3.6;stroke-dashoffset:0;stroke-opacity:1"
       id="path4823" /></g><g
     id="g4825"
     transform="matrix(0.35277776,0,0,-0.35277776,63.13512,33.924979)"><path
       d="M 0,0 H 1.134"
       style="fill:none;stroke:#000000;stroke-width:0.51;stroke-linecap:round;stroke-linejoin:round;stroke-miterlimit:10;stroke-dasharray:43.2, 3.6, 3.6, 3.6;stroke-dashoffset:0;stroke-opacity:1"
       id="path4827" /></g><g
     id="g4829"
     transform="matrix(0.35277776,0,0,-0.35277776,67.451501,31.952069)"><path
       d="M 0,0 V 1.134"
       style="fill:none;stroke:#000000;stroke-width:0.51;stroke-linecap:round;stroke-linejoin:round;stroke-miterlimit:10;stroke-dasharray:43.2, 3.6, 3.6, 3.6;stroke-dashoffset:0;stroke-opacity:1"
       id="path4831" /></g><g
     id="g4833"
     transform="matrix(0.35277776,0,0,-0.35277776,62.45151,36.952059)"><path
       d="M 0,0 H -1.134"
       style="fill:none;stroke:#000000;stroke-width:0.51;stroke-linecap:round;stroke-linejoin:round;stroke-miterlimit:10;stroke-dasharray:43.2, 3.6, 3.6, 3.6;stroke-dashoffset:0;stroke-opacity:1"
       id="path4835" /></g><g
     id="g4837"
     transform="matrix(0.35277776,0,0,-0.35277776,67.451501,41.952049)"><path
       d="M 0,0 V -1.134"
       style="fill:none;stroke:#000000;stroke-width:0.51;stroke-linecap:round;stroke-linejoin:round;stroke-miterlimit:10;stroke-dasharray:43.2, 3.6, 3.6, 3.6;stroke-dashoffset:0;stroke-opacity:1"
       id="path4839" /></g><g
     id="g4841"
     transform="matrix(0.35277776,0,0,-0.35277776,72.451521,36.952059)"><path
       d="M 0,0 H 1.134"
       style="fill:none;stroke:#000000;stroke-width:0.51;stroke-linecap:round;stroke-linejoin:round;stroke-miterlimit:10;stroke-dasharray:43.2, 3.6, 3.6, 3.6;stroke-dashoffset:0;stroke-opacity:1"
       id="path4843" /></g><g
     id="g4845"
     transform="matrix(0.35277776,0,0,-0.35277776,73.209361,39.877081)"><path
       d="M 0,0 V 1.134"
       style="fill:none;stroke:#000000;stroke-width:0.51;stroke-linecap:round;stroke-linejoin:round;stroke-miterlimit:10;stroke-dasharray:43.2, 3.6, 3.6, 3.6;stroke-dashoffset:0;stroke-opacity:1"
       id="path4847" /></g><g
     id="g4849"
     transform="matrix(0.35277776,0,0,-0.35277776,68.209371,44.877071)"><path
       d="M 0,0 H -1.134"
       style="fill:none;stroke:#000000;stroke-width:0.51;stroke-linecap:round;stroke-linejoin:round;stroke-miterlimit:10;stroke-dasharray:43.2, 3.6, 3.6, 3.6;stroke-dashoffset:0;stroke-opacity:1"
       id="path4851" /></g><g
     id="g4853"
     transform="matrix(0.35277776,0,0,-0.35277776,73.209361,49.87706)"><path
       d="M 0,0 V -1.134"
       style="fill:none;stroke:#000000;stroke-width:0.51;stroke-linecap:round;stroke-linejoin:round;stroke-miterlimit:10;stroke-dasharray:43.2, 3.6, 3.6, 3.6;stroke-dashoffset:0;stroke-opacity:1"
       id="path4855" /></g><g
     id="g4857"
     transform="matrix(0.35277776,0,0,-0.35277776,78.209351,44.877071)"><path
       d="M 0,0 H 1.134"
       style="fill:none;stroke:#000000;stroke-width:0.51;stroke-linecap:round;stroke-linejoin:round;stroke-miterlimit:10;stroke-dasharray:43.2, 3.6, 3.6, 3.6;stroke-dashoffset:0;stroke-opacity:1"
       id="path4859" /></g><g
     id="g4861"
     transform="matrix(0.35277776,0,0,-0.35277776,73.209361,49.672908)"><path
       d="M 0,0 V 1.134"
       style="fill:none;stroke:#000000;stroke-width:0.51;stroke-linecap:round;stroke-linejoin:round;stroke-miterlimit:10;stroke-dasharray:43.2, 3.6, 3.6, 3.6;stroke-dashoffset:0;stroke-opacity:1"
       id="path4863" /></g><g
     id="g4865"
     transform="matrix(0.35277776,0,0,-0.35277776,68.209371,54.672898)"><path
       d="M 0,0 H -1.134"
       style="fill:none;stroke:#000000;stroke-width:0.51;stroke-linecap:round;stroke-linejoin:round;stroke-miterlimit:10;stroke-dasharray:43.2, 3.6, 3.6, 3.6;stroke-dashoffset:0;stroke-opacity:1"
       id="path4867" /></g><g
     id="g4869"
     transform="matrix(0.35277776,0,0,-0.35277776,73.209361,59.672923)"><path
       d="M 0,0 V -1.134"
       style="fill:none;stroke:#000000;stroke-width:0.51;stroke-linecap:round;stroke-linejoin:round;stroke-miterlimit:10;stroke-dasharray:43.2, 3.6, 3.6, 3.6;stroke-dashoffset:0;stroke-opacity:1"
       id="path4871" /></g><g
     id="g4873"
     transform="matrix(0.35277776,0,0,-0.35277776,78.209351,54.672898)"><path
       d="M 0,0 H 1.134"
       style="fill:none;stroke:#000000;stroke-width:0.51;stroke-linecap:round;stroke-linejoin:round;stroke-miterlimit:10;stroke-dasharray:43.2, 3.6, 3.6, 3.6;stroke-dashoffset:0;stroke-opacity:1"
       id="path4875" /></g><g
     id="g4877"
     transform="matrix(0.35277776,0,0,-0.35277776,67.451501,57.597919)"><path
       d="M 0,0 V 1.134"
       style="fill:none;stroke:#000000;stroke-width:0.51;stroke-linecap:round;stroke-linejoin:round;stroke-miterlimit:10;stroke-dasharray:43.2, 3.6, 3.6, 3.6;stroke-dashoffset:0;stroke-opacity:1"
       id="path4879" /></g><g
     id="g4881"
     transform="matrix(0.35277776,0,0,-0.35277776,62.45151,62.597908)"><path
       d="M 0,0 H -1.134"
       style="fill:none;stroke:#000000;stroke-width:0.51;stroke-linecap:round;stroke-linejoin:round;stroke-miterlimit:10;stroke-dasharray:43.2, 3.6, 3.6, 3.6;stroke-dashoffset:0;stroke-opacity:1"
       id="path4883" /></g><g
     id="g4885"
     transform="matrix(0.35277776,0,0,-0.35277776,67.451501,67.597898)"><path
       d="M 0,0 V -1.134"
       style="fill:none;stroke:#000000;stroke-width:0.51;stroke-linecap:round;stroke-linejoin:round;stroke-miterlimit:10;stroke-dasharray:43.2, 3.6, 3.6, 3.6;stroke-dashoffset:0;stroke-opacity:1"
       id="path4887" /></g><g
     id="g4889"
     transform="matrix(0.35277776,0,0,-0.35277776,72.451521,62.597908)"><path
       d="M 0,0 H 1.134"
       style="fill:none;stroke:#000000;stroke-width:0.51;stroke-linecap:round;stroke-linejoin:round;stroke-miterlimit:10;stroke-dasharray:43.2, 3.6, 3.6, 3.6;stroke-dashoffset:0;stroke-opacity:1"
       id="path4891" /></g><g
     id="g4893"
     transform="matrix(0.35277776,0,0,-0.35277776,58.1351,60.624999)"><path
       d="M 0,0 V 1.134"
       style="fill:none;stroke:#000000;stroke-width:0.51;stroke-linecap:round;stroke-linejoin:round;stroke-miterlimit:10;stroke-dasharray:43.2, 3.6, 3.6, 3.6;stroke-dashoffset:0;stroke-opacity:1"
       id="path4895" /></g><g
     id="g4897"
     transform="matrix(0.35277776,0,0,-0.35277776,53.13511,65.624988)"><path
       d="M 0,0 H -1.134"
       style="fill:none;stroke:#000000;stroke-width:0.51;stroke-linecap:round;stroke-linejoin:round;stroke-miterlimit:10;stroke-dasharray:43.2, 3.6, 3.6, 3.6;stroke-dashoffset:0;stroke-opacity:1"
       id="path4899" /></g><g
     id="g4901"
     transform="matrix(0.35277776,0,0,-0.35277776,58.1351,70.624978)"><path
       d="M 0,0 V -1.134"
       style="fill:none;stroke:#000000;stroke-width:0.51;stroke-linecap:round;stroke-linejoin:round;stroke-miterlimit:10;stroke-dasharray:43.2, 3.6, 3.6, 3.6;stroke-dashoffset:0;stroke-opacity:1"
       id="path4903" /></g><g
     id="g4905"
     transform="matrix(0.35277776,0,0,-0.35277776,63.13512,65.624988)"><path
       d="M 0,0 H 1.134"
       style="fill:none;stroke:#000000;stroke-width:0.51;stroke-linecap:round;stroke-linejoin:round;stroke-miterlimit:10;stroke-dasharray:43.2, 3.6, 3.6, 3.6;stroke-dashoffset:0;stroke-opacity:1"
       id="path4907" /></g><g
     id="g4909"
     transform="matrix(0.35277776,0,0,-0.35277776,58.1351,44.774977)"><path
       d="M 0,0 V 106.299"
       style="fill:none;stroke:#000000;stroke-width:0.51;stroke-linecap:round;stroke-linejoin:round;stroke-miterlimit:10;stroke-dasharray:43.2, 3.6, 3.6, 3.6;stroke-dashoffset:-4.55;stroke-opacity:1"
       id="path4911" /></g><g
     id="g4913"
     transform="matrix(0.35277776,0,0,-0.35277776,53.13511,49.774966)"><path
       d="M 0,0 H -106.299"
       style="fill:none;stroke:#000000;stroke-width:0.51;stroke-linecap:round;stroke-linejoin:round;stroke-miterlimit:10;stroke-dasharray:43.2, 3.6, 3.6, 3.6;stroke-dashoffset:-4.55;stroke-opacity:1"
       id="path4915" /></g><g
     id="g4917"
     transform="matrix(0.35277776,0,0,-0.35277776,58.1351,54.774991)"><path
       d="M 0,0 V -106.299"
       style="fill:none;stroke:#000000;stroke-width:0.51;stroke-linecap:round;stroke-linejoin:round;stroke-miterlimit:10;stroke-dasharray:43.2, 3.6, 3.6, 3.6;stroke-dashoffset:-4.55;stroke-opacity:1"
       id="path4919" /></g><g
     id="g4921"
     transform="matrix(0.35277776,0,0,-0.35277776,63.13512,49.774966)"><path
       d="M 0,0 H 106.299"
       style="fill:none;stroke:#000000;stroke-width:0.51;stroke-linecap:round;stroke-linejoin:round;stroke-miterlimit:10;stroke-dasharray:43.2, 3.6, 3.6, 3.6;stroke-dashoffset:-4.55;stroke-opacity:1"
       id="path4923" /></g><g
     id="g4925"
     transform="matrix(0.35277776,0,0,-0.35277776,48.81873,62.597908)"><path
       d="M 0,0 V 7.087 M 0,0 H -7.087 M 0,0 V -7.087 M 0,0 h 7.087 m -23.408,22.465 v 7.086 m 0,-7.086 h -7.087 m 7.087,0 v -7.087 m 0,7.087 h 7.086 m -7.086,27.767 v 7.087 m 0,-7.087 h -7.087 m 7.087,0 v -7.086 m 0,7.086 h 7.086 M 0,72.697 v 7.086 m 0,-7.086 h -7.087 m 7.087,0 V 65.61 m 0,7.087 h 7.087 m 19.322,8.581 v 7.086 m 0,-7.086 h -7.087 m 7.087,0 v -7.087 m 0,7.087 h 7.086 m 19.322,-8.581 v 7.086 m 0,-7.086 h -7.086 m 7.086,0 V 65.61 m 0,7.087 h 7.087 m 9.235,-22.465 v 7.087 m 0,-7.087 h -7.087 m 7.087,0 v -7.086 m 0,7.086 h 7.086 M 69.139,22.465 v 7.086 m 0,-7.086 h -7.087 m 7.087,0 v -7.087 m 0,7.087 h 7.086 M 52.817,0 v 7.087 m 0,-7.087 h -7.086 m 7.086,0 v -7.087 m 0,7.087 h 7.087 M 26.409,-8.581 v 7.087 m 0,-7.087 h -7.087 m 7.087,0 v -7.086 m 0,7.086 h 7.086 m -7.086,44.929 v 7.087 m 0,-7.087 h -7.087 m 7.087,0 v -7.086 m 0,7.086 h 7.086"
       style="fill:none;stroke:#000000;stroke-width:0.51;stroke-linecap:round;stroke-linejoin:round;stroke-miterlimit:10;stroke-dasharray:none;stroke-opacity:1"
       id="path4927" /></g><g
     id="g4929"
     transform="matrix(0.35277776,0,0,-0.35277776,46.12012,2.1749808)"><path
       d="M 0,0 H 34.016 M 0,-269.858 h 34.016"
       style="fill:none;stroke:#000000;stroke-width:0.992;stroke-linecap:round;stroke-linejoin:round;stroke-miterlimit:10;stroke-dasharray:none;stroke-opacity:1"
       id="path4931" /></g><g
     id="g4933"
     transform="matrix(0.35277776,0,0,-0.35277776,58.12014,0.17497777)"><path
       d="M 0,0 V -281.197"
       style="fill:none;stroke:#000000;stroke-width:0.992;stroke-linecap:round;stroke-linejoin:round;stroke-miterlimit:10;stroke-dasharray:18, 3.6, 3.6, 3.6, 3.6, 3.6;stroke-dashoffset:12.402;stroke-opacity:1"
       id="path4935" /></g><g
     id="g4937"
     transform="matrix(0.35277776,0,0,-0.35277776,46.7681,34.901468)"><path
       d="M 0,0 -62.517,62.517 M 11.625,-11.625 0,0 m -62.517,62.517 h -69.799 m 84.362,-184.854 -23.237,-23.237 M 112.397,38.015 -47.954,-122.337 m -23.237,-23.237 h -52.451"
       style="fill:none;stroke:#000000;stroke-width:0.51;stroke-linecap:round;stroke-linejoin:round;stroke-miterlimit:10;stroke-dasharray:none;stroke-opacity:1"
       id="path4939" /></g><g
     id="g4941"
     transform="matrix(0.35277776,0,0,-0.35277776,177.4863,38.668076)"><path
       d="M 0,0 4.866,8.252 7.859,5.478"
       style="fill:#000000;fill-opacity:1;fill-rule:nonzero;stroke:none"
       id="path4943" /></g><g
     id="g4945"
     transform="matrix(0.35277776,0,0,-0.35277776,58.12014,2.1749808)"><path
       d="M 0,0 -17.008,-4.252 V 4.252 M 0,-269.858 -17.008,-274.11 v 8.504"
       style="fill:#000000;fill-opacity:1;fill-rule:nonzero;stroke:none"
       id="path4947" /></g><g
     id="g4949"
     transform="matrix(0.35277776,0,0,-0.35277776,46.7681,34.901468)"><path
       d="M 0,0 -5.175,8.062 -8.062,5.175 m 120.459,32.84 -8.061,-5.176 2.886,-2.886 m -155.176,-152.29 8.061,5.175 -2.886,2.887"
       style="fill:#000000;fill-opacity:1;fill-rule:nonzero;stroke:none"
       id="path4951" /></g><g
     id="g4953"
     transform="matrix(0.35277776,0,0,-0.35277776,98.135121,49.774966)"><path
       d="m 0,0 -0.123,5.275 -0.368,5.264 -0.612,5.241 -0.856,5.207 -1.097,5.162 -1.336,5.104 -1.572,5.037 -1.805,4.959 -2.034,4.869 -2.258,4.769 -2.477,4.66 -2.691,4.538 -2.9,4.409 -3.101,4.269 -3.297,4.12 -3.485,3.962 -3.666,3.796 -3.838,3.621 -4.002,3.439 -4.159,3.248 -4.304,3.052 -4.442,2.848 -4.57,2.639 -4.688,2.422 -4.795,2.203 -4.893,1.976 -4.979,1.747 -5.055,1.514 -5.12,1.276 -5.174,1.037 -5.216,0.795 -5.248,0.552 -5.268,0.307 -5.276,0.061 -5.274,-0.184 -5.259,-0.429 -5.233,-0.674 -5.197,-0.916 -5.148,-1.157 -5.089,-1.396 -5.019,-1.63 -4.937,-1.862 -4.845,-2.091 -4.743,-2.313 -4.63,-2.531 -4.507,-2.744 -4.375,-2.951 -4.232,-3.151 -4.082,-3.344 -3.921,-3.531 -3.753,-3.71 -3.576,-3.88 -3.392,-4.042 -3.2,-4.196 -3.001,-4.34 -2.797,-4.474 -2.585,-4.601 -2.368,-4.715 -2.146,-4.821 -1.92,-4.915 -1.689,-4.999 -1.454,-5.072 -1.217,-5.135 -0.977,-5.185 -0.734,-5.226 -0.49,-5.254 -0.246,-5.271 v -5.276 l 0.246,-5.271 0.49,-5.254 0.734,-5.226 0.977,-5.185 1.217,-5.135 1.454,-5.072 1.689,-4.999 1.92,-4.915 2.146,-4.821 2.368,-4.715 2.585,-4.601 2.797,-4.475 3.001,-4.34 3.2,-4.195 3.392,-4.042 3.576,-3.88 3.753,-3.71 3.921,-3.531 4.082,-3.344 4.232,-3.151 4.375,-2.951 4.507,-2.744 4.63,-2.531 4.743,-2.314 4.845,-2.09 4.937,-1.862 5.019,-1.63 5.089,-1.396 5.148,-1.157 5.197,-0.916 5.233,-0.674 5.259,-0.429 5.274,-0.184 5.276,0.061 5.268,0.307 5.248,0.552 5.216,0.795 5.174,1.037 5.12,1.276 5.055,1.514 4.979,1.747 4.893,1.976 4.795,2.202 4.688,2.423 4.57,2.639 4.442,2.848 4.304,3.052 4.159,3.248 4.002,3.439 3.838,3.621 3.666,3.796 3.485,3.962 3.297,4.12 3.101,4.269 2.9,4.409 2.691,4.538 2.477,4.66 2.258,4.769 2.034,4.869 1.805,4.959 1.572,5.037 1.336,5.104 1.097,5.162 0.856,5.207 0.612,5.241 0.368,5.264 L 0,0 m -47.339,0 -0.122,4.026 -0.369,4.012 -0.611,3.982 -0.854,3.937 -1.092,3.877 -1.326,3.804 -1.556,3.716 -1.78,3.614 -1.996,3.499 -2.206,3.37 -2.407,3.23 -2.6,3.077 -2.783,2.913 -2.955,2.738 -3.116,2.553 -3.266,2.358 -3.404,2.154 -3.529,1.943 -3.641,1.724 -3.739,1.499 -3.824,1.268 -3.894,1.033 -3.949,0.793 -3.99,0.551 -4.017,0.307 -4.028,0.062 -4.024,-0.185 -4.006,-0.429 -3.971,-0.673 -3.924,-0.913 -3.86,-1.151 -3.783,-1.384 -3.692,-1.612 -3.587,-1.835 -3.468,-2.049 -3.336,-2.258 -3.193,-2.456 -3.037,-2.646 -2.87,-2.827 -2.693,-2.996 -2.505,-3.155 -2.307,-3.302 -2.103,-3.437 -1.888,-3.558 -1.669,-3.666 -1.441,-3.762 -1.21,-3.842 -0.973,-3.909 -0.734,-3.961 -0.49,-3.999 -0.245,-4.021 v -4.028 l 0.245,-4.021 0.49,-3.999 0.734,-3.961 0.973,-3.909 1.21,-3.842 1.441,-3.762 1.669,-3.666 1.888,-3.558 2.103,-3.437 2.307,-3.302 2.505,-3.155 2.693,-2.996 2.87,-2.827 3.037,-2.646 3.193,-2.457 3.336,-2.257 3.468,-2.049 3.587,-1.835 3.692,-1.612 3.783,-1.384 3.86,-1.151 3.924,-0.914 3.971,-0.672 4.006,-0.429 4.024,-0.185 4.028,0.062 4.017,0.307 3.99,0.551 3.949,0.793 3.894,1.033 3.824,1.268 3.739,1.499 3.641,1.724 3.529,1.943 3.404,2.154 3.266,2.358 3.116,2.553 2.955,2.738 2.783,2.913 2.6,3.077 2.407,3.23 2.206,3.37 1.996,3.499 1.78,3.614 1.556,3.716 1.326,3.804 1.092,3.877 0.854,3.937 0.611,3.982 0.369,4.011 0.122,4.027 m -3.685,0 -0.123,3.916 -0.368,3.9 -0.613,3.869 -0.855,3.824 -1.093,3.762 -1.327,3.686 -1.556,3.596 -1.778,3.49 -1.995,3.372 -2.202,3.241 -2.401,3.095 -2.591,2.939 -2.77,2.77 -2.939,2.591 -3.095,2.401 -3.24,2.202 -3.373,1.994 -3.49,1.779 -3.596,1.556 -3.686,1.327 -3.762,1.093 -3.823,0.855 -3.87,0.612 -3.9,0.369 -3.916,0.123 -3.916,-0.123 -3.9,-0.369 -3.869,-0.612 -3.824,-0.855 -3.762,-1.093 -3.686,-1.327 -3.595,-1.556 -3.491,-1.779 -3.372,-1.994 -3.24,-2.202 -3.096,-2.401 -2.939,-2.591 -2.77,-2.77 -2.591,-2.939 -2.401,-3.095 -2.202,-3.241 -1.994,-3.372 -1.779,-3.49 -1.556,-3.596 -1.327,-3.686 -1.093,-3.762 -0.854,-3.824 -0.613,-3.869 -0.369,-3.9 -0.123,-3.916 0.123,-3.916 0.369,-3.9 0.613,-3.87 0.854,-3.823 1.093,-3.762 1.327,-3.686 1.556,-3.596 1.779,-3.49 1.994,-3.372 2.202,-3.241 2.401,-3.095 2.591,-2.939 2.77,-2.77 2.939,-2.591 3.096,-2.401 3.24,-2.202 3.372,-1.994 3.491,-1.779 3.595,-1.556 3.686,-1.327 3.762,-1.093 3.824,-0.855 3.869,-0.612 3.9,-0.369 3.916,-0.123 3.916,0.123 3.9,0.369 3.87,0.612 3.823,0.855 3.762,1.093 3.686,1.327 3.596,1.556 3.49,1.779 3.373,1.994 3.24,2.202 3.095,2.401 2.939,2.591 2.77,2.77 2.591,2.939 2.401,3.095 2.202,3.241 1.995,3.372 1.778,3.49 1.556,3.596 1.327,3.686 1.093,3.762 0.855,3.823 0.613,3.87 0.368,3.9 0.123,3.916 m 3.685,0 -0.122,4.026 -0.369,4.012 -0.611,3.982 -0.854,3.937 -1.092,3.877 -1.326,3.804 -1.556,3.716 -1.78,3.614 -1.996,3.499 -2.206,3.37 -2.407,3.23 -2.6,3.077 -2.783,2.913 -2.955,2.738 -3.116,2.553 -3.266,2.358 -3.404,2.154 -3.529,1.943 -3.641,1.724 -3.739,1.499 -3.824,1.268 -3.894,1.033 -3.949,0.793 -3.99,0.551 -4.017,0.307 -4.028,0.062 -4.024,-0.185 -4.006,-0.429 -3.971,-0.673 -3.924,-0.913 -3.86,-1.151 -3.783,-1.384 -3.692,-1.612 -3.587,-1.835 -3.468,-2.049 -3.336,-2.258 -3.193,-2.456 -3.037,-2.646 -2.87,-2.827 -2.693,-2.996 -2.505,-3.155 -2.307,-3.302 -2.103,-3.437 -1.888,-3.558 -1.669,-3.666 -1.441,-3.762 -1.21,-3.842 -0.973,-3.909 -0.734,-3.961 -0.49,-3.999 -0.245,-4.021 v -4.028 l 0.245,-4.021 0.49,-3.999 0.734,-3.961 0.973,-3.909 1.21,-3.842 1.441,-3.762 1.669,-3.666 1.888,-3.558 2.103,-3.437 2.307,-3.302 2.505,-3.155 2.693,-2.996 2.87,-2.827 3.037,-2.646 3.193,-2.457 3.336,-2.257 3.468,-2.049 3.587,-1.835 3.692,-1.612 3.783,-1.384 3.86,-1.151 3.924,-0.914 3.971,-0.672 4.006,-0.429 4.024,-0.185 4.028,0.062 4.017,0.307 3.99,0.551 3.949,0.793 3.894,1.033 3.824,1.268 3.739,1.499 3.641,1.724 3.529,1.943 3.404,2.154 3.266,2.358 3.116,2.553 2.955,2.738 2.783,2.913 2.6,3.077 2.407,3.23 2.206,3.37 1.996,3.499 1.78,3.614 1.556,3.716 1.326,3.804 1.092,3.877 0.854,3.937 0.611,3.982 0.369,4.011 0.122,4.027 m -34.866,0 -0.125,2.795 -0.376,2.773 -0.622,2.727 -0.865,2.661 -1.1,2.573 -1.325,2.464 -1.542,2.335 -1.744,2.187 -1.934,2.023 -2.107,1.84 -2.263,1.645 -2.402,1.435 -2.521,1.214 -2.619,0.983 -2.697,0.744 -2.753,0.5 -2.787,0.251 h -2.798 l -2.786,-0.251 -2.753,-0.5 -2.697,-0.744 -2.62,-0.983 -2.521,-1.214 -2.401,-1.435 -2.264,-1.645 -2.107,-1.84 -1.933,-2.023 -1.745,-2.187 -1.541,-2.335 -1.326,-2.464 -1.1,-2.573 -0.864,-2.661 -0.623,-2.727 -0.375,-2.773 -0.126,-2.795 0.126,-2.795 0.375,-2.773 0.623,-2.727 0.864,-2.661 1.1,-2.573 1.326,-2.464 1.541,-2.335 1.745,-2.187 1.933,-2.023 2.107,-1.84 2.264,-1.645 2.401,-1.435 2.521,-1.214 2.62,-0.983 2.697,-0.744 2.753,-0.5 2.786,-0.251 h 2.798 l 2.787,0.251 2.753,0.5 2.697,0.744 2.619,0.983 2.521,1.214 2.402,1.435 2.263,1.645 2.107,1.84 1.934,2.023 1.744,2.187 1.542,2.335 1.325,2.464 1.1,2.573 0.865,2.661 0.622,2.727 0.376,2.773 0.125,2.795 m -65.81,-36.348 0.116,-1.375 0.349,-1.35 0.586,-1.295 0.811,-1.191 0.932,-0.963 1.078,-0.803 2.243,-0.97 2.416,-0.268 2.552,0.508 1.281,0.607 1.158,0.817 1.041,1.054 0.842,1.233 0.595,1.344 0.352,1.443 0.085,1.416 -0.159,1.421 -0.989,2.569 -1.763,2.082 -2.349,1.391 -2.672,0.545 -2.68,-0.352 -2.398,-1.185 -1.898,-1.903 -0.71,-1.2 -0.496,-1.294 -0.323,-2.281 m -16.321,22.464 0.368,-2.433 1.074,-2.219 1.642,-1.766 2.207,-1.263 2.714,-0.537 1.467,0.094 1.436,0.356 1.349,0.608 1.231,0.849 1.015,1.012 0.833,1.183 0.59,1.255 0.373,1.342 0.052,2.73 -0.845,2.595 -1.648,2.176 -2.253,1.509 -2.59,0.691 -2.672,-0.179 -2.526,-1.061 -1.14,-0.872 -0.972,-1.057 -0.795,-1.254 -0.562,-1.391 -0.348,-2.368 m 0,27.768 0.115,-1.37 0.335,-1.313 1.253,-2.327 0.954,-1.041 1.117,-0.863 1.312,-0.685 1.424,-0.442 1.461,-0.175 1.485,0.089 1.381,0.335 1.313,0.572 2.165,1.704 1.47,2.298 0.636,2.655 -0.267,2.714 -1.128,2.458 -1.841,1.942 -2.376,1.251 -1.353,0.324 -1.38,0.093 -1.442,-0.154 -1.396,-0.405 -1.331,-0.663 -1.206,-0.905 -0.977,-1.057 -0.789,-1.226 -0.826,-2.47 -0.109,-1.339 m 16.321,22.464 0.132,-1.463 0.389,-1.416 0.639,-1.329 0.872,-1.203 1.066,-1.017 1.243,-0.819 1.309,-0.56 1.396,-0.329 1.379,-0.081 1.378,0.151 2.553,0.962 2.099,1.746 1.41,2.335 0.567,2.645 -0.314,2.659 -1.155,2.422 -0.889,1.068 -1.048,0.899 -1.244,0.739 -1.358,0.511 -1.463,0.267 -1.507,-0.002 -1.42,-0.261 -1.37,-0.512 -2.148,-1.493 -1.476,-1.917 -0.862,-2.301 -0.178,-1.701 m 26.409,8.581 0.118,-1.384 0.353,-1.358 0.588,-1.292 0.809,-1.183 0.971,-0.996 1.13,-0.823 2.541,-1.005 2.726,-0.116 2.616,0.782 2.204,1.586 1.554,2.189 0.765,2.563 -0.11,2.725 -0.414,1.367 -0.642,1.274 -0.89,1.182 -1.099,1.014 -1.243,0.786 -1.383,0.559 -1.328,0.283 -1.363,0.061 -2.415,-0.461 -2.141,-1.132 -1.811,-1.836 -0.718,-1.211 -0.502,-1.314 -0.316,-2.26 m 26.408,-8.581 0.447,-2.673 1.306,-2.4 2.016,-1.837 2.51,-1.077 2.712,-0.197 2.602,0.687 2.227,1.478 1.653,2.149 0.556,1.302 0.325,1.374 0.082,1.469 -0.183,1.473 -0.444,1.412 -0.702,1.33 -0.853,1.092 -1.032,0.943 -2.189,1.2 -2.361,0.483 -2.524,-0.253 -2.516,-1.134 -1.14,-0.926 -0.964,-1.121 -0.746,-1.278 -0.512,-1.406 -0.27,-2.09 m 16.322,-22.464 0.454,-2.694 1.311,-2.396 2.016,-1.829 2.475,-1.064 2.665,-0.208 2.619,0.67 1.235,0.678 1.099,0.875 0.97,1.1 0.765,1.264 0.526,1.387 0.273,1.482 0.005,1.401 -0.235,1.395 -0.998,2.314 -1.566,1.828 -2.129,1.341 -2.656,0.654 -1.463,-0.023 -1.444,-0.282 -1.38,-0.542 -1.273,-0.789 -1.069,-0.967 -0.893,-1.148 -0.651,-1.23 -0.436,-1.329 -0.22,-1.888 m 0,-27.768 0.451,-2.686 1.291,-2.374 1.966,-1.811 2.465,-1.09 1.384,-0.232 1.396,0.005 1.438,0.26 1.376,0.512 1.277,0.761 1.136,0.993 0.882,1.107 0.688,1.256 0.648,2.464 -0.109,2.406 -0.843,2.349 -1.666,2.135 -1.155,0.885 -1.299,0.671 -1.42,0.434 -1.489,0.173 -1.445,-0.094 -1.419,-0.348 -1.277,-0.565 -1.171,-0.776 -1.828,-2.034 -1.058,-2.514 -0.219,-1.887 m -16.322,-22.464 0.121,-1.396 0.349,-1.344 1.32,-2.38 0.961,-1.016 1.114,-0.836 1.3,-0.659 1.403,-0.422 1.478,-0.165 1.505,0.105 1.378,0.352 1.313,0.591 2.012,1.586 1.36,1.989 0.736,2.375 -0.042,2.695 -0.387,1.4 -0.628,1.315 -0.87,1.203 -1.082,1.038 -1.211,0.799 -1.345,0.58 -1.362,0.321 -1.404,0.087 -2.686,-0.522 -2.36,-1.369 -1.783,-2.068 -1.005,-2.527 -0.185,-1.732 m -26.408,-8.581 0.132,-1.464 0.386,-1.409 0.63,-1.316 0.854,-1.188 1.072,-1.032 1.257,-0.833 1.315,-0.564 1.411,-0.332 2.582,0.041 2.29,0.76 2.015,1.436 1.593,2.153 0.543,1.341 0.301,1.419 0.044,1.485 -0.226,1.482 -0.475,1.375 -0.716,1.282 -0.887,1.086 -1.065,0.925 -2.452,1.22 -2.705,0.347 -2.674,-0.559 -2.335,-1.397 -1.736,-2.057 -0.974,-2.489 -0.18,-1.712 M -85.748,0 l -0.125,2.627 -0.374,2.603 -0.621,2.556 -0.86,2.486 -1.092,2.392 -1.315,2.278 -1.526,2.143 -1.722,1.987 -1.904,1.815 -2.067,1.626 -2.213,1.422 -2.338,1.205 -2.441,0.978 -2.524,0.741 -2.583,0.497 -2.618,0.25 h -2.63 l -2.618,-0.25 -2.583,-0.497 -2.523,-0.741 -2.442,-0.978 -2.338,-1.205 -2.212,-1.422 -2.068,-1.626 -1.903,-1.815 -1.723,-1.987 -1.525,-2.143 -1.315,-2.278 -1.093,-2.392 -0.86,-2.486 -0.62,-2.556 -0.374,-2.603 -0.126,-2.627 0.126,-2.627 0.374,-2.603 0.62,-2.556 0.86,-2.486 1.093,-2.392 1.315,-2.278 1.525,-2.143 1.723,-1.987 1.903,-1.815 2.068,-1.626 2.212,-1.422 2.338,-1.205 2.442,-0.978 2.523,-0.741 2.583,-0.498 2.618,-0.25 h 2.63 l 2.618,0.25 2.583,0.498 2.524,0.741 2.441,0.978 2.338,1.205 2.213,1.422 2.067,1.626 1.904,1.815 1.722,1.987 1.526,2.143 1.315,2.278 1.092,2.392 0.86,2.486 0.621,2.556 0.374,2.603 0.125,2.627 m 72.448,0 -0.122,4.95 -0.367,4.937 -0.611,4.913 -0.853,4.878 -1.093,4.829 -1.331,4.769 -1.565,4.697 -1.795,4.614 -2.021,4.52 -2.243,4.414 -2.458,4.298 -2.667,4.171 -2.87,4.035 -3.067,3.887 -3.255,3.731 -3.435,3.565 -3.608,3.391 -3.771,3.209 -3.924,3.018 -4.07,2.82 -4.204,2.616 -4.328,2.404 -4.441,2.188 -4.545,1.965 -4.636,1.738 -4.716,1.507 -4.785,1.271 -4.842,1.034 -4.888,0.792 -4.92,0.55 -4.942,0.306 -4.951,0.062 -4.947,-0.184 -4.933,-0.428 -4.905,-0.672 -4.867,-0.913 -4.815,-1.153 -4.752,-1.389 -4.678,-1.623 -4.591,-1.853 -4.495,-2.077 -4.386,-2.296 -4.267,-2.511 -4.138,-2.719 -3.998,-2.92 -3.849,-3.114 -3.691,-3.301 -3.522,-3.479 -3.346,-3.65 -3.162,-3.81 -2.969,-3.962 -2.77,-4.104 -2.564,-4.236 -2.351,-4.357 -2.132,-4.469 -1.909,-4.568 -1.68,-4.657 -1.449,-4.735 -1.212,-4.8 -0.973,-4.855 -0.733,-4.896 -0.489,-4.927 -0.244,-4.945 v -4.952 l 0.244,-4.945 0.489,-4.927 0.733,-4.896 0.973,-4.855 1.212,-4.8 1.449,-4.735 1.68,-4.657 1.909,-4.569 2.132,-4.468 2.351,-4.357 2.564,-4.236 2.77,-4.104 2.969,-3.962 3.162,-3.81 3.346,-3.65 3.522,-3.479 3.691,-3.301 3.849,-3.114 3.998,-2.92 4.138,-2.719 4.267,-2.511 4.386,-2.296 4.495,-2.077 4.591,-1.853 4.678,-1.623 4.752,-1.389 4.815,-1.153 4.867,-0.913 4.905,-0.672 4.933,-0.428 4.947,-0.184 4.951,0.062 4.942,0.306 4.92,0.55 4.888,0.792 4.842,1.034 4.785,1.271 4.716,1.507 4.636,1.738 4.545,1.965 4.441,2.188 4.328,2.404 4.204,2.616 4.07,2.82 3.924,3.018 3.771,3.209 3.608,3.391 3.435,3.565 3.255,3.731 3.067,3.887 2.87,4.035 2.667,4.171 2.458,4.298 2.243,4.414 2.021,4.52 1.795,4.614 1.565,4.697 1.331,4.769 1.093,4.829 0.853,4.877 0.611,4.914 0.367,4.937 L -13.3,0 m -0.559,0 -0.123,4.961 -0.371,4.949 -0.617,4.924 -0.862,4.887 -1.104,4.838 -1.344,4.777 -1.581,4.704 -1.813,4.62 -2.041,4.523 -2.264,4.416 -2.481,4.298 -2.693,4.169 -2.896,4.029 -3.095,3.88 -3.283,3.721 -3.465,3.552 -3.638,3.376 -3.802,3.19 -3.955,2.996 -4.101,2.795 -4.234,2.588 -4.358,2.373 -4.472,2.154 -4.572,1.927 -4.664,1.698 -4.742,1.462 -4.809,1.225 -4.864,0.983 -4.907,0.74 -4.938,0.494 -4.957,0.247 h -4.962 l -4.957,-0.247 -4.937,-0.494 -4.908,-0.74 -4.864,-0.983 -4.809,-1.225 -4.742,-1.462 -4.663,-1.698 -4.573,-1.927 -4.471,-2.154 -4.358,-2.373 -4.235,-2.588 -4.1,-2.795 -3.956,-2.996 -3.802,-3.19 -3.637,-3.376 -3.465,-3.552 -3.284,-3.721 -3.094,-3.88 -2.897,-4.029 -2.693,-4.169 -2.481,-4.298 -2.264,-4.416 -2.041,-4.523 -1.813,-4.62 -1.58,-4.704 -1.344,-4.777 -1.105,-4.838 -0.861,-4.887 -0.618,-4.924 -0.37,-4.949 -0.124,-4.961 0.124,-4.961 0.37,-4.949 0.618,-4.924 0.861,-4.887 1.105,-4.838 1.344,-4.777 1.58,-4.704 1.813,-4.62 2.041,-4.523 2.264,-4.416 2.481,-4.298 2.693,-4.169 2.897,-4.029 3.094,-3.88 3.284,-3.721 3.465,-3.552 3.637,-3.376 3.802,-3.19 3.956,-2.996 4.1,-2.796 4.235,-2.587 4.358,-2.374 4.471,-2.153 4.573,-1.927 4.663,-1.698 4.742,-1.462 4.809,-1.225 4.864,-0.983 4.908,-0.74 4.937,-0.494 4.957,-0.247 h 4.962 l 4.957,0.247 4.938,0.494 4.907,0.74 4.864,0.983 4.809,1.225 4.742,1.462 4.664,1.698 4.572,1.927 4.472,2.153 4.358,2.374 4.234,2.587 4.101,2.796 3.955,2.996 3.802,3.19 3.638,3.376 3.465,3.552 3.283,3.721 3.095,3.88 2.896,4.029 2.693,4.169 2.481,4.298 2.264,4.416 2.041,4.523 1.813,4.62 1.581,4.704 1.344,4.777 1.104,4.838 0.862,4.887 0.617,4.924 0.371,4.949 0.123,4.961 m -2.421,0 -0.122,4.879 -0.368,4.867 -0.612,4.842 -0.854,4.805 -1.094,4.756 -1.332,4.696 -1.567,4.622 -1.797,4.538 -2.022,4.442 -2.243,4.334 -2.458,4.217 -2.667,4.087 -2.868,3.949 -3.064,3.799 -3.25,3.641 -3.43,3.473 -3.599,3.296 -3.761,3.111 -3.912,2.918 -4.054,2.718 -4.185,2.51 -4.306,2.298 -4.416,2.078 -4.515,1.853 -4.602,1.625 -4.678,1.391 -4.743,1.154 -4.794,0.914 -4.834,0.673 -4.861,0.429 -4.878,0.184 -4.88,-0.062 -4.871,-0.306 -4.849,-0.551 -4.816,-0.794 -4.769,-1.034 -4.712,-1.274 -4.642,-1.508 -4.56,-1.739 -4.467,-1.967 -4.362,-2.188 -4.247,-2.405 -4.121,-2.615 -3.984,-2.819 -3.838,-3.015 -3.681,-3.205 -3.515,-3.385 -3.341,-3.558 -3.158,-3.721 -2.967,-3.875 -2.769,-4.02 -2.563,-4.153 -2.351,-4.277 -2.134,-4.39 -1.91,-4.491 -1.682,-4.581 -1.45,-4.661 -1.214,-4.727 -0.974,-4.782 -0.733,-4.825 -0.49,-4.856 -0.245,-4.875 v -4.88 l 0.245,-4.875 0.49,-4.856 0.733,-4.825 0.974,-4.782 1.214,-4.727 1.45,-4.661 1.682,-4.581 1.91,-4.492 2.134,-4.389 2.351,-4.277 2.563,-4.153 2.769,-4.02 2.967,-3.875 3.158,-3.721 3.341,-3.558 3.515,-3.385 3.681,-3.205 3.838,-3.015 3.984,-2.819 4.121,-2.615 4.247,-2.405 4.362,-2.188 4.467,-1.967 4.56,-1.739 4.642,-1.509 4.712,-1.273 4.769,-1.034 4.816,-0.794 4.849,-0.551 4.871,-0.306 4.88,-0.062 4.878,0.184 4.861,0.429 4.834,0.673 4.794,0.914 4.743,1.154 4.678,1.391 4.602,1.625 4.515,1.853 4.416,2.078 4.306,2.298 4.185,2.51 4.054,2.718 3.912,2.918 3.761,3.111 3.599,3.296 3.43,3.473 3.25,3.641 3.064,3.799 2.868,3.949 2.667,4.087 2.458,4.217 2.243,4.334 2.022,4.442 1.797,4.538 1.567,4.622 1.332,4.696 1.094,4.756 0.854,4.805 0.612,4.842 0.368,4.867 L -16.28,0 m -9.714,0 -0.124,4.651 -0.371,4.638 -0.618,4.612 -0.862,4.572 -1.104,4.52 -1.343,4.455 -1.579,4.377 -1.809,4.286 -2.035,4.185 -2.254,4.07 -2.468,3.944 -2.675,3.808 -2.873,3.659 -3.064,3.502 -3.246,3.333 -3.418,3.156 -3.582,2.97 -3.735,2.775 -3.877,2.572 -4.009,2.362 -4.129,2.145 -4.237,1.923 -4.333,1.694 -4.418,1.462 -4.488,1.224 -4.548,0.983 -4.594,0.74 -4.626,0.495 -4.646,0.248 h -4.653 l -4.646,-0.248 -4.627,-0.495 -4.594,-0.74 -4.547,-0.983 -4.489,-1.224 -4.417,-1.462 -4.334,-1.694 -4.237,-1.923 -4.129,-2.145 -4.008,-2.362 -3.877,-2.572 -3.735,-2.775 -3.582,-2.97 -3.419,-3.156 -3.246,-3.333 -3.064,-3.502 -2.873,-3.659 -2.675,-3.808 -2.467,-3.944 -2.255,-4.07 -2.035,-4.185 -1.809,-4.286 -1.578,-4.377 -1.343,-4.455 -1.105,-4.52 -0.862,-4.572 -0.617,-4.612 -0.372,-4.638 -0.123,-4.651 0.123,-4.651 0.372,-4.638 0.617,-4.612 0.862,-4.572 1.105,-4.52 1.343,-4.455 1.578,-4.377 1.809,-4.286 2.035,-4.185 2.255,-4.07 2.467,-3.944 2.675,-3.808 2.873,-3.659 3.064,-3.502 3.246,-3.333 3.419,-3.156 3.582,-2.97 3.735,-2.775 3.877,-2.572 4.008,-2.362 4.129,-2.145 4.237,-1.923 4.334,-1.694 4.417,-1.462 4.489,-1.224 4.547,-0.983 4.594,-0.74 4.627,-0.495 4.646,-0.248 h 4.653 l 4.646,0.248 4.626,0.495 4.594,0.74 4.548,0.983 4.488,1.224 4.418,1.462 4.333,1.694 4.237,1.923 4.129,2.145 4.009,2.362 3.877,2.572 3.735,2.775 3.582,2.97 3.418,3.156 3.246,3.333 3.064,3.502 2.873,3.659 2.675,3.808 2.468,3.944 2.254,4.07 2.035,4.185 1.809,4.286 1.579,4.377 1.343,4.455 1.104,4.52 0.862,4.572 0.618,4.612 0.371,4.638 0.124,4.651"
       style="fill:none;stroke:#000000;stroke-width:0.709;stroke-linecap:round;stroke-linejoin:round;stroke-miterlimit:10;stroke-dasharray:none;stroke-opacity:1"
       id="path4955" /></g><g
     id="g4957"
     transform="matrix(0.35277776,0,0,-0.35277776,121.76513,12.987831)"><path
       d="M 0,0 5.623,9.107 M 0.535,-15.321 15.617,9.107 M 2.822,-27.805 25.611,9.107 M 10.143,-32.135 35.605,9.107 M 18.76,-34.365 45.599,9.107 M 27.377,-36.595 55.593,9.107 M 36.361,-38.231 65.587,9.107 M 46.355,-38.231 75.581,9.107 M 56.349,-38.231 85.575,9.107 M 66.343,-38.231 95.569,9.107 M 76.337,-38.231 105.563,9.107 M 86.331,-38.231 115.557,9.107 M 96.325,-38.231 125.551,9.107 m -19.232,-47.338 29.226,47.338 m -19.232,-47.338 29.226,47.338 m -19.232,-47.338 29.226,47.338 m 0.963,-14.627 1.926,3.119 m -22.121,-35.83 19.128,30.982 m -154.9,-186.15 10.646,17.244 m -11.245,-34.403 23.14,37.481 m -17.533,-44.587 29.225,47.338 m -19.231,-47.338 29.225,47.338 m -19.231,-47.338 29.225,47.338 m -19.231,-47.338 29.225,47.338 m -19.231,-47.338 29.225,47.338 m -19.231,-47.338 29.225,47.338 m -19.231,-47.338 29.225,47.338 m -19.231,-47.338 29.225,47.338 m -19.231,-47.338 29.225,47.338 m -19.231,-47.338 29.225,47.338 m -19.231,-47.338 29.225,47.338 m -19.231,-47.338 26.739,43.312 m -16.745,-43.312 21.476,34.787 m -11.482,-34.787 16.523,26.763 m -6.529,-26.763 10.136,16.418 m -0.142,-16.418 2.975,4.819 m -103.409,139.747 -1.526,0.943 m 17.714,-0.943 -8.953,5.528 m 14.693,-9.071 -4.267,2.634 m 20.455,-2.634 -14.693,9.071 m 25.142,-5.528 -8.954,5.528 m 25.142,-5.528 -8.954,5.528 m -42.961,-73.417 -8.953,5.527 m 25.142,-5.527 -11.366,7.016 m 27.554,-7.016 -14.693,9.071 m 16.194,-0.004 -0.006,0.004 m 14.693,-9.071 -8.954,5.527 m -73.029,-34.866 -0.735,0.454 m 16.923,-0.454 -9.603,5.929 m 25.791,-5.929 -19.572,12.084 m 35.76,-12.084 -20.891,12.898 m 37.079,-12.898 -20.891,12.898 m 37.079,-12.898 -20.891,12.898 m 37.079,-12.898 -20.891,12.898 m -72.297,114.592 -4.675,2.886 m 18.108,-11.179 -8.29,5.118 m 24.478,-5.118 -20.892,12.898 m 37.08,-12.898 -20.892,12.898 m 37.08,-12.898 -20.892,12.898 m 37.08,-12.898 -20.892,12.898 m 32.849,-10.286 -16.661,10.286 m 23.825,-4.715 -7.637,4.715"
       style="fill:none;stroke:#000000;stroke-width:0.51;stroke-linecap:round;stroke-linejoin:round;stroke-miterlimit:10;stroke-dasharray:none;stroke-opacity:1"
       id="path4959" /></g><g
     id="g4961"
     transform="matrix(0.35277776,0,0,-0.35277776,140.32276,36.952059)"><path
       d="M 0,0 0.215,-1.333 0.384,-2.674 0.5,-3.909 0.576,-5.073 0.614,-6.063 0.62,-6.911 0.593,-7.547 0.53,-7.988 l -0.101,-0.21 -0.15,0.014 -0.197,0.232 -0.256,0.455 -0.306,0.641 -0.366,0.837 -0.414,0.996 -0.464,1.153 -0.501,1.283 -0.526,1.392 -0.522,1.448 -0.504,1.494 -0.421,1.389 -0.343,1.353 -0.198,1.075 -0.085,0.96 0.033,0.676 0.134,0.524 0.215,0.328 L -4.15,8.208 -3.78,8.18 -3.355,7.955 -2.866,7.5 -2.351,6.82 -1.827,5.91 -1.314,4.773 -0.862,3.517 -0.453,2.09 0,0 m 0.563,-22.465 0.046,-1.365 0.013,-1.328 -0.02,-1.253 -0.055,-1.143 -0.094,-1 -0.138,-0.829 -0.188,-0.635 -0.241,-0.429 -0.298,-0.213 -0.35,0.005 -0.409,0.229 -0.448,0.441 -0.501,0.678 -0.515,0.875 -0.533,1.1 -0.505,1.263 -0.446,1.388 -0.36,1.482 -0.227,1.401 -0.111,1.394 0.012,1.198 0.112,1.116 0.2,0.977 0.273,0.852 0.359,0.756 0.407,0.585 0.486,0.438 0.502,0.215 0.533,-0.022 0.511,-0.283 0.471,-0.542 0.418,-0.788 0.338,-0.967 0.276,-1.148 0.204,-1.231 0.15,-1.329 0.128,-1.888 m 0,-27.767 -0.084,-1.364 -0.127,-1.323 -0.176,-1.243 -0.229,-1.13 -0.285,-0.99 -0.337,-0.821 -0.397,-0.649 -0.437,-0.442 -0.493,-0.231 -0.51,0.005 -0.534,0.26 -0.512,0.512 -0.464,0.761 -0.384,0.992 -0.257,1.108 -0.141,1.255 -0.013,1.209 0.09,1.256 0.18,1.213 0.256,1.192 0.342,1.214 0.392,1.135 0.474,1.139 0.495,0.997 0.533,0.885 0.516,0.671 0.483,0.433 0.432,0.174 0.355,-0.094 0.293,-0.349 0.218,-0.564 0.163,-0.776 0.111,-0.94 0.069,-1.094 0.033,-1.213 v -1.302 L 0.563,-50.232 M 0,-72.697 l -0.28,-1.376 -0.347,-1.363 -0.389,-1.235 -0.442,-1.146 -0.481,-1.004 -0.514,-0.847 -0.527,-0.652 -0.522,-0.429 -0.465,-0.166 -0.402,0.106 -0.268,0.342 -0.158,0.6 -0.027,0.703 0.08,0.884 0.167,0.937 0.252,1.052 0.328,1.153 0.391,1.222 0.462,1.336 0.496,1.359 0.525,1.381 0.525,1.334 0.481,1.186 0.447,1.054 0.358,0.789 0.305,0.59 0.223,0.319 0.172,0.089 0.114,-0.144 L 0.579,-65 0.615,-65.576 0.619,-66.369 0.591,-67.314 0.526,-68.437 0.423,-69.643 0.27,-70.964 0,-72.697 m -4.825,89.498 -0.069,0.108 -1.937,2.666 -2.328,2.417 -2.149,1.645 -2.449,1.308 -2.47,0.783 -2.679,0.286 M 0.622,0.36 0.613,0.423 0.573,0.7 0.494,1.206 0.375,1.897 0.204,2.791 l -0.218,1.02 -0.279,1.169 -0.328,1.24 -0.387,1.323 -0.435,1.355 -0.48,1.371 -0.513,1.349 -0.531,1.291 -0.513,1.166 -0.484,1.031 -0.382,0.774 -0.294,0.571 -0.138,0.262 -0.047,0.088 M 0.936,-5.167 0.622,0.36 m 0.314,-67.89 v 0.104 0.315 0.527 0.733 0.935 1.131 1.318 1.497 1.666 1.822 1.968 2.098 2.215 2.317 2.403 2.472 2.524 2.559 2.578 2.577 2.559 2.525 2.472 2.402 2.317 2.215 2.098 1.968 1.822 1.666 1.497 1.318 1.131 0.935 0.733 0.527 0.315 0.104 m -0.314,-67.89 0.314,5.527 m -5.761,-21.968 0.066,0.123 0.154,0.293 0.24,0.468 0.317,0.638 0.381,0.798 0.453,1.001 0.491,1.152 0.524,1.321 0.526,1.439 0.488,1.461 0.456,1.505 0.368,1.354 0.317,1.304 0.231,1.071 0.181,0.94 0.122,0.703 0.081,0.517 0.051,0.353 m -19.528,-25.654 2.239,0.2 2.24,0.605 2.046,0.93 1.932,1.239 2.603,2.32 2.262,2.78 0.759,1.139 m -14.081,-9.213 v 0.103 0.314 0.524 0.732 0.937 1.14 1.338 1.532 1.721 1.904 2.08 2.25 2.412 2.565 2.71 2.847 2.972 3.088 3.194 3.289 3.373 3.444 3.506 3.554 3.591 3.615 3.628 3.627 3.615 3.591 3.554 3.506 3.445 3.372 3.289 3.194 3.088 2.973 2.846 2.71 2.565 2.412 2.25 2.08 1.904 1.721 1.532 1.338 1.14 0.937 0.732 0.524 0.314 0.103 M 69.195,0 68.98,-1.333 l -0.169,-1.341 -0.116,-1.235 -0.076,-1.164 -0.038,-0.99 -0.006,-0.848 0.027,-0.636 0.063,-0.441 0.101,-0.21 0.15,0.014 0.196,0.232 0.257,0.455 0.306,0.641 0.366,0.837 0.414,0.996 0.463,1.153 0.502,1.283 0.525,1.392 0.523,1.448 0.504,1.494 0.421,1.389 0.343,1.353 0.198,1.075 0.085,0.96 L 73.986,7.2 73.852,7.724 73.637,8.052 73.345,8.208 72.975,8.18 72.55,7.955 72.061,7.5 71.546,6.82 71.022,5.91 70.509,4.773 70.057,3.517 69.647,2.09 69.195,0 m -0.563,-22.465 -0.046,-1.365 -0.013,-1.328 0.02,-1.253 0.055,-1.143 0.094,-1 0.138,-0.829 0.188,-0.635 0.241,-0.429 0.298,-0.213 0.35,0.005 0.409,0.229 0.448,0.441 0.501,0.678 0.515,0.875 0.533,1.1 0.505,1.263 0.446,1.388 0.36,1.482 0.227,1.401 0.111,1.394 -0.012,1.198 -0.112,1.116 -0.2,0.977 -0.273,0.852 -0.359,0.756 -0.407,0.585 -0.486,0.438 -0.502,0.215 -0.533,-0.022 -0.511,-0.283 -0.471,-0.542 -0.418,-0.788 -0.338,-0.967 -0.276,-1.148 -0.204,-1.231 -0.15,-1.329 -0.128,-1.888 m 0,-27.767 0.084,-1.364 0.127,-1.323 0.176,-1.243 0.229,-1.13 0.285,-0.99 0.337,-0.821 0.397,-0.649 0.437,-0.442 0.493,-0.231 0.51,0.005 0.534,0.26 0.512,0.512 0.464,0.761 0.384,0.992 0.257,1.108 0.141,1.255 0.013,1.209 -0.09,1.256 -0.18,1.213 -0.256,1.192 -0.342,1.214 -0.393,1.135 -0.473,1.139 -0.495,0.997 -0.533,0.885 -0.516,0.671 -0.483,0.433 -0.432,0.174 -0.355,-0.094 -0.293,-0.349 -0.218,-0.564 -0.163,-0.776 -0.111,-0.94 -0.069,-1.094 -0.033,-1.213 v -1.302 l 0.055,-1.886 m 0.563,-22.465 0.28,-1.376 0.347,-1.363 0.389,-1.235 0.442,-1.146 0.481,-1.004 0.514,-0.847 0.527,-0.652 0.522,-0.429 0.465,-0.166 0.402,0.106 0.267,0.342 0.159,0.6 0.027,0.703 -0.081,0.884 -0.166,0.937 -0.252,1.052 -0.328,1.153 -0.391,1.222 -0.462,1.336 -0.496,1.359 -0.525,1.381 -0.525,1.334 -0.481,1.186 -0.447,1.054 -0.358,0.789 -0.305,0.59 -0.223,0.319 -0.172,0.089 -0.114,-0.144 -0.075,-0.377 -0.036,-0.576 -0.004,-0.793 0.028,-0.945 0.065,-1.123 0.103,-1.206 0.152,-1.321 0.271,-1.733 m 4.825,-16.801 -0.066,0.123 -0.154,0.293 -0.24,0.468 -0.317,0.638 -0.381,0.798 -0.453,1.001 -0.491,1.152 -0.524,1.321 -0.526,1.439 -0.488,1.461 -0.456,1.505 -0.368,1.354 -0.317,1.304 -0.231,1.071 -0.182,0.94 -0.121,0.703 -0.081,0.517 -0.051,0.353 m 0,0 -0.314,5.527 m 0,0 v 0.104 0.315 0.527 0.733 0.935 1.131 1.318 1.497 1.666 1.822 1.968 2.098 2.215 2.317 2.403 2.472 2.524 2.559 2.578 2.577 2.559 2.525 2.472 2.402 2.317 2.215 2.098 1.968 1.822 1.666 1.497 1.318 1.131 0.935 0.733 0.527 0.315 0.104 m 0,0 0.314,5.527 m 0,0 0.009,0.063 0.04,0.277 0.079,0.506 0.119,0.691 0.171,0.894 0.218,1.02 0.279,1.169 0.328,1.24 0.387,1.323 0.435,1.355 0.48,1.371 0.513,1.349 0.53,1.291 0.514,1.166 0.484,1.031 0.382,0.774 0.294,0.571 0.138,0.262 0.047,0.088 m 0,0 0.069,0.108 1.937,2.666 2.328,2.417 2.149,1.645 2.448,1.308 2.47,0.783 2.68,0.286 m 0,-124.725 v 0.103 0.314 0.524 0.732 0.937 1.14 1.338 1.532 1.721 1.904 2.08 2.25 2.412 2.565 2.71 2.847 2.972 3.088 3.194 3.289 3.373 3.444 3.506 3.554 3.591 3.615 3.628 3.627 3.615 3.591 3.554 3.506 3.445 3.372 3.289 3.194 3.088 2.973 2.846 2.71 2.565 2.412 2.25 2.08 1.904 1.721 1.532 1.338 1.14 0.937 0.732 0.524 0.314 0.103 m 0,-124.725 -2.239,0.2 -2.24,0.605 -2.046,0.93 -1.932,1.239 -2.603,2.32 -2.262,2.78 -0.759,1.139 m 14.081,115.512 0.36,3.685 m 0,-132.095 v 0.102 0.309 0.516 0.721 0.924 1.124 1.32 1.512 1.7 1.881 2.058 2.228 2.39 2.545 2.692 2.832 2.96 3.081 3.192 3.293 3.383 3.462 3.531 3.589 3.635 3.67 3.693 3.705 3.704 3.694 3.669 3.635 3.589 3.531 3.463 3.382 3.293 3.192 3.081 2.961 2.831 2.692 2.545 2.391 2.227 2.058 1.882 1.699 1.512 1.32 1.124 0.924 0.721 0.516 0.309 0.102 m 0,-132.095 -0.36,3.685 M 74.02,16.801 H -4.825 M 0.622,0.36 h 67.951 m 0,-73.417 H 0.622 M -4.825,-89.498 H 74.02 m 14.441,-12.898 H -18.906 m 0,132.095 H 88.461 M 0.936,-67.53 H 20.07 m 0,62.363 H 0.936 M 20.07,-63.986 h 29.055 m 0,55.275 H 20.07 m 29.055,-55.275 v 0.101 0.312 0.519 0.723 0.921 1.112 1.295 1.468 1.629 1.778 1.914 2.034 2.141 2.229 2.302 2.356 2.392 2.412 2.411 2.392 2.357 2.301 2.229 2.141 2.034 1.914 1.778 1.63 1.467 1.295 1.112 0.921 0.723 0.519 0.312 0.101 M 20.07,-63.986 v 0.101 0.312 0.519 0.723 0.921 1.112 1.295 1.468 1.629 1.778 1.914 2.034 2.141 2.229 2.302 2.356 2.392 2.412 2.411 2.392 2.357 2.301 2.229 2.141 2.034 1.914 1.778 1.63 1.467 1.295 1.112 0.921 0.723 0.519 0.312 0.101 M 49.125,-67.53 h 19.134 m 0,62.363 H 49.125 m -68.031,-97.229 v 3.685 m 0,124.725 v 3.685 M 49.125,-63.986 V -67.53 M 20.07,-63.986 V -67.53 M 49.125,-5.167 V -8.711 M 20.07,-5.167 v -3.544 m 68.391,-93.685 v 0.102 0.309 0.516 0.721 0.924 1.124 1.32 1.512 1.7 1.881 2.058 2.228 2.39 2.545 2.692 2.832 2.96 3.081 3.192 3.293 3.383 3.462 3.531 3.589 3.635 3.67 3.693 3.705 3.704 3.694 3.669 3.635 3.589 3.531 3.463 3.382 3.293 3.192 3.081 2.961 2.831 2.692 2.545 2.391 2.227 2.058 1.882 1.699 1.512 1.32 1.124 0.924 0.721 0.516 0.309 0.102 m 0,0 0.666,2.662 0.962,2.573 1.254,2.567 1.437,2.471 3.623,5.484 1.796,2.753 1.66,2.834 m 0,-174.783 -1.958,3.305 -2.126,3.213 -2.27,3.408 -2.109,3.518 -1.765,3.788 -0.679,2.03 -0.491,2.082 M -51.834,45.871 -52.922,77.037 m 0,-226.771 1.088,31.166 m -1.088,-31.166 v 0.103 0.313 0.522 0.731 0.938 1.143 1.346 1.546 1.745 1.939 2.13 2.316 2.5 2.678 2.85 3.019 3.181 3.337 3.487 3.631 3.768 3.898 4.02 4.136 4.244 4.344 4.435 4.518 4.594 4.661 4.718 4.768 4.808 4.84 4.862 4.876 4.881 4.876 4.862 4.84 4.808 4.768 4.718 4.661 4.594 4.518 4.436 4.343 4.244 4.136 4.02 3.898 3.768 3.631 3.487 3.338 3.18 3.019 2.851 2.677 2.5 2.317 2.129 1.939 1.745 1.546 1.346 1.143 0.938 0.731 0.522 0.313 0.103 m 0,-226.771 h 158.74 m 0,226.771 h -158.74 m 1.088,-31.166 0.121,-1.255 0.408,-1.669 0.703,-1.623 1.227,-1.795 1.218,-1.212 1.445,-1.019 2.626,-1.082 m 0,-145.129 -0.644,-0.189 -1.581,-0.671 -1.489,-0.954 -1.575,-1.499 -1.001,-1.397 -0.774,-1.59 -0.477,-1.625 -0.207,-1.73 m 7.748,9.655 24.076,6.232 1.104,0.285 m 0,132.095 -25.18,6.517 m 147.094,24.542 0.132,0.554 0.458,0.834 0.708,0.636 0.879,0.365 0.161,0.032 m 0,-199.055 -0.818,0.271 -0.499,0.325 -0.627,0.716 -0.355,0.884 -0.039,0.225 m 2.81,197.193 -0.008,-0.097 -0.064,-0.18 -0.119,-0.148 -0.098,-0.069 -0.179,-0.064 -0.004,-10e-4 m 0,-199.055 0.171,-0.058 0.151,-0.117 0.071,-0.095 0.068,-0.178 0.011,-0.111 m 0,0 v 0.102 0.309 0.516 0.722 0.925 1.128 1.328 1.525 1.719 1.909 2.096 2.278 2.455 2.627 2.794 2.956 3.11 3.259 3.4 3.535 3.662 3.782 3.894 3.998 4.093 4.18 4.259 4.328 4.389 4.44 4.482 4.516 4.539 4.553 4.557 4.554 4.538 4.516 4.482 4.44 4.389 4.328 4.259 4.18 4.093 3.998 3.894 3.782 3.662 3.535 3.401 3.258 3.11 2.956 2.794 2.627 2.456 2.277 2.096 1.909 1.719 1.525 1.328 1.128 0.925 0.722 0.516 0.309 0.102 m -2.81,-2.98 -0.499,-2.726 -0.772,-2.689 -1.878,-4.3 m 0,-174.783 1.679,-3.738 1.141,-4.028 0.329,-1.949 m -14.547,31.059 H -18.906 m 0,132.095 H 88.461 m 17.357,-179.433 v 13.299 m 0,200.173 v 13.299 m -5.959,-191.243 v 0.771 2.114 2.294 2.47 2.639 2.801 2.958 3.107 3.249 3.382 3.507 3.625 3.733 3.832 3.922 4.003 4.074 4.136 4.186 4.228 4.258 4.279 4.29 4.289 4.279 4.259 4.227 4.186 4.136 4.074 4.003 3.922 3.832 3.733 3.625 3.508 3.382 3.248 3.107 2.958 2.801 2.639 2.47 2.294 2.114 M -51.834,-109.6 v 1.349 2.113 2.292 2.465 2.633 2.792 2.946 3.091 3.229 3.359 3.479 3.59 3.693 3.787 3.869 3.943 4.006 4.059 4.102 4.134 4.155 4.166 4.165 4.155 4.134 4.102 4.059 4.006 3.943 3.869 3.787 3.693 3.591 3.479 3.358 3.229 3.091 2.946 2.793 2.632 2.465 2.292 2.113 m 7.748,-136.559 v 0.253 1.871 2.049 2.22 2.386 2.544 2.695 2.839 2.975 3.102 3.22 3.329 3.43 3.519 3.599 3.669 3.729 3.777 3.816 3.843 3.859 3.865 3.859 3.843 3.816 3.777 3.729 3.669 3.599 3.519 3.43 3.329 3.22 3.102 2.975 2.839 2.695 2.544 2.386 2.22 2.049 1.871 M 103.008,-122.87 v 1.673 2.273 2.448 2.62 2.785 2.945 3.098 3.245 3.384 3.517 3.642 3.759 3.868 3.969 4.062 4.145 4.221 4.286 4.343 4.39 4.429 4.457 4.477 4.486 4.486 4.476 4.457 4.429 4.39 4.343 4.286 4.221 4.145 4.062 3.969 3.868 3.759 3.642 3.517 3.384 3.245 3.098 2.945 2.785 2.62 2.448 2.273 m 2.338,-173.521 v 1.355 2.265 2.442 2.612 2.779 2.939 3.093 3.24 3.381 3.516 3.642 3.76 3.873 3.975 4.07 4.157 4.235 4.304 4.364 4.416 4.457 4.49 4.514 4.527 4.533 4.527 4.514 4.49 4.457 4.416 4.364 4.304 4.235 4.157 4.07 3.975 3.873 3.761 3.641 3.516 3.381 3.241 3.092 2.939 2.779 2.613 2.441 2.265"
       style="fill:none;stroke:#000000;stroke-width:0.709;stroke-linecap:round;stroke-linejoin:round;stroke-miterlimit:10;stroke-dasharray:none;stroke-opacity:1"
       id="path4963" /></g></svg>
