<?xml version="1.0" encoding="UTF-8" standalone="no"?>
<!-- Created with Inkscape (http://www.inkscape.org/) -->

<svg
   width="81.247894mm"
   height="65.676529mm"
   viewBox="0 0 81.247894 65.676528"
   version="1.1"
   id="svg5"
   inkscape:version="1.2.1 (9c6d41e410, 2022-07-14)"
   sodipodi:docname="Orangatang Kegel Flat Face.svg"
   xml:space="preserve"
   xmlns:inkscape="http://www.inkscape.org/namespaces/inkscape"
   xmlns:sodipodi="http://sodipodi.sourceforge.net/DTD/sodipodi-0.dtd"
   xmlns="http://www.w3.org/2000/svg"
   xmlns:svg="http://www.w3.org/2000/svg"><sodipodi:namedview
     id="namedview7"
     pagecolor="#505050"
     bordercolor="#eeeeee"
     borderopacity="1"
     inkscape:pageshadow="0"
     inkscape:pageopacity="0"
     inkscape:pagecheckerboard="0"
     inkscape:document-units="mm"
     showgrid="false"
     inkscape:zoom="0.69397446"
     inkscape:cx="-41.067793"
     inkscape:cy="107.35265"
     inkscape:window-width="2560"
     inkscape:window-height="1361"
     inkscape:window-x="2551"
     inkscape:window-y="-9"
     inkscape:window-maximized="1"
     inkscape:current-layer="svg5"
     inkscape:snap-page="true"
     inkscape:showpageshadow="0"
     inkscape:deskcolor="#505050" /><defs
     id="defs2" /><g
     inkscape:label="Ebene 1"
     inkscape:groupmode="layer"
     id="layer1"
     transform="translate(-529.76165,-83.460534)" /><g
     id="g6900"><text
       xml:space="preserve"
       transform="matrix(0.70722771,-0.70722767,0.70698592,0.70698588,0,0)"
       style="font-variant:normal;font-weight:normal;font-stretch:normal;font-size:4.66748px;font-family:'Century Gothic';-inkscape-font-specification:CenturyGothic;writing-mode:lr-tb;fill:#000000;fill-opacity:1;fill-rule:nonzero;stroke:none;stroke-width:0.352838"
       id="text6394"
       x="18.130484"
       y="39.271492"><tspan
         x="18.130484 20.717154 22.010489"
         y="39.271492"
         sodipodi:role="line"
         id="tspan6392"
         style="stroke-width:0.352838">5 x</tspan></text><g
       id="g6396"
       transform="matrix(0.35277778,0,0,-0.35277776,46.69173,6.4093467)"><path
         d="M 0,0 -0.3,0.3 -0.8,0.6 -1.2,0.9 -1.7,1.1 -2.1,1.2 -2.6,1.3 H -3.1 -3.6 L -4.1,1.2 -4.6,1 -5.1,0.8 -5.5,0.6 -5.9,0.3 -6.3,-0.1 -6.6,-0.5 -6.9,-0.9 -7.1,-1.3 -7.3,-1.8 -7.4,-2.3 -7.5,-2.8 v -0.5 l 0.1,-0.5 0.1,-0.5 0.1,-0.5 0.2,-0.4 0.3,-0.4 0.3,-0.4 0.4,-0.4 0.4,-0.3 0.4,-0.3 0.5,-0.2 0.4,-0.2 0.5,-0.1 h 0.5 0.5 l 0.5,0.1 0.5,0.1 0.5,0.2 0.4,0.2 0.5,0.3 0.3,0.3 0.4,0.4 0.3,0.4 0.2,0.4 0.2,0.5 0.2,0.4 0.1,0.5 v 0.5 0.5 L 1.2,-2.2 1.1,-1.7 0.9,-1.2 0.7,-0.8 0.4,-0.4 0,0 M -0.4,-9.3 -5.8,3.1"
         style="fill:none;stroke:#000000;stroke-width:0.51;stroke-linecap:butt;stroke-linejoin:miter;stroke-miterlimit:10;stroke-dasharray:none;stroke-opacity:1"
         id="path6398" /></g><text
       xml:space="preserve"
       transform="matrix(0.70721321,-0.70721317,0.70700041,0.70700037,0,0)"
       style="font-variant:normal;font-weight:normal;font-stretch:normal;font-size:4.66739px;font-family:'Century Gothic';-inkscape-font-specification:CenturyGothic;writing-mode:lr-tb;fill:#000000;fill-opacity:1;fill-rule:nonzero;stroke:none;stroke-width:0.352831"
       id="text6402"
       x="29.527657"
       y="39.27066"><tspan
         x="29.527657 32.114166 33.40741 35.993919"
         y="39.27066"
         sodipodi:role="line"
         id="tspan6400"
         style="stroke-width:0.352831">4,2 </tspan></text><text
       xml:space="preserve"
       transform="scale(1.0000165,0.9999835)"
       style="font-variant:normal;font-weight:normal;font-stretch:normal;font-size:4.66673px;font-family:'Century Gothic';-inkscape-font-specification:CenturyGothic;writing-mode:lr-tb;fill:#000000;fill-opacity:1;fill-rule:nonzero;stroke:none;stroke-width:0.352784"
       id="text6406"
       x="30.919508"
       y="65.613808"><tspan
         x="30.919508 34.391663 35.796402 38.633858 41.653328 43.996109 45.806854 48.840332 49.773712 51.355774"
         y="65.613808"
         sodipodi:role="line"
         id="tspan6404"
         style="stroke-width:0.352784">Druckseite</tspan></text><g
       id="g6524"
       transform="matrix(0.35277778,0,0,-0.35277776,64.1895,57.738511)"><path
         d="m 0,0 -8.5,-4.4 -1,3.9 L 0,0 m 0,0 -5.7,-1.6 -4.5,-1.5 -3.4,-1.4 -2.4,-1.5 -1.6,-1.7 -1.4,-2.2 -1.6,-2.2 -1.5,-1.4 -2.3,-1 -3.5,-0.7"
         style="fill:none;stroke:#000000;stroke-width:0.51;stroke-linecap:butt;stroke-linejoin:miter;stroke-miterlimit:10;stroke-dasharray:none;stroke-opacity:1"
         id="path6526" /></g><g
       id="g6528"
       transform="matrix(0.35277778,0,0,-0.35277776,33.391999,23.624902)"><path
         d="M 0,0 8,5.2 5.1,8.1 0,0"
         style="fill:none;stroke:#000000;stroke-width:0.51;stroke-linecap:butt;stroke-linejoin:miter;stroke-miterlimit:10;stroke-dasharray:none;stroke-opacity:1"
         id="path6530" /></g><g
       id="g6532"
       transform="matrix(0.35277778,0,0,-0.35277776,22.125409,33.565862)"><path
         d="M 0,0 V 28.346"
         style="fill:none;stroke:#000000;stroke-width:0.51;stroke-linecap:round;stroke-linejoin:round;stroke-miterlimit:10;stroke-dasharray:43.2, 3.6, 3.6, 3.6;stroke-dashoffset:34.427;stroke-opacity:1"
         id="path6534" /></g><g
       id="g6536"
       transform="matrix(0.35277778,0,0,-0.35277776,17.125389,38.565852)"><path
         d="M 0,0 H -28.346"
         style="fill:none;stroke:#000000;stroke-width:0.51;stroke-linecap:round;stroke-linejoin:round;stroke-miterlimit:10;stroke-dasharray:43.2, 3.6, 3.6, 3.6;stroke-dashoffset:34.427;stroke-opacity:1"
         id="path6538" /></g><g
       id="g6540"
       transform="matrix(0.35277778,0,0,-0.35277776,22.125409,43.565877)"><path
         d="M 0,0 V -28.346"
         style="fill:none;stroke:#000000;stroke-width:0.51;stroke-linecap:round;stroke-linejoin:round;stroke-miterlimit:10;stroke-dasharray:43.2, 3.6, 3.6, 3.6;stroke-dashoffset:34.427;stroke-opacity:1"
         id="path6542" /></g><g
       id="g6544"
       transform="matrix(0.35277778,0,0,-0.35277776,27.125399,38.565852)"><path
         d="M 0,0 H 28.346"
         style="fill:none;stroke:#000000;stroke-width:0.51;stroke-linecap:round;stroke-linejoin:round;stroke-miterlimit:10;stroke-dasharray:43.2, 3.6, 3.6, 3.6;stroke-dashoffset:34.427;stroke-opacity:1"
         id="path6546" /></g><g
       id="g6548"
       transform="matrix(0.35277778,0,0,-0.35277776,6.2855488,41.212531)"><path
         d="M 0,0 V 5.953"
         style="fill:none;stroke:#000000;stroke-width:0.51;stroke-linecap:round;stroke-linejoin:round;stroke-miterlimit:10;stroke-dasharray:43.2, 3.6, 3.6, 3.6;stroke-dashoffset:0;stroke-opacity:1"
         id="path6550" /></g><g
       id="g6552"
       transform="matrix(0.35277778,0,0,-0.35277776,3.7855488,43.712526)"><path
         d="M 0,0 H -5.953"
         style="fill:none;stroke:#000000;stroke-width:0.51;stroke-linecap:round;stroke-linejoin:round;stroke-miterlimit:10;stroke-dasharray:43.2, 3.6, 3.6, 3.6;stroke-dashoffset:0;stroke-opacity:1"
         id="path6554" /></g><g
       id="g6556"
       transform="matrix(0.35277778,0,0,-0.35277776,6.2855488,46.212521)"><path
         d="M 0,0 V -5.953"
         style="fill:none;stroke:#000000;stroke-width:0.51;stroke-linecap:round;stroke-linejoin:round;stroke-miterlimit:10;stroke-dasharray:43.2, 3.6, 3.6, 3.6;stroke-dashoffset:0;stroke-opacity:1"
         id="path6558" /></g><g
       id="g6560"
       transform="matrix(0.35277778,0,0,-0.35277776,8.7855388,43.712526)"><path
         d="M 0,0 H 5.953"
         style="fill:none;stroke:#000000;stroke-width:0.51;stroke-linecap:round;stroke-linejoin:round;stroke-miterlimit:10;stroke-dasharray:43.2, 3.6, 3.6, 3.6;stroke-dashoffset:0;stroke-opacity:1"
         id="path6562" /></g><g
       id="g6564"
       transform="matrix(0.35277778,0,0,-0.35277776,12.335829,22.591686)"><path
         d="M 0,0 V 5.953"
         style="fill:none;stroke:#000000;stroke-width:0.51;stroke-linecap:round;stroke-linejoin:round;stroke-miterlimit:10;stroke-dasharray:43.2, 3.6, 3.6, 3.6;stroke-dashoffset:0;stroke-opacity:1"
         id="path6566" /></g><g
       id="g6568"
       transform="matrix(0.35277778,0,0,-0.35277776,9.8358288,25.091681)"><path
         d="M 0,0 H -5.953"
         style="fill:none;stroke:#000000;stroke-width:0.51;stroke-linecap:round;stroke-linejoin:round;stroke-miterlimit:10;stroke-dasharray:43.2, 3.6, 3.6, 3.6;stroke-dashoffset:0;stroke-opacity:1"
         id="path6570" /></g><g
       id="g6572"
       transform="matrix(0.35277778,0,0,-0.35277776,12.335829,27.591676)"><path
         d="M 0,0 V -5.953"
         style="fill:none;stroke:#000000;stroke-width:0.51;stroke-linecap:round;stroke-linejoin:round;stroke-miterlimit:10;stroke-dasharray:43.2, 3.6, 3.6, 3.6;stroke-dashoffset:0;stroke-opacity:1"
         id="path6574" /></g><g
       id="g6576"
       transform="matrix(0.35277778,0,0,-0.35277776,14.835819,25.091681)"><path
         d="M 0,0 H 5.953"
         style="fill:none;stroke:#000000;stroke-width:0.51;stroke-linecap:round;stroke-linejoin:round;stroke-miterlimit:10;stroke-dasharray:43.2, 3.6, 3.6, 3.6;stroke-dashoffset:0;stroke-opacity:1"
         id="path6578" /></g><g
       id="g6580"
       transform="matrix(0.35277778,0,0,-0.35277776,31.914959,22.591686)"><path
         d="M 0,0 V 5.953"
         style="fill:none;stroke:#000000;stroke-width:0.51;stroke-linecap:round;stroke-linejoin:round;stroke-miterlimit:10;stroke-dasharray:43.2, 3.6, 3.6, 3.6;stroke-dashoffset:0;stroke-opacity:1"
         id="path6582" /></g><g
       id="g6584"
       transform="matrix(0.35277778,0,0,-0.35277776,29.414959,25.091681)"><path
         d="M 0,0 H -5.953"
         style="fill:none;stroke:#000000;stroke-width:0.51;stroke-linecap:round;stroke-linejoin:round;stroke-miterlimit:10;stroke-dasharray:43.2, 3.6, 3.6, 3.6;stroke-dashoffset:0;stroke-opacity:1"
         id="path6586" /></g><g
       id="g6588"
       transform="matrix(0.35277778,0,0,-0.35277776,31.914959,27.591676)"><path
         d="M 0,0 V -5.953"
         style="fill:none;stroke:#000000;stroke-width:0.51;stroke-linecap:round;stroke-linejoin:round;stroke-miterlimit:10;stroke-dasharray:43.2, 3.6, 3.6, 3.6;stroke-dashoffset:0;stroke-opacity:1"
         id="path6590" /></g><g
       id="g6592"
       transform="matrix(0.35277778,0,0,-0.35277776,34.414949,25.091681)"><path
         d="M 0,0 H 5.953"
         style="fill:none;stroke:#000000;stroke-width:0.51;stroke-linecap:round;stroke-linejoin:round;stroke-miterlimit:10;stroke-dasharray:43.2, 3.6, 3.6, 3.6;stroke-dashoffset:0;stroke-opacity:1"
         id="path6594" /></g><g
       id="g6596"
       transform="matrix(0.35277778,0,0,-0.35277776,37.96524,41.212531)"><path
         d="M 0,0 V 5.953"
         style="fill:none;stroke:#000000;stroke-width:0.51;stroke-linecap:round;stroke-linejoin:round;stroke-miterlimit:10;stroke-dasharray:43.2, 3.6, 3.6, 3.6;stroke-dashoffset:0;stroke-opacity:1"
         id="path6598" /></g><g
       id="g6600"
       transform="matrix(0.35277778,0,0,-0.35277776,35.465239,43.712526)"><path
         d="M 0,0 H -5.953"
         style="fill:none;stroke:#000000;stroke-width:0.51;stroke-linecap:round;stroke-linejoin:round;stroke-miterlimit:10;stroke-dasharray:43.2, 3.6, 3.6, 3.6;stroke-dashoffset:0;stroke-opacity:1"
         id="path6602" /></g><g
       id="g6604"
       transform="matrix(0.35277778,0,0,-0.35277776,37.96524,46.212521)"><path
         d="M 0,0 V -5.953"
         style="fill:none;stroke:#000000;stroke-width:0.51;stroke-linecap:round;stroke-linejoin:round;stroke-miterlimit:10;stroke-dasharray:43.2, 3.6, 3.6, 3.6;stroke-dashoffset:0;stroke-opacity:1"
         id="path6606" /></g><g
       id="g6608"
       transform="matrix(0.35277778,0,0,-0.35277776,40.46523,43.712526)"><path
         d="M 0,0 H 5.953"
         style="fill:none;stroke:#000000;stroke-width:0.51;stroke-linecap:round;stroke-linejoin:round;stroke-miterlimit:10;stroke-dasharray:43.2, 3.6, 3.6, 3.6;stroke-dashoffset:0;stroke-opacity:1"
         id="path6610" /></g><g
       id="g6612"
       transform="matrix(0.35277778,0,0,-0.35277776,22.125409,52.720848)"><path
         d="M 0,0 V 5.953"
         style="fill:none;stroke:#000000;stroke-width:0.51;stroke-linecap:round;stroke-linejoin:round;stroke-miterlimit:10;stroke-dasharray:43.2, 3.6, 3.6, 3.6;stroke-dashoffset:0;stroke-opacity:1"
         id="path6614" /></g><g
       id="g6616"
       transform="matrix(0.35277778,0,0,-0.35277776,19.625419,55.220842)"><path
         d="M 0,0 H -5.953"
         style="fill:none;stroke:#000000;stroke-width:0.51;stroke-linecap:round;stroke-linejoin:round;stroke-miterlimit:10;stroke-dasharray:43.2, 3.6, 3.6, 3.6;stroke-dashoffset:0;stroke-opacity:1"
         id="path6618" /></g><g
       id="g6620"
       transform="matrix(0.35277778,0,0,-0.35277776,22.125409,57.720873)"><path
         d="M 0,0 V -5.953"
         style="fill:none;stroke:#000000;stroke-width:0.51;stroke-linecap:round;stroke-linejoin:round;stroke-miterlimit:10;stroke-dasharray:43.2, 3.6, 3.6, 3.6;stroke-dashoffset:0;stroke-opacity:1"
         id="path6622" /></g><g
       id="g6624"
       transform="matrix(0.35277778,0,0,-0.35277776,24.625409,55.220842)"><path
         d="M 0,0 H 5.953"
         style="fill:none;stroke:#000000;stroke-width:0.51;stroke-linecap:round;stroke-linejoin:round;stroke-miterlimit:10;stroke-dasharray:43.2, 3.6, 3.6, 3.6;stroke-dashoffset:0;stroke-opacity:1"
         id="path6626" /></g><g
       id="g6628"
       transform="matrix(0.35277778,0,0,-0.35277776,62.22086,43.712526)"><path
         d="M 0,0 H 28.172"
         style="fill:none;stroke:#000000;stroke-width:0.51;stroke-linecap:round;stroke-linejoin:round;stroke-miterlimit:10;stroke-dasharray:43.2, 3.6, 3.6, 3.6;stroke-dashoffset:34.514;stroke-opacity:1"
         id="path6630" /></g><g
       id="g6632"
       transform="matrix(0.35277778,0,0,-0.35277776,62.22086,55.220842)"><path
         d="M 0,0 H 27.764"
         style="fill:none;stroke:#000000;stroke-width:0.51;stroke-linecap:round;stroke-linejoin:round;stroke-miterlimit:10;stroke-dasharray:43.2, 3.6, 3.6, 3.6;stroke-dashoffset:34.718;stroke-opacity:1"
         id="path6634" /></g><g
       id="g6636"
       transform="matrix(0.35277778,0,0,-0.35277776,72.07134,25.091681)"><path
         d="M 0,0 H -27.923"
         style="fill:none;stroke:#000000;stroke-width:0.51;stroke-linecap:round;stroke-linejoin:round;stroke-miterlimit:10;stroke-dasharray:43.2, 3.6, 3.6, 3.6;stroke-dashoffset:34.639;stroke-opacity:1"
         id="path6638" /></g><g
       id="g6640"
       transform="matrix(0.35277778,0,0,-0.35277776,22.103119,38.582679)"><path
         d="M 0,0 V 7.1 M 0,0 H -7.1 M 0,0 V -7.1 M 0,0 h 7.1 m -52,-14.6 v 7.1 m 0,-7.1 H -52 m 7.1,0 v -7.1 m 0,7.1 h 7.1 m 10.1,52.8 v 7.1 m 0,-7.1 h -7.1 m 7.1,0 v -7.1 m 0,7.1 h 7 m 48.5,0 v 7.1 m 0,-7.1 h -7.1 m 7.1,0 v -7.1 m 0,7.1 h 7 m 10.1,-52.8 v 7.1 m 0,-7.1 h -7.1 m 7.1,0 v -7.1 m 0,7.1 H 52 M 0,-47.2 v 7.1 m 0,-7.1 h -7.1 m 7.1,0 v -7.1 m 0,7.1 h 7.1"
         style="fill:none;stroke:#000000;stroke-width:0.51;stroke-linecap:round;stroke-linejoin:round;stroke-miterlimit:10;stroke-dasharray:none;stroke-opacity:1"
         id="path6642" /></g><g
       id="g6652"
       transform="matrix(0.35277778,0,0,-0.35277776,33.391999,23.624902)"><path
         d="M 0,0 60.8,60.9 M 0,0 -8.4,-8.4"
         style="fill:none;stroke:#000000;stroke-width:0.51;stroke-linecap:round;stroke-linejoin:round;stroke-miterlimit:10;stroke-dasharray:none;stroke-opacity:1"
         id="path6654" /></g><g
       id="g6656"
       transform="matrix(0.35277778,0,0,-0.35277776,64.1895,57.738511)"><path
         d="m 0,0 -8.5,-4.4 -1,3.9"
         style="fill:#000000;fill-opacity:1;fill-rule:nonzero;stroke:none"
         id="path6658" /></g><g
       id="g6660"
       transform="matrix(0.35277778,0,0,-0.35277776,33.391999,23.624902)"><path
         d="M 0,0 8,5.2 5.1,8.1"
         style="fill:#000000;fill-opacity:1;fill-rule:nonzero;stroke:none"
         id="path6662" /></g><g
       id="g6664"
       transform="matrix(0.35277778,0,0,-0.35277776,31.416449,53.258234)"><path
         d="M 0,0 0.8,0.1 1.6,0.3 2.4,0.6 3.1,1 3.7,1.5 4.3,2.2 4.7,2.9 5,3.6 5.2,4.4 5.3,5.2 5.2,6.1 5,6.9 4.7,7.6 4.3,8.3 3.7,9 3.1,9.5 2.4,9.9 1.6,10.2 0.8,10.4 0,10.5 -0.8,10.4 -1.6,10.2 -2.4,9.9 -3.1,9.5 -3.7,9 -4.2,8.3 -4.7,7.6 -5,6.9 -5.2,6.1 V 5.2 4.4 L -5,3.6 -4.7,2.9 -4.2,2.2 -3.7,1.5 -3.1,1 -2.4,0.6 -1.6,0.3 -0.8,0.1 0,0 m -69.1,50.2 0.8,0.1 0.8,0.2 0.8,0.3 0.7,0.4 0.6,0.6 0.5,0.6 0.5,0.7 0.3,0.8 0.2,0.8 v 0.8 0.8 l -0.2,0.8 -0.3,0.8 -0.5,0.7 -0.5,0.6 -0.6,0.5 -0.7,0.5 -0.8,0.3 -0.8,0.2 h -0.8 -0.8 l -0.8,-0.2 -0.8,-0.3 -0.7,-0.5 -0.6,-0.5 -0.6,-0.6 -0.4,-0.7 -0.3,-0.8 -0.2,-0.8 -0.1,-0.8 0.1,-0.8 0.2,-0.8 0.3,-0.8 0.4,-0.7 0.6,-0.6 0.6,-0.6 0.7,-0.4 0.8,-0.3 0.8,-0.2 0.8,-0.1 m 85.4,0 0.9,0.1 0.8,0.2 0.7,0.3 0.7,0.4 0.7,0.6 0.5,0.6 0.4,0.7 0.3,0.8 0.2,0.8 0.1,0.8 -0.1,0.8 -0.2,0.8 -0.3,0.8 -0.4,0.7 -0.5,0.6 -0.7,0.5 -0.7,0.5 -0.7,0.3 -0.8,0.2 h -0.9 -0.8 l -0.8,-0.2 -0.7,-0.3 -0.7,-0.5 -0.7,-0.5 -0.5,-0.6 -0.4,-0.7 -0.3,-0.8 -0.2,-0.8 -0.1,-0.8 0.1,-0.8 0.2,-0.8 0.3,-0.8 0.4,-0.7 0.5,-0.6 0.7,-0.6 0.7,-0.4 0.7,-0.3 0.8,-0.2 0.8,-0.1 m -85.4,-2.8 -1,0.1 -1,0.2 -1,0.3 -0.9,0.4 -0.9,0.5 -0.7,0.7 -0.7,0.7 -0.6,0.9 -0.5,0.8 -0.4,1 -0.3,1 -0.1,1 v 1 l 0.1,1 0.3,1 0.4,0.9 0.5,0.9 0.6,0.8 0.7,0.8 0.7,0.6 0.9,0.6 0.9,0.4 1,0.3 1,0.2 1,0.1 1,-0.1 1,-0.2 1,-0.3 0.9,-0.4 0.8,-0.6 0.8,-0.6 0.7,-0.8 0.6,-0.8 0.5,-0.9 0.4,-0.9 0.2,-1 0.1,-1 v -1 l -0.1,-1 -0.2,-1 -0.4,-1 -0.5,-0.8 -0.6,-0.9 -0.7,-0.7 -0.8,-0.7 -0.8,-0.5 -0.9,-0.4 -1,-0.3 -1,-0.2 -1,-0.1 m 42.7,33.9 h 0.8 l 0.8,0.2 0.8,0.4 0.7,0.4 0.6,0.5 0.6,0.6 0.4,0.7 0.3,0.8 0.2,0.8 0.1,0.8 -0.1,0.8 -0.2,0.8 -0.3,0.8 -0.4,0.7 -0.6,0.6 -0.6,0.6 -0.7,0.4 -0.8,0.3 -0.8,0.2 -0.8,0.1 -0.8,-0.1 -0.8,-0.2 -0.8,-0.3 -0.7,-0.4 -0.6,-0.6 -0.5,-0.6 -0.5,-0.7 -0.3,-0.8 -0.2,-0.8 v -0.8 -0.8 l 0.2,-0.8 0.3,-0.8 0.5,-0.7 0.5,-0.6 0.6,-0.5 0.7,-0.4 0.8,-0.4 0.8,-0.2 h 0.8 M 0,-2.8 h -1 l -1,0.2 -1,0.3 -0.9,0.5 -0.8,0.5 -0.8,0.7 -0.7,0.7 -0.6,0.8 -0.5,0.9 -0.4,1 -0.2,0.9 -0.1,1 v 1.1 l 0.1,1 0.2,0.9 0.4,1 0.5,0.9 0.6,0.8 0.7,0.7 0.8,0.7 0.8,0.5 0.9,0.5 1,0.3 1,0.2 H 0 1 L 2,13.1 3,12.8 3.9,12.3 4.8,11.8 5.6,11.1 6.2,10.4 6.8,9.6 7.3,8.7 7.7,7.7 8,6.8 8.1,5.8 V 4.7 L 8,3.7 7.7,2.8 7.3,1.8 6.8,0.9 6.2,0.1 5.6,-0.6 4.8,-1.3 3.9,-1.8 3,-2.3 2,-2.6 1,-2.8 H 0 m -52.8,2.8 0.8,0.1 0.8,0.2 0.8,0.3 0.7,0.4 0.6,0.5 0.5,0.7 0.5,0.7 0.3,0.7 0.2,0.8 v 0.8 0.9 l -0.2,0.8 -0.3,0.7 -0.5,0.7 -0.5,0.7 -0.6,0.5 -0.7,0.4 -0.8,0.3 -0.8,0.2 -0.8,0.1 -0.8,-0.1 -0.8,-0.2 L -55.2,9.9 -55.9,9.5 -56.5,9 -57,8.3 -57.5,7.6 -57.8,6.9 -58,6.1 V 5.2 4.4 l 0.2,-0.8 0.3,-0.7 0.5,-0.7 0.5,-0.7 0.6,-0.5 0.7,-0.4 0.8,-0.3 0.8,-0.2 0.8,-0.1 m 0,-2.8 h -1 l -1,0.2 -1,0.3 -0.9,0.5 -0.8,0.5 -0.8,0.7 -0.7,0.7 -0.6,0.8 -0.5,0.9 -0.4,1 -0.2,0.9 -0.2,1 v 1.1 l 0.2,1 0.2,0.9 0.4,1 0.5,0.9 0.6,0.8 0.7,0.7 0.8,0.7 0.8,0.5 0.9,0.5 1,0.3 1,0.2 h 1 1 l 1,-0.2 1,-0.3 0.9,-0.5 0.9,-0.5 0.7,-0.7 0.7,-0.7 0.6,-0.8 0.5,-0.9 0.4,-1 0.2,-0.9 0.2,-1 V 4.7 l -0.2,-1 -0.2,-0.9 -0.4,-1 -0.5,-0.9 -0.6,-0.8 -0.7,-0.7 -0.7,-0.7 -0.9,-0.5 -0.9,-0.5 -1,-0.3 -1,-0.2 h -1 m 26.4,81.2 -1,0.1 -1,0.2 -1,0.3 -0.9,0.4 -0.8,0.6 -0.8,0.6 -0.7,0.8 -0.6,0.8 -0.5,0.9 -0.4,0.9 -0.2,1 -0.1,1 v 1 l 0.1,1 0.2,1 0.4,1 0.5,0.9 0.6,0.8 0.7,0.7 0.8,0.7 0.8,0.5 0.9,0.4 1,0.4 1,0.1 1,0.1 1,-0.1 1,-0.1 1,-0.4 0.9,-0.4 0.9,-0.5 0.7,-0.7 0.7,-0.7 0.6,-0.8 0.5,-0.9 0.4,-1 0.2,-1 0.2,-1 v -1 l -0.2,-1 -0.2,-1 -0.4,-0.9 -0.5,-0.9 -0.6,-0.8 -0.7,-0.8 -0.7,-0.6 -0.9,-0.6 -0.9,-0.4 -1,-0.3 -1,-0.2 -1,-0.1 m 42.7,-31 -1,0.1 -1,0.2 -0.9,0.3 -0.9,0.4 -0.9,0.5 -0.8,0.7 -0.7,0.7 L 9.5,51.2 9,52 8.7,53 8.4,54 8.3,55 v 1 l 0.1,1 0.3,1 0.3,0.9 0.5,0.9 0.6,0.8 0.7,0.8 0.8,0.6 0.9,0.6 0.9,0.4 0.9,0.3 1,0.2 1,0.1 1.1,-0.1 1,-0.2 0.9,-0.3 0.9,-0.4 0.9,-0.6 0.8,-0.6 0.7,-0.8 0.6,-0.8 0.5,-0.9 0.3,-0.9 0.3,-1 0.1,-1 V 55 L 24.3,54 24,53 23.7,52 23.2,51.2 22.6,50.3 21.9,49.6 21.1,48.9 20.2,48.4 19.3,48 18.4,47.7 17.4,47.5 16.3,47.4 M -26.4,77 h 2.1 l 2.1,-0.2 2.1,-0.3 2.1,-0.5 2.1,-0.5 2,-0.7 1.9,-0.8 1.9,-1 1.9,-1 1.8,-1.1 1.7,-1.3 1.6,-1.3 1.6,-1.5 1.4,-1.5 1.4,-1.6 1.3,-1.7 1.2,-1.8 1,-1.8 1,-1.9 0.8,-2 0.7,-2 0.6,-2 0.5,-2.1 0.3,-2 L 8.9,44.2 9,42.1 V 40 L 8.9,37.9 8.6,35.8 8.2,33.7 7.6,31.7 7,29.6 6.2,27.7 5.3,25.7 4.3,23.9 3.2,22.1 2,20.3 0.6,18.7 l -1.4,-1.6 -1.5,-1.5 -1.6,-1.4 -1.7,-1.3 -1.7,-1.2 -1.8,-1 -1.9,-1 -1.9,-0.9 -2,-0.7 -2.1,-0.7 -2,-0.5 -2.1,-0.3 -2.1,-0.3 -2.1,-0.1 h -2.1 l -2.2,0.1 -2.1,0.3 -2.1,0.3 -2,0.5 -2,0.7 -2,0.7 -2,0.9 -1.8,1 -1.9,1 -1.7,1.2 -1.7,1.3 -1.6,1.4 -1.5,1.5 -1.4,1.6 -1.3,1.6 -1.3,1.8 -1.1,1.8 -1,1.8 -0.9,2 -0.7,1.9 -0.7,2.1 -0.5,2 -0.4,2.1 -0.3,2.1 -0.2,2.1 v 2.1 l 0.1,2.1 0.2,2.2 0.3,2 0.5,2.1 0.6,2 0.7,2 0.9,2 0.9,1.9 1.1,1.8 1.1,1.8 1.3,1.7 1.4,1.6 1.4,1.5 1.6,1.5 1.6,1.3 1.8,1.3 1.7,1.1 1.9,1 1.9,1 2,0.8 2,0.7 2,0.5 2.1,0.5 2.1,0.3 2.1,0.2 h 2.1 m 0,27 2.8,-0.1 2.8,-0.2 2.8,-0.3 2.7,-0.4 2.8,-0.6 2.7,-0.7 2.7,-0.8 2.6,-0.9 2.6,-1.1 2.6,-1.1 2.5,-1.3 2.4,-1.4 2.4,-1.5 2.3,-1.6 2.2,-1.6 2.1,-1.8 2.1,-1.9 2,-2 1.9,-2.1 1.8,-2.1 1.7,-2.2 1.6,-2.3 1.4,-2.4 1.4,-2.5 1.3,-2.4 1.2,-2.6 1,-2.6 0.9,-2.6 0.8,-2.7 0.7,-2.7 L 35,52.7 35.4,50 35.7,47.2 35.9,44.4 36,41.6 35.9,38.8 35.7,36 35.4,33.2 35,30.5 34.4,27.7 33.7,25 32.9,22.3 32,19.7 31,17.1 29.8,14.5 28.5,12 27.1,9.6 25.7,7.2 24.1,4.9 22.4,2.7 20.6,0.6 l -1.9,-2.1 -2,-2 -2.1,-1.9 -2.1,-1.8 -2.2,-1.7 -2.3,-1.5 -2.4,-1.5 -2.4,-1.4 -2.5,-1.3 -2.6,-1.1 -2.6,-1.1 -2.6,-0.9 -2.7,-0.8 -2.7,-0.7 -2.8,-0.6 -2.7,-0.4 -2.8,-0.3 -2.8,-0.2 -2.8,-0.1 -2.8,0.1 -2.8,0.2 -2.8,0.3 -2.7,0.4 -2.8,0.6 -2.7,0.7 -2.7,0.8 -2.6,0.9 -2.6,1.1 -2.5,1.1 -2.5,1.3 -2.5,1.4 -2.3,1.5 -2.3,1.5 -2.3,1.7 -2.1,1.8 -2.1,1.9 -2,2 -1.9,2.1 -1.7,2.1 -1.7,2.2 -1.6,2.3 -1.5,2.4 -1.4,2.4 -1.3,2.5 -1.1,2.6 -1.1,2.6 -0.9,2.6 -0.8,2.7 -0.7,2.7 -0.5,2.8 -0.5,2.7 -0.3,2.8 -0.2,2.8 v 2.8 2.8 l 0.2,2.8 0.3,2.8 0.5,2.7 0.5,2.8 0.7,2.7 0.8,2.7 0.9,2.6 1.1,2.6 1.1,2.6 1.3,2.4 1.4,2.5 1.5,2.4 1.6,2.3 1.7,2.2 1.7,2.1 1.9,2.1 2,2 2.1,1.9 2.1,1.8 2.3,1.6 2.3,1.6 2.3,1.5 2.5,1.4 2.5,1.3 2.5,1.1 2.6,1.1 2.6,0.9 2.7,0.8 2.7,0.7 2.8,0.6 2.7,0.4 2.8,0.3 2.8,0.2 2.8,0.1 m -44.9,-71 1,-0.1 1,-0.3 0.9,-0.4 0.9,-0.6 0.7,-0.7 0.6,-0.8 0.4,-0.8 0.3,-1 0.2,-0.9 -0.1,-1 -0.1,-1 -0.4,-0.9 -0.4,-0.8 -0.6,-0.8 -0.8,-0.6 -0.8,-0.5 -0.9,-0.4 -1,-0.3 h -1 l -1.1,0.1 -1,0.3 -1,0.5 -0.9,0.7 -0.7,0.8 -0.5,0.8 -0.4,1 -0.2,0.8 v 0.9 0.9 l 0.2,0.8 0.3,0.9 0.5,0.8 0.6,0.7 0.8,0.7 0.9,0.6 1,0.3 1.6,0.3 m 17.2,52.7 h 1 l 1,-0.3 1,-0.5 0.8,-0.6 0.8,-0.7 0.6,-0.9 0.4,-1 0.3,-1.1 v -1.1 l -0.1,-1 -0.3,-1 -0.5,-0.9 -0.6,-0.8 -0.7,-0.7 -0.8,-0.5 -0.9,-0.4 -0.9,-0.3 -1,-0.1 -1,0.1 -0.9,0.2 -0.9,0.4 -0.8,0.5 -0.8,0.6 -0.6,0.8 -0.5,0.9 -0.4,0.9 -0.2,1.1 v 1.1 l 0.2,1.1 0.5,1 0.5,0.9 0.7,0.7 0.7,0.6 0.8,0.5 0.8,0.3 0.9,0.2 h 0.9 m 55.5,0 H 2.3 L 3.2,85.5 4,85.1 4.9,84.6 5.5,84 6.1,83.4 6.6,82.6 6.9,81.9 7.2,81 7.3,80.1 v -1 l -0.2,-1 -0.4,-1 -0.6,-0.9 -0.7,-0.8 -0.9,-0.7 -1,-0.5 -1,-0.3 -1,-0.1 -1.1,0.1 -0.9,0.2 -0.9,0.4 -0.9,0.6 -0.7,0.6 -0.6,0.8 -0.5,0.8 -0.3,0.9 -0.2,1 v 1 l 0.2,0.9 0.3,0.9 0.4,0.9 0.6,0.8 0.7,0.7 0.9,0.6 1,0.5 0.9,0.2 h 1 M 18.5,33 l 1.1,-0.1 1,-0.3 0.9,-0.5 0.9,-0.6 0.7,-0.7 0.6,-1 0.5,-1 0.2,-1 0.1,-1.1 -0.2,-1 -0.2,-0.9 -0.4,-0.8 -0.5,-0.7 -0.6,-0.6 -0.7,-0.6 -0.8,-0.4 -0.9,-0.4 -0.9,-0.2 h -1.1 l -1,0.1 -1.1,0.4 -0.9,0.5 -0.9,0.7 -0.7,0.8 -0.5,0.9 -0.3,1 -0.2,1 v 1 l 0.1,1 0.4,0.9 0.4,0.8 0.6,0.8 0.7,0.7 0.8,0.5 0.9,0.4 0.9,0.3 1.1,0.1 M -26.4,0.3 h 1 l 0.9,-0.3 0.9,-0.4 0.8,-0.5 0.8,-0.6 0.6,-0.8 0.4,-0.8 0.4,-0.9 0.1,-1 0.1,-1 -0.2,-1 -0.3,-1 -0.6,-1 -0.7,-0.8 -0.8,-0.7 -1,-0.6 -0.9,-0.3 -1.1,-0.2 -0.9,0.1 -0.9,0.1 -0.8,0.3 -0.8,0.3 -0.7,0.5 -0.7,0.6 -0.6,0.8 -0.4,0.9 -0.4,1 -0.1,1 v 1.1 l 0.2,1.1 0.5,1 0.6,0.9 0.7,0.7 0.8,0.7 0.9,0.4 1,0.3 1.2,0.1"
         style="fill:none;stroke:#000000;stroke-width:0.709;stroke-linecap:round;stroke-linejoin:round;stroke-miterlimit:10;stroke-dasharray:none;stroke-opacity:1"
         id="path6666" /></g><g
       id="g6668"
       transform="matrix(0.35277778,0,0,-0.35277776,64.1895,60.596014)"><path
         d="m 0,0 2,0.2 2.1,0.5 2.1,0.9 2,1.2 2,1.6 1.9,2.1 1.7,2.3 0.3,0.5 m 0.1,106.1 -1.6,2.3 -1.9,2.2 -2.1,1.8 -2.1,1.4 -2.2,0.9 -2.2,0.6 -2.1,0.2 m 19.7,-27 -0.2,1.5 M 18.4,68.2 h 26.8 m 0,16.2 H 16.7 M 45.2,68.2 48,71 m 0,10.5 -2.8,2.9 M 15,18 h 30.2 m 0,16.1 H 19.3 M 45.2,18 48,20.8 m 0,10.5 -2.8,2.8 M 19.5,99.2 h 25.7 m 0,16.2 h -31 m 31,-16.2 2.8,2.9 m 0,10.5 -2.8,2.8 m -28.5,-31 -0.5,-0.2 -0.5,-0.3 -0.5,-0.7 -0.4,-0.8 -0.3,-1 -0.2,-1.2 -0.1,-1.2 v -1.3 l 0.2,-1.2 0.2,-1.2 0.3,-1.2 0.3,-1.1 0.5,-1.1 0.4,-1.1 0.5,-0.9 0.6,-0.8 0.5,-0.5 0.4,-0.3 0.3,-0.1 m -4.2,47.2 0.1,-0.1 0.1,-0.3 0.2,-0.4 0.4,-0.7 0.3,-0.8 0.5,-0.9 0.5,-1.2 0.5,-1.3 0.5,-1.4 0.5,-1.4 0.4,-1.4 0.4,-1.5 0.3,-1.2 0.2,-1.1 0.2,-0.9 0.1,-0.7 0.1,-0.5 V 99.3 M 19.3,34.1 19.1,34 18.9,33.7 18.6,33.1 18.3,32.4 17.9,31.5 17.5,30.5 17,29.3 16.5,28 16,26.5 15.5,25.1 15,23.7 l -0.4,-1.4 -0.2,-1.2 -0.2,-1 v -0.8 l 0.1,-0.6 0.2,-0.4 0.2,-0.3 H 15 m 4.7,16.1 v 0.9 1.4 1.5 1.6 1.6 1.8 1.8 1.8 2 1.9 2.1 2 2.1 2.1 2.1 2.1 2.1 2.2 1 m 0,16.2 v 0.1 1.6 1.5 1.5 1.3 1.3 1.1 1 1 0.8 0.7 0.5 0.5 0.3 0.2 M 0,0 V 0 0.1 0.3 0.6 1 1.6 2.3 3.1 4 v 1.1 1.1 1.3 1.4 1.5 1.5 1.7 1.8 1.9 2 2.1 2.1 2.2 2.3 2.4 2.4 2.5 2.6 2.6 2.6 2.7 2.7 2.8 2.7 2.8 2.8 2.8 2.8 2.8 2.8 2.7 2.8 2.7 2.7 2.6 2.6 2.6 2.4 2.5 2.4 2.3 2.2 2.1 2.1 2 1.9 1.8 1.6 1.6 1.5 1.4 1.3 1.1 1.1 0.9 0.8 0.7 0.6 0.4 0.3 0.2 0.1 m 17.6,-71 0.3,-0.1 0.3,-0.3 0.2,-0.4 0.2,-0.6 0.1,-0.7 0.1,-0.8 v -0.8 -1 -0.9 l -0.1,-1 -0.1,-1 -0.2,-0.9 -0.2,-0.8 -0.3,-0.8 -0.3,-0.6 -0.3,-0.5 -0.4,-0.4 -0.4,-0.3 h -0.4 l -0.4,0.1 -0.5,0.3 -0.4,0.5 -0.3,0.7 -0.2,0.8 -0.1,0.8 -0.1,1 0.1,0.8 0.1,0.9 0.2,0.9 0.2,0.8 0.3,0.9 0.3,0.8 0.4,0.7 0.4,0.7 0.5,0.6 0.4,0.3 0.6,0.3 m -2.9,52.7 h 0.4 l 0.4,-0.3 0.4,-0.5 0.4,-0.6 0.5,-0.7 0.4,-0.9 0.4,-1 0.3,-1.1 0.3,-1.1 0.2,-1 0.2,-1 0.1,-0.9 0.1,-0.8 V 95.9 95.4 95 l -0.1,-0.3 -0.2,-0.1 -0.1,0.1 -0.2,0.2 -0.3,0.4 -0.3,0.5 -0.4,0.6 -0.3,0.8 -0.4,0.9 -0.5,0.9 -0.4,1.1 -0.4,1.1 -0.4,1.1 -0.3,1 -0.2,0.9 -0.2,0.7 v 0.6 l 0.1,0.5 0.1,0.3 0.2,0.2 h 0.2 M 14.1,9.3 v 0 l 0.1,0.1 0.1,0.3 0.2,0.3 0.3,0.5 0.3,0.6 0.4,0.8 0.4,0.9 0.4,1 0.5,1 0.4,1.1 0.4,1.1 0.3,1 m 27.3,50.2 v 0.1 0.2 0.3 0.4 0.5 0.7 0.7 0.9 0.8 1 1 1 1 1 1 0.9 0.9 0.8 0.8 0.6 0.6 0.4 0.3 0.2 0.1 M 48,81.5 v 0 V 81.3 81 80.5 80 79.4 78.7 77.9 77.1 76.3 75.5 74.7 73.9 73.2 72.6 72 71.6 71.3 71.1 71 M 45.2,18 v 0 0.2 0.3 0.5 0.5 0.7 0.7 0.8 0.9 1 0.9 1 1.1 1 0.9 1 0.9 0.8 0.7 0.7 0.5 0.5 0.3 0.2 M 48,31.3 V 31.2 31 30.7 30.3 29.8 29.1 28.4 27.7 26.9 26 25.2 24.4 23.7 23 22.3 21.8 21.4 21.1 20.9 20.8 m -2.8,78.4 v 0.1 0.2 0.3 0.4 0.6 0.6 0.8 0.8 0.9 0.9 1 1 1 1 1 1 0.9 0.8 0.7 0.7 0.5 0.4 0.4 0.1 0.1 m 2.8,-2.8 v -0.1 -0.2 -0.3 -0.4 -0.6 -0.6 -0.7 -0.8 -0.8 -0.8 -0.8 -0.8 -0.8 -0.7 -0.6 -0.5 -0.4 -0.4 -0.2"
         style="fill:none;stroke:#000000;stroke-width:0.709;stroke-linecap:round;stroke-linejoin:round;stroke-miterlimit:10;stroke-dasharray:none;stroke-opacity:1"
         id="path6670" /></g></g></svg>
