<?xml version="1.0" encoding="UTF-8" standalone="no"?>
<!-- Created with Inkscape (http://www.inkscape.org/) -->

<svg
   width="80mm"
   height="54.624001mm"
   viewBox="0 0 80 54.624"
   version="1.1"
   id="svg5"
   inkscape:version="1.2.1 (9c6d41e410, 2022-07-14)"
   sodipodi:docname="Orangatang Kegel Flat Face.svg"
   xml:space="preserve"
   xmlns:inkscape="http://www.inkscape.org/namespaces/inkscape"
   xmlns:sodipodi="http://sodipodi.sourceforge.net/DTD/sodipodi-0.dtd"
   xmlns="http://www.w3.org/2000/svg"
   xmlns:svg="http://www.w3.org/2000/svg"><sodipodi:namedview
     id="namedview7"
     pagecolor="#505050"
     bordercolor="#eeeeee"
     borderopacity="1"
     inkscape:pageshadow="0"
     inkscape:pageopacity="0"
     inkscape:pagecheckerboard="0"
     inkscape:document-units="mm"
     showgrid="false"
     inkscape:zoom="1.9628562"
     inkscape:cx="212.70025"
     inkscape:cy="44.068435"
     inkscape:window-width="2560"
     inkscape:window-height="1361"
     inkscape:window-x="2551"
     inkscape:window-y="-9"
     inkscape:window-maximized="1"
     inkscape:current-layer="layer6"
     inkscape:snap-page="true"
     inkscape:showpageshadow="0"
     inkscape:deskcolor="#505050" /><defs
     id="defs2" /><g
     inkscape:label="Ebene 1"
     inkscape:groupmode="layer"
     id="layer1"
     transform="translate(-839.55239,-180.4832)" /><g
     id="g3613"
     transform="matrix(0.33700047,0,0,-0.33700047,63.703163,46.806452)"><path
       d="M 0,0 -8.498,-4.423 -9.568,-0.484 0,0 m 0,0 -5.757,-1.599 -4.509,-1.449 -3.356,-1.444 -2.371,-1.53 -1.625,-1.654 -1.461,-2.207 -1.547,-2.21 -1.534,-1.336 -2.306,-1.092 -3.432,-0.702"
       style="fill:none;stroke:#000000;stroke-width:0.51;stroke-linecap:butt;stroke-linejoin:miter;stroke-miterlimit:10;stroke-dasharray:none;stroke-opacity:1"
       id="path3615" /></g><g
     id="g3617"
     transform="matrix(0.33700047,0,0,-0.33700047,34.260648,14.209642)"><path
       d="M 0,0 8.062,5.175 5.175,8.062 0,0"
       style="fill:none;stroke:#000000;stroke-width:0.51;stroke-linecap:butt;stroke-linejoin:miter;stroke-miterlimit:10;stroke-dasharray:none;stroke-opacity:1"
       id="path3619" /></g><g
     id="g3621"
     transform="matrix(0.33700047,0,0,-0.33700047,8.3589235,31.028022)"><path
       d="M 0,0 V 5.953"
       style="fill:none;stroke:#000000;stroke-width:0.51;stroke-linecap:round;stroke-linejoin:round;stroke-miterlimit:10;stroke-dasharray:43.2, 3.6, 3.6, 3.6;stroke-dashoffset:0;stroke-opacity:1"
       id="path3623" /></g><g
     id="g3625"
     transform="matrix(0.33700047,0,0,-0.33700047,5.9707408,33.416209)"><path
       d="M 0,0 H -5.953"
       style="fill:none;stroke:#000000;stroke-width:0.51;stroke-linecap:round;stroke-linejoin:round;stroke-miterlimit:10;stroke-dasharray:43.2, 3.6, 3.6, 3.6;stroke-dashoffset:0;stroke-opacity:1"
       id="path3627" /></g><g
     id="g3629"
     transform="matrix(0.33700047,0,0,-0.33700047,8.3589235,35.804397)"><path
       d="M 0,0 V -5.953"
       style="fill:none;stroke:#000000;stroke-width:0.51;stroke-linecap:round;stroke-linejoin:round;stroke-miterlimit:10;stroke-dasharray:43.2, 3.6, 3.6, 3.6;stroke-dashoffset:0;stroke-opacity:1"
       id="path3631" /></g><g
     id="g3633"
     transform="matrix(0.33700047,0,0,-0.33700047,10.747115,33.416209)"><path
       d="M 0,0 H 5.953"
       style="fill:none;stroke:#000000;stroke-width:0.51;stroke-linecap:round;stroke-linejoin:round;stroke-miterlimit:10;stroke-dasharray:43.2, 3.6, 3.6, 3.6;stroke-dashoffset:0;stroke-opacity:1"
       id="path3635" /></g><g
     id="g3637"
     transform="matrix(0.33700047,0,0,-0.33700047,14.138616,13.239957)"><path
       d="M 0,0 V 5.953"
       style="fill:none;stroke:#000000;stroke-width:0.51;stroke-linecap:round;stroke-linejoin:round;stroke-miterlimit:10;stroke-dasharray:43.2, 3.6, 3.6, 3.6;stroke-dashoffset:0;stroke-opacity:1"
       id="path3639" /></g><g
     id="g3641"
     transform="matrix(0.33700047,0,0,-0.33700047,11.750433,15.628144)"><path
       d="M 0,0 H -5.953"
       style="fill:none;stroke:#000000;stroke-width:0.51;stroke-linecap:round;stroke-linejoin:round;stroke-miterlimit:10;stroke-dasharray:43.2, 3.6, 3.6, 3.6;stroke-dashoffset:0;stroke-opacity:1"
       id="path3643" /></g><g
     id="g3645"
     transform="matrix(0.33700047,0,0,-0.33700047,14.138616,18.016331)"><path
       d="M 0,0 V -5.953"
       style="fill:none;stroke:#000000;stroke-width:0.51;stroke-linecap:round;stroke-linejoin:round;stroke-miterlimit:10;stroke-dasharray:43.2, 3.6, 3.6, 3.6;stroke-dashoffset:0;stroke-opacity:1"
       id="path3647" /></g><g
     id="g3649"
     transform="matrix(0.33700047,0,0,-0.33700047,16.526809,15.628144)"><path
       d="M 0,0 H 5.953"
       style="fill:none;stroke:#000000;stroke-width:0.51;stroke-linecap:round;stroke-linejoin:round;stroke-miterlimit:10;stroke-dasharray:43.2, 3.6, 3.6, 3.6;stroke-dashoffset:0;stroke-opacity:1"
       id="path3651" /></g><g
     id="g3653"
     transform="matrix(0.33700047,0,0,-0.33700047,32.84211,13.239957)"><path
       d="M 0,0 V 5.953"
       style="fill:none;stroke:#000000;stroke-width:0.51;stroke-linecap:round;stroke-linejoin:round;stroke-miterlimit:10;stroke-dasharray:43.2, 3.6, 3.6, 3.6;stroke-dashoffset:0;stroke-opacity:1"
       id="path3655" /></g><g
     id="g3657"
     transform="matrix(0.33700047,0,0,-0.33700047,30.453927,15.628144)"><path
       d="M 0,0 H -5.953"
       style="fill:none;stroke:#000000;stroke-width:0.51;stroke-linecap:round;stroke-linejoin:round;stroke-miterlimit:10;stroke-dasharray:43.2, 3.6, 3.6, 3.6;stroke-dashoffset:0;stroke-opacity:1"
       id="path3659" /></g><g
     id="g3661"
     transform="matrix(0.33700047,0,0,-0.33700047,32.84211,18.016331)"><path
       d="M 0,0 V -5.953"
       style="fill:none;stroke:#000000;stroke-width:0.51;stroke-linecap:round;stroke-linejoin:round;stroke-miterlimit:10;stroke-dasharray:43.2, 3.6, 3.6, 3.6;stroke-dashoffset:0;stroke-opacity:1"
       id="path3663" /></g><g
     id="g3665"
     transform="matrix(0.33700047,0,0,-0.33700047,35.230302,15.628144)"><path
       d="M 0,0 H 5.953"
       style="fill:none;stroke:#000000;stroke-width:0.51;stroke-linecap:round;stroke-linejoin:round;stroke-miterlimit:10;stroke-dasharray:43.2, 3.6, 3.6, 3.6;stroke-dashoffset:0;stroke-opacity:1"
       id="path3667" /></g><g
     id="g3669"
     transform="matrix(0.33700047,0,0,-0.33700047,38.621801,31.028022)"><path
       d="M 0,0 V 5.953"
       style="fill:none;stroke:#000000;stroke-width:0.51;stroke-linecap:round;stroke-linejoin:round;stroke-miterlimit:10;stroke-dasharray:43.2, 3.6, 3.6, 3.6;stroke-dashoffset:0;stroke-opacity:1"
       id="path3671" /></g><g
     id="g3673"
     transform="matrix(0.33700047,0,0,-0.33700047,36.23362,33.416209)"><path
       d="M 0,0 H -5.953"
       style="fill:none;stroke:#000000;stroke-width:0.51;stroke-linecap:round;stroke-linejoin:round;stroke-miterlimit:10;stroke-dasharray:43.2, 3.6, 3.6, 3.6;stroke-dashoffset:0;stroke-opacity:1"
       id="path3675" /></g><g
     id="g3677"
     transform="matrix(0.33700047,0,0,-0.33700047,38.621801,35.804397)"><path
       d="M 0,0 V -5.953"
       style="fill:none;stroke:#000000;stroke-width:0.51;stroke-linecap:round;stroke-linejoin:round;stroke-miterlimit:10;stroke-dasharray:43.2, 3.6, 3.6, 3.6;stroke-dashoffset:0;stroke-opacity:1"
       id="path3679" /></g><g
     id="g3681"
     transform="matrix(0.33700047,0,0,-0.33700047,41.009993,33.416209)"><path
       d="M 0,0 H 5.953"
       style="fill:none;stroke:#000000;stroke-width:0.51;stroke-linecap:round;stroke-linejoin:round;stroke-miterlimit:10;stroke-dasharray:43.2, 3.6, 3.6, 3.6;stroke-dashoffset:0;stroke-opacity:1"
       id="path3683" /></g><g
     id="g3685"
     transform="matrix(0.33700047,0,0,-0.33700047,23.490378,42.021652)"><path
       d="M 0,0 V 5.953"
       style="fill:none;stroke:#000000;stroke-width:0.51;stroke-linecap:round;stroke-linejoin:round;stroke-miterlimit:10;stroke-dasharray:43.2, 3.6, 3.6, 3.6;stroke-dashoffset:0;stroke-opacity:1"
       id="path3687" /></g><g
     id="g3689"
     transform="matrix(0.33700047,0,0,-0.33700047,21.102194,44.409841)"><path
       d="M 0,0 H -5.953"
       style="fill:none;stroke:#000000;stroke-width:0.51;stroke-linecap:round;stroke-linejoin:round;stroke-miterlimit:10;stroke-dasharray:43.2, 3.6, 3.6, 3.6;stroke-dashoffset:0;stroke-opacity:1"
       id="path3691" /></g><g
     id="g3693"
     transform="matrix(0.33700047,0,0,-0.33700047,23.490378,46.798061)"><path
       d="M 0,0 V -5.953"
       style="fill:none;stroke:#000000;stroke-width:0.51;stroke-linecap:round;stroke-linejoin:round;stroke-miterlimit:10;stroke-dasharray:43.2, 3.6, 3.6, 3.6;stroke-dashoffset:0;stroke-opacity:1"
       id="path3695" /></g><g
     id="g3697"
     transform="matrix(0.33700047,0,0,-0.33700047,25.87857,44.409841)"><path
       d="M 0,0 H 5.953"
       style="fill:none;stroke:#000000;stroke-width:0.51;stroke-linecap:round;stroke-linejoin:round;stroke-miterlimit:10;stroke-dasharray:43.2, 3.6, 3.6, 3.6;stroke-dashoffset:0;stroke-opacity:1"
       id="path3699" /></g><g
     id="g3701"
     transform="matrix(0.33700047,0,0,-0.33700047,23.490378,23.723334)"><path
       d="M 0,0 V 55.276"
       style="fill:none;stroke:#000000;stroke-width:0.51;stroke-linecap:round;stroke-linejoin:round;stroke-miterlimit:10;stroke-dasharray:43.2, 3.6, 3.6, 3.6;stroke-dashoffset:20.962;stroke-opacity:1"
       id="path3703" /></g><g
     id="g3705"
     transform="matrix(0.33700047,0,0,-0.33700047,18.713973,28.499709)"><path
       d="M 0,0 H -55.276"
       style="fill:none;stroke:#000000;stroke-width:0.51;stroke-linecap:round;stroke-linejoin:round;stroke-miterlimit:10;stroke-dasharray:43.2, 3.6, 3.6, 3.6;stroke-dashoffset:20.962;stroke-opacity:1"
       id="path3707" /></g><g
     id="g3709"
     transform="matrix(0.33700047,0,0,-0.33700047,23.490378,33.276118)"><path
       d="M 0,0 V -55.276"
       style="fill:none;stroke:#000000;stroke-width:0.51;stroke-linecap:round;stroke-linejoin:round;stroke-miterlimit:10;stroke-dasharray:43.2, 3.6, 3.6, 3.6;stroke-dashoffset:20.962;stroke-opacity:1"
       id="path3711" /></g><g
     id="g3713"
     transform="matrix(0.33700047,0,0,-0.33700047,28.266753,28.499709)"><path
       d="M 0,0 H 55.276"
       style="fill:none;stroke:#000000;stroke-width:0.51;stroke-linecap:round;stroke-linejoin:round;stroke-miterlimit:10;stroke-dasharray:43.2, 3.6, 3.6, 3.6;stroke-dashoffset:20.962;stroke-opacity:1"
       id="path3715" /></g><g
     id="g3717"
     transform="matrix(0.33700047,0,0,-0.33700047,61.792647,33.416209)"><path
       d="M 0,0 H 28.172"
       style="fill:none;stroke:#000000;stroke-width:0.51;stroke-linecap:round;stroke-linejoin:round;stroke-miterlimit:10;stroke-dasharray:43.2, 3.6, 3.6, 3.6;stroke-dashoffset:34.514;stroke-opacity:1"
       id="path3719" /></g><g
     id="g3721"
     transform="matrix(0.33700047,0,0,-0.33700047,61.792647,44.409841)"><path
       d="M 0,0 H 27.764"
       style="fill:none;stroke:#000000;stroke-width:0.51;stroke-linecap:round;stroke-linejoin:round;stroke-miterlimit:10;stroke-dasharray:43.2, 3.6, 3.6, 3.6;stroke-dashoffset:34.718;stroke-opacity:1"
       id="path3723" /></g><g
     id="g3725"
     transform="matrix(0.33700047,0,0,-0.33700047,71.202574,15.628144)"><path
       d="M 0,0 H -27.923"
       style="fill:none;stroke:#000000;stroke-width:0.51;stroke-linecap:round;stroke-linejoin:round;stroke-miterlimit:10;stroke-dasharray:43.2, 3.6, 3.6, 3.6;stroke-dashoffset:34.639;stroke-opacity:1"
       id="path3727" /></g><g
     id="g3729"
     transform="matrix(0.33700047,0,0,-0.33700047,8.3589235,33.416209)"><path
       d="M 0,0 V 7.087 M 0,0 H -7.087 M 0,0 V -7.087 M 0,0 H 7.087 M 17.15,52.784 v 7.086 m 0,-7.086 h -7.086 m 7.086,0 v -7.087 m 0,7.087 h 7.087 m 48.413,0 v 7.086 m 0,-7.086 h -7.086 m 7.086,0 v -7.087 m 0,7.087 h 7.087 M 89.801,0 v 7.087 m 0,-7.087 h -7.087 m 7.087,0 v -7.087 m 0,7.087 h 7.086 M 44.9,-32.622 v 7.087 m 0,-7.087 h -7.086 m 7.086,0 v -7.087 m 0,7.087 h 7.087 M 44.9,14.589 v 7.087 m 0,-7.087 h -7.086 m 7.086,0 V 7.502 m 0,7.087 h 7.087"
       style="fill:none;stroke:#000000;stroke-width:0.51;stroke-linecap:round;stroke-linejoin:round;stroke-miterlimit:10;stroke-dasharray:none;stroke-opacity:1"
       id="path3731" /></g><path
     style="fill:none;stroke:#000000;stroke-width:0.17187;stroke-linecap:round;stroke-linejoin:round;stroke-miterlimit:10;stroke-dasharray:none;stroke-opacity:1"
     d="M 44.192052,4.2782381 H 61.298581"
     id="path9552"
     sodipodi:nodetypes="cc" /><path
     style="fill:none;stroke:#000000;stroke-width:0.17187;stroke-linecap:round;stroke-linejoin:round;stroke-miterlimit:10;stroke-dasharray:none;stroke-opacity:1"
     d="m 31.423778,17.046512 2.83687,-2.83687"
     id="path9550" /><path
     style="fill:none;stroke:#000000;stroke-width:0.17187;stroke-linecap:round;stroke-linejoin:round;stroke-miterlimit:10;stroke-dasharray:none;stroke-opacity:1"
     d="M 34.260648,14.209642 44.192052,4.2782381"
     id="path3735" /><g
     id="g3737"
     transform="matrix(0.33700047,0,0,-0.33700047,63.703163,46.806452)"><path
       d="m 0,0 -8.498,-4.423 -1.07,3.939"
       style="fill:#000000;fill-opacity:1;fill-rule:nonzero;stroke:none"
       id="path3739" /></g><g
     id="g3741"
     transform="matrix(0.33700047,0,0,-0.33700047,34.260648,14.209642)"><path
       d="M 0,0 8.062,5.175 5.175,8.062"
       style="fill:#000000;fill-opacity:1;fill-rule:nonzero;stroke:none"
       id="path3743" /></g><g
     id="g3745"
     transform="matrix(0.33700047,0,0,-0.33700047,32.39013,42.516403)"><path
       d="m 0,0 0.82,0.065 0.801,0.192 0.76,0.315 0.701,0.43 0.626,0.534 0.535,0.626 0.43,0.701 0.314,0.761 0.193,0.8 0.064,0.82 L 5.18,6.064 4.987,6.865 4.673,7.625 4.243,8.326 3.708,8.952 3.082,9.487 2.381,9.917 1.621,10.232 0.82,10.424 0,10.488 -0.82,10.424 -1.621,10.232 -2.381,9.917 -3.082,9.487 -3.708,8.952 -4.243,8.326 -4.673,7.625 -4.987,6.865 -5.18,6.064 l -0.064,-0.82 0.064,-0.82 0.193,-0.8 0.314,-0.761 0.43,-0.701 0.535,-0.626 0.626,-0.534 0.701,-0.43 0.76,-0.315 L -0.82,0.065 0,0 m -69.139,50.232 0.821,0.065 0.8,0.192 0.76,0.315 0.702,0.43 0.625,0.534 0.535,0.626 0.43,0.702 0.315,0.76 0.192,0.8 0.064,0.82 -0.064,0.821 -0.192,0.8 -0.315,0.76 -0.43,0.702 -0.535,0.626 -0.625,0.534 -0.702,0.43 -0.76,0.315 -0.8,0.192 -0.821,0.064 -0.82,-0.064 -0.8,-0.192 -0.761,-0.315 -0.701,-0.43 -0.626,-0.534 -0.534,-0.626 -0.43,-0.702 -0.315,-0.76 -0.192,-0.8 -0.065,-0.821 0.065,-0.82 0.192,-0.8 0.315,-0.76 0.43,-0.702 0.534,-0.626 0.626,-0.534 0.701,-0.43 0.761,-0.315 0.8,-0.192 0.82,-0.065 m 85.46,0 0.821,0.065 0.8,0.192 0.76,0.315 0.702,0.43 0.626,0.534 0.534,0.626 0.43,0.702 0.315,0.76 0.192,0.8 0.065,0.82 -0.065,0.821 -0.192,0.8 -0.315,0.76 -0.43,0.702 -0.534,0.626 -0.626,0.534 -0.702,0.43 -0.76,0.315 -0.8,0.192 -0.821,0.064 -0.82,-0.064 -0.8,-0.192 -0.76,-0.315 -0.702,-0.43 -0.626,-0.534 -0.534,-0.626 -0.43,-0.702 -0.315,-0.76 -0.192,-0.8 -0.065,-0.821 0.065,-0.82 0.192,-0.8 0.315,-0.76 0.43,-0.702 0.534,-0.626 0.626,-0.534 0.702,-0.43 0.76,-0.315 0.8,-0.192 0.82,-0.065 m -85.46,-2.834 -1.012,0.063 -0.997,0.19 -0.965,0.314 -0.918,0.432 -0.856,0.544 -0.782,0.646 -0.695,0.74 -0.596,0.821 -0.489,0.889 -0.373,0.943 -0.252,0.983 -0.128,1.006 v 1.015 l 0.128,1.006 0.252,0.983 0.373,0.943 0.489,0.889 0.596,0.821 0.695,0.74 0.782,0.646 0.856,0.544 0.918,0.432 0.965,0.313 0.997,0.19 1.012,0.064 1.013,-0.064 0.996,-0.19 0.965,-0.313 0.918,-0.432 0.857,-0.544 0.781,-0.646 0.695,-0.74 0.596,-0.821 0.489,-0.889 0.373,-0.943 0.253,-0.983 0.127,-1.006 v -1.015 l -0.127,-1.006 -0.253,-0.983 -0.373,-0.943 -0.489,-0.889 -0.596,-0.821 -0.695,-0.74 -0.781,-0.646 -0.857,-0.544 -0.918,-0.432 -0.965,-0.314 -0.996,-0.19 -1.013,-0.063 m 42.73,33.88 0.821,0.064 0.8,0.192 0.76,0.315 0.702,0.43 0.625,0.535 0.535,0.625 0.43,0.702 0.315,0.76 0.192,0.8 0.064,0.821 -0.064,0.82 -0.192,0.8 -0.315,0.76 -0.43,0.702 -0.535,0.626 -0.625,0.534 -0.702,0.43 -0.76,0.315 -0.8,0.192 -0.821,0.065 -0.82,-0.065 -0.8,-0.192 -0.76,-0.315 -0.702,-0.43 -0.626,-0.534 -0.534,-0.626 -0.43,-0.702 -0.315,-0.76 -0.192,-0.8 -0.065,-0.82 0.065,-0.821 0.192,-0.8 0.315,-0.76 0.43,-0.702 0.534,-0.625 0.626,-0.535 0.702,-0.43 0.76,-0.315 0.8,-0.192 0.82,-0.064 M 0,-2.835 l -1.013,0.064 -0.996,0.19 -0.965,0.314 -0.918,0.432 -0.857,0.543 -0.781,0.647 -0.695,0.74 -0.596,0.82 -0.489,0.889 -0.373,0.944 -0.253,0.982 -0.127,1.007 v 1.014 l 0.127,1.007 0.253,0.983 0.373,0.943 0.489,0.889 0.596,0.821 0.695,0.739 0.781,0.647 0.857,0.544 0.918,0.431 0.965,0.314 0.996,0.19 L 0,13.323 1.013,13.259 2.009,13.069 2.974,12.755 3.892,12.324 4.749,11.78 5.53,11.133 6.225,10.394 6.821,9.573 7.31,8.684 7.683,7.741 7.936,6.758 8.063,5.751 V 4.737 L 7.936,3.73 7.683,2.748 7.31,1.804 6.821,0.915 6.225,0.095 5.53,-0.645 4.749,-1.292 3.892,-1.835 2.974,-2.267 2.009,-2.581 1.013,-2.771 0,-2.835 M -52.817,0 l 0.82,0.065 0.8,0.192 0.76,0.315 0.702,0.43 0.626,0.534 0.534,0.626 0.43,0.701 0.315,0.761 0.192,0.8 0.065,0.82 -0.065,0.82 -0.192,0.801 -0.315,0.76 -0.43,0.701 -0.534,0.626 -0.626,0.535 -0.702,0.43 -0.76,0.315 -0.8,0.192 -0.82,0.064 -0.821,-0.064 -0.8,-0.192 -0.76,-0.315 -0.702,-0.43 -0.626,-0.535 -0.534,-0.626 -0.43,-0.701 -0.315,-0.76 -0.192,-0.801 -0.064,-0.82 0.064,-0.82 0.192,-0.8 0.315,-0.761 0.43,-0.701 0.534,-0.626 0.626,-0.534 0.702,-0.43 0.76,-0.315 0.8,-0.192 L -52.817,0 m 0,-2.835 -1.013,0.064 -0.996,0.19 -0.965,0.314 -0.918,0.432 -0.857,0.543 -0.782,0.647 -0.694,0.74 -0.596,0.82 -0.489,0.889 -0.374,0.944 -0.252,0.982 -0.127,1.007 v 1.014 l 0.127,1.007 0.252,0.983 0.374,0.943 0.489,0.889 0.596,0.821 0.694,0.739 0.782,0.647 0.857,0.544 0.918,0.431 0.965,0.314 0.996,0.19 1.013,0.064 1.012,-0.064 0.997,-0.19 0.965,-0.314 0.918,-0.431 0.856,-0.544 0.782,-0.647 0.694,-0.739 0.597,-0.821 0.488,-0.889 0.374,-0.943 0.252,-0.983 0.127,-1.007 V 4.737 l -0.127,-1.007 -0.252,-0.982 -0.374,-0.944 -0.488,-0.889 -0.597,-0.82 -0.694,-0.74 -0.782,-0.647 -0.856,-0.543 -0.918,-0.432 -0.965,-0.314 -0.997,-0.19 -1.012,-0.064 m 26.408,81.278 -1.012,0.064 -0.997,0.19 -0.965,0.313 -0.918,0.432 -0.856,0.544 -0.782,0.647 -0.694,0.739 -0.597,0.821 -0.489,0.889 -0.373,0.943 -0.252,0.983 -0.127,1.006 v 1.015 l 0.127,1.006 0.252,0.983 0.373,0.943 0.489,0.889 0.597,0.821 0.694,0.74 0.782,0.646 0.856,0.544 0.918,0.432 0.965,0.314 0.997,0.19 1.012,0.063 1.013,-0.063 0.996,-0.19 0.965,-0.314 0.918,-0.432 0.857,-0.544 0.782,-0.646 0.694,-0.74 0.596,-0.821 0.489,-0.889 0.374,-0.943 0.252,-0.983 0.127,-1.006 v -1.015 l -0.127,-1.006 -0.252,-0.983 -0.374,-0.943 -0.489,-0.889 -0.596,-0.821 -0.694,-0.739 -0.782,-0.647 -0.857,-0.544 -0.918,-0.432 -0.965,-0.313 -0.996,-0.19 -1.013,-0.064 m 42.73,-31.045 -1.012,0.063 -0.997,0.19 -0.965,0.314 -0.917,0.432 -0.857,0.544 -0.782,0.646 -0.694,0.74 L 9.5,51.148 9.012,52.037 8.638,52.98 8.386,53.963 8.259,54.969 v 1.015 l 0.127,1.006 0.252,0.983 0.374,0.943 0.488,0.889 0.597,0.821 0.694,0.74 0.782,0.646 0.857,0.544 0.917,0.432 0.965,0.313 0.997,0.19 1.012,0.064 1.013,-0.064 0.997,-0.19 0.964,-0.313 0.918,-0.432 0.857,-0.544 0.782,-0.646 0.694,-0.74 0.597,-0.821 0.488,-0.889 0.374,-0.943 0.252,-0.983 0.127,-1.006 v -1.015 l -0.127,-1.006 -0.252,-0.983 -0.374,-0.943 -0.488,-0.889 -0.597,-0.821 -0.694,-0.74 -0.782,-0.646 -0.857,-0.544 -0.918,-0.432 -0.964,-0.314 -0.997,-0.19 -1.013,-0.063 m -42.73,29.628 2.119,-0.064 2.112,-0.19 2.096,-0.316 2.074,-0.441 2.043,-0.564 2.007,-0.685 1.961,-0.804 1.91,-0.92 1.852,-1.032 1.786,-1.141 1.716,-1.246 1.637,-1.347 1.554,-1.442 1.465,-1.532 1.371,-1.617 1.272,-1.697 1.168,-1.769 1.06,-1.836 L 5.742,56.487 6.575,54.538 7.29,52.542 7.885,50.507 8.356,48.44 8.704,46.349 8.925,44.24 9.02,42.123 8.989,40.003 8.83,37.889 8.546,35.788 8.136,33.708 7.603,31.656 6.948,29.64 6.173,27.666 5.282,25.743 4.277,23.876 3.163,22.073 1.943,20.339 0.621,18.682 l -1.419,-1.576 -1.51,-1.488 -1.597,-1.395 -1.677,-1.296 -1.751,-1.195 -1.82,-1.087 -1.882,-0.977 -1.937,-0.862 -1.984,-0.745 -2.026,-0.625 -2.06,-0.502 -2.086,-0.379 -2.104,-0.253 -2.117,-0.127 h -2.12 l -2.116,0.127 -2.105,0.253 -2.086,0.379 -2.059,0.502 -2.026,0.625 -1.985,0.745 -1.937,0.862 -1.881,0.977 -1.82,1.087 -1.752,1.195 -1.677,1.296 -1.596,1.395 -1.511,1.488 -1.418,1.576 -1.322,1.657 -1.22,1.734 -1.115,1.803 -1.004,1.867 -0.891,1.923 -0.775,1.974 -0.655,2.016 -0.533,2.052 -0.41,2.08 -0.285,2.101 -0.158,2.114 -0.032,2.12 0.095,2.117 0.222,2.109 0.347,2.091 0.472,2.067 0.594,2.035 0.716,1.996 0.833,1.949 0.948,1.896 1.06,1.836 1.168,1.769 1.272,1.697 1.37,1.617 1.465,1.532 1.555,1.442 1.637,1.347 1.715,1.246 1.787,1.141 1.851,1.032 1.91,0.92 1.962,0.804 2.006,0.685 2.044,0.564 2.073,0.441 2.097,0.316 2.111,0.19 2.119,0.064 m 0,26.929 2.798,-0.063 2.792,-0.188 2.781,-0.314 2.765,-0.437 2.741,-0.562 2.714,-0.684 2.68,-0.805 2.642,-0.924 2.597,-1.042 2.548,-1.157 2.494,-1.271 2.434,-1.381 2.369,-1.489 2.301,-1.593 2.227,-1.696 2.148,-1.793 2.065,-1.888 1.979,-1.979 1.889,-2.066 1.793,-2.148 1.695,-2.227 1.594,-2.3 1.489,-2.37 1.381,-2.434 1.271,-2.494 1.157,-2.548 1.042,-2.597 0.924,-2.642 0.805,-2.68 0.684,-2.714 0.561,-2.741 0.438,-2.764 0.313,-2.781 0.189,-2.793 0.062,-2.797 L 35.891,38.795 35.702,36.002 35.389,33.221 34.951,30.457 34.39,27.716 33.706,25.002 32.901,22.322 31.977,19.68 30.935,17.083 29.778,14.535 28.507,12.041 27.126,9.607 25.637,7.237 24.043,4.937 22.348,2.71 20.555,0.562 18.666,-1.504 16.687,-3.483 14.622,-5.371 12.474,-7.164 10.247,-8.86 l -2.301,-1.593 -2.369,-1.489 -2.434,-1.381 -2.494,-1.271 -2.548,-1.157 -2.597,-1.042 -2.642,-0.924 -2.68,-0.805 -2.714,-0.684 -2.741,-0.562 -2.765,-0.437 -2.781,-0.314 -2.792,-0.188 -2.798,-0.063 -2.798,0.063 -2.792,0.188 -2.781,0.314 -2.764,0.437 -2.742,0.562 -2.713,0.684 -2.681,0.805 -2.641,0.924 -2.598,1.042 -2.548,1.157 -2.493,1.271 -2.434,1.381 -2.37,1.489 -2.3,1.593 -2.227,1.696 -2.148,1.793 -2.066,1.888 -1.979,1.979 -1.888,2.066 -1.793,2.148 -1.696,2.227 -1.593,2.3 -1.489,2.37 -1.382,2.434 -1.27,2.494 -1.157,2.548 -1.042,2.597 -0.925,2.642 -0.805,2.68 -0.683,2.714 -0.562,2.741 -0.437,2.764 -0.314,2.781 -0.188,2.793 -0.063,2.798 0.063,2.797 0.188,2.793 0.314,2.781 0.437,2.764 0.562,2.741 0.683,2.714 0.805,2.68 0.925,2.642 1.042,2.597 1.157,2.548 1.27,2.494 1.382,2.434 1.489,2.37 1.593,2.3 1.696,2.227 1.793,2.148 1.888,2.066 1.979,1.979 2.066,1.888 2.148,1.793 2.227,1.696 2.3,1.593 2.37,1.489 2.434,1.381 2.493,1.271 2.548,1.157 2.598,1.042 2.641,0.924 2.681,0.805 2.713,0.684 2.742,0.562 2.764,0.437 2.781,0.314 2.792,0.188 2.798,0.063 m -44.9,-70.999 0.991,-0.083 0.975,-0.251 0.929,-0.418 0.853,-0.575 0.72,-0.693 0.598,-0.806 0.444,-0.875 0.296,-0.937 0.136,-0.963 -0.021,-0.97 -0.18,-0.951 -0.327,-0.905 -0.473,-0.844 -0.596,-0.75 -0.726,-0.657 -0.814,-0.525 -0.927,-0.398 -0.973,-0.235 -1.052,-0.067 -1.049,0.119 -1.045,0.317 -0.983,0.51 -0.849,0.665 -0.729,0.821 -0.514,0.842 -0.372,0.921 -0.198,0.868 -0.067,0.881 0.063,0.869 0.185,0.838 0.332,0.861 0.453,0.789 0.634,0.78 0.751,0.659 0.919,0.557 1.009,0.385 1.607,0.221 m 17.15,52.784 1.054,-0.095 1.006,-0.273 0.933,-0.44 0.841,-0.591 0.761,-0.771 0.614,-0.902 0.438,-0.998 0.251,-1.074 0.049,-1.053 -0.138,-1.056 -0.305,-0.966 -0.466,-0.906 -0.594,-0.788 -0.717,-0.682 -0.809,-0.546 -0.886,-0.407 -0.935,-0.255 -0.96,-0.101 -0.966,0.057 -0.935,0.209 -0.902,0.363 -0.822,0.499 -0.754,0.648 -0.63,0.756 -0.518,0.895 -0.355,0.967 -0.186,1.064 0.008,1.087 0.21,1.075 0.41,1.035 0.548,0.875 0.7,0.778 0.723,0.575 0.802,0.456 0.811,0.311 0.837,0.188 0.882,0.066 m 55.5,0 0.91,-0.071 L 3.153,85.457 4.025,85.1 4.836,84.606 5.516,84.03 6.1,83.364 6.57,82.632 6.925,81.851 7.176,80.967 7.287,80.068 7.25,79.068 7.048,78.094 6.651,77.098 6.081,76.185 5.341,75.379 4.457,74.715 3.502,74.241 l -1.036,-0.3 -1.017,-0.105 -1.029,0.07 -0.964,0.235 -0.915,0.393 -0.822,0.53 -0.725,0.656 -0.603,0.761 -0.47,0.846 -0.327,0.91 -0.175,0.944 -0.019,0.97 0.135,0.949 0.297,0.941 0.442,0.869 0.609,0.821 0.735,0.7 0.89,0.591 0.986,0.424 0.906,0.219 0.941,0.075 m 17.151,-52.784 1.062,-0.096 1.018,-0.279 0.944,-0.451 0.848,-0.605 0.754,-0.777 0.607,-0.908 0.43,-1.004 0.242,-1.086 0.04,-1.023 -0.137,-1.027 -0.269,-0.875 -0.399,-0.823 -0.491,-0.715 -0.582,-0.63 -0.701,-0.562 -0.766,-0.446 -0.91,-0.353 -0.947,-0.199 -1.055,-0.038 -1.046,0.149 -1.037,0.347 -0.966,0.535 -0.83,0.687 -0.701,0.835 -0.513,0.899 -0.353,0.982 -0.171,0.984 -0.005,1.004 0.16,0.968 0.315,0.93 0.46,0.857 0.591,0.769 0.708,0.661 0.799,0.536 0.88,0.4 0.925,0.253 1.096,0.101 m -44.901,-32.622 0.974,-0.081 0.946,-0.237 0.891,-0.388 0.813,-0.524 0.716,-0.649 0.598,-0.749 0.476,-0.85 0.329,-0.906 0.181,-0.983 0.015,-0.989 -0.161,-1.029 -0.337,-0.983 -0.529,-0.947 -0.699,-0.843 -0.839,-0.698 -0.969,-0.542 -0.962,-0.329 -1.015,-0.163 -0.91,0.005 -0.896,0.142 -0.827,0.262 -0.771,0.373 -0.746,0.51 -0.651,0.607 -0.604,0.774 -0.466,0.856 -0.341,1.003 -0.158,1.05 0.036,1.093 0.238,1.08 0.42,0.989 0.598,0.909 0.712,0.747 0.836,0.618 0.893,0.446 0.958,0.293 1.251,0.133"
       style="fill:none;stroke:#000000;stroke-width:0.709;stroke-linecap:round;stroke-linejoin:round;stroke-miterlimit:10;stroke-dasharray:none;stroke-opacity:1"
       id="path3747" /></g><g
     id="g3749"
     transform="matrix(0.33700047,0,0,-0.33700047,63.703163,49.515803)"><path
       d="m 0,0 2,0.159 2.053,0.499 2.073,0.865 2.053,1.249 1.991,1.635 1.886,2.009 1.74,2.354 0.267,0.456 m 0.1,106.139 -1.593,2.304 -1.94,2.203 -2.066,1.799 -2.143,1.376 -2.17,0.954 L 2.097,124.55 0,124.724 M 19.633,97.793 19.491,99.228 M 18.323,68.167 h 26.846 m 0,16.158 H 16.691 m 28.478,-16.158 2.835,2.835 m 0,10.488 -2.835,2.835 M 14.954,17.935 h 30.215 m 0,16.157 h -25.91 m 25.91,-16.157 2.835,2.835 m 0,10.488 -2.835,2.834 m -25.66,65.121 h 25.66 m 0,16.157 H 14.17 m 30.999,-16.157 2.835,2.834 m 0,10.488 -2.835,2.835 m -28.478,-31.045 -0.524,-0.127 -0.513,-0.377 -0.479,-0.624 -0.417,-0.859 -0.311,-1.023 -0.203,-1.193 -0.071,-1.18 0.036,-1.249 0.13,-1.194 0.212,-1.189 0.294,-1.197 0.352,-1.135 0.434,-1.152 0.463,-1.028 0.515,-0.954 0.509,-0.761 0.496,-0.554 0.454,-0.306 0.255,-0.026 m -4.153,47.173 0.05,-0.095 0.152,-0.291 0.233,-0.458 0.312,-0.63 0.379,-0.8 0.429,-0.954 0.488,-1.151 0.509,-1.286 0.509,-1.394 0.494,-1.479 0.429,-1.412 0.385,-1.411 0.296,-1.21 0.245,-1.119 0.172,-0.884 0.127,-0.726 0.079,-0.495 0.044,-0.293 0.007,-0.052 m -0.25,-65.138 -0.171,-0.114 -0.224,-0.333 -0.279,-0.54 -0.33,-0.725 -0.386,-0.907 -0.427,-1.045 -0.48,-1.213 -0.498,-1.3 -0.522,-1.419 -0.502,-1.44 -0.457,-1.429 -0.381,-1.369 -0.259,-1.174 -0.146,-1.038 -0.022,-0.775 0.081,-0.611 0.169,-0.413 0.246,-0.242 0.283,-0.058 m 4.703,16.145 v 0.901 1.395 1.488 1.575 1.658 1.733 1.804 1.867 1.923 1.974 2.016 2.052 2.08 2.1 2.115 2.119 2.118 2.108 1.049 m 0,16.158 v 0.129 1.618 1.532 1.442 1.346 1.246 1.142 1.032 0.92 0.804 0.685 0.564 0.441 0.316 0.19 0.063 M 0,0 v 0 0.063 0.188 0.313 0.438 0.562 0.683 0.805 0.925 1.041 1.158 1.27 1.381 1.489 1.594 1.695 1.794 1.888 1.979 2.066 2.148 2.227 2.3 2.37 2.434 2.493 2.548 2.598 2.641 2.681 2.713 2.742 2.764 2.781 2.792 2.798 2.798 2.792 2.781 2.764 2.742 2.714 2.68 2.642 2.597 2.548 2.494 2.434 2.369 2.301 2.226 2.149 2.065 1.979 1.888 1.794 1.695 1.594 1.489 1.381 1.271 1.157 1.042 0.924 0.805 0.684 0.561 0.438 0.313 0.189 0.062 0 m 17.552,-70.998 0.308,-0.084 0.268,-0.25 0.223,-0.419 0.177,-0.575 0.125,-0.692 0.082,-0.807 0.039,-0.875 -0.002,-0.936 -0.043,-0.963 -0.082,-0.97 -0.124,-0.952 -0.165,-0.904 -0.21,-0.845 -0.25,-0.75 -0.297,-0.657 -0.331,-0.524 -0.38,-0.398 -0.401,-0.235 -0.436,-0.067 -0.436,0.119 -0.43,0.317 -0.392,0.51 -0.318,0.664 -0.238,0.822 -0.127,0.841 -0.039,0.921 0.045,0.868 0.116,0.882 0.179,0.868 0.232,0.839 0.3,0.86 0.336,0.79 0.401,0.78 0.414,0.659 0.444,0.557 0.429,0.385 0.583,0.221 m -2.863,52.783 0.356,-0.094 0.398,-0.273 0.42,-0.44 0.427,-0.591 0.442,-0.771 0.422,-0.902 0.383,-0.998 0.341,-1.075 0.276,-1.053 0.227,-1.056 0.167,-0.965 0.122,-0.906 0.073,-0.789 0.033,-0.682 -0.008,-0.545 -0.049,-0.407 -0.088,-0.256 -0.13,-0.1 -0.173,0.057 -0.214,0.209 -0.26,0.363 -0.297,0.498 -0.347,0.649 -0.373,0.755 -0.418,0.896 -0.428,0.967 -0.444,1.063 -0.423,1.088 -0.379,1.074 -0.316,1.036 -0.21,0.875 -0.122,0.778 -0.022,0.575 0.057,0.456 0.125,0.31 0.185,0.189 0.247,0.065 m -0.607,-97.294 10e-4,0.002 0.08,0.143 0.142,0.258 0.204,0.378 0.265,0.503 0.312,0.614 0.373,0.764 0.402,0.865 0.434,0.989 0.439,1.065 0.416,1.076 0.395,1.097 0.324,0.966 m 27.3,50.232 v 0.064 0.19 0.314 0.432 0.543 0.647 0.739 0.821 0.889 0.944 0.982 1.007 1.014 1.007 0.983 0.943 0.889 0.821 0.739 0.647 0.544 0.431 0.314 0.19 0.064 m 2.835,-2.835 v -0.064 -0.192 -0.315 -0.43 -0.535 -0.626 -0.701 -0.76 -0.801 -0.82 -0.82 -0.8 -0.761 -0.701 -0.626 -0.534 -0.43 -0.315 -0.192 -0.065 M 45.169,17.935 v 0.064 0.19 0.313 0.432 0.544 0.647 0.739 0.821 0.889 0.943 0.983 1.007 1.014 1.007 0.982 0.944 0.889 0.82 0.74 0.647 0.543 0.432 0.314 0.19 0.063 m 2.835,-2.834 v -0.065 -0.192 -0.315 -0.43 -0.534 -0.626 -0.701 -0.761 -0.8 -0.82 -0.821 -0.8 -0.76 -0.702 -0.625 -0.535 -0.43 -0.315 -0.192 -0.064 m -2.835,78.443 v 0.063 0.19 0.314 0.432 0.544 0.646 0.74 0.821 0.889 0.943 0.983 1.006 1.015 1.006 0.983 0.943 0.889 0.821 0.739 0.647 0.544 0.432 0.313 0.19 0.064 m 2.835,-2.835 v -0.064 -0.192 -0.315 -0.43 -0.535 -0.625 -0.702 -0.76 -0.8 -0.821 -0.82 -0.8 -0.76 -0.702 -0.626 -0.534 -0.43 -0.315 -0.192 -0.065"
       style="fill:none;stroke:#000000;stroke-width:0.709;stroke-linecap:round;stroke-linejoin:round;stroke-miterlimit:10;stroke-dasharray:none;stroke-opacity:1"
       id="path3751" /></g><g
     inkscape:groupmode="layer"
     id="layer6"
     inkscape:label="text"
     transform="translate(-1.2131549,3.7202944)"><text
       xml:space="preserve"
       style="font-style:normal;font-variant:normal;font-weight:normal;font-stretch:normal;font-size:3.52778px;line-height:1.25;font-family:'Century Gothic';-inkscape-font-specification:'Century Gothic, Normal';font-variant-ligatures:normal;font-variant-caps:normal;font-variant-numeric:normal;font-variant-east-asian:normal;letter-spacing:0px;word-spacing:0px;stroke-width:0.201587"
       x="46.240505"
       y="-0.43149161"
       id="text9537"><tspan
         sodipodi:role="line"
         id="tspan9535"
         style="font-style:normal;font-variant:normal;font-weight:normal;font-stretch:normal;font-size:3.52778px;font-family:'Century Gothic';-inkscape-font-specification:'Century Gothic, Normal';font-variant-ligatures:normal;font-variant-caps:normal;font-variant-numeric:normal;font-variant-east-asian:normal;stroke-width:0.201587"
         x="46.240505"
         y="-0.43149161">5 x ∅ 4,2</tspan></text><text
       xml:space="preserve"
       style="font-style:normal;font-variant:normal;font-weight:normal;font-stretch:normal;font-size:3.52778px;line-height:1.25;font-family:'Century Gothic';-inkscape-font-specification:'Century Gothic, Normal';font-variant-ligatures:normal;font-variant-caps:normal;font-variant-numeric:normal;font-variant-east-asian:normal;letter-spacing:0px;word-spacing:0px;stroke-width:0.201587"
       x="37.105225"
       y="49.529785"
       id="text9541"><tspan
         sodipodi:role="line"
         id="tspan9539"
         style="font-style:normal;font-variant:normal;font-weight:normal;font-stretch:normal;font-size:3.52778px;font-family:'Century Gothic';-inkscape-font-specification:'Century Gothic, Normal';font-variant-ligatures:normal;font-variant-caps:normal;font-variant-numeric:normal;font-variant-east-asian:normal;stroke-width:0.201587"
         x="37.105225"
         y="49.529785">Druckseite</tspan></text></g><g
     inkscape:groupmode="layer"
     id="layer7"
     inkscape:label="text path"
     style="display:none"
     transform="translate(-1.2131549,3.7202944)"><g
       aria-label="5 x"
       transform="matrix(1.2540148,0,0,1.2535873,1.2131572,-5.1222124)"
       id="text3599"
       style="font-size:4.66745px;font-family:'Century Gothic';-inkscape-font-specification:CenturyGothic;stroke-width:0.352838"><path
         d="M 51.42805,0.61553167 V 0.93459563 H 50.233839 L 50.06747,1.848486 q 0.218786,-0.063813 0.394272,-0.063813 0.458084,0 0.754358,0.3076688 0.298553,0.3053898 0.298553,0.7839857 0,0.3304591 -0.152695,0.6062216 -0.152695,0.2757624 -0.414783,0.4238992 -0.25981,0.1458578 -0.601664,0.1458578 -0.407946,0 -0.688266,-0.248414 Q 49.376924,3.5531989 49.322227,3.156648 h 0.344134 q 0.03874,0.1937174 0.129904,0.3145059 0.09344,0.1207885 0.246135,0.1959965 0.154974,0.072929 0.323622,0.072929 0.330459,0 0.567478,-0.2506932 0.237019,-0.2506931 0.237019,-0.6267327 0,-0.3395752 -0.214228,-0.5515249 -0.214229,-0.2119496 -0.572036,-0.2119496 -0.296274,0 -0.717894,0.1800432 l 0.309948,-1.66369063 z"
         id="path3869" /><path
         d="m 53.085971,1.4883995 h 0.382877 l 0.65636,0.9184484 0.65636,-0.9184484 h 0.382877 l -0.847798,1.1782576 0.954912,1.3013252 H 54.884125 L 54.125208,2.9264664 53.377687,3.9679823 h -0.380598 l 0.93896,-1.3013252 z"
         id="path3871" /></g><g
       id="g3601"
       transform="matrix(0.44231311,0,0,-0.44231311,75.850352,-2.2937509)"><path
         d="M 0,0 -0.029,0.503 -0.115,0.999 -0.256,1.482 -0.452,1.946 -0.7,2.384 -0.996,2.792 -1.337,3.163 -1.717,3.492 -2.133,3.777 -2.578,4.012 -3.047,4.194 -3.534,4.322 -4.033,4.394 -4.536,4.408 -5.038,4.365 -5.531,4.265 -6.01,4.11 -6.468,3.9 -6.899,3.64 -7.298,3.333 -7.659,2.982 -7.978,2.592 -8.25,2.169 -8.472,1.717 -8.641,1.242 -8.755,0.752 -8.813,0.252 v -0.504 l 0.058,-0.5 0.114,-0.49 0.169,-0.475 0.222,-0.452 0.272,-0.423 0.319,-0.39 0.361,-0.351 0.399,-0.307 0.431,-0.26 0.458,-0.209 0.479,-0.156 0.493,-0.1 0.502,-0.043 0.503,0.014 0.499,0.072 0.487,0.128 0.469,0.183 0.445,0.235 0.416,0.284 0.38,0.329 0.341,0.371 0.296,0.408 0.248,0.438 0.196,0.464 0.141,0.483 0.086,0.496 L 0,0 m -6.93,-6.3 5.04,12.6"
         style="fill:none;stroke:#000000;stroke-width:0.51;stroke-linecap:butt;stroke-linejoin:miter;stroke-miterlimit:10;stroke-dasharray:none;stroke-opacity:1"
         id="path3603" /></g><g
       aria-label="4,2 "
       transform="matrix(1.2539897,0,0,1.2536124,1.2131572,-5.1222124)"
       id="text3607"
       style="font-size:4.66735px;font-family:'Century Gothic';-inkscape-font-specification:CenturyGothic;stroke-width:0.352831"><path
         d="m 62.518112,0.53120172 h 0.06837 V 2.8671556 h 0.405659 v 0.3213361 h -0.405659 v 0.779411 h -0.33501 V 3.1884917 H 60.649349 Z M 62.251471,2.8671556 V 1.4701412 l -0.986798,1.3970144 z"
         id="path3862" /><path
         d="M 63.789628,3.3525782 64.09729,3.4984329 63.634657,4.3598871 63.409038,4.26417 Z"
         id="path3864" /><path
         d="M 64.950686,1.6661335 H 64.62935 q 0.01367,-0.4968175 0.330452,-0.81587466 0.319057,-0.31905712 0.786248,-0.31905712 0.462633,0 0.747505,0.2985463 0.287152,0.29854628 0.287152,0.70420468 0,0.2848724 -0.136739,0.5355601 -0.136739,0.2484088 -0.531002,0.6745779 l -0.834107,0.9001969 h 1.547427 v 0.3236151 h -2.2767 l 1.280786,-1.3833405 q 0.389706,-0.4170533 0.505934,-0.6176035 0.118507,-0.2028291 0.118507,-0.4261691 0,-0.2825934 -0.211945,-0.4854226 -0.209666,-0.20510816 -0.51505,-0.20510816 -0.321336,0 -0.53556,0.21422406 -0.211945,0.2142241 -0.241572,0.6016506 z"
         id="path3866" /></g><g
       aria-label="Druckseite"
       transform="matrix(1.2538217,0,0,1.2537804,1.5785919e-6,1.1192928e-7)"
       id="text3611"
       style="font-size:4.66673px;font-family:'Century Gothic';-inkscape-font-specification:CenturyGothic;stroke-width:0.352784"><path
         d="m 33.792042,57.438728 v -3.351933 h 0.694997 q 0.751963,0 1.091486,0.12077 0.487637,0.1709 0.761078,0.592456 0.27572,0.421555 0.27572,1.004896 0,0.503588 -0.218753,0.886405 -0.216475,0.382818 -0.565112,0.565112 -0.346359,0.182294 -0.972995,0.182294 z m 0.321294,-0.316736 h 0.387375 q 0.694996,0 0.96388,-0.08659 0.37826,-0.123049 0.594735,-0.442064 0.216474,-0.321293 0.216474,-0.783865 0,-0.485358 -0.234704,-0.829438 -0.234704,-0.34408 -0.65398,-0.471686 -0.314457,-0.0957 -1.036798,-0.0957 h -0.236982 z"
         id="path3841" /><path
         d="m 37.091031,54.959528 h 0.325851 v 0.36231 q 0.145835,-0.214196 0.307621,-0.319015 0.161786,-0.107098 0.337244,-0.107098 0.132163,0 0.282556,0.08431 L 38.17796,55.24892 q -0.100262,-0.0433 -0.168623,-0.0433 -0.159507,0 -0.307621,0.132163 -0.148114,0.129885 -0.225589,0.405605 -0.05924,0.211917 -0.05924,0.856782 v 0.838553 h -0.325851 z"
         id="path3843" /><path
         d="m 38.575509,54.959528 h 0.321293 v 1.157568 q 0,0.423834 0.04557,0.583341 0.06836,0.227868 0.259769,0.360031 0.193687,0.132163 0.460292,0.132163 0.266606,0 0.451178,-0.127606 0.186852,-0.129884 0.257491,-0.339522 0.04785,-0.143557 0.04785,-0.608407 v -1.157568 h 0.325851 v 1.216813 q 0,0.512703 -0.12077,0.772472 -0.118491,0.259769 -0.360031,0.407883 -0.239261,0.145835 -0.601571,0.145835 -0.362309,0 -0.606128,-0.145835 Q 38.81477,57.208582 38.694,56.946534 38.575509,56.682208 38.575509,56.153555 Z"
         id="path3845" /><path
         d="m 43.860271,55.474509 -0.252933,0.157229 q -0.32813,-0.435228 -0.89552,-0.435228 -0.453457,0 -0.754242,0.291671 -0.298507,0.291671 -0.298507,0.708669 0,0.271162 0.136721,0.510423 0.138999,0.239261 0.37826,0.371424 0.24154,0.132164 0.540046,0.132164 0.546883,0 0.893242,-0.435228 l 0.252933,0.166344 q -0.177737,0.266605 -0.478522,0.414719 -0.298507,0.145835 -0.681325,0.145835 -0.587898,0 -0.975273,-0.373703 -0.387375,-0.373703 -0.387375,-0.909192 0,-0.360031 0.180015,-0.667652 0.182294,-0.3099 0.49903,-0.483079 0.316736,-0.17318 0.708669,-0.17318 0.246097,0 0.473964,0.0752 0.230147,0.0752 0.389654,0.195967 0.159508,0.12077 0.271163,0.307621 z"
         id="path3847" /><path
         d="m 44.471172,54.002484 h 0.321293 v 1.955104 l 1.146175,-0.99806 h 0.469407 l -1.36037,1.182633 1.440124,1.296567 h -0.451178 l -1.244158,-1.114273 v 1.114273 h -0.321293 z"
         id="path3849" /><path
         d="m 48.062668,55.230691 -0.205081,0.211917 q -0.255212,-0.248376 -0.49903,-0.248376 -0.15495,0 -0.266605,0.10254 -0.109377,0.102541 -0.109377,0.239261 0,0.12077 0.09115,0.230147 0.09115,0.111655 0.382818,0.262047 0.355474,0.184573 0.483079,0.355474 0.125328,0.173179 0.125328,0.389654 0,0.305342 -0.214196,0.517259 -0.214196,0.211917 -0.535489,0.211917 -0.214196,0 -0.410162,-0.09342 -0.193687,-0.09343 -0.321293,-0.257491 l 0.200523,-0.227868 q 0.243819,0.27572 0.51726,0.27572 0.191409,0 0.325851,-0.123048 0.134442,-0.123049 0.134442,-0.289392 0,-0.136721 -0.08887,-0.243819 -0.08887,-0.104819 -0.401047,-0.264326 -0.334965,-0.17318 -0.455735,-0.341802 -0.12077,-0.168622 -0.12077,-0.385096 0,-0.282556 0.191409,-0.469407 0.193687,-0.186852 0.487637,-0.186852 0.341801,0 0.68816,0.334966 z"
         id="path3851" /><path
         d="m 50.714245,56.616126 0.268884,0.141278 q -0.132164,0.259769 -0.305343,0.419277 -0.173179,0.159507 -0.389654,0.243818 -0.216474,0.08203 -0.489915,0.08203 -0.606128,0 -0.94793,-0.396489 -0.341801,-0.398769 -0.341801,-0.900078 0,-0.471686 0.289392,-0.840831 0.366867,-0.469408 0.982109,-0.469408 0.633473,0 1.011733,0.480801 0.268884,0.339523 0.273441,0.847668 h -2.228546 q 0.0091,0.432948 0.27572,0.710947 0.266605,0.27572 0.658538,0.27572 0.18913,0 0.366867,-0.06608 0.180015,-0.06608 0.305342,-0.175458 0.125328,-0.109377 0.271163,-0.353195 z m 0,-0.667652 q -0.0638,-0.255212 -0.186852,-0.407883 -0.120769,-0.152672 -0.321293,-0.246097 -0.200524,-0.09343 -0.421555,-0.09343 -0.364588,0 -0.626636,0.234703 -0.191409,0.170901 -0.289392,0.512703 z"
         id="path3853" /><path
         d="m 51.77211,53.938681 q 0.109376,0 0.186851,0.07747 0.07747,0.07747 0.07747,0.186851 0,0.107098 -0.07747,0.184573 -0.07747,0.07747 -0.186851,0.07747 -0.107098,0 -0.184573,-0.07747 -0.07747,-0.07747 -0.07747,-0.184573 0,-0.109376 0.07747,-0.186851 0.07747,-0.07747 0.184573,-0.07747 z m -0.159507,1.020847 h 0.321293 v 2.4792 h -0.321293 z"
         id="path3855" /><path
         d="m 52.871833,54.038943 h 0.321294 v 0.920585 h 0.505866 v 0.273441 h -0.505866 v 2.205759 h -0.321294 v -2.205759 h -0.435227 v -0.273441 h 0.435227 z"
         id="path3857" /><path
         d="m 56.26318,56.616126 0.268884,0.141278 q -0.132164,0.259769 -0.305343,0.419277 -0.173179,0.159507 -0.389654,0.243818 -0.216474,0.08203 -0.489915,0.08203 -0.606128,0 -0.94793,-0.396489 -0.341801,-0.398769 -0.341801,-0.900078 0,-0.471686 0.289392,-0.840831 0.366867,-0.469408 0.982109,-0.469408 0.633473,0 1.011733,0.480801 0.268884,0.339523 0.273441,0.847668 H 54.38555 q 0.0091,0.432948 0.27572,0.710947 0.266605,0.27572 0.658538,0.27572 0.18913,0 0.366867,-0.06608 0.180015,-0.06608 0.305342,-0.175458 0.125328,-0.109377 0.271163,-0.353195 z m 0,-0.667652 q -0.0638,-0.255212 -0.186852,-0.407883 -0.12077,-0.152672 -0.321293,-0.246097 -0.200524,-0.09343 -0.421555,-0.09343 -0.364589,0 -0.626636,0.234703 -0.191409,0.170901 -0.289392,0.512703 z"
         id="path3859" /></g></g></svg>
