<?xml version="1.0" encoding="UTF-8" standalone="no"?>
<!-- Created with Inkscape (http://www.inkscape.org/) -->

<svg
   width="100.72501mm"
   height="85.179741mm"
   viewBox="0 0 100.72501 85.17974"
   version="1.1"
   id="svg5"
   inkscape:version="1.2.1 (9c6d41e410, 2022-07-14)"
   sodipodi:docname="Orangatang Kegel 83mm Longboard Wheel.svg"
   xml:space="preserve"
   xmlns:inkscape="http://www.inkscape.org/namespaces/inkscape"
   xmlns:sodipodi="http://sodipodi.sourceforge.net/DTD/sodipodi-0.dtd"
   xmlns="http://www.w3.org/2000/svg"
   xmlns:svg="http://www.w3.org/2000/svg"><sodipodi:namedview
     id="namedview7"
     pagecolor="#505050"
     bordercolor="#eeeeee"
     borderopacity="1"
     inkscape:pageshadow="0"
     inkscape:pageopacity="0"
     inkscape:pagecheckerboard="0"
     inkscape:document-units="mm"
     showgrid="false"
     inkscape:zoom="1.9628562"
     inkscape:cx="152.58377"
     inkscape:cy="150.03646"
     inkscape:window-width="2560"
     inkscape:window-height="1361"
     inkscape:window-x="2551"
     inkscape:window-y="-9"
     inkscape:window-maximized="1"
     inkscape:current-layer="svg5"
     inkscape:snap-page="true"
     inkscape:showpageshadow="0"
     inkscape:deskcolor="#505050" /><defs
     id="defs2" /><g
     inkscape:label="Ebene 1"
     inkscape:groupmode="layer"
     id="layer1"
     transform="translate(-575.03695,-87.734389)" /><g
     aria-label="10 x"
     transform="scale(1.0001655,0.99983452)"
     id="text807"
     style="font-size:4.66742px;font-family:'Century Gothic';-inkscape-font-specification:CenturyGothic;stroke-width:0.352836"><path
       d="m 2.2465243,1.2433661 h 0.658635 V 4.5957952 H 2.5724233 V 1.5715441 H 2.0459711 Z"
       id="path1155" /><path
       d="m 4.1175229,2.9207201 q 0,-0.6631929 0.1412989,-1.0255561 0.1435778,-0.3623632 0.4033854,-0.5492423 0.2598076,-0.1868791 0.5811485,-0.1868791 0.3258989,0 0.5902645,0.1891581 0.2643656,0.1868792 0.4170595,0.5629164 0.1549729,0.3760372 0.1549729,1.009603 0,0.6312868 -0.1526939,1.005045 -0.1504149,0.3737583 -0.4170595,0.5651954 -0.2666446,0.1891582 -0.5925435,0.1891582 -0.3213409,0 -0.5788695,-0.1846001 Q 4.4069577,4.3109185 4.2611008,3.9462763 4.1175229,3.5793551 4.1175229,2.9207201 Z m 0.3167829,0.00684 q 0,0.5674744 0.1002766,0.8591881 0.1025556,0.2894347 0.3008298,0.4398496 0.1982742,0.1504149 0.4193385,0.1504149 0.2233434,0 0.4170595,-0.1458568 Q 5.8655264,4.0830171 5.965803,3.7890243 6.0911487,3.4312192 6.0911487,2.9275572 q 0,-0.505941 -0.1116716,-0.827282 Q 5.8678054,1.7766553 5.6695312,1.6285194 5.473536,1.4781045 5.2547507,1.4781045 q -0.2233433,0 -0.4193385,0.1504149 Q 4.6394171,1.7766553 4.5368614,2.068369 4.4343058,2.3578038 4.4343058,2.9275572 Z"
       id="path1157" /><path
       d="M 7.9222288,2.1162283 H 8.3051031 L 8.961459,3.0346708 9.617815,2.1162283 h 0.382874 L 9.1528962,3.2944784 10.107803,4.5957952 H 9.7203706 L 8.961459,3.5542859 8.2139426,4.5957952 H 7.8333473 L 8.7723009,3.2944784 Z"
       id="path1159" /></g><g
     id="g809"
     transform="matrix(0.35277777,0,0,-0.35277775,14.35643,2.8836054)"><path
       d="M 0,0 -0.029,0.503 -0.115,0.999 -0.256,1.482 -0.452,1.946 -0.7,2.384 -0.996,2.792 -1.336,3.163 -1.717,3.492 -2.133,3.776 -2.578,4.011 -3.047,4.194 -3.534,4.322 -4.033,4.394 -4.536,4.408 -5.038,4.365 -5.531,4.265 -6.01,4.109 -6.468,3.9 -6.899,3.64 -7.298,3.333 -7.659,2.982 -7.978,2.592 -8.25,2.169 -8.472,1.717 -8.641,1.242 -8.755,0.752 -8.813,0.252 v -0.504 l 0.058,-0.5 0.114,-0.49 0.169,-0.475 0.222,-0.452 0.272,-0.423 0.319,-0.39 0.361,-0.351 0.399,-0.307 0.431,-0.26 0.458,-0.21 0.479,-0.155 0.493,-0.1 0.502,-0.043 0.503,0.014 0.499,0.072 0.487,0.128 0.469,0.182 0.445,0.235 0.416,0.285 0.381,0.329 0.34,0.371 0.296,0.408 0.248,0.438 0.196,0.464 0.141,0.483 0.086,0.496 L 0,0 m -6.93,-6.3 5.04,12.6"
       style="fill:none;stroke:#000000;stroke-width:0.51;stroke-linecap:butt;stroke-linejoin:miter;stroke-miterlimit:10;stroke-dasharray:none;stroke-opacity:1"
       id="path811" /></g><g
     aria-label="5,8 "
     transform="scale(1.0001505,0.99984952)"
     id="text815"
     style="font-size:4.66735px;font-family:'Century Gothic';-inkscape-font-specification:CenturyGothic;stroke-width:0.352831"><path
       d="m 17.660276,1.2433487 v 0.3190572 h -1.194185 l -0.166365,0.9138707 q 0.218782,-0.063811 0.394263,-0.063811 0.458075,0 0.754342,0.3076622 0.298547,0.3053832 0.298547,0.7839689 0,0.330452 -0.152692,0.6062085 -0.152692,0.2757565 -0.414774,0.4238902 -0.259804,0.1458547 -0.601651,0.1458547 -0.407937,0 -0.688252,-0.2484088 -0.280314,-0.2506877 -0.33501,-0.6472301 h 0.344126 q 0.03874,0.1937132 0.129902,0.3144991 0.09344,0.1207859 0.24613,0.1959923 0.15497,0.072927 0.323615,0.072927 0.330452,0 0.567466,-0.2506877 0.237014,-0.2506878 0.237014,-0.6267194 0,-0.3395679 -0.214224,-0.551513 -0.214224,-0.2119451 -0.572024,-0.2119451 -0.296268,0 -0.717879,0.1800394 l 0.309941,-1.663655 z"
       id="path1148" /><path
       d="m 18.624146,3.980403 0.307662,0.1458547 -0.462633,0.8614542 -0.225619,-0.095717 z"
       id="path1150" /><path
       d="m 21.038647,2.7565911 q 0.339568,0.1686444 0.485423,0.3851475 0.148134,0.216503 0.148134,0.4922595 0,0.3874265 -0.252967,0.6836939 -0.309941,0.3623577 -0.886523,0.3623577 -0.556071,0 -0.843223,-0.3167782 -0.287151,-0.3190571 -0.287151,-0.7019256 0,-0.2803145 0.150413,-0.5036545 0.150412,-0.2256189 0.501375,-0.4011003 -0.24613,-0.1276229 -0.369194,-0.3167782 -0.123065,-0.1891553 -0.123065,-0.4056583 0,-0.218782 0.129901,-0.4261692 0.132181,-0.2096661 0.362358,-0.328173 0.232456,-0.1207859 0.501376,-0.1207859 0.262082,0 0.485422,0.1207859 0.22334,0.1207859 0.348684,0.328173 0.127623,0.2073872 0.127623,0.4352851 0,0.227898 -0.120786,0.4056583 -0.118507,0.1777604 -0.3578,0.3076623 z M 20.539551,1.4849206 q -0.275757,0 -0.458075,0.1640865 -0.180039,0.1618075 -0.180039,0.3874265 0,0.22334 0.193713,0.4056583 0.195992,0.1800394 0.455796,0.1800394 0.166365,0 0.314499,-0.082043 0.148134,-0.082043 0.230177,-0.22334 0.08432,-0.1435757 0.08432,-0.2871514 0,-0.2028291 -0.164087,-0.3737526 -0.164086,-0.1709234 -0.476306,-0.1709234 z m 0.01595,1.4403149 q -0.346405,0 -0.58114,0.225619 -0.234735,0.22334 -0.234735,0.5218863 0,0.1845973 0.100275,0.3486838 0.100275,0.1640866 0.280315,0.2529667 0.180039,0.08888 0.417053,0.08888 0.366915,0 0.583419,-0.216503 0.216503,-0.216503 0.216503,-0.5059334 0,-0.2803145 -0.230177,-0.4968175 -0.227898,-0.2187821 -0.551513,-0.2187821 z"
       id="path1152" /></g><g
     id="g817"
     transform="matrix(0.35277777,0,0,-0.35277775,8.7102597,76.293414)"><path
       d="M 0,0 -0.029,0.503 -0.115,0.999 -0.256,1.482 -0.452,1.946 -0.7,2.384 -0.996,2.792 -1.336,3.163 -1.717,3.492 -2.133,3.776 -2.578,4.011 -3.047,4.194 -3.534,4.322 -4.033,4.394 -4.536,4.408 -5.038,4.365 -5.531,4.265 -6.01,4.11 -6.468,3.9 -6.899,3.64 -7.298,3.333 -7.659,2.982 -7.978,2.592 -8.25,2.169 -8.472,1.717 -8.641,1.242 -8.755,0.752 -8.813,0.252 v -0.504 l 0.058,-0.5 0.114,-0.49 0.169,-0.475 0.222,-0.452 0.272,-0.423 0.319,-0.39 0.361,-0.351 0.399,-0.307 0.431,-0.26 0.458,-0.21 0.479,-0.155 0.493,-0.1 0.502,-0.043 0.503,0.014 0.499,0.072 0.487,0.128 0.469,0.183 0.445,0.234 0.416,0.285 0.381,0.329 0.34,0.371 0.296,0.408 0.248,0.438 0.196,0.464 0.141,0.483 0.086,0.496 L 0,0 m -6.93,-6.3 5.04,12.6"
       style="fill:none;stroke:#000000;stroke-width:0.51;stroke-linecap:butt;stroke-linejoin:miter;stroke-miterlimit:10;stroke-dasharray:none;stroke-opacity:1"
       id="path819" /></g><g
     aria-label="80,0 "
     transform="scale(1.0001505,0.99984952)"
     id="text823"
     style="font-size:4.66735px;font-family:'Century Gothic';-inkscape-font-specification:CenturyGothic;stroke-width:0.352831"><path
       d="m 11.513576,76.177442 q 0.339568,0.168645 0.485423,0.385148 0.148133,0.216503 0.148133,0.492259 0,0.387427 -0.252966,0.683694 -0.309942,0.362358 -0.886523,0.362358 -0.556071,0 -0.843223,-0.316778 -0.2871511,-0.319057 -0.2871511,-0.701926 0,-0.280314 0.1504131,-0.503654 0.150412,-0.225619 0.501375,-0.401101 -0.24613,-0.127623 -0.369195,-0.316778 -0.123065,-0.189155 -0.123065,-0.405658 0,-0.218782 0.129902,-0.426169 0.132181,-0.209666 0.362358,-0.328173 0.232456,-0.120786 0.501375,-0.120786 0.262083,0 0.485423,0.120786 0.22334,0.120786 0.348684,0.328173 0.127623,0.207387 0.127623,0.435285 0,0.227898 -0.120786,0.405658 -0.118507,0.17776 -0.3578,0.307662 z m -0.499096,-1.27167 q -0.275757,0 -0.458075,0.164086 -0.18004,0.161808 -0.18004,0.387427 0,0.22334 0.193714,0.405658 0.195992,0.18004 0.455796,0.18004 0.166365,0 0.314499,-0.08204 0.148133,-0.08204 0.230177,-0.22334 0.08432,-0.143575 0.08432,-0.287151 0,-0.202829 -0.164087,-0.373753 Q 11.3267,74.905772 11.01448,74.905772 Z m 0.01595,1.440315 q -0.346404,0 -0.581139,0.225619 -0.234735,0.22334 -0.234735,0.521886 0,0.184597 0.100275,0.348684 0.100275,0.164086 0.280314,0.252967 0.18004,0.08888 0.417054,0.08888 0.366915,0 0.583418,-0.216503 0.216503,-0.216503 0.216503,-0.505934 0,-0.280314 -0.230176,-0.496817 -0.227898,-0.218782 -0.551514,-0.218782 z"
       id="path1139" /><path
       d="m 12.454655,76.341529 q 0,-0.663183 0.141297,-1.025541 0.143576,-0.362358 0.403379,-0.549234 0.259804,-0.186876 0.58114,-0.186876 0.325894,0 0.590256,0.189155 0.264361,0.186876 0.417053,0.562908 0.15497,0.376032 0.15497,1.009588 0,0.631277 -0.152691,1.00503 -0.150413,0.373752 -0.417053,0.565187 -0.266641,0.189155 -0.592535,0.189155 -0.321336,0 -0.578861,-0.184597 -0.257525,-0.184598 -0.403379,-0.549234 -0.143576,-0.366916 -0.143576,-1.025541 z m 0.316778,0.0068 q 0,0.567466 0.100275,0.859175 0.102554,0.28943 0.300826,0.439843 0.198271,0.150413 0.419332,0.150413 0.22334,0 0.417053,-0.145855 0.193713,-0.148134 0.293988,-0.442122 0.125344,-0.3578 0.125344,-0.861454 0,-0.505934 -0.11167,-0.82727 -0.11167,-0.323615 -0.309941,-0.471749 -0.195992,-0.150412 -0.414774,-0.150412 -0.22334,0 -0.419332,0.150412 -0.195993,0.148134 -0.298547,0.439844 -0.102554,0.28943 -0.102554,0.859175 z"
       id="path1141" /><path
       d="m 15.565307,77.401254 0.307662,0.145855 -0.462632,0.861454 -0.225619,-0.09572 z"
       id="path1143" /><path
       d="m 16.334386,76.341529 q 0,-0.663183 0.141297,-1.025541 0.143576,-0.362358 0.403379,-0.549234 0.259804,-0.186876 0.58114,-0.186876 0.325894,0 0.590256,0.189155 0.264361,0.186876 0.417053,0.562908 0.154971,0.376032 0.154971,1.009588 0,0.631277 -0.152692,1.00503 -0.150413,0.373752 -0.417053,0.565187 -0.266641,0.189155 -0.592535,0.189155 -0.321336,0 -0.578861,-0.184597 -0.257524,-0.184598 -0.403379,-0.549234 -0.143576,-0.366916 -0.143576,-1.025541 z m 0.316778,0.0068 q 0,0.567466 0.100275,0.859175 0.102555,0.28943 0.300826,0.439843 0.198271,0.150413 0.419332,0.150413 0.22334,0 0.417053,-0.145855 0.193713,-0.148134 0.293989,-0.442122 0.125343,-0.3578 0.125343,-0.861454 0,-0.505934 -0.11167,-0.82727 -0.11167,-0.323615 -0.309941,-0.471749 -0.195992,-0.150412 -0.414774,-0.150412 -0.22334,0 -0.419332,0.150412 -0.195992,0.148134 -0.298547,0.439844 -0.102554,0.28943 -0.102554,0.859175 z"
       id="path1145" /></g><g
     id="g825"
     transform="matrix(0.35277777,0,0,-0.35277775,46.768102,27.716337)"><path
       d="M 0,0 -5.175,8.062 -8.062,5.175 0,0 m 112.397,38.015 -8.061,-5.176 2.886,-2.886 5.175,8.062 m -160.351,-160.352 8.061,5.175 -2.886,2.887 -5.175,-8.062"
       style="fill:none;stroke:#000000;stroke-width:0.51;stroke-linecap:butt;stroke-linejoin:miter;stroke-miterlimit:10;stroke-dasharray:none;stroke-opacity:1"
       id="path827" /></g><g
     id="g829"
     transform="matrix(0.35277777,0,0,-0.35277775,48.818722,50.412787)"><path
       d="M 0,0 V 1.134"
       style="fill:none;stroke:#000000;stroke-width:0.51;stroke-linecap:round;stroke-linejoin:round;stroke-miterlimit:10;stroke-dasharray:43.2, 3.6, 3.6, 3.6;stroke-dashoffset:0;stroke-opacity:1"
       id="path831" /></g><g
     id="g833"
     transform="matrix(0.35277777,0,0,-0.35277775,43.818742,55.412777)"><path
       d="M 0,0 H -1.134"
       style="fill:none;stroke:#000000;stroke-width:0.51;stroke-linecap:round;stroke-linejoin:round;stroke-miterlimit:10;stroke-dasharray:43.2, 3.6, 3.6, 3.6;stroke-dashoffset:0;stroke-opacity:1"
       id="path835" /></g><g
     id="g837"
     transform="matrix(0.35277777,0,0,-0.35277775,48.818722,60.412804)"><path
       d="M 0,0 V -1.134"
       style="fill:none;stroke:#000000;stroke-width:0.51;stroke-linecap:round;stroke-linejoin:round;stroke-miterlimit:10;stroke-dasharray:43.2, 3.6, 3.6, 3.6;stroke-dashoffset:0;stroke-opacity:1"
       id="path839" /></g><g
     id="g841"
     transform="matrix(0.35277777,0,0,-0.35277775,53.818712,55.412777)"><path
       d="M 0,0 H 1.134"
       style="fill:none;stroke:#000000;stroke-width:0.51;stroke-linecap:round;stroke-linejoin:round;stroke-miterlimit:10;stroke-dasharray:43.2, 3.6, 3.6, 3.6;stroke-dashoffset:0;stroke-opacity:1"
       id="path843" /></g><g
     id="g845"
     transform="matrix(0.35277777,0,0,-0.35277775,43.060862,42.487776)"><path
       d="M 0,0 V 1.134"
       style="fill:none;stroke:#000000;stroke-width:0.51;stroke-linecap:round;stroke-linejoin:round;stroke-miterlimit:10;stroke-dasharray:43.2, 3.6, 3.6, 3.6;stroke-dashoffset:0;stroke-opacity:1"
       id="path847" /></g><g
     id="g849"
     transform="matrix(0.35277777,0,0,-0.35277775,38.060872,47.487801)"><path
       d="M 0,0 H -1.134"
       style="fill:none;stroke:#000000;stroke-width:0.51;stroke-linecap:round;stroke-linejoin:round;stroke-miterlimit:10;stroke-dasharray:43.2, 3.6, 3.6, 3.6;stroke-dashoffset:0;stroke-opacity:1"
       id="path851" /></g><g
     id="g853"
     transform="matrix(0.35277777,0,0,-0.35277775,43.060862,52.487791)"><path
       d="M 0,0 V -1.134"
       style="fill:none;stroke:#000000;stroke-width:0.51;stroke-linecap:round;stroke-linejoin:round;stroke-miterlimit:10;stroke-dasharray:43.2, 3.6, 3.6, 3.6;stroke-dashoffset:0;stroke-opacity:1"
       id="path855" /></g><g
     id="g857"
     transform="matrix(0.35277777,0,0,-0.35277775,48.060892,47.487801)"><path
       d="M 0,0 H 1.134"
       style="fill:none;stroke:#000000;stroke-width:0.51;stroke-linecap:round;stroke-linejoin:round;stroke-miterlimit:10;stroke-dasharray:43.2, 3.6, 3.6, 3.6;stroke-dashoffset:0;stroke-opacity:1"
       id="path859" /></g><g
     id="g861"
     transform="matrix(0.35277777,0,0,-0.35277775,43.060862,32.691949)"><path
       d="M 0,0 V 1.134"
       style="fill:none;stroke:#000000;stroke-width:0.51;stroke-linecap:round;stroke-linejoin:round;stroke-miterlimit:10;stroke-dasharray:43.2, 3.6, 3.6, 3.6;stroke-dashoffset:0;stroke-opacity:1"
       id="path863" /></g><g
     id="g865"
     transform="matrix(0.35277777,0,0,-0.35277775,38.060872,37.691974)"><path
       d="M 0,0 H -1.134"
       style="fill:none;stroke:#000000;stroke-width:0.51;stroke-linecap:round;stroke-linejoin:round;stroke-miterlimit:10;stroke-dasharray:43.2, 3.6, 3.6, 3.6;stroke-dashoffset:0;stroke-opacity:1"
       id="path867" /></g><g
     id="g869"
     transform="matrix(0.35277777,0,0,-0.35277775,43.060862,42.691964)"><path
       d="M 0,0 V -1.134"
       style="fill:none;stroke:#000000;stroke-width:0.51;stroke-linecap:round;stroke-linejoin:round;stroke-miterlimit:10;stroke-dasharray:43.2, 3.6, 3.6, 3.6;stroke-dashoffset:0;stroke-opacity:1"
       id="path871" /></g><g
     id="g873"
     transform="matrix(0.35277777,0,0,-0.35277775,48.060892,37.691974)"><path
       d="M 0,0 H 1.134"
       style="fill:none;stroke:#000000;stroke-width:0.51;stroke-linecap:round;stroke-linejoin:round;stroke-miterlimit:10;stroke-dasharray:43.2, 3.6, 3.6, 3.6;stroke-dashoffset:0;stroke-opacity:1"
       id="path875" /></g><g
     id="g877"
     transform="matrix(0.35277777,0,0,-0.35277775,48.818722,24.766938)"><path
       d="M 0,0 V 1.134"
       style="fill:none;stroke:#000000;stroke-width:0.51;stroke-linecap:round;stroke-linejoin:round;stroke-miterlimit:10;stroke-dasharray:43.2, 3.6, 3.6, 3.6;stroke-dashoffset:0;stroke-opacity:1"
       id="path879" /></g><g
     id="g881"
     transform="matrix(0.35277777,0,0,-0.35277775,43.818742,29.766963)"><path
       d="M 0,0 H -1.134"
       style="fill:none;stroke:#000000;stroke-width:0.51;stroke-linecap:round;stroke-linejoin:round;stroke-miterlimit:10;stroke-dasharray:43.2, 3.6, 3.6, 3.6;stroke-dashoffset:0;stroke-opacity:1"
       id="path883" /></g><g
     id="g885"
     transform="matrix(0.35277777,0,0,-0.35277775,48.818722,34.766953)"><path
       d="M 0,0 V -1.134"
       style="fill:none;stroke:#000000;stroke-width:0.51;stroke-linecap:round;stroke-linejoin:round;stroke-miterlimit:10;stroke-dasharray:43.2, 3.6, 3.6, 3.6;stroke-dashoffset:0;stroke-opacity:1"
       id="path887" /></g><g
     id="g889"
     transform="matrix(0.35277777,0,0,-0.35277775,53.818712,29.766963)"><path
       d="M 0,0 H 1.134"
       style="fill:none;stroke:#000000;stroke-width:0.51;stroke-linecap:round;stroke-linejoin:round;stroke-miterlimit:10;stroke-dasharray:43.2, 3.6, 3.6, 3.6;stroke-dashoffset:0;stroke-opacity:1"
       id="path891" /></g><g
     id="g893"
     transform="matrix(0.35277777,0,0,-0.35277775,58.135132,21.739893)"><path
       d="M 0,0 V 1.134"
       style="fill:none;stroke:#000000;stroke-width:0.51;stroke-linecap:round;stroke-linejoin:round;stroke-miterlimit:10;stroke-dasharray:43.2, 3.6, 3.6, 3.6;stroke-dashoffset:0;stroke-opacity:1"
       id="path895" /></g><g
     id="g897"
     transform="matrix(0.35277777,0,0,-0.35277775,53.135102,26.739883)"><path
       d="M 0,0 H -1.134"
       style="fill:none;stroke:#000000;stroke-width:0.51;stroke-linecap:round;stroke-linejoin:round;stroke-miterlimit:10;stroke-dasharray:43.2, 3.6, 3.6, 3.6;stroke-dashoffset:0;stroke-opacity:1"
       id="path899" /></g><g
     id="g901"
     transform="matrix(0.35277777,0,0,-0.35277775,58.135132,31.739873)"><path
       d="M 0,0 V -1.134"
       style="fill:none;stroke:#000000;stroke-width:0.51;stroke-linecap:round;stroke-linejoin:round;stroke-miterlimit:10;stroke-dasharray:43.2, 3.6, 3.6, 3.6;stroke-dashoffset:0;stroke-opacity:1"
       id="path903" /></g><g
     id="g905"
     transform="matrix(0.35277777,0,0,-0.35277775,63.135122,26.739883)"><path
       d="M 0,0 H 1.134"
       style="fill:none;stroke:#000000;stroke-width:0.51;stroke-linecap:round;stroke-linejoin:round;stroke-miterlimit:10;stroke-dasharray:43.2, 3.6, 3.6, 3.6;stroke-dashoffset:0;stroke-opacity:1"
       id="path907" /></g><g
     id="g909"
     transform="matrix(0.35277777,0,0,-0.35277775,67.451492,24.766938)"><path
       d="M 0,0 V 1.134"
       style="fill:none;stroke:#000000;stroke-width:0.51;stroke-linecap:round;stroke-linejoin:round;stroke-miterlimit:10;stroke-dasharray:43.2, 3.6, 3.6, 3.6;stroke-dashoffset:0;stroke-opacity:1"
       id="path911" /></g><g
     id="g913"
     transform="matrix(0.35277777,0,0,-0.35277775,62.451502,29.766963)"><path
       d="M 0,0 H -1.134"
       style="fill:none;stroke:#000000;stroke-width:0.51;stroke-linecap:round;stroke-linejoin:round;stroke-miterlimit:10;stroke-dasharray:43.2, 3.6, 3.6, 3.6;stroke-dashoffset:0;stroke-opacity:1"
       id="path915" /></g><g
     id="g917"
     transform="matrix(0.35277777,0,0,-0.35277775,67.451492,34.766953)"><path
       d="M 0,0 V -1.134"
       style="fill:none;stroke:#000000;stroke-width:0.51;stroke-linecap:round;stroke-linejoin:round;stroke-miterlimit:10;stroke-dasharray:43.2, 3.6, 3.6, 3.6;stroke-dashoffset:0;stroke-opacity:1"
       id="path919" /></g><g
     id="g921"
     transform="matrix(0.35277777,0,0,-0.35277775,72.451522,29.766963)"><path
       d="M 0,0 H 1.134"
       style="fill:none;stroke:#000000;stroke-width:0.51;stroke-linecap:round;stroke-linejoin:round;stroke-miterlimit:10;stroke-dasharray:43.2, 3.6, 3.6, 3.6;stroke-dashoffset:0;stroke-opacity:1"
       id="path923" /></g><g
     id="g925"
     transform="matrix(0.35277777,0,0,-0.35277775,73.209362,32.691949)"><path
       d="M 0,0 V 1.134"
       style="fill:none;stroke:#000000;stroke-width:0.51;stroke-linecap:round;stroke-linejoin:round;stroke-miterlimit:10;stroke-dasharray:43.2, 3.6, 3.6, 3.6;stroke-dashoffset:0;stroke-opacity:1"
       id="path927" /></g><g
     id="g929"
     transform="matrix(0.35277777,0,0,-0.35277775,68.209372,37.691974)"><path
       d="M 0,0 H -1.134"
       style="fill:none;stroke:#000000;stroke-width:0.51;stroke-linecap:round;stroke-linejoin:round;stroke-miterlimit:10;stroke-dasharray:43.2, 3.6, 3.6, 3.6;stroke-dashoffset:0;stroke-opacity:1"
       id="path931" /></g><g
     id="g933"
     transform="matrix(0.35277777,0,0,-0.35277775,73.209362,42.691964)"><path
       d="M 0,0 V -1.134"
       style="fill:none;stroke:#000000;stroke-width:0.51;stroke-linecap:round;stroke-linejoin:round;stroke-miterlimit:10;stroke-dasharray:43.2, 3.6, 3.6, 3.6;stroke-dashoffset:0;stroke-opacity:1"
       id="path935" /></g><g
     id="g937"
     transform="matrix(0.35277777,0,0,-0.35277775,78.209382,37.691974)"><path
       d="M 0,0 H 1.134"
       style="fill:none;stroke:#000000;stroke-width:0.51;stroke-linecap:round;stroke-linejoin:round;stroke-miterlimit:10;stroke-dasharray:43.2, 3.6, 3.6, 3.6;stroke-dashoffset:0;stroke-opacity:1"
       id="path939" /></g><g
     id="g941"
     transform="matrix(0.35277777,0,0,-0.35277775,73.209362,42.487776)"><path
       d="M 0,0 V 1.134"
       style="fill:none;stroke:#000000;stroke-width:0.51;stroke-linecap:round;stroke-linejoin:round;stroke-miterlimit:10;stroke-dasharray:43.2, 3.6, 3.6, 3.6;stroke-dashoffset:0;stroke-opacity:1"
       id="path943" /></g><g
     id="g945"
     transform="matrix(0.35277777,0,0,-0.35277775,68.209372,47.487801)"><path
       d="M 0,0 H -1.134"
       style="fill:none;stroke:#000000;stroke-width:0.51;stroke-linecap:round;stroke-linejoin:round;stroke-miterlimit:10;stroke-dasharray:43.2, 3.6, 3.6, 3.6;stroke-dashoffset:0;stroke-opacity:1"
       id="path947" /></g><g
     id="g949"
     transform="matrix(0.35277777,0,0,-0.35277775,73.209362,52.487791)"><path
       d="M 0,0 V -1.134"
       style="fill:none;stroke:#000000;stroke-width:0.51;stroke-linecap:round;stroke-linejoin:round;stroke-miterlimit:10;stroke-dasharray:43.2, 3.6, 3.6, 3.6;stroke-dashoffset:0;stroke-opacity:1"
       id="path951" /></g><g
     id="g953"
     transform="matrix(0.35277777,0,0,-0.35277775,78.209382,47.487801)"><path
       d="M 0,0 H 1.134"
       style="fill:none;stroke:#000000;stroke-width:0.51;stroke-linecap:round;stroke-linejoin:round;stroke-miterlimit:10;stroke-dasharray:43.2, 3.6, 3.6, 3.6;stroke-dashoffset:0;stroke-opacity:1"
       id="path955" /></g><g
     id="g957"
     transform="matrix(0.35277777,0,0,-0.35277775,67.451492,50.412787)"><path
       d="M 0,0 V 1.134"
       style="fill:none;stroke:#000000;stroke-width:0.51;stroke-linecap:round;stroke-linejoin:round;stroke-miterlimit:10;stroke-dasharray:43.2, 3.6, 3.6, 3.6;stroke-dashoffset:0;stroke-opacity:1"
       id="path959" /></g><g
     id="g961"
     transform="matrix(0.35277777,0,0,-0.35277775,62.451502,55.412777)"><path
       d="M 0,0 H -1.134"
       style="fill:none;stroke:#000000;stroke-width:0.51;stroke-linecap:round;stroke-linejoin:round;stroke-miterlimit:10;stroke-dasharray:43.2, 3.6, 3.6, 3.6;stroke-dashoffset:0;stroke-opacity:1"
       id="path963" /></g><g
     id="g965"
     transform="matrix(0.35277777,0,0,-0.35277775,67.451492,60.412804)"><path
       d="M 0,0 V -1.134"
       style="fill:none;stroke:#000000;stroke-width:0.51;stroke-linecap:round;stroke-linejoin:round;stroke-miterlimit:10;stroke-dasharray:43.2, 3.6, 3.6, 3.6;stroke-dashoffset:0;stroke-opacity:1"
       id="path967" /></g><g
     id="g969"
     transform="matrix(0.35277777,0,0,-0.35277775,72.451522,55.412777)"><path
       d="M 0,0 H 1.134"
       style="fill:none;stroke:#000000;stroke-width:0.51;stroke-linecap:round;stroke-linejoin:round;stroke-miterlimit:10;stroke-dasharray:43.2, 3.6, 3.6, 3.6;stroke-dashoffset:0;stroke-opacity:1"
       id="path971" /></g><g
     id="g973"
     transform="matrix(0.35277777,0,0,-0.35277775,58.135132,53.439867)"><path
       d="M 0,0 V 1.134"
       style="fill:none;stroke:#000000;stroke-width:0.51;stroke-linecap:round;stroke-linejoin:round;stroke-miterlimit:10;stroke-dasharray:43.2, 3.6, 3.6, 3.6;stroke-dashoffset:0;stroke-opacity:1"
       id="path975" /></g><g
     id="g977"
     transform="matrix(0.35277777,0,0,-0.35277775,53.135102,58.439894)"><path
       d="M 0,0 H -1.134"
       style="fill:none;stroke:#000000;stroke-width:0.51;stroke-linecap:round;stroke-linejoin:round;stroke-miterlimit:10;stroke-dasharray:43.2, 3.6, 3.6, 3.6;stroke-dashoffset:0;stroke-opacity:1"
       id="path979" /></g><g
     id="g981"
     transform="matrix(0.35277777,0,0,-0.35277775,58.135132,63.439884)"><path
       d="M 0,0 V -1.134"
       style="fill:none;stroke:#000000;stroke-width:0.51;stroke-linecap:round;stroke-linejoin:round;stroke-miterlimit:10;stroke-dasharray:43.2, 3.6, 3.6, 3.6;stroke-dashoffset:0;stroke-opacity:1"
       id="path983" /></g><g
     id="g985"
     transform="matrix(0.35277777,0,0,-0.35277775,63.135122,58.439894)"><path
       d="M 0,0 H 1.134"
       style="fill:none;stroke:#000000;stroke-width:0.51;stroke-linecap:round;stroke-linejoin:round;stroke-miterlimit:10;stroke-dasharray:43.2, 3.6, 3.6, 3.6;stroke-dashoffset:0;stroke-opacity:1"
       id="path987" /></g><g
     id="g989"
     transform="matrix(0.35277777,0,0,-0.35277775,58.135132,37.58988)"><path
       d="M 0,0 V 106.299"
       style="fill:none;stroke:#000000;stroke-width:0.51;stroke-linecap:round;stroke-linejoin:round;stroke-miterlimit:10;stroke-dasharray:43.2, 3.6, 3.6, 3.6;stroke-dashoffset:-4.55;stroke-opacity:1"
       id="path991" /></g><g
     id="g993"
     transform="matrix(0.35277777,0,0,-0.35277775,53.135102,42.58987)"><path
       d="M 0,0 H -106.299"
       style="fill:none;stroke:#000000;stroke-width:0.51;stroke-linecap:round;stroke-linejoin:round;stroke-miterlimit:10;stroke-dasharray:43.2, 3.6, 3.6, 3.6;stroke-dashoffset:-4.55;stroke-opacity:1"
       id="path995" /></g><g
     id="g997"
     transform="matrix(0.35277777,0,0,-0.35277775,58.135132,47.58986)"><path
       d="M 0,0 V -106.299"
       style="fill:none;stroke:#000000;stroke-width:0.51;stroke-linecap:round;stroke-linejoin:round;stroke-miterlimit:10;stroke-dasharray:43.2, 3.6, 3.6, 3.6;stroke-dashoffset:-4.55;stroke-opacity:1"
       id="path999" /></g><g
     id="g1001"
     transform="matrix(0.35277777,0,0,-0.35277775,63.135122,42.58987)"><path
       d="M 0,0 H 106.299"
       style="fill:none;stroke:#000000;stroke-width:0.51;stroke-linecap:round;stroke-linejoin:round;stroke-miterlimit:10;stroke-dasharray:43.2, 3.6, 3.6, 3.6;stroke-dashoffset:-4.55;stroke-opacity:1"
       id="path1003" /></g><g
     id="g1005"
     transform="matrix(0.35277777,0,0,-0.35277775,48.818722,55.412777)"><path
       d="M 0,0 V 7.087 M 0,0 H -7.087 M 0,0 V -7.087 M 0,0 h 7.087 m -23.408,22.465 v 7.086 m 0,-7.086 h -7.087 m 7.087,0 v -7.087 m 0,7.087 h 7.086 m -7.086,27.767 v 7.087 m 0,-7.087 h -7.087 m 7.087,0 v -7.086 m 0,7.086 h 7.086 M 0,72.697 v 7.086 m 0,-7.086 h -7.087 m 7.087,0 V 65.61 m 0,7.087 h 7.087 m 19.322,8.581 v 7.086 m 0,-7.086 h -7.087 m 7.087,0 v -7.087 m 0,7.087 h 7.086 m 19.322,-8.581 v 7.086 m 0,-7.086 h -7.086 m 7.086,0 V 65.61 m 0,7.087 h 7.087 m 9.235,-22.465 v 7.087 m 0,-7.087 h -7.087 m 7.087,0 v -7.086 m 0,7.086 h 7.086 M 69.139,22.465 v 7.086 m 0,-7.086 h -7.087 m 7.087,0 v -7.087 m 0,7.087 h 7.086 M 52.817,0 v 7.087 m 0,-7.087 h -7.086 m 7.086,0 v -7.087 m 0,7.087 h 7.087 M 26.409,-8.581 v 7.087 m 0,-7.087 h -7.087 m 7.087,0 v -7.086 m 0,7.086 h 7.086 m -7.086,44.929 v 7.087 m 0,-7.087 h -7.087 m 7.087,0 v -7.086 m 0,7.086 h 7.086"
       style="fill:none;stroke:#000000;stroke-width:0.51;stroke-linecap:round;stroke-linejoin:round;stroke-miterlimit:10;stroke-dasharray:none;stroke-opacity:1"
       id="path1007" /></g><g
     id="g1009"
     transform="matrix(0.35277777,0,0,-0.35277775,46.768102,27.716337)"><path
       d="M 0,0 -62.517,62.517 M 11.625,-11.625 0,0 m -62.517,62.517 h -69.799 m 84.362,-184.854 -23.237,-23.237 M 112.397,38.015 -47.954,-122.337 m -23.237,-23.237 h -52.451"
       style="fill:none;stroke:#000000;stroke-width:0.51;stroke-linecap:round;stroke-linejoin:round;stroke-miterlimit:10;stroke-dasharray:none;stroke-opacity:1"
       id="path1011" /></g><g
     id="g1013"
     transform="matrix(0.35277777,0,0,-0.35277775,46.768102,27.716337)"><path
       d="M 0,0 -5.175,8.062 -8.062,5.175 m 120.459,32.84 -8.061,-5.176 2.886,-2.886 m -155.176,-152.29 8.061,5.175 -2.886,2.887"
       style="fill:#000000;fill-opacity:1;fill-rule:nonzero;stroke:none"
       id="path1015" /></g><g
     id="g1017"
     transform="matrix(0.35277777,0,0,-0.35277775,93.443312,42.58987)"><path
       d="m 0,0 -0.122,4.95 -0.368,4.937 -0.61,4.914 -0.853,4.877 -1.094,4.829 -1.33,4.769 -1.565,4.697 -1.795,4.614 -2.022,4.52 -2.242,4.414 -2.458,4.298 -2.667,4.171 -2.871,4.035 -3.066,3.887 -3.255,3.731 -3.436,3.565 -3.607,3.391 -3.771,3.209 -3.925,3.018 -4.069,2.82 -4.204,2.616 -4.328,2.404 -4.442,2.188 -4.544,1.965 -4.636,1.738 -4.717,1.507 -4.785,1.271 -4.842,1.034 -4.887,0.792 -4.921,0.55 -4.941,0.306 -4.951,0.062 -4.948,-0.184 -4.932,-0.428 -4.906,-0.672 -4.866,-0.913 -4.815,-1.153 -4.752,-1.389 -4.678,-1.623 -4.592,-1.853 -4.494,-2.077 -4.386,-2.296 -4.268,-2.511 -4.137,-2.719 -3.999,-2.92 -3.849,-3.114 -3.69,-3.301 -3.523,-3.479 -3.346,-3.65 -3.162,-3.81 -2.969,-3.962 -2.77,-4.104 -2.563,-4.236 -2.351,-4.357 -2.132,-4.469 -1.909,-4.568 -1.681,-4.657 -1.448,-4.735 -1.212,-4.8 -0.974,-4.855 -0.732,-4.896 -0.489,-4.927 -0.245,-4.945 v -4.952 l 0.245,-4.945 0.489,-4.927 0.732,-4.896 0.974,-4.855 1.212,-4.8 1.448,-4.735 1.681,-4.657 1.909,-4.568 2.132,-4.469 2.351,-4.357 2.563,-4.236 2.77,-4.104 2.969,-3.962 3.162,-3.81 3.346,-3.65 3.523,-3.479 3.69,-3.301 3.849,-3.114 3.999,-2.92 4.137,-2.719 4.268,-2.511 4.386,-2.296 4.494,-2.077 4.592,-1.853 4.678,-1.623 4.752,-1.389 4.815,-1.153 4.866,-0.913 4.906,-0.672 4.932,-0.428 4.948,-0.184 4.951,0.062 4.941,0.306 4.921,0.55 4.887,0.792 4.842,1.034 4.785,1.271 4.717,1.507 4.636,1.738 4.544,1.965 4.442,2.188 4.328,2.404 4.204,2.616 4.069,2.82 3.925,3.018 3.771,3.209 3.607,3.391 3.436,3.565 3.255,3.731 3.066,3.887 2.871,4.035 2.667,4.171 2.458,4.298 2.242,4.414 2.022,4.52 1.795,4.614 1.565,4.697 1.33,4.769 1.094,4.829 0.853,4.878 0.61,4.913 0.368,4.937 L 0,0 m -0.559,0 -0.124,4.961 -0.371,4.949 -0.617,4.924 -0.861,4.887 -1.105,4.838 -1.344,4.777 -1.58,4.704 -1.813,4.62 -2.041,4.523 -2.264,4.416 -2.482,4.298 -2.692,4.169 -2.897,4.029 -3.094,3.88 -3.284,3.721 -3.465,3.552 -3.637,3.376 -3.802,3.19 -3.956,2.996 -4.1,2.795 -4.235,2.588 -4.358,2.374 -4.471,2.153 -4.573,1.927 -4.663,1.698 -4.742,1.462 -4.809,1.225 -4.865,0.983 -4.907,0.74 -4.938,0.494 -4.956,0.247 h -4.963 l -4.956,-0.247 -4.938,-0.494 -4.907,-0.74 -4.864,-0.983 -4.809,-1.225 -4.742,-1.462 -4.664,-1.698 -4.573,-1.927 -4.471,-2.153 -4.358,-2.374 -4.234,-2.588 -4.101,-2.795 -3.956,-2.996 -3.801,-3.19 -3.638,-3.376 -3.465,-3.552 -3.284,-3.721 -3.094,-3.88 -2.897,-4.029 -2.692,-4.169 -2.481,-4.298 -2.264,-4.416 -2.041,-4.523 -1.813,-4.62 -1.581,-4.704 -1.344,-4.777 -1.104,-4.838 -0.862,-4.887 -0.617,-4.924 -0.371,-4.949 -0.124,-4.961 0.124,-4.961 0.371,-4.949 0.617,-4.924 0.862,-4.887 1.104,-4.838 1.344,-4.777 1.581,-4.704 1.813,-4.62 2.041,-4.523 2.264,-4.416 2.481,-4.298 2.692,-4.169 2.897,-4.029 3.094,-3.88 3.284,-3.721 3.465,-3.552 3.638,-3.376 3.801,-3.19 3.956,-2.996 4.101,-2.795 4.234,-2.588 4.358,-2.373 4.471,-2.154 4.573,-1.927 4.664,-1.698 4.742,-1.462 4.809,-1.225 4.864,-0.983 4.907,-0.74 4.938,-0.494 4.956,-0.247 h 4.963 l 4.956,0.247 4.938,0.494 4.907,0.74 4.865,0.983 4.809,1.225 4.742,1.462 4.663,1.698 4.573,1.927 4.471,2.154 4.358,2.373 4.235,2.588 4.1,2.795 3.956,2.996 3.802,3.19 3.637,3.376 3.465,3.552 3.284,3.721 3.094,3.88 2.897,4.029 2.692,4.169 2.482,4.298 2.264,4.416 2.041,4.523 1.813,4.62 1.58,4.704 1.344,4.777 1.105,4.838 0.861,4.887 0.617,4.924 0.371,4.949 L -0.559,0 m 13.859,0 -0.123,5.275 -0.368,5.264 -0.613,5.241 -0.856,5.207 -1.097,5.162 -1.336,5.104 -1.572,5.037 -1.805,4.959 -2.033,4.869 -2.258,4.769 -2.477,4.66 -2.692,4.538 -2.899,4.409 -3.102,4.269 -3.297,4.12 -3.485,3.962 -3.665,3.796 -3.838,3.621 -4.003,3.439 -4.158,3.248 -4.305,3.052 -4.442,2.848 -4.57,2.639 -4.687,2.422 -4.795,2.203 -4.893,1.976 -4.979,1.747 -5.055,1.514 -5.12,1.276 -5.174,1.037 -5.217,0.795 -5.247,0.552 -5.268,0.307 -5.277,0.061 -5.273,-0.184 -5.259,-0.429 -5.234,-0.674 -5.196,-0.916 -5.149,-1.157 -5.089,-1.396 -5.018,-1.63 -4.937,-1.862 -4.846,-2.09 -4.742,-2.314 -4.63,-2.531 -4.507,-2.744 -4.375,-2.951 -4.233,-3.151 -4.081,-3.344 -3.921,-3.531 -3.753,-3.71 -3.576,-3.88 -3.392,-4.042 -3.2,-4.195 -3.002,-4.34 -2.796,-4.475 -2.585,-4.601 -2.368,-4.715 -2.146,-4.821 -1.92,-4.915 -1.689,-4.999 -1.454,-5.072 -1.217,-5.135 -0.977,-5.185 -0.734,-5.226 -0.491,-5.254 -0.245,-5.271 v -5.276 l 0.245,-5.271 0.491,-5.254 0.734,-5.226 0.977,-5.185 1.217,-5.135 1.454,-5.072 1.689,-4.999 1.92,-4.915 2.146,-4.821 2.368,-4.715 2.585,-4.601 2.796,-4.475 3.002,-4.34 3.2,-4.195 3.392,-4.042 3.576,-3.88 3.753,-3.71 3.921,-3.531 4.081,-3.344 4.233,-3.151 4.375,-2.951 4.507,-2.744 4.63,-2.531 4.742,-2.313 4.846,-2.091 4.937,-1.862 5.018,-1.63 5.089,-1.396 5.149,-1.157 5.196,-0.916 5.234,-0.674 5.259,-0.429 5.273,-0.184 5.277,0.061 5.268,0.307 5.247,0.552 5.217,0.795 5.174,1.037 5.12,1.276 5.055,1.514 4.979,1.747 4.893,1.976 4.795,2.203 4.687,2.422 4.57,2.639 4.442,2.848 4.305,3.052 4.158,3.248 4.003,3.439 3.838,3.621 3.665,3.796 3.485,3.962 3.297,4.12 3.102,4.269 2.899,4.409 2.692,4.538 2.477,4.66 2.258,4.769 2.033,4.869 1.805,4.959 1.572,5.037 1.336,5.104 1.097,5.162 0.856,5.207 0.613,5.241 0.368,5.264 L 13.3,0 m -16.28,0 -0.123,4.879 -0.367,4.867 -0.612,4.842 -0.854,4.805 -1.095,4.756 -1.332,4.696 -1.566,4.622 -1.797,4.538 -2.022,4.442 -2.243,4.334 -2.458,4.217 -2.667,4.087 -2.869,3.949 -3.063,3.799 -3.251,3.641 -3.429,3.473 -3.6,3.296 -3.76,3.111 -3.912,2.918 -4.054,2.718 -4.185,2.51 -4.306,2.298 -4.417,2.078 -4.514,1.853 -4.603,1.625 -4.678,1.391 -4.742,1.154 -4.794,0.914 -4.834,0.673 -4.862,0.429 -4.877,0.184 -4.88,-0.062 -4.871,-0.306 -4.85,-0.551 -4.815,-0.794 -4.77,-1.034 -4.711,-1.273 -4.642,-1.509 -4.56,-1.739 -4.467,-1.967 -4.363,-2.188 -4.247,-2.405 -4.12,-2.615 -3.985,-2.819 -3.837,-3.015 -3.681,-3.205 -3.516,-3.385 -3.341,-3.558 -3.158,-3.721 -2.967,-3.875 -2.769,-4.02 -2.563,-4.153 -2.351,-4.277 -2.133,-4.39 -1.91,-4.491 -1.683,-4.581 -1.449,-4.661 -1.214,-4.727 -0.975,-4.782 -0.733,-4.825 -0.49,-4.856 -0.245,-4.875 v -4.88 l 0.245,-4.875 0.49,-4.856 0.733,-4.825 0.975,-4.782 1.214,-4.727 1.449,-4.661 1.683,-4.581 1.91,-4.491 2.133,-4.39 2.351,-4.277 2.563,-4.153 2.769,-4.02 2.967,-3.875 3.158,-3.721 3.341,-3.558 3.516,-3.385 3.681,-3.205 3.837,-3.015 3.985,-2.819 4.12,-2.615 4.247,-2.405 4.363,-2.188 4.467,-1.967 4.56,-1.739 4.642,-1.509 4.711,-1.273 4.77,-1.034 4.815,-0.794 4.85,-0.551 4.871,-0.306 4.88,-0.062 4.877,0.184 4.862,0.429 4.834,0.673 4.794,0.914 4.742,1.154 4.678,1.391 4.603,1.625 4.514,1.853 4.417,2.078 4.306,2.298 4.185,2.51 4.054,2.718 3.912,2.918 3.76,3.111 3.6,3.296 3.429,3.473 3.251,3.641 3.063,3.799 2.869,3.949 2.667,4.087 2.458,4.217 2.243,4.334 2.022,4.442 1.797,4.538 1.566,4.622 1.332,4.696 1.095,4.756 0.854,4.805 0.612,4.842 0.367,4.867 L -2.98,0 m -9.715,0 -0.123,4.651 -0.372,4.638 -0.617,4.612 -0.862,4.572 -1.105,4.52 -1.343,4.455 -1.578,4.377 -1.809,4.286 -2.035,4.185 -2.255,4.07 -2.468,3.944 -2.674,3.808 -2.873,3.659 -3.064,3.502 -3.246,3.333 -3.419,3.156 -3.582,2.97 -3.735,2.775 -3.877,2.572 -4.009,2.362 -4.128,2.145 -4.237,1.923 -4.334,1.694 -4.417,1.462 -4.489,1.224 -4.548,0.983 -4.593,0.74 -4.627,0.495 -4.646,0.248 h -4.653 l -4.646,-0.248 -4.626,-0.495 -4.594,-0.74 -4.548,-0.983 -4.489,-1.224 -4.417,-1.462 -4.333,-1.694 -4.237,-1.923 -4.129,-2.145 -4.009,-2.362 -3.877,-2.572 -3.735,-2.775 -3.582,-2.97 -3.418,-3.156 -3.246,-3.333 -3.064,-3.502 -2.874,-3.659 -2.674,-3.808 -2.468,-3.944 -2.254,-4.07 -2.035,-4.185 -1.809,-4.286 -1.579,-4.377 -1.343,-4.455 -1.104,-4.52 -0.862,-4.572 -0.618,-4.612 -0.371,-4.638 -0.124,-4.651 0.124,-4.651 0.371,-4.638 0.618,-4.612 0.862,-4.572 1.104,-4.52 1.343,-4.455 1.579,-4.377 1.809,-4.286 2.035,-4.185 2.254,-4.07 2.468,-3.944 2.674,-3.808 2.874,-3.659 3.064,-3.502 3.246,-3.333 3.418,-3.156 3.582,-2.97 3.735,-2.775 3.877,-2.572 4.009,-2.362 4.129,-2.145 4.237,-1.923 4.333,-1.694 4.417,-1.462 4.489,-1.224 4.548,-0.983 4.594,-0.74 4.626,-0.495 4.646,-0.248 h 4.653 l 4.646,0.248 4.627,0.495 4.593,0.74 4.548,0.983 4.489,1.224 4.417,1.462 4.334,1.694 4.237,1.923 4.128,2.145 4.009,2.362 3.877,2.572 3.735,2.775 3.582,2.97 3.419,3.156 3.246,3.333 3.064,3.502 2.873,3.659 2.674,3.808 2.468,3.944 2.255,4.07 2.035,4.185 1.809,4.286 1.578,4.377 1.343,4.455 1.105,4.52 0.862,4.572 0.617,4.612 0.372,4.638 0.123,4.651 m -21.344,0 -0.123,4.027 -0.368,4.011 -0.612,3.982 -0.853,3.937 -1.093,3.877 -1.326,3.804 -1.556,3.716 -1.779,3.614 -1.996,3.499 -2.206,3.37 -2.408,3.23 -2.6,3.077 -2.782,2.913 -2.955,2.738 -3.117,2.553 -3.266,2.358 -3.404,2.154 -3.529,1.943 -3.641,1.724 -3.739,1.499 -3.823,1.268 -3.894,1.033 -3.949,0.793 -3.991,0.551 -4.017,0.307 -4.028,0.062 -4.024,-0.185 -4.005,-0.429 -3.972,-0.672 -3.923,-0.914 -3.861,-1.151 -3.783,-1.384 -3.692,-1.612 -3.586,-1.835 -3.468,-2.049 -3.337,-2.258 -3.193,-2.456 -3.037,-2.646 -2.87,-2.827 -2.692,-2.996 -2.505,-3.155 -2.308,-3.302 -2.102,-3.437 -1.889,-3.558 -1.668,-3.666 -1.442,-3.762 -1.21,-3.842 -0.973,-3.909 -0.733,-3.961 -0.49,-3.999 -0.246,-4.021 v -4.028 l 0.246,-4.021 0.49,-3.999 0.733,-3.961 0.973,-3.909 1.21,-3.842 1.442,-3.762 1.668,-3.666 1.889,-3.558 2.102,-3.437 2.308,-3.302 2.505,-3.155 2.692,-2.996 2.87,-2.827 3.037,-2.646 3.193,-2.456 3.337,-2.258 3.468,-2.049 3.586,-1.835 3.692,-1.612 3.783,-1.384 3.861,-1.151 3.923,-0.913 3.972,-0.673 4.005,-0.429 4.024,-0.185 4.028,0.062 4.017,0.307 3.991,0.551 3.949,0.793 3.894,1.033 3.823,1.268 3.739,1.499 3.641,1.724 3.529,1.943 3.404,2.154 3.266,2.358 3.117,2.553 2.955,2.738 2.782,2.913 2.6,3.077 2.408,3.23 2.206,3.37 1.996,3.499 1.779,3.614 1.556,3.716 1.326,3.804 1.093,3.877 0.853,3.937 0.612,3.982 0.368,4.012 0.123,4.026 m -3.685,0 -0.123,3.916 -0.369,3.9 -0.613,3.87 -0.854,3.823 -1.093,3.762 -1.327,3.686 -1.556,3.596 -1.779,3.49 -1.994,3.372 -2.202,3.241 -2.401,3.095 -2.591,2.939 -2.77,2.77 -2.939,2.591 -3.096,2.401 -3.24,2.202 -3.372,1.994 -3.491,1.779 -3.595,1.556 -3.686,1.327 -3.762,1.093 -3.824,0.855 -3.869,0.612 -3.901,0.369 -3.915,0.123 -3.916,-0.123 -3.9,-0.369 -3.87,-0.612 -3.823,-0.855 -3.762,-1.093 -3.686,-1.327 -3.596,-1.556 -3.491,-1.779 -3.372,-1.994 -3.24,-2.202 -3.095,-2.401 -2.939,-2.591 -2.77,-2.77 -2.591,-2.939 -2.401,-3.095 -2.202,-3.241 -1.995,-3.372 -1.778,-3.49 -1.556,-3.596 -1.327,-3.686 -1.093,-3.762 -0.855,-3.823 -0.613,-3.87 -0.368,-3.9 -0.123,-3.916 0.123,-3.916 0.368,-3.9 0.613,-3.87 0.855,-3.823 1.093,-3.762 1.327,-3.686 1.556,-3.596 1.778,-3.49 1.995,-3.372 2.202,-3.241 2.401,-3.095 2.591,-2.939 2.77,-2.77 2.939,-2.591 3.095,-2.401 3.24,-2.202 3.372,-1.994 3.491,-1.779 3.596,-1.556 3.686,-1.327 3.762,-1.093 3.823,-0.855 3.87,-0.612 3.9,-0.369 3.916,-0.123 3.915,0.123 3.901,0.369 3.869,0.612 3.824,0.855 3.762,1.093 3.686,1.327 3.595,1.556 3.491,1.779 3.372,1.994 3.24,2.202 3.096,2.401 2.939,2.591 2.77,2.77 2.591,2.939 2.401,3.095 2.202,3.241 1.994,3.372 1.779,3.49 1.556,3.596 1.327,3.686 1.093,3.762 0.854,3.823 0.613,3.87 0.369,3.9 0.123,3.916 m 3.685,0 -0.123,4.027 -0.368,4.011 -0.612,3.982 -0.853,3.937 -1.093,3.877 -1.326,3.804 -1.556,3.716 -1.779,3.614 -1.996,3.499 -2.206,3.37 -2.408,3.23 -2.6,3.077 -2.782,2.913 -2.955,2.738 -3.117,2.553 -3.266,2.358 -3.404,2.154 -3.529,1.943 -3.641,1.724 -3.739,1.499 -3.823,1.268 -3.894,1.033 -3.949,0.793 -3.991,0.551 -4.017,0.307 -4.028,0.062 -4.024,-0.185 -4.005,-0.429 -3.972,-0.672 -3.923,-0.914 -3.861,-1.151 -3.783,-1.384 -3.692,-1.612 -3.586,-1.835 -3.468,-2.049 -3.337,-2.258 -3.193,-2.456 -3.037,-2.646 -2.87,-2.827 -2.692,-2.996 -2.505,-3.155 -2.308,-3.302 -2.102,-3.437 -1.889,-3.558 -1.668,-3.666 -1.442,-3.762 -1.21,-3.842 -0.973,-3.909 -0.733,-3.961 -0.49,-3.999 -0.246,-4.021 v -4.028 l 0.246,-4.021 0.49,-3.999 0.733,-3.961 0.973,-3.909 1.21,-3.842 1.442,-3.762 1.668,-3.666 1.889,-3.558 2.102,-3.437 2.308,-3.302 2.505,-3.155 2.692,-2.996 2.87,-2.827 3.037,-2.646 3.193,-2.456 3.337,-2.258 3.468,-2.049 3.586,-1.835 3.692,-1.612 3.783,-1.384 3.861,-1.151 3.923,-0.913 3.972,-0.673 4.005,-0.429 4.024,-0.185 4.028,0.062 4.017,0.307 3.991,0.551 3.949,0.793 3.894,1.033 3.823,1.268 3.739,1.499 3.641,1.724 3.529,1.943 3.404,2.154 3.266,2.358 3.117,2.553 2.955,2.738 2.782,2.913 2.6,3.077 2.408,3.23 2.206,3.37 1.996,3.499 1.779,3.614 1.556,3.716 1.326,3.804 1.093,3.877 0.853,3.937 0.612,3.982 0.368,4.012 0.123,4.026 m -34.866,0 -0.126,2.795 -0.375,2.773 -0.623,2.727 -0.864,2.661 -1.1,2.573 -1.326,2.464 -1.541,2.335 -1.745,2.187 -1.933,2.023 -2.107,1.84 -2.264,1.645 -2.402,1.435 -2.52,1.214 -2.62,0.983 -2.697,0.744 -2.753,0.5 -2.786,0.251 h -2.798 l -2.787,-0.251 -2.753,-0.5 -2.697,-0.744 -2.619,-0.983 -2.521,-1.214 -2.402,-1.435 -2.263,-1.645 -2.107,-1.84 -1.934,-2.023 -1.744,-2.187 -1.542,-2.335 -1.325,-2.464 -1.1,-2.573 -0.865,-2.661 -0.622,-2.727 -0.376,-2.773 -0.125,-2.795 0.125,-2.795 0.376,-2.773 0.622,-2.727 0.865,-2.661 1.1,-2.573 1.325,-2.464 1.542,-2.335 1.744,-2.187 1.934,-2.023 2.107,-1.84 2.263,-1.645 2.402,-1.435 2.521,-1.214 2.619,-0.983 2.697,-0.744 2.753,-0.5 2.787,-0.251 h 2.798 l 2.786,0.251 2.753,0.5 2.697,0.744 2.62,0.983 2.52,1.214 2.402,1.435 2.264,1.645 2.107,1.84 1.933,2.023 1.745,2.187 1.541,2.335 1.326,2.464 1.1,2.573 0.864,2.661 0.623,2.727 0.375,2.773 0.126,2.795 m -65.81,-36.348 0.116,-1.375 0.348,-1.35 0.586,-1.295 0.812,-1.191 0.931,-0.963 1.079,-0.803 2.242,-0.97 2.416,-0.268 2.552,0.508 1.282,0.607 1.158,0.817 1.04,1.054 0.842,1.233 0.596,1.344 0.351,1.443 0.086,1.416 -0.159,1.421 -0.99,2.569 -1.762,2.082 -2.35,1.391 -2.671,0.545 -2.681,-0.352 -2.398,-1.185 -1.897,-1.903 -0.71,-1.2 -0.496,-1.294 -0.323,-2.281 m -16.322,22.464 0.368,-2.433 1.075,-2.219 1.642,-1.766 2.207,-1.263 2.713,-0.537 1.468,0.094 1.436,0.356 1.348,0.608 1.231,0.849 1.016,1.012 0.832,1.183 0.59,1.255 0.374,1.342 0.051,2.73 -0.844,2.595 -1.648,2.176 -2.253,1.509 -2.59,0.691 -2.672,-0.178 -2.526,-1.062 -1.14,-0.872 -0.973,-1.057 -0.794,-1.254 -0.562,-1.391 -0.349,-2.368 m 0,27.768 0.116,-1.37 0.334,-1.313 1.253,-2.327 0.954,-1.041 1.117,-0.863 1.312,-0.685 1.424,-0.442 1.462,-0.175 1.484,0.089 1.381,0.335 1.313,0.572 2.166,1.704 1.469,2.298 0.637,2.655 -0.267,2.714 -1.128,2.458 -1.841,1.942 -2.377,1.251 -1.353,0.324 -1.38,0.093 -1.441,-0.154 -1.396,-0.405 -1.332,-0.663 -1.205,-0.905 -0.978,-1.057 -0.788,-1.226 -0.826,-2.47 -0.11,-1.339 m 16.322,22.464 0.132,-1.463 0.388,-1.416 0.64,-1.329 0.872,-1.203 1.066,-1.017 1.243,-0.819 1.309,-0.56 1.396,-0.329 1.379,-0.081 1.377,0.151 2.553,0.962 2.099,1.746 1.41,2.335 0.568,2.645 -0.314,2.659 -1.156,2.422 -0.888,1.068 -1.048,0.899 -1.245,0.739 -1.358,0.511 -1.463,0.267 -1.506,-0.002 -1.42,-0.261 -1.37,-0.512 -2.149,-1.493 -1.476,-1.917 -0.862,-2.301 -0.177,-1.701 m 26.408,8.581 0.118,-1.384 0.353,-1.358 0.589,-1.292 0.808,-1.183 0.972,-0.996 1.13,-0.823 2.541,-1.004 2.726,-0.117 2.616,0.783 2.204,1.585 1.554,2.189 0.764,2.563 -0.109,2.725 -0.414,1.367 -0.643,1.274 -0.89,1.182 -1.098,1.014 -1.243,0.786 -1.383,0.559 -1.328,0.283 -1.364,0.061 -2.414,-0.461 -2.141,-1.132 -1.812,-1.836 -0.718,-1.211 -0.501,-1.314 -0.317,-2.26 m 26.409,-8.581 0.447,-2.673 1.305,-2.4 2.017,-1.837 2.509,-1.077 2.713,-0.197 2.601,0.687 2.227,1.478 1.654,2.149 0.556,1.302 0.325,1.374 0.082,1.469 -0.183,1.473 -0.445,1.412 -0.701,1.33 -0.853,1.092 -1.032,0.943 -2.189,1.2 -2.361,0.484 -2.525,-0.254 -2.515,-1.134 -1.141,-0.926 -0.963,-1.121 -0.747,-1.278 -0.511,-1.406 -0.27,-2.09 m 16.321,-22.464 0.454,-2.694 1.312,-2.396 2.016,-1.829 2.475,-1.064 2.664,-0.208 2.619,0.67 1.236,0.678 1.098,0.875 0.97,1.1 0.765,1.264 0.527,1.387 0.272,1.482 0.005,1.401 -0.234,1.395 -0.998,2.314 -1.566,1.828 -2.13,1.341 -2.656,0.654 -1.463,-0.023 -1.443,-0.282 -1.38,-0.542 -1.273,-0.789 -1.07,-0.967 -0.893,-1.148 -0.65,-1.23 -0.437,-1.329 -0.22,-1.888 m 0,-27.768 0.452,-2.686 1.29,-2.374 1.966,-1.811 2.466,-1.09 1.383,-0.232 1.396,0.005 1.438,0.26 1.377,0.512 1.277,0.761 1.135,0.993 0.883,1.107 0.687,1.256 0.649,2.464 -0.109,2.406 -0.843,2.349 -1.666,2.135 -1.156,0.885 -1.299,0.672 -1.419,0.433 -1.489,0.173 -1.445,-0.094 -1.419,-0.348 -1.278,-0.565 -1.17,-0.775 -1.828,-2.035 -1.058,-2.514 -0.22,-1.887 m -16.321,-22.464 0.12,-1.396 0.35,-1.344 1.319,-2.38 0.962,-1.016 1.113,-0.836 1.301,-0.659 1.403,-0.422 1.478,-0.165 1.505,0.105 1.378,0.352 1.312,0.591 2.013,1.586 1.36,1.989 0.736,2.375 -0.043,2.695 -0.386,1.4 -0.628,1.315 -0.87,1.203 -1.083,1.038 -1.21,0.799 -1.345,0.58 -1.362,0.321 -1.404,0.087 -2.686,-0.522 -2.36,-1.369 -1.783,-2.068 -1.005,-2.527 -0.185,-1.732 m -26.409,-8.581 0.132,-1.464 0.387,-1.409 0.629,-1.316 0.855,-1.188 1.071,-1.032 1.257,-0.833 1.316,-0.564 1.41,-0.332 2.583,0.041 2.289,0.76 2.015,1.436 1.593,2.153 0.543,1.341 0.302,1.419 0.043,1.485 -0.226,1.482 -0.474,1.375 -0.716,1.282 -0.888,1.086 -1.064,0.925 -2.452,1.22 -2.706,0.347 -2.673,-0.559 -2.335,-1.397 -1.736,-2.057 -0.974,-2.489 -0.181,-1.712 M -72.448,0 l -0.126,2.627 -0.374,2.603 -0.62,2.556 -0.86,2.486 -1.093,2.392 -1.315,2.278 -1.526,2.143 -1.722,1.987 -1.903,1.815 -2.068,1.626 -2.212,1.422 -2.338,1.205 -2.442,0.978 -2.523,0.741 -2.583,0.498 -2.618,0.25 h -2.63 l -2.619,-0.25 -2.582,-0.498 -2.524,-0.741 -2.441,-0.978 -2.338,-1.205 -2.213,-1.422 -2.067,-1.626 -1.904,-1.815 -1.722,-1.987 -1.526,-2.143 -1.315,-2.278 -1.092,-2.392 -0.861,-2.486 -0.62,-2.556 -0.374,-2.603 -0.125,-2.627 0.125,-2.627 0.374,-2.603 0.62,-2.556 0.861,-2.486 1.092,-2.392 1.315,-2.278 1.526,-2.143 1.722,-1.987 1.904,-1.815 2.067,-1.626 2.213,-1.422 2.338,-1.205 2.441,-0.978 2.524,-0.741 2.582,-0.497 2.619,-0.25 h 2.63 l 2.618,0.25 2.583,0.497 2.523,0.741 2.442,0.978 2.338,1.205 2.212,1.422 2.068,1.626 1.903,1.815 1.722,1.987 1.526,2.143 1.315,2.278 1.093,2.392 0.86,2.486 0.62,2.556 0.374,2.603 0.126,2.627"
       style="fill:none;stroke:#000000;stroke-width:0.709;stroke-linecap:round;stroke-linejoin:round;stroke-miterlimit:10;stroke-dasharray:none;stroke-opacity:1"
       id="path1019" /></g></svg>
