<?xml version="1.0" encoding="UTF-8" standalone="no"?>
<!-- Created with Inkscape (http://www.inkscape.org/) -->

<svg
   width="128mm"
   height="89.263641mm"
   viewBox="0 0 128 89.263641"
   version="1.1"
   id="svg5"
   inkscape:version="1.2.1 (9c6d41e410, 2022-07-14)"
   sodipodi:docname="Timing Belt assembly.svg"
   xml:space="preserve"
   xmlns:inkscape="http://www.inkscape.org/namespaces/inkscape"
   xmlns:sodipodi="http://sodipodi.sourceforge.net/DTD/sodipodi-0.dtd"
   xmlns="http://www.w3.org/2000/svg"
   xmlns:svg="http://www.w3.org/2000/svg"><sodipodi:namedview
     id="namedview7"
     pagecolor="#505050"
     bordercolor="#eeeeee"
     borderopacity="1"
     inkscape:pageshadow="0"
     inkscape:pageopacity="0"
     inkscape:pagecheckerboard="0"
     inkscape:document-units="mm"
     showgrid="false"
     inkscape:zoom="1.9628562"
     inkscape:cx="268.4863"
     inkscape:cy="145.96077"
     inkscape:window-width="2560"
     inkscape:window-height="1361"
     inkscape:window-x="2551"
     inkscape:window-y="-9"
     inkscape:window-maximized="1"
     inkscape:current-layer="layer8"
     inkscape:snap-page="true"
     inkscape:showpageshadow="0"
     inkscape:deskcolor="#505050" /><defs
     id="defs2" /><g
     inkscape:label="Ebene 1"
     inkscape:groupmode="layer"
     id="layer1"
     transform="translate(-358.15427,-31.76787)" /><g
     id="g5698"
     transform="matrix(0.38330009,0,0,-0.38330009,75.287851,18.965219)"><path
       d="M 0,0 -1.597,9.446 2.481,9.253 0,0 m 0,0 0.155,5.543 -0.429,4.444 -1.209,3.811 -1.846,3.647 -2,3.952 -1.331,4.732 -0.063,2.807 0.567,3.18 1.396,3.614 2.446,4.107 m -35.768,-73.408 0.471,9.568 3.94,-1.064 -4.411,-8.504 m 0,0 2.22,8.796 0.986,7.288 -0.606,6.404 -2.247,6.079 -3.624,6.254 -2.857,4.401 -2.975,4.77 -2.803,5.236 -2.284,5.785 -1.36,6.409 0.025,7.093 m 112.473,-85.367 -7.824,5.529 3.012,2.755 4.812,-8.284 m 0,0 -5.891,6.562 -4.435,5.635 -2.761,4.953 -1.039,4.503 0.562,4.272 1.874,4.245 2.727,4.408 2.952,4.749 2.381,5.252 0.837,4.361 -0.493,4.786 -1.325,3.454 -2.315,3.683 -3.486,3.924"
       style="fill:none;stroke:#000000;stroke-width:0.51;stroke-linecap:butt;stroke-linejoin:miter;stroke-miterlimit:10;stroke-dasharray:none;stroke-opacity:1"
       id="path5700" /></g><g
     id="g5702"
     transform="matrix(0.38330009,0,0,-0.38330009,31.905822,88.07936)"><path
       d="M 0,0 9.36,2.041 V -2.041 L 0,0 m 210.728,0 -9.36,-2.041 V 2.041 L 210.728,0"
       style="fill:none;stroke:#000000;stroke-width:0.51;stroke-linecap:butt;stroke-linejoin:miter;stroke-miterlimit:10;stroke-dasharray:none;stroke-opacity:1"
       id="path5704" /></g><g
     id="g5706"
     transform="matrix(0.38330009,0,0,-0.38330009,31.905822,42.670068)"><path
       d="M 0,0 V -121.304 M 210.728,0 V -121.304 M 0,-118.469 h 210.728"
       style="fill:none;stroke:#000000;stroke-width:0.51;stroke-linecap:round;stroke-linejoin:round;stroke-miterlimit:10;stroke-dasharray:none;stroke-opacity:1"
       id="path5708" /></g><g
     id="g5710"
     transform="matrix(0.38330009,0,0,-0.38330009,75.287851,18.965219)"><path
       d="M 0,0 -1.597,9.446 2.481,9.253 m -40.563,-42.824 0.471,9.568 3.94,-1.064 m 92.537,-25.356 -7.824,5.529 3.012,2.755"
       style="fill:#000000;fill-opacity:1;fill-rule:nonzero;stroke:none"
       id="path5712" /></g><g
     id="g5714"
     transform="matrix(0.38330009,0,0,-0.38330009,31.905822,88.07936)"><path
       d="M 0,0 9.36,2.041 V -2.041 M 210.728,0 l -9.36,-2.041 v 4.082"
       style="fill:#000000;fill-opacity:1;fill-rule:nonzero;stroke:none"
       id="path5716" /></g><g
     id="g5718"
     transform="matrix(0.38330009,0,0,-0.38330009,114.27038,53.517614)"><path
       d="m 0,0 0.002,0.17 m -9.07,0.111 0.239,1.399 0.66,1.256 1.015,0.991 1.272,0.629 1.404,0.205 1.399,-0.239 1.256,-0.66 L -0.831,2.846 -0.203,1.574 0.002,0.17 M -9.07,0.111 -9.068,0.281 M -9.07,0.111 -9.076,0.005 -9.092,-0.099 -9.118,-0.201 -9.153,-0.301 -9.197,-0.397 -9.25,-0.488 -9.311,-0.574 -9.38,-0.654 m -3.691,0.832 0.455,-0.128 0.458,-0.121 0.459,-0.114 0.461,-0.107 0.463,-0.101 0.463,-0.094 0.466,-0.087 0.466,-0.08 m -3.691,0.832 -0.028,0.101 -0.018,0.104 -0.009,0.106 10e-4,0.105 0.011,0.105 0.021,0.104 0.03,0.101 0.04,0.098 m 0,0 0.071,0.154 m -8.241,3.791 0.788,1.18 1.113,0.88 1.331,0.492 1.418,0.057 1.366,-0.384 1.18,-0.787 0.88,-1.114 0.492,-1.331 0.057,-1.418 -0.384,-1.366 m -8.312,3.636 0.071,0.155 M -21.264,4.792 -21.312,4.698 -21.369,4.61 -21.435,4.526 -21.507,4.45 -21.586,4.38 -21.672,4.318 -21.763,4.264 -21.858,4.219 m -3.034,2.262 0.365,-0.302 0.368,-0.297 0.373,-0.291 0.378,-0.286 0.381,-0.28 0.386,-0.274 0.389,-0.269 0.394,-0.263 m -3.034,2.262 0.016,0.104 0.026,0.102 0.035,0.1 0.044,0.096 0.052,0.091 0.062,0.086 0.068,0.08 0.076,0.074 m 0,0 0.128,0.112 m -5.987,6.815 1.2,0.758 1.375,0.35 1.416,-0.091 1.318,-0.525 1.092,-0.906 0.758,-1.2 0.351,-1.375 -0.092,-1.416 -0.524,-1.318 -0.907,-1.092 m -6.114,6.702 0.127,0.113 m -0.127,-0.113 -0.083,-0.065 -0.088,-0.058 -0.093,-0.05 -0.098,-0.041 -0.101,-0.031 -0.103,-0.022 -0.105,-0.012 -0.105,-0.002 m -1.852,3.299 0.21,-0.424 0.216,-0.42 0.223,-0.418 0.228,-0.415 0.235,-0.411 0.241,-0.407 0.246,-0.404 0.253,-0.4 m -1.852,3.299 0.057,0.089 0.065,0.084 0.073,0.076 0.079,0.07 0.085,0.062 0.091,0.054 0.096,0.045 0.099,0.036 m 0,0 0.162,0.051 m -2.697,8.66 1.404,0.205 1.399,-0.239 1.256,-0.66 0.991,-1.015 0.629,-1.272 0.205,-1.405 -0.24,-1.398 -0.659,-1.257 -1.016,-0.991 -1.272,-0.628 m -2.86,8.61 0.163,0.05 m -0.163,-0.05 -0.102,-0.027 -0.104,-0.017 -0.105,-0.007 -0.106,0.002 -0.105,0.012 -0.103,0.022 -0.101,0.032 -0.097,0.041 m 0.449,3.976 0.169,-0.02 m 1.058,9.009 1.366,-0.384 1.181,-0.787 0.879,-1.114 0.493,-1.331 0.057,-1.417 -0.384,-1.367 -0.788,-1.18 -1.113,-0.88 -1.331,-0.492 -1.418,-0.057 m 0.889,9.029 0.169,-0.02 m -0.169,0.02 -0.104,0.017 -0.102,0.027 -0.099,0.036 -0.095,0.045 -0.091,0.054 -0.085,0.063 -0.08,0.069 -0.072,0.077 m 1.213,3.584 -0.174,-0.44 -0.169,-0.442 -0.161,-0.445 -0.155,-0.447 -0.149,-0.449 -0.141,-0.452 -0.136,-0.453 -0.128,-0.456 m 1.213,3.584 0.104,0.017 0.106,0.008 0.105,-0.003 0.105,-0.012 0.103,-0.022 0.101,-0.032 0.097,-0.04 0.094,-0.05 m 0,0 0.146,-0.087 m 4.631,7.8 1.092,-0.907 0.758,-1.199 0.35,-1.375 -0.091,-1.416 -0.525,-1.319 -0.906,-1.091 -1.2,-0.759 -1.375,-0.35 -1.416,0.092 -1.318,0.524 m 4.485,7.887 0.146,-0.087 m -0.146,0.087 -0.088,0.058 -0.083,0.066 -0.076,0.073 -0.068,0.08 -0.061,0.086 -0.053,0.092 -0.044,0.096 -0.035,0.1 m 2.566,2.78 -0.338,-0.331 -0.334,-0.335 -0.328,-0.341 -0.324,-0.345 -0.318,-0.351 -0.313,-0.354 -0.308,-0.36 -0.303,-0.363 m 2.566,2.78 0.102,-0.026 0.099,-0.037 0.096,-0.045 0.091,-0.054 0.085,-0.062 0.079,-0.069 0.073,-0.077 0.065,-0.084 m 0,0 0.098,-0.138 m 7.403,5.241 0.629,-1.272 0.205,-1.404 -0.24,-1.399 -0.659,-1.256 -1.016,-0.991 -1.272,-0.629 -1.404,-0.205 -1.399,0.239 -1.256,0.66 -0.991,1.016 m 7.305,5.38 0.098,-0.139 m -0.098,0.139 -0.057,0.089 -0.049,0.094 -0.039,0.098 -0.03,0.101 -0.021,0.103 -0.011,0.105 -0.001,0.106 0.009,0.105 m 3.475,1.497 -0.444,-0.165 -0.441,-0.171 -0.439,-0.177 -0.436,-0.184 -0.433,-0.191 -0.43,-0.197 -0.428,-0.203 -0.424,-0.209 m 3.475,1.497 0.082,-0.066 0.076,-0.074 0.069,-0.08 0.061,-0.086 0.053,-0.091 0.044,-0.096 0.035,-0.1 0.025,-0.102 m 0,0 0.034,-0.167 m 8.895,1.777 0.056,-1.418 -0.383,-1.366 -0.788,-1.18 -1.113,-0.88 -1.331,-0.492 -1.418,-0.057 -1.366,0.384 -1.181,0.788 -0.879,1.113 -0.492,1.331 m 8.861,1.944 0.034,-0.167 m -0.034,0.167 -0.016,0.104 -0.006,0.106 0.004,0.105 0.014,0.105 0.023,0.103 0.033,0.1 0.041,0.097 0.051,0.093 m 3.784,-0.046 -0.472,0.03 -0.473,0.023 -0.473,0.016 -0.473,0.009 -0.474,0.003 -0.473,-0.005 -0.473,-0.012 -0.473,-0.018 m 3.784,-0.046 0.048,-0.094 0.04,-0.098 0.03,-0.101 0.021,-0.104 0.011,-0.105 10e-4,-0.105 -0.009,-0.106 -0.018,-0.103 m 0,0 -0.038,-0.166 M 7.065,60.293 6.541,58.975 5.634,57.883 4.435,57.125 3.06,56.774 l -1.416,0.092 -1.319,0.525 -1.091,0.906 -0.759,1.2 -0.35,1.375 0.091,1.416 M 7.103,60.459 7.065,60.293 m 0.038,0.166 0.028,0.102 0.037,0.099 0.046,0.095 0.055,0.09 0.064,0.084 0.07,0.079 0.078,0.071 0.084,0.064 m 3.438,-1.581 -0.42,0.22 -0.422,0.213 -0.426,0.207 -0.428,0.201 -0.431,0.195 -0.435,0.188 -0.437,0.182 -0.439,0.175 m 3.438,-1.581 0.006,-0.105 -0.004,-0.106 -0.014,-0.104 -0.023,-0.104 -0.032,-0.1 -0.042,-0.097 -0.051,-0.092 -0.059,-0.088 m 0,0 -0.102,-0.136 m 7.273,-5.421 -1.015,-0.991 -1.273,-0.629 -1.404,-0.205 -1.398,0.239 -1.257,0.66 -0.991,1.015 -0.629,1.273 -0.204,1.404 0.239,1.398 0.659,1.257 m 7.375,-5.285 -0.102,-0.136 m 0.102,0.136 0.067,0.082 0.074,0.075 0.081,0.068 0.087,0.059 0.092,0.052 0.096,0.043 0.1,0.034 0.103,0.024 m 2.497,-2.843 -0.293,0.371 -0.299,0.367 -0.305,0.362 -0.309,0.358 -0.315,0.354 -0.32,0.348 -0.326,0.344 -0.33,0.339 m 2.497,-2.843 -0.037,-0.098 -0.046,-0.095 -0.055,-0.091 -0.063,-0.084 -0.071,-0.079 -0.077,-0.071 -0.084,-0.064 -0.09,-0.056 m 0,0 -0.148,-0.083 m 4.439,-7.911 -1.331,-0.492 -1.418,-0.057 -1.366,0.384 -1.181,0.787 -0.879,1.114 -0.492,1.331 -0.057,1.418 0.384,1.366 0.787,1.18 1.114,0.88 m 4.587,-7.827 -0.148,-0.084 m 0.148,0.084 0.094,0.047 0.099,0.038 0.101,0.029 0.104,0.02 0.105,0.009 h 0.106 l 0.105,-0.01 0.104,-0.019 m 1.125,-3.613 -0.118,0.459 -0.124,0.456 -0.13,0.455 -0.138,0.453 -0.144,0.451 -0.15,0.448 -0.158,0.447 -0.163,0.444 m 1.125,-3.613 -0.074,-0.075 -0.081,-0.068 -0.087,-0.06 -0.092,-0.052 -0.097,-0.042 -0.1,-0.034 -0.102,-0.024 -0.105,-0.015 m 0,0 -0.169,-0.016 m 0.837,-9.032 -1.416,0.092 -1.318,0.524 -1.092,0.907 -0.758,1.199 -0.35,1.375 0.091,1.416 0.525,1.319 0.906,1.091 1.2,0.759 1.375,0.35 m 1.007,-9.016 -0.17,-0.016 m 0.17,0.016 0.105,0.005 0.106,-0.005 0.104,-0.015 0.103,-0.024 0.1,-0.034 0.096,-0.043 0.092,-0.052 0.087,-0.06 m -0.441,-3.758 0.079,0.466 0.072,0.468 0.066,0.469 0.059,0.469 0.051,0.471 0.045,0.471 0.038,0.471 0.031,0.473 m -0.441,-3.758 -0.099,-0.039 -0.101,-0.029 -0.104,-0.019 -0.105,-0.01 H 27.05 l -0.105,0.01 -0.104,0.019 -0.101,0.03 m 0,0 -0.161,0.054 m -2.908,-8.592 -1.257,0.66 -0.991,1.015 -0.628,1.272 -0.205,1.404 0.239,1.399 0.659,1.257 1.016,0.991 1.272,0.628 1.404,0.205 1.399,-0.239 m -2.747,-8.646 -0.161,0.054 m 0.161,-0.054 0.098,-0.039 0.094,-0.047 0.09,-0.056 0.084,-0.064 0.077,-0.072 0.071,-0.079 0.063,-0.084 0.055,-0.091 m -1.932,-3.253 0.262,0.394 0.256,0.398 0.251,0.401 0.245,0.405 0.238,0.409 0.233,0.412 0.226,0.416 0.221,0.418 m -1.932,-3.253 -0.106,0.005 -0.104,0.015 -0.103,0.024 -0.1,0.034 -0.096,0.043 -0.092,0.052 -0.087,0.06 -0.081,0.068 m 0,0 -0.125,0.115 m -6.152,-6.666 -0.879,1.113 -0.492,1.331 -0.057,1.418 0.384,1.366 0.787,1.18 1.114,0.88 1.331,0.492 1.417,0.057 1.366,-0.384 1.181,-0.787 M 15.611,6.723 15.486,6.839 m 0.125,-0.116 0.075,-0.075 0.067,-0.082 0.058,-0.087 0.051,-0.093 0.042,-0.097 0.032,-0.1 0.023,-0.103 0.014,-0.105 m -3.088,-2.186 0.399,0.253 0.396,0.259 0.393,0.265 0.388,0.27 0.384,0.277 0.38,0.282 0.376,0.287 0.372,0.293 m -3.088,-2.186 -0.095,0.047 -0.089,0.056 -0.084,0.064 -0.078,0.072 -0.07,0.078 -0.063,0.085 -0.055,0.09 -0.046,0.095 m 0,0 -0.068,0.156 M 3.906,0.95 3.556,2.325 3.647,3.741 4.172,5.06 5.078,6.151 6.278,6.91 7.653,7.26 9.069,7.169 10.387,6.644 11.479,5.737 12.237,4.538 M 3.973,0.794 3.906,0.95 M 3.973,0.794 4.011,0.695 4.038,0.593 4.057,0.489 4.065,0.384 4.064,0.279 4.053,0.174 4.032,0.07 4.002,-0.031 m -3.711,-0.741 0.468,0.068 0.467,0.076 0.466,0.082 0.465,0.09 0.464,0.096 0.461,0.103 0.461,0.109 0.459,0.117 M 0.291,-0.772 0.224,-0.691 0.165,-0.603 0.115,-0.511 0.073,-0.414 0.04,-0.313 0.017,-0.21 0.004,-0.106 0,0 M 10.375,35.21 10.271,26.706 M 6.407,35.258 10.375,35.21 M 6.303,26.755 5.326,24.917 4.03,23.289 2.458,21.925 0.663,20.871 l -1.957,-0.708 -2.053,-0.338 -2.081,0.043 -2.038,0.423 -1.926,0.787 -1.75,1.127 -1.515,1.428 -1.228,1.68 -0.9,1.877 -0.542,2.009 -0.166,2.075 0.216,2.07 0.592,1.995 0.945,1.854 1.269,1.65 1.549,1.39 1.777,1.084 1.945,0.74 2.048,0.373 2.081,-0.008 2.045,-0.389 1.939,-0.755 1.768,-1.097 1.539,-1.402 1.256,-1.66 0.931,-1.861 m 3.864,-8.552 -3.968,0.049 m -42.656,3.293 0.02,-0.472 0.026,-0.473 0.034,-0.472 0.04,-0.472 0.047,-0.47 0.054,-0.471 0.061,-0.469 0.068,-0.468 m -0.35,3.767 0.089,0.058 0.093,0.05 0.097,0.041 0.101,0.031 0.103,0.022 0.105,0.012 0.106,0.003 0.105,-0.008 M 35.465,30.651 35.233,26.829 34.634,23.048 33.672,19.342 32.357,15.746 30.701,12.294 28.72,9.018 26.432,5.948 23.858,3.113 21.023,0.541 17.953,-1.747 14.676,-3.727 11.224,-5.382 7.627,-6.695 3.921,-7.656 0.14,-8.254 l -3.822,-0.231 -3.826,0.139 -3.795,0.508 -1.831,0.381 m -10.116,3.874 -2.222,1.318 -3.124,2.213 -2.896,2.505 -2.64,2.772 -2.361,3.014 -2.059,3.228 -1.737,3.411 -1.401,3.564 -1.05,3.682 -0.689,3.766 -0.323,3.815 0.047,3.828 0.416,3.806 0.781,3.748 1.14,3.655 1.487,3.528 1.82,3.368 2.137,3.177 2.434,2.955 2.708,2.707 2.956,2.433 0.607,0.444 m 14.085,6.373 2.786,0.544 3.806,0.415 3.828,0.046 3.815,-0.324 3.766,-0.691 3.682,-1.051 3.563,-1.401 3.411,-1.739 3.227,-2.06 3.014,-2.361 2.771,-2.642 2.504,-2.896 2.212,-3.125 1.901,-3.324 1.57,-3.491 1.227,-3.627 0.871,-3.728 0.507,-3.795 0.138,-3.826 m -50.603,30.77 0.231,0.083 m 7.891,1.72 0.151,0.013 1.211,0.079 m -20.853,-8.981 0.89,0.826 0.92,0.791 0.949,0.756 0.977,0.72 1.003,0.682 1.029,0.644 1.052,0.605 1.074,0.565 m -15.398,-16.686 0.477,1.116 0.519,1.097 0.559,1.077 0.6,1.055 0.639,1.031 0.678,1.007 0.715,0.981 0.751,0.953 m -7.28,-21.507 -0.018,1.214 0.028,1.213 0.073,1.211 0.119,1.208 0.164,1.202 0.21,1.196 0.254,1.186 0.299,1.176 m 2.097,-22.608 -0.51,1.102 -0.468,1.119 -0.426,1.137 -0.383,1.151 -0.339,1.165 -0.294,1.177 -0.251,1.188 -0.205,1.196 m 11.111,-19.8 -0.914,0.798 -0.883,0.832 -0.851,0.865 -0.818,0.897 -0.783,0.926 -0.749,0.956 -0.711,0.983 -0.674,1.009 m 18.204,-13.569 -1.16,0.357 -1.145,0.402 -1.129,0.444 -1.112,0.486 -1.093,0.528 -1.072,0.568 -1.05,0.609 -1.026,0.647 M -196.26,-49.673 3.839,-3.544 m -200.099,115.487 -5.519,1.076 -5.58,0.701 -5.614,0.32 -5.623,-0.061 -5.606,-0.442 -5.564,-0.82 -5.494,-1.196 -5.402,-1.566 -5.282,-1.928 -5.14,-2.281 -4.973,-2.625 -4.785,-2.956 -4.572,-3.273 -4.341,-3.575 -4.088,-3.862 -3.817,-4.129 -3.528,-4.379 -3.224,-4.608 -2.903,-4.816 -2.571,-5.001 -2.226,-5.164 -1.871,-5.304 -1.507,-5.417 -1.136,-5.508 -0.761,-5.572 -0.381,-5.61 v -5.624 l 0.381,-5.61 0.761,-5.572 1.136,-5.508 1.507,-5.417 1.871,-5.304 2.226,-5.164 2.571,-5.001 2.903,-4.816 3.224,-4.608 3.528,-4.379 3.817,-4.129 4.088,-3.862 4.341,-3.575 4.572,-3.273 4.785,-2.956 4.973,-2.625 5.14,-2.281 5.282,-1.928 5.402,-1.566 5.494,-1.196 5.564,-0.82 5.606,-0.442 5.623,-0.061 5.614,0.32 5.58,0.701 5.519,1.076 M 3.839,65.814 -196.26,111.943 M 3.839,-3.544 l 3.537,1.01 3.414,1.37 3.254,1.716 3.059,2.041 2.833,2.347 2.575,2.627 2.29,2.878 1.981,3.099 1.65,3.287 1.303,3.44 0.94,3.557 0.568,3.634 0.19,3.673 -0.19,3.673 -0.568,3.635 -0.94,3.556 -1.303,3.44 -1.65,3.287 -1.981,3.099 -2.29,2.878 -2.575,2.627 -2.833,2.347 -3.059,2.041 -3.254,1.716 -3.414,1.37 -3.537,1.01 m -279.408,-83.915 1.031,0.777 1.213,0.443 1.289,0.07 1.254,-0.309 1.109,-0.661 0.868,-0.956 0.552,-1.167 0.188,-1.277 -0.193,-1.277 -0.556,-1.165 -0.872,-0.952 m 0,0 -0.154,-0.147 -0.128,-0.171 -0.097,-0.19 -0.065,-0.203 -0.03,-0.211 0.005,-0.214 0.04,-0.209 0.074,-0.2 m 13.561,-10.495 0.212,-0.022 0.213,0.013 0.208,0.049 0.197,0.082 0.181,0.114 0.16,0.142 0.133,0.166 0.105,0.186 m 0,0 0.703,1.083 0.988,0.831 1.188,0.506 1.283,0.139 1.268,-0.242 1.143,-0.601 0.918,-0.908 0.613,-1.136 0.256,-1.265 -0.125,-1.285 -0.493,-1.193 m 0,0 -0.095,-0.192 -0.061,-0.204 -0.027,-0.212 0.009,-0.213 0.044,-0.208 0.077,-0.199 0.11,-0.183 0.138,-0.163 m 0,0 0.378,-0.166 0.379,-0.165 0.38,-0.163 0.381,-0.16 0.382,-0.159 0.382,-0.157 0.383,-0.155 0.385,-0.153 m 0,0 0.213,0.016 0.207,0.05 0.196,0.083 0.18,0.116 0.158,0.143 0.133,0.167 0.103,0.187 0.07,0.202 m 0,0 0.505,1.188 0.829,0.99 1.081,0.705 1.24,0.36 1.291,-0.018 1.23,-0.394 1.061,-0.734 0.802,-1.013 0.471,-1.202 0.1,-1.287 -0.279,-1.26 m 0,0 -0.059,-0.205 -0.025,-0.212 0.01,-0.213 0.046,-0.208 0.079,-0.198 0.111,-0.182 0.14,-0.162 0.164,-0.136 m 0,0 0.401,-0.098 0.402,-0.097 0.403,-0.094 0.403,-0.092 0.403,-0.09 0.404,-0.088 0.404,-0.086 0.405,-0.084 m 0,0 0.207,0.052 0.196,0.085 0.179,0.117 0.157,0.145 0.131,0.168 0.101,0.188 0.069,0.202 0.034,0.211 m 0,0 0.291,1.258 0.644,1.119 0.943,0.882 1.159,0.569 1.274,0.206 1.279,-0.173 1.173,-0.54 0.965,-0.858 0.673,-1.101 0.323,-1.251 -0.056,-1.289 m 0,0 -0.023,-0.212 0.012,-0.213 0.047,-0.208 0.081,-0.198 0.113,-0.181 0.141,-0.16 0.165,-0.134 0.185,-0.106 m 0,0 0.413,-0.027 0.412,-0.025 0.413,-0.023 0.413,-0.021 0.413,-0.019 0.413,-0.016 0.413,-0.015 0.413,-0.012 m 0,0 0.195,0.087 0.178,0.118 0.156,0.146 0.129,0.17 0.1,0.189 0.067,0.202 0.033,0.211 -0.003,0.214 m 0,0 0.068,1.289 0.44,1.214 0.775,1.032 1.043,0.762 1.219,0.424 1.29,0.051 1.249,-0.327 1.099,-0.677 0.854,-0.969 0.535,-1.175 0.169,-1.28 m 0,0 0.014,-0.213 0.049,-0.207 0.082,-0.197 0.114,-0.18 0.143,-0.159 0.166,-0.133 0.187,-0.104 0.2,-0.072 m 0,0 0.411,0.045 0.411,0.047 0.41,0.049 0.411,0.051 0.409,0.054 0.41,0.055 0.409,0.057 0.409,0.06 m 0,0 0.177,0.12 0.155,0.147 0.128,0.171 0.098,0.189 0.066,0.204 0.031,0.211 -0.005,0.213 -0.04,0.21 m 0,0 -0.157,1.282 0.223,1.271 0.584,1.152 0.895,0.931 1.126,0.63 1.262,0.274 1.287,-0.106 1.2,-0.476 1.009,-0.805 0.731,-1.065 0.388,-1.231 m 0,0 0.071,-0.263 0.125,-0.243 0.174,-0.21 0.213,-0.17 0.245,-0.12 0.265,-0.066 0.272,-0.009 0.269,0.049 m 0,0 0.011,-0.054 m 0,0 2.582,0.595 m 0,0 -0.027,0.119 m 0,0 0.263,0.07 0.243,0.125 0.211,0.172 0.17,0.213 0.122,0.245 0.067,0.264 0.009,0.273 -0.047,0.268 m 0,0 -0.174,1.279 0.207,1.275 0.57,1.158 0.882,0.943 1.119,0.644 1.258,0.29 1.288,-0.09 1.206,-0.461 1.019,-0.792 0.744,-1.055 0.404,-1.227 m 0,0 0.075,-0.262 0.128,-0.241 0.176,-0.208 0.216,-0.167 0.246,-0.117 0.265,-0.063 0.273,-0.005 0.268,0.052 m 0,0 0.027,-0.118 m 0,0 2.603,0.6 m 0,0 -0.027,0.119 m 0,0 0.263,0.07 0.243,0.124 0.211,0.173 0.17,0.213 0.122,0.244 0.067,0.265 0.009,0.272 -0.047,0.269 m 0,0 -0.174,1.279 0.207,1.275 0.57,1.158 0.882,0.943 1.119,0.644 1.258,0.29 1.288,-0.09 1.206,-0.461 1.019,-0.792 0.744,-1.055 0.404,-1.227 m 0,0 0.075,-0.262 0.128,-0.241 0.176,-0.208 0.216,-0.167 0.246,-0.117 0.265,-0.063 0.273,-0.005 0.268,0.052 m 0,0 0.027,-0.119 m 0,0 2.603,0.601 m 0,0 -0.027,0.119 m 0,0 0.263,0.07 0.243,0.124 0.211,0.173 0.17,0.213 0.122,0.244 0.067,0.265 0.009,0.272 -0.047,0.269 m 0,0 -0.174,1.279 0.207,1.274 0.57,1.159 0.882,0.942 1.119,0.645 1.258,0.289 1.288,-0.089 1.206,-0.461 1.019,-0.792 0.744,-1.056 0.404,-1.226 m 0,0 0.075,-0.262 0.128,-0.241 0.176,-0.208 0.216,-0.167 0.246,-0.117 0.265,-0.063 0.273,-0.005 0.268,0.052 m 0,0 0.027,-0.119 m 0,0 2.603,0.6 m 0,0 -0.027,0.12 m 0,0 0.263,0.07 0.243,0.124 0.211,0.173 0.17,0.213 0.122,0.244 0.067,0.265 0.009,0.272 -0.047,0.269 m 0,0 -0.174,1.279 0.207,1.274 0.57,1.159 0.882,0.942 1.119,0.644 1.258,0.29 1.288,-0.089 1.206,-0.461 1.019,-0.793 0.744,-1.055 0.404,-1.226 m 0,0 0.075,-0.262 0.128,-0.241 0.176,-0.208 0.216,-0.167 0.246,-0.117 0.265,-0.063 0.273,-0.005 0.268,0.052 m 0,0 0.027,-0.119 m 0,0 2.603,0.6 m 0,0 -0.027,0.12 m 0,0 0.263,0.07 0.243,0.124 0.211,0.173 0.17,0.213 0.122,0.244 0.067,0.264 0.009,0.273 -0.047,0.268 m 0,0 -0.174,1.28 0.207,1.274 0.57,1.159 0.882,0.942 1.119,0.644 1.258,0.29 1.288,-0.089 1.206,-0.461 1.019,-0.793 0.744,-1.055 0.404,-1.226 m 0,0 0.075,-0.263 0.128,-0.24 0.176,-0.209 0.216,-0.166 0.246,-0.118 0.265,-0.062 0.273,-0.006 0.268,0.053 m 0,0 0.027,-0.119 m 0,0 2.603,0.6 m 0,0 -0.027,0.119 m 0,0 0.263,0.071 0.243,0.124 0.211,0.172 0.17,0.214 0.122,0.244 0.067,0.264 0.009,0.273 -0.047,0.268 m 0,0 -0.174,1.28 0.207,1.274 0.57,1.159 0.882,0.942 1.119,0.644 1.258,0.29 1.288,-0.089 1.206,-0.461 1.019,-0.793 0.744,-1.055 0.404,-1.226 m 0,0 0.075,-0.263 0.128,-0.24 0.176,-0.209 0.216,-0.166 0.246,-0.118 0.265,-0.062 0.273,-0.006 0.268,0.052 m 0,0 0.027,-0.118 m 0,0 2.603,0.6 m 0,0 -0.027,0.119 m 0,0 0.263,0.07 0.243,0.125 0.211,0.172 0.17,0.213 0.122,0.245 0.067,0.264 0.009,0.273 -0.047,0.268 m 0,0 -0.174,1.279 0.207,1.275 0.57,1.158 0.882,0.943 1.119,0.644 1.258,0.29 1.288,-0.09 1.206,-0.461 1.019,-0.792 0.744,-1.055 0.404,-1.226 m 0,0 0.075,-0.263 0.128,-0.241 0.176,-0.208 0.216,-0.167 0.246,-0.117 0.265,-0.063 0.273,-0.005 0.268,0.052 m 0,0 0.027,-0.118 m 0,0 2.603,0.6 m 0,0 -0.027,0.119 m 0,0 0.263,0.07 0.243,0.124 0.211,0.173 0.17,0.213 0.122,0.245 0.067,0.264 0.009,0.272 -0.047,0.269 m 0,0 -0.174,1.279 0.207,1.275 0.57,1.158 0.882,0.943 1.119,0.644 1.258,0.29 1.288,-0.09 1.206,-0.461 1.019,-0.792 0.744,-1.055 0.404,-1.227 m 0,0 0.075,-0.262 0.128,-0.241 0.176,-0.208 0.216,-0.167 0.246,-0.117 0.265,-0.063 0.273,-0.005 0.268,0.052 m 0,0 0.027,-0.118 m 0,0 2.603,0.6 m 0,0 -0.027,0.119 m 0,0 0.263,0.07 0.243,0.124 0.211,0.173 0.17,0.213 0.122,0.244 0.067,0.265 0.009,0.272 -0.047,0.269 m 0,0 -0.174,1.279 0.207,1.275 0.57,1.158 0.882,0.943 1.119,0.644 1.258,0.29 1.288,-0.09 1.206,-0.461 1.019,-0.792 0.744,-1.056 0.404,-1.226 m 0,0 0.075,-0.262 0.128,-0.241 0.176,-0.208 0.216,-0.167 0.246,-0.117 0.265,-0.063 0.273,-0.005 0.268,0.052 m 0,0 0.027,-0.119 m 0,0 2.603,0.6 m 0,0 -0.027,0.12 m 0,0 0.263,0.07 0.243,0.124 0.211,0.173 0.17,0.213 0.122,0.244 0.067,0.265 0.009,0.272 -0.047,0.269 m 0,0 -0.174,1.279 0.207,1.274 0.57,1.159 0.882,0.942 1.119,0.644 1.258,0.29 1.288,-0.089 1.206,-0.461 1.019,-0.793 0.744,-1.055 0.404,-1.226 m 0,0 0.075,-0.262 0.128,-0.241 0.176,-0.208 0.216,-0.167 0.246,-0.117 0.265,-0.063 0.273,-0.005 0.268,0.052 m 0,0 0.027,-0.119 m 0,0 2.603,0.6 m 0,0 -0.027,0.12 m 0,0 0.263,0.07 0.243,0.124 0.211,0.173 0.17,0.213 0.122,0.244 0.067,0.264 0.009,0.273 -0.047,0.268 m 0,0 -0.174,1.28 0.207,1.274 0.57,1.159 0.882,0.942 1.119,0.644 1.258,0.29 1.288,-0.089 1.206,-0.461 1.019,-0.793 0.744,-1.055 0.404,-1.226 m 0,0 0.075,-0.262 0.128,-0.241 0.176,-0.209 0.216,-0.166 0.246,-0.117 0.265,-0.063 0.273,-0.006 0.268,0.053 m 0,0 0.027,-0.119 m 0,0 2.603,0.6 m 0,0 -0.027,0.119 m 0,0 0.263,0.071 0.243,0.124 0.211,0.172 0.17,0.214 0.122,0.244 0.067,0.264 0.009,0.273 -0.047,0.268 m 0,0 -0.174,1.28 0.207,1.274 0.57,1.159 0.882,0.942 1.119,0.644 1.258,0.29 1.288,-0.089 1.206,-0.461 1.019,-0.793 0.744,-1.055 0.404,-1.226 m 0,0 0.075,-0.263 0.128,-0.24 0.176,-0.209 0.216,-0.166 0.246,-0.118 0.265,-0.062 0.273,-0.006 0.268,0.052 m 0,0 0.027,-0.118 m 0,0 2.603,0.6 m 0,0 -0.027,0.119 m 0,0 0.263,0.071 0.243,0.124 0.211,0.172 0.17,0.214 0.122,0.244 0.067,0.264 0.009,0.273 -0.048,0.268 m 0,0 -0.173,1.279 0.207,1.275 0.57,1.159 0.882,0.942 1.119,0.644 1.258,0.29 1.288,-0.09 1.206,-0.461 1.019,-0.792 0.744,-1.055 0.404,-1.226 m 0,0 0.075,-0.263 0.128,-0.241 0.176,-0.208 0.216,-0.166 0.246,-0.118 0.265,-0.062 0.273,-0.006 0.268,0.052 m 0,0 0.027,-0.118 m 0,0 2.603,0.6 m 0,0 -0.027,0.119 m 0,0 0.263,0.07 0.243,0.125 0.211,0.172 0.17,0.213 0.122,0.245 0.067,0.264 0.009,0.273 -0.047,0.268 m 0,0 -0.161,0.884 m 0.89,3.002 0.756,0.769 1.119,0.644 1.258,0.29 1.288,-0.09 1.206,-0.461 1.019,-0.792 0.744,-1.055 0.404,-1.227 m 0,0 0.075,-0.262 0.128,-0.241 0.176,-0.208 0.216,-0.167 0.246,-0.117 0.052,-0.017 m 0.777,-0.099 0.004,-0.018 m 0,0 0.283,0.065 M 4.044,0.038 4.115,0.181 4.167,0.33 4.2,0.485 4.214,0.643 4.208,0.802 4.183,0.958 4.139,1.11 4.077,1.256 m 0,0 -0.404,1.226 -0.042,1.184 m 8.324,1.422 0.143,-0.342 m 0,0 0.064,-0.145 0.081,-0.136 0.061,-0.081 m 3.668,1.668 0.006,0.159 -0.013,0.158 -0.033,0.155 -0.051,0.15 -0.069,0.142 -0.087,0.133 -0.102,0.122 -0.116,0.107 m 0,0 -0.868,0.956 -0.481,0.956 m 6.884,4.879 0.376,-0.343 m 0,0 0.117,-0.106 0.13,-0.092 0.137,-0.073 m 2.625,3.039 -0.059,0.147 -0.076,0.139 -0.093,0.129 -0.108,0.116 -0.121,0.102 -0.133,0.086 -0.142,0.07 -0.151,0.051 m 0,0 -1.181,0.521 -0.745,0.593 m 4.091,7.374 0.617,-0.195 m 0,0 0.15,-0.05 0.156,-0.03 0.158,-0.012 0.053,0.001 m 1.052,3.901 -0.058,0.052 -0.126,0.097 -0.137,0.079 -0.146,0.063 -0.152,0.044 -0.156,0.024 -0.159,0.006 -0.158,-0.014 m 0,0 -1.291,-0.004 -0.808,0.197 m 0.493,8.414 0.778,0.1 m 0,0 0.158,0.016 0.154,0.035 0.149,0.054 0.1,0.049 m -0.729,3.984 -0.02,0.006 -0.154,0.036 -0.158,0.018 -0.159,-0.003 -0.157,-0.021 -0.153,-0.041 -0.147,-0.06 -0.138,-0.077 m 0,0 -1.178,-0.528 -0.695,-0.136 m -3.202,7.792 0.78,0.492 m 0,0 0.138,0.079 0.126,0.095 0.115,0.109 0.1,0.123 0.006,0.009 m -2.378,3.29 -0.118,-0.025 -0.151,-0.048 -0.144,-0.066 -0.135,-0.084 -0.123,-0.1 -0.11,-0.114 -0.096,-0.126 m 0,0 -0.862,-0.962 -0.471,-0.34 m -6.262,5.63 0.575,0.889 m 0,0 0.094,0.128 0.077,0.138 0.06,0.147 0.041,0.153 0.013,0.069 M 7.331,60.928 7.309,60.912 7.184,60.807 7.073,60.686 6.978,60.552 6.901,60.408 6.843,60.254 6.805,60.095 m 0,0 L 6.401,58.869 6.09,58.345 m -7.978,2.697 0.17,1.019 m 0,0 0.048,0.268 -0.01,0.273 -0.042,0.188 m -0.274,0.488 -0.043,0.045 -0.211,0.173 -0.242,0.124 -0.264,0.071 m 0,0 0.027,0.118 m 0,0 -2.603,0.6 m 0,0 -0.027,-0.119 m 0,0 -0.268,0.052 L -5.9,64.337 -6.165,64.274 -6.411,64.157 -6.627,63.99 -6.803,63.782 -6.931,63.541 -7.006,63.279 m 0,0 -0.404,-1.226 -0.744,-1.055 -1.019,-0.793 -1.206,-0.461 -1.288,-0.089 -1.258,0.29 -1.119,0.644 -0.883,0.943 -0.569,1.159 -0.207,1.274 0.174,1.279 m 0,0 0.048,0.269 -0.01,0.272 -0.067,0.265 -0.122,0.244 -0.17,0.213 -0.211,0.173 -0.242,0.124 -0.264,0.07 m 0,0 0.027,0.119 m 0,0 -2.603,0.6 m 0,0 -0.027,-0.119 m 0,0 -0.268,0.052 -0.273,-0.005 -0.265,-0.063 -0.246,-0.117 -0.216,-0.167 -0.176,-0.208 -0.128,-0.241 -0.075,-0.262 m 0,0 -0.404,-1.226 -0.744,-1.056 -1.019,-0.792 -1.206,-0.461 -1.288,-0.089 -1.258,0.29 -1.119,0.644 -0.883,0.943 -0.569,1.159 -0.207,1.274 0.174,1.279 m 0,0 0.047,0.269 -0.009,0.272 -0.067,0.265 -0.121,0.244 -0.17,0.213 -0.212,0.173 -0.242,0.124 -0.264,0.07 m 0,0 0.027,0.119 m 0,0 -2.603,0.6 m 0,0 -0.027,-0.119 m 0,0 -0.268,0.052 -0.273,-0.005 -0.265,-0.063 -0.246,-0.117 -0.216,-0.167 -0.176,-0.208 -0.128,-0.241 -0.075,-0.262 m 0,0 -0.404,-1.227 -0.744,-1.055 -1.019,-0.792 -1.206,-0.461 -1.288,-0.089 -1.258,0.29 -1.119,0.644 -0.883,0.943 -0.569,1.158 -0.207,1.275 0.174,1.279 m 0,0 0.048,0.269 -0.01,0.272 -0.067,0.264 -0.121,0.245 -0.17,0.213 -0.212,0.173 -0.242,0.124 -0.264,0.07 m 0,0 0.027,0.119 m 0,0 -2.603,0.6 m 0,0 -0.027,-0.12 m 0,0 -0.268,0.053 -0.273,-0.006 -0.265,-0.062 -0.246,-0.118 -0.216,-0.166 -0.176,-0.208 -0.128,-0.241 -0.075,-0.263 m 0,0 -0.404,-1.226 -0.744,-1.055 -1.019,-0.792 -1.206,-0.461 -1.288,-0.089 -1.258,0.29 -1.119,0.644 -0.883,0.942 -0.569,1.159 -0.207,1.275 0.174,1.279 m 0,0 0.048,0.268 -0.01,0.273 -0.067,0.264 -0.121,0.245 -0.17,0.213 -0.212,0.172 -0.242,0.125 -0.264,0.07 m 0,0 0.027,0.118 m 0,0 -2.603,0.601 m 0,0 -0.027,-0.12 m 0,0 -0.268,0.053 -0.273,-0.006 -0.265,-0.062 -0.246,-0.118 -0.216,-0.166 -0.176,-0.209 -0.128,-0.24 -0.075,-0.263 m 0,0 -0.404,-1.226 -0.744,-1.055 -1.019,-0.792 -1.206,-0.461 -1.288,-0.089 -1.258,0.29 -1.119,0.644 -0.883,0.942 -0.569,1.159 -0.207,1.274 0.174,1.28 m 0,0 0.048,0.268 -0.01,0.273 -0.067,0.264 -0.121,0.244 -0.17,0.214 -0.212,0.172 -0.242,0.124 -0.264,0.071 m 0,0 0.027,0.118 m 0,0 -2.603,0.6 m 0,0 -0.027,-0.119 m 0,0 -0.268,0.052 -0.273,-0.005 -0.265,-0.063 -0.246,-0.117 -0.216,-0.166 -0.176,-0.209 -0.128,-0.241 -0.075,-0.262 m 0,0 -0.404,-1.226 -0.744,-1.055 -1.019,-0.793 -1.206,-0.46 -1.288,-0.09 -1.258,0.291 -1.119,0.644 -0.883,0.942 -0.569,1.159 -0.207,1.274 0.174,1.28 m 0,0 0.048,0.268 -0.01,0.273 -0.067,0.264 -0.121,0.244 -0.17,0.214 -0.212,0.172 -0.242,0.124 -0.264,0.071 m 0,0 0.027,0.118 m 0,0 -2.603,0.6 m 0,0 -0.027,-0.119 m 0,0 -0.268,0.052 -0.273,-0.005 -0.265,-0.063 -0.246,-0.117 -0.216,-0.167 -0.176,-0.208 -0.128,-0.241 -0.075,-0.262 m 0,0 -0.404,-1.226 -0.744,-1.055 -1.019,-0.793 -1.206,-0.461 -1.288,-0.089 -1.258,0.29 -1.119,0.645 -0.883,0.942 -0.569,1.159 -0.207,1.274 0.174,1.279 m 0,0 0.048,0.269 -0.01,0.272 -0.067,0.265 -0.121,0.244 -0.17,0.213 -0.212,0.173 -0.242,0.124 -0.264,0.07 m 0,0 0.027,0.119 m 0,0 -2.603,0.6 m 0,0 -0.027,-0.119 m 0,0 -0.268,0.052 -0.273,-0.005 -0.265,-0.063 -0.246,-0.117 -0.216,-0.167 -0.176,-0.208 -0.128,-0.241 -0.075,-0.262 m 0,0 -0.404,-1.226 -0.744,-1.055 -1.019,-0.793 -1.206,-0.461 -1.288,-0.089 -1.258,0.29 -1.119,0.644 -0.883,0.943 -0.569,1.159 -0.207,1.274 0.174,1.279 m 0,0 0.048,0.269 -0.01,0.272 -0.067,0.265 -0.121,0.244 -0.17,0.213 -0.212,0.173 -0.242,0.124 -0.264,0.07 m 0,0 0.027,0.119 m 0,0 -2.603,0.6 m 0,0 -0.027,-0.119 m 0,0 -0.268,0.052 -0.273,-0.005 -0.265,-0.063 -0.246,-0.117 -0.216,-0.167 -0.176,-0.208 -0.128,-0.241 -0.075,-0.262 m 0,0 -0.404,-1.227 -0.744,-1.055 -1.019,-0.792 -1.206,-0.461 -1.288,-0.089 -1.258,0.29 -1.119,0.644 -0.883,0.943 -0.569,1.158 -0.207,1.275 0.174,1.279 m 0,0 0.048,0.269 -0.01,0.272 -0.067,0.265 -0.121,0.244 -0.17,0.213 -0.212,0.173 -0.242,0.124 -0.264,0.07 m 0,0 0.027,0.119 m 0,0 -2.603,0.6 m 0,0 -0.027,-0.119 m 0,0 -0.268,0.052 -0.273,-0.006 -0.265,-0.062 -0.246,-0.118 -0.216,-0.166 -0.176,-0.208 -0.128,-0.241 -0.075,-0.263 m 0,0 -0.404,-1.226 -0.744,-1.055 -1.019,-0.792 -1.206,-0.461 -1.288,-0.089 -1.258,0.29 -1.119,0.644 -0.883,0.943 -0.569,1.158 -0.207,1.275 0.174,1.279 m 0,0 0.048,0.268 -0.01,0.273 -0.067,0.264 -0.121,0.245 -0.17,0.213 -0.212,0.172 -0.242,0.125 -0.264,0.07 m 0,0 0.027,0.119 m 0,0 -2.603,0.6 m 0,0 -0.027,-0.12 m 0,0 -0.268,0.053 -0.273,-0.006 -0.265,-0.062 -0.246,-0.118 -0.216,-0.166 -0.176,-0.209 -0.128,-0.24 -0.075,-0.263 m 0,0 -0.404,-1.226 -0.744,-1.055 -1.019,-0.792 -1.206,-0.461 -1.288,-0.089 -1.258,0.29 -1.119,0.644 -0.883,0.942 -0.569,1.159 -0.207,1.274 0.174,1.28 m 0,0 0.048,0.268 -0.01,0.273 -0.067,0.264 -0.121,0.245 -0.17,0.213 -0.212,0.172 -0.242,0.125 -0.264,0.07 m 0,0 0.027,0.118 m 0,0 -2.603,0.601 m 0,0 -0.027,-0.12 m 0,0 -0.268,0.052 -0.273,-0.005 -0.265,-0.063 -0.246,-0.117 -0.216,-0.166 -0.176,-0.209 -0.128,-0.241 -0.075,-0.262 m 0,0 -0.404,-1.226 -0.744,-1.055 -1.019,-0.793 -1.206,-0.46 -1.288,-0.09 -1.258,0.291 -1.119,0.644 -0.883,0.942 -0.569,1.159 -0.207,1.274 0.174,1.28 m 0,0 0.048,0.268 -0.01,0.273 -0.067,0.264 -0.121,0.244 -0.17,0.214 -0.212,0.172 -0.242,0.124 -0.264,0.071 m 0,0 0.027,0.118 m 0,0 -2.603,0.6 m 0,0 -0.027,-0.119 m 0,0 -0.268,0.052 -0.273,-0.005 -0.265,-0.063 -0.246,-0.117 -0.216,-0.167 -0.176,-0.208 -0.128,-0.241 -0.075,-0.262 m 0,0 -0.404,-1.226 -0.744,-1.055 -1.019,-0.793 -1.206,-0.46 -1.288,-0.09 -1.258,0.29 -1.119,0.645 -0.883,0.942 -0.569,1.159 -0.207,1.274 0.174,1.279 m 0,0 0.048,0.269 -0.01,0.273 -0.067,0.264 -0.121,0.244 -0.17,0.213 -0.212,0.173 -0.242,0.124 -0.264,0.07 m 0,0 0.027,0.119 m 0,0 -2.603,0.6 m 0,0 -0.027,-0.119 m 0,0 -0.268,0.052 -0.273,-0.005 -0.265,-0.063 -0.246,-0.117 -0.216,-0.167 -0.176,-0.208 -0.128,-0.241 -0.075,-0.262 m 0,0 -0.404,-1.226 -0.744,-1.055 -1.019,-0.793 -1.206,-0.461 -1.288,-0.089 -1.258,0.29 -1.119,0.644 -0.883,0.943 -0.569,1.159 -0.207,1.274 0.174,1.279 m 0,0 0.048,0.269 -0.01,0.272 -0.067,0.265 -0.121,0.244 -0.17,0.213 -0.212,0.173 -0.242,0.124 -0.264,0.07 m 0,0 0.027,0.119 m 0,0 -0.947,0.218 m 0,0 -0.245,0.056 -0.245,0.056 -0.245,0.054 -0.245,0.054 -0.245,0.053 -0.246,0.052 -0.246,0.051 -0.245,0.051 m 0,0 -0.208,-0.052 -0.195,-0.086 -0.179,-0.116 -0.157,-0.145 -0.131,-0.169 -0.101,-0.188 -0.069,-0.202 -0.034,-0.211 m 0,0 -0.29,-1.257 -0.645,-1.119 -0.942,-0.883 -1.159,-0.569 -1.274,-0.207 -1.28,0.174 -1.173,0.539 -0.965,0.857 -0.673,1.102 -0.323,1.25 0.056,1.29 m 0,0 0.023,0.212 -0.012,0.213 -0.048,0.208 -0.081,0.197 -0.112,0.181 -0.141,0.16 -0.166,0.135 -0.185,0.105 m 0,0 -0.413,0.027 -0.412,0.025 -0.413,0.023 -0.413,0.021 -0.413,0.019 -0.413,0.016 -0.413,0.014 -0.413,0.013 m 0,0 -0.195,-0.088 -0.178,-0.118 -0.155,-0.146 -0.13,-0.169 -0.1,-0.189 -0.067,-0.203 -0.032,-0.211 0.002,-0.213 m 0,0 -0.067,-1.29 -0.44,-1.213 -0.775,-1.033 -1.042,-0.762 -1.219,-0.425 -1.29,-0.051 -1.249,0.327 -1.1,0.677 -0.854,0.968 -0.535,1.175 -0.169,1.28 m 0,0 -0.014,0.213 -0.049,0.207 -0.083,0.197 -0.114,0.18 -0.142,0.159 -0.167,0.133 -0.186,0.104 -0.201,0.072 m 0,0 -0.411,-0.045 -0.411,-0.047 -0.41,-0.049 -0.41,-0.051 -0.41,-0.054 -0.41,-0.055 -0.409,-0.058 -0.409,-0.06 m 0,0 -0.177,-0.12 -0.154,-0.147 -0.128,-0.171 -0.099,-0.189 -0.065,-0.203 -0.031,-0.212 0.005,-0.213 0.039,-0.21 m 0,0 0.158,-1.281 -0.223,-1.272 -0.584,-1.152 -0.894,-0.931 -1.126,-0.63 -1.262,-0.274 -1.287,0.105 -1.2,0.476 -1.009,0.805 -0.731,1.064 -0.389,1.231 m 0,0 -0.051,0.207 -0.084,0.196 -0.116,0.179 -0.143,0.158 -0.168,0.132 -0.187,0.102 -0.202,0.07 -0.21,0.036 m 0,0 -0.397,-0.116 -0.396,-0.118 -0.396,-0.119 -0.395,-0.122 -0.394,-0.124 -0.394,-0.125 -0.393,-0.128 -0.393,-0.13 m 0,0 -0.153,-0.149 -0.127,-0.171 -0.096,-0.191 -0.064,-0.204 -0.029,-0.211 0.006,-0.214 0.042,-0.209 0.076,-0.2 m 0,0 0.377,-1.234 0.002,-1.291 -0.375,-1.236 -0.719,-1.072 -1,-0.817 -1.195,-0.489 -1.286,-0.119 -1.264,0.26 -1.134,0.617 -0.905,0.922 -0.596,1.145 m 0,0 -0.086,0.195 -0.117,0.178 -0.145,0.156 -0.169,0.131 -0.188,0.1 -0.202,0.068 -0.211,0.034 -0.213,-0.001 m 0,0 -0.371,-0.183 -0.37,-0.184 -0.369,-0.187 -0.368,-0.188 -0.366,-0.191 -0.366,-0.192 -0.365,-0.194 -0.364,-0.196 m 0,0 -0.125,-0.173 -0.095,-0.191 -0.062,-0.205 -0.028,-0.211 0.008,-0.214 0.044,-0.209 0.077,-0.199 0.109,-0.183 m 0,0 0.586,-1.151 0.226,-1.271 -0.155,-1.282 -0.522,-1.181 -0.843,-0.977 -1.092,-0.689 -1.245,-0.341 -1.29,0.036 -1.224,0.412 -1.051,0.75 -0.786,1.024 m 0,0 -0.119,0.177 -0.146,0.155 -0.17,0.129 -0.189,0.099 -0.203,0.066 -0.211,0.032 -0.213,-0.003 -0.21,-0.038 m 0,0 -0.333,-0.244 -0.332,-0.246 -0.331,-0.248 -0.33,-0.25 -0.328,-0.251 -0.327,-0.253 -0.326,-0.254 -0.324,-0.257 m 0,0 -0.093,-0.192 -0.06,-0.204 -0.026,-0.212 0.01,-0.214 0.045,-0.208 0.079,-0.199 0.11,-0.182 0.14,-0.162 m 0,0 0.777,-1.031 0.443,-1.213 0.07,-1.289 -0.309,-1.254 -0.661,-1.109 -0.955,-0.868 -1.167,-0.552 -1.277,-0.188 -1.277,0.192 -1.165,0.557 -0.952,0.872 m 0,0 -0.148,0.154 -0.171,0.127 -0.19,0.097 -0.203,0.065 -0.211,0.03 -0.213,-0.005 -0.21,-0.04 -0.2,-0.074 m 0,0 -0.286,-0.299 -0.284,-0.3 -0.283,-0.301 -0.281,-0.303 -0.28,-0.304 -0.278,-0.306 -0.276,-0.307 -0.275,-0.309 m 0,0 -0.059,-0.205 -0.024,-0.212 0.012,-0.214 0.047,-0.208 0.08,-0.198 0.112,-0.181 0.141,-0.161 0.165,-0.135 m 0,0 0.945,-0.88 0.646,-1.118 0.293,-1.257 -0.086,-1.288 -0.458,-1.207 -0.79,-1.022 -1.054,-0.746 -1.225,-0.407 -1.291,-0.032 -1.244,0.346 -1.089,0.693 m 0,0 -0.172,0.126 -0.19,0.096 -0.204,0.063 -0.212,0.028 -0.213,-0.007 -0.209,-0.042 -0.199,-0.076 -0.184,-0.107 m 0,0 -0.23,-0.344 -0.228,-0.345 -0.226,-0.346 -0.224,-0.347 -0.223,-0.348 -0.221,-0.35 -0.219,-0.35 -0.217,-0.352 m 0,0 -0.022,-0.212 0.013,-0.213 0.049,-0.208 0.082,-0.197 0.114,-0.181 0.142,-0.159 0.166,-0.134 0.186,-0.105 m 0,0 1.083,-0.703 0.831,-0.988 0.507,-1.187 0.139,-1.284 -0.242,-1.268 -0.601,-1.143 -0.908,-0.918 -1.136,-0.613 -1.265,-0.256 -1.285,0.124 -1.193,0.494 m 0,0 -0.192,0.094 -0.204,0.061 -0.212,0.027 -0.213,-0.009 -0.208,-0.043 -0.199,-0.078 -0.183,-0.109 -0.163,-0.139 m 0,0 -0.166,-0.378 -0.165,-0.379 -0.163,-0.38 -0.16,-0.381 -0.159,-0.381 -0.157,-0.383 -0.154,-0.383 -0.153,-0.384 m 0,0 0.015,-0.213 0.05,-0.208 0.084,-0.196 0.115,-0.18 0.143,-0.158 0.168,-0.132 0.187,-0.103 0.202,-0.071 m 0,0 1.188,-0.504 0.99,-0.829 0.705,-1.081 0.36,-1.24 -0.018,-1.291 -0.393,-1.23 -0.735,-1.062 -1.012,-0.801 -1.202,-0.472 -1.287,-0.1 -1.261,0.279 m 0,0 -0.205,0.059 -0.211,0.025 -0.213,-0.01 -0.209,-0.046 -0.198,-0.079 -0.182,-0.111 -0.161,-0.14 -0.136,-0.164 m 0,0 -0.099,-0.402 -0.096,-0.401 -0.094,-0.403 -0.092,-0.403 -0.09,-0.403 -0.088,-0.404 -0.086,-0.405 -0.084,-0.404 m 0,0 0.052,-0.207 0.085,-0.196 0.117,-0.179 0.145,-0.157 0.168,-0.131 0.188,-0.101 0.202,-0.069 0.211,-0.034 m 0,0 1.258,-0.291 1.119,-0.644 0.882,-0.942 0.569,-1.159 0.207,-1.275 -0.174,-1.279 -0.539,-1.173 -0.858,-0.965 -1.101,-0.673 -1.25,-0.323 -1.29,0.056 m 0,0 -0.212,0.023 -0.213,-0.012 -0.208,-0.047 -0.197,-0.081 -0.182,-0.113 -0.16,-0.141 -0.134,-0.165 -0.106,-0.186 m 0,0 -0.027,-0.412 -0.025,-0.413 -0.023,-0.412 -0.021,-0.413 -0.018,-0.413 -0.017,-0.413 -0.014,-0.413 -0.012,-0.414 m 0,0 0.087,-0.194 0.118,-0.178 0.146,-0.156 0.169,-0.13 0.189,-0.099 0.203,-0.067 0.211,-0.033 0.213,0.003 m 0,0 1.29,-0.068 1.213,-0.44 1.033,-0.775 0.762,-1.042 0.425,-1.22 0.051,-1.29 -0.328,-1.249 -0.677,-1.099 -0.968,-0.854 -1.175,-0.535 -1.28,-0.169 m 0,0 -0.213,-0.014 -0.207,-0.049 -0.197,-0.083 -0.18,-0.114 -0.159,-0.142 -0.133,-0.167 -0.104,-0.186 -0.072,-0.201 m 0,0 0.045,-0.411 0.047,-0.41 0.049,-0.411 0.051,-0.41 0.054,-0.41 0.055,-0.409 0.058,-0.41 0.059,-0.409 m 0,0 0.12,-0.176 0.147,-0.155 0.171,-0.128 0.19,-0.098 0.203,-0.066 0.211,-0.031 0.214,0.005 0.209,0.04 m 0,0 1.282,0.157 1.271,-0.223 1.152,-0.584 0.931,-0.894 0.63,-1.127 0.274,-1.262 -0.105,-1.286 -0.476,-1.2 -0.805,-1.01 -1.065,-0.73 -1.231,-0.389 m 0,0 -0.207,-0.051 -0.196,-0.084 -0.179,-0.116 -0.158,-0.143 -0.131,-0.168 -0.103,-0.187 -0.07,-0.202 -0.035,-0.21 m 0,0 0.115,-0.397 0.118,-0.396 0.119,-0.396 0.122,-0.395 0.124,-0.394 0.125,-0.394 0.128,-0.393 0.13,-0.393 m 0,0 0.149,-0.153 0.171,-0.127 0.191,-0.096 0.204,-0.064 0.211,-0.029 0.214,0.006 0.209,0.042 0.2,0.075 m 0,0 1.234,0.378 1.291,10e-4 1.236,-0.375 1.072,-0.719 0.816,-1 0.489,-1.195 0.12,-1.286 -0.261,-1.264 -0.617,-1.134 -0.922,-0.904 -1.145,-0.597 m 0,0 -0.195,-0.086 -0.178,-0.117 -0.156,-0.145 -0.131,-0.169 -0.1,-0.188 -0.069,-0.202 -0.033,-0.21 0.001,-0.214 m 0,0 0.183,-0.371 0.184,-0.369 0.187,-0.369 0.188,-0.368 0.19,-0.367 0.193,-0.366 0.194,-0.365 0.196,-0.364 m 0,0 0.173,-0.125 0.191,-0.095 0.204,-0.062 0.212,-0.027 0.213,0.008 0.209,0.043 0.199,0.077 0.184,0.109 m 0,0 1.15,0.586 1.271,0.226 1.282,-0.155 1.181,-0.522 0.977,-0.844 0.69,-1.091 0.341,-1.245 -0.037,-1.291 -0.412,-1.224 -0.75,-1.05 -1.024,-0.787 m 0,0 -0.177,-0.118 -0.155,-0.147 -0.129,-0.17 -0.099,-0.188 -0.067,-0.203 -0.032,-0.211 0.003,-0.213 0.039,-0.21 m 0,0 0.244,-0.333 0.246,-0.333 0.248,-0.33 0.249,-0.33 0.251,-0.328 0.253,-0.327 0.254,-0.326 0.257,-0.324 m 0,0 0.192,-0.094 0.205,-0.06 0.211,-0.026 0.214,0.01 0.208,0.045 0.199,0.079 0.182,0.111 0.162,0.139 m 108.763,68.204 1.258,-1.212 0.968,-1.455 0.632,-1.628 0.268,-1.727 -0.11,-1.743 -0.482,-1.679 -0.832,-1.536 -1.142,-1.322 -1.4,-1.045 -1.592,-0.72 -1.709,-0.36 -1.747,0.015 -1.703,0.39 -1.579,0.748 -1.381,1.069 -1.119,1.341 -0.805,1.551 -0.453,1.687 -0.079,1.745 0.297,1.721 0.661,1.618 0.993,1.437 1.279,1.19 1.504,0.888 1.661,0.543 1.738,0.174 1.735,-0.204 1.65,-0.572 1.489,-0.914 m -1.735,-2.242 -1.238,0.713 -1.384,0.352 -1.427,-0.035 -1.366,-0.419 -1.202,-0.771 -0.949,-1.067 -0.626,-1.284 -0.257,-1.405 0.132,-1.422 0.511,-1.333 0.852,-1.147 1.129,-0.874 1.324,-0.537 1.419,-0.16 1.409,0.229 1.296,0.6 1.086,0.928 0.795,1.186 0.445,1.357 0.063,1.427 -0.324,1.391 -0.688,1.252 -1,1.019 m -40.032,34.571 1.258,-1.212 0.967,-1.455 0.633,-1.628 0.268,-1.727 -0.11,-1.743 -0.482,-1.679 -0.832,-1.536 -1.142,-1.322 -1.4,-1.045 -1.592,-0.72 -1.709,-0.36 -1.747,0.015 -1.703,0.39 -1.579,0.748 -1.382,1.069 -1.119,1.341 -0.805,1.551 -0.452,1.687 -0.08,1.745 0.298,1.721 0.661,1.618 0.993,1.437 1.278,1.19 1.505,0.888 1.66,0.543 1.739,0.174 1.735,-0.204 1.65,-0.572 1.489,-0.914 m -1.735,-2.242 -1.238,0.713 -1.384,0.351 -1.428,-0.034 -1.365,-0.419 -1.202,-0.771 -0.949,-1.067 -0.626,-1.284 -0.257,-1.405 0.132,-1.422 0.511,-1.333 0.851,-1.147 1.13,-0.874 1.323,-0.537 1.419,-0.16 1.41,0.229 1.296,0.6 1.085,0.928 0.795,1.186 0.446,1.357 0.063,1.427 -0.325,1.391 -0.687,1.252 -1,1.019 m -43.653,-29.733 -1.238,0.713 -1.384,0.352 -1.428,-0.035 -1.366,-0.419 -1.202,-0.771 -0.949,-1.067 -0.626,-1.284 -0.256,-1.405 0.132,-1.422 0.51,-1.333 0.852,-1.147 1.129,-0.874 1.324,-0.537 1.419,-0.16 1.41,0.229 1.295,0.6 1.086,0.928 0.795,1.187 0.445,1.356 0.063,1.427 -0.324,1.391 -0.688,1.252 -0.999,1.019 m 14.788,-50.704 -1.238,0.712 -1.384,0.352 -1.428,-0.035 -1.366,-0.419 -1.201,-0.771 -0.95,-1.067 -0.626,-1.284 -0.256,-1.405 0.132,-1.422 0.51,-1.333 0.852,-1.147 1.129,-0.874 1.324,-0.537 1.419,-0.16 1.41,0.229 1.295,0.6 1.086,0.928 0.795,1.187 0.445,1.356 0.063,1.427 -0.324,1.391 -0.688,1.252 -0.999,1.02 m 52.793,-1.605 -1.238,0.712 -1.384,0.352 -1.428,-0.034 -1.366,-0.419 -1.201,-0.771 -0.95,-1.067 -0.626,-1.284 -0.256,-1.405 0.132,-1.422 0.51,-1.334 0.852,-1.146 1.129,-0.874 1.324,-0.537 1.419,-0.16 1.41,0.228 1.295,0.601 1.086,0.928 0.795,1.186 0.445,1.357 0.063,1.427 -0.324,1.391 -0.688,1.251 -0.999,1.02 m -65.846,54.551 1.257,-1.212 0.968,-1.455 0.632,-1.628 0.268,-1.726 -0.11,-1.744 -0.482,-1.679 -0.831,-1.536 -1.143,-1.322 -1.4,-1.045 -1.592,-0.72 -1.709,-0.36 -1.747,0.015 -1.703,0.39 -1.579,0.748 -1.381,1.069 -1.119,1.341 -0.805,1.551 -0.453,1.687 -0.079,1.745 0.298,1.722 0.66,1.617 0.993,1.437 1.279,1.19 1.504,0.888 1.661,0.543 1.738,0.174 1.735,-0.204 1.651,-0.572 1.489,-0.914 m 14.788,-50.705 1.257,-1.212 0.968,-1.455 0.632,-1.628 0.268,-1.726 -0.11,-1.744 -0.482,-1.679 -0.831,-1.536 -1.143,-1.322 -1.4,-1.045 -1.592,-0.719 -1.709,-0.361 -1.747,0.015 -1.703,0.391 -1.579,0.747 -1.381,1.069 -1.119,1.341 -0.805,1.551 -0.453,1.687 -0.079,1.745 0.298,1.722 0.66,1.617 0.993,1.437 1.279,1.19 1.505,0.888 1.66,0.543 1.738,0.174 1.735,-0.204 1.651,-0.572 1.489,-0.914 m 52.793,-1.604 1.257,-1.213 0.968,-1.454 0.632,-1.629 0.268,-1.726 -0.11,-1.743 -0.482,-1.679 -0.831,-1.537 -1.143,-1.321 -1.4,-1.045 -1.592,-0.72 -1.709,-0.361 -1.747,0.016 -1.703,0.39 -1.579,0.747 -1.381,1.07 -1.119,1.341 -0.805,1.55 -0.453,1.688 -0.079,1.745 0.298,1.721 0.66,1.617 0.993,1.438 1.279,1.19 1.505,0.887 1.66,0.544 1.738,0.174 1.735,-0.204 1.651,-0.573 1.489,-0.913 m -68.409,-18.57 3.936,-2.81 4.143,-2.496 4.323,-2.168 4.478,-1.826 4.606,-1.474 4.707,-1.112 4.779,-0.744 4.821,-0.372 4.837,0.003 4.821,0.378 4.778,0.751 4.705,1.118 4.604,1.48 4.476,1.831 4.321,2.174 4.139,2.501 3.932,2.815 3.703,3.111 3.451,3.389 3.177,3.646 2.886,3.881 2.576,4.093 2.251,4.28 1.913,4.442 1.562,4.577 1.204,4.684 0.836,4.763 0.465,4.814 0.091,4.836 -0.284,4.827 -0.658,4.792 -1.027,4.726 -1.39,4.632 -1.745,4.51 -2.089,4.362 -2.421,4.187 -2.738,3.986 -3.038,3.763 -3.321,3.515 -3.584,3.248 -3.824,2.96 -4.043,2.655 -4.236,2.334 -4.404,1.998 -4.545,1.652 -4.66,1.294 -4.746,0.928 -4.804,0.559 -4.833,0.184 -4.832,-0.19 -4.804,-0.565 -4.745,-0.935 -4.658,-1.3 -4.543,-1.657 -4.402,-2.004 -4.233,-2.339 -4.039,-2.661 -3.82,-2.965 -3.58,-3.252 -3.316,-3.52 -3.034,-3.766 -2.733,-3.99 -2.415,-4.19 -2.084,-4.365 -1.739,-4.512 -1.384,-4.634 -1.02,-4.728 -0.652,-4.792 -0.278,-4.828 0.097,-4.835 0.471,-4.813 0.843,-4.763 1.21,-4.682 1.568,-4.575 1.919,-4.44 2.256,-4.277 2.582,-4.09 2.89,-3.877 3.182,-3.642 3.455,-3.384 3.707,-3.106 m 16.483,21.295 2.996,-2.081 3.194,-1.763 3.359,-1.425 3.487,-1.071 3.579,-0.708 3.632,-0.336 3.648,0.04 3.625,0.414 3.562,0.785 3.463,1.147 3.327,1.497 3.155,1.831 2.951,2.146 2.714,2.438 2.449,2.704 2.158,2.941 1.844,3.148 1.51,3.32 1.162,3.459 0.799,3.559 0.429,3.623 0.055,3.648 -0.321,3.633 -0.693,3.582 -1.057,3.492 -1.411,3.364 -1.75,3.201 -2.069,3.005 -2.367,2.776 -2.64,2.517 -2.885,2.233 -3.099,1.925 -3.28,1.596 -3.428,1.249 -3.537,0.891 -3.611,0.523 -3.645,0.148 -3.641,-0.227 -3.598,-0.601 -3.518,-0.967 -3.399,-1.323 -3.246,-1.667 -3.057,-1.991 -2.835,-2.295 -2.585,-2.574 -2.307,-2.826 -2.004,-3.049 -1.679,-3.238 -1.338,-3.394 -0.981,-3.514 -0.616,-3.596 -0.242,-3.64 0.134,-3.646 0.507,-3.612 0.876,-3.542 1.236,-3.432 1.582,-3.287 1.912,-3.107 2.221,-2.894 2.507,-2.651 2.766,-2.378 m -8.532,62.333 -1.416,1.57 -0.77,1.931 -0.045,2.166 0.747,2.064 1.332,1.562 1.567,0.934 1.672,0.407 1.778,-0.101 1.806,-0.701 1.594,-1.373 1.044,-1.924 0.279,-2.141 -0.467,-2.017 -1.078,-1.68 -1.537,-1.209 -1.827,-0.643 -1.923,-0.024 -1.828,0.588 -0.928,0.591 m -18.746,-52.239 -1.26,1.333 -0.81,1.703 -0.239,1.756 0.274,1.702 0.805,1.631 1.397,1.415 1.934,0.917 2.184,0.169 2.047,-0.607 1.639,-1.224 1.102,-1.647 0.497,-1.885 -0.134,-1.928 -0.739,-1.773 -1.266,-1.447 -1.692,-0.979 -1.994,-0.38 -2.104,0.346 -1.641,0.898 m 43.889,-33.971 -1.404,1.552 -0.772,1.901 -0.064,2.165 0.725,2.06 1.361,1.614 1.755,1.007 1.937,0.361 1.923,-0.284 1.717,-0.879 1.341,-1.374 0.835,-1.737 0.235,-1.957 -0.449,-2.007 -1.177,-1.81 -1.781,-1.288 -1.998,-0.544 -1.838,0.118 -1.609,0.614 -0.737,0.488 m 45.87,31.243 -1.35,1.468 -0.801,1.876 -0.125,1.993 0.524,1.885 1.092,1.599 1.537,1.158 1.821,0.606 1.941,-0.008 1.891,-0.663 1.629,-1.327 1.097,-1.895 0.338,-2.141 -0.378,-1.936 -0.861,-1.546 -1.241,-1.198 -1.63,-0.824 -1.977,-0.29 -2.101,0.435 -1.406,0.808 m -15.539,53.281 -1.324,1.426 -0.789,1.764 -0.183,1.911 0.439,1.881 1.051,1.679 1.625,1.286 2.068,0.664 2.188,-0.126 1.865,-0.821 1.338,-1.221 0.875,-1.481 0.421,-1.739 -0.151,-1.943 -0.863,-1.929 -1.546,-1.551 -1.967,-0.878 -2.06,-0.131 -1.916,0.548 -1.071,0.661 m -65.231,-84.276 4.02,-2.875 4.227,-2.564 4.408,-2.236 4.565,-1.896 4.695,-1.546 4.799,-1.186 4.875,-0.82 4.922,-0.449 4.943,-0.075 4.934,0.298 4.897,0.671 4.833,1.04 4.74,1.402 4.62,1.756 4.475,2.101 4.303,2.433 4.106,2.752 3.887,3.054 3.644,3.34 3.381,3.605 3.099,3.851 2.799,4.074 2.483,4.275 2.153,4.45 1.809,4.6 1.457,4.723 1.095,4.82 0.728,4.89 0.355,4.93 -0.018,4.943 -0.392,4.927 -0.763,4.884 -1.131,4.812 -1.492,4.713 -1.843,4.587 -2.185,4.433 -2.514,4.256 -2.829,4.054 -3.128,3.828 -3.407,3.581 -3.669,3.312 -3.909,3.026 -4.127,2.721 -4.32,2.402 -4.49,2.067 -4.634,1.723 -4.75,1.367 -4.84,1.003 -4.902,0.635 -4.936,0.263 -4.942,-0.112 -4.919,-0.485 -4.869,-0.856 -4.79,-1.222 -4.683,-1.58 -4.551,-1.93 -4.392,-2.269 -4.207,-2.594 -4,-2.905 -3.768,-3.199 -3.515,-3.475 -3.243,-3.731 -2.951,-3.966 -2.643,-4.177 -2.319,-4.365 -1.982,-4.528 -1.635,-4.666 -1.277,-4.775 -0.912,-4.858 -0.542,-4.913 -0.168,-4.941 0.205,-4.938 0.578,-4.91 0.948,-4.851 1.312,-4.766 1.668,-4.653 2.016,-4.513 2.352,-4.348 2.673,-4.158 2.98,-3.943 3.27,-3.707 3.541,-3.449 3.792,-3.172 m -1.478,-1.909 4.068,-2.916 4.273,-2.607 4.454,-2.284 4.61,-1.949 4.742,-1.603 4.847,-1.249 4.926,-0.887 4.978,-0.521 5.003,-0.152 5,0.218 4.971,0.586 4.914,0.952 4.83,1.313 4.72,1.665 4.584,2.01 4.424,2.342 4.238,2.663 4.03,2.969 3.799,3.258 3.549,3.53 3.278,3.782 2.99,4.014 2.686,4.224 2.366,4.411 2.034,4.573 1.691,4.711 1.338,4.823 0.978,4.909 0.613,4.968 0.244,4.999 -0.125,5.004 -0.495,4.98 -0.861,4.931 -1.223,4.854 -1.578,4.75 -1.924,4.62 -2.261,4.466 -2.584,4.287 -2.893,4.084 -3.188,3.859 -3.463,3.613 -3.721,3.348 -3.959,3.064 -4.173,2.763 -4.366,2.447 -4.535,2.118 -4.68,1.777 -4.797,1.427 -4.89,1.069 -4.955,0.705 -4.994,0.337 -5.006,-0.033 -4.989,-0.403 -4.945,-0.77 -4.876,-1.133 -4.778,-1.49 -4.655,-1.838 -4.507,-2.178 -4.334,-2.504 -4.137,-2.818 -3.917,-3.116 -3.677,-3.396 -3.416,-3.658 -3.136,-3.901 -2.84,-4.122 -2.527,-4.32 -2.202,-4.496 -1.863,-4.645 -1.516,-4.77 -1.158,-4.87 -0.797,-4.941 -0.429,-4.987 -0.059,-5.005 0.31,-4.996 0.678,-4.959 1.043,-4.895 1.401,-4.805 1.753,-4.689 2.094,-4.546 2.424,-4.379 2.74,-4.188 3.043,-3.975 3.328,-3.739 3.595,-3.482 3.842,-3.208 m -2.603,-3.363 -3.992,3.328 -3.742,3.607 -3.472,3.867 -3.184,4.108 -2.879,4.327 -2.559,4.524 -2.226,4.696 -1.882,4.845 -1.527,4.968 -1.165,5.065 -0.796,5.136 -0.423,5.18 -0.049,5.197 0.327,5.187 0.7,5.15 1.07,5.086 1.434,4.995 1.791,4.879 2.138,4.737 2.474,4.571 2.798,4.38 3.106,4.167 3.399,3.931 3.674,3.676 3.93,3.402 4.165,3.109 4.378,2.8 4.569,2.478 4.736,2.141 4.877,1.794 4.995,1.437 5.085,1.073 5.15,0.703 5.187,0.33 5.197,-0.046 5.18,-0.42 5.137,-0.793 5.065,-1.161 4.969,-1.524 4.846,-1.879 4.698,-2.223 4.525,-2.556 4.329,-2.877 4.11,-3.181 3.869,-3.469 3.61,-3.74 3.33,-3.99 3.033,-4.221 2.721,-4.428 2.394,-4.613 2.055,-4.773 1.706,-4.91 1.347,-5.02 0.981,-5.103 0.61,-5.162 0.236,-5.192 -0.139,-5.195 -0.514,-5.172 -0.885,-5.121 -1.253,-5.044 -1.614,-4.941 -1.965,-4.811 -2.308,-4.657 -2.638,-4.478 -2.954,-4.276 -3.255,-4.052 -3.538,-3.806 -3.805,-3.542 -4.049,-3.257 -4.275,-2.957 -4.476,-2.64 -4.656,-2.311 -4.81,-1.969 -4.939,-1.616 -5.043,-1.256 -5.121,-0.889 -5.172,-0.517 -5.195,-0.142 -5.192,0.233 -5.162,0.607 -5.104,0.978 -5.021,1.343 -4.91,1.703 -4.775,2.052 -4.615,2.391 -4.43,2.719 -4.222,3.03 m 115.343,92.312 0.095,-0.256 0.038,-0.27 -0.019,-0.272 -0.076,-0.262 -0.129,-0.24 -0.177,-0.207 -0.217,-0.165 -0.247,-0.116 m 0,0 -1.145,-0.597 -0.922,-0.904 -0.618,-1.134 -0.26,-1.264 0.12,-1.286 0.489,-1.195 0.816,-1 1.072,-0.719 1.235,-0.375 1.291,10e-4 1.235,0.378 m 1.776,-0.762 -0.112,0.249 -0.162,0.22 -0.204,0.18 -0.238,0.134 -0.26,0.08 -0.272,0.023 -0.271,-0.034 -0.257,-0.09 m 2.482,-3.033 -0.085,0.285 -0.085,0.285 -0.087,0.284 -0.088,0.284 -0.088,0.284 -0.09,0.283 -0.091,0.283 -0.092,0.283 m 0.706,-2.271 0.049,-0.269 -0.009,-0.272 -0.066,-0.265 -0.121,-0.245 -0.169,-0.213 -0.211,-0.174 -0.242,-0.125 -0.263,-0.071 m 0,0 -1.231,-0.389 -1.065,-0.73 -0.805,-1.009 -0.476,-1.2 -0.106,-1.287 0.274,-1.262 0.631,-1.127 0.931,-0.894 1.151,-0.584 1.272,-0.223 1.281,0.157 m 1.617,-1.058 -0.067,0.265 -0.121,0.244 -0.17,0.213 -0.211,0.173 -0.243,0.124 -0.263,0.071 -0.273,0.013 -0.269,-0.045 m 1.917,-3.417 -0.033,0.295 -0.035,0.295 -0.036,0.295 -0.037,0.296 -0.038,0.294 -0.039,0.295 -0.041,0.295 -0.041,0.294 m 0.3,-2.359 0.002,-0.273 -0.056,-0.267 -0.111,-0.249 -0.161,-0.22 -0.204,-0.181 -0.237,-0.135 -0.261,-0.081 -0.271,-0.024 m 0,0 -1.28,-0.169 -1.175,-0.535 -0.969,-0.854 -0.677,-1.099 -0.327,-1.249 0.051,-1.29 0.424,-1.219 0.762,-1.042 1.033,-0.775 1.213,-0.441 1.289,-0.067 m 1.409,-1.323 -0.02,0.272 -0.077,0.262 -0.13,0.239 -0.178,0.207 -0.218,0.164 -0.247,0.115 -0.266,0.061 -0.273,0.003 m 1.295,-3.699 0.018,0.297 0.017,0.297 0.016,0.296 0.015,0.297 0.014,0.297 0.012,0.298 0.012,0.297 0.01,0.297 m -0.114,-2.376 -0.046,-0.269 -0.101,-0.253 -0.153,-0.226 -0.197,-0.189 -0.232,-0.143 -0.257,-0.091 -0.27,-0.034 -0.272,0.023 m 0,0 -1.29,0.056 -1.25,-0.323 -1.102,-0.673 -0.858,-0.965 -0.539,-1.173 -0.174,-1.279 0.207,-1.274 0.569,-1.159 0.882,-0.943 1.119,-0.644 1.258,-0.291 m 1.157,-1.547 0.028,0.271 -0.031,0.271 -0.086,0.259 -0.14,0.234 -0.185,0.2 -0.224,0.156 -0.251,0.106 -0.268,0.05 m 0.632,-3.867 0.07,0.289 0.068,0.289 0.067,0.29 0.066,0.29 0.065,0.29 0.064,0.291 0.063,0.29 0.062,0.291 m -0.525,-2.32 -0.091,-0.257 -0.144,-0.232 -0.19,-0.196 -0.227,-0.151 -0.253,-0.101 -0.269,-0.045 -0.272,0.013 -0.264,0.07 m 0,0 -1.261,0.279 -1.287,-0.1 -1.202,-0.472 -1.012,-0.801 -0.735,-1.062 -0.393,-1.229 -0.018,-1.291 0.359,-1.24 0.705,-1.082 0.99,-0.829 1.189,-0.504 m 0.871,-1.725 0.074,0.263 0.017,0.272 -0.04,0.269 -0.097,0.256 -0.148,0.229 -0.193,0.192 -0.229,0.148 -0.255,0.096 m -0.049,-3.919 0.119,0.273 0.117,0.273 0.117,0.274 0.115,0.274 0.115,0.274 0.113,0.275 0.112,0.275 0.112,0.276 m -0.92,-2.194 -0.135,-0.237 -0.182,-0.203 -0.221,-0.16 -0.249,-0.11 -0.267,-0.055 -0.273,0.003 -0.266,0.06 -0.247,0.114 m 0,0 -1.193,0.494 -1.285,0.125 -1.266,-0.256 -1.136,-0.613 -0.908,-0.918 -0.601,-1.143 -0.242,-1.268 0.139,-1.284 0.507,-1.187 0.83,-0.988 1.083,-0.704 m 0.558,-1.849 0.119,0.245 0.064,0.265 0.007,0.273 -0.05,0.268 -0.106,0.251 -0.157,0.223 -0.2,0.186 -0.235,0.138 m -0.728,-3.85 0.164,0.248 0.163,0.248 0.162,0.25 0.162,0.249 0.16,0.251 0.159,0.251 0.159,0.251 0.157,0.253 m -1.286,-2.001 -0.174,-0.21 -0.215,-0.168 -0.245,-0.12 -0.265,-0.065 -0.272,-0.008 -0.268,0.05 -0.252,0.105 -0.224,0.156 m 0,0 -1.089,0.694 -1.244,0.345 -1.29,-0.031 -1.226,-0.407 -1.053,-0.746 -0.79,-1.021 -0.459,-1.207 -0.086,-1.288 0.292,-1.258 0.647,-1.117 0.944,-0.881 m 0.229,-1.918 0.159,0.221 0.11,0.25 0.054,0.267 -0.003,0.273 -0.061,0.265 -0.116,0.247 -0.165,0.218 -0.207,0.177 m -1.385,-3.665 0.204,0.215 0.204,0.217 0.203,0.217 0.202,0.218 0.202,0.219 0.2,0.219 0.2,0.221 0.199,0.221 m -1.614,-1.747 -0.208,-0.177 -0.241,-0.129 -0.262,-0.075 -0.272,-0.018 -0.27,0.04 -0.255,0.096 -0.23,0.147 -0.193,0.192 m 0,0 -0.952,0.872 -1.165,0.557 -1.277,0.193 -1.277,-0.188 -1.167,-0.552 -0.956,-0.868 -0.661,-1.109 -0.309,-1.254 0.07,-1.289 0.443,-1.213 0.777,-1.031 m -0.108,-1.929 0.196,0.19 0.151,0.227 0.099,0.254 0.044,0.269 -0.013,0.272 -0.071,0.264 -0.125,0.242 -0.173,0.211 m -2.001,-3.369 0.239,0.177 0.238,0.177 0.238,0.179 0.237,0.18 0.236,0.18 0.236,0.182 0.235,0.182 0.234,0.183 m -1.893,-1.44 -0.236,-0.138 -0.259,-0.085 -0.271,-0.028 -0.271,0.029 -0.259,0.086 -0.235,0.139 -0.2,0.185 -0.157,0.223 m 0,0 -0.786,1.024 -1.051,0.75 -1.224,0.412 -1.29,0.036 -1.245,-0.34 -1.092,-0.69 -0.844,-0.977 -0.522,-1.181 -0.155,-1.282 0.226,-1.271 0.586,-1.15 m -0.441,-1.881 0.225,0.153 0.188,0.197 0.143,0.233 0.09,0.257 0.034,0.271 -0.024,0.272 -0.081,0.26 -0.134,0.238 m -2.556,-2.971 0.266,0.133 0.266,0.134 0.265,0.134 0.264,0.136 0.264,0.137 0.264,0.137 0.263,0.139 0.263,0.14 m -2.115,-1.09 -0.256,-0.095 -0.27,-0.038 -0.272,0.019 -0.262,0.076 -0.24,0.13 -0.207,0.177 -0.165,0.217 -0.116,0.247 m 0,0 -0.596,1.145 -0.905,0.921 -1.133,0.618 -1.265,0.26 -1.285,-0.119 -1.195,-0.489 -1.001,-0.816 -0.719,-1.073 -0.375,-1.235 0.001,-1.291 0.378,-1.235 m -0.762,-1.776 0.249,0.112 0.22,0.162 0.18,0.204 0.134,0.238 0.08,0.261 0.024,0.272 -0.035,0.27 -0.09,0.257 m -3.033,-2.481 0.285,0.084 0.285,0.086 0.284,0.086 0.284,0.088 0.284,0.089 0.284,0.09 0.283,0.09 0.282,0.092 m -2.271,-0.705 -0.268,-0.049 -0.273,0.009 -0.265,0.066 -0.244,0.12 -0.214,0.169 -0.173,0.211 -0.126,0.242 -0.071,0.264 m 0,0 -0.388,1.231 -0.731,1.064 -1.009,0.805 -1.2,0.476 -1.287,0.106 -1.262,-0.274 -1.126,-0.63 -0.895,-0.931 -0.584,-1.152 -0.223,-1.271 0.158,-1.282 m -1.058,-1.617 0.264,0.067 0.244,0.122 0.214,0.169 0.172,0.211 0.125,0.243 0.07,0.264 0.013,0.272 -0.044,0.269 m -3.418,-1.917 0.295,0.034 0.296,0.034 0.295,0.036 0.295,0.037 0.295,0.038 0.294,0.04 0.295,0.04 0.295,0.041 m -2.36,-0.3 -0.273,-0.002 -0.267,0.056 -0.249,0.111 -0.22,0.161 -0.181,0.204 -0.134,0.238 -0.081,0.26 -0.025,0.272 m 0,0 -0.169,1.28 -0.534,1.175 -0.854,0.968 -1.1,0.677 -1.248,0.328 -1.29,-0.051 -1.22,-0.425 -1.042,-0.762 -0.775,-1.032 -0.441,-1.214 -0.067,-1.289 m -1.323,-1.409 0.272,0.02 0.262,0.077 0.239,0.131 0.207,0.177 0.165,0.218 0.115,0.247 0.06,0.266 0.003,0.273 m -3.699,-1.295 0.297,-0.018 0.297,-0.017 0.297,-0.016 0.297,-0.015 0.297,-0.013 0.297,-0.013 0.297,-0.011 0.297,-0.011 m -2.376,0.114 -0.269,0.046 -0.253,0.102 -0.226,0.152 -0.189,0.197 -0.143,0.232 -0.091,0.257 -0.034,0.271 0.023,0.272 m 0,0 0.056,1.289 -0.323,1.251 -0.672,1.101 -0.965,0.858 -1.173,0.539 -1.28,0.174 -1.274,-0.206 -1.159,-0.569 -0.943,-0.883 -0.644,-1.118 -0.29,-1.258 m -1.548,-1.158 0.272,-0.027 0.271,0.03 0.258,0.087 0.235,0.139 0.2,0.186 0.156,0.223 0.105,0.252 0.051,0.268 m -3.868,-0.633 0.289,-0.069 0.29,-0.069 0.289,-0.067 0.29,-0.066 0.29,-0.065 0.291,-0.064 0.29,-0.063 0.291,-0.062 m -2.32,0.525 -0.257,0.092 -0.231,0.144 -0.196,0.189 -0.152,0.227 -0.101,0.253 -0.045,0.269 0.013,0.273 0.07,0.263 m 0,0 0.279,1.261 -0.1,1.287 -0.471,1.202 -0.802,1.012 -1.061,0.735 -1.23,0.394 -1.291,0.017 -1.24,-0.359 -1.081,-0.705 -0.829,-0.99 -0.505,-1.188 m -1.725,-0.871 0.263,-0.075 0.272,-0.017 0.27,0.041 0.255,0.096 0.229,0.148 0.193,0.193 0.147,0.229 0.096,0.256 m -3.918,0.048 0.272,-0.118 0.274,-0.118 0.273,-0.116 0.274,-0.116 0.275,-0.114 0.274,-0.114 0.276,-0.112 0.275,-0.111 m -2.193,0.919 -0.237,0.135 -0.203,0.182 -0.161,0.221 -0.11,0.249 -0.055,0.268 0.003,0.272 0.06,0.266 0.115,0.248 m 0,0 0.493,1.193 0.125,1.285 -0.256,1.265 -0.613,1.136 -0.918,0.908 -1.143,0.601 -1.268,0.242 -1.283,-0.139 -1.188,-0.506 -0.988,-0.831 -0.703,-1.083 m -1.85,-0.558 0.246,-0.119 0.265,-0.064 0.272,-0.007 0.268,0.051 0.251,0.106 0.224,0.156 0.185,0.2 0.139,0.235 m -3.851,0.728 0.248,-0.164 0.249,-0.163 0.249,-0.162 0.25,-0.161 0.25,-0.161 0.251,-0.159 0.252,-0.159 0.252,-0.157 m -2.001,1.286 -0.21,0.174 -0.168,0.215 -0.12,0.245 -0.065,0.265 -0.007,0.273 0.049,0.268 0.106,0.251 0.156,0.224 m 0,0 0.693,1.089 0.346,1.244 -0.032,1.291 -0.407,1.225 -0.746,1.054 -1.021,0.79 -1.207,0.458 -1.288,0.087 -1.258,-0.293 -1.117,-0.647 -0.881,-0.944 m -1.918,-0.229 0.221,-0.159 0.25,-0.109 0.267,-0.055 0.273,0.004 0.266,0.061 0.247,0.115 0.217,0.165 0.177,0.207 m -3.665,1.386 0.216,-0.205 0.216,-0.204 0.217,-0.203 0.218,-0.202 0.219,-0.201 0.22,-0.201 0.22,-0.2 0.221,-0.199 m -1.747,1.615 -0.177,0.208 -0.128,0.24 -0.075,0.262 -0.018,0.272 0.039,0.27 0.096,0.256 0.147,0.229 0.193,0.193 m 0,0 0.872,0.953 0.556,1.165 0.193,1.276 -0.188,1.277 -0.552,1.168 -0.868,0.955 -1.109,0.661 -1.254,0.309 -1.289,-0.07 -1.213,-0.443 -1.031,-0.777 m -1.929,0.108 0.19,-0.195 0.227,-0.151 0.254,-0.1 0.269,-0.044 0.273,0.014 0.263,0.07 0.243,0.125 0.21,0.173 m -3.369,2.001 0.177,-0.239 0.178,-0.238 0.178,-0.238 0.18,-0.237 0.18,-0.236 0.182,-0.236 0.182,-0.234 0.183,-0.235 m -1.44,1.893 -0.138,0.236 -0.085,0.259 -0.028,0.271 0.029,0.271 0.086,0.259 0.139,0.235 0.185,0.201 0.223,0.157 m 0,0 1.024,0.786 0.75,1.05 0.412,1.224 0.037,1.291 -0.341,1.245 -0.689,1.092 -0.978,0.843 -1.181,0.522 -1.281,0.155 -1.272,-0.225 -1.15,-0.587 m -1.881,0.442 0.153,-0.226 0.198,-0.188 0.232,-0.142 0.258,-0.09 0.27,-0.034 0.272,0.024 0.26,0.081 0.238,0.133 m -2.971,2.556 0.133,-0.266 0.134,-0.265 0.135,-0.265 0.135,-0.265 0.137,-0.264 0.138,-0.264 0.138,-0.263 0.14,-0.262 m -1.09,2.114 -0.094,0.256 -0.039,0.27 0.019,0.272 0.076,0.262 0.13,0.24 0.177,0.207 0.217,0.165 0.247,0.116 m 0,0 1.145,0.597 0.921,0.904 0.618,1.134 0.261,1.264 -0.12,1.286 -0.489,1.195 -0.816,1 -1.072,0.719 -1.236,0.375 -1.291,-0.001 -1.234,-0.377 m -1.776,0.761 0.111,-0.249 0.162,-0.219 0.205,-0.181 0.237,-0.133 0.261,-0.081 0.272,-0.023 0.27,0.034 0.258,0.091 m -2.482,3.032 0.084,-0.285 0.086,-0.284 0.087,-0.285 0.087,-0.284 0.089,-0.284 0.09,-0.283 0.091,-0.283 0.092,-0.283 m -0.706,2.271 -0.049,0.269 0.009,0.272 0.066,0.265 0.12,0.245 0.17,0.213 0.21,0.174 0.243,0.125 0.263,0.071 m 0,0 1.231,0.389 1.064,0.73 0.806,1.009 0.476,1.2 0.105,1.287 -0.274,1.262 -0.63,1.127 -0.931,0.894 -1.151,0.584 -1.272,0.223 -1.282,-0.157 m -1.616,1.058 0.067,-0.265 0.121,-0.244 0.17,-0.213 0.211,-0.173 0.242,-0.124 0.264,-0.071 0.272,-0.013 0.269,0.045 m -1.917,3.417 0.034,-0.295 0.035,-0.295 0.036,-0.295 0.037,-0.295 0.038,-0.295 0.039,-0.295 0.04,-0.295 0.042,-0.294 m -0.301,2.359 -10e-4,0.273 0.056,0.267 0.111,0.249 0.161,0.22 0.204,0.181 0.237,0.135 0.26,0.081 0.272,0.024 m 0,0 1.28,0.169 1.175,0.535 0.968,0.854 0.678,1.099 0.327,1.249 -0.051,1.29 -0.425,1.219 -0.761,1.042 -1.033,0.775 -1.214,0.441 -1.289,0.067 m -1.408,1.323 0.02,-0.272 0.077,-0.261 0.13,-0.24 0.178,-0.207 0.217,-0.164 0.248,-0.115 0.265,-0.061 0.273,-0.003 m -1.294,3.699 -0.019,-0.297 -0.017,-0.297 -0.015,-0.296 -0.015,-0.297 -0.014,-0.297 -0.012,-0.298 -0.012,-0.297 -0.01,-0.297 m 0.114,2.376 0.045,0.269 0.102,0.253 0.152,0.226 0.197,0.189 0.232,0.143 0.258,0.091 0.27,0.034 0.272,-0.023 m 0,0 1.29,-0.056 1.25,0.323 1.102,0.673 0.857,0.965 0.54,1.173 0.174,1.279 -0.207,1.274 -0.569,1.159 -0.882,0.943 -1.119,0.644 -1.258,0.291 m -1.157,1.547 -0.028,-0.271 0.03,-0.271 0.087,-0.259 0.139,-0.234 0.186,-0.2 0.223,-0.156 0.252,-0.106 0.268,-0.05 m -0.633,3.867 -0.069,-0.289 -0.068,-0.289 -0.068,-0.29 -0.066,-0.29 -0.065,-0.29 -0.064,-0.29 -0.063,-0.291 -0.061,-0.291 m 0.524,2.32 0.092,0.257 0.144,0.232 0.19,0.196 0.226,0.151 0.254,0.101 0.269,0.045 0.272,-0.013 0.264,-0.07 m 0,0 1.26,-0.279 1.287,0.1 1.202,0.472 1.013,0.801 0.734,1.062 0.394,1.229 0.018,1.291 -0.36,1.24 -0.705,1.082 -0.99,0.829 -1.188,0.504 m -0.871,1.725 -0.074,-0.263 -0.018,-0.272 0.041,-0.269 0.096,-0.256 0.148,-0.229 0.193,-0.192 0.23,-0.148 0.255,-0.096 m 0.048,3.919 -0.118,-0.273 -0.118,-0.273 -0.116,-0.274 -0.116,-0.274 -0.114,-0.274 -0.113,-0.275 -0.113,-0.275 -0.111,-0.276 m 0.919,2.194 0.135,0.237 0.182,0.203 0.221,0.16 0.25,0.11 0.267,0.055 0.272,-0.003 0.267,-0.059 0.247,-0.115 m 0,0 1.193,-0.494 1.285,-0.124 1.265,0.255 1.137,0.613 0.908,0.918 0.6,1.143 0.242,1.268 -0.138,1.284 -0.507,1.187 -0.831,0.988 -1.082,0.704 m -0.559,1.849 -0.119,-0.245 -0.064,-0.265 -0.007,-0.273 0.051,-0.268 0.106,-0.251 0.157,-0.223 0.2,-0.186 0.235,-0.138 m 0.728,3.85 -0.164,-0.248 -0.164,-0.249 -0.162,-0.249 -0.161,-0.249 -0.16,-0.251 -0.16,-0.251 -0.158,-0.251 -0.158,-0.253 m 1.287,2.001 0.174,0.21 0.214,0.168 0.245,0.12 0.265,0.065 0.273,0.008 0.268,-0.05 0.252,-0.105 0.223,-0.156 m 0,0 1.089,-0.694 1.244,-0.345 1.291,0.031 1.225,0.407 1.054,0.746 0.79,1.021 0.458,1.207 0.087,1.288 -0.293,1.258 -0.646,1.117 -0.945,0.881 m -0.228,1.919 -0.16,-0.222 -0.109,-0.25 -0.054,-0.267 0.003,-0.273 0.061,-0.265 0.115,-0.247 0.165,-0.218 0.207,-0.177 m 1.386,3.665 -0.205,-0.215 -0.203,-0.217 -0.203,-0.217 -0.203,-0.218 -0.201,-0.219 -0.201,-0.219 -0.199,-0.22 -0.199,-0.221 m 1.614,1.746 0.208,0.177 0.24,0.129 0.263,0.075 0.272,0.018 0.27,-0.04 0.255,-0.096 0.229,-0.147 0.194,-0.192 m 0,0 0.952,-0.872 1.165,-0.557 1.276,-0.193 1.278,0.188 1.167,0.552 0.955,0.868 0.661,1.109 0.309,1.254 -0.07,1.289 -0.442,1.213 -0.777,1.031 m 0.108,1.929 -0.196,-0.19 -0.151,-0.227 -0.1,-0.254 -0.044,-0.269 0.014,-0.272 0.071,-0.264 0.124,-0.242 0.174,-0.211 m 2.001,3.369 -0.239,-0.177 -0.239,-0.177 -0.237,-0.179 -0.237,-0.18 -0.237,-0.18 -0.235,-0.181 -0.235,-0.183 -0.234,-0.183 m 1.893,1.44 0.235,0.138 0.259,0.085 0.272,0.028 0.271,-0.029 0.259,-0.086 0.234,-0.139 0.201,-0.185 0.157,-0.223 m 0,0 0.786,-1.024 1.051,-0.75 1.223,-0.412 1.291,-0.036 1.245,0.34 1.092,0.69 0.843,0.977 0.522,1.181 0.155,1.282 -0.225,1.271 -0.586,1.15 m 0.441,1.881 -0.225,-0.153 -0.189,-0.197 -0.142,-0.233 -0.09,-0.257 -0.034,-0.271 0.024,-0.272 0.081,-0.26 0.134,-0.238 m 2.556,2.971 -0.267,-0.133 -0.265,-0.134 -0.265,-0.134 -0.265,-0.136 -0.264,-0.137 -0.263,-0.137 -0.263,-0.139 -0.263,-0.14 m 2.115,1.09 0.255,0.095 0.27,0.038 0.272,-0.019 0.262,-0.076 0.24,-0.13 0.208,-0.177 0.165,-0.217 0.116,-0.247 m 0,0 0.596,-1.145 0.904,-0.921 1.134,-0.618 1.265,-0.26 1.285,0.119 1.195,0.489 1,0.816 0.719,1.073 0.376,1.235 -0.002,1.291 -0.377,1.235 m 0.761,1.776 -0.249,-0.112 -0.219,-0.162 -0.181,-0.204 -0.133,-0.238 -0.08,-0.261 -0.024,-0.271 0.034,-0.271 0.091,-0.257 m 3.033,2.481 -0.285,-0.084 -0.285,-0.086 -0.285,-0.086 -0.284,-0.088 -0.284,-0.089 -0.283,-0.09 -0.283,-0.09 -0.283,-0.092 m 2.272,0.705 0.268,0.049 0.273,-0.009 0.264,-0.066 0.245,-0.12 0.214,-0.169 0.173,-0.211 0.125,-0.242 0.071,-0.263 m 0,0 0.389,-1.232 0.731,-1.064 1.009,-0.805 1.2,-0.476 1.287,-0.106 1.261,0.274 1.127,0.63 0.894,0.931 0.584,1.152 0.223,1.271 -0.157,1.282 m 1.058,1.617 -0.264,-0.067 -0.245,-0.121 -0.213,-0.17 -0.173,-0.211 -0.124,-0.243 -0.07,-0.264 -0.013,-0.272 0.044,-0.269 m 3.418,1.917 -0.296,-0.034 -0.295,-0.034 -0.295,-0.036 -0.295,-0.037 -0.295,-0.038 -0.295,-0.04 -0.294,-0.04 -0.295,-0.041 m 2.36,0.3 0.272,0.002 0.267,-0.056 0.249,-0.111 0.221,-0.161 0.181,-0.204 0.134,-0.238 0.081,-0.26 0.024,-0.272 m 0,0 0.169,-1.28 0.535,-1.175 0.854,-0.968 1.099,-0.677 1.249,-0.328 1.29,0.051 1.219,0.425 1.043,0.762 0.775,1.032 0.44,1.214 0.068,1.289 m 1.322,1.409 -0.272,-0.02 -0.261,-0.077 -0.24,-0.131 -0.206,-0.177 -0.165,-0.218 -0.115,-0.247 -0.06,-0.266 -0.003,-0.273 m 3.698,1.295 -0.296,0.018 -0.297,0.017 -0.297,0.016 -0.297,0.015 -0.297,0.013 -0.297,0.013 -0.297,0.011 -0.298,0.011 m 2.376,-0.114 0.269,-0.046 0.253,-0.102 0.226,-0.152 0.189,-0.197 0.143,-0.232 0.091,-0.257 0.035,-0.271 -0.023,-0.271 m 0,0 -0.056,-1.29 0.322,-1.25 0.673,-1.102 0.965,-0.858 1.173,-0.539 1.279,-0.174 1.275,0.206 1.159,0.569 0.942,0.883 0.645,1.118 0.29,1.258 m 1.547,1.158 -0.271,0.027 -0.271,-0.03 -0.259,-0.087 -0.234,-0.139 -0.2,-0.186 -0.156,-0.223 -0.106,-0.252 -0.05,-0.268 m 3.867,0.633 -0.289,0.069 -0.289,0.069 -0.29,0.067 -0.29,0.066 -0.29,0.065 -0.29,0.064 -0.291,0.063 -0.291,0.062 m 2.32,-0.525 0.257,-0.092 0.232,-0.144 0.196,-0.189 0.152,-0.227 0.1,-0.253 0.045,-0.269 -0.013,-0.273 -0.07,-0.263 m 0,0 -0.279,-1.261 0.101,-1.287 0.471,-1.202 0.801,-1.012 1.062,-0.735 1.23,-0.393 1.291,-0.018 1.24,0.359 1.081,0.705 0.829,0.99 0.504,1.188 m 1.725,0.871 -0.262,0.075 -0.272,0.017 -0.27,-0.041 -0.255,-0.096 -0.229,-0.148 -0.193,-0.193 -0.148,-0.229 -0.096,-0.256 m 3.919,-0.048 -0.273,0.118 -0.273,0.118 -0.274,0.116 -0.274,0.116 -0.274,0.114 -0.275,0.114 -0.275,0.112 -0.276,0.111 m 2.194,-0.919 0.237,-0.135 0.203,-0.182 0.16,-0.221 0.11,-0.249 0.055,-0.267 -0.002,-0.273 -0.06,-0.266 -0.115,-0.248 m 0,0 -0.494,-1.193 -0.124,-1.285 0.255,-1.265 0.614,-1.136 0.917,-0.908 1.143,-0.601 1.268,-0.242 1.284,0.139 1.187,0.506 0.989,0.831 0.703,1.083 m 1.85,0.558 -0.246,0.119 -0.265,0.064 -0.273,0.007 -0.268,-0.051 -0.251,-0.106 -0.223,-0.156 -0.185,-0.2 -0.139,-0.235 m 3.85,-0.728 -0.248,0.164 -0.248,0.163 -0.249,0.162 -0.25,0.161 -0.251,0.161 -0.251,0.159 -0.251,0.159 -0.252,0.157 m 2,-1.286 0.21,-0.174 0.169,-0.215 0.119,-0.245 0.065,-0.265 0.008,-0.273 -0.05,-0.268 -0.105,-0.251 -0.156,-0.224 m 0,0 -0.693,-1.089 -0.346,-1.244 0.032,-1.291 0.406,-1.225 0.747,-1.054 1.021,-0.79 1.207,-0.458 1.288,-0.087 1.257,0.293 1.118,0.647 0.88,0.944 m 1.919,0.229 -0.221,0.159 -0.25,0.11 -0.268,0.054 -0.272,-0.004 -0.266,-0.06 -0.247,-0.116 -0.217,-0.165 -0.178,-0.207 m 3.666,-1.386 -0.216,0.205 -0.216,0.204 -0.218,0.203 -0.218,0.202 -0.218,0.201 -0.22,0.201 -0.22,0.2 -0.221,0.199 m 1.747,-1.615 0.176,-0.208 0.129,-0.24 0.075,-0.262 0.018,-0.272 -0.04,-0.27 -0.095,-0.256 -0.148,-0.229 -0.192,-0.193 m 0,0 -0.872,-0.953 -0.557,-1.164 -0.192,-1.277 0.187,-1.277 0.552,-1.168 0.869,-0.955 1.109,-0.661 1.253,-0.309 1.289,0.07 1.213,0.443 1.031,0.777 m 1.929,-0.108 -0.19,0.195 -0.227,0.151 -0.254,0.1 -0.269,0.044 -0.272,-0.014 -0.263,-0.07 -0.243,-0.125 -0.211,-0.173 m 3.37,-2.001 -0.177,0.239 -0.178,0.238 -0.179,0.238 -0.179,0.237 -0.181,0.236 -0.181,0.236 -0.182,0.235 -0.184,0.234 m 1.441,-1.893 0.137,-0.236 0.085,-0.259 0.029,-0.271 -0.03,-0.271 -0.086,-0.259 -0.138,-0.235 -0.185,-0.201 -0.223,-0.156 m 0,0 -1.024,-0.787 -0.751,-1.05 -0.411,-1.224 -0.037,-1.291 0.341,-1.245 0.689,-1.092 0.977,-0.843 1.181,-0.522 1.282,-0.155 1.271,0.225 1.15,0.587 m 1.882,-0.442 -0.154,0.226 -0.197,0.188 -0.233,0.142 -0.257,0.09 -0.271,0.034 -0.271,-0.024 -0.261,-0.081 -0.238,-0.133 m 2.971,-2.556 -0.133,0.266 -0.133,0.265 -0.135,0.266 -0.136,0.264 -0.136,0.264 -0.138,0.264 -0.139,0.263 -0.139,0.262"
       style="fill:none;stroke:#000000;stroke-width:0.709;stroke-linecap:round;stroke-linejoin:round;stroke-miterlimit:10;stroke-dasharray:none;stroke-opacity:1"
       id="path5720" /></g><g
     id="g5722"
     transform="matrix(0.38330009,0,0,-0.38330009,10.763762,63.529451)"><path
       d="m 0,0 1.567,-1.469 1.605,-1.426 1.644,-1.382 1.681,-1.337 1.715,-1.291 1.751,-1.245 1.783,-1.197 1.815,-1.148"
       style="fill:none;stroke:#000000;stroke-width:0.51;stroke-linecap:round;stroke-linejoin:round;stroke-miterlimit:10;stroke-dasharray:0.001, 1440;stroke-dashoffset:0;stroke-opacity:1"
       id="path5724" /></g><g
     inkscape:groupmode="layer"
     id="layer8"
     inkscape:label="text"
     transform="translate(0,-1.1009482)"><text
       xml:space="preserve"
       style="font-style:normal;font-variant:normal;font-weight:normal;font-stretch:normal;font-size:3.52778px;line-height:1.25;font-family:'Century Gothic';-inkscape-font-specification:'Century Gothic, Normal';font-variant-ligatures:normal;font-variant-caps:normal;font-variant-numeric:normal;font-variant-east-asian:normal;letter-spacing:0px;word-spacing:0px;stroke-width:0.264583"
       x="52.241005"
       y="5.5766206"
       id="text10028"><tspan
         sodipodi:role="line"
         id="tspan10026"
         style="font-style:normal;font-variant:normal;font-weight:normal;font-stretch:normal;font-size:3.52778px;font-family:'Century Gothic';-inkscape-font-specification:'Century Gothic, Normal';font-variant-ligatures:normal;font-variant-caps:normal;font-variant-numeric:normal;font-variant-east-asian:normal;stroke-width:0.264583"
         x="52.241005"
         y="5.5766206">36T</tspan></text><text
       xml:space="preserve"
       style="font-style:normal;font-variant:normal;font-weight:normal;font-stretch:normal;font-size:3.52778px;line-height:1.25;font-family:'Century Gothic';-inkscape-font-specification:'Century Gothic, Normal';font-variant-ligatures:normal;font-variant-caps:normal;font-variant-numeric:normal;font-variant-east-asian:normal;letter-spacing:0px;word-spacing:0px;stroke-width:0.264583"
       x="72.96019"
       y="3.6348176"
       id="text10032"><tspan
         sodipodi:role="line"
         id="tspan10030"
         style="font-style:normal;font-variant:normal;font-weight:normal;font-stretch:normal;font-size:3.52778px;font-family:'Century Gothic';-inkscape-font-specification:'Century Gothic, Normal';font-variant-ligatures:normal;font-variant-caps:normal;font-variant-numeric:normal;font-variant-east-asian:normal;stroke-width:0.264583"
         x="72.96019"
         y="3.6348176">55T</tspan></text><text
       xml:space="preserve"
       style="font-style:normal;font-variant:normal;font-weight:normal;font-stretch:normal;font-size:3.52778px;line-height:1.25;font-family:'Century Gothic';-inkscape-font-specification:'Century Gothic, Normal';font-variant-ligatures:normal;font-variant-caps:normal;font-variant-numeric:normal;font-variant-east-asian:normal;letter-spacing:0px;word-spacing:0px;stroke-width:0.264583"
       x="89.581085"
       y="13.506884"
       id="text10036"><tspan
         sodipodi:role="line"
         id="tspan10034"
         style="font-style:normal;font-variant:normal;font-weight:normal;font-stretch:normal;font-size:3.52778px;font-family:'Century Gothic';-inkscape-font-specification:'Century Gothic, Normal';font-variant-ligatures:normal;font-variant-caps:normal;font-variant-numeric:normal;font-variant-east-asian:normal;stroke-width:0.264583"
         x="89.581085"
         y="13.506884">15T</tspan></text><text
       xml:space="preserve"
       style="font-style:normal;font-variant:normal;font-weight:normal;font-stretch:normal;font-size:3.52778px;line-height:1.25;font-family:'Century Gothic';-inkscape-font-specification:'Century Gothic, Normal';font-variant-ligatures:normal;font-variant-caps:normal;font-variant-numeric:normal;font-variant-east-asian:normal;letter-spacing:0px;word-spacing:0px;stroke-width:0.264583"
       x="68.846581"
       y="88.189674"
       id="text10040"><tspan
         sodipodi:role="line"
         id="tspan10038"
         style="font-style:normal;font-variant:normal;font-weight:normal;font-stretch:normal;font-size:3.52778px;font-family:'Century Gothic';-inkscape-font-specification:'Century Gothic, Normal';font-variant-ligatures:normal;font-variant-caps:normal;font-variant-numeric:normal;font-variant-east-asian:normal;stroke-width:0.264583"
         x="68.846581"
         y="88.189674">74,34</tspan></text></g><g
     inkscape:groupmode="layer"
     id="layer9"
     inkscape:label="text path"
     style="display:none"
     sodipodi:insensitive="true"
     transform="translate(0,-1.1009482)"><g
       id="g10059"><path
         d="M 74.779521,0 V 0.34660984 H 73.481892 L 73.301115,1.3393995 q 0.237734,-0.069322 0.428416,-0.069322 0.497755,0 0.819686,0.334231 0.324407,0.3317551 0.324407,0.8516698 0,0.3589889 -0.165918,0.6585588 -0.165919,0.2995698 -0.450704,0.4604959 -0.282309,0.1584502 -0.653767,0.1584502 -0.443274,0 -0.747871,-0.2698605 Q 72.550769,3.191286 72.491336,2.7604995 h 0.373934 q 0.0421,0.2104417 0.141154,0.3416582 0.101537,0.1312166 0.267451,0.2129175 0.168394,0.079225 0.351647,0.079225 0.359077,0 0.616622,-0.2723364 0.257545,-0.2723362 0.257545,-0.6808407 0,-0.3688919 -0.232782,-0.5991399 -0.23278,-0.2302479 -0.621573,-0.2302479 -0.321932,0 -0.780064,0.195587 L 73.20206,0 Z"
         id="path5756"
         style="font-size:4.66722px;font-family:'Century Gothic';-inkscape-font-specification:CenturyGothic;stroke-width:0.383347" /><path
         d="M 77.589902,0 V 0.34660984 H 76.292273 L 76.111497,1.3393995 q 0.237733,-0.069322 0.428416,-0.069322 0.497754,0 0.819685,0.334231 0.324407,0.3317551 0.324407,0.8516698 0,0.3589889 -0.165917,0.6585588 -0.165919,0.2995698 -0.450704,0.4604959 -0.282308,0.1584502 -0.653767,0.1584502 -0.443274,0 -0.74787,-0.2698605 -0.304596,-0.2723363 -0.36403,-0.7031228 h 0.373935 q 0.0421,0.2104417 0.141154,0.3416582 0.101537,0.1312166 0.26745,0.2129175 0.168396,0.079225 0.351648,0.079225 0.359077,0 0.616622,-0.2723364 0.257545,-0.2723362 0.257545,-0.6808407 0,-0.3688919 -0.232781,-0.5991399 -0.232781,-0.2302479 -0.621574,-0.2302479 -0.321931,0 -0.780064,0.195587 L 76.012442,0 Z"
         id="path5758"
         style="font-size:4.66722px;font-family:'Century Gothic';-inkscape-font-specification:CenturyGothic;stroke-width:0.383347" /><path
         d="M 77.988271,0.35403719 V 0 h 1.998448 V 0.35403719 H 79.174462 V 3.6418791 H 78.803004 V 0.35403719 Z"
         id="path5760"
         style="font-size:4.66722px;font-family:'Century Gothic';-inkscape-font-specification:CenturyGothic;stroke-width:0.383347" /></g><g
       id="g10054"><path
         d="m 51.838555,2.7355064 h -0.371459 q 0.101537,-0.4505929 0.388794,-0.6932197 0.287261,-0.2426269 0.678531,-0.2426269 0.284785,0 0.529948,0.1312165 0.247638,0.1287409 0.381364,0.3490857 0.136201,0.2203448 0.136201,0.4604959 0,0.4703991 -0.468038,0.7452111 0.262498,0.1064583 0.430893,0.311949 0.237734,0.2896667 0.237734,0.6486555 0,0.3094731 -0.163443,0.5917125 -0.163441,0.2797636 -0.44575,0.4332623 -0.282308,0.1534986 -0.631479,0.1534986 -0.470515,0 -0.785017,-0.2698605 -0.314501,-0.2723363 -0.411081,-0.7972026 h 0.356601 q 0.0941,0.3540372 0.269926,0.5124874 0.225352,0.2005385 0.574523,0.2005385 0.396223,0 0.636433,-0.2376753 0.24021,-0.2376753 0.24021,-0.5570515 0,-0.2129175 -0.121343,-0.3986013 Q 53.183236,3.8916978 52.980172,3.797618 52.779584,3.7035382 52.356121,3.681256 V 3.3470251 q 0.250115,0 0.455655,-0.086652 0.205541,-0.089128 0.297167,-0.2252964 0.09411,-0.1361682 0.09411,-0.2970942 0,-0.2376753 -0.190682,-0.4109802 Q 52.82416,2.153697 52.534422,2.153697 q -0.235257,0 -0.406128,0.1336924 -0.170871,0.1312165 -0.289739,0.448117 z"
         id="path5762"
         style="font-size:4.66722px;font-family:'Century Gothic';-inkscape-font-specification:CenturyGothic;stroke-width:0.383347" /><path
         d="m 55.837604,1.7996598 0.299644,0.195587 -0.983128,1.4904222 q 0.198112,-0.066847 0.37146,-0.066847 0.433368,0 0.735488,0.3144246 0.30212,0.311949 0.30212,0.769969 0,0.3144247 -0.146107,0.5694305 -0.146107,0.2525301 -0.416034,0.403553 -0.267451,0.148547 -0.577,0.148547 -0.299644,0 -0.557188,-0.1435955 -0.255068,-0.146071 -0.401175,-0.4085042 -0.146107,-0.2624331 -0.146107,-0.562003 0,-0.2228207 0.08915,-0.4679233 0.09163,-0.2475785 0.324407,-0.5941883 z m -0.398698,1.9385393 q -0.316978,0 -0.54233,0.2252963 -0.222875,0.2228207 -0.222875,0.5421969 0,0.3169004 0.222875,0.5421968 0.225352,0.2228206 0.54233,0.2228206 0.316978,0 0.539853,-0.2228206 0.225352,-0.2252964 0.225352,-0.5421968 0,-0.3193762 -0.225352,-0.5421969 -0.222875,-0.2252963 -0.539853,-0.2252963 z"
         id="path5764"
         style="font-size:4.66722px;font-family:'Century Gothic';-inkscape-font-specification:CenturyGothic;stroke-width:0.383347" /><path
         d="M 56.869938,2.245301 V 1.8912638 h 1.998447 V 2.245301 H 58.056129 V 5.5331429 H 57.68467 V 2.245301 Z"
         id="path5766"
         style="font-size:4.66722px;font-family:'Century Gothic';-inkscape-font-specification:CenturyGothic;stroke-width:0.383347" /></g><g
       id="g10064"><path
         d="m 88.44438,9.7858905 h 0.715677 v 3.6418785 h -0.361553 v -3.285366 h -0.572047 z"
         id="path5768"
         style="font-size:4.66722px;font-family:'Century Gothic';-inkscape-font-specification:CenturyGothic;stroke-width:0.383347" /><path
         d="M 92.809935,9.7858905 V 10.1325 h -1.297629 l -0.180777,0.992789 q 0.237734,-0.06932 0.428417,-0.06932 0.497754,0 0.819685,0.33423 0.324407,0.331756 0.324407,0.851671 0,0.358988 -0.165918,0.658558 -0.165919,0.29957 -0.450703,0.460497 -0.282308,0.158449 -0.653768,0.158449 -0.443274,0 -0.747869,-0.26986 -0.304597,-0.272336 -0.36403,-0.703123 h 0.373935 q 0.0421,0.210442 0.141154,0.341659 0.101537,0.131216 0.26745,0.212916 0.168396,0.07923 0.351648,0.07923 0.359077,0 0.616622,-0.272337 0.257544,-0.272336 0.257544,-0.680841 0,-0.368891 -0.23278,-0.59914 -0.232781,-0.230248 -0.621575,-0.230248 -0.32193,0 -0.780063,0.195588 l 0.336789,-1.8073232 z"
         id="path5770"
         style="font-size:4.66722px;font-family:'Century Gothic';-inkscape-font-specification:CenturyGothic;stroke-width:0.383347" /><path
         d="M 93.208312,10.139928 V 9.7858905 h 1.998448 v 0.3540375 h -0.812257 v 3.287841 h -0.371458 v -3.287841 z"
         id="path5772"
         style="font-size:4.66722px;font-family:'Century Gothic';-inkscape-font-specification:CenturyGothic;stroke-width:0.383347" /></g><g
       aria-label="74,34 "
       transform="matrix(1.0866835,0,0,1.0863565,1.0793801e-6,-8.8530456e-8)"
       id="text5688"
       style="font-size:4.66735px;font-family:'Century Gothic';-inkscape-font-specification:CenturyGothic;stroke-width:0.352831"><path
         d="m 61.937118,77.725418 h 2.126288 l -1.793557,3.436701 -0.275757,-0.141297 1.549706,-2.978626 h -1.60668 z"
         id="path5775" /><path
         d="m 66.175861,77.641096 h 0.06837 v 2.335954 h 0.405659 v 0.321336 h -0.40566 v 0.779411 H 65.90922 V 80.298386 H 64.307098 Z M 65.90922,79.97705 v -1.397014 l -0.986798,1.397014 z"
         id="path5777" /><path
         d="m 67.4474,80.462472 0.307662,0.145855 -0.462633,0.861454 -0.225619,-0.09572 z"
         id="path5779" /><path
         d="m 68.685955,78.50255 h -0.341847 q 0.09344,-0.414774 0.3578,-0.638114 0.264362,-0.22334 0.62444,-0.22334 0.262083,0 0.487702,0.120786 0.227898,0.118507 0.350963,0.321336 0.125344,0.202829 0.125344,0.42389 0,0.433006 -0.430727,0.685973 0.241571,0.098 0.396542,0.287151 0.218782,0.266641 0.218782,0.597093 0,0.284872 -0.150413,0.544676 -0.150412,0.257525 -0.410216,0.398821 -0.259804,0.141297 -0.58114,0.141297 -0.433006,0 -0.722436,-0.248409 -0.289431,-0.250687 -0.378311,-0.733831 h 0.328173 q 0.0866,0.325894 0.248409,0.471749 0.207387,0.184597 0.528723,0.184597 0.364637,0 0.585698,-0.218782 0.221061,-0.218782 0.221061,-0.51277 0,-0.195992 -0.11167,-0.366916 -0.109391,-0.170923 -0.296267,-0.257525 -0.184598,-0.0866 -0.574303,-0.107112 v -0.307662 q 0.230177,0 0.419332,-0.07976 0.189155,-0.08204 0.273478,-0.207387 0.0866,-0.125344 0.0866,-0.273478 0,-0.218782 -0.175482,-0.37831 -0.173202,-0.159529 -0.439843,-0.159529 -0.216503,0 -0.373752,0.123065 -0.15725,0.120786 -0.266641,0.412495 z"
         id="path5781" /><path
         d="m 72.642101,77.641096 h 0.06837 v 2.335954 h 0.405659 v 0.321336 h -0.40566 v 0.779411 H 72.37546 V 80.298386 H 70.773338 Z M 72.37546,79.97705 v -1.397014 l -0.986798,1.397014 z"
         id="path5783" /></g></g></svg>
