<?xml version="1.0" encoding="UTF-8" standalone="no"?>
<!-- Created with Inkscape (http://www.inkscape.org/) -->

<svg
   width="208.79047mm"
   height="96.114342mm"
   viewBox="0 0 208.79046 96.114341"
   version="1.1"
   id="svg5"
   inkscape:version="1.2.1 (9c6d41e410, 2022-07-14)"
   sodipodi:docname="Wheels assembly.svg"
   xml:space="preserve"
   xmlns:inkscape="http://www.inkscape.org/namespaces/inkscape"
   xmlns:sodipodi="http://sodipodi.sourceforge.net/DTD/sodipodi-0.dtd"
   xmlns="http://www.w3.org/2000/svg"
   xmlns:svg="http://www.w3.org/2000/svg"><sodipodi:namedview
     id="namedview7"
     pagecolor="#505050"
     bordercolor="#eeeeee"
     borderopacity="1"
     inkscape:pageshadow="0"
     inkscape:pageopacity="0"
     inkscape:pagecheckerboard="0"
     inkscape:document-units="mm"
     showgrid="false"
     inkscape:zoom="0.49071405"
     inkscape:cx="-241.48483"
     inkscape:cy="545.12399"
     inkscape:window-width="2560"
     inkscape:window-height="1361"
     inkscape:window-x="2551"
     inkscape:window-y="-9"
     inkscape:window-maximized="1"
     inkscape:current-layer="svg5"
     inkscape:snap-page="true"
     inkscape:showpageshadow="0"
     inkscape:deskcolor="#505050" /><defs
     id="defs2" /><g
     inkscape:label="Ebene 1"
     inkscape:groupmode="layer"
     id="layer1"
     transform="translate(-365.83361,-28.229775)" /><g
     id="g4099"
     transform="matrix(0.35277777,0,0,-0.35277777,53.630864,54.902275)"><path
       d="m 0,0 0.731,-0.41 1.362,-0.337 1.395,0.005 1.424,0.325 1.451,0.655 0.844,0.579 m 5.558,9.627 0.082,0.762 -0.154,1.827 -0.447,1.445 -0.7,1.207 -0.44,0.517 m 0,0 -0.847,0.714 L 9.9,17.094 M 9.937,17.118 7.543,18.5 m -9.88,-17.207 2.35,-1.358 m 38.702,29.774 0.57,-0.348 1.354,-0.385 1.392,-0.038 1.42,0.284 1.448,0.61 1.148,0.751 m 5.435,9.434 0.084,0.645 -0.103,1.835 -0.405,1.478 -0.673,1.256 -0.916,1.015 -0.814,0.522 m 0.009,0.049 -4.142,2.393 M 34.598,32.027 38.74,29.634 m -44.581,-77.903 0.895,-0.442 1.369,-0.271 1.4,0.065 1.43,0.386 1.454,0.717 0.678,0.496 m 5.444,9.44 0.091,1.216 -0.182,1.62 -0.471,1.427 -0.734,1.2 -0.969,0.954 -0.554,0.31 m 0,0.058 -4.142,2.392 m -9.924,-17.182 4.142,-2.393 m 35.076,-0.048 0.772,-0.419 1.364,-0.319 1.396,0.021 1.426,0.341 1.452,0.671 0.794,0.554 m 5.528,9.545 0.091,0.919 -0.172,1.824 -0.463,1.433 -0.725,1.208 -0.963,0.962 -0.61,0.348 m 0.022,0.046 -4.142,2.393 m -9.924,-17.183 4.142,-2.392 m 27.624,48.183 0.921,-0.461 1.369,-0.275 1.399,0.06 1.43,0.38 1.453,0.712 0.457,0.332 m 5.709,9.903 0.07,0.902 -0.107,1.248 m 0,0 -0.229,0.992 -0.579,1.34 -0.83,1.106 -1.052,0.843 m -0.113,0.068 -4.143,2.393 M 52.605,2.171 56.748,-0.221 m -8.551,31.22 0.782,0.452 m 3.228,5.59 v 0.903 m -11.221,-4.696 4.377,-2.529 m 5.671,9.819 -4.377,2.528 M 66.605,0.912 67.387,1.364 m 3.229,5.59 V 7.857 M 58.994,3.392 63.772,0.632 m 5.671,9.819 -4.779,2.76 M 9.47,1.3 10.252,1.751 M 13.48,7.342 V 8.245 M 2.259,3.548 6.636,1.02 m 5.671,9.819 -4.377,2.528 m 30.677,-60.374 0.782,0.451 m 3.229,5.59 v 0.903 m -11.222,-4.696 4.377,-2.528 m 5.671,9.818 -4.377,2.528 m -33.524,-11.97 0.782,0.451 m 3.229,5.591 v 0.903 m -11.222,-4.697 4.377,-2.528 m 5.671,9.819 -4.377,2.528 m -137.409,122.983 8.524,-4.923 m 2.477,4.243 -8.53,4.926 m -8.652,-16.373 8.409,-4.856 m 16.166,27.693 -8.365,4.831 m -21.011,-40.106 7.91,-4.568 m 29.397,50.372 -7.812,4.512 m -32.769,-62.688 6.981,-4.032 m 41.762,71.596 -6.819,3.939 m -43.572,-83.433 5.544,-3.202 m 52.88,90.722 -5.306,3.065 m -53.089,-101.711 3.48,-2.01 m 62.403,107.175 -3.146,1.818 m -61.033,-116.966 0.628,-0.362 m 70.035,120.459 -0.174,0.101 m -47.059,-184.73 112.246,-64.828 M 99.515,85.175 -12.731,150.004 m 6.972,-217.303 -0.457,0.479 -1.633,2.206 -1.415,2.467 -1.207,2.722 -1.002,2.979 -0.794,3.231 -0.579,3.476 -0.354,3.708 -0.121,3.924 0.119,4.119 0.364,4.291 0.613,4.442 0.863,4.565 1.112,4.664 1.359,4.735 1.216,3.691 m 0,0 0.899,2.496 1.902,4.793 2.125,4.772 2.337,4.723 2.536,4.648 2.722,4.546 2.891,4.418 3.044,4.265 3.179,4.087 3.294,3.888 3.388,3.667 3.462,3.427 3.512,3.169 3.541,2.895 3.544,2.608 3.525,2.311 3.481,2.005 3.413,1.694 3.322,1.383 3.21,1.072 3.078,0.767 2.931,0.47 2.775,0.183 2.618,-0.095 2.471,-0.369 L 65.61,56.2 M 11.006,12.886 10.178,13.441 9.152,13.613 7.995,13.39 6.778,12.786 5.577,11.839 4.469,10.609 3.523,9.173 2.799,7.621 2.341,6.051 2.179,4.561 2.322,3.245 2.763,2.186 3.473,1.45 4.407,1.084 l 1.1,0.025 0.656,0.184 m 5.671,9.819 -0.248,0.869 -0.58,0.905 M 2.727,2.243 3.436,2.306 4.092,2.489 m 5.671,9.819 -0.248,0.869 -0.221,0.436 m 25.304,18.414 -0.076,0.045 -0.594,0.464 -0.498,0.603 -0.393,0.73 m 0,0 -0.281,0.846 -0.165,0.947 -0.046,1.032 0.075,1.099 0.193,1.147 0.308,1.176 0.419,1.185 0.522,1.173 m 6.523,6.748 -0.915,-0.442 -0.917,-0.582 -0.902,-0.712 -0.874,-0.829 -0.829,-0.932 -0.771,-1.02 -0.699,-1.09 -0.616,-1.141 m 6.523,6.748 0.897,0.296 0.864,0.142 0.816,-0.011 0.755,-0.167 0.605,-0.272 M 46.484,43 45.265,42.325 44.077,41.317 42.995,40.04 42.088,38.573 41.413,37.01 41.012,35.448 40.91,33.985 l 0.203,-1.271 0.497,-1.001 0.758,-0.666 0.971,-0.29 1.125,0.104 0.426,0.132 m 5.671,9.818 -0.341,1.073 -0.632,0.84 -0.872,0.482 L 47.66,43.3 46.484,43 m -5.03,-11.057 0.939,0.114 0.426,0.132 m 5.671,9.819 -0.341,1.072 -0.128,0.233 m -13.959,-0.839 0.175,0.365 0.984,2.489 0.73,2.625 m -5.032,-10.235 1.688,2.245 1.455,2.511 m -7.702,-2.123 4.559,-2.633 m 9.666,11.504 -1.141,-0.415 -2.686,-0.656 m -3.721,-14.282 -0.109,0.25 -0.88,1.73 -1.129,1.869 m 12.093,14.048 0.953,-0.551 m 0,0 -0.747,-0.565 -2.633,-1.428 m -11.243,-15.844 -1.185,1.971 -0.933,1.878 m 0,0 -0.102,0.245 -0.508,1.515 -0.254,1.364 m 7.541,-9.606 -0.275,1.445 -0.589,1.679 m -3.695,-0.491 4.559,-2.633 m 10.064,20.47 1.185,-1.97 0.277,-0.558 M 35.95,31.246 33.901,30.745 m -43.957,-76.628 -0.595,0.438 -0.512,0.584 -0.407,0.714 -0.297,0.832 m 0,0 -0.181,0.934 -0.061,1.021 0.058,1.091 0.177,1.142 0.293,1.173 0.404,1.185 0.509,1.175 0.603,1.147 m 6.773,6.023 -0.9,-0.315 -0.916,-0.462 -0.916,-0.6 -0.899,-0.728 -0.869,-0.845 -0.822,-0.945 -0.762,-1.03 -0.689,-1.098 m 6.773,6.023 0.87,0.164 0.824,0.009 0.764,-0.146 0.691,-0.297 0.011,-0.007 m 2.502,-6.026 -1.209,-0.51 -1.212,-0.865 -1.138,-1.165 -0.993,-1.392 -0.786,-1.531 -0.529,-1.575 -0.239,-1.52 0.066,-1.368 0.368,-1.131 0.645,-0.824 0.882,-0.463 1.064,-0.074 0.947,0.227 m 5.671,9.819 -0.145,0.59 -0.51,0.986 -0.77,0.648 -0.981,0.271 -1.131,-0.123 m -5.569,-11.241 0.417,0.019 0.947,0.228 m 5.671,9.818 -0.146,0.591 -0.323,0.714 m -15.137,7.751 3.937,-2.274 m -2.232,-5.326 0.2,0.355 1.144,2.416 0.888,2.555 m -5.389,-9.545 1.527,1.786 1.63,2.433 m 6.773,6.023 -1.115,-0.259 -3.426,-0.438 m -4.034,-14.194 -0.078,0.279 -0.678,1.924 -0.629,1.4 m 4.147,14.645 -1.015,-0.317 -1.512,-0.735 m 7.068,1.75 -1.254,-0.114 -3.287,-0.584 m 4.541,0.698 4.56,-2.633 m 0,0 -0.724,-0.422 -2.564,-1 m -8.145,-18.434 -0.063,1.65 -0.367,1.893 m -1.339,-2.522 1.769,-1.021 m 11.433,19.856 0.972,-2.176 0.067,-0.197 m -9.96,-17.162 -2.512,-0.321 m 36.445,0.878 -0.413,0.282 -0.543,0.542 -0.441,0.674 m 0,0 -0.332,0.795 -0.218,0.903 -0.1,0.996 0.02,1.071 0.14,1.128 0.257,1.165 0.37,1.183 0.476,1.181 m 6.359,7.094 -0.918,-0.507 -0.912,-0.642 -0.891,-0.766 -0.856,-0.878 -0.804,-0.974 -0.74,-1.054 -0.663,-1.115 -0.575,-1.158 m 6.359,7.094 0.907,0.362 0.881,0.212 0.84,0.058 0.784,-0.096 0.716,-0.25 0.221,-0.117 m 1.677,-6.336 -1.22,-0.758 -1.169,-1.078 -1.046,-1.329 -0.857,-1.498 -0.614,-1.572 -0.332,-1.547 -0.031,-1.426 0.275,-1.214 0.561,-0.927 0.813,-0.581 1.014,-0.198 1.151,0.196 0.146,0.051 m 5.671,9.819 -0.044,0.22 -0.421,1.079 -0.693,0.76 -0.921,0.393 -1.091,0.001 -1.192,-0.391 m -4.744,-10.931 0.067,-10e-4 1.151,0.197 0.146,0.05 m 5.671,9.819 -0.044,0.22 -0.421,1.079 -0.004,0.006 m -21.717,-3.543 0.684,2.797 1.013,2.737 m 0,0 0.169,0.366 1.267,2.298 1.515,2.146 m 0,0 4.559,-2.633 m -1.697,-5.534 0.162,0.369 0.895,2.514 0.64,2.651 m -4.647,-10.344 1.593,2.271 1.357,2.539 m -7.51,-2.177 4.56,-2.633 m 9.309,11.904 -1.148,-0.495 -3.514,-1.065 m -2.31,-13.956 -0.125,0.233 -0.982,1.619 -1.23,1.76 m 3.496,15.261 -1.048,-0.552 -2.36,-1.732 m 8.07,3.844 -1.286,-0.332 -3.376,-1.228 m 4.662,1.56 4.559,-2.634 m 0,0 -0.754,-0.639 -2.654,-1.644 m -10.447,-15.771 -1.293,1.855 -1.045,1.757 m 0,0 -0.118,0.229 -0.609,1.404 -0.357,1.255 m 7.981,-9.134 -0.383,1.33 -0.701,1.559 m -3.475,-0.255 4.559,-2.634 m 9.296,20.688 1.293,-1.855 0.419,-0.705 m -9.224,-17.587 -1.784,-0.541 m 25.957,52.777 -0.095,0.999 0.025,1.074 0.145,1.13 0.262,1.166 0.374,1.184 0.48,1.18 0.579,1.156 0.666,1.114 m 0,0 0.743,1.05 0.807,0.971 0.857,0.873 0.893,0.762 0.912,0.637 0.918,0.501 0.906,0.356 0.879,0.206 m 2.526,-0.411 -0.193,0.104 -0.713,0.256 -0.782,0.103 -0.838,-0.052 M 52.605,2.171 52.168,2.473 51.63,3.02 l -0.437,0.679 -0.328,0.8 -0.213,0.907 m 17.928,5.485 -0.355,1.143 -0.633,0.838 -0.873,0.48 -1.058,0.092 -1.176,-0.303 -1.22,-0.677 -1.187,-1.009 -1.081,-1.279 -0.905,-1.467 -0.674,-1.564 -0.4,-1.561 -0.1,-1.462 0.205,-1.27 0.498,-0.999 0.759,-0.664 0.973,-0.288 1.126,0.106 0.419,0.13 m 3.61,10.95 -0.354,1.143 -0.125,0.227 m -6.567,-11.37 0.946,0.116 0.419,0.13 m -16.042,10.285 1.072,2.607 1.418,2.541 m 0,0 0.225,0.338 1.636,2.119 1.883,1.967 m 0,0 4.559,-2.633 m -2.49,-5.148 0.218,0.342 1.264,2.334 1.008,2.472 m -6.234,-9.573 1.982,2.083 1.762,2.342 m -8.303,-1.791 4.559,-2.634 m 1.308,-4.578 -0.235,1.176 -1.073,3.402 m 6.234,9.573 2.316,0.016 2.109,0.192 M 46.147,4.186 l -0.438,1.218 -0.87,3.36 m 0,0 -0.135,1.118 0.081,2.736 M 50.707,1.552 50.8,2.464 50.652,5.406 m -4.505,-1.22 4.56,-2.634 m 0.312,20.638 1.406,0.542 1.766,0.39 m 0,0 0.273,0.039 1.953,0.157 2.199,0.012 m 0,0 4.559,-2.633 m -3.172,-0.932 0.267,0.042 1.581,0.373 1.324,0.517 M 53.564,1.618 52.905,1.564 50.707,1.552 m 13.13,17.047 -0.662,2.098 m -14.291,18.149 1.002,0.43 0.912,0.029 0.735,-0.374 0.485,-0.743 0.188,-1.037 -0.128,-1.23 -0.431,-1.303 -0.693,-1.248 -0.885,-1.072 -0.992,-0.789 -1.002,-0.431 -0.913,-0.029 -0.735,0.375 -0.485,0.742 -0.187,1.037 0.128,1.23 0.431,1.303 0.693,1.249 0.885,1.071 0.992,0.79 m -0.805,1.34 1.134,0.506 1.051,0.096 0.885,-0.322 0.645,-0.713 0.354,-1.048 0.059,-0.761 m -4.01,-6.945 -1.012,-0.434 -1.052,-0.096 -0.884,0.322 -0.646,0.714 -0.353,1.048 -0.035,1.297 0.289,1.441 0.588,1.469 0.84,1.376 1.023,1.174 1.124,0.876 M 66.048,7.704 67.02,8.579 68.029,9.112 68.975,9.251 69.766,8.983 70.324,8.334 70.595,7.367 70.552,6.178 70.199,4.882 69.572,3.606 68.73,2.476 67.758,1.602 66.749,1.069 65.803,0.93 l -0.791,0.268 -0.558,0.648 -0.271,0.967 0.043,1.19 0.353,1.295 0.627,1.276 0.842,1.13 m -1.107,1.085 1.095,1.004 1.141,0.659 1.095,0.261 0.96,-0.157 0.747,-0.564 0.474,-0.924 0.163,-1.21 V 7.857 M 66.605,0.912 66.038,0.632 64.943,0.37 l -0.96,0.157 -0.748,0.564 -0.474,0.924 -0.162,1.21 0.162,1.398 0.473,1.472 0.747,1.427 0.96,1.267 M 7.154,2.651 7.028,3.735 7.218,4.989 7.705,6.292 8.441,7.514 9.355,8.538 10.357,9.261 11.349,9.615 12.233,9.563 12.924,9.112 13.353,8.305 13.479,7.221 13.289,5.966 12.802,4.664 12.065,3.441 11.151,2.418 10.15,1.694 9.158,1.341 8.274,1.392 7.583,1.844 7.154,2.651 M 5.621,2.417 5.463,3.631 5.629,5.03 l 0.478,1.472 0.75,1.426 0.962,1.264 1.096,0.999 1.141,0.655 1.094,0.256 0.958,-0.163 0.744,-0.569 0.47,-0.929 0.158,-1.196 M 9.47,1.3 8.887,1.013 7.793,0.757 6.836,0.92 6.092,1.489 5.621,2.417 m 32.815,-42.239 0.999,0.743 0.995,0.377 0.893,-0.028 0.704,-0.428 0.446,-0.789 0.144,-1.07 -0.171,-1.248 -0.471,-1.303 -0.724,-1.231 -0.905,-1.038 -1,-0.743 -0.995,-0.377 -0.893,0.028 -0.704,0.428 -0.446,0.789 -0.144,1.07 0.171,1.248 0.471,1.303 0.724,1.231 0.906,1.038 m -1.014,1.18 1.127,0.857 1.132,0.486 1.045,0.074 0.873,-0.344 0.631,-0.733 0.338,-1.063 0.05,-0.698 m -4.011,-6.944 -1.07,-0.45 -1.045,-0.074 -0.874,0.343 -0.631,0.734 -0.337,1.063 -0.017,1.307 0.305,1.446 0.603,1.466 0.851,1.369 1.03,1.161 m -36.303,-6.355 0.047,1.191 0.356,1.296 0.631,1.275 0.843,1.128 0.974,0.871 1.008,0.528 0.945,0.135 0.789,-0.273 0.555,-0.653 0.267,-0.97 L 7.487,-41.66 7.131,-42.956 6.5,-44.231 5.657,-45.359 4.683,-46.23 3.675,-46.758 2.73,-46.893 l -0.788,0.273 -0.555,0.653 -0.268,0.97 m -1.558,-0.098 0.036,1.338 0.356,1.457 0.648,1.459 0.885,1.342 1.053,1.117 1.134,0.8 1.124,0.42 1.022,0.005 0.838,-0.41 0.586,-0.792 0.286,-1.11 0.025,-0.497 m -4.011,-6.945 -0.126,-0.07 -1.124,-0.42 -1.022,-0.005 -0.838,0.41 -0.586,0.792 -0.286,1.109 m -4.057,21.767 0.629,0.083 2.637,0.58 2.711,0.963 2.751,1.335 2.76,1.69 2.733,2.024 2.674,2.336 2.582,2.617 2.46,2.867 2.307,3.083 2.126,3.26 1.919,3.399 1.69,3.496 1.439,3.551 1.171,3.562 0.89,3.531 0.596,3.456 0.296,3.34 -0.007,3.182 -0.311,2.987 -0.611,2.755 -0.841,2.348 m -29.155,-89.161 3.367,0.191 3.481,0.589 3.573,0.982 3.638,1.369 3.679,1.747 3.693,2.111 3.362,2.234 m 16.034,15.092 1.632,2.017 3.086,4.124 2.906,4.31 2.705,4.465 2.485,4.59 2.247,4.681 1.995,4.741 0.839,2.221 m 4.949,21.597 0.215,4.003 -0.059,4.229 -0.367,4.031 -0.674,3.802 -0.976,3.55 -1.27,3.27 -1.555,2.968 -1.831,2.646 -2.092,2.305 -2.34,1.947 -1.572,1.025 m -62.49,-107.941 2.164,-1.08 2.883,-1 3.066,-0.607 3.227,-0.209 m 8.552,24.581 2.531,0.19 2.637,0.58 2.71,0.963 2.752,1.335 2.759,1.69 2.734,2.025 2.674,2.335 2.582,2.617 2.46,2.867 2.307,3.083 2.126,3.26 1.919,3.399 1.69,3.497 1.439,3.55 1.171,3.563 0.889,3.53 0.597,3.456 0.296,3.34 -0.008,3.182 -0.311,2.987 -0.611,2.755 -0.903,2.49 -1.185,2.194 -1.452,1.872 -0.495,0.505 m -9.195,3.419 -0.859,-0.042 -2.587,-0.386 -2.678,-0.772 -2.735,-1.151 -2.76,-1.515 -2.75,-1.86 -2.708,-2.183 -0.471,-0.417 m -17.453,-30.211 -0.323,-1.683 -0.447,-3.403 -0.144,-3.266 0.159,-3.09 0.462,-2.875 0.758,-2.626 1.046,-2.346 0.131,-0.237 m 7.519,-6.115 1.333,-0.302 2.394,-0.204 m -146.85,111.819 0.826,-0.18 0.965,0.239 1.002,0.634 0.935,0.961 0.769,1.189 0.522,1.291 0.221,1.257 -0.103,1.093 -0.418,0.812 -0.078,0.084 m 2.594,4.175 0.887,0.018 0.995,0.428 0.984,0.796 0.869,1.081 0.663,1.252 0.388,1.293 0.071,1.196 -0.252,0.976 -0.55,0.652 m -6.146,-7.931 -0.152,-0.255 -0.152,-0.255 -0.151,-0.256 -0.151,-0.257 -0.15,-0.256 -0.15,-0.257 -0.149,-0.258 -0.148,-0.257 m -9.113,-21.633 0.912,0.045 0.999,0.457 0.978,0.82 0.857,1.098 0.645,1.26 0.366,1.29 0.048,1.184 -0.27,0.945 m 4.578,14.534 -0.121,-0.243 -0.086,-0.249 -0.048,-0.244 -0.008,-0.227 0.033,-0.2 0.073,-0.164 0.109,-0.121 0.049,-0.034 m 1.202,3.533 0.153,0.224 0.175,0.196 0.188,0.158 0.193,0.115 0.189,0.066 0.177,0.013 0.156,-0.039 0.038,-0.02 m -7.774,-12.946 -0.125,-0.268 -0.124,-0.267 -0.124,-0.268 -0.123,-0.268 -0.122,-0.268 -0.122,-0.268 -0.121,-0.269 -0.121,-0.268 m 15.169,25.857 -0.176,-0.235 -0.174,-0.236 -0.175,-0.236 -0.173,-0.237 -0.174,-0.237 -0.173,-0.238 -0.172,-0.239 -0.173,-0.239 m -12.797,-21.816 0.13,0.239 0.158,0.219 0.177,0.19 0.19,0.151 0.192,0.107 0.188,0.056 0.174,0.004 0.152,-0.049 m 11.436,20.899 -0.145,-0.23 -0.114,-0.245 -0.08,-0.249 -0.041,-0.241 v -0.223 l 0.04,-0.194 0.08,-0.157 0.114,-0.113 m 4.4,3.084 0.806,0.203 1.003,0.606 0.943,0.941 0.784,1.176 0.542,1.288 0.245,1.265 -0.08,1.108 -0.396,0.837 m -21.88,-32.816 -0.092,-0.249 -0.055,-0.245 -0.015,-0.231 0.026,-0.205 0.066,-0.171 0.102,-0.13 0.072,-0.052 m 15.065,27.14 0.171,0.202 0.186,0.166 0.193,0.123 0.19,0.074 0.18,0.023 0.161,-0.03 0.064,-0.03 m -20.464,-36.857 -0.094,-0.271 -0.093,-0.272 -0.092,-0.271 -0.091,-0.272 -0.091,-0.271 -0.09,-0.271 -0.09,-0.272 -0.088,-0.271 m 0.729,2.171 0.104,0.248 0.136,0.236 0.161,0.215 0.181,0.183 0.19,0.144 0.193,0.098 0.185,0.047 0.171,-0.006 m -3.683,-12.402 0.972,0.269 1,0.661 0.926,0.981 0.753,1.201 0.502,1.293 0.198,1.25 -0.084,0.917 m 24.505,49.687 -0.165,-0.211 -0.14,-0.233 -0.109,-0.247 -0.073,-0.248 -0.033,-0.239 0.007,-0.218 0.047,-0.189 0.086,-0.149 m 1.913,3.419 -0.193,-0.208 -0.192,-0.209 -0.192,-0.21 -0.192,-0.21 -0.191,-0.211 -0.192,-0.212 -0.19,-0.212 -0.191,-0.213 m -27.139,-47.193 -0.062,-0.247 -0.022,-0.233 0.019,-0.211 0.058,-0.178 0.097,-0.138 0.092,-0.071 m 28.49,49.956 0.184,0.173 0.192,0.131 0.192,0.083 0.182,0.033 0.164,-0.021 0.091,-0.039 m 2.56,-1.479 0.683,0.316 0.989,0.772 0.88,1.064 0.681,1.244 0.409,1.294 0.095,1.208 -0.229,0.996 m -38.618,-65.096 0.074,0.248 0.11,0.246 0.141,0.234 0.166,0.21 0.182,0.176 0.192,0.136 0.192,0.089 0.183,0.038 m -1.24,-1.377 -0.06,-0.268 -0.058,-0.267 -0.058,-0.266 -0.058,-0.267 -0.056,-0.266 -0.056,-0.267 -0.055,-0.266 -0.054,-0.265 m 39.675,68.991 -0.179,-0.184 -0.161,-0.216 -0.135,-0.237 -0.103,-0.247 -0.066,-0.248 -0.027,-0.236 0.014,-0.213 0.055,-0.182 m 2.232,3.185 -0.204,-0.175 -0.205,-0.176 -0.204,-0.177 -0.203,-0.177 -0.204,-0.178 -0.203,-0.179 -0.204,-0.179 -0.203,-0.181 m -39.675,-68.991 -0.029,-0.237 0.011,-0.216 0.052,-0.185 0.09,-0.145 0.112,-0.092 m -0.622,-7.675 1,0.485 0.974,0.844 0.844,1.113 0.627,1.267 0.343,1.287 0.052,0.82 m 37.851,73.147 0.191,0.139 0.192,0.092 0.185,0.042 0.168,-0.012 0.119,-0.046 m 3.313,-1.914 0.529,0.353 0.951,0.919 0.799,1.163 0.562,1.284 0.267,1.271 -0.056,1.124 m -50.033,-84.926 0.042,0.242 0.081,0.248 0.116,0.245 0.146,0.23 0.169,0.205 0.185,0.17 0.192,0.128 0.191,0.08 m -1.122,-1.548 -0.024,-0.255 -0.022,-0.254 -0.022,-0.254 -0.022,-0.254 -0.02,-0.254 -0.02,-0.253 -0.019,-0.252 -0.018,-0.253 m 51.006,88.695 -0.189,-0.153 -0.177,-0.191 -0.157,-0.22 -0.13,-0.24 -0.096,-0.248 -0.06,-0.246 -0.019,-0.233 0.022,-0.209 m 2.483,2.854 -0.21,-0.136 -0.21,-0.137 -0.209,-0.138 -0.21,-0.139 -0.21,-0.14 -0.209,-0.141 -0.21,-0.141 -0.209,-0.142 m -51.006,-88.695 0.005,-0.22 0.044,-0.19 0.084,-0.153 0.118,-0.108 0.012,-0.007 m 0.61,-7.095 0.999,0.686 0.916,1.001 0.737,1.212 0.482,1.294 0.131,0.664 m 48.545,92.725 0.193,0.101 0.186,0.051 0.172,-0.002 0.147,-0.052 m 3.953,-2.283 0.356,0.312 0.892,1.047 0.698,1.235 0.431,1.295 0.119,1.219 m -59.927,-102.177 0.009,0.228 0.049,0.244 0.087,0.249 0.122,0.242 0.151,0.227 0.172,0.199 0.187,0.163 0.193,0.12 m -0.97,-1.672 0.013,-0.234 0.014,-0.235 0.015,-0.233 0.015,-0.233 0.016,-0.233 0.017,-0.232 0.018,-0.232 0.018,-0.231 m 60.786,105.702 -0.193,-0.117 -0.187,-0.16 -0.174,-0.196 -0.152,-0.225 -0.125,-0.242 -0.09,-0.249 -0.052,-0.244 -0.012,-0.229 m 2.659,2.436 -0.209,-0.094 -0.209,-0.094 -0.209,-0.095 -0.209,-0.097 -0.21,-0.097 -0.209,-0.098 -0.209,-0.099 -0.21,-0.1 m -60.786,-105.702 0.038,-0.197 0.077,-0.16 0.112,-0.116 0.036,-0.023 m 62.197,106.972 0.188,0.06 0.175,0.008 0.154,-0.045 0.023,-0.012 m -60.895,-113.249 0.967,0.867 0.168,0.194 m 65.942,112.765 0.135,0.753 m -68,-116.322 -0.025,0.206 0.016,0.231 0.056,0.246 0.094,0.248 0.128,0.241 0.155,0.222 0.175,0.194 0.189,0.155 m -0.788,-1.743 0.049,-0.208 0.05,-0.207 0.051,-0.206 0.052,-0.205 0.052,-0.205 0.053,-0.204 0.054,-0.204 0.055,-0.203 m 68.719,119.498 -0.191,-0.077 -0.192,-0.124 -0.186,-0.167 -0.171,-0.202 -0.148,-0.229 -0.118,-0.244 -0.084,-0.249 -0.045,-0.242 m 2.754,1.944 -0.201,-0.048 -0.202,-0.049 -0.202,-0.05 -0.203,-0.05 -0.202,-0.052 -0.203,-0.053 -0.203,-0.054 -0.203,-0.054 m -68.719,-119.498 0.069,-0.167 0.107,-0.124 0.058,-0.041 m 70.104,120.24 0.178,0.017 0.159,-0.036 0.048,-0.023 m -61.987,-86.346 2.353,6.371 2.615,6.346 2.869,6.297 3.11,6.224 3.34,6.128 3.558,6.008 3.762,5.866 3.952,5.701 4.127,5.514 4.285,5.307 4.429,5.08 4.555,4.833 4.663,4.568 4.755,4.285 4.827,3.987 4.883,3.673 4.919,3.346 4.936,3.005 4.935,2.653 4.915,2.292 4.877,1.921 4.82,1.543 4.744,1.159 4.651,0.771 4.54,0.381 4.412,-0.012 4.267,-0.405 4.106,-0.795 3.93,-1.184 3.738,-1.566 2.471,-1.308 m -113.416,-196.373 -1.061,0.636 -3.313,2.314 -3.081,2.676 -2.838,3.026 -2.584,3.366 -2.32,3.693 -2.047,4.006 -1.766,4.303 -1.479,4.585 -1.187,4.849 -0.889,5.094 -0.588,5.321 -0.286,5.526 0.019,5.712 0.322,5.875 0.626,6.016 0.925,6.135 1.223,6.229 1.515,6.301 1.801,6.349 2.08,6.372 m 112.247,-64.829 2.352,6.371 2.616,6.347 2.868,6.297 3.11,6.224 3.34,6.128 3.558,6.008 3.763,5.866 3.951,5.7 4.127,5.515 4.286,5.307 4.428,5.08 4.555,4.833 4.663,4.568 4.755,4.285 4.828,3.987 4.882,3.673 4.919,3.345 4.936,3.006 4.935,2.653 4.915,2.291 4.877,1.921 4.82,1.543 4.744,1.16 4.651,0.771 4.54,0.38 4.413,-0.012 4.267,-0.404 4.106,-0.796 3.929,-1.183 3.738,-1.567 3.532,-1.944 3.313,-2.314 3.081,-2.675 2.838,-3.027 2.584,-3.366 2.32,-3.693 2.047,-4.005 1.766,-4.304 1.479,-4.585 1.187,-4.848 0.889,-5.095 0.588,-5.32 0.286,-5.527 -0.019,-5.711 -0.322,-5.875 -0.626,-6.017 -0.925,-6.134 -1.223,-6.23 -1.514,-6.301 -1.802,-6.348 -2.08,-6.372 -2.353,-6.371 -2.615,-6.346 -2.868,-6.297 -3.111,-6.225 -3.34,-6.128 -3.558,-6.008 -3.762,-5.865 -3.952,-5.701 -4.127,-5.515 -4.285,-5.307 -4.429,-5.079 -4.555,-4.833 -4.663,-4.568 -4.755,-4.286 -4.827,-3.987 -4.883,-3.673 -4.919,-3.345 -4.936,-3.005 -4.935,-2.654 -4.915,-2.291 -4.877,-1.921 -4.819,-1.543 -4.745,-1.159 -4.651,-0.772 -4.54,-0.38 -4.412,0.012 -4.267,0.405 -4.106,0.795 -3.93,1.183 -3.738,1.567 -3.532,1.944 -3.313,2.314 -3.081,2.675 -2.838,3.027 -2.584,3.366 -2.319,3.693 -2.047,4.006 -1.767,4.303 -1.479,4.585 -1.187,4.849 -0.889,5.094 -0.588,5.32 -0.285,5.527 0.018,5.712 0.323,5.875 0.625,6.016 0.926,6.134 1.222,6.23 1.515,6.301 1.801,6.348 2.081,6.372 m 83.447,68.945 0.973,-0.832 2.191,-2.264 1.937,-2.603 1.672,-2.924 1.395,-3.227 1.11,-3.507 0.816,-3.767 0.519,-4.001 0.218,-4.209 -0.086,-4.391 -0.388,-4.543 -0.23,-1.789 m -4.858,-18.971 -1.229,-3.188 -2.082,-4.818 -2.327,-4.755 -2.557,-4.661 -2.771,-4.537 -2.967,-4.382 -3.143,-4.2 -1.635,-2.028 m -13.959,-13.79 -2.021,-1.544 -3.743,-2.588 -3.761,-2.248 -3.753,-1.894 -3.722,-1.529 -3.667,-1.153 -3.588,-0.77 -3.486,-0.381 -3.36,0.009 -3.214,0.4 -3.046,0.788 -1.008,0.361 m 65.77,113.936 0.973,-0.832 2.191,-2.264 1.937,-2.603 1.672,-2.924 1.395,-3.227 1.11,-3.507 0.816,-3.767 0.519,-4.001 0.218,-4.209 -0.086,-4.391 -0.388,-4.543 -0.23,-1.789 m -4.858,-18.971 -1.229,-3.188 -2.082,-4.818 -2.327,-4.755 -2.557,-4.661 -2.771,-4.537 -2.967,-4.382 -3.143,-4.2 -1.635,-2.028 m -13.959,-13.79 -2.021,-1.544 -3.743,-2.588 -3.761,-2.248 -3.753,-1.894 -3.722,-1.529 -3.667,-1.153 -3.588,-0.77 -3.486,-0.381 -3.36,0.009 -3.214,0.4 -3.046,0.788 -1.008,0.361 M 49.9,54.909 l 1.15,-0.712 2.399,-1.855 2.156,-2.217 1.897,-2.562 1.626,-2.89 1.342,-3.197 1.05,-3.481 0.75,-3.742 0.444,-3.976 0.137,-4.182 -0.174,-4.359 -0.056,-0.719 m -4.961,-21.63 -0.37,-0.998 -1.929,-4.75 -2.186,-4.699 -2.427,-4.616 -2.651,-4.499 -2.858,-4.352 -3.043,-4.173 -2.42,-3.031 m -16.033,-15.09 -2.44,-1.65 -3.692,-2.201 -3.685,-1.839 -3.651,-1.465 -3.591,-1.08 -3.507,-0.687 -3.397,-0.29 -3.265,0.109 -3.108,0.507 -2.93,0.902 -2.733,1.291 -0.131,0.075 m 36.537,85.393 0.675,-1.192 0.931,-2.281 0.635,-2.559 0.33,-2.8 0.022,-3.003 L 26.456,17.245 25.864,13.966 24.975,10.617 23.802,7.244 22.361,3.896 20.673,0.62 18.76,-2.539 l -2.11,-2.997 -2.277,-2.793 -2.412,-2.551 -2.514,-2.271 -2.58,-1.961 -2.611,-1.622 -2.604,-1.262 -2.56,-0.883 -2.482,-0.491 -2.326,-0.096 M 13.011,25.719 12.927,25.059 12.335,21.78 11.446,18.431 10.824,16.546 M 0.851,-0.507 0.844,-0.515 -1.569,-3.066 -4.083,-5.337 -5.7,-6.609 M 10.098,21.994 9.617,19.913 8.966,17.678 M -1.062,0.556 -2.086,-0.506 -3.934,-2.237 M 9.926,17.124 9.709,17.238 8.529,17.562 7.194,17.491 6.759,17.389 M -1.78,2.438 l 0.325,-0.864 0.724,-1.055 0.72,-0.57 M 11.068,12.973 10.227,13.537 9.185,13.712 8.01,13.485 6.773,12.872 5.554,11.91 4.429,10.661 3.468,9.202 2.732,7.626 2.267,6.031 2.102,4.518 2.248,3.181 2.696,2.105 3.417,1.358 4.366,0.986 5.483,1.012 6.257,1.239 m 5.671,9.819 -0.271,0.996 -0.589,0.919 m 33.659,33.857 -1.465,-0.775 -1.446,-1.118 -1.364,-1.411 -1.222,-1.642 -1.026,-1.803 -0.786,-1.883 -0.511,-1.883 -0.214,-1.798 0.092,-1.637 0.394,-1.403 0.68,-1.108 0.849,-0.716 m 9.963,17.16 -0.06,0.034 -1.15,0.388 -1.313,-0.006 -1.421,-0.399 m 1.769,-3.737 -1.239,-0.685 -1.207,-1.024 -1.098,-1.297 -0.921,-1.489 -0.686,-1.588 -0.408,-1.587 -0.103,-1.486 0.206,-1.291 0.504,-1.016 0.77,-0.677 0.987,-0.295 1.143,0.106 0.54,0.175 m 5.671,9.818 -0.007,0.04 -0.358,1.163 -0.642,0.853 -0.885,0.49 -1.074,0.095 -1.193,-0.305 m -45.645,-73.909 -1.449,-0.576 -1.465,-0.937 -1.416,-1.26 -1.305,-1.525 -1.138,-1.726 -0.921,-1.849 -0.663,-1.894 -0.377,-1.854 -0.074,-1.733 0.233,-1.538 0.528,-1.274 0.801,-0.956 0.515,-0.357 m 9.906,17.192 -0.574,0.266 -1.231,0.208 -1.37,-0.187 m 1.539,-3.815 -1.229,-0.518 -1.23,-0.878 -1.156,-1.183 -1.009,-1.414 -0.798,-1.555 -0.538,-1.6 -0.242,-1.543 0.067,-1.39 0.373,-1.149 0.655,-0.836 0.897,-0.471 1.08,-0.076 1.07,0.272 m 5.671,9.819 -0.166,0.713 -0.519,1.001 -0.781,0.658 -0.997,0.275 -1.148,-0.125 m 32.335,3.272 -1.466,-0.876 -1.429,-1.206 -1.33,-1.483 -1.171,-1.695 -0.962,-1.834 -0.712,-1.891 -0.429,-1.867 -0.128,-1.761 0.178,-1.577 0.478,-1.326 0.755,-1.015 0.636,-0.479 m 9.934,17.176 -0.363,0.182 -1.201,0.278 -1.35,-0.118 -1.44,-0.508 m 1.89,-3.683 -1.238,-0.769 -1.188,-1.095 -1.062,-1.35 -0.871,-1.521 -0.623,-1.597 -0.338,-1.572 -0.03,-1.448 0.278,-1.233 0.57,-0.941 0.826,-0.59 1.03,-0.202 1.169,0.2 0.256,0.092 m 5.671,9.819 -0.064,0.337 -0.427,1.096 -0.704,0.772 -0.935,0.398 -1.108,10e-4 -1.212,-0.397 M 66.743,16.919 66.611,16.996 65.46,17.381 64.146,17.372 62.725,16.97 61.259,16.192 59.814,15.073 58.451,13.66 57.23,12.016 56.206,10.213 55.422,8.329 54.912,6.447 54.7,4.649 l 0.094,-1.635 0.397,-1.401 0.681,-1.106 0.879,-0.73 m 11.904,11.172 -0.36,1.161 -0.644,0.851 -0.886,0.488 -1.075,0.093 -1.194,-0.307 -1.239,-0.688 -1.206,-1.025 -1.097,-1.299 -0.92,-1.49 L 59.349,7.145 58.943,5.559 58.842,4.074 59.05,2.784 59.556,1.77 60.327,1.095 61.315,0.802 62.458,0.91 62.991,1.083 m -201.318,78.684 6.294,-3.636 m 4.991,22.885 6.263,-3.618 m -13.506,-6.425 6.917,-3.996 m -5.714,6.048 6.914,-3.994 m -17.389,-19.599 5.936,-3.428 m -2.97,12.656 6.775,-3.913 m -5.787,6.053 6.819,-3.939 m 5.973,25.759 6.786,-3.919 m -5.405,5.82 6.735,-3.889 m -0.164,10.929 5.865,-3.387 m -32.547,-42.117 6.347,-3.665 m -5.602,5.827 6.442,-3.72 m -8.995,-7.406 5.263,-3.04 m 23.688,59.196 6.368,-3.678 m -4.851,5.372 6.266,-3.619 m 0.625,9.498 5.146,-2.972 m -43.666,-62.18 5.751,-3.322 m -6.231,1.204 5.599,-3.233 m 34.082,72.222 5.632,-3.253 m -4.029,4.689 5.471,-3.159 m -47.364,-75.687 4.224,-2.439 m 44.659,85.834 4.052,-2.34 m -53.981,-82.647 4.693,-2.71 m -4.896,0.703 4.469,-2.581 m 46.545,91.27 4.518,-2.609 m -2.879,3.746 4.283,-2.474 m -56.344,-94.964 2.735,-1.58 m 56.183,102.108 2.496,-1.442 m -62.312,-100.798 3.179,-1.836 m -3.104,0.002 2.866,-1.656 m 57.931,107.351 2.935,-1.695 m -1.314,2.5 2.609,-1.507 m -63.275,-111.551 0.69,-0.399 m 66.47,115.007 0.366,-0.211 m -68.249,-116.179 1.091,-0.63 m -0.744,-0.971 0.666,-0.385 m 68.068,119.873 0.76,-0.438 m 0.788,0.89 0.317,-0.183 m 69.196,-150.614 2.02,5.416 2.28,5.386 2.528,5.329 2.763,5.244 2.984,5.132 3.19,4.993 3.378,4.828 3.549,4.638 3.702,4.424 3.834,4.186 3.948,3.927 4.041,3.648 4.112,3.348 4.163,3.033 4.191,2.701 4.197,2.354 4.182,1.996 4.145,1.628 4.086,1.25 4.007,0.867 3.905,0.478 3.784,0.087 3.643,-0.303 3.484,-0.694 3.305,-1.079 3.109,-1.46 2.898,-1.832 2.671,-2.196 2.431,-2.547 2.178,-2.886 1.912,-3.209 1.638,-3.516 1.355,-3.805 1.065,-4.073 0.769,-4.32 0.469,-4.545 0.167,-4.746 -0.136,-4.923 L 99.601,11.262 98.862,6.065 97.827,0.77 96.501,-4.594 94.891,-10 l -1.885,-5.419 -2.151,-5.404 -2.405,-5.361 -2.648,-5.29 -2.875,-5.191 -3.089,-5.066 -3.286,-4.914 -3.466,-4.736 -3.628,-4.534 -3.77,-4.308 -3.894,-4.059 -3.997,-3.79 -4.08,-3.5 -4.14,-3.193 -4.179,-2.868 -4.197,-2.53 -4.192,-2.176 -4.167,-1.813 -4.118,-1.44 -4.049,-1.059 -3.958,-0.673 -3.847,-0.283 -3.717,0.108 -3.565,0.499 -3.396,0.887 -3.21,1.27 -3.005,1.647 -2.787,2.015 -2.553,2.374 -2.305,2.718 -2.047,3.05 -1.776,3.365 -1.498,3.662 -1.21,3.941 -0.918,4.2 -0.619,4.435 -0.319,4.649 -0.015,4.837 0.288,5.001 0.589,5.139 0.887,5.25 1.181,5.332 1.469,5.389 1.748,5.415 m 75.525,68.628 3.169,-0.897 2.998,-1.291 2.785,-1.672 2.557,-2.044 2.312,-2.402 2.055,-2.748 1.785,-3.075 1.503,-3.385 1.214,-3.674 0.916,-3.941 0.614,-4.185 0.307,-4.403 -10e-4,-4.594 -0.31,-4.759 -0.616,-4.895 -0.919,-5 -1.217,-5.077 -1.506,-5.122 -1.787,-5.137 -2.057,-5.12 -2.315,-5.074 -2.559,-4.996 -2.787,-4.888 -2.999,-4.752 -3.193,-4.586 -3.367,-4.392 -3.521,-4.174 -3.654,-3.928 -3.766,-3.661 -3.853,-3.37 -3.919,-3.06 -3.961,-2.73 -3.978,-2.386 -3.973,-2.025 -3.942,-1.654 -3.889,-1.272 -3.812,-0.882 -3.711,-0.488 -3.589,-0.089 -3.446,0.308 -3.281,0.705 -3.096,1.097 -2.893,1.482 -2.673,1.86 -2.437,2.224 -0.581,0.624"
       style="fill:none;stroke:#000000;stroke-width:0.709;stroke-linecap:round;stroke-linejoin:round;stroke-miterlimit:10;stroke-dasharray:none;stroke-opacity:1"
       id="path4101" /></g><g
     id="g4103"
     transform="matrix(0.35277777,0,0,-0.35277777,184.54457,19.562092)"><path
       d="M 0,0 0.662,0.374 1.523,1.296 2.126,2.461 2.472,3.862 2.541,5.47 2.322,7.215 1.826,9.014 l -0.747,1.78 -0.969,1.698 -1.154,1.552 -1.3,1.349 -1.329,1.042 -0.347,0.222 m 0,0 -0.777,0.427 -1.49,0.54 -1.468,0.155 -1.208,-0.208 -0.532,-0.269 m 9.124,-17.576 0.536,0.31 m -17.847,-29.675 0.779,0.824 0.609,1.16 0.352,1.396 0.076,1.604 -0.213,1.743 -0.489,1.798 -0.743,1.782 -0.964,1.7 -1.15,1.556 -0.357,0.41 -0.69,0.711 -1.386,1.149 -1.461,0.857 -1.495,0.513 -1.462,0.122 -1.186,-0.234 m 66.525,-16.953 0.497,0.319 0.815,0.967 0.558,1.209 0.053,0.171 m 0,0 0.184,0.812 0.105,1.6 -0.187,1.733 -0.465,1.797 -0.719,1.786 -0.945,1.71 -1.135,1.572 -1.285,1.375 -1.395,1.125 -1.466,0.827 -1.496,0.479 -1.455,0.083 -1.183,-0.27 -0.588,-0.34 m -19.122,-65.36 0.1,0.045 0.939,0.836 0.682,1.092 0.428,1.329 0.157,1.549 -0.13,1.711 -0.412,1.791 -0.672,1.793 -0.904,1.73 -1.1,1.604 -1.19,1.35 -0.326,0.314 m 0,0 -0.726,0.63 -1.436,0.974 -1.487,0.65 -1.485,0.277 -1.25,-0.099 -1.158,-0.451 m 45.263,-16.858 0.217,0.125 0.853,0.929 0.596,1.173 0.338,1.402 0.029,0.251 m 0,0 0.044,0.877 -0.144,1.724 -0.426,1.792 -0.684,1.792 -0.915,1.725 -1.109,1.596 -1.266,1.407 -1.382,1.164 -1.458,0.873 -1.494,0.533 -1.466,0.143 -1.205,-0.218 -0.587,-0.304 m -0.173,-0.037 -0.502,-0.29 m -62.102,6.4 -26.058,-15.049 m 2.471,-4.247 26.057,15.05 m -8.652,16.373 -26.057,-15.05 m 16.21,-27.667 26.057,15.049 m -21.011,40.106 -26.057,-15.049 m 29.496,-50.316 26.057,15.049 m -32.77,62.688 -26.057,-15.049 m 41.924,-71.503 26.057,15.05 m -43.571,83.433 -26.058,-15.05 m 53.118,-90.585 26.057,15.049 m -76.414,92.088 -0.083,-0.114 -1.65,-2.908 -1.104,-2.516 m -0.131,-0.299 -0.161,-0.366 -1.132,-3.439 -0.86,-3.676 -0.582,-3.89 -0.299,-4.079 -0.017,-4.242 0.265,-4.38 0.543,-4.49 0.818,-4.577 1.085,-4.636 1.345,-4.671 1.598,-4.679 1.841,-4.662 2.072,-4.619 2.293,-4.55 2.499,-4.456 2.692,-4.337 2.871,-4.194 3.032,-4.028 3.179,-3.838 3.307,-3.628 3.418,-3.397 3.511,-3.145 3.585,-2.876 3.641,-2.59 3.678,-2.288 3.695,-1.97 3.693,-1.64 3.669,-1.296 3.624,-0.942 2.179,-0.355 m 2.485,-0.293 2.351,-0.144 2.923,0.137 M -43.585,5.411 -69.642,-9.638 m 62.737,-106.983 26.057,15.049 M -41.881,15.394 -67.938,0.345 m 70.489,-120.198 26.057,15.05 M -38.553,23.931 -64.61,8.881 m 76.138,-129.827 26.057,15.049 M -33.703,30.762 -59.76,15.713 m 79.513,-135.581 26.057,15.05 M -27.604,35.608 -53.661,20.559 m 79.608,-137.836 26.057,15.049 M -21.41,38.199 -26.444,35.291 m 79.556,-135.556 4.991,2.883 m -71.288,136.659 -4.967,-2.869 m 76.15,-129.821 4.955,2.862 M -4.208,38.184 -9.007,35.412 m 70.525,-120.177 4.763,2.751 M 5.248,34.952 0.793,32.379 m 62.795,-106.949 4.397,2.539 M 14.896,29.68 10.943,27.397 m 53.196,-90.54 3.874,2.238 M 24.442,22.528 21.129,20.614 m 42.019,-71.448 3.218,1.859 m -32.77,62.688 -2.56,-1.479 m 29.604,-50.253 2.452,1.416 M 42.081,3.503 40.361,2.51 m 16.328,-27.6 1.602,0.926 m -6.88,11.723 0.698,0.403 m -2.47,4.247 -0.822,-0.475 M -70.565,49.827 -182.811,-15.001 m 113.416,-196.373 112.246,64.828 M 0.165,0.036 0.051,-0.027 m -9.81,17.245 0.196,0.105 m 2.074,-6.095 1.657,-4.51 m 0,0 3.493,-2.138 M -0.502,6.952 -2.339,4.58 m 0.181,6.882 1.656,-4.51 m -1.656,4.51 -3.494,2.137 m -1.837,-2.371 1.837,2.371 M -5.339,6.891 -5.549,7.4 -5.801,7.898 -6.091,8.377 -6.413,8.828 -6.758,9.24 m 1.604,-2.937 -0.02,0.078 -0.165,0.51 m 1.898,-1.636 2.939,1.697 m -5.665,2.194 4.009,2.316 m -4.009,-2.316 -0.718,0.44 m 1.546,-2.695 0.225,-0.612 m -1.053,2.867 0.828,-2.255 m -20.244,-24.375 0.332,-4.208 m 0,0 3.179,-3.513 m 2.847,0.695 -2.847,-0.695 m 2.515,4.903 0.332,-4.208 m -0.332,4.208 -3.178,3.513 m -2.848,-0.695 2.848,0.695 m -2.776,-1.603 2.776,1.603 m -0.924,-6.662 -0.08,0.232 -0.208,0.509 -0.25,0.498 -0.288,0.48 -0.321,0.453 -0.349,0.418 m 0,0 -0.176,0.188 m 1.766,-1.944 0.081,-1.028 m -0.081,1.028 4.008,2.315 m -4.008,-2.315 -1.59,1.756 m 0,0 -0.177,0.196 m 46.781,-6.887 0.205,-0.376 0.355,-0.602 m 13.695,11.234 -3.393,0.995 m 0,0 -0.973,-3.314 m 2.421,-4.308 -2.421,4.308 m 5.815,-5.303 -3.394,0.995 m 3.394,-0.995 0.972,3.314 m -2.421,4.308 2.421,-4.308 m -5.219,-0.161 -0.292,0.477 -0.325,0.449 -0.352,0.413 -0.329,0.332 m 2.043,-3.636 -0.109,0.449 -0.168,0.511 -0.213,0.508 -0.255,0.497 m 1.181,-2.254 0.029,0.1 m 0,0 4.009,2.315 m -6.429,1.993 4.008,2.315 m -4.008,-2.315 -0.328,0.096 m 1.538,-2.25 1.21,-2.154 m -2.42,4.308 1.21,-2.154 m -30.65,-44.03 0.774,-4.381 m 0,0 3.338,-3.122 m 2.565,1.259 -2.565,-1.259 m 1.792,5.641 0.773,-4.382 m -0.773,4.382 -3.339,3.122 m -2.565,-1.26 2.565,1.26 m -2.529,-1.461 2.529,1.461 m -0.468,-6.878 -0.089,0.263 -0.208,0.509 -0.249,0.5 -0.287,0.48 -0.321,0.453 -0.348,0.419 -0.082,0.09 m 1.382,-1.274 0.264,-1.499 m -0.264,1.499 4.009,2.316 m -4.009,-2.316 -1.386,1.296 m 32.13,7.985 0.121,0.067 m 6.029,-4.409 -3.201,0.231 m 0,0 -0.387,-3.787 m 2.815,-4.017 -2.815,4.017 m 6.016,-4.248 -3.201,0.231 m 3.201,-0.231 0.387,3.787 m -2.815,4.017 2.815,-4.017 m -5.416,-0.306 -0.334,0.438 -0.358,0.401 -0.261,0.254 m 1.963,-3.175 -0.032,0.104 -0.182,0.511 -0.226,0.506 -0.267,0.491 -0.303,0.47 m -0.826,2.344 3.427,1.979 m -1.251,-6.891 0.057,0.559 m 0,0 4.009,2.315 m -5.416,-0.306 1.407,-2.009 m -2.337,3.335 0.93,-1.326 m -19.052,-31.358 -0.081,1.201 0.244,0.983 0.542,0.661 0.784,0.271 0.943,-0.148 1.003,-0.552 0.958,-0.897 0.813,-1.149 0.582,-1.28 0.289,-1.276 m -6.857,1.34 0.188,-0.06 0.175,-0.008 0.155,0.045 0.126,0.096 0.092,0.142 0.055,0.181 0.015,0.214 -0.026,0.236 m -0.78,-0.846 -0.209,0.094 -0.209,0.094 -0.209,0.095 -0.209,0.097 -0.209,0.097 -0.21,0.098 -0.209,0.099 -0.209,0.1 m 0,0 -0.193,0.117 -0.188,0.16 -0.174,0.196 -0.152,0.225 -0.124,0.242 -0.091,0.249 -0.052,0.244 -0.012,0.229 m -6.184,3.487 0.094,1.098 0.409,0.822 0.681,0.458 0.881,0.047 0.988,-0.369 0.992,-0.747 0.892,-1.046 0.698,-1.236 0.431,-1.295 0.118,-1.219 m -7.147,2.923 0.193,-0.101 0.186,-0.051 0.172,0.002 0.15,0.054 0.12,0.104 0.086,0.149 0.048,0.189 0.008,0.218 m -0.963,-0.564 -0.21,0.136 -0.209,0.137 -0.21,0.138 -0.21,0.139 -0.21,0.14 -0.209,0.141 -0.21,0.141 -0.209,0.143 m 0,0 -0.189,0.152 -0.177,0.191 -0.157,0.22 -0.129,0.24 -0.097,0.248 -0.059,0.246 -0.02,0.233 0.022,0.209 m -6.104,4.681 0.267,0.962 0.562,0.635 0.798,0.241 0.951,-0.178 1.004,-0.58 0.95,-0.919 0.799,-1.163 0.562,-1.284 0.267,-1.271 -0.056,-1.124 m -7.22,4.415 0.192,-0.139 0.192,-0.092 0.184,-0.041 0.169,0.011 0.144,0.063 0.115,0.113 0.08,0.156 0.04,0.195 m -1.116,-0.266 -0.204,0.175 -0.204,0.176 -0.204,0.177 -0.204,0.177 -0.204,0.178 -0.203,0.179 -0.203,0.18 -0.203,0.18 m 0,0 -0.18,0.184 -0.161,0.216 -0.135,0.237 -0.103,0.248 -0.066,0.247 -0.027,0.236 0.015,0.214 0.054,0.182 m -5.837,5.732 0.431,0.798 0.698,0.429 0.892,0.017 0.992,-0.399 0.988,-0.772 0.881,-1.064 0.68,-1.244 0.41,-1.294 0.095,-1.208 -0.23,-0.995 m -7.073,5.774 0.184,-0.173 0.192,-0.131 0.192,-0.083 0.182,-0.033 0.165,0.021 0.14,0.072 0.109,0.121 0.072,0.164 m -1.236,0.042 -0.192,0.209 -0.193,0.208 -0.192,0.21 -0.192,0.21 -0.191,0.211 -0.191,0.212 -0.191,0.212 -0.19,0.213 m 0,0 -0.165,0.211 -0.14,0.234 -0.109,0.246 -0.073,0.248 -0.034,0.239 0.007,0.218 0.048,0.189 0.085,0.15 m -5.393,6.61 0.582,0.609 0.812,0.21 0.958,-0.209 1.004,-0.606 0.943,-0.941 0.783,-1.176 0.543,-1.288 0.244,-1.264 -0.08,-1.109 -0.396,-0.836 m -6.711,6.958 0.171,-0.202 0.186,-0.165 0.193,-0.123 0.19,-0.075 0.18,-0.023 0.161,0.03 0.135,0.081 0.102,0.129 m -1.318,0.348 -0.175,0.235 -0.175,0.236 -0.174,0.236 -0.174,0.237 -0.174,0.238 -0.173,0.237 -0.172,0.239 -0.172,0.239 m 0,0 -0.145,0.23 -0.115,0.245 -0.08,0.249 -0.041,0.241 v 0.223 l 0.041,0.194 0.079,0.158 0.114,0.112 m -4.785,7.288 0.715,0.401 0.902,-0.015 0.995,-0.427 0.984,-0.797 0.869,-1.081 0.663,-1.252 0.388,-1.292 0.071,-1.197 -0.252,-0.976 -0.55,-0.652 m -6.146,7.931 0.154,-0.224 0.174,-0.196 0.188,-0.158 0.193,-0.115 0.189,-0.066 0.177,-0.013 0.157,0.039 0.129,0.09 m -1.361,0.643 -0.152,0.255 -0.152,0.256 -0.151,0.256 -0.151,0.256 -0.15,0.256 -0.15,0.257 -0.149,0.258 -0.148,0.257 m 0,0 -0.121,0.244 -0.086,0.249 -0.048,0.243 -0.008,0.227 0.034,0.2 0.072,0.164 0.109,0.121 0.14,0.073 m -4.033,7.744 0.827,0.18 0.964,-0.239 1.003,-0.634 0.934,-0.961 0.769,-1.189 0.522,-1.29 0.221,-1.258 -0.103,-1.093 -0.417,-0.812 -0.687,-0.448 m -5.394,8.661 0.13,-0.239 0.158,-0.219 0.178,-0.19 0.189,-0.151 0.193,-0.106 0.187,-0.057 0.174,-0.004 0.152,0.049 m -1.361,0.917 -0.125,0.268 -0.124,0.267 -0.124,0.268 -0.123,0.268 -0.122,0.268 -0.122,0.268 -0.121,0.269 -0.12,0.268 m 0,0 -0.093,0.249 -0.055,0.245 -0.015,0.231 0.026,0.205 0.066,0.172 0.102,0.129 0.135,0.082 0.161,0.03 m -3.157,7.964 0.913,-0.045 0.998,-0.457 0.979,-0.82 0.857,-1.098 0.645,-1.26 0.365,-1.29 0.048,-1.184 -0.275,-0.955 -0.57,-0.625 -0.803,-0.23 m -4.478,9.129 0.104,-0.247 0.136,-0.237 0.162,-0.215 0.18,-0.183 0.191,-0.144 0.192,-0.097 0.186,-0.048 0.17,0.006 m -1.321,1.165 -0.093,0.272 -0.093,0.271 -0.093,0.271 -0.091,0.272 -0.091,0.271 -0.09,0.271 -0.089,0.272 -0.089,0.271 m 0,0 -0.062,0.247 -0.022,0.234 0.019,0.21 0.059,0.178 0.096,0.138 0.129,0.09 0.157,0.04 0.177,-0.013 m -2.185,7.942 0.971,-0.269 1.001,-0.66 0.925,-0.982 0.754,-1.201 0.502,-1.293 0.197,-1.25 -0.127,-1.075 -0.439,-0.789 -0.704,-0.418 -0.895,-0.005 m -3.426,9.319 0.074,-0.248 0.11,-0.246 0.141,-0.234 0.166,-0.209 0.183,-0.177 0.191,-0.136 0.192,-0.089 0.184,-0.038 m -1.241,1.377 -0.059,0.268 -0.059,0.267 -0.058,0.266 -0.057,0.267 -0.057,0.267 -0.055,0.266 -0.055,0.266 -0.055,0.266 m 0,0 -0.029,0.237 0.012,0.215 0.051,0.185 0.09,0.145 0.124,0.099 0.152,0.049 0.174,-0.004 0.187,-0.056 m -1.146,7.679 1,-0.485 0.973,-0.843 0.845,-1.114 0.626,-1.267 0.344,-1.287 0.023,-1.171 -0.298,-0.935 -0.588,-0.598 -0.818,-0.199 -0.961,0.22 m -2.269,9.227 0.042,-0.241 0.081,-0.249 0.116,-0.245 0.146,-0.23 0.169,-0.205 0.185,-0.17 0.192,-0.128 0.192,-0.08 m -1.123,1.548 -0.023,0.255 -0.023,0.255 -0.022,0.254 -0.021,0.253 -0.021,0.254 -0.019,0.253 -0.019,0.252 -0.018,0.253 m 0,0 0.004,0.22 0.045,0.191 0.083,0.152 0.118,0.108 0.148,0.058 0.17,0.006 0.186,-0.047 0.192,-0.097 m -0.074,7.183 0.999,-0.687 0.916,-1.001 0.738,-1.212 0.481,-1.294 0.174,-1.242 -0.15,-1.058 -0.46,-0.764 -0.721,-0.39 -0.906,0.026 -0.997,0.439 m -1.044,8.854 0.009,-0.228 0.049,-0.243 0.088,-0.249 0.122,-0.243 0.15,-0.226 0.173,-0.2 0.186,-0.163 0.193,-0.119 m -0.97,1.671 0.013,0.234 0.014,0.235 0.015,0.233 0.015,0.234 0.016,0.232 0.017,0.232 0.018,0.232 0.019,0.231 m 0,0 0.037,0.197 0.077,0.16 0.112,0.116 0.143,0.067 0.167,0.015 0.183,-0.037 0.192,-0.089 0.192,-0.136 m 1.001,6.469 0.967,-0.867 0.832,-1.129 0.608,-1.273 0.32,-1.283 10e-4,-1.158 -0.321,-0.913 -0.608,-0.57 -0.831,-0.169 -0.967,0.25 -1.002,0.643 m 0.213,8.213 -0.025,-0.207 0.016,-0.231 0.057,-0.246 0.094,-0.248 0.127,-0.241 0.155,-0.222 0.175,-0.193 0.189,-0.156 m -0.788,1.744 0.049,0.207 0.05,0.207 0.051,0.206 0.052,0.205 0.052,0.205 0.053,0.205 0.054,0.203 0.055,0.203 m 0,0 0.07,0.167 0.106,0.124 0.138,0.077 0.163,0.024 0.181,-0.028 0.191,-0.08 0.192,-0.127 0.185,-0.17 m 2.046,5.557 0.906,-1.021 0.721,-1.222 0.46,-1.295 0.151,-1.232 -0.174,-1.041 -0.481,-0.739 -0.737,-0.36 -0.916,0.057 -0.999,0.467 -0.977,0.829 m 1.464,7.32 -0.058,-0.179 -0.017,-0.212 0.023,-0.234 0.063,-0.247 0.1,-0.248 0.133,-0.238 0.159,-0.218 0.179,-0.187 m -0.582,1.763 0.084,0.174 0.085,0.173 0.085,0.173 0.086,0.171 0.087,0.171 0.088,0.17 0.088,0.17 0.089,0.168 m 0,0 0.1,0.132 0.133,0.086 0.159,0.034 0.178,-0.019 0.19,-0.071 0.193,-0.12 0.187,-0.162 0.173,-0.199 m 3.028,4.477 0.818,-1.143 0.588,-1.279 0.299,-1.278 -0.024,-1.144 -0.343,-0.891 -0.626,-0.543 -0.845,-0.139 -0.973,0.281 -1,0.67 -0.922,0.989 m 2.669,6.206 -0.089,-0.146 -0.05,-0.186 -0.01,-0.216 0.03,-0.238 0.07,-0.248 0.107,-0.247 0.138,-0.235 0.163,-0.213 m -0.359,1.729 0.116,0.136 0.117,0.134 0.118,0.133 0.118,0.133 0.119,0.131 0.119,0.131 0.12,0.13 0.121,0.129 m 0,0 0.127,0.094 0.155,0.043 0.176,-0.01 0.188,-0.061 0.193,-0.111 0.189,-0.156 0.176,-0.193 0.155,-0.222 m 3.918,3.261 0.705,-1.231 0.439,-1.296 0.127,-1.222 -0.198,-1.022 -0.501,-0.714 -0.753,-0.33 -0.926,0.087 -1.001,0.495 -0.971,0.853 -0.839,1.119 m 3.794,4.904 -0.117,-0.109 -0.082,-0.154 -0.044,-0.192 -0.003,-0.221 0.038,-0.24 0.077,-0.249 0.112,-0.245 0.143,-0.233 m -0.124,1.643 0.145,0.092 0.145,0.092 0.146,0.09 0.147,0.089 0.147,0.089 0.148,0.087 0.148,0.086 0.149,0.086 m 0,0 0.15,0.052 h 0.173 l 0.187,-0.052 0.192,-0.103 0.19,-0.148 0.179,-0.187 0.159,-0.217 0.133,-0.238 m 4.69,1.946 0.57,-1.283 0.275,-1.273 -0.047,-1.13 -0.365,-0.868 -0.645,-0.515 -0.857,-0.108 -0.979,0.31 -0.998,0.696 -0.912,1.009 -0.732,1.216 m 4.804,3.452 -0.142,-0.069 -0.111,-0.117 -0.075,-0.162 -0.037,-0.197 0.005,-0.225 0.045,-0.243 0.083,-0.249 0.118,-0.244 m 0.114,1.506 0.169,0.047 0.17,0.045 0.17,0.045 0.17,0.043 0.171,0.043 0.172,0.041 0.172,0.041 0.172,0.039 m 0,0 0.169,0.009 0.185,-0.043 0.192,-0.094 0.191,-0.14 0.182,-0.181 0.163,-0.213 0.138,-0.235 0.107,-0.247 m 5.319,0.572 0.417,-1.294 0.104,-1.212 -0.221,-1.003 -0.522,-0.688 -0.768,-0.301 -0.935,0.118 -1.002,0.524 -0.965,0.875 -0.826,1.134 -0.601,1.275 m 5.667,1.896 -0.162,-0.026 -0.137,-0.078 -0.105,-0.126 -0.069,-0.168 -0.029,-0.203 0.012,-0.229 0.052,-0.245 0.09,-0.249 m 0.348,1.324 h 0.189 l 0.188,-0.002 0.189,-0.003 0.189,-0.004 0.19,-0.004 0.19,-0.006 0.19,-0.007 0.191,-0.007 m 0,0 0.183,-0.034 0.191,-0.086 0.192,-0.132 0.184,-0.174 0.167,-0.208 0.143,-0.232 0.113,-0.245 0.077,-0.249 m 5.786,-0.82 0.253,-1.267 -0.071,-1.114 -0.388,-0.845 -0.663,-0.487 -0.869,-0.077 -0.983,0.34 -0.996,0.721 -0.902,1.028 -0.715,1.226 -0.452,1.295 m 6.359,0.282 -0.178,0.017 -0.159,-0.036 -0.131,-0.086 -0.099,-0.134 -0.062,-0.175 -0.022,-0.209 0.019,-0.232 0.059,-0.247 m 0.573,1.102 0.201,-0.048 0.202,-0.049 0.202,-0.049 0.203,-0.051 0.202,-0.052 0.203,-0.053 0.203,-0.054 0.203,-0.054 m 0,0 0.191,-0.077 0.192,-0.124 0.186,-0.167 0.17,-0.202 0.148,-0.229 0.119,-0.244 0.083,-0.249 0.046,-0.242 M 5.009,34.096 5.089,32.895 4.845,31.912 4.303,31.25 3.519,30.979 l -0.943,0.148 -1.003,0.552 -0.958,0.897 -0.813,1.149 -0.581,1.28 -0.29,1.277 M 5.788,34.941 5.6,35.001 5.425,35.009 5.271,34.964 5.144,34.868 5.052,34.727 4.997,34.545 4.982,34.331 5.009,34.096 m 0.779,0.845 0.209,-0.093 0.209,-0.095 0.209,-0.095 0.209,-0.096 0.209,-0.098 0.21,-0.098 0.209,-0.099 0.21,-0.1 m 0,0 0.192,-0.116 0.188,-0.16 0.174,-0.197 0.152,-0.224 0.124,-0.243 0.091,-0.248 0.052,-0.245 0.012,-0.229 m 6.185,-3.487 -0.095,-1.098 -0.409,-0.822 -0.681,-0.458 -0.88,-0.047 -0.989,0.37 -0.992,0.747 -0.892,1.046 -0.698,1.235 -0.431,1.295 -0.118,1.219 m 7.147,-2.923 -0.193,0.101 -0.186,0.051 -0.172,-0.001 -0.15,-0.055 -0.12,-0.104 -0.086,-0.149 -0.048,-0.188 -0.007,-0.219 m 0.962,0.564 0.21,-0.136 0.21,-0.137 0.209,-0.138 0.21,-0.139 0.21,-0.14 0.209,-0.14 0.21,-0.142 0.209,-0.142 m 0,0 0.189,-0.153 0.177,-0.191 0.157,-0.22 0.13,-0.24 0.096,-0.248 0.059,-0.246 0.02,-0.233 -0.022,-0.209 m 6.104,-4.68 -0.267,-0.963 -0.562,-0.635 -0.798,-0.241 -0.951,0.179 -1.004,0.579 -0.95,0.919 -0.799,1.163 -0.562,1.284 -0.267,1.271 0.056,1.124 m 7.22,-4.415 -0.191,0.139 -0.193,0.092 -0.184,0.042 -0.169,-0.011 -0.144,-0.064 -0.115,-0.112 -0.08,-0.157 -0.04,-0.194 m 1.116,0.265 0.204,-0.175 0.204,-0.176 0.204,-0.176 0.204,-0.178 0.204,-0.178 0.203,-0.179 0.204,-0.179 0.203,-0.181 m 0,0 0.179,-0.184 0.161,-0.216 0.135,-0.237 0.103,-0.247 0.066,-0.248 0.027,-0.236 -0.015,-0.213 -0.054,-0.182 m 5.837,-5.733 -0.431,-0.798 -0.698,-0.429 -0.891,-0.016 -0.993,0.398 -0.988,0.772 -0.88,1.064 -0.681,1.244 -0.41,1.294 -0.095,1.208 0.23,0.996 m 7.073,-5.775 -0.184,0.173 -0.192,0.131 -0.192,0.084 -0.182,0.032 -0.165,-0.021 -0.14,-0.072 -0.108,-0.121 -0.073,-0.164 m 1.236,-0.042 0.192,-0.208 0.193,-0.209 0.192,-0.21 0.192,-0.21 0.191,-0.211 0.191,-0.212 0.191,-0.212 0.191,-0.213 m 0,0 0.164,-0.21 0.141,-0.234 0.108,-0.247 0.073,-0.248 0.034,-0.239 -0.007,-0.218 -0.047,-0.189 -0.086,-0.149 M 41.908,3.323 41.326,2.715 40.514,2.504 39.556,2.713 38.553,3.32 37.61,4.26 l -0.784,1.176 -0.543,1.288 -0.244,1.265 0.08,1.108 0.396,0.837 M 43.226,2.976 43.055,3.177 42.869,3.343 42.676,3.466 42.486,3.54 42.306,3.563 42.145,3.533 42.01,3.452 41.908,3.323 M 43.226,2.976 43.401,2.74 43.576,2.504 43.75,2.268 43.924,2.031 44.098,1.794 44.271,1.556 44.443,1.317 44.615,1.079 m 0,0 0.145,-0.231 0.115,-0.245 0.08,-0.249 0.041,-0.241 V -0.11 l -0.04,-0.194 -0.08,-0.157 -0.114,-0.113 m 4.785,-7.288 -0.715,-0.401 -0.902,0.015 -0.995,0.428 -0.984,0.796 -0.869,1.081 -0.663,1.252 -0.388,1.293 -0.071,1.196 0.252,0.976 0.55,0.652 m 6.146,-7.93 -0.154,0.223 -0.174,0.196 -0.188,0.159 -0.193,0.114 -0.189,0.066 -0.177,0.013 -0.156,-0.039 -0.13,-0.09 m 1.361,-0.642 0.152,-0.256 0.152,-0.255 0.151,-0.256 0.151,-0.257 0.15,-0.256 0.15,-0.257 0.149,-0.257 0.148,-0.258 m 0,0 0.121,-0.243 0.086,-0.249 0.048,-0.244 0.008,-0.226 -0.034,-0.201 -0.072,-0.164 -0.109,-0.121 -0.14,-0.073 m 4.033,-7.743 -0.826,-0.181 -0.965,0.239 -1.003,0.634 -0.934,0.961 -0.769,1.189 -0.522,1.291 -0.221,1.257 0.103,1.093 0.417,0.813 0.687,0.447 m 5.394,-8.661 -0.13,0.239 -0.158,0.219 -0.177,0.19 -0.19,0.151 -0.193,0.107 -0.187,0.056 -0.174,0.004 -0.152,-0.048 m 1.361,-0.918 0.125,-0.268 0.124,-0.267 0.124,-0.268 0.123,-0.268 0.122,-0.268 0.122,-0.268 0.121,-0.268 0.12,-0.269 m 0,0 0.093,-0.249 0.055,-0.245 0.015,-0.23 -0.026,-0.206 -0.066,-0.171 -0.102,-0.13 -0.135,-0.081 -0.161,-0.031 m 3.157,-7.964 -0.913,0.046 -0.998,0.456 -0.979,0.82 -0.857,1.098 -0.645,1.26 -0.365,1.29 -0.048,1.185 0.275,0.955 0.57,0.625 0.803,0.229 m 4.478,-9.129 -0.104,0.248 -0.136,0.236 -0.162,0.215 -0.18,0.183 -0.19,0.144 -0.193,0.098 -0.186,0.047 -0.17,-0.006 m 1.321,-1.165 0.093,-0.271 0.093,-0.272 0.093,-0.271 0.091,-0.271 0.091,-0.272 0.09,-0.271 0.089,-0.272 0.089,-0.271 m 0,0 0.062,-0.246 0.022,-0.234 -0.019,-0.211 -0.059,-0.178 -0.096,-0.138 -0.129,-0.09 -0.157,-0.04 -0.177,0.014 m 2.185,-7.943 -0.971,0.269 -1.001,0.661 -0.925,0.981 -0.754,1.201 -0.501,1.293 -0.198,1.25 0.127,1.075 0.439,0.789 0.704,0.419 0.895,0.005 m 3.426,-9.32 -0.074,0.248 -0.11,0.247 -0.141,0.233 -0.166,0.21 -0.182,0.177 -0.192,0.135 -0.192,0.089 -0.184,0.038 m 1.241,-1.377 0.059,-0.267 0.059,-0.267 0.058,-0.267 0.057,-0.267 0.057,-0.266 0.055,-0.266 0.055,-0.267 0.055,-0.265 m 0,0 0.029,-0.237 -0.012,-0.216 -0.051,-0.184 -0.09,-0.146 -0.124,-0.099 -0.152,-0.049 -0.174,0.004 -0.187,0.056 m 1.147,-7.679 -1.001,0.485 -0.973,0.844 -0.844,1.113 -0.627,1.267 -0.343,1.287 -0.024,1.172 0.298,0.934 0.588,0.598 0.818,0.199 0.961,-0.22 m 2.269,-9.227 -0.042,0.242 -0.081,0.248 -0.116,0.245 -0.146,0.23 -0.169,0.205 -0.185,0.17 -0.192,0.128 -0.191,0.08 m 1.122,-1.548 0.023,-0.255 0.023,-0.254 0.022,-0.254 0.021,-0.254 0.021,-0.254 0.019,-0.253 0.019,-0.252 0.018,-0.253 m 0,0 -0.004,-0.22 -0.045,-0.19 -0.083,-0.153 -0.118,-0.108 -0.148,-0.058 -0.17,-0.006 -0.186,0.047 -0.192,0.098 m 0.074,-7.183 -0.999,0.686 -0.916,1.002 -0.738,1.211 -0.481,1.295 -0.174,1.241 0.151,1.058 0.459,0.764 0.721,0.39 0.906,-0.026 0.997,-0.438 m 1.044,-8.855 -0.009,0.228 -0.049,0.244 -0.088,0.249 -0.121,0.243 -0.151,0.226 -0.172,0.199 -0.187,0.163 -0.193,0.12 m 0.97,-1.672 -0.013,-0.234 -0.014,-0.234 -0.015,-0.234 -0.015,-0.233 -0.016,-0.233 -0.017,-0.232 -0.018,-0.232 -0.019,-0.231 m 0,0 -0.037,-0.196 -0.077,-0.16 -0.112,-0.117 -0.143,-0.067 -0.167,-0.015 -0.183,0.038 -0.192,0.088 -0.192,0.136 m -1.001,-6.469 -0.967,0.867 -0.832,1.129 -0.608,1.273 -0.32,1.283 -10e-4,1.158 0.321,0.913 0.608,0.571 0.831,0.169 0.967,-0.251 1.002,-0.643 m -0.213,-8.212 0.025,0.206 -0.016,0.231 -0.057,0.246 -0.094,0.249 -0.127,0.24 -0.155,0.222 -0.175,0.194 -0.189,0.155 m 0.788,-1.743 -0.049,-0.208 -0.05,-0.207 -0.051,-0.206 -0.052,-0.205 -0.052,-0.205 -0.053,-0.204 -0.054,-0.204 -0.055,-0.203 m 0,0 -0.07,-0.167 -0.106,-0.124 -0.138,-0.076 -0.163,-0.025 -0.181,0.028 -0.191,0.08 -0.192,0.128 -0.185,0.17 m -2.046,-5.558 -0.906,1.021 -0.721,1.222 -0.46,1.295 -0.151,1.233 0.174,1.04 0.481,0.739 0.737,0.36 0.916,-0.056 0.999,-0.468 0.977,-0.828 m -1.464,-7.321 0.058,0.179 0.017,0.212 -0.023,0.234 -0.063,0.247 -0.1,0.248 -0.133,0.238 -0.159,0.218 -0.179,0.187 m 0.582,-1.763 -0.084,-0.174 -0.084,-0.173 -0.086,-0.173 -0.086,-0.171 -0.087,-0.171 -0.088,-0.17 -0.088,-0.169 -0.089,-0.169 m 0,0 -0.1,-0.132 -0.133,-0.085 -0.159,-0.034 -0.178,0.019 -0.19,0.07 -0.193,0.12 -0.187,0.163 -0.173,0.199 m -3.028,-4.478 -0.817,1.144 -0.589,1.278 -0.299,1.278 0.024,1.145 0.343,0.89 0.627,0.543 0.844,0.139 0.973,-0.28 1,-0.67 0.922,-0.989 m -2.669,-6.207 0.089,0.146 0.05,0.186 0.01,0.216 -0.03,0.238 -0.07,0.248 -0.107,0.247 -0.137,0.235 -0.164,0.213 m 0.359,-1.729 -0.116,-0.135 -0.117,-0.135 -0.118,-0.133 -0.118,-0.132 -0.119,-0.132 -0.119,-0.131 -0.12,-0.129 -0.121,-0.129 m 0,0 -0.127,-0.094 -0.155,-0.044 -0.176,0.01 -0.188,0.062 -0.193,0.111 -0.189,0.155 -0.175,0.193 -0.156,0.222 m -3.918,-3.261 -0.705,1.232 -0.439,1.295 -0.127,1.223 0.198,1.021 0.501,0.714 0.753,0.331 0.926,-0.087 1.001,-0.496 0.971,-0.852 0.839,-1.12 m -3.794,-4.904 0.117,0.109 0.082,0.154 0.044,0.192 0.003,0.221 -0.038,0.24 -0.077,0.249 -0.112,0.246 -0.143,0.232 m 0.124,-1.643 -0.145,-0.092 -0.145,-0.091 -0.146,-0.091 -0.147,-0.089 -0.147,-0.088 -0.148,-0.088 -0.148,-0.086 -0.149,-0.086 m 0,0 -0.15,-0.052 h -0.173 l -0.187,0.052 -0.192,0.103 -0.19,0.148 -0.179,0.187 -0.159,0.217 -0.133,0.239 m -4.69,-1.947 -0.57,1.283 -0.275,1.273 0.047,1.13 0.365,0.868 0.645,0.515 0.857,0.108 0.979,-0.31 0.998,-0.696 0.913,-1.009 0.731,-1.215 m -4.804,-3.453 0.142,0.069 0.111,0.118 0.076,0.161 0.036,0.198 -0.005,0.225 -0.044,0.242 -0.084,0.249 -0.118,0.244 m -0.114,-1.506 -0.169,-0.046 -0.17,-0.046 -0.17,-0.044 -0.17,-0.044 -0.171,-0.042 -0.172,-0.042 -0.172,-0.04 -0.172,-0.04 m 0,0 -0.169,-0.009 -0.185,0.043 -0.192,0.094 -0.191,0.141 -0.182,0.18 -0.163,0.213 -0.138,0.235 -0.107,0.247 m -5.319,-0.572 -0.417,1.294 -0.104,1.213 0.221,1.002 0.522,0.688 0.768,0.301 0.935,-0.118 1.002,-0.523 0.965,-0.876 0.826,-1.134 0.601,-1.275 m -5.667,-1.896 0.162,0.026 0.137,0.078 0.105,0.126 0.069,0.168 0.029,0.204 -0.012,0.229 -0.052,0.244 -0.09,0.249 m -0.348,-1.324 -0.189,10e-4 -0.188,0.001 -0.189,0.003 -0.189,0.004 -0.19,0.005 -0.19,0.005 -0.19,0.007 -0.191,0.008 m 0,0 -0.183,0.034 -0.191,0.085 -0.192,0.132 -0.184,0.174 -0.167,0.208 -0.143,0.232 -0.113,0.246 -0.077,0.248 m -5.786,0.82 -0.253,1.267 0.071,1.114 0.388,0.845 0.663,0.487 0.869,0.078 0.983,-0.34 0.996,-0.722 0.902,-1.028 0.715,-1.225 0.452,-1.296 m -6.359,-0.282 0.178,-0.017 0.159,0.036 0.131,0.086 0.099,0.134 0.062,0.176 0.022,0.208 -0.019,0.233 -0.059,0.246 m -0.573,-1.102 -0.201,0.048 -0.202,0.049 -0.202,0.05 -0.203,0.05 -0.202,0.052 -0.203,0.053 -0.203,0.054 -0.203,0.055 m 0,0 -0.19,0.076 -0.193,0.124 -0.186,0.167 -0.17,0.203 -0.148,0.228 -0.119,0.244 -0.083,0.249 -0.046,0.243 m -17.717,43.693 -1.78,0.088 m 0,0 -1.503,0.493 -1.406,0.093 -1.249,-0.314 -1.041,-0.705 -0.789,-1.069 -0.503,-1.386 -0.198,-1.647 0.117,-1.837 0.427,-1.952 0.718,-1.985 0.98,-1.934 1.201,-1.802 1.371,-1.596 1.484,-1.322 1.535,-0.993 1.521,-0.623 1.445,-0.226 1.307,0.18 1.115,0.579 0.876,0.953 0.601,1.287 0.3,1.568 -0.013,1.783 -0.326,1.923 -0.625,1.983 -0.898,1.96 -1.133,1.854 -1.32,1.672 m 0,0 -1.427,2.372 m 25.737,0.071 -1.453,-1.908 -1.709,-1.557 -1.943,-1.186 -2.154,-0.802 -2.336,-0.407 -2.492,-0.007 -2.615,0.393 -2.706,0.789 -2.764,1.173 -2.788,1.545 -2.777,1.896 m 25.737,0.071 0.225,-2.375 m 0,0 -0.156,-1.676 0.158,-1.858 0.467,-1.961 0.754,-1.982 1.012,-1.921 1.226,-1.78 1.39,-1.563 1.494,-1.282 1.537,-0.946 1.515,-0.571 1.43,-0.173 1.284,0.234 1.086,0.63 0.842,0.999 0.562,1.328 0.259,1.6 -0.055,1.806 -0.366,1.935 -0.663,1.985 -0.931,1.951 -1.16,1.834 -1.342,1.643 -1.466,1.381 -1.53,1.062 -1.53,0.698 -1.464,0.306 -1.339,-0.1 -1.157,-0.501 m 0,0 -1.716,-0.097 m -4.351,35.387 1.814,-3.492 1.568,-3.568 1.301,-3.599 1.02,-3.585 0.725,-3.527 0.421,-3.425 0.112,-3.282 -0.198,-3.096 -0.506,-2.874 -0.807,-2.615 -1.099,-2.324 m -4.351,35.387 1.92,-1.555 m 0,0 1.406,-1.53 1.504,-1.24 1.537,-0.899 1.508,-0.519 1.414,-0.119 1.261,0.286 1.056,0.681 0.807,1.046 0.523,1.367 0.218,1.631 -0.096,1.827 -0.407,1.947 -0.7,1.985 -0.964,1.94 -1.187,1.814 -1.362,1.611 -1.478,1.342 -1.533,1.016 -1.525,0.648 -1.451,0.253 -1.318,-0.153 -1.13,-0.553 -0.893,-0.929 -0.619,-1.267 -0.321,-1.551 -0.007,-1.771 0.305,-1.916 0.606,-1.982 m 0,0 0.366,-2.432 M 1.305,-0.97 3.88,-1.22 l 2.677,-0.648 2.748,-1.038 2.783,-1.414 2.785,-1.773 2.751,-2.11 2.685,-2.421 2.584,-2.702 2.451,-2.95 2.289,-3.16 2.098,-3.333 M 1.305,-0.97 2.266,0.445 m 0,0 1.026,0.73 0.771,1.091 0.484,1.406 0.176,1.661 -0.137,1.848 -0.447,1.956 -0.737,1.984 -0.996,1.928 -1.213,1.791 -1.38,1.58 -1.49,1.302 -1.536,0.969 -1.518,0.597 -1.437,0.2 -1.296,-0.207 -1.101,-0.604 -0.859,-0.977 -0.581,-1.307 -0.28,-1.584 0.034,-1.795 0.346,-1.929 0.644,-1.984 0.914,-1.956 1.147,-1.845 1.332,-1.657 1.46,-1.4 1.527,-1.085 1.532,-0.723 m 0,0 1.942,-1.406 m -13.218,-21.914 -0.223,3.337 0.088,3.167 0.396,2.958 0.701,2.711 0.996,2.431 1.28,2.122 1.547,1.785 1.795,1.426 2.021,1.051 2.222,0.661 2.395,0.265 m -13.218,-21.914 -1.325,2.429 m 0,0 -0.773,1.981 -1.027,1.914 -1.239,1.768 -1.398,1.546 -1.499,1.261 -1.537,0.923 -1.511,0.545 -1.422,0.146 -1.274,-0.26 -1.071,-0.655 -0.824,-1.023 -0.543,-1.347 -0.238,-1.616 0.075,-1.817 0.387,-1.942 0.681,-1.985 0.948,-1.945 1.174,-1.824 1.351,-1.627 1.473,-1.362 1.532,-1.039 1.527,-0.674 1.458,-0.279 1.329,0.127 1.143,0.527 0.91,0.905 0.639,1.246 0.34,1.534 m 0,0 0.835,1.563 m 20.256,-35.343 -2.712,2.314 -2.623,2.605 -2.503,2.866 -2.35,3.089 -2.169,3.276 -1.961,3.421 -1.728,3.524 -1.475,3.584 -1.203,3.599 -0.915,3.57 -0.617,3.495 m -45.205,-37.984 0.826,0.181 0.965,-0.24 1.003,-0.633 0.934,-0.962 0.769,-1.188 0.522,-1.291 0.221,-1.258 -0.103,-1.092 -0.418,-0.813 -0.078,-0.083 m 2.594,-4.175 0.887,-0.018 0.995,-0.428 0.984,-0.796 0.869,-1.081 0.663,-1.252 0.388,-1.293 0.071,-1.197 -0.252,-0.975 -0.55,-0.652 m -6.146,7.93 -0.152,0.256 -0.152,0.255 -0.151,0.256 -0.151,0.256 -0.15,0.257 -0.15,0.257 -0.149,0.257 -0.148,0.258 m -9.113,21.632 0.913,-0.045 0.998,-0.456 0.979,-0.82 0.856,-1.098 0.646,-1.26 0.365,-1.29 0.048,-1.185 -0.27,-0.944 m 4.578,-14.534 -0.121,0.243 -0.086,0.249 -0.048,0.243 -0.008,0.227 0.034,0.2 0.072,0.165 0.109,0.121 0.049,0.034 m 1.202,-3.534 0.154,-0.223 0.174,-0.196 0.188,-0.159 0.193,-0.114 0.189,-0.066 0.177,-0.013 0.156,0.039 0.038,0.019 m -7.774,12.947 -0.125,0.267 -0.124,0.268 -0.124,0.268 -0.123,0.268 -0.122,0.268 -0.122,0.268 -0.121,0.268 -0.12,0.269 m 15.168,-25.858 -0.175,0.236 -0.175,0.236 -0.174,0.236 -0.174,0.237 -0.174,0.237 -0.173,0.238 -0.172,0.238 -0.172,0.239 m -12.798,21.817 0.13,-0.239 0.158,-0.22 0.177,-0.189 0.19,-0.152 0.193,-0.106 0.187,-0.056 0.174,-0.004 0.152,0.048 m 11.437,-20.899 -0.145,0.231 -0.115,0.245 -0.08,0.249 -0.041,0.241 v 0.223 l 0.04,0.194 0.08,0.157 0.114,0.113 m 4.401,-3.084 0.805,-0.203 1.003,-0.607 0.943,-0.94 0.784,-1.176 0.543,-1.288 0.244,-1.265 -0.08,-1.109 -0.396,-0.836 m -21.879,32.816 -0.093,0.249 -0.055,0.245 -0.015,0.23 0.026,0.206 0.066,0.171 0.102,0.13 0.072,0.051 m 15.065,-27.14 0.171,-0.201 0.186,-0.166 0.193,-0.123 0.19,-0.075 0.18,-0.022 0.161,0.029 0.064,0.031 m -20.464,36.857 -0.094,0.271 -0.092,0.272 -0.093,0.271 -0.091,0.271 -0.091,0.272 -0.09,0.271 -0.089,0.271 -0.089,0.272 m 0.729,-2.171 0.104,-0.248 0.136,-0.236 0.162,-0.215 0.18,-0.183 0.19,-0.144 0.193,-0.098 0.186,-0.047 0.17,0.005 m -3.682,12.403 0.971,-0.27 1.001,-0.66 0.925,-0.982 0.754,-1.2 0.501,-1.293 0.198,-1.25 -0.084,-0.917 m 24.505,-49.688 -0.165,0.211 -0.14,0.234 -0.109,0.247 -0.073,0.248 -0.033,0.239 0.007,0.218 0.047,0.188 0.086,0.15 m 1.913,-3.419 -0.193,0.208 -0.192,0.209 -0.192,0.21 -0.192,0.21 -0.191,0.211 -0.191,0.211 -0.191,0.213 -0.191,0.212 m -27.139,47.194 -0.062,0.246 -0.022,0.234 0.019,0.211 0.059,0.178 0.096,0.137 0.092,0.072 m 25.962,-41.524 -1.147,1.367 m -6.085,8.103 -0.94,1.398 -0.801,1.226 m -4.867,8.284 -1.476,2.86 m -4.062,9.122 -0.75,1.963 m 22.656,-42.755 0.184,-0.173 0.192,-0.131 0.192,-0.084 0.182,-0.032 0.165,0.021 0.091,0.039 m 2.559,1.478 0.683,-0.315 0.989,-0.772 0.88,-1.064 0.681,-1.244 0.409,-1.294 0.096,-1.209 -0.23,-0.995 m -38.618,65.096 0.074,-0.248 0.11,-0.247 0.141,-0.233 0.166,-0.21 0.182,-0.177 0.192,-0.136 0.192,-0.089 0.184,-0.037 m -1.241,1.377 -0.06,0.267 -0.058,0.267 -0.058,0.267 -0.057,0.267 -0.057,0.266 -0.056,0.266 -0.055,0.266 -0.054,0.266 m 39.675,-68.992 -0.179,0.185 -0.161,0.215 -0.135,0.237 -0.103,0.248 -0.066,0.248 -0.027,0.235 0.015,0.214 0.054,0.182 m 2.232,-3.185 -0.204,0.175 -0.204,0.176 -0.205,0.176 -0.203,0.178 -0.204,0.178 -0.203,0.178 -0.204,0.18 -0.203,0.18 m -39.675,68.992 -0.029,0.237 0.011,0.216 0.052,0.184 0.09,0.145 0.112,0.093 m -0.622,7.675 1.001,-0.485 0.973,-0.844 0.844,-1.113 0.627,-1.267 0.343,-1.287 0.052,-0.82 m 37.851,-73.147 0.191,-0.139 0.193,-0.092 0.184,-0.042 0.168,0.011 0.119,0.047 m 3.313,1.914 0.529,-0.353 0.951,-0.919 0.799,-1.163 0.562,-1.285 0.267,-1.27 -0.056,-1.125 m -50.033,84.927 0.042,-0.242 0.081,-0.249 0.116,-0.244 0.146,-0.23 0.169,-0.205 0.185,-0.17 0.192,-0.128 0.191,-0.08 m -1.122,1.548 -0.023,0.255 -0.023,0.254 -0.022,0.254 -0.021,0.254 -0.021,0.253 -0.02,0.253 -0.018,0.253 -0.019,0.252 m 51.006,-88.694 -0.189,0.153 -0.177,0.191 -0.157,0.22 -0.13,0.239 -0.096,0.249 -0.06,0.246 -0.019,0.233 0.022,0.208 m 2.483,-2.854 -0.21,0.137 -0.21,0.137 -0.209,0.138 -0.21,0.139 -0.21,0.14 -0.209,0.14 -0.21,0.142 -0.209,0.142 m -51.006,88.694 0.005,0.22 0.044,0.191 0.084,0.153 0.118,0.108 0.012,0.007 m 0.61,7.095 0.999,-0.686 0.916,-1.002 0.738,-1.211 0.481,-1.295 0.131,-0.663 m 48.545,-92.726 0.193,-0.101 0.186,-0.05 0.172,0.001 0.147,0.053 m 3.953,2.283 0.357,-0.313 0.891,-1.046 0.698,-1.235 0.431,-1.295 0.119,-1.219 m -59.927,102.176 0.009,-0.227 0.049,-0.244 0.088,-0.249 0.121,-0.243 0.151,-0.226 0.172,-0.199 0.187,-0.163 0.193,-0.12 m 72.676,-46.813 2.357,1.362 m 1.992,-4.219 2.002,1.156 m -79.997,50.185 0.013,0.235 0.014,0.234 0.015,0.234 0.015,0.233 0.016,0.233 0.017,0.232 0.018,0.232 0.019,0.231 m 53.537,-11.718 2.417,1.396 m -2.19,-6.59 2.801,1.618 m 4.22,-90.408 -0.192,0.116 -0.188,0.16 -0.174,0.197 -0.152,0.224 -0.125,0.242 -0.09,0.249 -0.052,0.245 -0.012,0.229 m 2.659,-2.436 -0.209,0.093 -0.209,0.095 -0.209,0.095 -0.209,0.096 -0.209,0.098 -0.21,0.098 -0.209,0.099 -0.21,0.1 m -60.785,105.702 0.037,0.196 0.077,0.16 0.112,0.116 0.036,0.024 m 62.197,-106.972 0.188,-0.06 0.175,-0.008 0.154,0.045 0.023,0.012 m -5.72,93.736 -3.246,-1.875 m 7.244,18.463 9.22,5.326 m -9.22,-5.326 0.088,0.002 0.089,0.002 0.089,0.001 h 0.088 0.09 0.089 l 0.089,-0.001 0.09,-0.002 m 9.22,5.325 -9.22,-5.325 m 28.426,-21.799 9.22,5.325 m -9.22,-5.325 0.071,-0.122 0.07,-0.122 0.071,-0.122 0.07,-0.122 0.07,-0.122 0.07,-0.123 0.069,-0.122 0.069,-0.123 m 9.22,5.325 -9.22,-5.325 m 4.35,-35.387 9.221,5.325 m -9.221,-5.325 -0.044,-0.077 -0.045,-0.077 -0.045,-0.076 -0.046,-0.076 -0.046,-0.076 -0.046,-0.075 -0.046,-0.075 -0.047,-0.074 m 9.22,5.325 -9.22,-5.325 m -19.37,3.607 2.853,1.647 m -0.787,0.603 -3.003,-1.734 m -20.671,35.103 3.418,1.974 m -55.296,20.492 0.967,-0.866 0.831,-1.129 0.608,-1.273 0.149,-0.458 m 62.795,-106.949 0.178,-0.198 0.813,-1.149 0.581,-1.279 0.29,-1.277 m -68,116.322 -0.025,-0.206 0.016,-0.232 0.056,-0.245 0.094,-0.249 0.128,-0.241 0.155,-0.222 0.175,-0.193 0.189,-0.156 m -0.788,1.744 0.049,0.208 0.05,0.206 0.051,0.207 0.052,0.205 0.052,0.205 0.053,0.204 0.054,0.204 0.055,0.202 m 68.719,-119.497 -0.191,0.076 -0.192,0.125 -0.186,0.167 -0.171,0.202 -0.147,0.229 -0.119,0.244 -0.084,0.249 -0.045,0.242 m 2.754,-1.944 -0.201,0.048 -0.202,0.048 -0.202,0.05 -0.203,0.051 -0.202,0.052 -0.203,0.053 -0.203,0.053 -0.203,0.055 m -68.719,119.497 0.07,0.168 0.106,0.124 0.058,0.041 m 70.104,-120.24 0.178,-0.017 0.159,0.035 0.048,0.024 M -64.9,5.557 l 0.906,-1.021 0.721,-1.222 0.098,-0.219 m 70.525,-120.176 0.008,-0.011 0.715,-1.226 0.452,-1.295 M -65.482,7.32 -65.54,7.141 l -0.018,-0.212 0.024,-0.234 0.063,-0.247 0.1,-0.248 0.133,-0.239 0.159,-0.217 0.179,-0.187 m -0.582,1.763 0.084,0.174 0.084,0.173 0.086,0.172 0.086,0.172 0.087,0.171 0.088,0.17 0.088,0.169 0.089,0.169 m 74.565,-129.663 -0.183,0.034 -0.191,0.085 -0.192,0.133 -0.184,0.174 -0.167,0.208 -0.143,0.231 -0.113,0.246 -0.077,0.249 m 2.766,-1.393 h -0.189 l -0.188,0.002 -0.189,0.003 -0.19,0.003 -0.189,0.005 -0.19,0.006 -0.19,0.007 -0.191,0.007 M -64.79,8.69 l 0.1,0.132 0.08,0.059 m 4.161,3.967 0.794,-1.105 m 70.946,-132.749 0.162,0.026 0.075,0.034 m 4.967,2.869 0.463,-1.033 m -77.766,133.687 -0.089,-0.147 -0.05,-0.185 -0.011,-0.217 0.031,-0.237 0.07,-0.248 0.107,-0.247 0.137,-0.235 0.164,-0.213 m -0.359,1.729 0.116,0.135 0.117,0.134 0.118,0.134 0.118,0.132 0.119,0.132 0.119,0.13 0.12,0.13 0.121,0.129 m 78.145,-135.887 -0.169,-0.01 -0.185,0.044 -0.192,0.094 -0.192,0.14 -0.181,0.181 -0.163,0.212 -0.138,0.236 -0.107,0.247 m 2.693,-0.8 -0.169,-0.047 -0.17,-0.045 -0.17,-0.045 -0.171,-0.043 -0.171,-0.043 -0.171,-0.041 -0.172,-0.041 -0.172,-0.039 m -78.145,135.887 0.1,0.08 m 79.411,-135.623 0.102,0.042 m -74.46,139.79 -0.117,-0.11 -0.082,-0.154 -0.044,-0.191 -0.003,-0.221 0.038,-0.241 0.077,-0.248 0.069,-0.161 m 0.062,1.326 0.145,0.092 0.145,0.091 0.146,0.09 0.147,0.09 0.147,0.088 0.148,0.088 0.148,0.086 0.02,0.012 m 79.479,-137.91 -0.15,-0.053 h -0.173 l -0.187,0.053 -0.192,0.102 -0.19,0.149 -0.139,0.14 m 9.534,56.747 2.037,1.176 m -10.411,-58.24 -0.129,-0.074 M 0.248,-0.721 2.266,0.445 m 23.155,-64.904 0.759,0.043 M -7.457,-5.621 -7.915,-6.295 m 10.016,39.429 -1.523,1.219 -1.512,1.176 m -3.449,2.554 -4.84,3.289 -4.936,3.005 -4.935,2.653 -4.915,2.292 -4.877,1.921 -4.82,1.543 -4.744,1.159 -4.651,0.771 -4.54,0.381 -4.413,-0.012 -4.267,-0.405 -4.106,-0.795 -3.929,-1.184 -3.738,-1.566 -3.532,-1.944 -3.313,-2.314 -3.081,-2.676 -2.838,-3.026 -2.584,-3.366 -2.32,-3.693 -2.047,-4.006 -1.766,-4.303 -1.479,-4.585 -1.187,-4.849 -0.889,-5.094 -0.588,-5.321 -0.286,-5.526 0.019,-5.712 0.322,-5.875 0.626,-6.016 0.925,-6.135 1.223,-6.229 1.514,-6.301 1.802,-6.348 2.08,-6.372 2.353,-6.371 2.615,-6.347 2.869,-6.297 3.11,-6.224 3.34,-6.128 3.558,-6.008 3.762,-5.866 3.952,-5.701 4.127,-5.514 4.285,-5.307 4.429,-5.08 4.555,-4.833 4.663,-4.568 4.755,-4.285 4.827,-3.987 4.883,-3.673 4.919,-3.346 4.936,-3.005 4.935,-2.653 4.915,-2.291 4.877,-1.921 4.819,-1.543 4.745,-1.16 4.651,-0.771 4.54,-0.38 4.412,0.012 4.267,0.404 4.106,0.796 3.93,1.183 3.738,1.567 3.532,1.944 3.313,2.314 3.081,2.675 2.838,3.026 2.584,3.366 2.319,3.693 2.047,4.006 1.767,4.304 1.479,4.584 1.187,4.849 0.889,5.094 0.588,5.321 0.285,5.527 -0.018,5.711 -0.323,5.875 -0.295,3.188 m -0.645,5.14 -0.503,3.195 m -247.316,59.04 -1.061,-0.637 -3.313,-2.314 -3.082,-2.675 -2.837,-3.026 -2.584,-3.366 -2.32,-3.693 -2.047,-4.006 -1.766,-4.304 -1.48,-4.584 -1.186,-4.849 -0.889,-5.094 -0.589,-5.321 -0.285,-5.527 0.019,-5.711 0.322,-5.875 0.625,-6.016 0.926,-6.135 1.223,-6.229 1.514,-6.301 1.801,-6.349 2.081,-6.372 2.353,-6.371 2.615,-6.346 2.868,-6.297 3.111,-6.225 3.34,-6.127 3.558,-6.009 3.762,-5.865 3.952,-5.701 4.126,-5.514 4.286,-5.308 4.429,-5.079 4.554,-4.833 4.664,-4.568 4.755,-4.286 4.827,-3.986 4.883,-3.674 4.918,-3.345 4.936,-3.005 4.936,-2.653 4.915,-2.292 4.877,-1.921 4.819,-1.543 4.745,-1.159 4.651,-0.771 4.54,-0.381 4.412,0.012 4.267,0.405 4.106,0.795 3.93,1.184 3.737,1.566 2.472,1.308 m -12.232,225.7 -0.728,-2.579 -1.017,-4.628 -0.72,-4.866 -0.418,-5.083 -0.117,-5.278 0.187,-5.45 0.489,-5.6 0.789,-5.724 1.086,-5.825 1.378,-5.9 1.664,-5.951 1.944,-5.975 2.214,-5.975 2.475,-5.948 2.727,-5.897 2.965,-5.82 3.191,-5.717 3.404,-5.592 3.603,-5.44 3.784,-5.268 3.952,-5.07 4.101,-4.853 4.232,-4.614 4.347,-4.356 4.442,-4.078 4.518,-3.784 4.575,-3.473 4.612,-3.148 4.63,-2.808 4.627,-2.457 4.605,-2.095 4.564,-1.725 4.502,-1.346 4.421,-0.963 3.79,-0.524 m -49.24,180.787 -2.276,0.406 -4.316,0.485 -4.192,0.087 -4.049,-0.309 -3.889,-0.705 -3.712,-1.098 -3.517,-1.486 -3.309,-1.867 -3.085,-2.241 -2.848,-2.604 -2.599,-2.956 -2.338,-3.295 -2.066,-3.621 -1.787,-3.929 -1.499,-4.22 -1.204,-4.495 -0.905,-4.747 -0.601,-4.981 -0.294,-5.192 0.013,-5.38 0.32,-5.545 0.627,-5.686 0.464,-3.115 m 54.638,-94.671 4.042,-3.161 4.624,-3.276 4.649,-2.936 4.653,-2.584 4.636,-2.219 4.601,-1.846 4.544,-1.463 4.467,-1.076 4.372,-0.682 4.256,-0.287 4.123,0.111 3.971,0.508 3.803,0.902 3.616,1.292 3.415,1.678 3.199,2.055 2.968,2.423 2.725,2.782 2.47,3.128 2.203,3.459 1.928,3.777 1.644,4.077 0.689,2.072 m -122.703,60.996 0.167,-0.579 1.553,-4.852 1.823,-4.85 2.082,-4.819 2.327,-4.755 2.557,-4.661 2.771,-4.536 2.967,-4.383 3.143,-4.2 0.099,-0.125 m -19.489,37.76 0.167,-0.579 1.553,-4.852 1.823,-4.85 2.082,-4.819 2.327,-4.755 2.557,-4.661 2.771,-4.536 2.967,-4.383 3.143,-4.2 0.099,-0.125 m 46.279,104.045 -1.386,0.669 -1.327,0.281 -1.2,-0.121 -1.012,-0.516 -0.776,-0.887 -0.498,-1.211 -0.197,-1.477 -0.003,-0.236 M -4.012,1.926 -2.794,1.358 -1.467,1.077 -0.268,1.198 0.745,1.714 1.52,2.601 2.019,3.812 2.216,5.289 2.101,6.956 1.681,8.73 l -0.705,1.792 -0.954,1.72 -1.155,1.563 -1.299,1.325 -1.378,1.023 m 3.861,-16.18 -0.478,-0.206 m -19.394,-15.731 -1.323,1.264 -1.385,0.947 -1.379,0.585 -1.304,0.192 -1.163,-0.21 -0.964,-0.602 -0.716,-0.964 -0.255,-0.604 m 7.841,-13.575 0.874,-0.087 1.163,0.21 0.963,0.602 0.717,0.963 0.433,1.277 0.128,1.526 -0.184,1.698 -0.486,1.786 -0.764,1.784 -1.003,1.692 -1.193,1.516 m 60.521,-10.089 0.235,1.448 -0.076,1.647 -0.383,1.766 -0.671,1.795 -0.926,1.734 -1.133,1.586 -1.285,1.359 -1.371,1.064 -1.39,0.714 -1.337,0.331 -1.219,-0.071 -1.039,-0.469 -0.807,-0.843 -0.534,-1.174 -0.236,-1.448 -0.01,-0.43 m 1.034,-4.536 0.107,-0.242 0.925,-1.734 0.636,-0.944 m 3.495,-3.273 1.048,-0.506 1.338,-0.331 1.219,0.071 1.039,0.469 0.807,0.843 0.534,1.174 m -11.475,1.69 -0.355,0.603 -0.205,0.376 m -21.231,-39.743 -1.367,1.09 -1.391,0.745 -1.344,0.363 -1.231,-0.038 -1.056,-0.436 -0.828,-0.814 -0.558,-1.149 -0.26,-1.428 -0.018,-0.558 m 6.197,-10.729 0.935,-0.461 1.345,-0.363 1.231,0.038 1.055,0.437 0.828,0.813 0.558,1.149 0.26,1.428 -0.05,1.634 -0.358,1.759 -0.649,1.796 -0.906,1.743 -1.119,1.601 -1.274,1.38 m 39.4,-10.053 -0.002,1.607 -0.311,1.746 -0.606,1.796 -0.869,1.756 -1.089,1.629 -1.254,1.419 -1.357,1.139 -1.392,0.802 -1.356,0.423 -1.252,0.025 -1.087,-0.376 -0.866,-0.757 -0.602,-1.101 -0.308,-1.388 -0.038,-0.795 m 6.197,-10.729 0.721,-0.37 1.356,-0.424 1.253,-0.025 1.086,0.376 0.866,0.757 0.602,1.101 0.308,1.389 m -12.435,12.138 0.273,0.209 0.223,0.141 m -69.738,12.049 -19.674,-11.362 m 30.964,-7.884 -19.674,-11.363 m 12.324,21.345 -19.674,-11.363 m 20.878,9.311 -19.674,-11.362 m 9.358,35.046 -19.674,-11.362 m 22.503,2.056 -19.674,-11.363 m 20.655,9.219 -19.674,-11.363 m 33.861,-12.351 -19.674,-11.362 m 18.285,13.259 -19.674,-11.362 m 27.775,2.507 -19.674,-11.363 m -7.085,56.822 -19.674,-11.363 m 20.403,9.192 -19.674,-11.363 m 17.312,22.6 -19.674,-11.363 M -14.926,-80.131 -34.6,-91.494 m 21.207,9.678 -19.674,-11.363 m 26.747,5.588 -19.674,-11.363 m -18.944,76.459 -19.674,-11.363 m 19.219,13.495 -19.674,-11.362 m 59.349,-57.63 -19.674,-11.362 m 21.304,9.941 -19.674,-11.363 m -22.017,90.326 -19.674,-11.363 m 68.584,-72.016 -19.674,-11.362 m 15.452,-9.571 -3.008,-0.023 -1.771,0.125 m -3.732,0.573 -1.634,0.375 -3.703,1.115 -3.762,1.491 -3.797,1.859 -3.808,2.215 -3.795,2.556 -3.758,2.882 -3.696,3.189 -3.613,3.476 -3.506,3.742 -3.376,3.982 -3.226,4.2 -3.055,4.388 -2.864,4.551 -2.657,4.685 -2.431,4.787 -2.19,4.862 -1.936,4.903 -1.67,4.916 -1.392,4.896 -1.106,4.845 -0.814,4.765 -0.515,4.653 -0.214,4.513 0.089,4.344 0.392,4.147 0.691,3.924 0.936,3.518 m 0.797,2.279 0.528,1.286 1.556,3.113 0.386,0.654 m 19.844,-5.926 -19.674,-11.363 m 19.507,13.391 -19.674,-11.362 m 70.679,-77.332 -19.674,-11.363 m 21.352,10.249 -19.674,-11.363 M -46.195,-0.463 -65.869,-11.826 m 78.631,-89.142 -19.674,-11.363 M -47.165,1.208 -66.839,-10.154 m 19.8,13.226 -19.674,-11.363 m 80.46,-94.339 -19.674,-11.363 m 21.348,10.589 -19.674,-11.363 M -44.935,9.833 -64.609,-1.529 M 22.278,-104.745 2.604,-116.108 M -45.723,11.577 -65.397,0.214 M -45.307,13.219 -64.981,1.856 M 23.412,-106.279 3.739,-117.642 m 21.293,10.953 -19.674,-11.363 M -42.035,18.763 -61.709,7.4 m 93.1,-113.807 -19.674,-11.363 M -42.617,20.526 -62.291,9.163 m 20.367,12.733 -19.674,-11.363 m 94.238,-118.3 -19.674,-11.362 m 21.19,11.329 -19.674,-11.363 M -37.584,26.054 -57.258,14.691 M 39.824,-105.904 20.15,-117.267 M -37.943,27.783 -57.617,16.42 M -36.994,28.839 -56.668,17.477 M 41.15,-107.048 21.476,-118.411 m 21.04,11.707 -19.674,-11.363 m -51.924,151.074 -3.431,-1.981 m 82.479,-132.75 -3.367,-1.944 M -31.842,33.128 -51.516,21.765 m 100.2,-125.91 -19.674,-11.363 M -21.958,36.425 -25.264,34.516 M 56.309,-96.996 53.005,-98.904 M -13.823,37.709 -17.067,35.835 M 61.297,-90.342 58.068,-92.207 M -4.896,36.835 -7.981,35.054 M 64.793,-81.955 61.737,-83.72 M 4.549,33.83 1.718,32.195 M 66.691,-72.09 63.901,-73.701 M 14.227,28.785 11.736,27.346 m 55.198,-88.392 -2.44,-1.409 M 23.844,21.853 21.768,20.654 M 65.514,-49.16 63.499,-50.323 M 33.107,13.245 31.509,12.323 m 30.964,-49.115 -1.529,-0.883 M 41.734,3.223 40.664,2.604 m 17.242,-26.922 -0.997,-0.576 M 49.464,-7.91 48.953,-8.205 m 2.996,-3.913 -0.434,-0.25 m -73.86,50.027 -1.284,0.548 -4.563,1.725 -4.502,1.346 -4.422,0.963 -4.321,0.575 -4.204,0.184 -4.068,-0.207 -3.914,-0.597 -3.744,-0.985 -3.557,-1.369 -3.356,-1.746 -3.14,-2.117 -2.911,-2.478 -2.668,-2.828 -2.416,-3.167 -2.152,-3.491 -1.879,-3.801 -1.598,-4.096 -0.583,-1.792 m 94.818,-153.81 0.532,-0.05 4.204,-0.185 4.067,0.207 3.914,0.598 3.744,0.985 3.558,1.368 3.356,1.747 3.14,2.116 2.91,2.478 2.669,2.828 2.416,3.167 2.152,3.491 1.879,3.802 1.598,4.095 1.311,4.371 1.017,4.629 0.719,4.866 0.07,0.633 m -79.58,135.541 -1.687,0.701 -4.574,1.655 -4.509,1.27 -2.146,0.474 m 89.174,-152.431 0.663,2.288 1.055,4.624 0.753,4.867 0.065,0.557 m -83.497,134.266 -3.783,1.283 -4.429,1.169 -4.338,0.778 -4.228,0.384 -4.1,-0.011 -3.954,-0.407 -3.788,-0.801 -3.608,-1.191 -3.41,-1.575 -3.197,-1.954 -2.97,-2.323 -2.73,-2.682 -2.477,-3.028 -2.214,-3.362 -1.941,-3.68 -1.658,-3.982 -1.369,-4.266 -1.073,-4.531 -0.773,-4.776 -0.469,-4.999 -0.163,-5.2 0.021,-2.153 m 66.972,-115.958 3.819,-2.191 4.579,-2.302 4.549,-1.932 4.499,-1.554 4.429,-1.169 4.338,-0.779 4.228,-0.384 4.1,0.011 3.954,0.407 3.788,0.801 3.608,1.191 3.41,1.576 3.197,1.954 2.97,2.322 2.73,2.682 2.477,3.029 2.214,3.362 1.941,3.68 1.658,3.982 1.369,4.266 1.073,4.531 0.357,1.946 m -91.601,130.909 -1.02,0.135 -3.995,0.287 -3.862,-0.11 -3.71,-0.507 -3.538,-0.901 -3.349,-1.291 -3.144,-1.675 -2.923,-2.049 -2.687,-2.414 -2.439,-2.767 -2.177,-3.106 -1.905,-3.43 -1.623,-3.736 -1.334,-4.024 -1.038,-4.291 -0.736,-4.539 -0.431,-4.761 -0.124,-4.962 0.184,-5.138 0.49,-5.287 0.796,-5.41 1.096,-5.507 1.391,-5.576 1.679,-5.617 1.958,-5.631 2.229,-5.616 2.488,-5.573 2.734,-5.502 2.968,-5.404 3.185,-5.28 3.387,-5.129 3.573,-4.951 3.741,-4.751 3.889,-4.525 4.019,-4.278 4.129,-4.009 4.217,-3.72 4.286,-3.412 4.332,-3.088 4.357,-2.749 4.36,-2.395 4.342,-2.029 4.302,-1.654 4.241,-1.27 4.158,-0.88 4.054,-0.486 3.931,-0.088 3.788,0.308 3.626,0.705 3.446,1.097 3.249,1.483 3.035,1.863 2.807,2.234 2.564,2.592 2.309,2.938 2.043,3.27 1.765,3.585 0.495,1.186"
       style="fill:none;stroke:#000000;stroke-width:0.709;stroke-linecap:round;stroke-linejoin:round;stroke-miterlimit:10;stroke-dasharray:none;stroke-opacity:1"
       id="path4105" /></g></svg>
